<?xml version="1.0" standalone="no" ?>
<!DOCTYPE svg PUBLIC "-//W3C//DTD SVG 1.1//EN" "http://www.w3.org/Graphics/SVG/1.1/DTD/svg11.dtd">
<svg width="505px" height="162px" viewBox="0 0 505 162" style="background-color: #ffffff00" xmlns="http://www.w3.org/2000/svg" xmlns:xlink="http://www.w3.org/1999/xlink" version="1.1" >
<text x="0" y="0" stroke="none" fill="#000000" transform="matrix(0.0833333 0 0 0.0833333 17.5417 74.4416)" font-style="normal" font-weight="normal" font-size="180px" font-family="Arial" >
N</text>
<text x="0" y="0" stroke="none" fill="#000000" transform="matrix(0.0833333 0 0 0.0833333 10.125 97.2583)" font-style="normal" font-weight="normal" font-size="180px" font-family="Arial" >
N</text>
<text x="0" y="0" stroke="none" fill="#000000" transform="matrix(0.0833333 0 0 0.0833333 29.125 111.375)" font-style="normal" font-weight="normal" font-size="180px" font-family="Arial" >
O</text>
<path stroke="none" fill="#000000" transform="matrix(0.0833333 0 0 0.0833333 -29.175 -853.833)" d="M 707.4,11077.3 L 707.4,11060.3 L 909.271,11060.3 L 913.6,11068.8 L 907.425,11077.3 L 707.4,11077.3 Z " />
<path stroke="none" fill="#000000" transform="matrix(0.0833333 0 0 0.0833333 -29.175 -853.833)" d="M 576,11248.9 L 559.833,11243.6 L 582.184,11174.9 L 598.351,11180.1 L 576,11248.9 Z " />
<path stroke="none" fill="#000000" transform="matrix(0.0833333 0 0 0.0833333 -29.175 -853.833)" d="M 625.284,11264.9 L 609.117,11259.6 L 631.468,11190.9 L 647.635,11196.1 L 625.284,11264.9 Z " />
<path stroke="none" fill="#000000" transform="matrix(0.0833333 0 0 0.0833333 -29.175 -853.833)" d="M 700.096,11451 L 690.099,11464.7 L 623.405,11416.2 L 633.402,11402.5 L 700.096,11451 Z " />
<path stroke="none" fill="#000000" transform="matrix(0.0833333 0 0 0.0833333 -29.175 -853.833)" d="M 992.608,11339.4 L 1002.6,11342.6 L 1004.09,11352 L 849.458,11464.4 L 839.461,11450.7 L 992.608,11339.4 Z " />
<path stroke="none" fill="#000000" transform="matrix(0.0833333 0 0 0.0833333 -29.175 -853.833)" d="M 907.425,11077.3 L 913.6,11068.8 L 923.023,11070.3 L 1009.34,11335.9 L 1002.6,11342.6 L 992.608,11339.4 L 907.425,11077.3 Z " />
<path stroke="none" fill="#000000" transform="matrix(0.0833333 0 0 0.0833333 -29.175 -853.833)" d="M 867.87,11123.2 L 884.037,11118 L 949.763,11320.2 L 933.595,11325.4 L 867.87,11123.2 Z " />
<text x="0" y="0" stroke="none" fill="#000000" transform="matrix(0.0833333 0 0 0.0833333 72.2333 104.675)" font-style="normal" font-weight="normal" font-size="180px" font-family="Arial" >
X</text>
<path stroke="none" fill="#000000" transform="matrix(0.0833333 0 0 0.0833333 -29.175 -853.833)" d="M 1185.5,11393.1 L 1180.24,11409.3 L 1004.09,11352 L 1002.6,11342.6 L 1009.34,11335.9 L 1185.5,11393.1 Z " />
<text x="0" y="0" stroke="none" fill="#000000" transform="matrix(0.0833333 0 0 0.0833333 3.425 55.025)" font-style="normal" font-weight="normal" font-size="180px" font-family="Arial" >
R</text>
<path stroke="none" fill="#000000" transform="matrix(0.0833333 0 0 0.0833333 -29.175 -853.833)" d="M 522.492,10941.4 L 536.242,10931.4 L 569.108,10976.6 L 555.358,10986.6 L 522.492,10941.4 Z " />
<path stroke="none" fill="#000000" transform="matrix(0.0833333 0 0 0.0833333 -29.175 -853.833)" d="M 668.9,10940.2 L 745.9,10940.2 L 745.9,10954.2 L 668.9,10954.2 Z " />
<path stroke="none" fill="#000000" transform="matrix(0.0833333 0 0 0.0833333 -29.175 -853.833)" d="M 714.4,10908.7 L 714.4,10985.7 L 700.4,10985.7 L 700.4,10908.7 Z " />
<path stroke="none" fill="#000000" transform="matrix(0.0833333 0 0 0.0833333 -29.175 -853.833)" d="M 1341.3,11321.4 L 1418.3,11321.4 L 1418.3,11335.4 L 1341.3,11335.4 Z " />
<path stroke="none" fill="#000000" transform="matrix(0.0833333 0 0 0.0833333 -29.175 -853.833)" d="M 1073.24,10834.8 L 1083,10835.8 L 1086.99,10844.8 L 923.023,11070.3 L 913.6,11068.8 L 909.271,11060.3 L 1073.24,10834.8 Z " />
<text x="0" y="0" stroke="none" fill="#d90000" transform="matrix(0.0833333 0 0 0.0833333 80.3583 57.525)" font-style="normal" font-weight="bold" font-size="180px" font-family="Arial" >
Fc</text>
<path stroke="none" fill="#000000" transform="matrix(0.0833333 0 0 0.0833333 -29.175 -853.833)" d="M 1298.1,10849.8 L 1296.33,10866.7 L 1086.99,10844.8 L 1083,10835.8 L 1088.77,10827.9 L 1298.1,10849.8 Z " />
<text x="0" y="0" stroke="none" fill="#000000" transform="matrix(0.0833333 0 0 0.0833333 134.708 74.2917)" font-style="normal" font-weight="normal" font-size="180px" font-family="Arial" >
N</text>
<text x="0" y="0" stroke="none" fill="#000000" transform="matrix(0.0833333 0 0 0.0833333 127.292 97.1083)" font-style="normal" font-weight="normal" font-size="180px" font-family="Arial" >
N</text>
<text x="0" y="0" stroke="none" fill="#000000" transform="matrix(0.0833333 0 0 0.0833333 146.292 111.225)" font-style="normal" font-weight="normal" font-size="180px" font-family="Arial" >
O</text>
<path stroke="none" fill="#000000" transform="matrix(0.0833333 0 0 0.0833333 -29.175 -853.833)" d="M 2113.4,11075.5 L 2113.4,11058.5 L 2315.07,11058.5 L 2319.4,11067 L 2313.22,11075.5 L 2113.4,11075.5 Z " />
<path stroke="none" fill="#000000" transform="matrix(0.0833333 0 0 0.0833333 -29.175 -853.833)" d="M 1982,11247.1 L 1965.83,11241.8 L 1988.18,11173.1 L 2004.35,11178.3 L 1982,11247.1 Z " />
<path stroke="none" fill="#000000" transform="matrix(0.0833333 0 0 0.0833333 -29.175 -853.833)" d="M 2031.28,11263.1 L 2015.12,11257.8 L 2037.47,11189.1 L 2053.63,11194.3 L 2031.28,11263.1 Z " />
<path stroke="none" fill="#000000" transform="matrix(0.0833333 0 0 0.0833333 -29.175 -853.833)" d="M 2106.1,11449.2 L 2096.1,11462.9 L 2029.41,11414.4 L 2039.4,11400.7 L 2106.1,11449.2 Z " />
<path stroke="none" fill="#000000" transform="matrix(0.0833333 0 0 0.0833333 -29.175 -853.833)" d="M 2398.41,11337.6 L 2408.4,11340.8 L 2409.9,11350.2 L 2255.44,11462.6 L 2245.44,11448.9 L 2398.41,11337.6 Z " />
<path stroke="none" fill="#000000" transform="matrix(0.0833333 0 0 0.0833333 -29.175 -853.833)" d="M 2313.22,11075.5 L 2319.4,11067 L 2328.82,11068.5 L 2415.15,11334.1 L 2408.4,11340.8 L 2398.41,11337.6 L 2313.22,11075.5 Z " />
<path stroke="none" fill="#000000" transform="matrix(0.0833333 0 0 0.0833333 -29.175 -853.833)" d="M 2273.67,11121.4 L 2289.84,11116.2 L 2355.57,11318.4 L 2339.4,11323.7 L 2273.67,11121.4 Z " />
<text x="0" y="0" stroke="none" fill="#000000" transform="matrix(0.0833333 0 0 0.0833333 189.383 104.525)" font-style="normal" font-weight="normal" font-size="180px" font-family="Arial" >
X</text>
<path stroke="none" fill="#000000" transform="matrix(0.0833333 0 0 0.0833333 -29.175 -853.833)" d="M 2591.3,11391.3 L 2586.04,11407.5 L 2409.9,11350.2 L 2408.4,11340.8 L 2415.15,11334.1 L 2591.3,11391.3 Z " />
<text x="0" y="0" stroke="none" fill="#000000" transform="matrix(0.0833333 0 0 0.0833333 120.592 54.875)" font-style="normal" font-weight="normal" font-size="180px" font-family="Arial" >
R</text>
<path stroke="none" fill="#000000" transform="matrix(0.0833333 0 0 0.0833333 -29.175 -853.833)" d="M 1928.49,10939.6 L 1942.24,10929.6 L 1975.11,10974.8 L 1961.36,10984.8 L 1928.49,10939.6 Z " />
<path stroke="none" fill="#000000" transform="matrix(0.0833333 0 0 0.0833333 -29.175 -853.833)" d="M 2074.9,10938.4 L 2151.9,10938.4 L 2151.9,10952.4 L 2074.9,10952.4 Z " />
<path stroke="none" fill="#000000" transform="matrix(0.0833333 0 0 0.0833333 -29.175 -853.833)" d="M 2120.4,10906.9 L 2120.4,10983.9 L 2106.4,10983.9 L 2106.4,10906.9 Z " />
<path stroke="none" fill="#000000" transform="matrix(0.0833333 0 0 0.0833333 -29.175 -853.833)" d="M 2747.1,11319.6 L 2824.1,11319.6 L 2824.1,11333.6 L 2747.1,11333.6 Z " />
<text x="0" y="0" stroke="none" fill="#000000" transform="matrix(0.0833333 0 0 0.0833333 173.225 54.875)" font-style="normal" font-weight="normal" font-size="180px" font-family="Arial" >
S</text>
<path stroke="none" fill="#000000" transform="matrix(0.0833333 0 0 0.0833333 -29.175 -853.833)" d="M 2420.98,10912.8 L 2434.73,10922.8 L 2328.82,11068.5 L 2319.4,11067 L 2315.07,11058.5 L 2420.98,10912.8 Z " />
<path stroke="none" fill="#000000" transform="matrix(0.0833333 0 0 0.0833333 -29.175 -853.833)" d="M 2771.21,10855 L 2775.2,10864 L 2769.44,10871.9 L 2569,10850.9 L 2570.77,10834 L 2771.21,10855 Z " />
<text x="0" y="0" stroke="none" fill="#000000" transform="matrix(0.0833333 0 0 0.0833333 48.0083 134.917)" font-style="normal" font-weight="normal" font-size="180px" font-family="Arial" >
X </text>
<text x="0" y="0" stroke="none" fill="#000000" transform="matrix(0.0833333 0 0 0.0833333 62.1807 134.917)" font-style="normal" font-weight="normal" font-size="180px" font-family="Arial" >
= </text>
<text x="0" y="0" stroke="none" fill="#000000" transform="matrix(0.0833333 0 0 0.0833333 75.1079 134.917)" font-style="normal" font-weight="normal" font-size="180px" font-family="Arial" >
O, </text>
<text x="0" y="0" stroke="none" fill="#000000" transform="matrix(0.0833333 0 0 0.0833333 95.1104 134.917)" font-style="normal" font-weight="normal" font-size="180px" font-family="Arial" >
NR&apos;&apos;&apos;</text>
<text x="0" y="0" stroke="none" fill="#000000" transform="matrix(0.0833333 0 0 0.0833333 34.6408 33.0916)" font-style="normal" font-weight="normal" font-size="180px" font-family="Arial" >
HO</text>
<path stroke="none" fill="#000000" transform="matrix(0.0833333 0 0 0.0833333 -29.175 -853.833)" d="M 1000.68,10671.8 L 1016.21,10664.9 L 1088.77,10827.9 L 1083,10835.8 L 1073.24,10834.8 L 1000.68,10671.8 Z " />
<text x="0" y="0" stroke="none" fill="#000000" transform="matrix(0.0833333 0 0 0.0833333 210.792 37.9417)" font-style="normal" font-weight="normal" font-size="180px" font-family="Arial" >
R&apos;</text>
<path stroke="none" fill="#000000" transform="matrix(0.0833333 0 0 0.0833333 -29.175 -853.833)" d="M 2868.4,10721.2 L 2882.15,10731.2 L 2784.96,10865 L 2775.2,10864 L 2771.21,10855 L 2868.4,10721.2 Z " />
<text x="0" y="0" stroke="none" fill="#d90000" transform="matrix(0.0833333 0 0 0.0833333 207.292 79.2917)" font-style="normal" font-weight="bold" font-size="180px" font-family="Arial" >
Fc</text>
<path stroke="none" fill="#000000" transform="matrix(0.0833333 0 0 0.0833333 -29.175 -853.833)" d="M 2857.57,11027.7 L 2842.05,11034.6 L 2769.44,10871.9 L 2775.2,10864 L 2784.96,10865 L 2857.57,11027.7 Z " />
<text x="0" y="0" stroke="none" fill="#000000" transform="matrix(0.0833333 0 0 0.0833333 256.008 74.4583)" font-style="normal" font-weight="normal" font-size="180px" font-family="Arial" >
N</text>
<text x="0" y="0" stroke="none" fill="#000000" transform="matrix(0.0833333 0 0 0.0833333 248.592 97.275)" font-style="normal" font-weight="normal" font-size="180px" font-family="Arial" >
N</text>
<text x="0" y="0" stroke="none" fill="#000000" transform="matrix(0.0833333 0 0 0.0833333 267.592 111.392)" font-style="normal" font-weight="normal" font-size="180px" font-family="Arial" >
O</text>
<path stroke="none" fill="#000000" transform="matrix(0.0833333 0 0 0.0833333 -29.175 -853.833)" d="M 3569,11077.5 L 3569,11060.5 L 3770.87,11060.5 L 3775.2,11069 L 3769.03,11077.5 L 3569,11077.5 Z " />
<path stroke="none" fill="#000000" transform="matrix(0.0833333 0 0 0.0833333 -29.175 -853.833)" d="M 3437.6,11249.1 L 3421.43,11243.8 L 3443.78,11175.1 L 3459.95,11180.3 L 3437.6,11249.1 Z " />
<path stroke="none" fill="#000000" transform="matrix(0.0833333 0 0 0.0833333 -29.175 -853.833)" d="M 3486.88,11265.1 L 3470.72,11259.8 L 3493.07,11191.1 L 3509.23,11196.3 L 3486.88,11265.1 Z " />
<path stroke="none" fill="#000000" transform="matrix(0.0833333 0 0 0.0833333 -29.175 -853.833)" d="M 3561.7,11451.2 L 3551.7,11464.9 L 3485.01,11416.4 L 3495,11402.7 L 3561.7,11451.2 Z " />
<path stroke="none" fill="#000000" transform="matrix(0.0833333 0 0 0.0833333 -29.175 -853.833)" d="M 3854.21,11339.6 L 3864.2,11342.8 L 3865.69,11352.2 L 3711.06,11464.6 L 3701.06,11450.9 L 3854.21,11339.6 Z " />
<path stroke="none" fill="#000000" transform="matrix(0.0833333 0 0 0.0833333 -29.175 -853.833)" d="M 3769.03,11077.5 L 3775.2,11069 L 3784.62,11070.5 L 3870.94,11336.1 L 3864.2,11342.8 L 3854.21,11339.6 L 3769.03,11077.5 Z " />
<path stroke="none" fill="#000000" transform="matrix(0.0833333 0 0 0.0833333 -29.175 -853.833)" d="M 3729.47,11123.4 L 3745.64,11118.2 L 3811.36,11320.4 L 3795.2,11325.6 L 3729.47,11123.4 Z " />
<text x="0" y="0" stroke="none" fill="#000000" transform="matrix(0.0833333 0 0 0.0833333 310.7 104.692)" font-style="normal" font-weight="normal" font-size="180px" font-family="Arial" >
X</text>
<path stroke="none" fill="#000000" transform="matrix(0.0833333 0 0 0.0833333 -29.175 -853.833)" d="M 4047.1,11393.3 L 4041.84,11409.5 L 3865.69,11352.2 L 3864.2,11342.8 L 3870.94,11336.1 L 4047.1,11393.3 Z " />
<text x="0" y="0" stroke="none" fill="#000000" transform="matrix(0.0833333 0 0 0.0833333 241.892 55.0416)" font-style="normal" font-weight="normal" font-size="180px" font-family="Arial" >
R</text>
<path stroke="none" fill="#000000" transform="matrix(0.0833333 0 0 0.0833333 -29.175 -853.833)" d="M 3384.09,10941.6 L 3397.84,10931.6 L 3430.71,10976.8 L 3416.96,10986.8 L 3384.09,10941.6 Z " />
<path stroke="none" fill="#000000" transform="matrix(0.0833333 0 0 0.0833333 -29.175 -853.833)" d="M 3530.5,10940.4 L 3607.5,10940.4 L 3607.5,10954.4 L 3530.5,10954.4 Z " />
<path stroke="none" fill="#000000" transform="matrix(0.0833333 0 0 0.0833333 -29.175 -853.833)" d="M 3576,10908.9 L 3576,10985.9 L 3562,10985.9 L 3562,10908.9 Z " />
<path stroke="none" fill="#000000" transform="matrix(0.0833333 0 0 0.0833333 -29.175 -853.833)" d="M 4202.9,11321.6 L 4279.9,11321.6 L 4279.9,11335.6 L 4202.9,11335.6 Z " />
<text x="0" y="0" stroke="none" fill="#000000" transform="matrix(0.0833333 0 0 0.0833333 294.542 55.0416)" font-style="normal" font-weight="normal" font-size="180px" font-family="Arial" >
S</text>
<path stroke="none" fill="#000000" transform="matrix(0.0833333 0 0 0.0833333 -29.175 -853.833)" d="M 3876.78,10914.8 L 3890.53,10924.8 L 3784.62,11070.5 L 3775.2,11069 L 3770.87,11060.5 L 3876.78,10914.8 Z " />
<path stroke="none" fill="#000000" transform="matrix(0.0833333 0 0 0.0833333 -29.175 -853.833)" d="M 4227,10857 L 4235,10875 L 4024.8,10852.9 L 4026.57,10836 L 4227,10857 Z " />
<path stroke="none" fill="#000000" transform="matrix(0.0833333 0 0 0.0833333 -29.175 -853.833)" d="M 4396.21,10623.8 L 4404.19,10641.8 L 4235,10875 L 4227,10857 L 4396.21,10623.8 Z " />
<text x="0" y="0" stroke="none" fill="#d90000" transform="matrix(0.0833333 0 0 0.0833333 356.792 40.625)" font-style="normal" font-weight="bold" font-size="180px" font-family="Arial" >
Fc</text>
<path stroke="none" fill="#000000" transform="matrix(0.0833333 0 0 0.0833333 -29.175 -853.833)" d="M 4615.32,10646.9 L 4613.53,10663.8 L 4404.19,10641.8 L 4396.21,10623.8 L 4615.32,10646.9 Z " />
<text x="0" y="0" stroke="none" fill="#000000" transform="matrix(0.0833333 0 0 0.0833333 321.908 16.1917)" font-style="normal" font-weight="normal" font-size="180px" font-family="Arial" >
O</text>
<path stroke="none" fill="#000000" transform="matrix(0.0833333 0 0 0.0833333 -29.175 -853.833)" d="M 4294.24,10479.6 L 4309.77,10472.7 L 4390.39,10653.6 L 4374.86,10660.5 L 4294.24,10479.6 Z " />
<path stroke="none" fill="#000000" transform="matrix(0.0833333 0 0 0.0833333 -29.175 -853.833)" d="M 4341.58,10458.5 L 4357.11,10451.6 L 4437.73,10632.5 L 4422.21,10639.4 L 4341.58,10458.5 Z " />
<text x="0" y="0" stroke="none" fill="#000000" transform="matrix(0.0833333 0 0 0.0833333 401.142 54.4083)" font-style="normal" font-weight="normal" font-size="180px" font-family="Arial" >
N</text>
<text x="0" y="0" stroke="none" fill="#000000" transform="matrix(0.0833333 0 0 0.0833333 393.725 77.225)" font-style="normal" font-weight="normal" font-size="180px" font-family="Arial" >
N</text>
<text x="0" y="0" stroke="none" fill="#000000" transform="matrix(0.0833333 0 0 0.0833333 412.742 91.3416)" font-style="normal" font-weight="normal" font-size="180px" font-family="Arial" >
O</text>
<path stroke="none" fill="#000000" transform="matrix(0.0833333 0 0 0.0833333 -29.175 -853.833)" d="M 5310.6,10836.9 L 5310.6,10819.9 L 5512.47,10819.9 L 5516.8,10828.4 L 5510.63,10836.9 L 5310.6,10836.9 Z " />
<path stroke="none" fill="#000000" transform="matrix(0.0833333 0 0 0.0833333 -29.175 -853.833)" d="M 5179.2,11008.5 L 5163.03,11003.2 L 5185.38,10934.5 L 5201.55,10939.7 L 5179.2,11008.5 Z " />
<path stroke="none" fill="#000000" transform="matrix(0.0833333 0 0 0.0833333 -29.175 -853.833)" d="M 5228.48,11024.5 L 5212.32,11019.2 L 5234.67,10950.5 L 5250.83,10955.7 L 5228.48,11024.5 Z " />
<path stroke="none" fill="#000000" transform="matrix(0.0833333 0 0 0.0833333 -29.175 -853.833)" d="M 5303.47,11210.6 L 5293.48,11224.3 L 5226.63,11175.8 L 5236.62,11162 L 5303.47,11210.6 Z " />
<path stroke="none" fill="#000000" transform="matrix(0.0833333 0 0 0.0833333 -29.175 -853.833)" d="M 5595.81,11099 L 5605.8,11102.2 L 5607.3,11111.6 L 5452.84,11224 L 5442.84,11210.3 L 5595.81,11099 Z " />
<path stroke="none" fill="#000000" transform="matrix(0.0833333 0 0 0.0833333 -29.175 -853.833)" d="M 5510.63,10836.9 L 5516.8,10828.4 L 5526.22,10829.9 L 5612.55,11095.5 L 5605.8,11102.2 L 5595.81,11099 L 5510.63,10836.9 Z " />
<path stroke="none" fill="#000000" transform="matrix(0.0833333 0 0 0.0833333 -29.175 -853.833)" d="M 5471.07,10882.8 L 5487.24,10877.6 L 5552.97,11079.8 L 5536.8,11085.1 L 5471.07,10882.8 Z " />
<text x="0" y="0" stroke="none" fill="#000000" transform="matrix(0.0833333 0 0 0.0833333 455.375 84.6417)" font-style="normal" font-weight="normal" font-size="180px" font-family="Arial" >
N</text>
<path stroke="none" fill="#000000" transform="matrix(0.0833333 0 0 0.0833333 -29.175 -853.833)" d="M 5789.15,11152.9 L 5783.9,11169 L 5607.3,11111.6 L 5605.8,11102.2 L 5612.55,11095.5 L 5789.15,11152.9 Z " />
<text x="0" y="0" stroke="none" fill="#000000" transform="matrix(0.0833333 0 0 0.0833333 387.025 34.9916)" font-style="normal" font-weight="normal" font-size="180px" font-family="Arial" >
R</text>
<path stroke="none" fill="#000000" transform="matrix(0.0833333 0 0 0.0833333 -29.175 -853.833)" d="M 5125.69,10701 L 5139.44,10691 L 5172.31,10736.2 L 5158.56,10746.2 L 5125.69,10701 Z " />
<path stroke="none" fill="#000000" transform="matrix(0.0833333 0 0 0.0833333 -29.175 -853.833)" d="M 5272.26,10699.8 L 5349.34,10699.8 L 5349.34,10713.8 L 5272.26,10713.8 Z " />
<path stroke="none" fill="#000000" transform="matrix(0.0833333 0 0 0.0833333 -29.175 -853.833)" d="M 5317.8,10668.3 L 5317.8,10745.3 L 5303.8,10745.3 L 5303.8,10668.3 Z " />
<path stroke="none" fill="#000000" transform="matrix(0.0833333 0 0 0.0833333 -29.175 -853.833)" d="M 5944.5,11081 L 6021.5,11081 L 6021.5,11095 L 5944.5,11095 Z " />
<text x="0" y="0" stroke="none" fill="#000000" transform="matrix(0.0833333 0 0 0.0833333 439.258 34.9916)" font-style="normal" font-weight="normal" font-size="180px" font-family="Arial" >
R&apos;&apos;</text>
<path stroke="none" fill="#000000" transform="matrix(0.0833333 0 0 0.0833333 -29.175 -853.833)" d="M 5609.96,10685.8 L 5623.71,10695.8 L 5526.22,10829.9 L 5516.8,10828.4 L 5512.47,10819.9 L 5609.96,10685.8 Z " />
<path stroke="none" fill="#000000" transform="matrix(0.0833333 0 0 0.0833333 -29.175 -853.833)" d="M 5946.7,11466.4 L 5932.1,11479.6 L 5894.29,11301.4 L 5910.92,11297.8 L 5946.7,11466.4 Z " />
<text x="0" y="0" stroke="none" fill="#d90000" transform="matrix(0.0833333 0 0 0.0833333 484.025 115.542)" font-style="normal" font-weight="bold" font-size="180px" font-family="Arial" >
Fc</text>
<path stroke="none" fill="#000000" transform="matrix(0.0833333 0 0 0.0833333 -29.175 -853.833)" d="M 6132.58,11526.8 L 6127.33,11543 L 5932.1,11479.6 L 5946.7,11466.4 L 6132.58,11526.8 Z " />
<text x="0" y="0" stroke="none" fill="#000000" transform="matrix(0.0833333 0 0 0.0833333 442.108 124.175)" font-style="normal" font-weight="normal" font-size="180px" font-family="Arial" >
O</text>
<path stroke="none" fill="#000000" transform="matrix(0.0833333 0 0 0.0833333 -29.175 -853.833)" d="M 5817.06,11629.4 L 5805.68,11616.8 L 5962.18,11475.9 L 5973.55,11488.6 L 5817.06,11629.4 Z " />
<path stroke="none" fill="#000000" transform="matrix(0.0833333 0 0 0.0833333 -29.175 -853.833)" d="M 5782.39,11590.9 L 5771.02,11578.2 L 5927.5,11437.4 L 5938.87,11450 L 5782.39,11590.9 Z " />
<text x="0" y="0" stroke="none" fill="#d90000" transform="matrix(0.0833333 0 0 0.0833333 47.9083 154.3)" font-style="normal" font-weight="bold" font-size="180px" font-family="Arial" >
Fc</text>
<text x="0" y="0" stroke="none" fill="#000000" transform="matrix(0.0833333 0 0 0.0833333 65.4173 154.3)" font-style="normal" font-weight="normal" font-size="180px" font-family="Arial" >
 </text>
<text x="0" y="0" stroke="none" fill="#000000" transform="matrix(0.0833333 0 0 0.0833333 69.5848 154.3)" font-style="normal" font-weight="normal" font-size="180px" font-family="Arial" >
- </text>
<text x="0" y="0" stroke="none" fill="#000000" transform="matrix(0.0833333 0 0 0.0833333 78.7522 154.3)" font-style="normal" font-weight="normal" font-size="180px" font-family="Arial" >
ferrocenyl</text>
</svg>
