<?xml version="1.0" standalone="no" ?>
<!DOCTYPE svg PUBLIC "-//W3C//DTD SVG 1.1//EN" "http://www.w3.org/Graphics/SVG/1.1/DTD/svg11.dtd">
<svg width="556px" height="224px" viewBox="0 0 556 224" style="background-color: #ffffff00" xmlns="http://www.w3.org/2000/svg" xmlns:xlink="http://www.w3.org/1999/xlink" version="1.1" >
<text x="0" y="0" stroke="none" fill="#000000" transform="matrix(0.0833333 0 0 0.0833333 231.682 74.5759)" font-style="normal" font-weight="normal" font-size="180px" font-family="Arial" >
N</text>
<text x="0" y="0" stroke="none" fill="#000000" transform="matrix(0.0833333 0 0 0.0833333 224.266 97.3926)" font-style="normal" font-weight="normal" font-size="180px" font-family="Arial" >
N</text>
<text x="0" y="0" stroke="none" fill="#000000" transform="matrix(0.0833333 0 0 0.0833333 243.266 111.509)" font-style="normal" font-weight="normal" font-size="180px" font-family="Arial" >
O</text>
<path stroke="none" fill="#000000" transform="matrix(0.0833333 0 0 0.0833333 -228.175 -304.083)" d="M 5665.09,4481.91 L 5665.09,4464.91 L 5866.76,4464.91 L 5871.09,4473.41 L 5864.91,4481.91 L 5665.09,4481.91 Z " />
<path stroke="none" fill="#000000" transform="matrix(0.0833333 0 0 0.0833333 -228.175 -304.083)" d="M 5533.69,4653.49 L 5517.52,4648.24 L 5539.87,4579.48 L 5556.04,4584.74 L 5533.69,4653.49 Z " />
<path stroke="none" fill="#000000" transform="matrix(0.0833333 0 0 0.0833333 -228.175 -304.083)" d="M 5582.97,4669.51 L 5566.81,4664.26 L 5589.16,4595.5 L 5605.32,4600.76 L 5582.97,4669.51 Z " />
<path stroke="none" fill="#000000" transform="matrix(0.0833333 0 0 0.0833333 -228.175 -304.083)" d="M 5657.78,4855.57 L 5647.79,4869.32 L 5581.09,4820.83 L 5591.09,4807.08 L 5657.78,4855.57 Z " />
<path stroke="none" fill="#000000" transform="matrix(0.0833333 0 0 0.0833333 -228.175 -304.083)" d="M 5950.1,4743.97 L 5960.09,4747.21 L 5961.58,4756.63 L 5807.13,4869.03 L 5797.12,4855.28 L 5950.1,4743.97 Z " />
<path stroke="none" fill="#000000" transform="matrix(0.0833333 0 0 0.0833333 -228.175 -304.083)" d="M 5864.91,4481.91 L 5871.09,4473.41 L 5880.51,4474.9 L 5966.83,4740.47 L 5960.09,4747.21 L 5950.1,4743.97 L 5864.91,4481.91 Z " />
<path stroke="none" fill="#000000" transform="matrix(0.0833333 0 0 0.0833333 -228.175 -304.083)" d="M 5825.36,4527.86 L 5841.53,4522.61 L 5907.26,4724.82 L 5891.09,4730.07 L 5825.36,4527.86 Z " />
<text x="0" y="0" stroke="none" fill="#000000" transform="matrix(0.0833333 0 0 0.0833333 285.482 104.809)" font-style="normal" font-weight="normal" font-size="180px" font-family="Arial" >
O</text>
<path stroke="none" fill="#000000" transform="matrix(0.0833333 0 0 0.0833333 -228.175 -304.083)" d="M 6149.06,4799.7 L 6143.81,4815.87 L 5961.58,4756.63 L 5960.09,4747.21 L 5966.83,4740.47 L 6149.06,4799.7 Z " />
<text x="0" y="0" stroke="none" fill="#000000" transform="matrix(0.0833333 0 0 0.0833333 213.809 55.1592)" font-style="normal" font-weight="normal" font-size="180px" font-family="Arial" >
Ph</text>
<path stroke="none" fill="#000000" transform="matrix(0.0833333 0 0 0.0833333 -228.175 -304.083)" d="M 5492.6,4363.13 L 5506.35,4353.13 L 5526.8,4381.25 L 5513.05,4391.25 L 5492.6,4363.13 Z " />
<path stroke="none" fill="#000000" transform="matrix(0.0833333 0 0 0.0833333 -228.175 -304.083)" d="M 5626.4,4344.75 L 5703.4,4344.75 L 5703.4,4358.75 L 5626.4,4358.75 Z " />
<path stroke="none" fill="#000000" transform="matrix(0.0833333 0 0 0.0833333 -228.175 -304.083)" d="M 5671.9,4313.25 L 5671.9,4390.25 L 5657.9,4390.25 L 5657.9,4313.25 Z " />
<text x="0" y="0" stroke="none" fill="#000000" transform="matrix(0.0833333 0 0 0.0833333 245.241 138.223)" font-style="normal" font-weight="bold" font-size="180px" font-family="Arial" >
1</text>
<path stroke="none" fill="#000000" transform="matrix(0.0833333 0 0 0.0833333 -228.175 -304.083)" d="M 6298.63,4725.97 L 6375.63,4725.97 L 6375.63,4739.97 L 6298.63,4739.97 Z " />
<text x="0" y="0" stroke="none" fill="#000000" transform="matrix(0.0833333 0 0 0.0833333 433.406 74.7643)" font-style="normal" font-weight="normal" font-size="180px" font-family="Arial" >
N</text>
<text x="0" y="0" stroke="none" fill="#000000" transform="matrix(0.0833333 0 0 0.0833333 425.99 97.581)" font-style="normal" font-weight="normal" font-size="180px" font-family="Arial" >
N</text>
<text x="0" y="0" stroke="none" fill="#000000" transform="matrix(0.0833333 0 0 0.0833333 444.99 111.698)" font-style="normal" font-weight="normal" font-size="180px" font-family="Arial" >
O</text>
<path stroke="none" fill="#000000" transform="matrix(0.0833333 0 0 0.0833333 -228.175 -304.083)" d="M 8085.78,4484.17 L 8085.78,4467.17 L 8287.45,4467.17 L 8291.78,4475.67 L 8285.6,4484.17 L 8085.78,4484.17 Z " />
<path stroke="none" fill="#000000" transform="matrix(0.0833333 0 0 0.0833333 -228.175 -304.083)" d="M 7954.38,4655.75 L 7938.21,4650.5 L 7960.56,4581.74 L 7976.73,4587 L 7954.38,4655.75 Z " />
<path stroke="none" fill="#000000" transform="matrix(0.0833333 0 0 0.0833333 -228.175 -304.083)" d="M 8003.66,4671.77 L 7987.5,4666.52 L 8009.85,4597.76 L 8026.01,4603.02 L 8003.66,4671.77 Z " />
<path stroke="none" fill="#000000" transform="matrix(0.0833333 0 0 0.0833333 -228.175 -304.083)" d="M 8078.47,4857.83 L 8068.48,4871.58 L 8001.78,4823.09 L 8011.78,4809.34 L 8078.47,4857.83 Z " />
<path stroke="none" fill="#000000" transform="matrix(0.0833333 0 0 0.0833333 -228.175 -304.083)" d="M 8370.79,4746.23 L 8380.78,4749.47 L 8382.27,4758.9 L 8227.82,4871.29 L 8217.81,4857.54 L 8370.79,4746.23 Z " />
<path stroke="none" fill="#000000" transform="matrix(0.0833333 0 0 0.0833333 -228.175 -304.083)" d="M 8285.6,4484.17 L 8291.78,4475.67 L 8301.2,4477.16 L 8387.52,4742.73 L 8380.78,4749.47 L 8370.79,4746.23 L 8285.6,4484.17 Z " />
<path stroke="none" fill="#000000" transform="matrix(0.0833333 0 0 0.0833333 -228.175 -304.083)" d="M 8246.05,4530.12 L 8262.22,4524.87 L 8327.95,4727.08 L 8311.78,4732.34 L 8246.05,4530.12 Z " />
<text x="0" y="0" stroke="none" fill="#000000" transform="matrix(0.0833333 0 0 0.0833333 487.206 104.998)" font-style="normal" font-weight="normal" font-size="180px" font-family="Arial" >
O</text>
<path stroke="none" fill="#000000" transform="matrix(0.0833333 0 0 0.0833333 -228.175 -304.083)" d="M 8569.75,4801.96 L 8564.5,4818.13 L 8382.27,4758.9 L 8380.78,4749.47 L 8387.52,4742.73 L 8569.75,4801.96 Z " />
<text x="0" y="0" stroke="none" fill="#000000" transform="matrix(0.0833333 0 0 0.0833333 415.533 55.3476)" font-style="normal" font-weight="normal" font-size="180px" font-family="Arial" >
Ph</text>
<path stroke="none" fill="#000000" transform="matrix(0.0833333 0 0 0.0833333 -228.175 -304.083)" d="M 7913.29,4365.39 L 7927.04,4355.39 L 7947.49,4383.52 L 7933.74,4393.51 L 7913.29,4365.39 Z " />
<path stroke="none" fill="#000000" transform="matrix(0.0833333 0 0 0.0833333 -228.175 -304.083)" d="M 8047.09,4347.01 L 8124.09,4347.01 L 8124.09,4361.01 L 8047.09,4361.01 Z " />
<path stroke="none" fill="#000000" transform="matrix(0.0833333 0 0 0.0833333 -228.175 -304.083)" d="M 8092.59,4315.51 L 8092.59,4392.51 L 8078.59,4392.51 L 8078.59,4315.51 Z " />
<path stroke="none" fill="#000000" transform="matrix(0.0833333 0 0 0.0833333 -228.175 -304.083)" d="M 8719.32,4728.23 L 8796.32,4728.23 L 8796.32,4742.23 L 8719.32,4742.23 Z " />
<path stroke="none" fill="#000000" transform="matrix(0.0833333 0 0 0.0833333 -228.175 -304.083)" d="M 8457.05,4233.7 L 8465.04,4251.63 L 8301.2,4477.16 L 8291.78,4475.67 L 8287.45,4467.17 L 8457.05,4233.7 Z " />
<text x="0" y="0" stroke="none" fill="#000000" transform="matrix(0.0833333 0 0 0.0833333 495.364 57.8543)" font-style="normal" font-weight="normal" font-size="180px" font-family="Arial" >
N</text>
<path stroke="none" fill="#000000" transform="matrix(0.0833333 0 0 0.0833333 -228.175 -304.083)" d="M 8666.29,4255.68 L 8664.51,4272.58 L 8465.04,4251.63 L 8457.05,4233.7 L 8666.29,4255.68 Z " />
<path stroke="none" fill="#000000" transform="matrix(0.0833333 0 0 0.0833333 -228.175 -304.083)" d="M 8912.75,4030.78 L 8920.73,4048.71 L 8817.33,4191.04 L 8803.58,4181.05 L 8912.75,4030.78 Z " />
<text x="0" y="0" stroke="none" fill="#d90000" transform="matrix(0.0833333 0 0 0.0833333 534.172 40.9442)" font-style="normal" font-weight="bold" font-size="180px" font-family="Arial" >
Fc</text>
<path stroke="none" fill="#000000" transform="matrix(0.0833333 0 0 0.0833333 -228.175 -304.083)" d="M 9131.87,4053.8 L 9130.1,4070.7 L 8920.73,4048.71 L 8912.75,4030.78 L 9131.87,4053.8 Z " />
<text x="0" y="0" stroke="none" fill="#000000" transform="matrix(0.0833333 0 0 0.0833333 505.127 79.7788)" font-style="normal" font-weight="normal" font-size="180px" font-family="Arial" >
R</text>
<path stroke="none" fill="#000000" transform="matrix(0.0833333 0 0 0.0833333 -228.175 -304.083)" d="M 8830.06,4437.33 L 8814.53,4444.24 L 8786.99,4382.39 L 8802.52,4375.48 L 8830.06,4437.33 Z " />
<text x="0" y="0" stroke="none" fill="#000000" transform="matrix(0.0833333 0 0 0.0833333 499.29 16.5125)" font-style="normal" font-weight="normal" font-size="180px" font-family="Arial" >
O</text>
<path stroke="none" fill="#000000" transform="matrix(0.0833333 0 0 0.0833333 -228.175 -304.083)" d="M 8810.79,3886.43 L 8826.32,3879.52 L 8906.91,4060.5 L 8891.38,4067.42 L 8810.79,3886.43 Z " />
<path stroke="none" fill="#000000" transform="matrix(0.0833333 0 0 0.0833333 -228.175 -304.083)" d="M 8858.15,3865.35 L 8873.68,3858.43 L 8954.27,4039.41 L 8938.74,4046.33 L 8858.15,3865.35 Z " />
<path stroke="none" fill="#000000" transform="matrix(0.0833333 0 0 0.0833333 -228.175 -304.083)" d="M 7494.75,4583.84 L 6652.5,4583.84 L 6652.5,4566.84 L 7494.75,4566.84 Z " />
<path stroke="none" fill="#000000" transform="matrix(0.0833333 0 0 0.0833333 -228.175 -304.083)" d="M 7642.5,4575.34 C 7642.5,4575.34 7472.5,4618.84 7472.5,4618.84 C 7472.5,4618.84 7493.75,4594.37 7493.75,4575.34 C 7493.75,4555.87 7472.5,4530.84 7472.5,4530.84 C 7472.5,4530.84 7642.5,4575.34 7642.5,4575.34 C 7642.5,4575.34 7642.5,4575.34 7642.5,4575.34 " />
<path stroke="#000000" stroke-width="1" fill="none" transform="matrix(0.0833333 0 0 0.0833333 -228.175 -304.083)" d="M 7642.5,4575.34 C 7642.5,4575.34 7472.5,4618.84 7472.5,4618.84 C 7472.5,4618.84 7493.75,4594.37 7493.75,4575.34 C 7493.75,4555.87 7472.5,4530.84 7472.5,4530.84 C 7472.5,4530.84 7642.5,4575.34 7642.5,4575.34 C 7642.5,4575.34 7642.5,4575.34 7642.5,4575.34 " />
<path stroke="none" fill="#000000" transform="matrix(0.0833333 0 0 0.0833333 -228.175 -304.083)" d="M 6036.36,4231.44 L 6044.35,4249.37 L 5880.51,4474.9 L 5871.09,4473.41 L 5866.76,4464.91 L 6036.36,4231.44 Z " />
<text x="0" y="0" stroke="none" fill="#000000" transform="matrix(0.0833333 0 0 0.0833333 293.64 57.6659)" font-style="normal" font-weight="normal" font-size="180px" font-family="Arial" >
NH</text>
<path stroke="none" fill="#000000" transform="matrix(0.0833333 0 0 0.0833333 -228.175 -304.083)" d="M 6245.6,4253.42 L 6243.82,4270.32 L 6044.35,4249.37 L 6036.36,4231.44 L 6245.6,4253.42 Z " />
<text x="0" y="0" stroke="none" fill="#000000" transform="matrix(0.0833333 0 0 0.0833333 303.403 79.5904)" font-style="normal" font-weight="normal" font-size="180px" font-family="Arial" >
R</text>
<path stroke="none" fill="#000000" transform="matrix(0.0833333 0 0 0.0833333 -228.175 -304.083)" d="M 6409.37,4435.07 L 6393.84,4441.98 L 6366.3,4380.13 L 6381.83,4373.22 L 6409.37,4435.07 Z " />
<text x="0" y="0" stroke="none" fill="#000000" transform="matrix(0.0833333 0 0 0.0833333 328.973 100.14)" font-style="normal" font-weight="normal" font-size="180px" font-family="Arial" >
DCM, </text>
<text x="0" y="0" stroke="none" fill="#000000" transform="matrix(0.0833333 0 0 0.0833333 371.474 100.14)" font-style="normal" font-weight="normal" font-size="180px" font-family="Arial" >
20°C</text>
<text x="0" y="0" stroke="none" fill="#000000" transform="matrix(0.0833333 0 0 0.0833333 447.741 138.223)" font-style="normal" font-weight="bold" font-size="180px" font-family="Arial" >
2</text>
<text x="0" y="0" stroke="none" fill="#000000" transform="matrix(0.0833333 0 0 0.0833333 359.307 174.288)" font-style="normal" font-weight="bold" font-size="180px" font-family="Arial" >
2a</text>
<text x="0" y="0" stroke="none" fill="#000000" transform="matrix(0.0833333 0 0 0.0833333 375.992 174.288)" font-style="normal" font-weight="normal" font-size="180px" font-family="Arial" >
:</text>
<text x="0" y="0" stroke="none" fill="#000000" transform="matrix(0.0833333 0 0 0.0833333 380.16 174.288)" font-style="normal" font-weight="bold" font-size="180px" font-family="Arial" >
 </text>
<text x="0" y="0" stroke="none" fill="#000000" transform="matrix(0.0833333 0 0 0.0833333 384.327 174.288)" font-style="normal" font-weight="normal" font-size="180px" font-family="Arial" >
R </text>
<text x="0" y="0" stroke="none" fill="#000000" transform="matrix(0.0833333 0 0 0.0833333 399.328 174.288)" font-style="normal" font-weight="normal" font-size="180px" font-family="Arial" >
= </text>
<text x="0" y="0" stroke="none" fill="#000000" transform="matrix(0.0833333 0 0 0.0833333 412.255 174.288)" font-style="normal" font-weight="normal" font-size="180px" font-family="Arial" >
Me- </text>
<text x="0" y="0" stroke="none" fill="#000000" transform="matrix(0.0833333 0 0 0.0833333 442.265 174.288)" font-style="normal" font-weight="normal" font-size="180px" font-family="Arial" >
 </text>
<text x="0" y="0" stroke="none" fill="#000000" transform="matrix(0.0833333 0 0 0.0833333 446.432 174.288)" font-style="normal" font-weight="normal" font-size="180px" font-family="Arial" >
 </text>
<text x="0" y="0" stroke="none" fill="#000000" transform="matrix(0.0833333 0 0 0.0833333 450.6 174.288)" font-style="normal" font-weight="normal" font-size="180px" font-family="Arial" >
 </text>
<text x="0" y="0" stroke="none" fill="#000000" transform="matrix(0.0833333 0 0 0.0833333 454.767 174.288)" font-style="normal" font-weight="normal" font-size="180px" font-family="Arial" >
 </text>
<text x="0" y="0" stroke="none" fill="#000000" transform="matrix(0.0833333 0 0 0.0833333 458.935 174.288)" font-style="normal" font-weight="normal" font-size="180px" font-family="Arial" >
 </text>
<text x="0" y="0" stroke="none" fill="#000000" transform="matrix(0.0833333 0 0 0.0833333 463.102 174.288)" font-style="normal" font-weight="normal" font-size="180px" font-family="Arial" >
 </text>
<text x="0" y="0" stroke="none" fill="#000000" transform="matrix(0.0833333 0 0 0.0833333 467.27 174.288)" font-style="normal" font-weight="normal" font-size="180px" font-family="Arial" >
 </text>
<text x="0" y="0" stroke="none" fill="#000000" transform="matrix(0.0833333 0 0 0.0833333 471.437 174.288)" font-style="normal" font-weight="normal" font-size="180px" font-family="Arial" >
 </text>
<text x="0" y="0" stroke="none" fill="#000000" transform="matrix(0.0833333 0 0 0.0833333 475.605 174.288)" font-style="normal" font-weight="normal" font-size="180px" font-family="Arial" >
 </text>
<text x="0" y="0" stroke="none" fill="#000000" transform="matrix(0.0833333 0 0 0.0833333 479.772 174.288)" font-style="normal" font-weight="normal" font-size="180px" font-family="Arial" >
 </text>
<text x="0" y="0" stroke="none" fill="#000000" transform="matrix(0.0833333 0 0 0.0833333 483.94 174.288)" font-style="normal" font-weight="normal" font-size="180px" font-family="Arial" >
 </text>
<text x="0" y="0" stroke="none" fill="#000000" transform="matrix(0.0833333 0 0 0.0833333 488.107 174.288)" font-style="normal" font-weight="normal" font-size="180px" font-family="Arial" >
 </text>
<text x="0" y="0" stroke="none" fill="#000000" transform="matrix(0.0833333 0 0 0.0833333 492.275 174.288)" font-style="normal" font-weight="normal" font-size="180px" font-family="Arial" >
 </text>
<text x="0" y="0" stroke="none" fill="#000000" transform="matrix(0.0833333 0 0 0.0833333 496.442 174.288)" font-style="normal" font-weight="normal" font-size="180px" font-family="Arial" >
 </text>
<text x="0" y="0" stroke="none" fill="#000000" transform="matrix(0.0833333 0 0 0.0833333 500.61 174.288)" font-style="normal" font-weight="normal" font-size="180px" font-family="Arial" >
 </text>
<text x="0" y="0" stroke="none" fill="#000000" transform="matrix(0.0833333 0 0 0.0833333 504.777 174.288)" font-style="normal" font-weight="normal" font-size="180px" font-family="Arial" >
 </text>
<text x="0" y="0" stroke="none" fill="#000000" transform="matrix(0.0833333 0 0 0.0833333 508.944 174.288)" font-style="normal" font-weight="normal" font-size="180px" font-family="Arial" >
 </text>
<text x="0" y="0" stroke="none" fill="#000000" transform="matrix(0.0833333 0 0 0.0833333 513.112 174.288)" font-style="normal" font-weight="normal" font-size="180px" font-family="Arial" >
 </text>
<text x="0" y="0" stroke="none" fill="#000000" transform="matrix(0.0833333 0 0 0.0833333 517.279 174.288)" font-style="normal" font-weight="normal" font-size="180px" font-family="Arial" >
98 </text>
<text x="0" y="0" stroke="none" fill="#000000" transform="matrix(0.0833333 0 0 0.0833333 538.132 174.288)" font-style="normal" font-weight="normal" font-size="180px" font-family="Arial" >
%</text>
<text x="0" y="0" stroke="none" fill="#000000" transform="matrix(0.0833333 0 0 0.0833333 359.307 195.454)" font-style="normal" font-weight="bold" font-size="180px" font-family="Arial" >
2b</text>
<text x="0" y="0" stroke="none" fill="#000000" transform="matrix(0.0833333 0 0 0.0833333 376.816 195.454)" font-style="normal" font-weight="normal" font-size="180px" font-family="Arial" >
: </text>
<text x="0" y="0" stroke="none" fill="#000000" transform="matrix(0.0833333 0 0 0.0833333 385.151 195.454)" font-style="normal" font-weight="normal" font-size="180px" font-family="Arial" >
R </text>
<text x="0" y="0" stroke="none" fill="#000000" transform="matrix(0.0833333 0 0 0.0833333 400.152 195.454)" font-style="normal" font-weight="normal" font-size="180px" font-family="Arial" >
= </text>
<text x="0" y="0" stroke="none" fill="#000000" transform="matrix(0.0833333 0 0 0.0833333 413.079 195.454)" font-style="normal" font-weight="normal" font-size="180px" font-family="Arial" >
MeO-(C</text>
<text x="0" y="0" stroke="none" fill="#000000" transform="matrix(0.0833333 0 0 0.0833333 466.423 195.454)" font-style="normal" font-weight="normal" font-size="180px" font-family="Arial" >
H</text>
<text x="0" y="0" stroke="none" fill="#000000" transform="matrix(0.0833333 0 0 0.0833333 477.256 198.704)" font-style="normal" font-weight="normal" font-size="135px" font-family="Arial" >
2</text>
<text x="0" y="0" stroke="none" fill="#000000" transform="matrix(0.0833333 0 0 0.0833333 483.513 195.454)" font-style="normal" font-weight="normal" font-size="180px" font-family="Arial" >
)</text>
<text x="0" y="0" stroke="none" fill="#000000" transform="matrix(0.0833333 0 0 0.0833333 488.513 198.704)" font-style="normal" font-weight="normal" font-size="135px" font-family="Arial" >
2</text>
<text x="0" y="0" stroke="none" fill="#000000" transform="matrix(0.0833333 0 0 0.0833333 494.769 195.454)" font-style="normal" font-weight="normal" font-size="180px" font-family="Arial" >
- </text>
<text x="0" y="0" stroke="none" fill="#000000" transform="matrix(0.0833333 0 0 0.0833333 503.937 195.454)" font-style="normal" font-weight="normal" font-size="180px" font-family="Arial" >
 </text>
<text x="0" y="0" stroke="none" fill="#000000" transform="matrix(0.0833333 0 0 0.0833333 508.104 195.454)" font-style="normal" font-weight="normal" font-size="180px" font-family="Arial" >
 </text>
<text x="0" y="0" stroke="none" fill="#000000" transform="matrix(0.0833333 0 0 0.0833333 512.272 195.454)" font-style="normal" font-weight="normal" font-size="180px" font-family="Arial" >
 </text>
<text x="0" y="0" stroke="none" fill="#000000" transform="matrix(0.0833333 0 0 0.0833333 516.439 195.454)" font-style="normal" font-weight="normal" font-size="180px" font-family="Arial" >
74 </text>
<text x="0" y="0" stroke="none" fill="#000000" transform="matrix(0.0833333 0 0 0.0833333 537.291 195.454)" font-style="normal" font-weight="normal" font-size="180px" font-family="Arial" >
% </text>
<text x="0" y="0" stroke="none" fill="#000000" transform="matrix(0.0833333 0 0 0.0833333 554.796 195.454)" font-style="normal" font-weight="normal" font-size="180px" font-family="Arial" >
 </text>
<text x="0" y="0" stroke="none" fill="#000000" transform="matrix(0.0833333 0 0 0.0833333 558.964 195.454)" font-style="normal" font-weight="normal" font-size="180px" font-family="Arial" >
 </text>
<text x="0" y="0" stroke="none" fill="#000000" transform="matrix(0.0833333 0 0 0.0833333 563.131 195.454)" font-style="normal" font-weight="normal" font-size="180px" font-family="Arial" >
 </text>
<text x="0" y="0" stroke="none" fill="#000000" transform="matrix(0.0833333 0 0 0.0833333 359.307 216.621)" font-style="normal" font-weight="bold" font-size="180px" font-family="Arial" >
2c</text>
<text x="0" y="0" stroke="none" fill="#000000" transform="matrix(0.0833333 0 0 0.0833333 375.992 216.621)" font-style="normal" font-weight="normal" font-size="180px" font-family="Arial" >
: </text>
<text x="0" y="0" stroke="none" fill="#000000" transform="matrix(0.0833333 0 0 0.0833333 384.327 216.621)" font-style="normal" font-weight="normal" font-size="180px" font-family="Arial" >
R</text>
<text x="0" y="0" stroke="none" fill="#000000" transform="matrix(0.0833333 0 0 0.0833333 395.16 216.621)" font-style="italic" font-weight="normal" font-size="180px" font-family="Arial" >
 </text>
<text x="0" y="0" stroke="none" fill="#000000" transform="matrix(0.0833333 0 0 0.0833333 399.328 216.621)" font-style="italic" font-weight="normal" font-size="180px" font-family="Arial" >
= </text>
<text x="0" y="0" stroke="none" fill="#000000" transform="matrix(0.0833333 0 0 0.0833333 412.255 216.621)" font-style="normal" font-weight="normal" font-size="180px" font-family="Arial" >
Bn-</text>
<text x="0" y="0" stroke="none" fill="#ffffff" transform="matrix(0.0833333 0 0 0.0833333 435.602 210.746)" font-style="normal" font-weight="normal" font-size="135px" font-family="Arial" >
i</text>
<text x="0" y="0" stroke="none" fill="#000000" transform="matrix(0.0833333 0 0 0.0833333 438.102 216.621)" font-style="normal" font-weight="normal" font-size="180px" font-family="Arial" >
 </text>
<text x="0" y="0" stroke="none" fill="#000000" transform="matrix(0.0833333 0 0 0.0833333 442.27 216.621)" font-style="normal" font-weight="normal" font-size="180px" font-family="Arial" >
 </text>
<text x="0" y="0" stroke="none" fill="#000000" transform="matrix(0.0833333 0 0 0.0833333 446.437 216.621)" font-style="normal" font-weight="normal" font-size="180px" font-family="Arial" >
 </text>
<text x="0" y="0" stroke="none" fill="#000000" transform="matrix(0.0833333 0 0 0.0833333 450.605 216.621)" font-style="normal" font-weight="normal" font-size="180px" font-family="Arial" >
 </text>
<text x="0" y="0" stroke="none" fill="#000000" transform="matrix(0.0833333 0 0 0.0833333 454.772 216.621)" font-style="normal" font-weight="normal" font-size="180px" font-family="Arial" >
 </text>
<text x="0" y="0" stroke="none" fill="#000000" transform="matrix(0.0833333 0 0 0.0833333 458.94 216.621)" font-style="normal" font-weight="normal" font-size="180px" font-family="Arial" >
 </text>
<text x="0" y="0" stroke="none" fill="#000000" transform="matrix(0.0833333 0 0 0.0833333 463.107 216.621)" font-style="normal" font-weight="normal" font-size="180px" font-family="Arial" >
 </text>
<text x="0" y="0" stroke="none" fill="#000000" transform="matrix(0.0833333 0 0 0.0833333 467.275 216.621)" font-style="normal" font-weight="normal" font-size="180px" font-family="Arial" >
 </text>
<text x="0" y="0" stroke="none" fill="#000000" transform="matrix(0.0833333 0 0 0.0833333 471.442 216.621)" font-style="normal" font-weight="normal" font-size="180px" font-family="Arial" >
 </text>
<text x="0" y="0" stroke="none" fill="#000000" transform="matrix(0.0833333 0 0 0.0833333 475.61 216.621)" font-style="normal" font-weight="normal" font-size="180px" font-family="Arial" >
 </text>
<text x="0" y="0" stroke="none" fill="#000000" transform="matrix(0.0833333 0 0 0.0833333 479.777 216.621)" font-style="normal" font-weight="normal" font-size="180px" font-family="Arial" >
 </text>
<text x="0" y="0" stroke="none" fill="#000000" transform="matrix(0.0833333 0 0 0.0833333 483.944 216.621)" font-style="normal" font-weight="normal" font-size="180px" font-family="Arial" >
 </text>
<text x="0" y="0" stroke="none" fill="#000000" transform="matrix(0.0833333 0 0 0.0833333 488.112 216.621)" font-style="normal" font-weight="normal" font-size="180px" font-family="Arial" >
 </text>
<text x="0" y="0" stroke="none" fill="#000000" transform="matrix(0.0833333 0 0 0.0833333 492.279 216.621)" font-style="normal" font-weight="normal" font-size="180px" font-family="Arial" >
 </text>
<text x="0" y="0" stroke="none" fill="#000000" transform="matrix(0.0833333 0 0 0.0833333 496.447 216.621)" font-style="normal" font-weight="normal" font-size="180px" font-family="Arial" >
 </text>
<text x="0" y="0" stroke="none" fill="#000000" transform="matrix(0.0833333 0 0 0.0833333 500.614 216.621)" font-style="normal" font-weight="normal" font-size="180px" font-family="Arial" >
 </text>
<text x="0" y="0" stroke="none" fill="#000000" transform="matrix(0.0833333 0 0 0.0833333 504.782 216.621)" font-style="normal" font-weight="normal" font-size="180px" font-family="Arial" >
 </text>
<text x="0" y="0" stroke="none" fill="#000000" transform="matrix(0.0833333 0 0 0.0833333 508.949 216.621)" font-style="normal" font-weight="normal" font-size="180px" font-family="Arial" >
 </text>
<text x="0" y="0" stroke="none" fill="#000000" transform="matrix(0.0833333 0 0 0.0833333 513.117 216.621)" font-style="normal" font-weight="normal" font-size="180px" font-family="Arial" >
 </text>
<text x="0" y="0" stroke="none" fill="#000000" transform="matrix(0.0833333 0 0 0.0833333 517.284 216.621)" font-style="normal" font-weight="normal" font-size="180px" font-family="Arial" >
83 </text>
<text x="0" y="0" stroke="none" fill="#000000" transform="matrix(0.0833333 0 0 0.0833333 538.136 216.621)" font-style="normal" font-weight="normal" font-size="180px" font-family="Arial" >
%</text>
<path stroke="#000000" stroke-width="17" fill="none" transform="matrix(0.0833333 0 0 0.0833333 -228.175 -304.083)" stroke-dasharray="50" d="M 9345,5440 L 2842.5,5440 " />
<text x="0" y="0" stroke="none" fill="#000000" transform="matrix(0.0833333 0 0 0.0833333 21.6824 74.5759)" font-style="normal" font-weight="normal" font-size="180px" font-family="Arial" >
N</text>
<text x="0" y="0" stroke="none" fill="#000000" transform="matrix(0.0833333 0 0 0.0833333 14.2657 97.3926)" font-style="normal" font-weight="normal" font-size="180px" font-family="Arial" >
N</text>
<text x="0" y="0" stroke="none" fill="#000000" transform="matrix(0.0833333 0 0 0.0833333 33.2657 111.509)" font-style="normal" font-weight="normal" font-size="180px" font-family="Arial" >
O</text>
<path stroke="none" fill="#000000" transform="matrix(0.0833333 0 0 0.0833333 -228.175 -304.083)" d="M 3145.09,4481.91 L 3145.09,4464.91 L 3346.76,4464.91 L 3351.09,4473.41 L 3344.91,4481.91 L 3145.09,4481.91 Z " />
<path stroke="none" fill="#000000" transform="matrix(0.0833333 0 0 0.0833333 -228.175 -304.083)" d="M 3013.69,4653.49 L 2997.52,4648.24 L 3019.87,4579.48 L 3036.04,4584.74 L 3013.69,4653.49 Z " />
<path stroke="none" fill="#000000" transform="matrix(0.0833333 0 0 0.0833333 -228.175 -304.083)" d="M 3062.97,4669.51 L 3046.81,4664.26 L 3069.16,4595.5 L 3085.32,4600.76 L 3062.97,4669.51 Z " />
<path stroke="none" fill="#000000" transform="matrix(0.0833333 0 0 0.0833333 -228.175 -304.083)" d="M 3137.78,4855.57 L 3127.79,4869.32 L 3061.09,4820.83 L 3071.09,4807.08 L 3137.78,4855.57 Z " />
<path stroke="none" fill="#000000" transform="matrix(0.0833333 0 0 0.0833333 -228.175 -304.083)" d="M 3430.1,4743.97 L 3440.09,4747.21 L 3441.58,4756.63 L 3287.13,4869.03 L 3277.12,4855.28 L 3430.1,4743.97 Z " />
<path stroke="none" fill="#000000" transform="matrix(0.0833333 0 0 0.0833333 -228.175 -304.083)" d="M 3344.91,4481.91 L 3351.09,4473.41 L 3360.51,4474.9 L 3446.83,4740.47 L 3440.09,4747.21 L 3430.1,4743.97 L 3344.91,4481.91 Z " />
<path stroke="none" fill="#000000" transform="matrix(0.0833333 0 0 0.0833333 -228.175 -304.083)" d="M 3305.36,4527.86 L 3321.53,4522.61 L 3387.26,4724.82 L 3371.09,4730.07 L 3305.36,4527.86 Z " />
<text x="0" y="0" stroke="none" fill="#000000" transform="matrix(0.0833333 0 0 0.0833333 75.4824 104.809)" font-style="normal" font-weight="normal" font-size="180px" font-family="Arial" >
O</text>
<path stroke="none" fill="#000000" transform="matrix(0.0833333 0 0 0.0833333 -228.175 -304.083)" d="M 3629.06,4799.7 L 3623.81,4815.87 L 3441.58,4756.63 L 3440.09,4747.21 L 3446.83,4740.47 L 3629.06,4799.7 Z " />
<text x="0" y="0" stroke="none" fill="#000000" transform="matrix(0.0833333 0 0 0.0833333 3.80882 55.1592)" font-style="normal" font-weight="normal" font-size="180px" font-family="Arial" >
Ph</text>
<path stroke="none" fill="#000000" transform="matrix(0.0833333 0 0 0.0833333 -228.175 -304.083)" d="M 2972.6,4363.13 L 2986.35,4353.13 L 3006.8,4381.25 L 2993.05,4391.25 L 2972.6,4363.13 Z " />
<path stroke="none" fill="#000000" transform="matrix(0.0833333 0 0 0.0833333 -228.175 -304.083)" d="M 3106.4,4344.75 L 3183.4,4344.75 L 3183.4,4358.75 L 3106.4,4358.75 Z " />
<path stroke="none" fill="#000000" transform="matrix(0.0833333 0 0 0.0833333 -228.175 -304.083)" d="M 3151.9,4313.25 L 3151.9,4390.25 L 3137.9,4390.25 L 3137.9,4313.25 Z " />
<path stroke="none" fill="#000000" transform="matrix(0.0833333 0 0 0.0833333 -228.175 -304.083)" d="M 3778.63,4725.97 L 3855.63,4725.97 L 3855.63,4739.97 L 3778.63,4739.97 Z " />
<path stroke="none" fill="#000000" transform="matrix(0.0833333 0 0 0.0833333 -228.175 -304.083)" d="M 5102.25,4583.84 L 4140,4583.84 L 4140,4566.84 L 5102.25,4566.84 Z " />
<path stroke="none" fill="#000000" transform="matrix(0.0833333 0 0 0.0833333 -228.175 -304.083)" d="M 5250,4575.34 C 5250,4575.34 5080,4618.84 5080,4618.84 C 5080,4618.84 5101.25,4594.37 5101.25,4575.34 C 5101.25,4555.87 5080,4530.84 5080,4530.84 C 5080,4530.84 5250,4575.34 5250,4575.34 C 5250,4575.34 5250,4575.34 5250,4575.34 " />
<path stroke="#000000" stroke-width="1" fill="none" transform="matrix(0.0833333 0 0 0.0833333 -228.175 -304.083)" d="M 5250,4575.34 C 5250,4575.34 5080,4618.84 5080,4618.84 C 5080,4618.84 5101.25,4594.37 5101.25,4575.34 C 5101.25,4555.87 5080,4530.84 5080,4530.84 C 5080,4530.84 5250,4575.34 5250,4575.34 C 5250,4575.34 5250,4575.34 5250,4575.34 " />
<path stroke="none" fill="#000000" transform="matrix(0.0833333 0 0 0.0833333 -228.175 -304.083)" d="M 3516.36,4231.44 L 3524.35,4249.37 L 3360.51,4474.9 L 3351.09,4473.41 L 3346.76,4464.91 L 3516.36,4231.44 Z " />
<text x="0" y="0" stroke="none" fill="#000000" transform="matrix(0.0833333 0 0 0.0833333 83.6401 57.6659)" font-style="normal" font-weight="normal" font-size="180px" font-family="Arial" >
N</text>
<path stroke="none" fill="#000000" transform="matrix(0.0833333 0 0 0.0833333 -228.175 -304.083)" d="M 3725.6,4253.42 L 3723.82,4270.32 L 3524.35,4249.37 L 3516.36,4231.44 L 3725.6,4253.42 Z " />
<path stroke="none" fill="#000000" transform="matrix(0.0833333 0 0 0.0833333 -228.175 -304.083)" d="M 3720.18,4304.97 L 3718.41,4321.88 L 3543.82,4303.54 L 3545.59,4286.63 L 3720.18,4304.97 Z " />
<text x="0" y="0" stroke="none" fill="#000000" transform="matrix(0.0833333 0 0 0.0833333 93.4031 79.5904)" font-style="normal" font-weight="normal" font-size="180px" font-family="Arial" >
R</text>
<path stroke="none" fill="#000000" transform="matrix(0.0833333 0 0 0.0833333 -228.175 -304.083)" d="M 3889.37,4435.07 L 3873.84,4441.98 L 3846.3,4380.13 L 3861.83,4373.22 L 3889.37,4435.07 Z " />
<text x="0" y="0" stroke="none" fill="#000000" transform="matrix(0.0833333 0 0 0.0833333 116.259 100.14)" font-style="normal" font-weight="normal" font-size="180px" font-family="Arial" >
MeOH, </text>
<text x="0" y="0" stroke="none" fill="#000000" transform="matrix(0.0833333 0 0 0.0833333 167.937 100.14)" font-style="normal" font-weight="normal" font-size="180px" font-family="Arial" >
-10°C</text>
<text x="0" y="0" stroke="none" fill="#000000" transform="matrix(0.0833333 0 0 0.0833333 135.722 65.5286)" font-style="normal" font-weight="normal" font-size="180px" font-family="Arial" >
NaBH</text>
<text x="0" y="0" stroke="none" fill="#000000" transform="matrix(0.0833333 0 0 0.0833333 175.736 68.7786)" font-style="normal" font-weight="normal" font-size="135px" font-family="Arial" >
4</text>
<text x="0" y="0" stroke="none" fill="#000000" transform="matrix(0.0833333 0 0 0.0833333 228.7 174.667)" font-style="normal" font-weight="normal" font-size="180px" font-family="Arial" >
74 </text>
<text x="0" y="0" stroke="none" fill="#000000" transform="matrix(0.0833333 0 0 0.0833333 249.552 174.667)" font-style="normal" font-weight="normal" font-size="180px" font-family="Arial" >
– </text>
<text x="0" y="0" stroke="none" fill="#000000" transform="matrix(0.0833333 0 0 0.0833333 262.062 174.667)" font-style="normal" font-weight="normal" font-size="180px" font-family="Arial" >
81 </text>
<text x="0" y="0" stroke="none" fill="#000000" transform="matrix(0.0833333 0 0 0.0833333 282.914 174.667)" font-style="normal" font-weight="normal" font-size="180px" font-family="Arial" >
%</text>
<text x="0" y="0" stroke="none" fill="#d90000" transform="matrix(0.0833333 0 0 0.0833333 335.362 48.4167)" font-style="normal" font-weight="bold" font-size="180px" font-family="Arial" >
Fc</text>
<text x="0" y="0" stroke="none" fill="#000000" transform="matrix(0.0833333 0 0 0.0833333 352.871 48.4167)" font-style="normal" font-weight="normal" font-size="180px" font-family="Arial" >
-COCl</text>
<text x="0" y="0" stroke="none" fill="#000000" transform="matrix(0.0833333 0 0 0.0833333 342.442 66.0833)" font-style="normal" font-weight="normal" font-size="180px" font-family="Arial" >
DIPEA</text>
</svg>
