<?xml version="1.0" standalone="no" ?>
<!DOCTYPE svg PUBLIC "-//W3C//DTD SVG 1.1//EN" "http://www.w3.org/Graphics/SVG/1.1/DTD/svg11.dtd">
<svg width="466px" height="199px" viewBox="0 0 466 199" style="background-color: #ffffff00" xmlns="http://www.w3.org/2000/svg" xmlns:xlink="http://www.w3.org/1999/xlink" version="1.1" >
<text x="0" y="0" stroke="none" fill="#000000" transform="matrix(0.0833333 0 0 0.0833333 18.0574 35.871)" font-style="normal" font-weight="normal" font-size="180px" font-family="Arial" >
N</text>
<text x="0" y="0" stroke="none" fill="#000000" transform="matrix(0.0833333 0 0 0.0833333 10.6407 58.6876)" font-style="normal" font-weight="normal" font-size="180px" font-family="Arial" >
N</text>
<text x="0" y="0" stroke="none" fill="#000000" transform="matrix(0.0833333 0 0 0.0833333 29.6407 72.8043)" font-style="normal" font-weight="normal" font-size="180px" font-family="Arial" >
O</text>
<path stroke="none" fill="#000000" transform="matrix(0.0833333 0 0 0.0833333 -66.175 -53)" d="M 1157.59,1004.45 L 1157.59,987.452 L 1369.76,987.452 L 1357.41,1004.45 L 1157.59,1004.45 Z " />
<path stroke="none" fill="#000000" transform="matrix(0.0833333 0 0 0.0833333 -66.175 -53)" d="M 1026.19,1176.04 L 1010.02,1170.78 L 1032.37,1102.02 L 1048.54,1107.28 L 1026.19,1176.04 Z " />
<path stroke="none" fill="#000000" transform="matrix(0.0833333 0 0 0.0833333 -66.175 -53)" d="M 1075.47,1192.06 L 1059.31,1186.8 L 1081.66,1118.04 L 1097.82,1123.3 L 1075.47,1192.06 Z " />
<path stroke="none" fill="#000000" transform="matrix(0.0833333 0 0 0.0833333 -66.175 -53)" d="M 1150.28,1378.11 L 1140.29,1391.86 L 1073.59,1343.37 L 1083.59,1329.62 L 1150.28,1378.11 Z " />
<path stroke="none" fill="#000000" transform="matrix(0.0833333 0 0 0.0833333 -66.175 -53)" d="M 1442.6,1266.51 L 1452.59,1269.75 L 1454.08,1279.18 L 1299.63,1391.57 L 1289.62,1377.82 L 1442.6,1266.51 Z " />
<path stroke="none" fill="#000000" transform="matrix(0.0833333 0 0 0.0833333 -66.175 -53)" d="M 1357.41,1004.45 L 1369.76,987.452 L 1459.33,1263.01 L 1452.59,1269.75 L 1442.6,1266.51 L 1357.41,1004.45 Z " />
<path stroke="none" fill="#000000" transform="matrix(0.0833333 0 0 0.0833333 -66.175 -53)" d="M 1317.86,1050.4 L 1334.03,1045.15 L 1399.76,1247.36 L 1383.59,1252.62 L 1317.86,1050.4 Z " />
<text x="0" y="0" stroke="none" fill="#000000" transform="matrix(0.0833333 0 0 0.0833333 72.2741 66.1043)" font-style="normal" font-weight="normal" font-size="180px" font-family="Arial" >
N</text>
<path stroke="none" fill="#000000" transform="matrix(0.0833333 0 0 0.0833333 -66.175 -53)" d="M 1635.94,1320.41 L 1630.68,1336.58 L 1454.08,1279.18 L 1452.59,1269.75 L 1459.33,1263.01 L 1635.94,1320.41 Z " />
<text x="0" y="0" stroke="none" fill="#000000" transform="matrix(0.0833333 0 0 0.0833333 3.94074 16.4543)" font-style="normal" font-weight="normal" font-size="180px" font-family="Arial" >
R</text>
<path stroke="none" fill="#000000" transform="matrix(0.0833333 0 0 0.0833333 -66.175 -53)" d="M 972.681,868.587 L 986.431,858.59 L 1019.3,903.795 L 1005.55,913.792 L 972.681,868.587 Z " />
<path stroke="none" fill="#000000" transform="matrix(0.0833333 0 0 0.0833333 -66.175 -53)" d="M 1793.53,1633.9 L 1778.94,1647.03 L 1741.1,1468.92 L 1757.73,1465.39 L 1793.53,1633.9 Z " />
<path stroke="none" fill="#000000" transform="matrix(0.0833333 0 0 0.0833333 -66.175 -53)" d="M 2058.09,1719.9 L 2062.17,1739.1 L 1778.94,1647.03 L 1793.53,1633.9 L 2058.09,1719.9 Z " />
<text x="0" y="0" stroke="none" fill="#000000" transform="matrix(0.0833333 0 0 0.0833333 59.007 105.637)" font-style="normal" font-weight="normal" font-size="180px" font-family="Arial" >
O</text>
<path stroke="none" fill="#000000" transform="matrix(0.0833333 0 0 0.0833333 -66.175 -53)" d="M 1663.84,1796.95 L 1652.47,1784.32 L 1809.01,1643.4 L 1820.38,1656.04 L 1663.84,1796.95 Z " />
<path stroke="none" fill="#000000" transform="matrix(0.0833333 0 0 0.0833333 -66.175 -53)" d="M 1629.16,1758.42 L 1617.79,1745.79 L 1774.33,1604.87 L 1785.7,1617.51 L 1629.16,1758.42 Z " />
<text x="0" y="0" stroke="none" fill="#000000" transform="matrix(0.0833333 0 0 0.0833333 117.923 80.9427)" font-style="normal" font-weight="normal" font-size="180px" font-family="Arial" >
Cl</text>
<path stroke="none" fill="#000000" transform="matrix(0.0833333 0 0 0.0833333 -66.175 -53)" d="M 2195.22,1596.45 L 2206.59,1609.09 L 2062.17,1739.1 L 2058.09,1719.9 L 2195.22,1596.45 Z " />
<path stroke="none" fill="#000000" transform="matrix(0.0833333 0 0 0.0833333 -66.175 -53)" d="M 1118.9,867.292 L 1195.9,867.292 L 1195.9,881.292 L 1118.9,881.292 Z " />
<path stroke="none" fill="#000000" transform="matrix(0.0833333 0 0 0.0833333 -66.175 -53)" d="M 1164.4,835.792 L 1164.4,912.792 L 1150.4,912.792 L 1150.4,835.792 Z " />
<path stroke="none" fill="#000000" transform="matrix(0.0833333 0 0 0.0833333 -66.175 -53)" d="M 1763.75,1231.46 L 1840.75,1231.46 L 1840.75,1245.46 L 1763.75,1245.46 Z " />
<text x="0" y="0" stroke="none" fill="#000000" transform="matrix(0.0833333 0 0 0.0833333 297.04 35.871)" font-style="normal" font-weight="normal" font-size="180px" font-family="Arial" >
N</text>
<text x="0" y="0" stroke="none" fill="#000000" transform="matrix(0.0833333 0 0 0.0833333 289.623 58.6876)" font-style="normal" font-weight="normal" font-size="180px" font-family="Arial" >
N</text>
<text x="0" y="0" stroke="none" fill="#000000" transform="matrix(0.0833333 0 0 0.0833333 308.623 72.8043)" font-style="normal" font-weight="normal" font-size="180px" font-family="Arial" >
O</text>
<path stroke="none" fill="#000000" transform="matrix(0.0833333 0 0 0.0833333 -66.175 -53)" d="M 4505.37,1004.45 L 4505.37,987.452 L 4717.55,987.452 L 4705.2,1004.45 L 4505.37,1004.45 Z " />
<path stroke="none" fill="#000000" transform="matrix(0.0833333 0 0 0.0833333 -66.175 -53)" d="M 4373.98,1176.04 L 4357.81,1170.78 L 4380.16,1102.02 L 4396.33,1107.28 L 4373.98,1176.04 Z " />
<path stroke="none" fill="#000000" transform="matrix(0.0833333 0 0 0.0833333 -66.175 -53)" d="M 4423.26,1192.06 L 4407.09,1186.8 L 4429.44,1118.04 L 4445.61,1123.3 L 4423.26,1192.06 Z " />
<path stroke="none" fill="#000000" transform="matrix(0.0833333 0 0 0.0833333 -66.175 -53)" d="M 4498.07,1378.11 L 4488.07,1391.86 L 4421.38,1343.37 L 4431.38,1329.62 L 4498.07,1378.11 Z " />
<path stroke="none" fill="#000000" transform="matrix(0.0833333 0 0 0.0833333 -66.175 -53)" d="M 4790.38,1266.51 L 4800.37,1269.75 L 4801.87,1279.18 L 4647.41,1391.57 L 4637.41,1377.82 L 4790.38,1266.51 Z " />
<path stroke="none" fill="#000000" transform="matrix(0.0833333 0 0 0.0833333 -66.175 -53)" d="M 4705.2,1004.45 L 4717.55,987.452 L 4807.12,1263.01 L 4800.37,1269.75 L 4790.38,1266.51 L 4705.2,1004.45 Z " />
<path stroke="none" fill="#000000" transform="matrix(0.0833333 0 0 0.0833333 -66.175 -53)" d="M 4665.64,1050.4 L 4681.81,1045.15 L 4747.54,1247.36 L 4731.38,1252.62 L 4665.64,1050.4 Z " />
<text x="0" y="0" stroke="none" fill="#000000" transform="matrix(0.0833333 0 0 0.0833333 351.256 66.1043)" font-style="normal" font-weight="normal" font-size="180px" font-family="Arial" >
N</text>
<path stroke="none" fill="#000000" transform="matrix(0.0833333 0 0 0.0833333 -66.175 -53)" d="M 4983.73,1320.41 L 4978.47,1336.58 L 4801.87,1279.18 L 4800.37,1269.75 L 4807.12,1263.01 L 4983.73,1320.41 Z " />
<text x="0" y="0" stroke="none" fill="#000000" transform="matrix(0.0833333 0 0 0.0833333 282.923 16.4543)" font-style="normal" font-weight="normal" font-size="180px" font-family="Arial" >
R</text>
<path stroke="none" fill="#000000" transform="matrix(0.0833333 0 0 0.0833333 -66.175 -53)" d="M 4320.47,868.587 L 4334.22,858.59 L 4367.08,903.795 L 4353.33,913.792 L 4320.47,868.587 Z " />
<path stroke="none" fill="#000000" transform="matrix(0.0833333 0 0 0.0833333 -66.175 -53)" d="M 5141.31,1633.9 L 5126.72,1647.03 L 5088.89,1468.92 L 5105.52,1465.39 L 5141.31,1633.9 Z " />
<path stroke="none" fill="#000000" transform="matrix(0.0833333 0 0 0.0833333 -66.175 -53)" d="M 5405.87,1719.9 L 5409.95,1739.1 L 5126.72,1647.03 L 5141.31,1633.9 L 5405.87,1719.9 Z " />
<text x="0" y="0" stroke="none" fill="#000000" transform="matrix(0.0833333 0 0 0.0833333 337.989 105.637)" font-style="normal" font-weight="normal" font-size="180px" font-family="Arial" >
O</text>
<path stroke="none" fill="#000000" transform="matrix(0.0833333 0 0 0.0833333 -66.175 -53)" d="M 5011.63,1796.95 L 5000.25,1784.32 L 5156.8,1643.4 L 5168.17,1656.04 L 5011.63,1796.95 Z " />
<path stroke="none" fill="#000000" transform="matrix(0.0833333 0 0 0.0833333 -66.175 -53)" d="M 4976.94,1758.42 L 4965.57,1745.79 L 5122.11,1604.87 L 5133.49,1617.51 L 4976.94,1758.42 Z " />
<text x="0" y="0" stroke="none" fill="#000000" transform="matrix(0.0833333 0 0 0.0833333 396.905 80.9427)" font-style="normal" font-weight="normal" font-size="180px" font-family="Arial" >
N</text>
<path stroke="none" fill="#000000" transform="matrix(0.0833333 0 0 0.0833333 -66.175 -53)" d="M 5529.58,1608.54 L 5540.95,1621.17 L 5409.95,1739.1 L 5405.87,1719.9 L 5529.58,1608.54 Z " />
<path stroke="none" fill="#000000" transform="matrix(0.0833333 0 0 0.0833333 -66.175 -53)" d="M 4466.69,867.292 L 4543.69,867.292 L 4543.69,881.292 L 4466.69,881.292 Z " />
<path stroke="none" fill="#000000" transform="matrix(0.0833333 0 0 0.0833333 -66.175 -53)" d="M 4512.19,835.792 L 4512.19,912.792 L 4498.19,912.792 L 4498.19,835.792 Z " />
<path stroke="none" fill="#000000" transform="matrix(0.0833333 0 0 0.0833333 -66.175 -53)" d="M 5111.54,1231.46 L 5188.54,1231.46 L 5188.54,1245.46 L 5111.54,1245.46 Z " />
<path stroke="none" fill="#000000" transform="matrix(0.0833333 0 0 0.0833333 -66.175 -53)" d="M 5893.81,1616.24 L 5897.89,1635.44 L 5711.9,1574.99 L 5717.15,1558.82 L 5893.81,1616.24 Z " />
<path stroke="none" fill="#000000" transform="matrix(0.0833333 0 0 0.0833333 -66.175 -53)" d="M 5553.8,1256.87 L 5570.43,1253.33 L 5609.91,1439.2 L 5593.29,1442.73 L 5553.8,1256.87 Z " />
<text x="0" y="0" stroke="none" fill="#d90000" transform="matrix(0.0833333 0 0 0.0833333 438.4 72.305)" font-style="normal" font-weight="bold" font-size="180px" font-family="Arial" >
Fc</text>
<path stroke="none" fill="#000000" transform="matrix(0.0833333 0 0 0.0833333 -66.175 -53)" d="M 6025.03,1498.12 L 6036.41,1510.76 L 5897.89,1635.44 L 5893.81,1616.24 L 6025.03,1498.12 Z " />
<text x="0" y="0" stroke="none" fill="#000000" transform="matrix(0.0833333 0 0 0.0833333 144.274 43.2251)" font-style="normal" font-weight="normal" font-size="180px" font-family="Arial" >
NH</text>
<path stroke="none" fill="#000000" transform="matrix(0.0833333 0 0 0.0833333 -66.175 -53)" d="M 2520.45,996.554 L 2511.96,1011.28 L 2402.54,948.164 L 2411.04,933.439 L 2520.45,996.554 Z " />
<path stroke="none" fill="#000000" transform="matrix(0.0833333 0 0 0.0833333 -66.175 -53)" d="M 2903.99,930.989 L 2903.99,950.614 L 2798.07,1011.71 L 2789.58,996.987 L 2903.99,930.989 Z " />
<text x="0" y="0" stroke="none" fill="#d90000" transform="matrix(0.0833333 0 0 0.0833333 187.786 43.2251)" font-style="normal" font-weight="bold" font-size="180px" font-family="Arial" >
Fc</text>
<path stroke="none" fill="#000000" transform="matrix(0.0833333 0 0 0.0833333 -66.175 -53)" d="M 3034.21,1006.1 L 3025.71,1020.83 L 2903.99,950.614 L 2903.99,930.989 L 3034.21,1006.1 Z " />
<path stroke="none" fill="#000000" transform="matrix(0.0833333 0 0 0.0833333 -66.175 -53)" d="M 3879.75,1302.55 L 2422.5,1302.55 L 2422.5,1285.55 L 3879.75,1285.55 Z " />
<path stroke="none" fill="#000000" transform="matrix(0.0833333 0 0 0.0833333 -66.175 -53)" d="M 4027.5,1294.05 C 4027.5,1294.05 3857.5,1337.55 3857.5,1337.55 C 3857.5,1337.55 3878.75,1313.08 3878.75,1294.05 C 3878.75,1274.58 3857.5,1249.55 3857.5,1249.55 C 3857.5,1249.55 4027.5,1294.05 4027.5,1294.05 C 4027.5,1294.05 4027.5,1294.05 4027.5,1294.05 " />
<path stroke="#000000" stroke-width="1" fill="none" transform="matrix(0.0833333 0 0 0.0833333 -66.175 -53)" d="M 4027.5,1294.05 C 4027.5,1294.05 3857.5,1337.55 3857.5,1337.55 C 3857.5,1337.55 3878.75,1313.08 3878.75,1294.05 C 3878.75,1274.58 3857.5,1249.55 3857.5,1249.55 C 3857.5,1249.55 4027.5,1294.05 4027.5,1294.05 C 4027.5,1294.05 4027.5,1294.05 4027.5,1294.05 " />
<text x="0" y="0" stroke="none" fill="#000000" transform="matrix(0.0833333 0 0 0.0833333 167.638 76.2293)" font-style="normal" font-weight="normal" font-size="180px" font-family="Arial" >
MeOH, </text>
<text x="0" y="0" stroke="none" fill="#000000" transform="matrix(0.0833333 0 0 0.0833333 219.316 76.2293)" font-style="normal" font-weight="normal" font-size="180px" font-family="Symbol" >
D</text>
<text x="0" y="0" stroke="none" fill="#000000" transform="matrix(0.0833333 0 0 0.0833333 142.591 43.546)" font-style="normal" font-weight="normal" font-size="180px" font-family="Arial" >
 </text>
<text x="0" y="0" stroke="none" fill="#000000" transform="matrix(0.0833333 0 0 0.0833333 146.758 43.546)" font-style="normal" font-weight="normal" font-size="180px" font-family="Arial" >
 </text>
<text x="0" y="0" stroke="none" fill="#000000" transform="matrix(0.0833333 0 0 0.0833333 150.926 43.546)" font-style="normal" font-weight="normal" font-size="180px" font-family="Arial" >
 </text>
<text x="0" y="0" stroke="none" fill="#000000" transform="matrix(0.0833333 0 0 0.0833333 155.093 43.546)" font-style="normal" font-weight="normal" font-size="180px" font-family="Arial" >
 </text>
<text x="0" y="0" stroke="none" fill="#000000" transform="matrix(0.0833333 0 0 0.0833333 159.261 43.546)" font-style="normal" font-weight="normal" font-size="180px" font-family="Arial" >
 </text>
<text x="0" y="0" stroke="none" fill="#000000" transform="matrix(0.0833333 0 0 0.0833333 163.428 43.546)" font-style="normal" font-weight="normal" font-size="180px" font-family="Arial" >
 </text>
<text x="0" y="0" stroke="none" fill="#000000" transform="matrix(0.0833333 0 0 0.0833333 167.596 43.546)" font-style="normal" font-weight="normal" font-size="180px" font-family="Arial" >
 </text>
<text x="0" y="0" stroke="none" fill="#000000" transform="matrix(0.0833333 0 0 0.0833333 171.763 43.546)" font-style="normal" font-weight="normal" font-size="180px" font-family="Arial" >
 </text>
<text x="0" y="0" stroke="none" fill="#000000" transform="matrix(0.0833333 0 0 0.0833333 175.931 43.546)" font-style="normal" font-weight="normal" font-size="180px" font-family="Arial" >
 </text>
<text x="0" y="0" stroke="none" fill="#000000" transform="matrix(0.0833333 0 0 0.0833333 180.098 43.546)" font-style="normal" font-weight="normal" font-size="180px" font-family="Arial" >
 </text>
<text x="0" y="0" stroke="none" fill="#000000" transform="matrix(0.0833333 0 0 0.0833333 184.266 43.546)" font-style="normal" font-weight="normal" font-size="180px" font-family="Arial" >
 </text>
<text x="0" y="0" stroke="none" fill="#000000" transform="matrix(0.0833333 0 0 0.0833333 188.433 43.546)" font-style="normal" font-weight="normal" font-size="180px" font-family="Arial" >
 </text>
<text x="0" y="0" stroke="none" fill="#000000" transform="matrix(0.0833333 0 0 0.0833333 192.601 43.546)" font-style="normal" font-weight="normal" font-size="180px" font-family="Arial" >
 </text>
<text x="0" y="0" stroke="none" fill="#000000" transform="matrix(0.0833333 0 0 0.0833333 196.768 43.546)" font-style="normal" font-weight="normal" font-size="180px" font-family="Arial" >
 </text>
<text x="0" y="0" stroke="none" fill="#000000" transform="matrix(0.0833333 0 0 0.0833333 200.936 43.546)" font-style="normal" font-weight="normal" font-size="180px" font-family="Arial" >
 </text>
<text x="0" y="0" stroke="none" fill="#000000" transform="matrix(0.0833333 0 0 0.0833333 205.103 43.546)" font-style="normal" font-weight="normal" font-size="180px" font-family="Arial" >
, </text>
<text x="0" y="0" stroke="none" fill="#000000" transform="matrix(0.0833333 0 0 0.0833333 213.438 43.546)" font-style="normal" font-weight="normal" font-size="180px" font-family="Arial" >
DIPEA</text>
<text x="0" y="0" stroke="none" fill="#000000" transform="matrix(0.0833333 0 0 0.0833333 159.432 148.913)" font-style="normal" font-weight="bold" font-size="180px" font-family="Arial" >
4a</text>
<text x="0" y="0" stroke="none" fill="#000000" transform="matrix(0.0833333 0 0 0.0833333 176.117 148.913)" font-style="normal" font-weight="normal" font-size="180px" font-family="Arial" >
:</text>
<text x="0" y="0" stroke="none" fill="#000000" transform="matrix(0.0833333 0 0 0.0833333 180.285 148.913)" font-style="normal" font-weight="bold" font-size="180px" font-family="Arial" >
 </text>
<text x="0" y="0" stroke="none" fill="#000000" transform="matrix(0.0833333 0 0 0.0833333 184.452 148.913)" font-style="normal" font-weight="normal" font-size="180px" font-family="Arial" >
R </text>
<text x="0" y="0" stroke="none" fill="#000000" transform="matrix(0.0833333 0 0 0.0833333 199.453 148.913)" font-style="normal" font-weight="normal" font-size="180px" font-family="Arial" >
= </text>
<text x="0" y="0" stroke="none" fill="#000000" transform="matrix(0.0833333 0 0 0.0833333 212.38 148.913)" font-style="normal" font-weight="normal" font-size="180px" font-family="Arial" >
Et- </text>
<text x="0" y="0" stroke="none" fill="#000000" transform="matrix(0.0833333 0 0 0.0833333 235.72 148.913)" font-style="normal" font-weight="normal" font-size="180px" font-family="Arial" >
 </text>
<text x="0" y="0" stroke="none" fill="#000000" transform="matrix(0.0833333 0 0 0.0833333 239.887 148.913)" font-style="normal" font-weight="normal" font-size="180px" font-family="Arial" >
 </text>
<text x="0" y="0" stroke="none" fill="#000000" transform="matrix(0.0833333 0 0 0.0833333 244.055 148.913)" font-style="normal" font-weight="normal" font-size="180px" font-family="Arial" >
 </text>
<text x="0" y="0" stroke="none" fill="#000000" transform="matrix(0.0833333 0 0 0.0833333 248.222 148.913)" font-style="normal" font-weight="normal" font-size="180px" font-family="Arial" >
 </text>
<text x="0" y="0" stroke="none" fill="#000000" transform="matrix(0.0833333 0 0 0.0833333 252.39 148.913)" font-style="normal" font-weight="normal" font-size="180px" font-family="Arial" >
 </text>
<text x="0" y="0" stroke="none" fill="#000000" transform="matrix(0.0833333 0 0 0.0833333 256.557 148.913)" font-style="normal" font-weight="normal" font-size="180px" font-family="Arial" >
 </text>
<text x="0" y="0" stroke="none" fill="#000000" transform="matrix(0.0833333 0 0 0.0833333 260.725 148.913)" font-style="normal" font-weight="normal" font-size="180px" font-family="Arial" >
 </text>
<text x="0" y="0" stroke="none" fill="#000000" transform="matrix(0.0833333 0 0 0.0833333 264.892 148.913)" font-style="normal" font-weight="normal" font-size="180px" font-family="Arial" >
 </text>
<text x="0" y="0" stroke="none" fill="#000000" transform="matrix(0.0833333 0 0 0.0833333 269.06 148.913)" font-style="normal" font-weight="normal" font-size="180px" font-family="Arial" >
 </text>
<text x="0" y="0" stroke="none" fill="#000000" transform="matrix(0.0833333 0 0 0.0833333 273.227 148.913)" font-style="normal" font-weight="normal" font-size="180px" font-family="Arial" >
 </text>
<text x="0" y="0" stroke="none" fill="#000000" transform="matrix(0.0833333 0 0 0.0833333 277.395 148.913)" font-style="normal" font-weight="normal" font-size="180px" font-family="Arial" >
58 </text>
<text x="0" y="0" stroke="none" fill="#000000" transform="matrix(0.0833333 0 0 0.0833333 298.247 148.913)" font-style="normal" font-weight="normal" font-size="180px" font-family="Arial" >
%</text>
<text x="0" y="0" stroke="none" fill="#000000" transform="matrix(0.0833333 0 0 0.0833333 159.432 170.038)" font-style="normal" font-weight="bold" font-size="180px" font-family="Arial" >
4b</text>
<text x="0" y="0" stroke="none" fill="#000000" transform="matrix(0.0833333 0 0 0.0833333 176.941 170.038)" font-style="normal" font-weight="normal" font-size="180px" font-family="Arial" >
: </text>
<text x="0" y="0" stroke="none" fill="#000000" transform="matrix(0.0833333 0 0 0.0833333 185.276 170.038)" font-style="normal" font-weight="normal" font-size="180px" font-family="Arial" >
R </text>
<text x="0" y="0" stroke="none" fill="#000000" transform="matrix(0.0833333 0 0 0.0833333 200.277 170.038)" font-style="normal" font-weight="normal" font-size="180px" font-family="Arial" >
= </text>
<text x="0" y="0" stroke="none" fill="#000000" transform="matrix(0.0833333 0 0 0.0833333 213.204 170.038)" font-style="normal" font-weight="normal" font-size="180px" font-family="Arial" >
Pr</text>
<text x="0" y="0" stroke="none" fill="#000000" transform="matrix(0.0833333 0 0 0.0833333 228.209 164.163)" font-style="italic" font-weight="normal" font-size="135px" font-family="Arial" >
i</text>
<text x="0" y="0" stroke="none" fill="#000000" transform="matrix(0.0833333 0 0 0.0833333 230.709 170.038)" font-style="normal" font-weight="normal" font-size="180px" font-family="Arial" >
- </text>
<text x="0" y="0" stroke="none" fill="#000000" transform="matrix(0.0833333 0 0 0.0833333 239.877 170.038)" font-style="normal" font-weight="normal" font-size="180px" font-family="Arial" >
 </text>
<text x="0" y="0" stroke="none" fill="#000000" transform="matrix(0.0833333 0 0 0.0833333 244.044 170.038)" font-style="normal" font-weight="normal" font-size="180px" font-family="Arial" >
 </text>
<text x="0" y="0" stroke="none" fill="#000000" transform="matrix(0.0833333 0 0 0.0833333 248.212 170.038)" font-style="normal" font-weight="normal" font-size="180px" font-family="Arial" >
 </text>
<text x="0" y="0" stroke="none" fill="#000000" transform="matrix(0.0833333 0 0 0.0833333 252.379 170.038)" font-style="normal" font-weight="normal" font-size="180px" font-family="Arial" >
 </text>
<text x="0" y="0" stroke="none" fill="#000000" transform="matrix(0.0833333 0 0 0.0833333 256.547 170.038)" font-style="normal" font-weight="normal" font-size="180px" font-family="Arial" >
 </text>
<text x="0" y="0" stroke="none" fill="#000000" transform="matrix(0.0833333 0 0 0.0833333 260.714 170.038)" font-style="normal" font-weight="normal" font-size="180px" font-family="Arial" >
 </text>
<text x="0" y="0" stroke="none" fill="#000000" transform="matrix(0.0833333 0 0 0.0833333 264.882 170.038)" font-style="normal" font-weight="normal" font-size="180px" font-family="Arial" >
 </text>
<text x="0" y="0" stroke="none" fill="#000000" transform="matrix(0.0833333 0 0 0.0833333 269.049 170.038)" font-style="normal" font-weight="normal" font-size="180px" font-family="Arial" >
 </text>
<text x="0" y="0" stroke="none" fill="#000000" transform="matrix(0.0833333 0 0 0.0833333 273.217 170.038)" font-style="normal" font-weight="normal" font-size="180px" font-family="Arial" >
 </text>
<text x="0" y="0" stroke="none" fill="#000000" transform="matrix(0.0833333 0 0 0.0833333 277.384 170.038)" font-style="normal" font-weight="normal" font-size="180px" font-family="Arial" >
60 </text>
<text x="0" y="0" stroke="none" fill="#000000" transform="matrix(0.0833333 0 0 0.0833333 298.236 170.038)" font-style="normal" font-weight="normal" font-size="180px" font-family="Arial" >
% </text>
<text x="0" y="0" stroke="none" fill="#000000" transform="matrix(0.0833333 0 0 0.0833333 315.741 170.038)" font-style="normal" font-weight="normal" font-size="180px" font-family="Arial" >
 </text>
<text x="0" y="0" stroke="none" fill="#000000" transform="matrix(0.0833333 0 0 0.0833333 319.909 170.038)" font-style="normal" font-weight="normal" font-size="180px" font-family="Arial" >
 </text>
<text x="0" y="0" stroke="none" fill="#000000" transform="matrix(0.0833333 0 0 0.0833333 324.076 170.038)" font-style="normal" font-weight="normal" font-size="180px" font-family="Arial" >
 </text>
<text x="0" y="0" stroke="none" fill="#000000" transform="matrix(0.0833333 0 0 0.0833333 159.432 191.163)" font-style="normal" font-weight="bold" font-size="180px" font-family="Arial" >
4c</text>
<text x="0" y="0" stroke="none" fill="#000000" transform="matrix(0.0833333 0 0 0.0833333 176.117 191.163)" font-style="normal" font-weight="normal" font-size="180px" font-family="Arial" >
: </text>
<text x="0" y="0" stroke="none" fill="#000000" transform="matrix(0.0833333 0 0 0.0833333 184.452 191.163)" font-style="normal" font-weight="normal" font-size="180px" font-family="Arial" >
R</text>
<text x="0" y="0" stroke="none" fill="#000000" transform="matrix(0.0833333 0 0 0.0833333 195.285 191.163)" font-style="italic" font-weight="normal" font-size="180px" font-family="Arial" >
 </text>
<text x="0" y="0" stroke="none" fill="#000000" transform="matrix(0.0833333 0 0 0.0833333 199.453 191.163)" font-style="italic" font-weight="normal" font-size="180px" font-family="Arial" >
= </text>
<text x="0" y="0" stroke="none" fill="#000000" transform="matrix(0.0833333 0 0 0.0833333 212.38 191.163)" font-style="normal" font-weight="normal" font-size="180px" font-family="Arial" >
Me</text>
<text x="0" y="0" stroke="none" fill="#000000" transform="matrix(0.0833333 0 0 0.0833333 233.222 194.413)" font-style="normal" font-weight="normal" font-size="135px" font-family="Arial" >
2</text>
<text x="0" y="0" stroke="none" fill="#000000" transform="matrix(0.0833333 0 0 0.0833333 239.479 191.163)" font-style="normal" font-weight="normal" font-size="180px" font-family="Arial" >
N- </text>
<text x="0" y="0" stroke="none" fill="#000000" transform="matrix(0.0833333 0 0 0.0833333 259.48 191.163)" font-style="normal" font-weight="normal" font-size="180px" font-family="Arial" >
 </text>
<text x="0" y="0" stroke="none" fill="#000000" transform="matrix(0.0833333 0 0 0.0833333 263.647 191.163)" font-style="normal" font-weight="normal" font-size="180px" font-family="Arial" >
 </text>
<text x="0" y="0" stroke="none" fill="#000000" transform="matrix(0.0833333 0 0 0.0833333 267.815 191.163)" font-style="normal" font-weight="normal" font-size="180px" font-family="Arial" >
 </text>
<text x="0" y="0" stroke="none" fill="#000000" transform="matrix(0.0833333 0 0 0.0833333 271.982 191.163)" font-style="normal" font-weight="normal" font-size="180px" font-family="Arial" >
 </text>
<text x="0" y="0" stroke="none" fill="#000000" transform="matrix(0.0833333 0 0 0.0833333 276.15 191.163)" font-style="normal" font-weight="normal" font-size="180px" font-family="Arial" >
62 </text>
<text x="0" y="0" stroke="none" fill="#000000" transform="matrix(0.0833333 0 0 0.0833333 297.002 191.163)" font-style="normal" font-weight="normal" font-size="180px" font-family="Arial" >
%</text>
<text x="0" y="0" stroke="none" fill="#000000" transform="matrix(0.0833333 0 0 0.0833333 30.9908 93.496)" font-style="normal" font-weight="bold" font-size="180px" font-family="Arial" >
3</text>
<text x="0" y="0" stroke="none" fill="#000000" transform="matrix(0.0833333 0 0 0.0833333 310.991 93.496)" font-style="normal" font-weight="bold" font-size="180px" font-family="Arial" >
4</text>
<path stroke="#000000" stroke-width="17" fill="none" transform="matrix(0.0833333 0 0 0.0833333 -66.175 -53)" stroke-dasharray="50" d="M 6337.5,2095 L 860,2095 " />
</svg>
