<?xml version="1.0" standalone="no" ?>
<!DOCTYPE svg PUBLIC "-//W3C//DTD SVG 1.1//EN" "http://www.w3.org/Graphics/SVG/1.1/DTD/svg11.dtd">
<svg width="534px" height="159px" viewBox="0 0 534 159" style="background-color: #ffffff00" xmlns="http://www.w3.org/2000/svg" xmlns:xlink="http://www.w3.org/1999/xlink" version="1.1" >
<path stroke="none" fill="#d90000" transform="matrix(0.0833333 0 0 0.0833333 -217.175 -920.833)" d="M 5631.98,11967.5 L 5614.99,11968.1 L 5612.92,11914.7 L 5629.9,11914 L 5631.98,11967.5 L 5631.98,11967.5 Z " />
<path stroke="none" fill="#d90000" transform="matrix(0.0833333 0 0 0.0833333 -217.175 -920.833)" d="M 5623.67,11753.6 L 5606.69,11754.3 L 5604.61,11700.9 L 5621.6,11700.2 L 5623.67,11753.6 L 5623.67,11753.6 Z " />
<path stroke="none" fill="#d90000" transform="matrix(0.0833333 0 0 0.0833333 -217.175 -920.833)" d="M 5354.55,11736.8 L 5327.55,11745.7 L 5435.5,11591.3 L 5445.41,11591.9 L 5449.82,11600.5 L 5354.55,11736.8 Z " />
<path stroke="none" fill="#d90000" transform="matrix(0.0833333 0 0 0.0833333 -217.175 -920.833)" d="M 5613.7,11802 L 5613.86,11865.7 L 5327.55,11745.7 L 5354.55,11736.8 L 5613.7,11802 Z " />
<path stroke="none" fill="#d90000" transform="matrix(0.0833333 0 0 0.0833333 -217.175 -920.833)" d="M 5870.6,11736.1 L 5897.6,11744.9 L 5613.86,11865.7 L 5613.7,11802 L 5870.6,11736.1 Z " />
<path stroke="none" fill="#d90000" transform="matrix(0.0833333 0 0 0.0833333 -217.175 -920.833)" d="M 5776.84,11602.8 L 5785.71,11585.9 L 5897.6,11744.9 L 5870.6,11736.1 L 5776.84,11602.8 Z " />
<path stroke="none" fill="#d90000" transform="matrix(0.0833333 0 0 0.0833333 -217.175 -920.833)" d="M 5785.71,11585.9 L 5776.84,11602.8 L 5449.82,11600.5 L 5445.41,11591.9 L 5450.6,11583.5 L 5785.71,11585.9 Z " />
<path stroke="#d90000" stroke-width="17" fill="none" transform="matrix(0.0833333 0 0 0.0833333 -217.175 -920.833)" d="M 5613.77,11758 C 5711.68,11758 5790.52,11725.9 5790.52,11686.9 C 5790.52,11647.8 5711.68,11615.7 5613.77,11615.7 C 5515.77,11615.7 5437.02,11647.8 5437.02,11686.9 C 5437.02,11725.9 5515.77,11758 5613.77,11758 " />
<path stroke="none" fill="#d90000" transform="matrix(0.0833333 0 0 0.0833333 -217.175 -920.833)" d="M 5477.91,12430.4 L 5432.7,12470.3 L 5340.91,12320.5 L 5371.07,12330.2 L 5477.91,12430.4 Z " />
<path stroke="none" fill="#d90000" transform="matrix(0.0833333 0 0 0.0833333 -217.175 -920.833)" d="M 5779.5,12432.2 L 5824.2,12472.7 L 5432.7,12470.3 L 5477.91,12430.4 L 5779.5,12432.2 Z " />
<path stroke="none" fill="#d90000" transform="matrix(0.0833333 0 0 0.0833333 -217.175 -920.833)" d="M 5896.08,12333.6 L 5927.43,12324.8 L 5824.2,12472.7 L 5779.5,12432.2 L 5896.08,12333.6 Z " />
<path stroke="none" fill="#d90000" transform="matrix(0.0833333 0 0 0.0833333 -217.175 -920.833)" d="M 5927.43,12324.8 L 5896.08,12333.6 L 5671.3,12270.2 L 5670.96,12252.5 L 5927.43,12324.8 L 5927.43,12324.8 Z " />
<path stroke="none" fill="#d90000" transform="matrix(0.0833333 0 0 0.0833333 -217.175 -920.833)" d="M 5371.07,12330.2 L 5340.91,12320.5 L 5590.41,12255.8 L 5590.75,12273.3 L 5371.07,12330.2 L 5371.07,12330.2 Z " />
<path stroke="#d90000" stroke-width="17" fill="none" transform="matrix(0.0833333 0 0 0.0833333 -217.175 -920.833)" d="M 5633.22,12412.1 C 5733.8,12412.1 5816.64,12384.8 5816.64,12351.9 C 5816.64,12318.5 5733.8,12291.2 5633.22,12291.2 C 5532.64,12291.2 5450.27,12318.5 5450.27,12351.9 C 5450.27,12384.8 5532.64,12412.1 5633.22,12412.1 " />
<text x="0" y="0" stroke="none" fill="#d90000" transform="matrix(0.0833333 0 0 0.0833333 242.981 89.7344)" font-style="normal" font-weight="normal" font-size="180px" font-family="Arial" >
Fe</text>
<path stroke="none" fill="#d90000" transform="matrix(0.0833333 0 0 0.0833333 -217.175 -920.833)" d="M 5641.24,12362 L 5624.24,12362.3 L 5623.48,12321.9 L 5640.47,12321.6 L 5641.24,12362 Z " />
<path stroke="none" fill="#d90000" transform="matrix(0.0833333 0 0 0.0833333 -217.175 -920.833)" d="M 5639.71,12281.2 L 5622.71,12281.5 L 5621.94,12241.2 L 5638.94,12240.8 L 5639.71,12281.2 Z " />
<path stroke="none" fill="#d90000" transform="matrix(0.0833333 0 0 0.0833333 -217.175 -920.833)" d="M 5638.17,12200.5 L 5621.17,12200.8 L 5620.41,12160.4 L 5637.4,12160.1 L 5638.17,12200.5 Z " />
<text x="0" y="0" stroke="none" fill="#000000" transform="matrix(0.0833333 0 0 0.0833333 210.592 29.7139)" font-style="normal" font-weight="normal" font-size="180px" font-family="Arial" >
FG</text>
<path stroke="none" fill="#000000" transform="matrix(0.0833333 0 0 0.0833333 -217.175 -920.833)" d="M 5355.36,11436.2 L 5370.47,11428.4 L 5450.6,11583.5 L 5445.41,11591.9 L 5435.5,11591.3 L 5355.36,11436.2 Z " />
<text x="0" y="0" stroke="none" fill="#000000" transform="matrix(0.0833333 0 0 0.0833333 41.275 84.7097)" font-style="normal" font-weight="normal" font-size="180px" font-family="Arial" >
N</text>
<text x="0" y="0" stroke="none" fill="#000000" transform="matrix(0.0833333 0 0 0.0833333 33.8583 107.526)" font-style="normal" font-weight="normal" font-size="180px" font-family="Arial" >
N</text>
<text x="0" y="0" stroke="none" fill="#000000" transform="matrix(0.0833333 0 0 0.0833333 52.8583 121.643)" font-style="normal" font-weight="normal" font-size="180px" font-family="Arial" >
O</text>
<path stroke="none" fill="#000000" transform="matrix(0.0833333 0 0 0.0833333 -217.175 -920.833)" d="M 3248.2,12004.5 L 3248.2,11987.5 L 3449.87,11987.5 L 3454.2,11996 L 3448.03,12004.5 L 3248.2,12004.5 Z " />
<path stroke="none" fill="#000000" transform="matrix(0.0833333 0 0 0.0833333 -217.175 -920.833)" d="M 3116.8,12176.1 L 3100.63,12170.8 L 3122.98,12102.1 L 3139.15,12107.3 L 3116.8,12176.1 Z " />
<path stroke="none" fill="#000000" transform="matrix(0.0833333 0 0 0.0833333 -217.175 -920.833)" d="M 3166.08,12192.1 L 3149.92,12186.9 L 3172.27,12118.1 L 3188.43,12123.4 L 3166.08,12192.1 Z " />
<path stroke="none" fill="#000000" transform="matrix(0.0833333 0 0 0.0833333 -217.175 -920.833)" d="M 3240.9,12378.2 L 3230.9,12391.9 L 3164.21,12343.4 L 3174.2,12329.7 L 3240.9,12378.2 Z " />
<path stroke="none" fill="#000000" transform="matrix(0.0833333 0 0 0.0833333 -217.175 -920.833)" d="M 3533.21,12266.6 L 3543.2,12269.8 L 3544.7,12279.2 L 3390.24,12391.6 L 3380.24,12377.9 L 3533.21,12266.6 Z " />
<path stroke="none" fill="#000000" transform="matrix(0.0833333 0 0 0.0833333 -217.175 -920.833)" d="M 3448.03,12004.5 L 3454.2,11996 L 3463.62,11997.5 L 3549.94,12263.1 L 3543.2,12269.8 L 3533.21,12266.6 L 3448.03,12004.5 Z " />
<path stroke="none" fill="#000000" transform="matrix(0.0833333 0 0 0.0833333 -217.175 -920.833)" d="M 3408.47,12050.5 L 3424.64,12045.2 L 3490.37,12247.4 L 3474.2,12252.7 L 3408.47,12050.5 Z " />
<text x="0" y="0" stroke="none" fill="#000000" transform="matrix(0.0833333 0 0 0.0833333 95.075 114.943)" font-style="normal" font-weight="normal" font-size="180px" font-family="Arial" >
O</text>
<path stroke="none" fill="#000000" transform="matrix(0.0833333 0 0 0.0833333 -217.175 -920.833)" d="M 3732.17,12322.3 L 3726.92,12338.5 L 3544.7,12279.2 L 3543.2,12269.8 L 3549.94,12263.1 L 3732.17,12322.3 Z " />
<text x="0" y="0" stroke="none" fill="#000000" transform="matrix(0.0833333 0 0 0.0833333 23.4014 65.293)" font-style="normal" font-weight="normal" font-size="180px" font-family="Arial" >
Ph</text>
<path stroke="none" fill="#000000" transform="matrix(0.0833333 0 0 0.0833333 -217.175 -920.833)" d="M 3075.71,11885.7 L 3089.46,11875.7 L 3109.91,11903.9 L 3096.16,11913.9 L 3075.71,11885.7 Z " />
<path stroke="none" fill="#000000" transform="matrix(0.0833333 0 0 0.0833333 -217.175 -920.833)" d="M 3209.5,11867.4 L 3286.5,11867.4 L 3286.5,11881.4 L 3209.5,11881.4 Z " />
<path stroke="none" fill="#000000" transform="matrix(0.0833333 0 0 0.0833333 -217.175 -920.833)" d="M 3255,11835.9 L 3255,11912.9 L 3241,11912.9 L 3241,11835.9 Z " />
<path stroke="none" fill="#000000" transform="matrix(0.0833333 0 0 0.0833333 -217.175 -920.833)" d="M 3881.9,12248.6 L 3958.9,12248.6 L 3958.9,12262.6 L 3881.9,12262.6 Z " />
<path stroke="none" fill="#000000" transform="matrix(0.0833333 0 0 0.0833333 -217.175 -920.833)" d="M 3619.61,11754 L 3627.59,11772 L 3463.62,11997.5 L 3454.2,11996 L 3449.87,11987.5 L 3619.61,11754 Z " />
<text x="0" y="0" stroke="none" fill="#000000" transform="matrix(0.0833333 0 0 0.0833333 103.242 67.8097)" font-style="normal" font-weight="normal" font-size="180px" font-family="Arial" >
N</text>
<path stroke="none" fill="#000000" transform="matrix(0.0833333 0 0 0.0833333 -217.175 -920.833)" d="M 3828.83,11776.1 L 3827.04,11793 L 3627.59,11772 L 3619.61,11754 L 3828.83,11776.1 Z " />
<path stroke="none" fill="#000000" transform="matrix(0.0833333 0 0 0.0833333 -217.175 -920.833)" d="M 4075.21,11551.3 L 4083.19,11569.2 L 3979.85,11711.5 L 3966.09,11701.5 L 4075.21,11551.3 Z " />
<text x="0" y="0" stroke="none" fill="#d90000" transform="matrix(0.0833333 0 0 0.0833333 142.042 50.893)" font-style="normal" font-weight="bold" font-size="180px" font-family="Arial" >
Fc</text>
<path stroke="none" fill="#000000" transform="matrix(0.0833333 0 0 0.0833333 -217.175 -920.833)" d="M 4294.3,11574.2 L 4292.53,11591.1 L 4083.19,11569.2 L 4075.21,11551.3 L 4294.3,11574.2 Z " />
<text x="0" y="0" stroke="none" fill="#000000" transform="matrix(0.0833333 0 0 0.0833333 113.008 89.7264)" font-style="normal" font-weight="normal" font-size="180px" font-family="Arial" >
R</text>
<path stroke="none" fill="#000000" transform="matrix(0.0833333 0 0 0.0833333 -217.175 -920.833)" d="M 3992.61,11957.7 L 3977.08,11964.6 L 3949.55,11902.9 L 3965.08,11895.9 L 3992.61,11957.7 Z " />
<text x="0" y="0" stroke="none" fill="#000000" transform="matrix(0.0833333 0 0 0.0833333 107.158 26.4597)" font-style="normal" font-weight="normal" font-size="180px" font-family="Arial" >
O</text>
<path stroke="none" fill="#000000" transform="matrix(0.0833333 0 0 0.0833333 -217.175 -920.833)" d="M 3973.2,11406.8 L 3988.73,11399.9 L 4069.37,11581 L 4053.84,11587.9 L 3973.2,11406.8 Z " />
<path stroke="none" fill="#000000" transform="matrix(0.0833333 0 0 0.0833333 -217.175 -920.833)" d="M 4020.57,11385.7 L 4036.1,11378.8 L 4116.74,11559.9 L 4101.21,11566.8 L 4020.57,11385.7 Z " />
<text x="0" y="0" stroke="none" fill="#000000" transform="matrix(0.0833333 0 0 0.0833333 353.811 48.7305)" font-style="normal" font-weight="normal" font-size="180px" font-family="Arial" >
N</text>
<text x="0" y="0" stroke="none" fill="#000000" transform="matrix(0.0833333 0 0 0.0833333 346.395 71.5472)" font-style="normal" font-weight="normal" font-size="180px" font-family="Arial" >
N</text>
<text x="0" y="0" stroke="none" fill="#000000" transform="matrix(0.0833333 0 0 0.0833333 365.395 85.6638)" font-style="normal" font-weight="normal" font-size="180px" font-family="Arial" >
O</text>
<path stroke="none" fill="#000000" transform="matrix(0.0833333 0 0 0.0833333 -217.175 -920.833)" d="M 6998.63,11572.8 L 6998.63,11555.8 L 7210.81,11555.8 L 7198.46,11572.8 L 6998.63,11572.8 Z " />
<path stroke="none" fill="#000000" transform="matrix(0.0833333 0 0 0.0833333 -217.175 -920.833)" d="M 6867.23,11744.3 L 6851.07,11739.1 L 6873.42,11670.3 L 6889.59,11675.6 L 6867.23,11744.3 Z " />
<path stroke="none" fill="#000000" transform="matrix(0.0833333 0 0 0.0833333 -217.175 -920.833)" d="M 6916.52,11760.4 L 6900.35,11755.1 L 6922.7,11686.4 L 6938.87,11691.6 L 6916.52,11760.4 Z " />
<path stroke="none" fill="#000000" transform="matrix(0.0833333 0 0 0.0833333 -217.175 -920.833)" d="M 6991.33,11946.4 L 6981.33,11960.2 L 6914.64,11911.7 L 6924.64,11897.9 L 6991.33,11946.4 Z " />
<path stroke="none" fill="#000000" transform="matrix(0.0833333 0 0 0.0833333 -217.175 -920.833)" d="M 7283.64,11834.8 L 7293.63,11838.1 L 7295.13,11847.5 L 7140.67,11959.9 L 7130.67,11946.1 L 7283.64,11834.8 Z " />
<path stroke="none" fill="#000000" transform="matrix(0.0833333 0 0 0.0833333 -217.175 -920.833)" d="M 7198.46,11572.8 L 7210.81,11555.8 L 7300.38,11831.3 L 7293.63,11838.1 L 7283.64,11834.8 L 7198.46,11572.8 Z " />
<path stroke="none" fill="#000000" transform="matrix(0.0833333 0 0 0.0833333 -217.175 -920.833)" d="M 7158.9,11618.7 L 7175.07,11613.5 L 7240.8,11815.7 L 7224.63,11820.9 L 7158.9,11618.7 Z " />
<text x="0" y="0" stroke="none" fill="#000000" transform="matrix(0.0833333 0 0 0.0833333 408.028 78.9638)" font-style="normal" font-weight="normal" font-size="180px" font-family="Arial" >
N</text>
<path stroke="none" fill="#000000" transform="matrix(0.0833333 0 0 0.0833333 -217.175 -920.833)" d="M 7476.98,11888.7 L 7471.73,11904.9 L 7295.13,11847.5 L 7293.63,11838.1 L 7300.38,11831.3 L 7476.98,11888.7 Z " />
<text x="0" y="0" stroke="none" fill="#000000" transform="matrix(0.0833333 0 0 0.0833333 339.695 29.3138)" font-style="normal" font-weight="normal" font-size="180px" font-family="Arial" >
R</text>
<path stroke="none" fill="#000000" transform="matrix(0.0833333 0 0 0.0833333 -217.175 -920.833)" d="M 6813.73,11436.9 L 6827.48,11426.9 L 6860.34,11472.1 L 6846.59,11482.1 L 6813.73,11436.9 Z " />
<path stroke="none" fill="#000000" transform="matrix(0.0833333 0 0 0.0833333 -217.175 -920.833)" d="M 7634.53,12202.1 L 7619.94,12215.2 L 7582.14,12037.2 L 7598.77,12033.7 L 7634.53,12202.1 Z " />
<path stroke="none" fill="#000000" transform="matrix(0.0833333 0 0 0.0833333 -217.175 -920.833)" d="M 7899.19,12288.1 L 7903.27,12307.3 L 7619.94,12215.2 L 7634.53,12202.1 L 7899.19,12288.1 Z " />
<text x="0" y="0" stroke="none" fill="#000000" transform="matrix(0.0833333 0 0 0.0833333 394.761 118.497)" font-style="normal" font-weight="normal" font-size="180px" font-family="Arial" >
O</text>
<path stroke="none" fill="#000000" transform="matrix(0.0833333 0 0 0.0833333 -217.175 -920.833)" d="M 7504.88,12365.2 L 7493.5,12352.6 L 7650.01,12211.6 L 7661.39,12224.2 L 7504.88,12365.2 Z " />
<path stroke="none" fill="#000000" transform="matrix(0.0833333 0 0 0.0833333 -217.175 -920.833)" d="M 7470.17,12326.7 L 7458.8,12314.1 L 7615.32,12173.1 L 7626.7,12185.7 L 7470.17,12326.7 Z " />
<text x="0" y="0" stroke="none" fill="#000000" transform="matrix(0.0833333 0 0 0.0833333 453.678 93.7972)" font-style="normal" font-weight="normal" font-size="180px" font-family="Arial" >
N</text>
<path stroke="none" fill="#000000" transform="matrix(0.0833333 0 0 0.0833333 -217.175 -920.833)" d="M 8022.84,12176.8 L 8034.22,12189.4 L 7903.27,12307.3 L 7899.19,12288.1 L 8022.84,12176.8 Z " />
<path stroke="none" fill="#000000" transform="matrix(0.0833333 0 0 0.0833333 -217.175 -920.833)" d="M 6959.93,11435.5 L 7036.93,11435.5 L 7036.93,11449.5 L 6959.93,11449.5 Z " />
<path stroke="none" fill="#000000" transform="matrix(0.0833333 0 0 0.0833333 -217.175 -920.833)" d="M 7005.43,11404 L 7005.43,11481 L 6991.43,11481 L 6991.43,11404 Z " />
<path stroke="none" fill="#000000" transform="matrix(0.0833333 0 0 0.0833333 -217.175 -920.833)" d="M 7604.73,11799.7 L 7681.73,11799.7 L 7681.73,11813.7 L 7604.73,11813.7 Z " />
<path stroke="none" fill="#000000" transform="matrix(0.0833333 0 0 0.0833333 -217.175 -920.833)" d="M 8387,12184.5 L 8391.07,12203.7 L 8205.17,12143.2 L 8210.43,12127.1 L 8387,12184.5 Z " />
<path stroke="none" fill="#000000" transform="matrix(0.0833333 0 0 0.0833333 -217.175 -920.833)" d="M 8047.12,11825 L 8063.75,11821.5 L 8103.21,12007.5 L 8086.58,12011 L 8047.12,11825 Z " />
<text x="0" y="0" stroke="none" fill="#d90000" transform="matrix(0.0833333 0 0 0.0833333 495.178 85.1638)" font-style="normal" font-weight="bold" font-size="180px" font-family="Arial" >
Fc</text>
<path stroke="none" fill="#000000" transform="matrix(0.0833333 0 0 0.0833333 -217.175 -920.833)" d="M 8518.34,12066.4 L 8529.7,12079 L 8391.07,12203.7 L 8387,12184.5 L 8518.34,12066.4 Z " />
<path stroke="none" fill="#000000" transform="matrix(0.0833333 0 0 0.0833333 -217.175 -920.833)" d="M 6469.69,12066.7 L 6037.43,12066.7 L 6037.43,12049.7 L 6469.69,12049.7 Z " />
<path stroke="none" fill="#000000" transform="matrix(0.0833333 0 0 0.0833333 -217.175 -920.833)" d="M 6617.43,12058.2 C 6617.43,12058.2 6447.44,12101.7 6447.44,12101.7 C 6447.44,12101.7 6468.69,12077.2 6468.69,12058.2 C 6468.69,12038.7 6447.44,12013.7 6447.44,12013.7 C 6447.44,12013.7 6617.43,12058.2 6617.43,12058.2 C 6617.43,12058.2 6617.43,12058.2 6617.43,12058.2 " />
<path stroke="#000000" stroke-width="1" fill="none" transform="matrix(0.0833333 0 0 0.0833333 -217.175 -920.833)" d="M 6617.43,12058.2 C 6617.43,12058.2 6447.44,12101.7 6447.44,12101.7 C 6447.44,12101.7 6468.69,12077.2 6468.69,12058.2 C 6468.69,12038.7 6447.44,12013.7 6447.44,12013.7 C 6447.44,12013.7 6617.43,12058.2 6617.43,12058.2 C 6617.43,12058.2 6617.43,12058.2 6617.43,12058.2 " />
<path stroke="none" fill="#000000" transform="matrix(0.0833333 0 0 0.0833333 -217.175 -920.833)" d="M 5128.21,12066.7 L 4695.96,12066.7 L 4695.96,12049.7 L 5128.21,12049.7 Z " />
<path stroke="none" fill="#000000" transform="matrix(0.0833333 0 0 0.0833333 -217.175 -920.833)" d="M 4548.21,12058.2 C 4548.21,12058.2 4718.21,12102.7 4718.21,12102.7 C 4718.21,12102.7 4696.96,12077.7 4696.96,12058.2 C 4696.96,12039.2 4718.21,12014.7 4718.21,12014.7 C 4718.21,12014.7 4548.21,12058.2 4548.21,12058.2 C 4548.21,12058.2 4548.21,12058.2 4548.21,12058.2 " />
<path stroke="#000000" stroke-width="1" fill="none" transform="matrix(0.0833333 0 0 0.0833333 -217.175 -920.833)" d="M 4548.21,12058.2 C 4548.21,12058.2 4718.21,12102.7 4718.21,12102.7 C 4718.21,12102.7 4696.96,12077.7 4696.96,12058.2 C 4696.96,12039.2 4718.21,12014.7 4718.21,12014.7 C 4718.21,12014.7 4548.21,12058.2 4548.21,12058.2 C 4548.21,12058.2 4548.21,12058.2 4548.21,12058.2 " />
<clipPath id="1" >
<path transform="matrix(0.0833333 0 0 0.0833333 -260 -887)" clip-rule="evenodd" d="M 3176.4,12324.5 C 3176.4,12324.5 3176.4,10803.5 3176.4,10803.5 C 3176.4,10747.2 3222.1,10701.5 3278.4,10701.5 C 3278.4,10701.5 9306.9,10701.5 9306.9,10701.5 C 9363.2,10701.5 9408.9,10747.2 9408.9,10803.5 C 9408.9,10803.5 9408.9,12324.5 9408.9,12324.5 C 9408.9,12380.8 9363.2,12426.5 9306.9,12426.5 C 9306.9,12426.5 3278.4,12426.5 3278.4,12426.5 C 3222.1,12426.5 3176.4,12380.8 3176.4,12324.5 M 3244.4,12392.5 C 3244.4,12392.5 3244.4,10871.5 3244.4,10871.5 C 3244.4,10815.2 3290.1,10769.5 3346.4,10769.5 C 3346.4,10769.5 9374.9,10769.5 9374.9,10769.5 C 9431.2,10769.5 9476.9,10815.2 9476.9,10871.5 C 9476.9,10871.5 9476.9,12392.5 9476.9,12392.5 C 9476.9,12448.8 9431.2,12494.5 9374.9,12494.5 C 9374.9,12494.5 3346.4,12494.5 3346.4,12494.5 C 3290.1,12494.5 3244.4,12448.8 3244.4,12392.5 " />
</clipPath>
<g clip-path="url(#1)" >
<path stroke="none" fill="#000000" transform="matrix(0.0833333 0 0 0.0833333 -259.917 -886.917)" fill-opacity="0.247059" d="M 3244.4,12392.5 C 3244.4,12392.5 3244.4,10871.5 3244.4,10871.5 C 3244.4,10815.2 3290.1,10769.5 3346.4,10769.5 C 3346.4,10769.5 9374.9,10769.5 9374.9,10769.5 C 9431.2,10769.5 9476.9,10815.2 9476.9,10871.5 C 9476.9,10871.5 9476.9,12392.5 9476.9,12392.5 C 9476.9,12448.8 9431.2,12494.5 9374.9,12494.5 C 9374.9,12494.5 3346.4,12494.5 3346.4,12494.5 C 3290.1,12494.5 3244.4,12448.8 3244.4,12392.5 " />
</g>
<path stroke="#000000" stroke-width="17" fill="none" transform="matrix(0.0833333 0 0 0.0833333 -217.175 -920.833)" d="M 2662.5,12730.5 C 2662.5,12730.5 2662.5,11209.5 2662.5,11209.5 C 2662.5,11153.2 2708.2,11107.5 2764.5,11107.5 C 2764.5,11107.5 8793,11107.5 8793,11107.5 C 8849.3,11107.5 8895,11153.2 8895,11209.5 C 8895,11209.5 8895,12730.5 8895,12730.5 C 8895,12786.8 8849.3,12832.5 8793,12832.5 C 8793,12832.5 2764.5,12832.5 2764.5,12832.5 C 2708.2,12832.5 2662.5,12786.8 2662.5,12730.5 " />
<text x="0" y="0" stroke="none" fill="#000000" transform="matrix(0.0833333 0 0 0.0833333 185.325 139.792)" font-style="normal" font-weight="normal" font-size="180px" font-family="Arial" >
FG </text>
<text x="0" y="0" stroke="none" fill="#000000" transform="matrix(0.0833333 0 0 0.0833333 210.327 139.792)" font-style="normal" font-weight="normal" font-size="180px" font-family="Symbol" >
-</text>
<text x="0" y="0" stroke="none" fill="#000000" transform="matrix(0.0833333 0 0 0.0833333 218.577 139.792)" font-style="normal" font-weight="normal" font-size="180px" font-family="Arial" >
 </text>
<text x="0" y="0" stroke="none" fill="#000000" transform="matrix(0.0833333 0 0 0.0833333 222.744 139.792)" font-style="normal" font-weight="normal" font-size="180px" font-family="Arial" >
functional </text>
<text x="0" y="0" stroke="none" fill="#000000" transform="matrix(0.0833333 0 0 0.0833333 291.125 139.792)" font-style="normal" font-weight="normal" font-size="180px" font-family="Arial" >
group</text>
</svg>
