<?xml version="1.0" standalone="no" ?>
<!DOCTYPE svg PUBLIC "-//W3C//DTD SVG 1.1//EN" "http://www.w3.org/Graphics/SVG/1.1/DTD/svg11.dtd">
<svg width="265px" height="168px" viewBox="0 0 265 168" style="background-color: #ffffff00" xmlns="http://www.w3.org/2000/svg" xmlns:xlink="http://www.w3.org/1999/xlink" version="1.1" >
<text x="0" y="0" stroke="none" fill="#000000" transform="matrix(0.0666667 0 0 0.0666667 15.6826 26.9723)" font-style="normal" font-weight="normal" font-size="140px" font-family="Arial" >
Si</text>
<path stroke="none" fill="#000000" transform="matrix(0.0666667 0 0 0.0666667 -94.1003 -162)" d="M 1628.74,2775.59 L 1628.74,2784.58 L 1465,2784.58 L 1465,2775.59 L 1628.74,2775.59 Z " />
<text x="0" y="0" stroke="none" fill="#000000" transform="matrix(0.0666667 0 0 0.0666667 15.932 10.7067)" font-style="normal" font-weight="normal" font-size="140px" font-family="Arial" >
Me</text>
<path stroke="none" fill="#000000" transform="matrix(0.0666667 0 0 0.0666667 -94.1003 -162)" d="M 1704.49,2616.93 L 1713.48,2616.93 L 1713.48,2709.59 L 1704.49,2709.59 L 1704.49,2616.93 Z " />
<text x="0" y="0" stroke="none" fill="#000000" transform="matrix(0.0666667 0 0 0.0666667 16.4653 43.238)" font-style="normal" font-weight="normal" font-size="140px" font-family="Arial" >
H</text>
<path stroke="none" fill="#000000" transform="matrix(0.0666667 0 0 0.0666667 -94.1003 -162)" d="M 1713.48,2955.9 L 1704.49,2955.9 L 1704.49,2860.59 L 1713.48,2860.59 L 1713.48,2955.9 Z " />
<text x="0" y="0" stroke="none" fill="#000000" transform="matrix(0.0666667 0 0 0.0666667 32.4643 26.9723)" font-style="normal" font-weight="normal" font-size="140px" font-family="Arial" >
O</text>
<path stroke="none" fill="#000000" transform="matrix(0.0666667 0 0 0.0666667 -94.1003 -162)" d="M 1880.47,2775.59 L 1880.47,2784.58 L 1785.74,2784.58 L 1785.74,2775.59 L 1880.47,2775.59 Z " />
<path stroke="none" fill="#000000" transform="matrix(0.0666667 0 0 0.0666667 -94.1003 -162)" d="M 2196.95,2775.59 L 2196.95,2784.58 L 2025.47,2784.58 L 2025.47,2775.59 L 2196.95,2775.59 Z " />
<path stroke="#000000" stroke-width="9" fill="none" transform="matrix(0.0666667 0 0 0.0666667 -94.1003 -162)" d="M 2104.95,2645.09 L 2125,2645.09 " />
<path stroke="#000000" stroke-width="9" fill="none" transform="matrix(0.0666667 0 0 0.0666667 -94.1003 -162)" d="M 2125,2645.09 L 2125,2915.09 " />
<path stroke="#000000" stroke-width="9" fill="none" transform="matrix(0.0666667 0 0 0.0666667 -94.1003 -162)" d="M 2125,2915.09 L 2104.95,2915.09 " />
<path stroke="#000000" stroke-width="9" fill="none" transform="matrix(0.0666667 0 0 0.0666667 -94.1003 -162)" d="M 1560.05,2915.09 L 1540,2915.09 " />
<path stroke="#000000" stroke-width="9" fill="none" transform="matrix(0.0666667 0 0 0.0666667 -94.1003 -162)" d="M 1540,2915.09 L 1540,2645.09 " />
<path stroke="#000000" stroke-width="9" fill="none" transform="matrix(0.0666667 0 0 0.0666667 -94.1003 -162)" d="M 1540,2645.09 L 1560.05,2645.09 " />
<text x="0" y="0" stroke="none" fill="#000000" transform="matrix(0.0666667 0 0 0.0666667 50.233 33.4057)" font-style="normal" font-weight="normal" font-size="105px" font-family="Arial" >
25-35</text>
<text x="0" y="0" stroke="none" fill="#000000" transform="matrix(0.0666667 0 0 0.0666667 72.533 26.0501)" font-style="normal" font-weight="normal" font-size="140px" font-family="Arial" >
+ </text>
<text x="0" y="0" stroke="none" fill="#000000" transform="matrix(0.0666667 0 0 0.0666667 80.5997 26.0501)" font-style="normal" font-weight="normal" font-size="140px" font-family="Arial" >
 </text>
<text x="0" y="0" stroke="none" fill="#000000" transform="matrix(0.0666667 0 0 0.0666667 83.1997 26.0501)" font-style="normal" font-weight="normal" font-size="140px" font-family="Arial" >
0.5 </text>
<text x="0" y="0" stroke="none" fill="#000000" transform="matrix(0.0666667 0 0 0.0666667 98.7997 26.0501)" font-style="normal" font-weight="normal" font-size="140px" font-family="Arial" >
C</text>
<text x="0" y="0" stroke="none" fill="#000000" transform="matrix(0.0666667 0 0 0.0666667 105.54 28.1168)" font-style="normal" font-weight="normal" font-size="105px" font-family="Arial" >
10</text>
<text x="0" y="0" stroke="none" fill="#000000" transform="matrix(0.0666667 0 0 0.0666667 113.34 26.0501)" font-style="normal" font-weight="normal" font-size="140px" font-family="Arial" >
H</text>
<text x="0" y="0" stroke="none" fill="#000000" transform="matrix(0.0666667 0 0 0.0666667 120.08 28.1168)" font-style="normal" font-weight="normal" font-size="105px" font-family="Arial" >
25</text>
<text x="0" y="0" stroke="none" fill="#000000" transform="matrix(0.0666667 0 0 0.0666667 127.88 26.0501)" font-style="normal" font-weight="normal" font-size="140px" font-family="Arial" >
 </text>
<text x="0" y="0" stroke="none" fill="#000000" transform="matrix(0.0666667 0 0 0.0666667 130.48 26.0501)" font-style="normal" font-weight="normal" font-size="140px" font-family="Arial" >
 </text>
<text x="0" y="0" stroke="none" fill="#000000" transform="matrix(0.0666667 0 0 0.0666667 133.08 26.0501)" font-style="normal" font-weight="normal" font-size="140px" font-family="Arial" >
+ </text>
<text x="0" y="0" stroke="none" fill="#000000" transform="matrix(0.0666667 0 0 0.0666667 141.147 26.0501)" font-style="normal" font-weight="normal" font-size="140px" font-family="Arial" >
 </text>
<text x="0" y="0" stroke="none" fill="#000000" transform="matrix(0.0666667 0 0 0.0666667 143.747 26.0501)" font-style="normal" font-weight="normal" font-size="140px" font-family="Arial" >
0.5</text>
<path stroke="none" fill="#000000" transform="matrix(0.0666667 0 0 0.0666667 -94.1003 -162)" d="M 4021.3,2943.05 L 4021.3,2953.43 L 3807.75,2830.14 L 3812.25,2822.36 L 4021.3,2943.05 Z " />
<path stroke="none" fill="#000000" transform="matrix(0.0666667 0 0 0.0666667 -94.1003 -162)" d="M 4023.54,2888 L 4019.05,2895.78 L 3832.15,2787.88 L 3836.64,2780.1 L 4023.54,2888 Z " />
<path stroke="none" fill="#000000" transform="matrix(0.0666667 0 0 0.0666667 -94.1003 -162)" d="M 4232.59,2821.06 L 4232.59,2831.43 L 4021.3,2953.43 L 4021.3,2943.05 L 4232.59,2821.06 Z " />
<text x="0" y="0" stroke="none" fill="#000000" transform="matrix(0.0666667 0 0 0.0666667 184.439 13.7842)" font-style="normal" font-weight="normal" font-size="140px" font-family="Arial" >
O</text>
<path stroke="none" fill="#000000" transform="matrix(0.0666667 0 0 0.0666667 -94.1003 -162)" d="M 4203.7,2662.76 L 4212.69,2662.76 L 4212.69,2840.33 L 4203.7,2840.33 L 4203.7,2662.76 Z " />
<path stroke="none" fill="#000000" transform="matrix(0.0666667 0 0 0.0666667 -94.1003 -162)" d="M 4252.5,2662.76 L 4261.48,2662.76 L 4261.48,2840.33 L 4252.5,2840.33 L 4252.5,2662.76 Z " />
<text x="0" y="0" stroke="none" fill="#000000" transform="matrix(0.0666667 0 0 0.0666667 198.526 38.1827)" font-style="normal" font-weight="normal" font-size="140px" font-family="Arial" >
O</text>
<path stroke="none" fill="#000000" transform="matrix(0.0666667 0 0 0.0666667 -94.1003 -162)" d="M 4384.17,2908.57 L 4379.67,2916.35 L 4232.59,2831.43 L 4232.59,2821.06 L 4384.17,2908.57 Z " />
<path stroke="none" fill="#000000" transform="matrix(0.0666667 0 0 0.0666667 -94.1003 -162)" d="M 4650.69,2823.65 L 4655.19,2826.25 L 4655.19,2831.43 L 4508.34,2916.22 L 4503.85,2908.44 L 4650.69,2823.65 Z " />
<text x="0" y="0" stroke="none" fill="#000000" transform="matrix(0.0666667 0 0 0.0666667 212.879 13.7842)" font-style="normal" font-weight="normal" font-size="140px" font-family="Arial" >
CF</text>
<text x="0" y="0" stroke="none" fill="#000000" transform="matrix(0.0666667 0 0 0.0666667 225.352 15.8509)" font-style="normal" font-weight="normal" font-size="105px" font-family="Arial" >
3</text>
<path stroke="none" fill="#000000" transform="matrix(0.0666667 0 0 0.0666667 -94.1003 -162)" d="M 4650.69,2664.76 L 4659.68,2664.76 L 4659.68,2823.65 L 4655.19,2826.25 L 4650.69,2823.65 L 4650.69,2664.76 Z " />
<text x="0" y="0" stroke="none" fill="#000000" transform="matrix(0.0666667 0 0 0.0666667 226.965 38.1827)" font-style="normal" font-weight="normal" font-size="140px" font-family="Arial" >
CF</text>
<text x="0" y="0" stroke="none" fill="#000000" transform="matrix(0.0666667 0 0 0.0666667 239.439 40.2493)" font-style="normal" font-weight="normal" font-size="105px" font-family="Arial" >
3</text>
<path stroke="none" fill="#000000" transform="matrix(0.0666667 0 0 0.0666667 -94.1003 -162)" d="M 4809.53,2910.17 L 4805.04,2917.95 L 4655.19,2831.43 L 4655.19,2826.25 L 4659.68,2823.65 L 4809.53,2910.17 Z " />
<text x="0" y="0" stroke="none" fill="#000000" transform="matrix(0.0666667 0 0 0.0666667 63.5664 74)" font-style="normal" font-weight="normal" font-size="120px" font-family="Arial" >
Pt </text>
<text x="0" y="0" stroke="none" fill="#000000" transform="matrix(0.0666667 0 0 0.0666667 73.3476 74)" font-style="normal" font-weight="normal" font-size="120px" font-family="Arial" >
cat., </text>
<text x="0" y="0" stroke="none" fill="#000000" transform="matrix(0.0666667 0 0 0.0666667 90.7049 74)" font-style="normal" font-weight="normal" font-size="120px" font-family="Arial" >
t</text>
<text x="0" y="0" stroke="none" fill="#000000" transform="matrix(0.0666667 0 0 0.0666667 117.683 81.801)" font-style="normal" font-weight="normal" font-size="140px" font-family="Arial" >
Si</text>
<path stroke="none" fill="#000000" transform="matrix(0.0666667 0 0 0.0666667 -94.1003 -162)" d="M 3158.74,3598.02 L 3158.74,3607.01 L 2995,3607.01 L 2995,3598.02 L 3158.74,3598.02 Z " />
<text x="0" y="0" stroke="none" fill="#000000" transform="matrix(0.0666667 0 0 0.0666667 117.932 65.5354)" font-style="normal" font-weight="normal" font-size="140px" font-family="Arial" >
Me</text>
<path stroke="none" fill="#000000" transform="matrix(0.0666667 0 0 0.0666667 -94.1003 -162)" d="M 3234.49,3439.36 L 3243.48,3439.36 L 3243.48,3532.02 L 3234.49,3532.02 L 3234.49,3439.36 Z " />
<text x="0" y="0" stroke="none" fill="#000000" transform="matrix(0.0666667 0 0 0.0666667 118.465 98.0667)" font-style="normal" font-weight="normal" font-size="140px" font-family="Arial" >
C</text>
<text x="0" y="0" stroke="none" fill="#000000" transform="matrix(0.0666667 0 0 0.0666667 125.206 100.133)" font-style="normal" font-weight="normal" font-size="105px" font-family="Arial" >
10</text>
<text x="0" y="0" stroke="none" fill="#000000" transform="matrix(0.0666667 0 0 0.0666667 133.006 98.0667)" font-style="normal" font-weight="normal" font-size="140px" font-family="Arial" >
H</text>
<text x="0" y="0" stroke="none" fill="#000000" transform="matrix(0.0666667 0 0 0.0666667 139.746 100.133)" font-style="normal" font-weight="normal" font-size="105px" font-family="Arial" >
21</text>
<path stroke="none" fill="#000000" transform="matrix(0.0666667 0 0 0.0666667 -94.1003 -162)" d="M 3243.48,3776 L 3234.49,3776 L 3234.49,3683.02 L 3243.48,3683.02 L 3243.48,3776 Z " />
<text x="0" y="0" stroke="none" fill="#000000" transform="matrix(0.0666667 0 0 0.0666667 134.464 81.801)" font-style="normal" font-weight="normal" font-size="140px" font-family="Arial" >
O</text>
<path stroke="none" fill="#000000" transform="matrix(0.0666667 0 0 0.0666667 -94.1003 -162)" d="M 3410.47,3598.02 L 3410.47,3607.01 L 3315.74,3607.01 L 3315.74,3598.02 L 3410.47,3598.02 Z " />
<text x="0" y="0" stroke="none" fill="#000000" transform="matrix(0.0666667 0 0 0.0666667 165.547 81.801)" font-style="normal" font-weight="normal" font-size="140px" font-family="Arial" >
Si</text>
<path stroke="none" fill="#000000" transform="matrix(0.0666667 0 0 0.0666667 -94.1003 -162)" d="M 3876.71,3598.02 L 3876.71,3607.01 L 3555.47,3607.01 L 3555.47,3598.02 L 3876.71,3598.02 Z " />
<path stroke="#000000" stroke-width="9" fill="none" transform="matrix(0.0666667 0 0 0.0666667 -94.1003 -162)" d="M 3634.95,3467.52 L 3655,3467.52 " />
<path stroke="#000000" stroke-width="9" fill="none" transform="matrix(0.0666667 0 0 0.0666667 -94.1003 -162)" d="M 3655,3467.52 L 3655,3737.52 " />
<path stroke="#000000" stroke-width="9" fill="none" transform="matrix(0.0666667 0 0 0.0666667 -94.1003 -162)" d="M 3655,3737.52 L 3634.95,3737.52 " />
<path stroke="#000000" stroke-width="9" fill="none" transform="matrix(0.0666667 0 0 0.0666667 -94.1003 -162)" d="M 3090.05,3737.52 L 3070,3737.52 " />
<path stroke="#000000" stroke-width="9" fill="none" transform="matrix(0.0666667 0 0 0.0666667 -94.1003 -162)" d="M 3070,3737.52 L 3070,3467.52 " />
<path stroke="#000000" stroke-width="9" fill="none" transform="matrix(0.0666667 0 0 0.0666667 -94.1003 -162)" d="M 3070,3467.52 L 3090.05,3467.52 " />
<text x="0" y="0" stroke="none" fill="#000000" transform="matrix(0.0666667 0 0 0.0666667 182.329 81.801)" font-style="normal" font-weight="normal" font-size="140px" font-family="Arial" >
O</text>
<path stroke="none" fill="#000000" transform="matrix(0.0666667 0 0 0.0666667 -94.1003 -162)" d="M 4128.44,3598.02 L 4128.44,3607.01 L 4033.71,3607.01 L 4033.71,3598.02 L 4128.44,3598.02 Z " />
<text x="0" y="0" stroke="none" fill="#000000" transform="matrix(0.0666667 0 0 0.0666667 165.797 65.5354)" font-style="normal" font-weight="normal" font-size="140px" font-family="Arial" >
Me</text>
<path stroke="none" fill="#000000" transform="matrix(0.0666667 0 0 0.0666667 -94.1003 -162)" d="M 3952.46,3439.36 L 3961.45,3439.36 L 3961.45,3532.02 L 3952.46,3532.02 L 3952.46,3439.36 Z " />
<path stroke="none" fill="#000000" transform="matrix(0.0666667 0 0 0.0666667 -94.1003 -162)" d="M 3961.45,3845.24 L 3952.46,3847.76 L 3952.46,3683.02 L 3961.45,3683.02 L 3961.45,3845.24 Z " />
<path stroke="none" fill="#000000" transform="matrix(0.0666667 0 0 0.0666667 -94.1003 -162)" d="M 4479.92,3598.02 L 4479.92,3607.01 L 4273.44,3607.01 L 4273.44,3598.02 L 4479.92,3598.02 Z " />
<path stroke="none" fill="#000000" transform="matrix(0.0666667 0 0 0.0666667 -94.1003 -162)" d="M 4055.24,3999.98 L 4044.76,4000.02 L 3952.46,3847.76 L 3961.45,3845.24 L 4055.24,3999.98 Z " />
<path stroke="none" fill="#000000" transform="matrix(0.0666667 0 0 0.0666667 -94.1003 -162)" d="M 3947.26,4181.42 L 3936.65,4181.67 L 4044.76,4000.02 L 4055.24,3999.98 L 3947.26,4181.42 Z " />
<text x="0" y="0" stroke="none" fill="#000000" transform="matrix(0.0666667 0 0 0.0666667 148.798 120.403)" font-style="normal" font-weight="normal" font-size="140px" font-family="Arial" >
O</text>
<path stroke="none" fill="#000000" transform="matrix(0.0666667 0 0 0.0666667 -94.1003 -162)" d="M 3770.47,4210.44 L 3770.47,4201.45 L 3958.1,4201.45 L 3958.1,4210.44 L 3770.47,4210.44 Z " />
<path stroke="none" fill="#000000" transform="matrix(0.0666667 0 0 0.0666667 -94.1003 -162)" d="M 3770.47,4161.64 L 3770.47,4152.66 L 3956.47,4152.66 L 3956.47,4161.64 L 3770.47,4161.64 Z " />
<text x="0" y="0" stroke="none" fill="#000000" transform="matrix(0.0666667 0 0 0.0666667 173.6 133.3)" font-style="normal" font-weight="normal" font-size="140px" font-family="Arial" >
O</text>
<path stroke="none" fill="#000000" transform="matrix(0.0666667 0 0 0.0666667 -94.1003 -162)" d="M 4034.31,4312.94 L 4026.82,4317.9 L 3936.65,4181.67 L 3947.26,4181.42 L 4034.31,4312.94 Z " />
<path stroke="none" fill="#000000" transform="matrix(0.0666667 0 0 0.0666667 -94.1003 -162)" d="M 3976.97,4601.3 L 3971.95,4601.59 L 3969,4597.1 L 4033.22,4448.69 L 4041.46,4452.26 L 3976.97,4601.3 Z " />
<text x="0" y="0" stroke="none" fill="#000000" transform="matrix(0.0666667 0 0 0.0666667 141.424 148.406)" font-style="normal" font-weight="normal" font-size="140px" font-family="Arial" >
F</text>
<text x="0" y="0" stroke="none" fill="#000000" transform="matrix(0.0666667 0 0 0.0666667 147.157 150.473)" font-style="normal" font-weight="normal" font-size="105px" font-family="Arial" >
3</text>
<text x="0" y="0" stroke="none" fill="#000000" transform="matrix(0.0666667 0 0 0.0666667 151.057 148.406)" font-style="normal" font-weight="normal" font-size="140px" font-family="Arial" >
C</text>
<path stroke="none" fill="#000000" transform="matrix(0.0666667 0 0 0.0666667 -94.1003 -162)" d="M 3797.87,4606.08 L 3797.87,4597.1 L 3969,4597.1 L 3971.95,4601.59 L 3969.36,4606.08 L 3797.87,4606.08 Z " />
<text x="0" y="0" stroke="none" fill="#000000" transform="matrix(0.0666667 0 0 0.0666667 175.463 162.493)" font-style="normal" font-weight="normal" font-size="140px" font-family="Arial" >
CF</text>
<text x="0" y="0" stroke="none" fill="#000000" transform="matrix(0.0666667 0 0 0.0666667 187.936 164.559)" font-style="normal" font-weight="normal" font-size="105px" font-family="Arial" >
3</text>
<path stroke="none" fill="#000000" transform="matrix(0.0666667 0 0 0.0666667 -94.1003 -162)" d="M 4063.11,4750.49 L 4055.33,4754.98 L 3969.36,4606.08 L 3971.95,4601.59 L 3976.97,4601.3 L 4063.11,4750.49 Z " />
<path stroke="#000000" stroke-width="9" fill="none" transform="matrix(0.0666667 0 0 0.0666667 -94.1003 -162)" d="M 4349.95,3462.52 L 4370,3462.52 " />
<path stroke="#000000" stroke-width="9" fill="none" transform="matrix(0.0666667 0 0 0.0666667 -94.1003 -162)" d="M 4370,3462.52 L 4370,3732.52 " />
<path stroke="#000000" stroke-width="9" fill="none" transform="matrix(0.0666667 0 0 0.0666667 -94.1003 -162)" d="M 4370,3732.52 L 4349.95,3732.52 " />
<path stroke="#000000" stroke-width="9" fill="none" transform="matrix(0.0666667 0 0 0.0666667 -94.1003 -162)" d="M 3805.05,3732.52 L 3785,3732.52 " />
<path stroke="#000000" stroke-width="9" fill="none" transform="matrix(0.0666667 0 0 0.0666667 -94.1003 -162)" d="M 3785,3732.52 L 3785,3462.52 " />
<path stroke="#000000" stroke-width="9" fill="none" transform="matrix(0.0666667 0 0 0.0666667 -94.1003 -162)" d="M 3785,3462.52 L 3805.05,3462.52 " />
<path stroke="none" fill="#000000" transform="matrix(0.0666667 0 0 0.0666667 -94.1003 -162)" d="M 5267.39,2783.25 L 5070,2783.25 L 5070,2774.25 L 5267.39,2774.25 Z " />
<path stroke="none" fill="#000000" transform="matrix(0.0666667 0 0 0.0666667 -94.1003 -162)" d="M 5345,2778.75 C 5345,2778.75 5255.16,2802.21 5255.16,2802.21 C 5255.16,2802.21 5266.39,2789.02 5266.39,2778.75 C 5266.39,2768.05 5255.16,2754.29 5255.16,2754.29 C 5255.16,2754.29 5345,2778.75 5345,2778.75 C 5345,2778.75 5345,2778.75 5345,2778.75 " />
<path stroke="#000000" stroke-width="1" fill="none" transform="matrix(0.0666667 0 0 0.0666667 -94.1003 -162)" d="M 5345,2778.75 C 5345,2778.75 5255.16,2802.21 5255.16,2802.21 C 5255.16,2802.21 5266.39,2789.02 5266.39,2778.75 C 5266.39,2768.05 5255.16,2754.29 5255.16,2754.29 C 5255.16,2754.29 5345,2778.75 5345,2778.75 C 5345,2778.75 5345,2778.75 5345,2778.75 " />
<path stroke="none" fill="#000000" transform="matrix(0.0666667 0 0 0.0666667 -94.1003 -162)" d="M 2821.38,3609.5 L 2325,3609.5 L 2325,3600.5 L 2821.38,3600.5 Z " />
<path stroke="none" fill="#000000" transform="matrix(0.0666667 0 0 0.0666667 -94.1003 -162)" d="M 2898.99,3605 C 2898.99,3605 2809.15,3628.46 2809.15,3628.46 C 2809.15,3628.46 2820.38,3615.26 2820.38,3605 C 2820.38,3594.3 2809.15,3580.54 2809.15,3580.54 C 2809.15,3580.54 2898.99,3605 2898.99,3605 C 2898.99,3605 2898.99,3605 2898.99,3605 " />
<path stroke="#000000" stroke-width="1" fill="none" transform="matrix(0.0666667 0 0 0.0666667 -94.1003 -162)" d="M 2898.99,3605 C 2898.99,3605 2809.15,3628.46 2809.15,3628.46 C 2809.15,3628.46 2820.38,3615.26 2820.38,3605 C 2820.38,3594.3 2809.15,3580.54 2809.15,3580.54 C 2809.15,3580.54 2898.99,3605 2898.99,3605 C 2898.99,3605 2898.99,3605 2898.99,3605 " />
</svg>
