<?xml version="1.0" standalone="no" ?>
<!DOCTYPE svg PUBLIC "-//W3C//DTD SVG 1.1//EN" "http://www.w3.org/Graphics/SVG/1.1/DTD/svg11.dtd">
<svg width="204px" height="99px" viewBox="0 0 204 99" style="background-color: #ffffff00" xmlns="http://www.w3.org/2000/svg" xmlns:xlink="http://www.w3.org/1999/xlink" version="1.1" >
<text x="0" y="0" stroke="none" fill="#000000" transform="matrix(0.0666667 0 0 0.0666667 170.855 77.2485)" font-style="normal" font-weight="normal" font-size="140px" font-family="Arial" >
79%</text>
<path stroke="none" fill="#000000" transform="matrix(0.0666667 0 0 0.0666667 -193 -355)" d="M 3173.34,6277.64 L 3168.15,6286.62 L 3043.56,6070.83 L 3053.94,6070.83 L 3173.34,6277.64 Z " />
<path stroke="none" fill="#000000" transform="matrix(0.0666667 0 0 0.0666667 -193 -355)" d="M 3202.81,6231.09 L 3195.02,6235.58 L 3101.21,6073.08 L 3108.99,6068.59 L 3202.81,6231.09 Z " />
<path stroke="none" fill="#000000" transform="matrix(0.0666667 0 0 0.0666667 -193 -355)" d="M 3412.13,6277.64 L 3414.73,6282.13 L 3412.13,6286.62 L 3168.15,6286.62 L 3173.34,6277.64 L 3412.13,6277.64 Z " />
<path stroke="none" fill="#000000" transform="matrix(0.0666667 0 0 0.0666667 -193 -355)" d="M 3531.53,6070.83 L 3536.72,6070.83 L 3539.31,6075.32 L 3419.91,6282.13 L 3414.73,6282.13 L 3412.13,6277.64 L 3531.53,6070.83 Z " />
<path stroke="none" fill="#000000" transform="matrix(0.0666667 0 0 0.0666667 -193 -355)" d="M 3476.48,6068.59 L 3484.26,6073.08 L 3390.44,6235.58 L 3382.66,6231.09 L 3476.48,6068.59 Z " />
<path stroke="none" fill="#000000" transform="matrix(0.0666667 0 0 0.0666667 -193 -355)" d="M 3412.13,5864.03 L 3414.73,5859.54 L 3419.91,5859.54 L 3539.31,6066.34 L 3536.72,6070.83 L 3531.53,6070.83 L 3412.13,5864.03 Z " />
<path stroke="none" fill="#000000" transform="matrix(0.0666667 0 0 0.0666667 -193 -355)" d="M 3173.34,5864.03 L 3168.15,5855.04 L 3412.13,5855.04 L 3414.73,5859.54 L 3412.13,5864.03 L 3173.34,5864.03 Z " />
<path stroke="none" fill="#000000" transform="matrix(0.0666667 0 0 0.0666667 -193 -355)" d="M 3198.92,5912.82 L 3198.92,5903.84 L 3386.55,5903.84 L 3386.55,5912.82 L 3198.92,5912.82 Z " />
<path stroke="none" fill="#000000" transform="matrix(0.0666667 0 0 0.0666667 -193 -355)" d="M 3053.94,6070.83 L 3043.56,6070.83 L 3168.15,5855.04 L 3173.34,5864.03 L 3053.94,6070.83 Z " />
<text x="0" y="0" stroke="none" fill="#000000" transform="matrix(0.0666667 0 0 0.0666667 39.1476 81.5284)" font-style="normal" font-weight="normal" font-size="140px" font-family="Arial" >
O</text>
<path stroke="none" fill="#000000" transform="matrix(0.0666667 0 0 0.0666667 -193 -355)" d="M 3505,6429.5 L 3497.22,6433.99 L 3412.13,6286.62 L 3414.73,6282.13 L 3419.91,6282.13 L 3505,6429.5 Z " />
<text x="0" y="0" stroke="none" fill="#000000" transform="matrix(0.0666667 0 0 0.0666667 24.2481 95.6148)" font-style="normal" font-weight="normal" font-size="140px" font-family="Arial" >
Me</text>
<path stroke="none" fill="#000000" transform="matrix(0.0666667 0 0 0.0666667 -193 -355)" d="M 3441.07,6668.08 L 3433.29,6663.59 L 3492.04,6561.83 L 3499.82,6566.32 L 3441.07,6668.08 Z " />
<text x="0" y="0" stroke="none" fill="#000000" transform="matrix(0.0666667 0 0 0.0666667 39.1476 25.1826)" font-style="normal" font-weight="normal" font-size="140px" font-family="Arial" >
O</text>
<path stroke="none" fill="#000000" transform="matrix(0.0666667 0 0 0.0666667 -193 -355)" d="M 3492.04,5716.65 L 3499.82,5721.14 L 3419.91,5859.54 L 3414.73,5859.54 L 3412.13,5855.04 L 3492.04,5716.65 Z " />
<text x="0" y="0" stroke="none" fill="#000000" transform="matrix(0.0666667 0 0 0.0666667 24.2481 11.0962)" font-style="normal" font-weight="normal" font-size="140px" font-family="Arial" >
Me</text>
<path stroke="none" fill="#000000" transform="matrix(0.0666667 0 0 0.0666667 -193 -355)" d="M 3451.03,5508.81 L 3458.81,5504.32 L 3505,5584.31 L 3497.22,5588.8 L 3451.03,5508.81 Z " />
<text x="0" y="0" stroke="none" fill="#ff0000" transform="matrix(0.0666667 0 0 0.0666667 55.9466 53.3555)" font-style="normal" font-weight="normal" font-size="140px" font-family="Arial" >
Sb</text>
<path stroke="none" fill="#000000" transform="matrix(0.0666667 0 0 0.0666667 -193 -355)" d="M 3716.2,6066.34 L 3716.2,6075.32 L 3539.31,6075.32 L 3536.72,6070.83 L 3539.31,6066.34 L 3716.2,6066.34 Z " />
<path stroke="none" fill="#000000" transform="matrix(0.0666667 0 0 0.0666667 -193 -355)" d="M 5118.4,6070.24 L 3985.67,6070.24 L 3985.67,6061.24 L 5118.4,6061.24 Z " />
<path stroke="none" fill="#000000" transform="matrix(0.0666667 0 0 0.0666667 -193 -355)" d="M 5196.02,6065.74 C 5196.02,6065.74 5106.17,6089.2 5106.17,6089.2 C 5106.17,6089.2 5117.4,6076.01 5117.4,6065.74 C 5117.4,6055.04 5106.17,6041.28 5106.17,6041.28 C 5106.17,6041.28 5196.02,6065.74 5196.02,6065.74 C 5196.02,6065.74 5196.02,6065.74 5196.02,6065.74 " />
<path stroke="#000000" stroke-width="1" fill="none" transform="matrix(0.0666667 0 0 0.0666667 -193 -355)" d="M 5196.02,6065.74 C 5196.02,6065.74 5106.17,6089.2 5106.17,6089.2 C 5106.17,6089.2 5117.4,6076.01 5117.4,6065.74 C 5117.4,6055.04 5106.17,6041.28 5106.17,6041.28 C 5106.17,6041.28 5196.02,6065.74 5196.02,6065.74 C 5196.02,6065.74 5196.02,6065.74 5196.02,6065.74 " />
<text x="0" y="0" stroke="none" fill="#0000ff" transform="matrix(0.0666667 0 0 0.0666667 74.1094 43.1329)" font-style="normal" font-weight="normal" font-size="140px" font-family="Arial" >
HCl</text>
<text x="0" y="0" stroke="none" fill="#000000" transform="matrix(0.0666667 0 0 0.0666667 89.6635 43.1329)" font-style="normal" font-weight="normal" font-size="140px" font-family="Arial" >
, </text>
<text x="0" y="0" stroke="none" fill="#8000ff" transform="matrix(0.0666667 0 0 0.0666667 94.8635 43.1329)" font-style="normal" font-weight="normal" font-size="140px" font-family="Arial" >
H</text>
<text x="0" y="0" stroke="none" fill="#8000ff" transform="matrix(0.0666667 0 0 0.0666667 101.604 45.1996)" font-style="normal" font-weight="normal" font-size="105px" font-family="Arial" >
2</text>
<text x="0" y="0" stroke="none" fill="#8000ff" transform="matrix(0.0666667 0 0 0.0666667 105.504 43.1329)" font-style="normal" font-weight="normal" font-size="140px" font-family="Arial" >
O</text>
<text x="0" y="0" stroke="none" fill="#000000" transform="matrix(0.0666667 0 0 0.0666667 112.77 43.1329)" font-style="normal" font-weight="normal" font-size="140px" font-family="Arial" >
, </text>
<text x="0" y="0" stroke="none" fill="#008000" transform="matrix(0.0666667 0 0 0.0666667 117.97 43.1329)" font-style="normal" font-weight="normal" font-size="140px" font-family="Arial" >
DMSO</text>
<text x="0" y="0" stroke="none" fill="#ff0000" transform="matrix(0.0666667 0 0 0.0666667 164.151 44.6171)" font-style="normal" font-weight="normal" font-size="140px" font-family="Arial" >
Sb</text>
<text x="0" y="0" stroke="none" fill="#008000" transform="matrix(0.0666667 0 0 0.0666667 169.61 28.3514)" font-style="normal" font-weight="normal" font-size="140px" font-family="Arial" >
DMSO</text>
<path stroke="none" fill="#008000" transform="matrix(0.0666667 0 0 0.0666667 -193 -355)" d="M 5485.16,5776.27 L 5494.14,5776.27 L 5494.14,5871.26 L 5485.16,5871.26 L 5485.16,5776.27 Z " />
<text x="0" y="0" stroke="none" fill="#0000ff" transform="matrix(0.0666667 0 0 0.0666667 169.61 60.8827)" font-style="normal" font-weight="normal" font-size="140px" font-family="Arial" >
Cl</text>
<path stroke="none" fill="#0000ff" transform="matrix(0.0666667 0 0 0.0666667 -193 -355)" d="M 5494.14,6113.24 L 5485.16,6113.24 L 5485.16,6022.26 L 5494.14,6022.26 L 5494.14,6113.24 Z " />
<path stroke="none" fill="#000000" transform="matrix(0.0666667 0 0 0.0666667 -193 -355)" d="M 5280.6,6065.64 L 5276.11,6057.86 L 5303.13,6042.25 L 5307.62,6050.04 L 5280.6,6065.64 Z " />
<path stroke="none" fill="#000000" transform="matrix(0.0666667 0 0 0.0666667 -193 -355)" d="M 5334.65,6034.43 L 5330.16,6026.65 L 5357.18,6011.05 L 5361.67,6018.83 L 5334.65,6034.43 Z " />
<text x="0" y="0" stroke="none" fill="#8000ff" transform="matrix(0.0666667 0 0 0.0666667 183.429 52.7499)" font-style="normal" font-weight="normal" font-size="140px" font-family="Arial" >
O</text>
<path stroke="none" fill="#8000ff" transform="matrix(0.0666667 0 0 0.0666667 -193 -355)" d="M 5641.22,6022.08 L 5636.73,6029.86 L 5548.17,5978.73 L 5552.67,5970.95 L 5641.22,6022.08 Z " />
<path stroke="none" fill="#000000" transform="matrix(0.0666667 0 0 0.0666667 -193 -355)" d="M 5910,5935.87 L 5914.49,5943.65 L 5884.67,5960.86 L 5880.18,5953.08 L 5910,5935.87 Z " />
<path stroke="none" fill="#000000" transform="matrix(0.0666667 0 0 0.0666667 -193 -355)" d="M 5850.36,5970.3 L 5854.85,5978.08 L 5825.03,5995.29 L 5820.54,5987.51 L 5850.36,5970.3 Z " />
<path stroke="none" fill="#000000" transform="matrix(0.0666667 0 0 0.0666667 -193 -355)" d="M 5790.72,6004.73 L 5795.21,6012.51 L 5765.39,6029.73 L 5760.9,6021.95 L 5790.72,6004.73 Z " />
<path stroke="#000000" stroke-width="9" fill="none" transform="matrix(0.0666667 0 0 0.0666667 -193 -355)" d="M 3546.7,6333.56 A 513.75,513.75 0 0 0 3555.67,5819.89" />
<text x="0" y="0" stroke="none" fill="#000000" transform="matrix(0.0666667 0 0 0.0666667 46.3747 69.6055)" font-style="normal" font-weight="normal" font-size="105px" font-family="Arial" >
3</text>
<path stroke="#000000" stroke-width="9" fill="none" transform="matrix(0.0666667 0 0 0.0666667 -193 -355)" d="M 3018.75,5812.08 A 513.75,513.75 0 0 0 3018.75,6325.83" />
<path stroke="#000000" stroke-width="9" fill="none" transform="matrix(0.0666667 0 0 0.0666667 -193 -355)" d="M 5795.88,6248.24 A 431.25,431.25 0 0 0 5803.41,5817.06" />
<text x="0" y="0" stroke="none" fill="#000000" transform="matrix(0.0666667 0 0 0.0666667 196.271 63.256)" font-style="normal" font-weight="normal" font-size="105px" font-family="Arial" >
n</text>
<path stroke="#000000" stroke-width="9" fill="none" transform="matrix(0.0666667 0 0 0.0666667 -193 -355)" d="M 5360.95,5810.51 A 431.25,431.25 0 0 0 5360.95,6241.76" />
</svg>
