<?xml version="1.0" standalone="no" ?>
<!DOCTYPE svg PUBLIC "-//W3C//DTD SVG 1.1//EN" "http://www.w3.org/Graphics/SVG/1.1/DTD/svg11.dtd">
<svg width="237px" height="76px" viewBox="0 0 237 76" style="background-color: #ffffff00" xmlns="http://www.w3.org/2000/svg" xmlns:xlink="http://www.w3.org/1999/xlink" version="1.1" >
<text x="0" y="0" stroke="none" fill="#000000" transform="matrix(0.0666667 0 0 0.0666667 3.57075 22.45)" font-style="normal" font-weight="normal" font-size="140px" font-family="Arial" >
Ar</text>
<text x="0" y="0" stroke="none" fill="#000000" transform="matrix(0.0666667 0 0 0.0666667 12.9293 24.5167)" font-style="normal" font-weight="normal" font-size="105px" font-family="Arial" >
3</text>
<text x="0" y="0" stroke="none" fill="#000000" transform="matrix(0.0666667 0 0 0.0666667 16.8293 22.45)" font-style="normal" font-weight="normal" font-size="140px" font-family="Arial" >
Sb</text>
<path stroke="none" fill="#000000" transform="matrix(0.0666667 0 0 0.0666667 -103.934 -209.8)" d="M 2637.13,3447.5 L 2062.24,3447.5 L 2062.24,3438.5 L 2637.13,3438.5 Z " />
<path stroke="none" fill="#000000" transform="matrix(0.0666667 0 0 0.0666667 -103.934 -209.8)" d="M 2714.74,3443 C 2714.74,3443 2624.9,3466.46 2624.9,3466.46 C 2624.9,3466.46 2636.13,3453.26 2636.13,3443 C 2636.13,3432.3 2624.9,3418.54 2624.9,3418.54 C 2624.9,3418.54 2714.74,3443 2714.74,3443 C 2714.74,3443 2714.74,3443 2714.74,3443 " />
<path stroke="#000000" stroke-width="1" fill="none" transform="matrix(0.0666667 0 0 0.0666667 -103.934 -209.8)" d="M 2714.74,3443 C 2714.74,3443 2624.9,3466.46 2624.9,3466.46 C 2624.9,3466.46 2636.13,3453.26 2636.13,3443 C 2636.13,3432.3 2624.9,3418.54 2624.9,3418.54 C 2624.9,3418.54 2714.74,3443 2714.74,3443 C 2714.74,3443 2714.74,3443 2714.74,3443 " />
<text x="0" y="0" stroke="none" fill="#000000" transform="matrix(0.0666667 0 0 0.0666667 47.5219 11.95)" font-style="normal" font-weight="normal" font-size="140px" font-family="Arial" >
HCl</text>
<text x="0" y="0" stroke="none" fill="#000000" transform="matrix(0.0666667 0 0 0.0666667 42.0495 32.95)" font-style="normal" font-weight="normal" font-size="140px" font-family="Arial" >
–3ArH</text>
<text x="0" y="0" stroke="none" fill="#000000" transform="matrix(0.0666667 0 0 0.0666667 82.3432 22.45)" font-style="normal" font-weight="normal" font-size="140px" font-family="Arial" >
SbCl</text>
<text x="0" y="0" stroke="none" fill="#000000" transform="matrix(0.0666667 0 0 0.0666667 102.582 24.5167)" font-style="normal" font-weight="normal" font-size="105px" font-family="Arial" >
3</text>
<path stroke="none" fill="#000000" transform="matrix(0.0666667 0 0 0.0666667 -103.934 -209.8)" d="M 3810.54,3447.5 L 3235.66,3447.5 L 3235.66,3438.5 L 3810.54,3438.5 Z " />
<path stroke="none" fill="#000000" transform="matrix(0.0666667 0 0 0.0666667 -103.934 -209.8)" d="M 3888.16,3443 C 3888.16,3443 3798.31,3466.46 3798.31,3466.46 C 3798.31,3466.46 3809.54,3453.26 3809.54,3443 C 3809.54,3432.3 3798.31,3418.54 3798.31,3418.54 C 3798.31,3418.54 3888.16,3443 3888.16,3443 C 3888.16,3443 3888.16,3443 3888.16,3443 " />
<path stroke="#000000" stroke-width="1" fill="none" transform="matrix(0.0666667 0 0 0.0666667 -103.934 -209.8)" d="M 3888.16,3443 C 3888.16,3443 3798.31,3466.46 3798.31,3466.46 C 3798.31,3466.46 3809.54,3453.26 3809.54,3443 C 3809.54,3432.3 3798.31,3418.54 3798.31,3418.54 C 3798.31,3418.54 3888.16,3443 3888.16,3443 C 3888.16,3443 3888.16,3443 3888.16,3443 " />
<text x="0" y="0" stroke="none" fill="#000000" transform="matrix(0.0666667 0 0 0.0666667 124.573 11.95)" font-style="normal" font-weight="normal" font-size="140px" font-family="Arial" >
H</text>
<text x="0" y="0" stroke="none" fill="#000000" transform="matrix(0.0666667 0 0 0.0666667 131.313 14.0167)" font-style="normal" font-weight="normal" font-size="105px" font-family="Arial" >
2</text>
<text x="0" y="0" stroke="none" fill="#000000" transform="matrix(0.0666667 0 0 0.0666667 135.213 11.95)" font-style="normal" font-weight="normal" font-size="140px" font-family="Arial" >
O</text>
<text x="0" y="0" stroke="none" fill="#000000" transform="matrix(0.0666667 0 0 0.0666667 120.549 32.95)" font-style="normal" font-weight="normal" font-size="140px" font-family="Arial" >
–2HCl</text>
<text x="0" y="0" stroke="none" fill="#000000" transform="matrix(0.0666667 0 0 0.0666667 160.571 22.45)" font-style="normal" font-weight="normal" font-size="140px" font-family="Arial" >
SbOCl</text>
<text x="0" y="0" stroke="none" fill="#000000" transform="matrix(0.0666667 0 0 0.0666667 3.57076 50.0125)" font-style="normal" font-weight="normal" font-size="140px" font-family="Arial" >
Ar</text>
<text x="0" y="0" stroke="none" fill="#000000" transform="matrix(0.0666667 0 0 0.0666667 12.9293 52.0791)" font-style="normal" font-weight="normal" font-size="105px" font-family="Arial" >
3</text>
<text x="0" y="0" stroke="none" fill="#000000" transform="matrix(0.0666667 0 0 0.0666667 16.8224 50.0125)" font-style="normal" font-weight="normal" font-size="140px" font-family="Arial" >
Sb </text>
<text x="0" y="0" stroke="none" fill="#000000" transform="matrix(0.0666667 0 0 0.0666667 30.8477 50.0125)" font-style="normal" font-weight="normal" font-size="140px" font-family="Arial" >
= </text>
<text x="0" y="0" stroke="none" fill="#000000" transform="matrix(0.0666667 0 0 0.0666667 38.9143 50.0125)" font-style="normal" font-weight="normal" font-size="140px" font-family="Arial" >
2,6-(MeO)</text>
<text x="0" y="0" stroke="none" fill="#000000" transform="matrix(0.0666667 0 0 0.0666667 81.581 52.0791)" font-style="normal" font-weight="normal" font-size="105px" font-family="Arial" >
2</text>
<text x="0" y="0" stroke="none" fill="#000000" transform="matrix(0.0666667 0 0 0.0666667 85.481 50.0125)" font-style="normal" font-weight="normal" font-size="140px" font-family="Arial" >
C</text>
<text x="0" y="0" stroke="none" fill="#000000" transform="matrix(0.0666667 0 0 0.0666667 92.2212 52.0791)" font-style="normal" font-weight="normal" font-size="105px" font-family="Arial" >
6</text>
<text x="0" y="0" stroke="none" fill="#000000" transform="matrix(0.0666667 0 0 0.0666667 96.1212 50.0125)" font-style="normal" font-weight="normal" font-size="140px" font-family="Arial" >
H</text>
<text x="0" y="0" stroke="none" fill="#000000" transform="matrix(0.0666667 0 0 0.0666667 102.861 52.0791)" font-style="normal" font-weight="normal" font-size="105px" font-family="Arial" >
3,</text>
<text x="0" y="0" stroke="none" fill="#000000" transform="matrix(0.0666667 0 0 0.0666667 3.57076 69.475)" font-style="normal" font-weight="normal" font-size="140px" font-family="Arial" >
nSbOCl </text>
<text x="0" y="0" stroke="none" fill="#000000" transform="matrix(0.0666667 0 0 0.0666667 38.8765 69.475)" font-style="normal" font-weight="normal" font-size="140px" font-family="Arial" >
+ </text>
<text x="0" y="0" stroke="none" fill="#000000" transform="matrix(0.0666667 0 0 0.0666667 46.9432 69.475)" font-style="normal" font-weight="normal" font-size="140px" font-family="Arial" >
nDMSO</text>
<path stroke="none" fill="#000000" transform="matrix(0.0666667 0 0 0.0666667 -103.934 -209.8)" d="M 3414.49,4152.87 L 2839.61,4152.87 L 2839.61,4143.87 L 3414.49,4143.87 Z " />
<path stroke="none" fill="#000000" transform="matrix(0.0666667 0 0 0.0666667 -103.934 -209.8)" d="M 3492.11,4148.37 C 3492.11,4148.37 3402.26,4171.84 3402.26,4171.84 C 3402.26,4171.84 3413.49,4158.64 3413.49,4148.37 C 3413.49,4137.67 3402.26,4123.91 3402.26,4123.91 C 3402.26,4123.91 3492.11,4148.37 3492.11,4148.37 C 3492.11,4148.37 3492.11,4148.37 3492.11,4148.37 " />
<path stroke="#000000" stroke-width="1" fill="none" transform="matrix(0.0666667 0 0 0.0666667 -103.934 -209.8)" d="M 3492.11,4148.37 C 3492.11,4148.37 3402.26,4171.84 3402.26,4171.84 C 3402.26,4171.84 3413.49,4158.64 3413.49,4148.37 C 3413.49,4137.67 3402.26,4123.91 3402.26,4123.91 C 3402.26,4123.91 3492.11,4148.37 3492.11,4148.37 C 3492.11,4148.37 3492.11,4148.37 3492.11,4148.37 " />
<text x="0" y="0" stroke="none" fill="#000000" transform="matrix(0.0666667 0 0 0.0666667 134.071 68.675)" font-style="normal" font-weight="normal" font-size="140px" font-family="Arial" >
[Sb(µ</text>
<text x="0" y="0" stroke="none" fill="#000000" transform="matrix(0.0666667 0 0 0.0666667 156.629 70.7417)" font-style="normal" font-weight="normal" font-size="105px" font-family="Arial" >
2</text>
<text x="0" y="0" stroke="none" fill="#000000" transform="matrix(0.0666667 0 0 0.0666667 160.522 68.675)" font-style="normal" font-weight="normal" font-size="140px" font-family="Arial" >
-O)Cl(DMSO-O)]</text>
<text x="0" y="0" stroke="none" fill="#000000" transform="matrix(0.0666667 0 0 0.0666667 230.168 70.7417)" font-style="normal" font-weight="normal" font-size="105px" font-family="Arial" >
n</text>
</svg>
