<?xml version="1.0" standalone="no" ?>
<!DOCTYPE svg PUBLIC "-//W3C//DTD SVG 1.1//EN" "http://www.w3.org/Graphics/SVG/1.1/DTD/svg11.dtd">
<svg width="341px" height="258px" viewBox="0 0 341 258" style="background-color: #ffffff00" xmlns="http://www.w3.org/2000/svg" xmlns:xlink="http://www.w3.org/1999/xlink" version="1.1" >
<path stroke="none" fill="#000000" transform="matrix(0.0666667 0 0 0.0666667 -79.0336 -155)" d="M 4073.56,4686.29 L 4063.94,4688.71 L 4041.82,4661.67 L 4050.21,4657.73 L 4073.56,4686.29 L 4073.56,4686.29 Z " />
<path stroke="none" fill="#000000" transform="matrix(0.0666667 0 0 0.0666667 -79.0336 -155)" d="M 3927.97,4522.43 L 3931.75,4519.95 L 3939.62,4522.48 L 4011.71,4610.64 L 4003.32,4614.58 L 3927.97,4522.43 L 3927.97,4522.43 Z " />
<path stroke="none" fill="#000000" transform="matrix(0.0666667 0 0 0.0666667 -79.0336 -155)" d="M 4036.12,4877.27 L 4026.38,4880.23 L 4063.94,4688.71 L 4073.56,4686.29 L 4036.12,4877.27 Z " />
<path stroke="none" fill="#000000" transform="matrix(0.0666667 0 0 0.0666667 -79.0336 -155)" d="M 4182.12,5023.26 L 4172.88,5026.74 L 4026.38,4880.23 L 4036.12,4877.27 L 4182.12,5023.26 Z " />
<path stroke="none" fill="#000000" transform="matrix(0.0666667 0 0 0.0666667 -79.0336 -155)" d="M 4167.07,5252.68 L 4157.93,5254.82 L 4172.88,5026.74 L 4182.12,5023.26 L 4167.07,5252.68 Z " />
<path stroke="none" fill="#000000" transform="matrix(0.0666667 0 0 0.0666667 -79.0336 -155)" d="M 4288.38,5462.8 L 4280.6,5467.29 L 4157.93,5254.82 L 4167.07,5252.68 L 4288.38,5462.8 Z " />
<text x="0" y="0" stroke="none" fill="#000000" transform="matrix(0.0666667 0 0 0.0666667 3.1782 82.1072)" font-style="normal" font-weight="normal" font-size="140px" font-family="Arial" >
Ph</text>
<text x="0" y="0" stroke="none" fill="#000000" transform="matrix(0.0666667 0 0 0.0666667 14.6035 84.1738)" font-style="normal" font-weight="normal" font-size="105px" font-family="Arial" >
3</text>
<text x="0" y="0" stroke="none" fill="#000000" transform="matrix(0.0666667 0 0 0.0666667 18.5035 82.1072)" font-style="normal" font-weight="normal" font-size="140px" font-family="Arial" >
P</text>
<path stroke="none" fill="#000000" transform="matrix(0.0666667 0 0 0.0666667 -79.0336 -155)" d="M 1554.07,3421.39 L 1609.72,3421.39 L 1609.72,3428.39 L 1554.07,3428.39 Z " />
<path stroke="none" fill="#000000" transform="matrix(0.0666667 0 0 0.0666667 -79.0336 -155)" d="M 1585.4,3397.06 L 1585.4,3452.71 L 1578.4,3452.71 L 1578.4,3397.06 Z " />
<path stroke="none" fill="#000000" transform="matrix(0.0666667 0 0 0.0666667 -79.0336 -155)" d="M 1632.37,3708.89 L 1627.14,3717.87 L 1529.39,3545.78 L 1537.2,3541.35 L 1632.37,3708.89 Z " />
<path stroke="none" fill="#000000" transform="matrix(0.0666667 0 0 0.0666667 -79.0336 -155)" d="M 1875.19,3708.89 L 1869.98,3717.87 L 1627.14,3717.87 L 1632.37,3708.89 L 1875.19,3708.89 Z " />
<path stroke="none" fill="#000000" transform="matrix(0.0666667 0 0 0.0666667 -79.0336 -155)" d="M 1996.29,3920.16 L 1991.08,3929.15 L 1869.98,3717.87 L 1875.19,3708.89 L 1996.29,3920.16 Z " />
<path stroke="none" fill="#000000" transform="matrix(0.0666667 0 0 0.0666667 -79.0336 -155)" d="M 2239.12,3920.16 L 2233.91,3929.15 L 1991.08,3929.15 L 1996.29,3920.16 L 2239.12,3920.16 Z " />
<text x="0" y="0" stroke="none" fill="#000000" transform="matrix(0.0666667 0 0 0.0666667 74.5075 124.362)" font-style="normal" font-weight="normal" font-size="140px" font-family="Arial" >
O</text>
<path stroke="none" fill="#000000" transform="matrix(0.0666667 0 0 0.0666667 -79.0336 -155)" d="M 2326.1,4071.91 L 2318.31,4076.38 L 2233.91,3929.15 L 2239.12,3920.16 L 2326.1,4071.91 Z " />
<text x="0" y="0" stroke="none" fill="#000000" transform="matrix(0.0666667 0 0 0.0666667 74.5487 96.192)" font-style="normal" font-weight="normal" font-size="140px" font-family="Arial" >
O</text>
<path stroke="none" fill="#000000" transform="matrix(0.0666667 0 0 0.0666667 -79.0336 -155)" d="M 2292.48,3769.66 L 2300.27,3774.15 L 2212.27,3926.9 L 2204.48,3922.41 L 2292.48,3769.66 Z " />
<path stroke="none" fill="#000000" transform="matrix(0.0666667 0 0 0.0666667 -79.0336 -155)" d="M 2334.74,3794.01 L 2342.52,3798.49 L 2254.44,3951.38 L 2246.66,3946.89 L 2334.74,3794.01 Z " />
<text x="0" y="0" stroke="none" fill="#000000" transform="matrix(0.0666667 0 0 0.0666667 8.73407 71.3584)" font-style="normal" font-weight="normal" font-size="140px" font-family="Arial" >
Br</text>
<path stroke="none" fill="#000000" transform="matrix(0.0666667 0 0 0.0666667 -79.0336 -155)" d="M 1454.28,3241.56 L 1509.93,3241.56 L 1509.93,3248.56 L 1454.28,3248.56 Z " />
<path stroke="none" fill="#000000" transform="matrix(0.0666667 0 0 0.0666667 -79.0336 -155)" d="M 2593.61,4067.77 L 2590.91,4077.8 L 2428.42,4121.53 L 2426.08,4112.85 L 2593.61,4067.77 Z " />
<path stroke="none" fill="#000000" transform="matrix(0.0666667 0 0 0.0666667 -79.0336 -155)" d="M 2590.91,4077.8 L 2593.61,4067.77 L 2735.07,4210.1 L 2730.42,4218.16 L 2590.91,4077.8 L 2590.91,4077.8 Z " />
<path stroke="none" fill="#000000" transform="matrix(0.0666667 0 0 0.0666667 -79.0336 -155)" d="M 2825.76,4379.13 L 2821.97,4381.68 L 2815.47,4377.9 L 2769.05,4269.22 L 2774.66,4259.49 L 2825.76,4379.13 L 2825.76,4379.13 Z " />
<path stroke="none" fill="#000000" transform="matrix(0.0666667 0 0 0.0666667 -79.0336 -155)" d="M 2851.15,4363.04 L 2842.89,4366.57 L 2831.7,4340.38 L 2848.83,4357.62 L 2851.15,4363.04 L 2851.15,4363.04 Z " />
<path stroke="none" fill="#000000" transform="matrix(0.0666667 0 0 0.0666667 -79.0336 -155)" d="M 2812.32,4295.01 L 2820.59,4291.49 L 2826.29,4304.84 L 2819.43,4311.66 L 2812.32,4295.01 L 2812.32,4295.01 Z " />
<path stroke="none" fill="#000000" transform="matrix(0.0666667 0 0 0.0666667 -79.0336 -155)" d="M 2995.68,4550.08 L 2993.42,4554.19 L 2990.24,4557.35 L 2820.32,4386.39 L 2821.97,4381.68 L 2825.76,4379.13 L 2995.68,4550.08 Z " />
<path stroke="none" fill="#000000" transform="matrix(0.0666667 0 0 0.0666667 -79.0336 -155)" d="M 3113.53,4575.93 L 3131.47,4589.07 L 3005.06,4561.34 L 2993.42,4554.19 L 2995.68,4550.08 L 3113.53,4575.93 Z " />
<path stroke="none" fill="#000000" transform="matrix(0.0666667 0 0 0.0666667 -79.0336 -155)" d="M 3070.68,4539.48 L 3068.75,4548.25 L 3005.72,4534.42 L 3007.65,4525.65 L 3070.68,4539.48 Z " />
<path stroke="none" fill="#000000" transform="matrix(0.0666667 0 0 0.0666667 -79.0336 -155)" d="M 3044.47,4456.15 L 3048.36,4453.9 L 3057.95,4461.54 L 3131.47,4589.07 L 3113.53,4575.93 L 3044.47,4456.15 Z " />
<path stroke="none" fill="#000000" transform="matrix(0.0666667 0 0 0.0666667 -79.0336 -155)" d="M 2874.49,4285.35 L 2876.91,4281.4 L 2881.18,4279.33 L 3050.75,4449.94 L 3048.36,4453.9 L 3044.76,4456.65 L 2874.49,4285.35 L 2874.49,4285.35 Z " />
<path stroke="none" fill="#000000" transform="matrix(0.0666667 0 0 0.0666667 -79.0336 -155)" d="M 2847.6,4327.29 L 2853.98,4320.96 L 3012.57,4480.53 L 3006.2,4486.86 L 2847.6,4327.29 L 2847.6,4327.29 Z " />
<path stroke="none" fill="#000000" transform="matrix(0.0666667 0 0 0.0666667 -79.0336 -155)" d="M 2871.61,4274.99 L 2876.91,4281.4 L 2874.49,4285.35 L 2777.59,4254.43 L 2782.19,4246.47 L 2871.61,4274.99 L 2871.61,4274.99 Z " />
<text x="0" y="0" stroke="none" fill="#000000" transform="matrix(0.0666667 0 0 0.0666667 107.643 121.749)" font-style="normal" font-weight="normal" font-size="140px" font-family="Arial" >
O</text>
<path stroke="none" fill="#000000" transform="matrix(0.0666667 0 0 0.0666667 -79.0336 -155)" d="M 2868.69,4175.72 L 2868.86,4177.11 L 2864.55,4176.22 L 2868.69,4175.72 L 2868.69,4175.72 Z " />
<path stroke="none" fill="#000000" transform="matrix(0.0666667 0 0 0.0666667 -79.0336 -155)" d="M 2881.18,4279.33 L 2876.91,4281.4 L 2871.61,4274.99 L 2867.03,4236.98 L 2876.31,4238.92 L 2881.18,4279.33 L 2881.18,4279.33 Z " />
<path stroke="none" fill="#000000" transform="matrix(0.0666667 0 0 0.0666667 -79.0336 -155)" d="M 2966.59,3937.73 L 2971.15,3946.69 L 2900.76,4041.9 L 2893.54,4036.56 L 2966.59,3937.73 Z " />
<text x="0" y="0" stroke="none" fill="#000000" transform="matrix(0.0666667 0 0 0.0666667 129.6 111.354)" font-style="normal" font-weight="normal" font-size="140px" font-family="Arial" >
O</text>
<path stroke="none" fill="#000000" transform="matrix(0.0666667 0 0 0.0666667 -79.0336 -155)" d="M 3111.47,3936.79 L 3111.53,3945.77 L 2971.15,3946.69 L 2966.59,3937.73 L 3111.47,3936.79 Z " />
<path stroke="none" fill="#000000" transform="matrix(0.0666667 0 0 0.0666667 -79.0336 -155)" d="M 3374.63,4088.07 L 3374.02,4093.34 L 3369.53,4095.49 L 3243.14,3994.04 L 3248.77,3987.03 L 3374.63,4088.07 Z " />
<path stroke="none" fill="#000000" transform="matrix(0.0666667 0 0 0.0666667 -79.0336 -155)" d="M 3369.53,4095.49 L 3374.02,4093.34 L 3378.51,4096.17 L 3378.22,4297.47 L 3369.23,4301.56 L 3369.53,4095.49 L 3369.53,4095.49 Z " />
<path stroke="none" fill="#000000" transform="matrix(0.0666667 0 0 0.0666667 -79.0336 -155)" d="M 3418.28,4124.1 L 3427.26,4124.11 L 3427.04,4275.28 L 3418.05,4279.37 L 3418.28,4124.1 L 3418.28,4124.1 Z " />
<path stroke="none" fill="#000000" transform="matrix(0.0666667 0 0 0.0666667 -79.0336 -155)" d="M 3617.43,4459.38 L 3617.48,4469.54 L 3446.53,4380.37 L 3456.92,4375.66 L 3617.43,4459.38 L 3617.43,4459.38 Z " />
<path stroke="none" fill="#000000" transform="matrix(0.0666667 0 0 0.0666667 -79.0336 -155)" d="M 3836.93,4341.87 L 3841.42,4344.56 L 3839.51,4350.68 L 3826.7,4357.54 L 3832.68,4344.14 L 3836.93,4341.87 L 3836.93,4341.87 Z " />
<path stroke="none" fill="#000000" transform="matrix(0.0666667 0 0 0.0666667 -79.0336 -155)" d="M 3617.48,4469.54 L 3617.43,4459.38 L 3730.54,4398.83 L 3730.72,4408.92 L 3617.48,4469.54 L 3617.48,4469.54 Z " />
<path stroke="none" fill="#000000" transform="matrix(0.0666667 0 0 0.0666667 -79.0336 -155)" d="M 3788.53,4310.15 L 3792.77,4318.07 L 3788.38,4320.42 L 3778,4315.79 L 3788.53,4310.15 L 3788.53,4310.15 Z " />
<path stroke="none" fill="#000000" transform="matrix(0.0666667 0 0 0.0666667 -79.0336 -155)" d="M 3619.26,4410.96 L 3615.02,4403.04 L 3712.22,4351 L 3722.6,4355.64 L 3619.26,4410.96 L 3619.26,4410.96 Z " />
<path stroke="none" fill="#000000" transform="matrix(0.0666667 0 0 0.0666667 -79.0336 -155)" d="M 3618.01,3981.6 L 3618.16,3976.55 L 3622.66,3973.91 L 3841.32,4095.22 L 3841.77,4100.61 L 3837.28,4103.25 L 3618.01,3981.6 L 3618.01,3981.6 Z " />
<path stroke="none" fill="#000000" transform="matrix(0.0666667 0 0 0.0666667 -79.0336 -155)" d="M 3614.25,4038 L 3618.61,4030.15 L 3792.77,4126.77 L 3788.41,4134.62 L 3614.25,4038 L 3614.25,4038 Z " />
<path stroke="none" fill="#000000" transform="matrix(0.0666667 0 0 0.0666667 -79.0336 -155)" d="M 3378.51,4096.17 L 3374.02,4093.34 L 3374.63,4088.07 L 3519.63,4018.7 L 3521.17,4019.59 L 3521.17,4027.93 L 3378.51,4096.17 L 3378.51,4096.17 Z " />
<path stroke="none" fill="#000000" transform="matrix(0.0666667 0 0 0.0666667 -79.0336 -155)" d="M 3613.68,3973.72 L 3618.16,3976.55 L 3618.01,3981.6 L 3581.57,3999.03 L 3587.06,3989.52 L 3584.15,3987.84 L 3613.68,3973.72 L 3613.68,3973.72 Z " />
<path stroke="none" fill="#000000" transform="matrix(0.0666667 0 0 0.0666667 -79.0336 -155)" d="M 3245.72,4509.75 L 3247.5,4515 L 3241.43,4517.84 L 3057.95,4461.54 L 3048.36,4453.9 L 3050.75,4449.94 L 3245.72,4509.75 Z " />
<path stroke="none" fill="#000000" transform="matrix(0.0666667 0 0 0.0666667 -79.0336 -155)" d="M 3251.45,4517.2 L 3247.5,4515 L 3245.72,4509.75 L 3278.46,4463.64 L 3278.73,4478.77 L 3251.45,4517.2 L 3251.45,4517.2 Z " />
<path stroke="none" fill="#000000" transform="matrix(0.0666667 0 0 0.0666667 -79.0336 -155)" d="M 3934.08,4514.67 L 3931.75,4519.95 L 3927.97,4522.43 L 3846.73,4364.69 L 3854.56,4360.28 L 3934.08,4514.67 L 3934.08,4514.67 Z " />
<path stroke="none" fill="#000000" transform="matrix(0.0666667 0 0 0.0666667 -79.0336 -155)" d="M 3939.62,4522.48 L 3931.75,4519.95 L 3934.08,4514.67 L 4164.06,4452.78 L 4166.39,4456.81 L 4156.39,4464.15 L 3939.62,4522.48 Z " />
<path stroke="none" fill="#000000" transform="matrix(0.0666667 0 0 0.0666667 -79.0336 -155)" d="M 3846.26,4102.77 L 3841.77,4100.61 L 3841.32,4095.22 L 3967.77,3994.12 L 3973.38,4001.14 L 3846.26,4102.77 Z " />
<path stroke="none" fill="#000000" transform="matrix(0.0666667 0 0 0.0666667 -79.0336 -155)" d="M 4104.77,3952.34 L 4104.71,3943.36 L 4249.59,3942.41 L 4245.15,3951.43 L 4104.77,3952.34 Z " />
<text x="0" y="0" stroke="none" fill="#000000" transform="matrix(0.0666667 0 0 0.0666667 186.149 111.855)" font-style="normal" font-weight="normal" font-size="140px" font-family="Arial" >
O</text>
<path stroke="none" fill="#000000" transform="matrix(0.0666667 0 0 0.0666667 -79.0336 -155)" d="M 4245.15,3951.43 L 4249.59,3942.41 L 4321.58,4037.5 L 4314.41,4042.92 L 4245.15,3951.43 Z " />
<path stroke="none" fill="#000000" transform="matrix(0.0666667 0 0 0.0666667 -79.0336 -155)" d="M 4347,4176.18 L 4355.92,4177.26 L 4343.7,4277.52 L 4338.35,4284.31 L 4334.07,4282.23 L 4347,4176.18 Z " />
<text x="0" y="0" stroke="none" fill="#000000" transform="matrix(0.0666667 0 0 0.0666667 208.076 121.781)" font-style="normal" font-weight="normal" font-size="140px" font-family="Arial" >
O</text>
<path stroke="none" fill="#000000" transform="matrix(0.0666667 0 0 0.0666667 -79.0336 -155)" d="M 4449.17,4238.31 L 4451.65,4242.18 L 4443.15,4250.13 L 4340.83,4288.17 L 4338.35,4284.31 L 4343.7,4277.52 L 4449.17,4238.31 Z " />
<path stroke="none" fill="#000000" transform="matrix(0.0666667 0 0 0.0666667 -79.0336 -155)" d="M 4334.07,4282.23 L 4338.35,4284.31 L 4340.83,4288.17 L 4169.92,4459.63 L 4166.39,4456.81 L 4164.06,4452.78 L 4334.07,4282.23 L 4334.07,4282.23 Z " />
<path stroke="none" fill="#000000" transform="matrix(0.0666667 0 0 0.0666667 -79.0336 -155)" d="M 4207.82,4490.62 L 4201.45,4484.27 L 4338.21,4347.08 L 4343.54,4354.46 L 4207.82,4490.62 L 4207.82,4490.62 Z " />
<path stroke="none" fill="#000000" transform="matrix(0.0666667 0 0 0.0666667 -79.0336 -155)" d="M 4156.39,4464.15 L 4166.39,4456.81 L 4170.18,4459.22 L 4106.66,4558.97 L 4088.34,4571.03 L 4156.39,4464.15 L 4156.39,4464.15 Z " />
<path stroke="none" fill="#000000" transform="matrix(0.0666667 0 0 0.0666667 -79.0336 -155)" d="M 4088.34,4571.03 L 4106.66,4558.97 L 4218.9,4540.86 L 4221.05,4545.06 L 4221.77,4549.5 L 4088.34,4571.03 Z " />
<path stroke="none" fill="#000000" transform="matrix(0.0666667 0 0 0.0666667 -79.0336 -155)" d="M 4149.28,4535.84 L 4147.85,4526.97 L 4208.34,4517.21 L 4209.77,4526.08 L 4149.28,4535.84 Z " />
<path stroke="none" fill="#000000" transform="matrix(0.0666667 0 0 0.0666667 -79.0336 -155)" d="M 4223.67,4548.79 L 4221.05,4545.06 L 4218.9,4540.86 L 4387.13,4372.09 L 4393.01,4372.56 L 4396.77,4375.15 L 4223.67,4548.79 Z " />
<path stroke="none" fill="#000000" transform="matrix(0.0666667 0 0 0.0666667 -79.0336 -155)" d="M 4396.77,4375.15 L 4393.01,4372.56 L 4392.1,4363.63 L 4443.15,4250.13 L 4451.65,4242.18 L 4455.41,4244.77 L 4396.77,4375.15 Z " />
<path stroke="none" fill="#000000" transform="matrix(0.0666667 0 0 0.0666667 -79.0336 -155)" d="M 4391.31,4317.58 L 4383.12,4313.89 L 4393.43,4290.96 L 4401.63,4294.65 L 4391.31,4317.58 Z " />
<path stroke="none" fill="#000000" transform="matrix(0.0666667 0 0 0.0666667 -79.0336 -155)" d="M 4455.41,4244.77 L 4451.65,4242.18 L 4449.17,4238.31 L 4622.27,4064.66 L 4624.95,4074.69 L 4455.41,4244.77 Z " />
<path stroke="none" fill="#000000" transform="matrix(0.0666667 0 0 0.0666667 -79.0336 -155)" d="M 4624.95,4074.69 L 4622.27,4064.66 L 4790.04,4109.84 L 4787.7,4118.52 L 4624.95,4074.69 Z " />
<text x="0" y="0" stroke="none" fill="#000000" transform="matrix(0.0666667 0 0 0.0666667 322.533 69.4846)" font-style="normal" font-weight="normal" font-size="140px" font-family="Arial" >
Br</text>
<path stroke="none" fill="#000000" transform="matrix(0.0666667 0 0 0.0666667 -79.0336 -155)" d="M 4874.44,3795.75 L 4882.23,3791.28 L 4969.62,3943.73 L 4961.82,3948.2 L 4874.44,3795.75 Z " />
<path stroke="none" fill="#000000" transform="matrix(0.0666667 0 0 0.0666667 -79.0336 -155)" d="M 4916.69,3771.53 L 4924.49,3767.06 L 5011.76,3919.31 L 5003.96,3923.78 L 4916.69,3771.53 Z " />
<text x="0" y="0" stroke="none" fill="#000000" transform="matrix(0.0666667 0 0 0.0666667 241.245 95.9847)" font-style="normal" font-weight="normal" font-size="140px" font-family="Arial" >
O</text>
<path stroke="none" fill="#000000" transform="matrix(0.0666667 0 0 0.0666667 -79.0336 -155)" d="M 4897.52,4073.35 L 4889.73,4068.86 L 4977.19,3917.05 L 4982.39,3926.04 L 4897.52,4073.35 Z " />
<text x="0" y="0" stroke="none" fill="#000000" transform="matrix(0.0666667 0 0 0.0666667 241.204 124.154)" font-style="normal" font-weight="normal" font-size="140px" font-family="Arial" >
O</text>
<path stroke="none" fill="#000000" transform="matrix(0.0666667 0 0 0.0666667 -79.0336 -155)" d="M 4982.39,3926.04 L 4977.19,3917.05 L 5220.02,3917.05 L 5225.21,3926.04 L 4982.39,3926.04 Z " />
<path stroke="none" fill="#000000" transform="matrix(0.0666667 0 0 0.0666667 -79.0336 -155)" d="M 5225.21,3926.04 L 5220.02,3917.05 L 5341.74,3705.78 L 5346.93,3714.76 L 5225.21,3926.04 Z " />
<path stroke="none" fill="#000000" transform="matrix(0.0666667 0 0 0.0666667 -79.0336 -155)" d="M 5346.93,3714.76 L 5341.74,3705.78 L 5585.91,3705.78 L 5588.41,3714.76 L 5346.93,3714.76 Z " />
<path stroke="none" fill="#000000" transform="matrix(0.0666667 0 0 0.0666667 -79.0336 -155)" d="M 5588.41,3714.76 L 5585.91,3705.78 L 5863.84,3538.34 L 5868.48,3546.04 L 5588.41,3714.76 Z " />
<text x="0" y="0" stroke="none" fill="#000000" transform="matrix(0.0666667 0 0 0.0666667 313.724 81.8999)" font-style="normal" font-weight="normal" font-size="140px" font-family="Arial" >
P </text>
<text x="0" y="0" stroke="none" fill="#000000" transform="matrix(0.0666667 0 0 0.0666667 322.549 81.8999)" font-style="normal" font-weight="normal" font-size="140px" font-family="Arial" >
Ph</text>
<text x="0" y="0" stroke="none" fill="#000000" transform="matrix(0.0666667 0 0 0.0666667 333.974 83.9665)" font-style="normal" font-weight="normal" font-size="105px" font-family="Arial" >
3</text>
<path stroke="none" fill="#000000" transform="matrix(0.0666667 0 0 0.0666667 -79.0336 -155)" d="M 6161.26,3213.46 L 6216.91,3213.46 L 6216.91,3220.46 L 6161.26,3220.46 Z " />
<path stroke="none" fill="#000000" transform="matrix(0.0666667 0 0 0.0666667 -79.0336 -155)" d="M 3837.28,4103.25 L 3841.77,4100.61 L 3846.26,4102.77 L 3845.98,4297.39 L 3836.99,4302.47 L 3837.28,4103.25 L 3837.28,4103.25 Z " />
<path stroke="none" fill="#000000" transform="matrix(0.0666667 0 0 0.0666667 -79.0336 -155)" d="M 3614.03,3730 L 3623.01,3735.18 L 3622.66,3973.91 L 3618.16,3976.55 L 3613.68,3973.72 L 3614.03,3730 Z " />
<text x="0" y="0" stroke="none" fill="#000000" transform="matrix(0.0666667 0 0 0.0666667 172.583 89.3385)" font-style="normal" font-weight="normal" font-size="140px" font-family="Arial" >
O</text>
<path stroke="none" fill="#000000" transform="matrix(0.0666667 0 0 0.0666667 -79.0336 -155)" d="M 3759.48,3645.59 L 3763.99,3653.36 L 3623.01,3735.18 L 3614.03,3730 L 3759.48,3645.59 Z " />
<path stroke="none" fill="#000000" transform="matrix(0.0666667 0 0 0.0666667 -79.0336 -155)" d="M 3824.62,3364.03 L 3833.59,3369.21 L 3833.34,3540.08 L 3824.36,3540.07 L 3824.62,3364.03 Z " />
<path stroke="none" fill="#000000" transform="matrix(0.0666667 0 0 0.0666667 -79.0336 -155)" d="M 4034.84,3242.02 L 4043.82,3247.2 L 3833.59,3369.21 L 3824.62,3364.03 L 4034.84,3242.02 Z " />
<path stroke="none" fill="#000000" transform="matrix(0.0666667 0 0 0.0666667 -79.0336 -155)" d="M 4035.2,2998.06 L 4044.17,3003.24 L 4043.82,3247.2 L 4034.84,3242.02 L 4035.2,2998.06 Z " />
<path stroke="none" fill="#000000" transform="matrix(0.0666667 0 0 0.0666667 -79.0336 -155)" d="M 4245.42,2876.05 L 4254.4,2881.23 L 4044.17,3003.24 L 4035.2,2998.06 L 4245.42,2876.05 Z " />
<text x="0" y="0" stroke="none" fill="#000000" transform="matrix(0.0666667 0 0 0.0666667 201.218 24.2786)" font-style="normal" font-weight="normal" font-size="140px" font-family="Arial" >
P </text>
<text x="0" y="0" stroke="none" fill="#000000" transform="matrix(0.0666667 0 0 0.0666667 210.043 24.2786)" font-style="normal" font-weight="normal" font-size="140px" font-family="Arial" >
Ph</text>
<text x="0" y="0" stroke="none" fill="#000000" transform="matrix(0.0666667 0 0 0.0666667 221.468 26.3453)" font-style="normal" font-weight="normal" font-size="105px" font-family="Arial" >
3</text>
<path stroke="none" fill="#000000" transform="matrix(0.0666667 0 0 0.0666667 -79.0336 -155)" d="M 4245.66,2715.51 L 4254.64,2715.52 L 4254.4,2881.23 L 4245.42,2876.05 L 4245.66,2715.51 Z " />
<text x="0" y="0" stroke="none" fill="#000000" transform="matrix(0.0666667 0 0 0.0666667 158.615 64.9452)" font-style="normal" font-weight="normal" font-size="140px" font-family="Arial" >
O</text>
<path stroke="none" fill="#000000" transform="matrix(0.0666667 0 0 0.0666667 -79.0336 -155)" d="M 3672.22,3308.73 L 3676.73,3300.96 L 3831.32,3390.79 L 3826.81,3398.55 L 3672.22,3308.73 Z " />
<path stroke="none" fill="#000000" transform="matrix(0.0666667 0 0 0.0666667 -79.0336 -155)" d="M 3696.61,3266.76 L 3701.12,3258.99 L 3855.53,3348.71 L 3851.02,3356.48 L 3696.61,3266.76 Z " />
<text x="0" y="0" stroke="none" fill="#000000" transform="matrix(0.0666667 0 0 0.0666667 210.026 13.6063)" font-style="normal" font-weight="normal" font-size="140px" font-family="Arial" >
Br</text>
<path stroke="none" fill="#000000" transform="matrix(0.0666667 0 0 0.0666667 -79.0336 -155)" d="M 4473.51,2375.26 L 4529.16,2375.26 L 4529.16,2382.26 L 4473.51,2382.26 Z " />
<path stroke="none" fill="#000000" transform="matrix(0.0666667 0 0 0.0666667 -79.0336 -155)" d="M 5983.11,3418.81 L 6038.76,3418.81 L 6038.76,3425.81 L 5983.11,3425.81 Z " />
<path stroke="none" fill="#000000" transform="matrix(0.0666667 0 0 0.0666667 -79.0336 -155)" d="M 6014.44,3394.48 L 6014.44,3450.13 L 6007.44,3450.13 L 6007.44,3394.48 Z " />
<path stroke="none" fill="#000000" transform="matrix(0.0666667 0 0 0.0666667 -79.0336 -155)" d="M 4287.97,2560.1 L 4343.62,2560.1 L 4343.62,2567.1 L 4287.97,2567.1 Z " />
<path stroke="none" fill="#000000" transform="matrix(0.0666667 0 0 0.0666667 -79.0336 -155)" d="M 4319.3,2535.77 L 4319.3,2591.43 L 4312.3,2591.43 L 4312.3,2535.77 Z " />
<path stroke="none" fill="#0000ff" transform="matrix(0.0666667 0 0 0.0666667 -79.0336 -155)" d="M 3794.85,4360.53 L 3799.29,4357.6 L 3803.83,4360.19 L 3807.75,4577.61 L 3803.3,4579.98 L 3798.76,4577.11 L 3794.85,4360.53 Z " />
<path stroke="none" fill="#0000ff" transform="matrix(0.0666667 0 0 0.0666667 -79.0336 -155)" d="M 3750.84,4386.76 L 3759.82,4386.6 L 3762.79,4551.5 L 3753.81,4551.67 L 3750.84,4386.76 Z " />
<path stroke="none" fill="#0000ff" transform="matrix(0.0666667 0 0 0.0666667 -79.0336 -155)" d="M 3550.68,4251.47 L 3550.67,4246.55 L 3555.16,4243.63 L 3799.06,4352.57 L 3799.29,4357.6 L 3794.85,4360.53 L 3550.68,4251.47 Z " />
<path stroke="none" fill="#0000ff" transform="matrix(0.0666667 0 0 0.0666667 -79.0336 -155)" d="M 3310.59,4360.61 L 3306.05,4357.74 L 3306.03,4352.81 L 3546.17,4243.65 L 3550.67,4246.55 L 3550.68,4251.47 L 3310.59,4360.61 Z " />
<path stroke="none" fill="#0000ff" transform="matrix(0.0666667 0 0 0.0666667 -79.0336 -155)" d="M 3362.27,4396.15 L 3358.56,4387.97 L 3549,4301.4 L 3552.72,4309.58 L 3362.27,4396.15 Z " />
<path stroke="none" fill="#0000ff" transform="matrix(0.0666667 0 0 0.0666667 -79.0336 -155)" d="M 3314.49,4577.18 L 3310.05,4580.12 L 3305.51,4577.16 L 3301.61,4360.67 L 3306.05,4357.74 L 3310.59,4360.61 L 3314.49,4577.18 Z " />
<path stroke="none" fill="#0000ff" transform="matrix(0.0666667 0 0 0.0666667 -79.0336 -155)" d="M 3558.66,4686.38 L 3558.69,4696.24 L 3310,4585.02 L 3310.05,4580.12 L 3314.49,4577.18 L 3558.66,4686.38 L 3558.66,4686.38 Z " />
<path stroke="none" fill="#0000ff" transform="matrix(0.0666667 0 0 0.0666667 -79.0336 -155)" d="M 3560.31,4627.45 L 3556.65,4635.65 L 3362.06,4548.63 L 3365.72,4540.43 L 3560.31,4627.45 L 3560.31,4627.45 Z " />
<path stroke="none" fill="#0000ff" transform="matrix(0.0666667 0 0 0.0666667 -79.0336 -155)" d="M 3798.76,4577.11 L 3803.3,4579.98 L 3802.83,4585.13 L 3558.69,4696.24 L 3558.66,4686.38 L 3798.76,4577.11 Z " />
<path stroke="none" fill="#0000ff" transform="matrix(0.0666667 0 0 0.0666667 -79.0336 -155)" d="M 3941.69,4671.08 L 3941.25,4676.25 L 3935.3,4677.58 L 3802.83,4585.13 L 3803.3,4579.98 L 3807.75,4577.61 L 3941.69,4671.08 Z " />
<text x="0" y="0" stroke="none" fill="#0000ff" transform="matrix(0.0666667 0 0 0.0666667 121.161 131.736)" font-style="normal" font-weight="normal" font-size="140px" font-family="Arial" >
O</text>
<path stroke="none" fill="#0000ff" transform="matrix(0.0666667 0 0 0.0666667 -79.0336 -155)" d="M 3125.74,4282.02 L 3129.41,4273.82 L 3306.03,4352.81 L 3306.05,4357.74 L 3301.61,4360.67 L 3125.74,4282.02 Z " />
<path stroke="none" fill="#0000ff" transform="matrix(0.0666667 0 0 0.0666667 -79.0336 -155)" d="M 2783.58,4194.05 L 2779.05,4183.93 L 2988.16,4227.52 L 2986.33,4236.32 L 2783.58,4194.05 Z " />
<text x="0" y="0" stroke="none" fill="#0000ff" transform="matrix(0.0666667 0 0 0.0666667 94.6212 141.986)" font-style="normal" font-weight="normal" font-size="140px" font-family="Arial" >
O</text>
<path stroke="none" fill="#0000ff" transform="matrix(0.0666667 0 0 0.0666667 -79.0336 -155)" d="M 2698.83,4340.85 L 2691.05,4336.36 L 2779.05,4183.93 L 2783.58,4194.05 L 2698.83,4340.85 Z " />
<text x="0" y="0" stroke="none" fill="#0000ff" transform="matrix(0.0666667 0 0 0.0666667 183.333 131.967)" font-style="normal" font-weight="normal" font-size="140px" font-family="Arial" >
O</text>
<path stroke="none" fill="#0000ff" transform="matrix(0.0666667 0 0 0.0666667 -79.0336 -155)" d="M 3920.44,4284.09 L 3924.85,4291.92 L 3803.83,4360.19 L 3799.29,4357.6 L 3799.06,4352.57 L 3920.44,4284.09 Z " />
<path stroke="none" fill="#0000ff" transform="matrix(0.0666667 0 0 0.0666667 -79.0336 -155)" d="M 4198.32,4174.98 L 4196.68,4185.02 L 4059.48,4231.3 L 4056.61,4222.79 L 4198.32,4174.98 Z " />
<text x="0" y="0" stroke="none" fill="#0000ff" transform="matrix(0.0666667 0 0 0.0666667 205.5 133.633)" font-style="normal" font-weight="normal" font-size="140px" font-family="Arial" >
O</text>
<path stroke="none" fill="#0000ff" transform="matrix(0.0666667 0 0 0.0666667 -79.0336 -155)" d="M 4268.3,4228.16 L 4262.86,4235.32 L 4196.68,4185.02 L 4198.32,4174.98 L 4268.3,4228.16 Z " />
<path stroke="none" fill="#0000ff" transform="matrix(0.0666667 0 0 0.0666667 -79.0336 -155)" d="M 2815.47,4377.9 L 2821.97,4381.68 L 2820.32,4386.39 L 2731.56,4396.55 L 2730.54,4387.62 L 2815.47,4377.9 Z " />
<path stroke="none" fill="#0000ff" transform="matrix(0.0666667 0 0 0.0666667 -79.0336 -155)" d="M 2989.94,4557.03 L 2993.42,4554.19 L 3005.06,4561.34 L 3091.36,4667.06 L 3090,4672.5 L 3085.91,4674.59 L 2989.94,4557.03 Z " />
<path stroke="none" fill="#0000ff" transform="matrix(0.0666667 0 0 0.0666667 -79.0336 -155)" d="M 4366.65,4343.76 L 4373.93,4338.5 L 4396.65,4369.93 L 4393.01,4372.56 L 4387.13,4372.09 L 4366.65,4343.76 Z " />
<path stroke="none" fill="#0000ff" transform="matrix(0.0666667 0 0 0.0666667 -79.0336 -155)" d="M 4190.12,4554.6 L 4221.05,4545.06 L 4223.67,4548.79 L 3944.44,4679.72 L 3941.25,4676.25 L 3941.69,4671.08 L 4190.12,4554.6 Z " />
<path stroke="none" fill="#0000ff" transform="matrix(0.0666667 0 0 0.0666667 -79.0336 -155)" d="M 3824.38,4887.82 L 3814.2,4887.49 L 3935.3,4677.58 L 3941.25,4676.25 L 3944.44,4679.72 L 3824.38,4887.82 Z " />
<path stroke="none" fill="#0000ff" transform="matrix(0.0666667 0 0 0.0666667 -79.0336 -155)" d="M 3932.8,5107.6 L 3922.78,5107.6 L 3814.2,4887.49 L 3824.38,4887.82 L 3932.8,5107.6 Z " />
<path stroke="none" fill="#0000ff" transform="matrix(0.0666667 0 0 0.0666667 -79.0336 -155)" d="M 3837.7,5300.78 L 3827.26,5301.66 L 3922.78,5107.6 L 3932.8,5107.6 L 3837.7,5300.78 Z " />
<path stroke="none" fill="#0000ff" transform="matrix(0.0666667 0 0 0.0666667 -79.0336 -155)" d="M 3977.5,5494.41 L 3967.05,5495.29 L 3827.26,5301.66 L 3837.7,5300.78 L 3977.5,5494.41 Z " />
<path stroke="none" fill="#0000ff" transform="matrix(0.0666667 0 0 0.0666667 -79.0336 -155)" d="M 3881,5690.45 L 3872.94,5686.48 L 3967.05,5495.29 L 3977.5,5494.41 L 3881,5690.45 Z " />
<path stroke="none" fill="#000000" transform="matrix(0.0666667 0 0 0.0666667 -79.0336 -155)" d="M 3179.91,4687.41 L 3170.09,4687.59 L 3178.63,4667.28 L 3190.46,4662.31 L 3179.91,4687.41 L 3179.91,4687.41 Z " />
<path stroke="none" fill="#000000" transform="matrix(0.0666667 0 0 0.0666667 -79.0336 -155)" d="M 3241.43,4517.84 L 3247.5,4515 L 3251.45,4517.2 L 3223.11,4584.64 L 3211.27,4589.6 L 3241.43,4517.84 L 3241.43,4517.84 Z " />
<path stroke="none" fill="#000000" transform="matrix(0.0666667 0 0 0.0666667 -79.0336 -155)" d="M 3286.25,4916.34 L 3276.25,4916.16 L 3170.09,4687.59 L 3179.91,4687.41 L 3286.25,4916.34 Z " />
<path stroke="none" fill="#000000" transform="matrix(0.0666667 0 0 0.0666667 -79.0336 -155)" d="M 3199.83,5085.41 L 3190.17,5084.59 L 3276.25,4916.16 L 3286.25,4916.34 L 3199.83,5085.41 Z " />
<path stroke="none" fill="#000000" transform="matrix(0.0666667 0 0 0.0666667 -79.0336 -155)" d="M 3256.13,5265.54 L 3246.37,5264.46 L 3190.17,5084.59 L 3199.83,5085.41 L 3256.13,5265.54 Z " />
<path stroke="none" fill="#000000" transform="matrix(0.0666667 0 0 0.0666667 -79.0336 -155)" d="M 3133.15,5478.54 L 3125.37,5474.05 L 3246.37,5264.46 L 3256.13,5265.54 L 3133.15,5478.54 Z " />
<path stroke="#000000" stroke-width="9" fill="none" transform="matrix(0.0666667 0 0 0.0666667 -79.0336 -155)" d="M 3318.34,5381.57 A 187.5,187.5 0 0 0 3321.61,5194.1" />
<text x="0" y="0" stroke="none" fill="#000000" transform="matrix(0.0666667 0 0 0.0666667 144.925 205.722)" font-style="normal" font-weight="normal" font-size="105px" font-family="Arial" >
n</text>
<path stroke="#000000" stroke-width="9" fill="none" transform="matrix(0.0666667 0 0 0.0666667 -79.0336 -155)" d="M 3145,5191.25 A 187.5,187.5 0 0 0 3145,5378.75" />
<path stroke="#000000" stroke-width="9" fill="none" transform="matrix(0.0666667 0 0 0.0666667 -79.0336 -155)" d="M 4150,5200 A 0,0 0 0 0 4150,5200" />
<path stroke="#000000" stroke-width="9" fill="none" transform="matrix(0.0666667 0 0 0.0666667 -79.0336 -155)" d="M 4297.09,5374.07 A 187.5,187.5 0 0 0 4300.36,5186.6" />
<text x="0" y="0" stroke="none" fill="#000000" transform="matrix(0.0666667 0 0 0.0666667 210.175 205.222)" font-style="normal" font-weight="normal" font-size="105px" font-family="Arial" >
n</text>
<path stroke="#000000" stroke-width="9" fill="none" transform="matrix(0.0666667 0 0 0.0666667 -79.0336 -155)" d="M 4123.75,5183.75 A 187.5,187.5 0 0 0 4123.75,5371.25" />
<path stroke="#0000ff" stroke-width="9" fill="none" transform="matrix(0.0666667 0 0 0.0666667 -79.0336 -155)" d="M 4028.26,5602.72 A 187.343,187.343 0 0 0 4031.53,5415.41" />
<text x="0" y="0" stroke="none" fill="#0000ff" transform="matrix(0.0666667 0 0 0.0666667 192.253 220.466)" font-style="normal" font-weight="normal" font-size="105px" font-family="Arial" >
n</text>
<path stroke="#0000ff" stroke-width="9" fill="none" transform="matrix(0.0666667 0 0 0.0666667 -79.0336 -155)" d="M 3855.07,5412.56 A 187.343,187.343 0 0 0 3855.07,5599.9" />
<path stroke="none" fill="#0000ff" transform="matrix(0.0666667 0 0 0.0666667 -79.0336 -155)" d="M 3158.02,4909.75 L 3147.92,4906.76 L 3085.91,4674.59 L 3090,4672.5 L 3095.35,4675.13 L 3158.02,4909.75 Z " />
<path stroke="none" fill="#0000ff" transform="matrix(0.0666667 0 0 0.0666667 -79.0336 -155)" d="M 2959.27,5088.97 L 2948.69,5086.42 L 3147.92,4906.76 L 3158.02,4909.75 L 2959.27,5088.97 Z " />
<path stroke="none" fill="#0000ff" transform="matrix(0.0666667 0 0 0.0666667 -79.0336 -155)" d="M 3041.29,5304.91 L 3030.87,5302.77 L 2948.69,5086.42 L 2959.27,5088.97 L 3041.29,5304.91 Z " />
<path stroke="none" fill="#0000ff" transform="matrix(0.0666667 0 0 0.0666667 -79.0336 -155)" d="M 2888.09,5463.3 L 2877.67,5461.16 L 3030.87,5302.77 L 3041.29,5304.91 L 2888.09,5463.3 Z " />
<path stroke="none" fill="#0000ff" transform="matrix(0.0666667 0 0 0.0666667 -79.0336 -155)" d="M 2969.18,5676.78 L 2960.78,5679.97 L 2877.67,5461.16 L 2888.09,5463.3 L 2969.18,5676.78 Z " />
<path stroke="#0000ff" stroke-width="9" fill="none" transform="matrix(0.0666667 0 0 0.0666667 -79.0336 -155)" d="M 3003.24,5585.22 A 187.343,187.343 0 0 0 3006.51,5397.91" />
<text x="0" y="0" stroke="none" fill="#0000ff" transform="matrix(0.0666667 0 0 0.0666667 123.918 219.299)" font-style="normal" font-weight="normal" font-size="105px" font-family="Arial" >
n</text>
<path stroke="#0000ff" stroke-width="9" fill="none" transform="matrix(0.0666667 0 0 0.0666667 -79.0336 -155)" d="M 2830.04,5395.06 A 187.343,187.343 0 0 0 2830.04,5582.4" />
<path stroke="none" fill="#0000ff" transform="matrix(0.0666667 0 0 0.0666667 -79.0336 -155)" d="M 3095.35,4675.13 L 3090,4672.5 L 3091.36,4667.06 L 3305.51,4577.16 L 3310.05,4580.12 L 3310,4585.02 L 3095.35,4675.13 Z " />
<path stroke="none" fill="#0000ff" transform="matrix(0.0666667 0 0 0.0666667 -79.0336 -155)" d="M 3546.17,4005.16 L 3555.16,3999.97 L 3555.16,4243.63 L 3550.67,4246.55 L 3546.17,4243.65 L 3546.17,4005.16 Z " />
<text x="0" y="0" stroke="none" fill="#0000ff" transform="matrix(0.0666667 0 0 0.0666667 139.959 107.341)" font-style="normal" font-weight="normal" font-size="140px" font-family="Arial" >
O</text>
<path stroke="none" fill="#0000ff" transform="matrix(0.0666667 0 0 0.0666667 -79.0336 -155)" d="M 3404.67,3923.47 L 3409.16,3915.69 L 3555.16,3999.97 L 3546.17,4005.16 L 3404.67,3923.47 Z " />
<path stroke="none" fill="#0000ff" transform="matrix(0.0666667 0 0 0.0666667 -79.0336 -155)" d="M 3334.9,3639.21 L 3343.89,3634.04 L 3343.89,3810.11 L 3334.9,3810.11 L 3334.9,3639.21 Z " />
<path stroke="none" fill="#0000ff" transform="matrix(0.0666667 0 0 0.0666667 -79.0336 -155)" d="M 3123.57,3516.68 L 3132.55,3511.5 L 3343.89,3634.04 L 3334.9,3639.21 L 3123.57,3516.68 Z " />
<path stroke="none" fill="#0000ff" transform="matrix(0.0666667 0 0 0.0666667 -79.0336 -155)" d="M 3123.57,3272.9 L 3132.55,3267.71 L 3132.55,3511.5 L 3123.57,3516.68 L 3123.57,3272.9 Z " />
<path stroke="none" fill="#0000ff" transform="matrix(0.0666667 0 0 0.0666667 -79.0336 -155)" d="M 2912.45,3151.01 L 2921.43,3145.82 L 3132.55,3267.71 L 3123.57,3272.9 L 2912.45,3151.01 Z " />
<text x="0" y="0" stroke="none" fill="#0000ff" transform="matrix(0.0666667 0 0 0.0666667 112.329 42.2759)" font-style="normal" font-weight="normal" font-size="140px" font-family="Arial" >
P </text>
<text x="0" y="0" stroke="none" fill="#0000ff" transform="matrix(0.0666667 0 0 0.0666667 121.154 42.2759)" font-style="normal" font-weight="normal" font-size="140px" font-family="Arial" >
Ph</text>
<text x="0" y="0" stroke="none" fill="#0000ff" transform="matrix(0.0666667 0 0 0.0666667 132.579 44.3426)" font-style="normal" font-weight="normal" font-size="105px" font-family="Arial" >
3</text>
<path stroke="none" fill="#0000ff" transform="matrix(0.0666667 0 0 0.0666667 -79.0336 -155)" d="M 2912.45,2985.47 L 2921.43,2985.47 L 2921.43,3145.82 L 2912.45,3151.01 L 2912.45,2985.47 Z " />
<text x="0" y="0" stroke="none" fill="#0000ff" transform="matrix(0.0666667 0 0 0.0666667 154.019 82.9058)" font-style="normal" font-weight="normal" font-size="140px" font-family="Arial" >
O</text>
<path stroke="none" fill="#0000ff" transform="matrix(0.0666667 0 0 0.0666667 -79.0336 -155)" d="M 3468.78,3528.04 L 3473.3,3535.81 L 3317.35,3626.42 L 3312.84,3618.65 L 3468.78,3528.04 Z " />
<path stroke="none" fill="#0000ff" transform="matrix(0.0666667 0 0 0.0666667 -79.0336 -155)" d="M 3493.29,3570.22 L 3497.81,3577.99 L 3341.65,3668.72 L 3337.14,3660.95 L 3493.29,3570.22 Z " />
<path stroke="none" fill="#0000ff" transform="matrix(0.0666667 0 0 0.0666667 -79.0336 -155)" d="M 2959.24,2841.31 L 3014.89,2841.31 L 3014.89,2848.31 L 2959.24,2848.31 Z " />
<path stroke="none" fill="#0000ff" transform="matrix(0.0666667 0 0 0.0666667 -79.0336 -155)" d="M 2990.57,2816.99 L 2990.57,2872.64 L 2983.57,2872.64 L 2983.57,2816.99 Z " />
<text x="0" y="0" stroke="none" fill="#0000ff" transform="matrix(0.0666667 0 0 0.0666667 121.028 32.279)" font-style="normal" font-weight="normal" font-size="140px" font-family="Arial" >
Br</text>
<path stroke="none" fill="#0000ff" transform="matrix(0.0666667 0 0 0.0666667 -79.0336 -155)" d="M 3139.11,2655.36 L 3194.76,2655.36 L 3194.76,2662.36 L 3139.11,2662.36 Z " />
<text x="0" y="0" stroke="none" fill="#000000" transform="matrix(0.0666667 0 0 0.0666667 118.966 251.667)" font-style="normal" font-weight="normal" font-size="200px" font-family="Arial" >
C</text>
<text x="0" y="0" stroke="none" fill="#000000" transform="matrix(0.0666667 0 0 0.0666667 128.595 254.6)" font-style="normal" font-weight="normal" font-size="150px" font-family="Arial" >
11</text>
<text x="0" y="0" stroke="none" fill="#000000" transform="matrix(0.0666667 0 0 0.0666667 139.718 251.667)" font-style="normal" font-weight="normal" font-size="200px" font-family="Arial" >
-TPP </text>
<text x="0" y="0" stroke="none" fill="#000000" transform="matrix(0.0666667 0 0 0.0666667 173.849 251.667)" font-style="normal" font-weight="normal" font-size="200px" font-family="Arial" >
n </text>
<text x="0" y="0" stroke="none" fill="#000000" transform="matrix(0.0666667 0 0 0.0666667 184.998 251.667)" font-style="normal" font-weight="normal" font-size="200px" font-family="Arial" >
= </text>
<text x="0" y="0" stroke="none" fill="#000000" transform="matrix(0.0666667 0 0 0.0666667 196.531 251.667)" font-style="normal" font-weight="normal" font-size="200px" font-family="Arial" >
7</text>
</svg>
