<?xml version="1.0" standalone="no" ?>
<!DOCTYPE svg PUBLIC "-//W3C//DTD SVG 1.1//EN" "http://www.w3.org/Graphics/SVG/1.1/DTD/svg11.dtd">
<svg width="611px" height="215px" viewBox="0 0 611 215" style="background-color: #ffffff00" xmlns="http://www.w3.org/2000/svg" xmlns:xlink="http://www.w3.org/1999/xlink" version="1.1" >
<text x="0" y="0" stroke="none" fill="#000000" transform="matrix(0.0666667 0 0 0.0666667 67.583 50.6333)" font-style="normal" font-weight="normal" font-size="140px" font-family="Arial" >
O</text>
<path stroke="none" fill="#000000" transform="matrix(0.0666667 0 0 0.0666667 -44.0003 -431.867)" d="M 1757.14,7441.07 L 1748.16,7441.07 L 1748.16,7263.5 L 1757.14,7263.5 L 1757.14,7441.07 Z " />
<path stroke="none" fill="#000000" transform="matrix(0.0666667 0 0 0.0666667 -44.0003 -431.867)" d="M 1708.34,7441.07 L 1699.36,7441.07 L 1699.36,7263.5 L 1708.34,7263.5 L 1708.34,7441.07 Z " />
<text x="0" y="0" stroke="none" fill="#000000" transform="matrix(0.0666667 0 0 0.0666667 81.6695 75.0318)" font-style="normal" font-weight="normal" font-size="140px" font-family="Arial" >
O</text>
<path stroke="none" fill="#000000" transform="matrix(0.0666667 0 0 0.0666667 -44.0003 -431.867)" d="M 1879.82,7509.31 L 1875.33,7517.09 L 1728.25,7432.17 L 1728.25,7421.8 L 1879.82,7509.31 Z " />
<path stroke="none" fill="#000000" transform="matrix(0.0666667 0 0 0.0666667 -44.0003 -431.867)" d="M 1519.2,7552.87 L 1514.71,7545.09 L 1728.25,7421.8 L 1728.25,7432.17 L 1519.2,7552.87 Z " />
<path stroke="none" fill="#ff0000" transform="matrix(0.0666667 0 0 0.0666667 -44.0003 -431.867)" d="M 1307.32,7582.5 A 137.682,137.682 0 1 0 1582.68,7582.5A 137.682,137.682 0 1 0 1307.32,7582.5Z " />
<path stroke="none" fill="#000000" transform="matrix(0.0666667 0 0 0.0666667 -44.0003 -431.867)" d="M 2862.39,7438.19 L 2178.75,7438.19 L 2178.75,7429.19 L 2862.39,7429.19 Z " />
<path stroke="none" fill="#000000" transform="matrix(0.0666667 0 0 0.0666667 -44.0003 -431.867)" d="M 2940,7433.69 C 2940,7433.69 2850.16,7457.15 2850.16,7457.15 C 2850.16,7457.15 2861.39,7443.95 2861.39,7433.69 C 2861.39,7422.99 2850.16,7409.23 2850.16,7409.23 C 2850.16,7409.23 2940,7433.69 2940,7433.69 C 2940,7433.69 2940,7433.69 2940,7433.69 " />
<path stroke="#000000" stroke-width="1" fill="none" transform="matrix(0.0666667 0 0 0.0666667 -44.0003 -431.867)" d="M 2940,7433.69 C 2940,7433.69 2850.16,7457.15 2850.16,7457.15 C 2850.16,7457.15 2861.39,7443.95 2861.39,7433.69 C 2861.39,7422.99 2850.16,7409.23 2850.16,7409.23 C 2850.16,7409.23 2940,7433.69 2940,7433.69 C 2940,7433.69 2940,7433.69 2940,7433.69 " />
<path stroke="#000000" stroke-width="9" fill="none" transform="matrix(0.0666667 0 0 0.0666667 -44.0003 -431.867)" d="M 2876.59,7434.56 C 2601.47,7451.56 2350.86,7656.21 2279.22,7922.39 " />
<path stroke="none" fill="#000000" transform="matrix(0.0666667 0 0 0.0666667 -44.0003 -431.867)" d="M 2944.5,7433.69 C 2944.5,7433.69 2881.09,7434.56 2881.09,7434.56 C 2876.04,7426.12 2866.29,7415.57 2866.29,7415.57 C 2866.29,7415.57 2944.5,7433.69 2944.5,7433.69 C 2944.5,7433.69 2944.5,7433.69 2944.5,7433.69 " />
<path stroke="#000000" stroke-width="1" fill="none" transform="matrix(0.0666667 0 0 0.0666667 -44.0003 -431.867)" d="M 2944.5,7433.69 C 2944.5,7433.69 2881.09,7434.56 2881.09,7434.56 C 2876.04,7426.12 2866.29,7415.57 2866.29,7415.57 C 2866.29,7415.57 2944.5,7433.69 2944.5,7433.69 C 2944.5,7433.69 2944.5,7433.69 2944.5,7433.69 " />
<text x="0" y="0" stroke="none" fill="#0000ff" transform="matrix(0.0666667 0 0 0.0666667 101.75 124.133)" font-style="normal" font-weight="normal" font-size="140px" font-family="Arial" >
NH</text>
<path stroke="none" fill="#0000ff" transform="matrix(0.0666667 0 0 0.0666667 -44.0003 -431.867)" d="M 2177.27,8524.84 L 2169.93,8517.5 L 2209.42,8370.14 L 2218.1,8372.47 L 2177.27,8524.84 Z " />
<path stroke="none" fill="#0000ff" transform="matrix(0.0666667 0 0 0.0666667 -44.0003 -431.867)" d="M 1941.6,8587.99 L 1934.26,8580.65 L 2169.93,8517.5 L 2177.27,8524.84 L 1941.6,8587.99 Z " />
<path stroke="none" fill="#0000ff" transform="matrix(0.0666667 0 0 0.0666667 -44.0003 -431.867)" d="M 1878.45,8823.66 L 1871.12,8816.32 L 1934.26,8580.65 L 1941.6,8587.99 L 1878.45,8823.66 Z " />
<text x="0" y="0" stroke="none" fill="#0000ff" transform="matrix(0.0666667 0 0 0.0666667 61.9072 163.976)" font-style="normal" font-weight="normal" font-size="140px" font-family="Arial" >
N</text>
<path stroke="none" fill="#0000ff" transform="matrix(0.0666667 0 0 0.0666667 -44.0003 -431.867)" d="M 1710.39,8868.69 L 1708.06,8860.01 L 1871.12,8816.32 L 1878.45,8823.66 L 1710.39,8868.69 Z " />
<path stroke="none" fill="#0000ff" transform="matrix(0.0666667 0 0 0.0666667 -44.0003 -431.867)" d="M 2061.05,8116.15 L 2067.4,8109.8 L 2180.75,8223.15 L 2174.4,8229.5 L 2061.05,8116.15 Z " />
<text x="0" y="0" stroke="none" fill="#0000ff" transform="matrix(0.0666667 0 0 0.0666667 57.6973 179.687)" font-style="normal" font-weight="normal" font-size="140px" font-family="Arial" >
C</text>
<path stroke="none" fill="#0000ff" transform="matrix(0.0666667 0 0 0.0666667 -44.0003 -431.867)" d="M 1622.39,9057.18 L 1613.71,9054.85 L 1635.77,8972.54 L 1644.44,8974.86 L 1622.39,9057.18 Z " />
<path stroke="none" fill="#0000ff" transform="matrix(0.0666667 0 0 0.0666667 -44.0003 -431.867)" d="M 1575.25,9044.55 L 1566.58,9042.22 L 1588.63,8959.91 L 1597.31,8962.24 L 1575.25,9044.55 Z " />
<text x="0" y="0" stroke="none" fill="#0000ff" transform="matrix(0.0666667 0 0 0.0666667 53.4875 195.399)" font-style="normal" font-weight="normal" font-size="140px" font-family="Arial" >
N</text>
<path stroke="none" fill="#0000ff" transform="matrix(0.0666667 0 0 0.0666667 -44.0003 -431.867)" d="M 1560.56,9287.91 L 1551.89,9285.58 L 1573.94,9203.27 L 1582.62,9205.59 L 1560.56,9287.91 Z " />
<path stroke="none" fill="#0000ff" transform="matrix(0.0666667 0 0 0.0666667 -44.0003 -431.867)" d="M 1513.43,9275.28 L 1504.75,9272.95 L 1526.81,9190.64 L 1535.49,9192.96 L 1513.43,9275.28 Z " />
<path stroke="none" fill="#0000ff" transform="matrix(0.0666667 0 0 0.0666667 -44.0003 -431.867)" d="M 1280.81,9421.29 L 1273.48,9413.96 L 1440.44,9369.22 L 1442.77,9377.9 L 1280.81,9421.29 Z " />
<path stroke="none" fill="#0000ff" transform="matrix(0.0666667 0 0 0.0666667 -44.0003 -431.867)" d="M 1218.34,9654.46 L 1209.66,9652.13 L 1273.48,9413.96 L 1280.81,9421.29 L 1218.34,9654.46 Z " />
<path stroke="none" fill="#0000ff" transform="matrix(0.0666667 0 0 0.0666667 -44.0003 -431.867)" d="M 2089.15,8282 L 2144.8,8282 L 2144.8,8289 L 2089.15,8289 Z " />
<path stroke="none" fill="#0000ff" transform="matrix(0.0666667 0 0 0.0666667 -44.0003 -431.867)" d="M 2120.48,8257.67 L 2120.48,8313.33 L 2113.48,8313.33 L 2113.48,8257.67 Z " />
<text x="0" y="0" stroke="none" fill="#0000ff" transform="matrix(0.0666667 0 0 0.0666667 104.25 112.383)" font-style="normal" font-weight="normal" font-size="140px" font-family="Arial" >
Cl</text>
<path stroke="none" fill="#0000ff" transform="matrix(0.0666667 0 0 0.0666667 -44.0003 -431.867)" d="M 2354.96,8012.82 L 2410.61,8012.82 L 2410.61,8019.82 L 2354.96,8019.82 Z " />
<path stroke="none" fill="#0000ff" transform="matrix(0.0666667 0 0 0.0666667 -44.0003 -431.867)" d="M 2572.41,8218.01 L 2574.74,8226.69 L 2409.12,8271.07 L 2406.79,8262.39 L 2572.41,8218.01 Z " />
<text x="0" y="0" stroke="none" fill="#000000" transform="matrix(0.0666667 0 0 0.0666667 190.583 79.3)" font-style="normal" font-weight="normal" font-size="140px" font-family="Arial" >
O</text>
<path stroke="none" fill="#000000" transform="matrix(0.0666667 0 0 0.0666667 -44.0003 -431.867)" d="M 3602.14,7871.07 L 3593.16,7871.07 L 3593.16,7693.5 L 3602.14,7693.5 L 3602.14,7871.07 Z " />
<path stroke="none" fill="#000000" transform="matrix(0.0666667 0 0 0.0666667 -44.0003 -431.867)" d="M 3553.34,7871.07 L 3544.36,7871.07 L 3544.36,7693.5 L 3553.34,7693.5 L 3553.34,7871.07 Z " />
<text x="0" y="0" stroke="none" fill="#000000" transform="matrix(0.0666667 0 0 0.0666667 204.669 103.698)" font-style="normal" font-weight="normal" font-size="140px" font-family="Arial" >
O</text>
<path stroke="none" fill="#000000" transform="matrix(0.0666667 0 0 0.0666667 -44.0003 -431.867)" d="M 3724.82,7939.31 L 3720.33,7947.09 L 3573.25,7862.17 L 3573.25,7851.8 L 3724.82,7939.31 Z " />
<path stroke="none" fill="#000000" transform="matrix(0.0666667 0 0 0.0666667 -44.0003 -431.867)" d="M 3364.2,7982.87 L 3359.71,7975.09 L 3573.25,7851.8 L 3573.25,7862.17 L 3364.2,7982.87 Z " />
<path stroke="none" fill="#ff0000" transform="matrix(0.0666667 0 0 0.0666667 -44.0003 -431.867)" d="M 3163.57,8005 A 137.682,137.682 0 1 0 3438.93,8005A 137.682,137.682 0 1 0 3163.57,8005Z " />
<path stroke="none" fill="#000000" transform="matrix(0.0666667 0 0 0.0666667 -44.0003 -431.867)" d="M 1996.45,7460.75 L 2052.1,7460.75 L 2052.1,7467.75 L 1996.45,7467.75 Z " />
<path stroke="none" fill="#000000" transform="matrix(0.0666667 0 0 0.0666667 -44.0003 -431.867)" d="M 3991.35,7854.39 L 3995.84,7856.98 L 3995.84,7862.17 L 3848.99,7946.95 L 3844.5,7939.17 L 3991.35,7854.39 Z " />
<text x="0" y="0" stroke="none" fill="#000000" transform="matrix(0.0666667 0 0 0.0666667 233.109 103.698)" font-style="normal" font-weight="normal" font-size="140px" font-family="Arial" >
NH</text>
<path stroke="none" fill="#000000" transform="matrix(0.0666667 0 0 0.0666667 -44.0003 -431.867)" d="M 4139.42,7934.69 L 4134.93,7942.47 L 3995.84,7862.17 L 3995.84,7856.98 L 4000.34,7854.39 L 4139.42,7934.69 Z " />
<text x="0" y="0" stroke="none" fill="#000000" transform="matrix(0.0666667 0 0 0.0666667 219.023 79.3)" font-style="normal" font-weight="normal" font-size="140px" font-family="Arial" >
N</text>
<path stroke="none" fill="#000000" transform="matrix(0.0666667 0 0 0.0666667 -44.0003 -431.867)" d="M 3991.35,7691.83 L 4000.34,7691.83 L 4000.34,7854.39 L 3995.84,7856.98 L 3991.35,7854.39 L 3991.35,7691.83 Z " />
<path stroke="none" fill="#000000" transform="matrix(0.0666667 0 0 0.0666667 -44.0003 -431.867)" d="M 3942.55,7691.83 L 3951.54,7691.83 L 3951.54,7828.81 L 3942.55,7828.81 L 3942.55,7691.83 Z " />
<path stroke="none" fill="#000000" transform="matrix(0.0666667 0 0 0.0666667 -44.0003 -431.867)" d="M 4211.63,8220.37 L 4202.65,8225.55 L 4202.65,8057.81 L 4211.63,8057.81 L 4211.63,8220.37 Z " />
<path stroke="none" fill="#000000" transform="matrix(0.0666667 0 0 0.0666667 -44.0003 -431.867)" d="M 4420.68,8341.06 L 4416.19,8348.84 L 4202.65,8225.55 L 4211.63,8220.37 L 4420.68,8341.06 Z " />
<path stroke="none" fill="#000000" transform="matrix(0.0666667 0 0 0.0666667 -44.0003 -431.867)" d="M 3780.05,7493.6 L 3789.04,7488.41 L 3928.12,7568.71 L 3923.63,7576.49 L 3780.05,7493.6 Z " />
<path stroke="none" fill="#000000" transform="matrix(0.0666667 0 0 0.0666667 -44.0003 -431.867)" d="M 3780.05,7249.62 L 3789.04,7244.43 L 3789.04,7488.41 L 3780.05,7493.6 L 3780.05,7249.62 Z " />
<path stroke="none" fill="#000000" transform="matrix(0.0666667 0 0 0.0666667 -44.0003 -431.867)" d="M 3568.76,7127.62 L 3577.74,7122.44 L 3789.04,7244.43 L 3780.05,7249.62 L 3568.76,7127.62 Z " />
<text x="0" y="0" stroke="none" fill="#000000" transform="matrix(0.0666667 0 0 0.0666667 187.476 30.5031)" font-style="normal" font-weight="normal" font-size="140px" font-family="Arial" >
NH</text>
<path stroke="none" fill="#000000" transform="matrix(0.0666667 0 0 0.0666667 -44.0003 -431.867)" d="M 3568.76,6959.88 L 3577.74,6959.88 L 3577.74,7122.44 L 3568.76,7127.62 L 3568.76,6959.88 Z " />
<path stroke="none" fill="#000000" transform="matrix(0.0666667 0 0 0.0666667 -44.0003 -431.867)" d="M 3359.71,6762.94 L 3364.2,6755.16 L 3467.58,6814.85 L 3463.08,6822.63 L 3359.71,6762.94 Z " />
<path stroke="none" fill="#000000" transform="matrix(0.0666667 0 0 0.0666667 -44.0003 -431.867)" d="M 3545.48,6757.72 L 3601.13,6757.72 L 3601.13,6764.72 L 3545.48,6764.72 Z " />
<path stroke="none" fill="#000000" transform="matrix(0.0666667 0 0 0.0666667 -44.0003 -431.867)" d="M 3576.8,6733.4 L 3576.8,6789.05 L 3569.8,6789.05 L 3569.8,6733.4 Z " />
<path stroke="none" fill="#000000" transform="matrix(0.0666667 0 0 0.0666667 -44.0003 -431.867)" d="M 3884.27,6754.8 L 3887.13,6763.31 L 3686.16,6830.85 L 3683.3,6822.34 L 3884.27,6754.8 Z " />
<text x="0" y="0" stroke="none" fill="#000000" transform="matrix(0.0666667 0 0 0.0666667 196.166 14.2167)" font-style="normal" font-weight="normal" font-size="140px" font-family="Arial" >
Cl</text>
<path stroke="none" fill="#000000" transform="matrix(0.0666667 0 0 0.0666667 -44.0003 -431.867)" d="M 3733.71,6540.32 L 3789.36,6540.32 L 3789.36,6547.32 L 3733.71,6547.32 Z " />
<text x="0" y="0" stroke="none" fill="#000000" transform="matrix(0.0666667 0 0 0.0666667 388.25 51.9667)" font-style="normal" font-weight="normal" font-size="140px" font-family="Arial" >
O</text>
<path stroke="none" fill="#000000" transform="matrix(0.0666667 0 0 0.0666667 -44.0003 -431.867)" d="M 6567.14,7461.07 L 6558.16,7461.07 L 6558.16,7283.5 L 6567.14,7283.5 L 6567.14,7461.07 Z " />
<path stroke="none" fill="#000000" transform="matrix(0.0666667 0 0 0.0666667 -44.0003 -431.867)" d="M 6518.34,7461.07 L 6509.36,7461.07 L 6509.36,7283.5 L 6518.34,7283.5 L 6518.34,7461.07 Z " />
<text x="0" y="0" stroke="none" fill="#000000" transform="matrix(0.0666667 0 0 0.0666667 402.336 76.3651)" font-style="normal" font-weight="normal" font-size="140px" font-family="Arial" >
O</text>
<path stroke="none" fill="#000000" transform="matrix(0.0666667 0 0 0.0666667 -44.0003 -431.867)" d="M 6689.82,7529.31 L 6685.33,7537.09 L 6538.25,7452.17 L 6538.25,7441.8 L 6689.82,7529.31 Z " />
<path stroke="none" fill="#000000" transform="matrix(0.0666667 0 0 0.0666667 -44.0003 -431.867)" d="M 6329.2,7572.87 L 6324.71,7565.09 L 6538.25,7441.8 L 6538.25,7452.17 L 6329.2,7572.87 Z " />
<path stroke="none" fill="#ff0000" transform="matrix(0.0666667 0 0 0.0666667 -44.0003 -431.867)" d="M 6124.82,7598.75 A 137.682,137.682 0 1 0 6400.18,7598.75A 137.682,137.682 0 1 0 6124.82,7598.75Z " />
<path stroke="none" fill="#000000" transform="matrix(0.0666667 0 0 0.0666667 -44.0003 -431.867)" d="M 5802.39,7438.19 L 4601.86,7438.19 L 4601.86,7429.19 L 5802.39,7429.19 Z " />
<path stroke="none" fill="#000000" transform="matrix(0.0666667 0 0 0.0666667 -44.0003 -431.867)" d="M 5880,7433.69 C 5880,7433.69 5790.16,7457.15 5790.16,7457.15 C 5790.16,7457.15 5801.39,7443.95 5801.39,7433.69 C 5801.39,7422.98 5790.16,7409.23 5790.16,7409.23 C 5790.16,7409.23 5880,7433.69 5880,7433.69 C 5880,7433.69 5880,7433.69 5880,7433.69 " />
<path stroke="#000000" stroke-width="1" fill="none" transform="matrix(0.0666667 0 0 0.0666667 -44.0003 -431.867)" d="M 5880,7433.69 C 5880,7433.69 5790.16,7457.15 5790.16,7457.15 C 5790.16,7457.15 5801.39,7443.95 5801.39,7433.69 C 5801.39,7422.98 5790.16,7409.23 5790.16,7409.23 C 5790.16,7409.23 5880,7433.69 5880,7433.69 C 5880,7433.69 5880,7433.69 5880,7433.69 " />
<path stroke="#000000" stroke-width="9" fill="none" transform="matrix(0.0666667 0 0 0.0666667 -44.0003 -431.867)" d="M 5816.59,7434.56 C 5541.47,7451.56 5290.86,7656.22 5219.22,7922.4 " />
<path stroke="none" fill="#000000" transform="matrix(0.0666667 0 0 0.0666667 -44.0003 -431.867)" d="M 5884.5,7433.69 C 5884.5,7433.69 5821.09,7434.56 5821.09,7434.56 C 5816.04,7426.13 5806.29,7415.57 5806.29,7415.57 C 5806.29,7415.57 5884.5,7433.69 5884.5,7433.69 C 5884.5,7433.69 5884.5,7433.69 5884.5,7433.69 " />
<path stroke="#000000" stroke-width="1" fill="none" transform="matrix(0.0666667 0 0 0.0666667 -44.0003 -431.867)" d="M 5884.5,7433.69 C 5884.5,7433.69 5821.09,7434.56 5821.09,7434.56 C 5816.04,7426.13 5806.29,7415.57 5806.29,7415.57 C 5806.29,7415.57 5884.5,7433.69 5884.5,7433.69 C 5884.5,7433.69 5884.5,7433.69 5884.5,7433.69 " />
<text x="0" y="0" stroke="none" fill="#0000ff" transform="matrix(0.0666667 0 0 0.0666667 283.255 125.637)" font-style="normal" font-weight="normal" font-size="140px" font-family="Arial" >
N</text>
<path stroke="none" fill="#0000ff" transform="matrix(0.0666667 0 0 0.0666667 -44.0003 -431.867)" d="M 4963.82,8067.84 L 4954.84,8060.95 L 5196.77,7996.12 L 5193.23,8006.38 L 4963.82,8067.84 Z " />
<path stroke="none" fill="#0000ff" transform="matrix(0.0666667 0 0 0.0666667 -44.0003 -431.867)" d="M 4963.82,8239.88 L 4954.84,8239.88 L 4954.84,8060.95 L 4963.82,8067.84 L 4963.82,8239.88 Z " />
<path stroke="none" fill="#0000ff" transform="matrix(0.0666667 0 0 0.0666667 -44.0003 -431.867)" d="M 5193.54,8390.15 L 5196.46,8400.82 L 5029.67,8338.94 L 5032.79,8330.51 L 5193.54,8390.15 Z " />
<path stroke="none" fill="#0000ff" transform="matrix(0.0666667 0 0 0.0666667 -44.0003 -431.867)" d="M 5342.85,8205.77 L 5354.24,8205.98 L 5196.46,8400.82 L 5193.54,8390.15 L 5342.85,8205.77 Z " />
<path stroke="none" fill="#0000ff" transform="matrix(0.0666667 0 0 0.0666667 -44.0003 -431.867)" d="M 5193.23,8006.38 L 5196.77,7996.12 L 5354.24,8205.98 L 5342.85,8205.77 L 5193.23,8006.38 Z " />
<text x="0" y="0" stroke="none" fill="#0000ff" transform="matrix(0.0666667 0 0 0.0666667 302.91 147.177)" font-style="normal" font-weight="normal" font-size="140px" font-family="Arial" >
O</text>
<path stroke="none" fill="#0000ff" transform="matrix(0.0666667 0 0 0.0666667 -44.0003 -431.867)" d="M 5267.74,8555.32 L 5259.06,8557.64 L 5209.64,8373.21 L 5218.32,8370.88 L 5267.74,8555.32 Z " />
<path stroke="none" fill="#0000ff" transform="matrix(0.0666667 0 0 0.0666667 -44.0003 -431.867)" d="M 5220.6,8567.95 L 5211.92,8570.27 L 5162.61,8386.24 L 5171.29,8383.92 L 5220.6,8567.95 Z " />
<text x="0" y="0" stroke="none" fill="#0000ff" transform="matrix(0.0666667 0 0 0.0666667 268.902 101.26)" font-style="normal" font-weight="normal" font-size="140px" font-family="Arial" >
O</text>
<path stroke="none" fill="#0000ff" transform="matrix(0.0666667 0 0 0.0666667 -44.0003 -431.867)" d="M 4801.1,8006.4 L 4805.59,7998.62 L 4961.58,8088.68 L 4957.08,8096.46 L 4801.1,8006.4 Z " />
<path stroke="none" fill="#0000ff" transform="matrix(0.0666667 0 0 0.0666667 -44.0003 -431.867)" d="M 4825.5,7964.15 L 4829.99,7956.36 L 4994.9,8051.58 L 4990.41,8059.36 L 4825.5,7964.15 Z " />
<text x="0" y="0" stroke="none" fill="#0000ff" transform="matrix(0.0666667 0 0 0.0666667 264.747 137.138)" font-style="normal" font-weight="normal" font-size="140px" font-family="Arial" >
HO</text>
<path stroke="none" fill="#0000ff" transform="matrix(0.0666667 0 0 0.0666667 -44.0003 -431.867)" d="M 4840.61,8433.12 L 4834.26,8426.77 L 4891.81,8369.22 L 4898.16,8375.57 L 4840.61,8433.12 Z " />
<text x="0" y="0" stroke="none" fill="#000000" transform="matrix(0.0666667 0 0 0.0666667 416.689 68.2323)" font-style="normal" font-weight="normal" font-size="140px" font-family="Arial" >
N</text>
<path stroke="none" fill="#000000" transform="matrix(0.0666667 0 0 0.0666667 -44.0003 -431.867)" d="M 6884.01,7486.16 L 6888.5,7493.94 L 6813.99,7536.95 L 6809.5,7529.17 L 6884.01,7486.16 Z " />
<path stroke="none" fill="#000000" transform="matrix(0.0666667 0 0 0.0666667 -44.0003 -431.867)" d="M 7182.58,7540.79 L 7184.89,7551.65 L 7032.13,7483.64 L 7035.78,7475.43 L 7182.58,7540.79 Z " />
<path stroke="none" fill="#000000" transform="matrix(0.0666667 0 0 0.0666667 -44.0003 -431.867)" d="M 7341.47,7364.33 L 7352.51,7365.49 L 7184.89,7551.65 L 7182.58,7540.79 L 7341.47,7364.33 Z " />
<path stroke="none" fill="#000000" transform="matrix(0.0666667 0 0 0.0666667 -44.0003 -431.867)" d="M 7222.74,7158.68 L 7227.26,7148.54 L 7352.51,7365.49 L 7341.47,7364.33 L 7222.74,7158.68 Z " />
<path stroke="none" fill="#000000" transform="matrix(0.0666667 0 0 0.0666667 -44.0003 -431.867)" d="M 6990.47,7208.05 L 6982.22,7200.62 L 7227.26,7148.54 L 7222.74,7158.68 L 6990.47,7208.05 Z " />
<path stroke="none" fill="#000000" transform="matrix(0.0666667 0 0 0.0666667 -44.0003 -431.867)" d="M 6972.41,7379.9 L 6963.48,7378.96 L 6982.22,7200.62 L 6990.47,7208.05 L 6972.41,7379.9 Z " />
<text x="0" y="0" stroke="none" fill="#000000" transform="matrix(0.0666667 0 0 0.0666667 406.621 40.5542)" font-style="normal" font-weight="normal" font-size="140px" font-family="Arial" >
O</text>
<path stroke="none" fill="#000000" transform="matrix(0.0666667 0 0 0.0666667 -44.0003 -431.867)" d="M 6850.07,7108.92 L 6856.43,7102.57 L 6986.24,7232.38 L 6979.89,7238.74 L 6850.07,7108.92 Z " />
<path stroke="none" fill="#000000" transform="matrix(0.0666667 0 0 0.0666667 -44.0003 -431.867)" d="M 6884.58,7074.42 L 6890.93,7068.06 L 7017.98,7195.11 L 7011.63,7201.46 L 6884.58,7074.42 Z " />
<text x="0" y="0" stroke="none" fill="#000000" transform="matrix(0.0666667 0 0 0.0666667 435.492 90.5595)" font-style="normal" font-weight="normal" font-size="140px" font-family="Arial" >
O</text>
<path stroke="none" fill="#000000" transform="matrix(0.0666667 0 0 0.0666667 -44.0003 -431.867)" d="M 7256.47,7706.06 L 7247.79,7708.38 L 7198.86,7525.76 L 7207.54,7523.44 L 7256.47,7706.06 Z " />
<path stroke="none" fill="#000000" transform="matrix(0.0666667 0 0 0.0666667 -44.0003 -431.867)" d="M 7209.34,7718.69 L 7200.66,7721.01 L 7150.71,7534.61 L 7159.39,7532.29 L 7209.34,7718.69 Z " />
<path stroke="none" fill="#000000" transform="matrix(0.0666667 0 0 0.0666667 -44.0003 -431.867)" d="M 8395.75,7432.06 L 7565.86,7432.06 L 7565.86,7423.06 L 8395.75,7423.06 Z " />
<path stroke="none" fill="#000000" transform="matrix(0.0666667 0 0 0.0666667 -44.0003 -431.867)" d="M 8473.36,7427.56 C 8473.36,7427.56 8383.52,7451.02 8383.52,7451.02 C 8383.52,7451.02 8394.75,7437.83 8394.75,7427.56 C 8394.75,7416.86 8383.52,7403.1 8383.52,7403.1 C 8383.52,7403.1 8473.36,7427.56 8473.36,7427.56 C 8473.36,7427.56 8473.36,7427.56 8473.36,7427.56 " />
<path stroke="#000000" stroke-width="1" fill="none" transform="matrix(0.0666667 0 0 0.0666667 -44.0003 -431.867)" d="M 8473.36,7427.56 C 8473.36,7427.56 8383.52,7451.02 8383.52,7451.02 C 8383.52,7451.02 8394.75,7437.83 8394.75,7427.56 C 8394.75,7416.86 8383.52,7403.1 8383.52,7403.1 C 8383.52,7403.1 8473.36,7427.56 8473.36,7427.56 C 8473.36,7427.56 8473.36,7427.56 8473.36,7427.56 " />
<text x="0" y="0" stroke="none" fill="#0000ff" transform="matrix(0.0666667 0 0 0.0666667 495.674 50.9375)" font-style="normal" font-weight="normal" font-size="140px" font-family="Arial" >
NH</text>
<text x="0" y="0" stroke="none" fill="#0000ff" transform="matrix(0.0666667 0 0 0.0666667 509.155 53.0042)" font-style="normal" font-weight="normal" font-size="105px" font-family="Arial" >
2</text>
<path stroke="none" fill="#0000ff" transform="matrix(0.0666667 0 0 0.0666667 -44.0003 -431.867)" d="M 8081.12,7183.07 L 8081.12,7192.05 L 7901.64,7192.05 L 7901.64,7183.07 L 8081.12,7183.07 Z " />
<path stroke="none" fill="#c0c0c0" transform="matrix(0.0666667 0 0 0.0666667 -44.0003 -431.867)" d="M 7691.46,7180.06 A 137.682,137.682 0 1 0 7966.82,7180.06A 137.682,137.682 0 1 0 7691.46,7180.06Z " />
<path stroke="#0000ff" stroke-width="9" fill="none" transform="matrix(0.0666667 0 0 0.0666667 -44.0003 -431.867)" d="M 7687.89,7183.81 A 138.75,138.75 0 1 0 7965.39,7183.81A 138.75,138.75 0 1 0 7687.89,7183.81Z " />
<text x="0" y="0" stroke="none" fill="#000000" transform="matrix(0.0666667 0 0 0.0666667 558.25 49.8)" font-style="normal" font-weight="normal" font-size="140px" font-family="Arial" >
O</text>
<path stroke="none" fill="#000000" transform="matrix(0.0666667 0 0 0.0666667 -44.0003 -431.867)" d="M 9117.14,7428.57 L 9108.16,7428.57 L 9108.16,7251 L 9117.14,7251 L 9117.14,7428.57 Z " />
<path stroke="none" fill="#000000" transform="matrix(0.0666667 0 0 0.0666667 -44.0003 -431.867)" d="M 9068.34,7428.57 L 9059.36,7428.57 L 9059.36,7251 L 9068.34,7251 L 9068.34,7428.57 Z " />
<text x="0" y="0" stroke="none" fill="#000000" transform="matrix(0.0666667 0 0 0.0666667 572.603 74.1984)" font-style="normal" font-weight="normal" font-size="140px" font-family="Arial" >
N</text>
<text x="0" y="0" stroke="none" fill="#000000" transform="matrix(0.0666667 0 0 0.0666667 572.603 81.9762)" font-style="normal" font-weight="normal" font-size="140px" font-family="Arial" >
H</text>
<path stroke="none" fill="#000000" transform="matrix(0.0666667 0 0 0.0666667 -44.0003 -431.867)" d="M 9231.83,7492.19 L 9227.33,7499.97 L 9088.25,7419.67 L 9088.25,7409.3 L 9231.83,7492.19 Z " />
<path stroke="none" fill="#000000" transform="matrix(0.0666667 0 0 0.0666667 -44.0003 -431.867)" d="M 8879.2,7540.37 L 8874.71,7532.59 L 9088.25,7409.3 L 9088.25,7419.67 L 8879.2,7540.37 Z " />
<path stroke="none" fill="#ff0000" transform="matrix(0.0666667 0 0 0.0666667 -44.0003 -431.867)" d="M 8663.57,7573.75 A 137.682,137.682 0 1 0 8938.93,7573.75A 137.682,137.682 0 1 0 8663.57,7573.75Z " />
<path stroke="none" fill="#000000" transform="matrix(0.0666667 0 0 0.0666667 -44.0003 -431.867)" d="M 9508.6,7410.59 L 9513.09,7418.37 L 9371.01,7500.4 L 9366.52,7492.62 L 9508.6,7410.59 Z " />
<path stroke="none" fill="#c0c0c0" transform="matrix(0.0666667 0 0 0.0666667 -44.0003 -431.867)" d="M 9492.32,7341.25 A 137.682,137.682 0 1 0 9767.68,7341.25A 137.682,137.682 0 1 0 9492.32,7341.25Z " />
<path stroke="#0000ff" stroke-width="9" fill="none" transform="matrix(0.0666667 0 0 0.0666667 -44.0003 -431.867)" d="M 9488.75,7345 A 138.75,138.75 0 1 0 9766.25,7345A 138.75,138.75 0 1 0 9488.75,7345Z " />
<path stroke="none" fill="#000000" transform="matrix(0.0666667 0 0 0.0666667 -44.0003 -431.867)" d="M 1334.38,7502.12 L 974.375,7267.75 L 979.375,7259.75 L 1339.38,7494.12 Z " />
<text x="0" y="0" stroke="none" fill="#000000" transform="matrix(0.0666667 0 0 0.0666667 2.77467 48.0167)" font-style="normal" font-weight="normal" font-size="240px" font-family="Arial" >
QD</text>
<text x="0" y="0" stroke="none" fill="#000000" transform="matrix(0.0666667 0 0 0.0666667 77.833 179.55)" font-style="normal" font-weight="normal" font-size="240px" font-family="Arial" >
EDC</text>
<text x="0" y="0" stroke="none" fill="#000000" transform="matrix(0.0666667 0 0 0.0666667 282.566 166.7)" font-style="normal" font-weight="normal" font-size="240px" font-family="Arial" >
NHS</text>
<path stroke="none" fill="#000000" transform="matrix(0.0666667 0 0 0.0666667 -44.0003 -431.867)" d="M 7720,7093.5 L 7267.22,6777.58 L 7272.22,6770.58 L 7725,7086.5 Z " />
<text x="0" y="0" stroke="none" fill="#000000" transform="matrix(0.0666667 0 0 0.0666667 404.166 17.1333)" font-style="normal" font-weight="normal" font-size="240px" font-family="Arial" >
aptamer</text>
<path stroke="none" fill="#000000" transform="matrix(0.0666667 0 0 0.0666667 -44.0003 -431.867)" d="M 9766.88,8058.49 L 8591.35,8058.49 L 8591.35,8049.49 L 9766.88,8049.49 Z " />
<path stroke="none" fill="#000000" transform="matrix(0.0666667 0 0 0.0666667 -44.0003 -431.867)" d="M 9762.38,8058.37 L 9762.38,7796 L 9771.38,7796 L 9771.38,8058.37 Z " />
<path stroke="none" fill="#000000" transform="matrix(0.0666667 0 0 0.0666667 -44.0003 -431.867)" d="M 8590.5,8056.84 L 8590.5,7794.47 L 8599.5,7794.47 L 8599.5,8056.84 Z " />
</svg>
