<?xml version="1.0" standalone="no" ?>
<!DOCTYPE svg PUBLIC "-//W3C//DTD SVG 1.1//EN" "http://www.w3.org/Graphics/SVG/1.1/DTD/svg11.dtd">
<svg width="475px" height="218px" viewBox="0 0 475 218" style="background-color: #ffffff00" xmlns="http://www.w3.org/2000/svg" xmlns:xlink="http://www.w3.org/1999/xlink" version="1.1" >
<path stroke="none" fill="#000000" transform="matrix(0.0833333 0 0 0.0833333 -78.2583 -421)" d="M 999.59,6133.5 L 990.606,6138.68 L 990.606,5889.51 L 999.59,5894.7 L 999.59,6133.5 Z " />
<path stroke="none" fill="#000000" transform="matrix(0.0833333 0 0 0.0833333 -78.2583 -421)" d="M 1048.39,6107.92 L 1039.4,6107.92 L 1039.4,5920.28 L 1048.39,5920.28 L 1048.39,6107.92 Z " />
<path stroke="none" fill="#000000" transform="matrix(0.0833333 0 0 0.0833333 -78.2583 -421)" d="M 1206.39,6252.9 L 1206.39,6263.27 L 990.606,6138.68 L 999.59,6133.5 L 1206.39,6252.9 Z " />
<path stroke="none" fill="#000000" transform="matrix(0.0833333 0 0 0.0833333 -78.2583 -421)" d="M 1413.2,6133.5 L 1417.69,6136.09 L 1418.21,6140.98 L 1206.39,6263.27 L 1206.39,6252.9 L 1413.2,6133.5 Z " />
<path stroke="none" fill="#000000" transform="matrix(0.0833333 0 0 0.0833333 -78.2583 -421)" d="M 1366.65,6104.03 L 1371.14,6111.81 L 1208.64,6205.63 L 1204.15,6197.85 L 1366.65,6104.03 Z " />
<path stroke="none" fill="#000000" transform="matrix(0.0833333 0 0 0.0833333 -78.2583 -421)" d="M 1413.2,5894.7 L 1417.69,5892.11 L 1422.18,5895.37 L 1422.18,6132.83 L 1417.69,6136.09 L 1413.2,6133.5 L 1413.2,5894.7 Z " />
<path stroke="none" fill="#000000" transform="matrix(0.0833333 0 0 0.0833333 -78.2583 -421)" d="M 1206.39,5775.3 L 1206.39,5764.93 L 1418.21,5887.22 L 1417.69,5892.11 L 1413.2,5894.7 L 1206.39,5775.3 Z " />
<path stroke="none" fill="#000000" transform="matrix(0.0833333 0 0 0.0833333 -78.2583 -421)" d="M 1204.15,5830.35 L 1208.64,5822.57 L 1371.14,5916.39 L 1366.65,5924.17 L 1204.15,5830.35 Z " />
<path stroke="none" fill="#000000" transform="matrix(0.0833333 0 0 0.0833333 -78.2583 -421)" d="M 999.59,5894.7 L 990.606,5889.51 L 1206.39,5764.93 L 1206.39,5775.3 L 999.59,5894.7 Z " />
<text x="0" y="0" stroke="none" fill="#000000" transform="matrix(0.0833333 0 0 0.0833333 55.0112 101.165)" font-style="normal" font-weight="normal" font-size="140px" font-family="Arial" >
N</text>
<text x="0" y="0" stroke="none" fill="#000000" transform="matrix(0.0833333 0 0 0.0833333 55.0112 68.2675)" font-style="normal" font-weight="normal" font-size="140px" font-family="Arial" >
N</text>
<path stroke="none" fill="#000000" transform="matrix(0.0833333 0 0 0.0833333 -78.2583 -421)" d="M 1578.93,6183.76 L 1576.16,6192.3 L 1418.21,6140.98 L 1417.69,6136.09 L 1422.18,6132.83 L 1578.93,6183.76 Z " />
<path stroke="none" fill="#000000" transform="matrix(0.0833333 0 0 0.0833333 -78.2583 -421)" d="M 1787.59,6014.1 L 1798.7,6014.1 L 1701.89,6147.34 L 1694.62,6142.06 L 1787.59,6014.1 Z " />
<path stroke="none" fill="#000000" transform="matrix(0.0833333 0 0 0.0833333 -78.2583 -421)" d="M 1699.7,5893.12 L 1706.96,5887.84 L 1798.7,6014.1 L 1787.59,6014.1 L 1699.7,5893.12 Z " />
<path stroke="none" fill="#000000" transform="matrix(0.0833333 0 0 0.0833333 -78.2583 -421)" d="M 1660.22,5921.8 L 1667.49,5916.52 L 1736.46,6011.46 L 1729.19,6016.74 L 1660.22,5921.8 Z " />
<path stroke="none" fill="#000000" transform="matrix(0.0833333 0 0 0.0833333 -78.2583 -421)" d="M 1422.18,5895.37 L 1417.69,5892.11 L 1418.21,5887.22 L 1575.96,5835.96 L 1578.74,5844.5 L 1422.18,5895.37 Z " />
<path stroke="none" fill="#000000" transform="matrix(0.0833333 0 0 0.0833333 -78.2583 -421)" d="M 1871.75,6822.99 L 1862.77,6822.99 L 1862.77,6581.62 L 1867.26,6579.01 L 1871.75,6581.6 L 1871.75,6822.99 Z " />
<path stroke="none" fill="#000000" transform="matrix(0.0833333 0 0 0.0833333 -78.2583 -421)" d="M 2078.55,6451.83 L 2078.55,6462.2 L 1871.75,6581.6 L 1867.26,6579.01 L 1867.24,6573.83 L 2078.55,6451.83 Z " />
<path stroke="none" fill="#000000" transform="matrix(0.0833333 0 0 0.0833333 -78.2583 -421)" d="M 2076.31,6509.47 L 2080.8,6517.25 L 1918.3,6611.07 L 1913.81,6603.29 L 2076.31,6509.47 Z " />
<path stroke="none" fill="#000000" transform="matrix(0.0833333 0 0 0.0833333 -78.2583 -421)" d="M 2289.85,6573.82 L 2289.85,6584.2 L 2078.55,6462.2 L 2078.55,6451.83 L 2289.85,6573.82 Z " />
<path stroke="none" fill="#000000" transform="matrix(0.0833333 0 0 0.0833333 -78.2583 -421)" d="M 2501.15,6451.83 L 2501.15,6462.2 L 2289.85,6584.2 L 2289.85,6573.82 L 2501.15,6451.83 Z " />
<path stroke="none" fill="#000000" transform="matrix(0.0833333 0 0 0.0833333 -78.2583 -421)" d="M 2712.44,6573.82 L 2712.44,6584.2 L 2501.15,6462.2 L 2501.15,6451.83 L 2712.44,6573.82 Z " />
<path stroke="none" fill="#000000" transform="matrix(0.0833333 0 0 0.0833333 -78.2583 -421)" d="M 2919.25,6454.42 L 2928.23,6459.61 L 2712.44,6584.2 L 2712.44,6573.82 L 2919.25,6454.42 Z " />
<path stroke="none" fill="#000000" transform="matrix(0.0833333 0 0 0.0833333 -78.2583 -421)" d="M 2919.25,6213.03 L 2928.23,6213.03 L 2928.23,6459.61 L 2919.25,6454.42 L 2919.25,6213.03 Z " />
<path stroke="none" fill="#000000" transform="matrix(0.0833333 0 0 0.0833333 -78.2583 -421)" d="M 3149.48,6553.99 L 3144.99,6561.77 L 2921.49,6432.73 L 2925.99,6424.95 L 3149.48,6553.99 Z " />
<path stroke="none" fill="#000000" transform="matrix(0.0833333 0 0 0.0833333 -78.2583 -421)" d="M 3125.08,6596.25 L 3120.59,6604.03 L 2897.1,6474.99 L 2901.59,6467.21 L 3125.08,6596.25 Z " />
<path stroke="none" fill="#000000" transform="matrix(0.0833333 0 0 0.0833333 -78.2583 -421)" d="M 4391.55,6786.75 L 4382.57,6791.94 L 4382.57,6542.77 L 4391.55,6547.96 L 4391.55,6786.75 Z " />
<path stroke="none" fill="#000000" transform="matrix(0.0833333 0 0 0.0833333 -78.2583 -421)" d="M 4440.35,6761.17 L 4431.36,6761.17 L 4431.36,6573.53 L 4440.35,6573.53 L 4440.35,6761.17 Z " />
<path stroke="none" fill="#000000" transform="matrix(0.0833333 0 0 0.0833333 -78.2583 -421)" d="M 4598.35,6906.15 L 4598.35,6916.53 L 4382.57,6791.94 L 4391.55,6786.75 L 4598.35,6906.15 Z " />
<path stroke="none" fill="#000000" transform="matrix(0.0833333 0 0 0.0833333 -78.2583 -421)" d="M 4805.16,6786.75 L 4809.65,6789.35 L 4810.17,6794.24 L 4598.35,6916.53 L 4598.35,6906.15 L 4805.16,6786.75 Z " />
<path stroke="none" fill="#000000" transform="matrix(0.0833333 0 0 0.0833333 -78.2583 -421)" d="M 4758.61,6757.28 L 4763.1,6765.06 L 4600.6,6858.88 L 4596.11,6851.1 L 4758.61,6757.28 Z " />
<path stroke="none" fill="#000000" transform="matrix(0.0833333 0 0 0.0833333 -78.2583 -421)" d="M 4805.16,6547.96 L 4809.65,6545.36 L 4814.14,6548.63 L 4814.14,6786.08 L 4809.65,6789.35 L 4805.16,6786.75 L 4805.16,6547.96 Z " />
<path stroke="none" fill="#000000" transform="matrix(0.0833333 0 0 0.0833333 -78.2583 -421)" d="M 4598.35,6428.56 L 4598.35,6418.18 L 4810.17,6540.47 L 4809.65,6545.36 L 4805.16,6547.96 L 4598.35,6428.56 Z " />
<path stroke="none" fill="#000000" transform="matrix(0.0833333 0 0 0.0833333 -78.2583 -421)" d="M 4596.11,6483.61 L 4600.6,6475.82 L 4763.1,6569.64 L 4758.61,6577.42 L 4596.11,6483.61 Z " />
<path stroke="none" fill="#000000" transform="matrix(0.0833333 0 0 0.0833333 -78.2583 -421)" d="M 4391.55,6547.96 L 4382.57,6542.77 L 4598.35,6418.18 L 4598.35,6428.56 L 4391.55,6547.96 Z " />
<text x="0" y="0" stroke="none" fill="#000000" transform="matrix(0.0833333 0 0 0.0833333 337.675 155.603)" font-style="normal" font-weight="normal" font-size="140px" font-family="Arial" >
N</text>
<text x="0" y="0" stroke="none" fill="#000000" transform="matrix(0.0833333 0 0 0.0833333 337.675 122.706)" font-style="normal" font-weight="normal" font-size="140px" font-family="Arial" >
N</text>
<path stroke="none" fill="#000000" transform="matrix(0.0833333 0 0 0.0833333 -78.2583 -421)" d="M 4970.89,6837.01 L 4968.12,6845.56 L 4810.17,6794.24 L 4809.65,6789.35 L 4814.14,6786.08 L 4970.89,6837.01 Z " />
<path stroke="none" fill="#000000" transform="matrix(0.0833333 0 0 0.0833333 -78.2583 -421)" d="M 5179.55,6667.35 L 5190.66,6667.35 L 5093.85,6800.6 L 5086.58,6795.31 L 5179.55,6667.35 Z " />
<path stroke="none" fill="#000000" transform="matrix(0.0833333 0 0 0.0833333 -78.2583 -421)" d="M 5091.66,6546.37 L 5098.92,6541.09 L 5190.66,6667.35 L 5179.55,6667.35 L 5091.66,6546.37 Z " />
<path stroke="none" fill="#000000" transform="matrix(0.0833333 0 0 0.0833333 -78.2583 -421)" d="M 5052.18,6575.06 L 5059.45,6569.78 L 5128.42,6664.71 L 5121.15,6669.99 L 5052.18,6575.06 Z " />
<path stroke="none" fill="#000000" transform="matrix(0.0833333 0 0 0.0833333 -78.2583 -421)" d="M 4814.14,6548.63 L 4809.65,6545.36 L 4810.17,6540.47 L 4967.92,6489.21 L 4970.7,6497.76 L 4814.14,6548.63 Z " />
<text x="0" y="0" stroke="none" fill="#000000" transform="matrix(0.0833333 0 0 0.0833333 354.491 107.181)" font-style="normal" font-weight="normal" font-size="140px" font-family="Arial" >
Pd</text>
<path stroke="none" fill="#000000" transform="matrix(0.0833333 0 0 0.0833333 -78.2583 -421)" d="M 5182.97,6353.2 L 5188.52,6360.26 L 5108.89,6422.86 L 5103.34,6415.79 L 5182.97,6353.2 Z " />
<text x="0" y="0" stroke="none" fill="#000000" transform="matrix(0.0833333 0 0 0.0833333 337.53 92.8039)" font-style="normal" font-weight="normal" font-size="140px" font-family="Arial" >
Cl</text>
<path stroke="none" fill="#000000" transform="matrix(0.0833333 0 0 0.0833333 -78.2583 -421)" d="M 5146.64,6157.98 L 5153,6151.63 L 5205.26,6203.89 L 5198.9,6210.24 L 5146.64,6157.98 Z " />
<text x="0" y="0" stroke="none" fill="#000000" transform="matrix(0.0833333 0 0 0.0833333 371.801 121.558)" font-style="normal" font-weight="normal" font-size="140px" font-family="Arial" >
Cl</text>
<path stroke="none" fill="#000000" transform="matrix(0.0833333 0 0 0.0833333 -78.2583 -421)" d="M 5405.79,6404.42 L 5399.44,6410.77 L 5358.76,6370.1 L 5365.11,6363.74 L 5405.79,6404.42 Z " />
<path stroke="none" fill="#000000" transform="matrix(0.0833333 0 0 0.0833333 -78.2583 -421)" d="M 6122.46,5786.13 L 6131.44,5780.94 L 6131.44,6030.11 L 6122.46,6024.93 L 6122.46,5786.13 Z " />
<path stroke="none" fill="#000000" transform="matrix(0.0833333 0 0 0.0833333 -78.2583 -421)" d="M 6073.66,5811.71 L 6082.65,5811.71 L 6082.65,5999.35 L 6073.66,5999.35 L 6073.66,5811.71 Z " />
<path stroke="none" fill="#000000" transform="matrix(0.0833333 0 0 0.0833333 -78.2583 -421)" d="M 5915.65,5666.73 L 5915.65,5656.36 L 6131.44,5780.94 L 6122.46,5786.13 L 5915.65,5666.73 Z " />
<path stroke="none" fill="#000000" transform="matrix(0.0833333 0 0 0.0833333 -78.2583 -421)" d="M 5708.85,5786.13 L 5704.36,5783.54 L 5703.84,5778.65 L 5915.65,5656.36 L 5915.65,5666.73 L 5708.85,5786.13 Z " />
<path stroke="none" fill="#000000" transform="matrix(0.0833333 0 0 0.0833333 -78.2583 -421)" d="M 5755.4,5815.6 L 5750.91,5807.82 L 5913.41,5714 L 5917.9,5721.78 L 5755.4,5815.6 Z " />
<path stroke="none" fill="#000000" transform="matrix(0.0833333 0 0 0.0833333 -78.2583 -421)" d="M 5708.85,6024.93 L 5704.36,6027.52 L 5699.87,6024.26 L 5699.87,5786.8 L 5704.36,5783.54 L 5708.85,5786.13 L 5708.85,6024.93 Z " />
<path stroke="none" fill="#000000" transform="matrix(0.0833333 0 0 0.0833333 -78.2583 -421)" d="M 5915.65,6144.32 L 5915.65,6154.7 L 5703.84,6032.41 L 5704.36,6027.52 L 5708.85,6024.93 L 5915.65,6144.32 Z " />
<path stroke="none" fill="#000000" transform="matrix(0.0833333 0 0 0.0833333 -78.2583 -421)" d="M 5917.9,6089.28 L 5913.41,6097.06 L 5750.91,6003.24 L 5755.4,5995.46 L 5917.9,6089.28 Z " />
<path stroke="none" fill="#000000" transform="matrix(0.0833333 0 0 0.0833333 -78.2583 -421)" d="M 6122.46,6024.93 L 6131.44,6030.11 L 5915.65,6154.7 L 5915.65,6144.32 L 6122.46,6024.93 Z " />
<text x="0" y="0" stroke="none" fill="#000000" transform="matrix(0.0833333 0 0 0.0833333 373.56 59.22)" font-style="normal" font-weight="normal" font-size="140px" font-family="Arial" >
N</text>
<text x="0" y="0" stroke="none" fill="#000000" transform="matrix(0.0833333 0 0 0.0833333 373.56 92.1179)" font-style="normal" font-weight="normal" font-size="140px" font-family="Arial" >
N</text>
<path stroke="none" fill="#000000" transform="matrix(0.0833333 0 0 0.0833333 -78.2583 -421)" d="M 5542.11,5735.54 L 5544.89,5727 L 5703.84,5778.65 L 5704.36,5783.54 L 5699.87,5786.8 L 5542.11,5735.54 Z " />
<path stroke="none" fill="#000000" transform="matrix(0.0833333 0 0 0.0833333 -78.2583 -421)" d="M 5334.46,5905.53 L 5323.35,5905.53 L 5414.74,5779.74 L 5422.01,5785.02 L 5334.46,5905.53 Z " />
<path stroke="none" fill="#000000" transform="matrix(0.0833333 0 0 0.0833333 -78.2583 -421)" d="M 5427.08,6033.01 L 5419.81,6038.29 L 5323.35,5905.53 L 5334.46,5905.53 L 5427.08,6033.01 Z " />
<path stroke="none" fill="#000000" transform="matrix(0.0833333 0 0 0.0833333 -78.2583 -421)" d="M 5466.56,6004.33 L 5459.29,6009.61 L 5385.59,5908.17 L 5392.85,5902.89 L 5466.56,6004.33 Z " />
<path stroke="none" fill="#000000" transform="matrix(0.0833333 0 0 0.0833333 -78.2583 -421)" d="M 5699.87,6024.26 L 5704.36,6027.52 L 5703.84,6032.41 L 5544.99,6084.03 L 5542.21,6075.48 L 5699.87,6024.26 Z " />
<path stroke="none" fill="#000000" transform="matrix(0.0833333 0 0 0.0833333 -78.2583 -421)" d="M 5403.01,6161.46 L 5409.15,6168.03 L 5361.8,6212.23 L 5355.67,6205.66 L 5403.01,6161.46 Z " />
<text x="0" y="0" stroke="none" fill="#000000" transform="matrix(0.0833333 0 0 0.0833333 62.197 116.434)" font-style="normal" font-weight="bold" font-size="100px" font-family="Arial" >
1</text>
<text x="0" y="0" stroke="none" fill="#000000" transform="matrix(0.0833333 0 0 0.0833333 69.2804 135.184)" font-style="normal" font-weight="bold" font-size="100px" font-family="Arial" >
2</text>
<text x="0" y="0" stroke="none" fill="#000000" transform="matrix(0.0833333 0 0 0.0833333 72.6137 156.434)" font-style="normal" font-weight="bold" font-size="100px" font-family="Arial" >
2a</text>
<text x="0" y="0" stroke="none" fill="#000000" transform="matrix(0.0833333 0 0 0.0833333 93.0304 114.351)" font-style="normal" font-weight="bold" font-size="100px" font-family="Arial" >
3</text>
<text x="0" y="0" stroke="none" fill="#000000" transform="matrix(0.0833333 0 0 0.0833333 110.114 137.684)" font-style="normal" font-weight="bold" font-size="100px" font-family="Arial" >
4</text>
<text x="0" y="0" stroke="none" fill="#000000" transform="matrix(0.0833333 0 0 0.0833333 128.447 114.768)" font-style="normal" font-weight="bold" font-size="100px" font-family="Arial" >
5</text>
<text x="0" y="0" stroke="none" fill="#000000" transform="matrix(0.0833333 0 0 0.0833333 145.53 137.684)" font-style="normal" font-weight="bold" font-size="100px" font-family="Arial" >
6</text>
<text x="0" y="0" stroke="none" fill="#000000" transform="matrix(0.0833333 0 0 0.0833333 157.614 118.101)" font-style="normal" font-weight="bold" font-size="100px" font-family="Arial" >
7</text>
<text x="0" y="0" stroke="none" fill="#000000" transform="matrix(0.0833333 0 0 0.0833333 160.947 94.7678)" font-style="normal" font-weight="bold" font-size="100px" font-family="Arial" >
7a</text>
<text x="0" y="0" stroke="none" fill="#000000" transform="matrix(0.0833333 0 0 0.0833333 184.28 134.351)" font-style="normal" font-weight="bold" font-size="100px" font-family="Arial" >
8</text>
<text x="0" y="0" stroke="none" fill="#000000" transform="matrix(0.0833333 0 0 0.0833333 356.11 137.956)" font-style="normal" font-weight="bold" font-size="100px" font-family="Arial" >
1&apos;</text>
<text x="0" y="0" stroke="none" fill="#000000" transform="matrix(0.0833333 0 0 0.0833333 319.444 121.289)" font-style="normal" font-weight="bold" font-size="100px" font-family="Arial" >
2&apos;</text>
<text x="0" y="0" stroke="none" fill="#000000" transform="matrix(0.0833333 0 0 0.0833333 301.527 112.539)" font-style="normal" font-weight="bold" font-size="100px" font-family="Arial" >
3&apos;</text>
<text x="0" y="0" stroke="none" fill="#000000" transform="matrix(0.0833333 0 0 0.0833333 279.027 128.372)" font-style="normal" font-weight="bold" font-size="100px" font-family="Arial" >
4&apos;</text>
<text x="0" y="0" stroke="none" fill="#000000" transform="matrix(0.0833333 0 0 0.0833333 279.027 148.789)" font-style="normal" font-weight="bold" font-size="100px" font-family="Arial" >
5&apos;</text>
<text x="0" y="0" stroke="none" fill="#000000" transform="matrix(0.0833333 0 0 0.0833333 301.527 164.622)" font-style="normal" font-weight="bold" font-size="100px" font-family="Arial" >
6&apos;</text>
<text x="0" y="0" stroke="none" fill="#000000" transform="matrix(0.0833333 0 0 0.0833333 319.444 155.872)" font-style="normal" font-weight="bold" font-size="100px" font-family="Arial" >
7&apos;</text>
<path stroke="none" fill="#000000" transform="matrix(0.0833333 0 0 0.0833333 -78.2583 -421)" d="M 5257.46,5096.29 L 5266.44,5096.29 L 5266.44,5337.7 L 5261.95,5340.27 L 5257.46,5337.68 L 5257.46,5096.29 Z " />
<path stroke="none" fill="#000000" transform="matrix(0.0833333 0 0 0.0833333 -78.2583 -421)" d="M 5050.65,5467.45 L 5050.65,5457.08 L 5257.46,5337.68 L 5261.95,5340.27 L 5261.93,5345.47 L 5050.65,5467.45 Z " />
<path stroke="none" fill="#000000" transform="matrix(0.0833333 0 0 0.0833333 -78.2583 -421)" d="M 5052.9,5409.81 L 5048.41,5402.03 L 5210.91,5308.21 L 5215.4,5315.99 L 5052.9,5409.81 Z " />
<path stroke="none" fill="#000000" transform="matrix(0.0833333 0 0 0.0833333 -78.2583 -421)" d="M 4839.36,5345.46 L 4839.36,5335.09 L 5050.65,5457.08 L 5050.65,5467.45 L 4839.36,5345.46 Z " />
<path stroke="none" fill="#000000" transform="matrix(0.0833333 0 0 0.0833333 -78.2583 -421)" d="M 4628.06,5467.45 L 4628.06,5457.08 L 4839.36,5335.09 L 4839.36,5345.46 L 4628.06,5467.45 Z " />
<path stroke="none" fill="#000000" transform="matrix(0.0833333 0 0 0.0833333 -78.2583 -421)" d="M 4416.76,5345.46 L 4416.76,5335.09 L 4628.06,5457.08 L 4628.06,5467.45 L 4416.76,5345.46 Z " />
<path stroke="none" fill="#000000" transform="matrix(0.0833333 0 0 0.0833333 -78.2583 -421)" d="M 4209.96,5464.86 L 4200.98,5459.67 L 4416.76,5335.09 L 4416.76,5345.46 L 4209.96,5464.86 Z " />
<path stroke="none" fill="#000000" transform="matrix(0.0833333 0 0 0.0833333 -78.2583 -421)" d="M 4209.96,5706.25 L 4200.98,5706.25 L 4200.98,5459.67 L 4209.96,5464.86 L 4209.96,5706.25 Z " />
<path stroke="none" fill="#000000" transform="matrix(0.0833333 0 0 0.0833333 -78.2583 -421)" d="M 3979.73,5365.29 L 3984.22,5357.51 L 4207.71,5486.55 L 4203.22,5494.33 L 3979.73,5365.29 Z " />
<path stroke="none" fill="#000000" transform="matrix(0.0833333 0 0 0.0833333 -78.2583 -421)" d="M 4004.12,5323.03 L 4008.62,5315.25 L 4232.11,5444.29 L 4227.62,5452.07 L 4004.12,5323.03 Z " />
<path stroke="none" fill="#000000" transform="matrix(0.0833333 0 0 0.0833333 -78.2583 -421)" d="M 1654.23,6452.86 L 1645.24,6458.08 L 1645.24,6290.32 L 1654.23,6290.32 L 1654.23,6452.86 Z " />
<path stroke="none" fill="#000000" transform="matrix(0.0833333 0 0 0.0833333 -78.2583 -421)" d="M 1867.24,6573.83 L 1867.26,6579.01 L 1862.77,6581.62 L 1645.24,6458.08 L 1654.23,6452.86 L 1867.24,6573.83 Z " />
<path stroke="none" fill="#000000" transform="matrix(0.0833333 0 0 0.0833333 -78.2583 -421)" d="M 5046.19,7106.14 L 5037.2,7111.31 L 5037.2,6943.57 L 5046.19,6943.57 L 5046.19,7106.14 Z " />
<path stroke="none" fill="#000000" transform="matrix(0.0833333 0 0 0.0833333 -78.2583 -421)" d="M 5258.71,7476.25 L 5249.73,7476.25 L 5249.73,7234.85 L 5254.22,7232.26 L 5258.71,7234.86 L 5258.71,7476.25 Z " />
<path stroke="none" fill="#000000" transform="matrix(0.0833333 0 0 0.0833333 -78.2583 -421)" d="M 5465.51,7105.09 L 5465.51,7115.46 L 5258.71,7234.86 L 5254.22,7232.26 L 5254.22,7227.07 L 5465.51,7105.09 Z " />
<path stroke="none" fill="#000000" transform="matrix(0.0833333 0 0 0.0833333 -78.2583 -421)" d="M 5463.27,7162.73 L 5467.76,7170.51 L 5305.26,7264.33 L 5300.77,7256.55 L 5463.27,7162.73 Z " />
<path stroke="none" fill="#000000" transform="matrix(0.0833333 0 0 0.0833333 -78.2583 -421)" d="M 5676.81,7227.08 L 5676.81,7237.45 L 5465.51,7115.46 L 5465.51,7105.09 L 5676.81,7227.08 Z " />
<path stroke="none" fill="#000000" transform="matrix(0.0833333 0 0 0.0833333 -78.2583 -421)" d="M 5888.11,7105.09 L 5888.11,7115.46 L 5676.81,7237.45 L 5676.81,7227.08 L 5888.11,7105.09 Z " />
<path stroke="none" fill="#000000" transform="matrix(0.0833333 0 0 0.0833333 -78.2583 -421)" d="M 6099.4,7227.08 L 6099.4,7237.45 L 5888.11,7115.46 L 5888.11,7105.09 L 6099.4,7227.08 Z " />
<path stroke="none" fill="#000000" transform="matrix(0.0833333 0 0 0.0833333 -78.2583 -421)" d="M 6306.21,7107.68 L 6315.19,7112.87 L 6099.4,7237.45 L 6099.4,7227.08 L 6306.21,7107.68 Z " />
<path stroke="none" fill="#000000" transform="matrix(0.0833333 0 0 0.0833333 -78.2583 -421)" d="M 6306.21,6866.29 L 6315.19,6866.29 L 6315.19,7112.87 L 6306.21,7107.68 L 6306.21,6866.29 Z " />
<path stroke="none" fill="#000000" transform="matrix(0.0833333 0 0 0.0833333 -78.2583 -421)" d="M 6536.44,7207.24 L 6531.95,7215.03 L 6308.45,7085.99 L 6312.95,7078.21 L 6536.44,7207.24 Z " />
<path stroke="none" fill="#000000" transform="matrix(0.0833333 0 0 0.0833333 -78.2583 -421)" d="M 6512.04,7249.5 L 6507.55,7257.28 L 6284.06,7128.25 L 6288.55,7120.47 L 6512.04,7249.5 Z " />
<path stroke="none" fill="#000000" transform="matrix(0.0833333 0 0 0.0833333 -78.2583 -421)" d="M 5254.22,7227.07 L 5254.22,7232.26 L 5249.73,7234.85 L 5037.2,7111.31 L 5046.19,7106.14 L 5254.22,7227.07 Z " />
<path stroke="none" fill="#000000" transform="matrix(0.0833333 0 0 0.0833333 -78.2583 -421)" d="M 5467.82,5466.72 L 5476.81,5461.59 L 5476.81,5639.97 L 5467.82,5639.97 L 5467.82,5466.72 Z " />
<path stroke="none" fill="#000000" transform="matrix(0.0833333 0 0 0.0833333 -78.2583 -421)" d="M 5261.93,5345.47 L 5261.95,5340.27 L 5266.44,5337.7 L 5476.81,5461.59 L 5467.82,5466.72 L 5261.93,5345.47 Z " />
<text x="0" y="0" stroke="none" fill="#000000" transform="matrix(0.0833333 0 0 0.0833333 344.444 171.289)" font-style="normal" font-weight="bold" font-size="100px" font-family="Arial" >
1</text>
<text x="0" y="0" stroke="none" fill="#000000" transform="matrix(0.0833333 0 0 0.0833333 351.527 190.039)" font-style="normal" font-weight="bold" font-size="100px" font-family="Arial" >
2</text>
<text x="0" y="0" stroke="none" fill="#000000" transform="matrix(0.0833333 0 0 0.0833333 354.86 211.289)" font-style="normal" font-weight="bold" font-size="100px" font-family="Arial" >
2a</text>
<text x="0" y="0" stroke="none" fill="#000000" transform="matrix(0.0833333 0 0 0.0833333 375.277 169.206)" font-style="normal" font-weight="bold" font-size="100px" font-family="Arial" >
3</text>
<text x="0" y="0" stroke="none" fill="#000000" transform="matrix(0.0833333 0 0 0.0833333 392.36 192.539)" font-style="normal" font-weight="bold" font-size="100px" font-family="Arial" >
4</text>
<text x="0" y="0" stroke="none" fill="#000000" transform="matrix(0.0833333 0 0 0.0833333 410.694 169.622)" font-style="normal" font-weight="bold" font-size="100px" font-family="Arial" >
5</text>
<text x="0" y="0" stroke="none" fill="#000000" transform="matrix(0.0833333 0 0 0.0833333 427.777 192.539)" font-style="normal" font-weight="bold" font-size="100px" font-family="Arial" >
6</text>
<text x="0" y="0" stroke="none" fill="#000000" transform="matrix(0.0833333 0 0 0.0833333 439.86 172.956)" font-style="normal" font-weight="bold" font-size="100px" font-family="Arial" >
7</text>
<text x="0" y="0" stroke="none" fill="#000000" transform="matrix(0.0833333 0 0 0.0833333 443.194 149.622)" font-style="normal" font-weight="bold" font-size="100px" font-family="Arial" >
7a</text>
<text x="0" y="0" stroke="none" fill="#000000" transform="matrix(0.0833333 0 0 0.0833333 466.527 189.206)" font-style="normal" font-weight="bold" font-size="100px" font-family="Arial" >
8</text>
<text x="0" y="0" stroke="none" fill="#000000" transform="matrix(0.0833333 0 0 0.0833333 93.3696 173.059)" font-style="normal" font-weight="bold" font-size="140px" font-family="Arial" >
1</text>
<text x="0" y="0" stroke="none" fill="#000000" transform="matrix(0.0833333 0 0 0.0833333 319.456 211.598)" font-style="normal" font-weight="bold" font-size="140px" font-family="Arial" >
2</text>
<text x="0" y="0" stroke="none" fill="#000000" transform="matrix(0.0833333 0 0 0.0833333 195.738 91.9167)" font-style="normal" font-weight="normal" font-size="120px" font-family="Arial" >
PdCl</text>
<text x="0" y="0" stroke="none" fill="#000000" transform="matrix(0.0833333 0 0 0.0833333 217.492 94.1667)" font-style="normal" font-weight="normal" font-size="90px" font-family="Arial" >
2</text>
<text x="0" y="0" stroke="none" fill="#000000" transform="matrix(0.0833333 0 0 0.0833333 221.679 91.9167)" font-style="normal" font-weight="normal" font-size="120px" font-family="Arial" >
,</text>
<text x="0" y="0" stroke="none" fill="#000000" transform="matrix(0.0833333 0 0 0.0833333 224.457 91.9167)" font-style="normal" font-weight="normal" font-size="120px" font-family="Arial" >
 </text>
<text x="0" y="0" stroke="none" fill="#000000" transform="matrix(0.0833333 0 0 0.0833333 227.236 91.9167)" font-style="normal" font-weight="normal" font-size="120px" font-family="Arial" >
KCl,</text>
<text x="0" y="0" stroke="none" fill="#000000" transform="matrix(0.0833333 0 0 0.0833333 195.492 104)" font-style="normal" font-weight="normal" font-size="120px" font-family="Arial" >
MeOH/H</text>
<text x="0" y="0" stroke="none" fill="#000000" transform="matrix(0.0833333 0 0 0.0833333 234.465 106.25)" font-style="normal" font-weight="normal" font-size="90px" font-family="Arial" >
2</text>
<text x="0" y="0" stroke="none" fill="#000000" transform="matrix(0.0833333 0 0 0.0833333 238.652 104)" font-style="normal" font-weight="normal" font-size="120px" font-family="Arial" >
O</text>
<path stroke="none" fill="#000000" transform="matrix(0.0833333 0 0 0.0833333 -78.2583 -421)" d="M 3922.39,6354.21 L 3265,6354.21 L 3265,6345.21 L 3922.39,6345.21 Z " />
<path stroke="none" fill="#000000" transform="matrix(0.0833333 0 0 0.0833333 -78.2583 -421)" d="M 4000,6349.71 C 4000,6349.71 3910.16,6373.17 3910.16,6373.17 C 3910.16,6373.17 3921.39,6359.98 3921.39,6349.71 C 3921.39,6339.01 3910.16,6325.25 3910.16,6325.25 C 3910.16,6325.25 4000,6349.71 4000,6349.71 C 4000,6349.71 4000,6349.71 4000,6349.71 " />
<path stroke="#000000" stroke-width="1" fill="none" transform="matrix(0.0833333 0 0 0.0833333 -78.2583 -421)" d="M 4000,6349.71 C 4000,6349.71 3910.16,6373.17 3910.16,6373.17 C 3910.16,6373.17 3921.39,6359.98 3921.39,6349.71 C 3921.39,6339.01 3910.16,6325.25 3910.16,6325.25 C 3910.16,6325.25 4000,6349.71 4000,6349.71 C 4000,6349.71 4000,6349.71 4000,6349.71 " />
</svg>
