<?xml version="1.0" standalone="no" ?>
<!DOCTYPE svg PUBLIC "-//W3C//DTD SVG 1.1//EN" "http://www.w3.org/Graphics/SVG/1.1/DTD/svg11.dtd">
<svg width="737px" height="383px" viewBox="0 0 737 383" style="background-color: #ffffff00" xmlns="http://www.w3.org/2000/svg" xmlns:xlink="http://www.w3.org/1999/xlink" version="1.1" >
<text x="0" y="0" stroke="none" fill="#000000" transform="matrix(0.0833333 0 0 0.0833333 615.996 36.9618)" font-style="normal" font-weight="normal" font-size="200px" font-family="Arial" >
N</text>
<text x="0" y="0" stroke="none" fill="#000000" transform="matrix(0.0833333 0 0 0.0833333 597.208 22.7632)" font-style="normal" font-weight="normal" font-size="200px" font-family="Arial" >
S</text>
<text x="0" y="0" stroke="none" fill="#000000" transform="matrix(0.0833333 0 0 0.0833333 577.299 36.6796)" font-style="normal" font-weight="normal" font-size="200px" font-family="Arial" >
N</text>
<text x="0" y="0" stroke="none" fill="#000000" transform="matrix(0.0833333 0 0 0.0833333 716.369 81.1503)" font-style="normal" font-weight="normal" font-size="200px" font-family="Arial" >
Br</text>
<text x="0" y="0" stroke="none" fill="#000000" transform="matrix(0.0833333 0 0 0.0833333 468.842 79.4059)" font-style="normal" font-weight="normal" font-size="200px" font-family="Arial" >
Br</text>
<path stroke="none" fill="#000000" transform="matrix(0.0833333 0 0 0.0833333 -85.2583 -74)" d="M 8109.97,2013.66 L 8101.55,2028 L 7959.86,1778.41 L 7964.07,1771.24 L 7972.39,1771.3 L 8109.97,2013.66 Z " />
<path stroke="none" fill="#000000" transform="matrix(0.0833333 0 0 0.0833333 -85.2583 -74)" d="M 8142.89,1964.69 L 8130.37,1971.8 L 8018.79,1775.24 L 8031.31,1768.13 L 8142.89,1964.69 Z " />
<path stroke="none" fill="#000000" transform="matrix(0.0833333 0 0 0.0833333 -85.2583 -74)" d="M 8388.64,2015.7 L 8396.85,2030.16 L 8101.55,2028 L 8109.97,2013.66 L 8388.64,2015.7 Z " />
<path stroke="none" fill="#000000" transform="matrix(0.0833333 0 0 0.0833333 -85.2583 -74)" d="M 8529.74,1775.37 L 8538.06,1775.43 L 8542.16,1782.66 L 8396.85,2030.16 L 8388.64,2015.7 L 8529.74,1775.37 Z " />
<path stroke="none" fill="#000000" transform="matrix(0.0833333 0 0 0.0833333 -85.2583 -74)" d="M 8470.87,1771.34 L 8483.29,1778.63 L 8368.86,1973.54 L 8356.44,1966.25 L 8470.87,1771.34 Z " />
<path stroke="none" fill="#000000" transform="matrix(0.0833333 0 0 0.0833333 -85.2583 -74)" d="M 8392.17,1533.01 L 8396.37,1525.84 L 8404.22,1525.07 L 8542.27,1768.26 L 8538.06,1775.43 L 8529.74,1775.37 L 8392.17,1533.01 Z " />
<path stroke="none" fill="#000000" transform="matrix(0.0833333 0 0 0.0833333 -85.2583 -74)" d="M 8113.49,1530.98 L 8109.38,1523.75 L 8114.67,1516.59 L 8391.2,1518.6 L 8396.37,1525.84 L 8392.17,1533.01 L 8113.49,1530.98 Z " />
<path stroke="none" fill="#000000" transform="matrix(0.0833333 0 0 0.0833333 -85.2583 -74)" d="M 7972.39,1771.3 L 7964.07,1771.24 L 7959.97,1764.01 L 8101.55,1522.87 L 8109.38,1523.75 L 8113.49,1530.98 L 7972.39,1771.3 Z " />
<path stroke="none" fill="#000000" transform="matrix(0.0833333 0 0 0.0833333 -85.2583 -74)" d="M 8435.65,1385.11 L 8449.31,1389.66 L 8404.22,1525.07 L 8396.37,1525.84 L 8391.2,1518.6 L 8435.65,1385.11 Z " />
<path stroke="none" fill="#000000" transform="matrix(0.0833333 0 0 0.0833333 -85.2583 -74)" d="M 8385.55,1368.42 L 8399.21,1372.97 L 8365.22,1475.03 L 8351.56,1470.48 L 8385.55,1368.42 Z " />
<path stroke="none" fill="#000000" transform="matrix(0.0833333 0 0 0.0833333 -85.2583 -74)" d="M 8353.48,1163.95 L 8362.03,1152.36 L 8384.89,1169.23 L 8376.34,1180.81 L 8353.48,1163.95 Z " />
<path stroke="none" fill="#000000" transform="matrix(0.0833333 0 0 0.0833333 -85.2583 -74)" d="M 8134.24,1179.2 L 8125.86,1167.49 L 8150.19,1150.08 L 8158.57,1161.79 L 8134.24,1179.2 Z " />
<path stroke="none" fill="#000000" transform="matrix(0.0833333 0 0 0.0833333 -85.2583 -74)" d="M 8114.67,1516.59 L 8109.38,1523.75 L 8101.55,1522.87 L 8058.31,1386.4 L 8072.03,1382.05 L 8114.67,1516.59 Z " />
<path stroke="none" fill="#000000" transform="matrix(0.0833333 0 0 0.0833333 -85.2583 -74)" d="M 8155,1469.05 L 8141.27,1473.4 L 8108.65,1370.44 L 8122.37,1366.1 L 8155,1469.05 Z " />
<path stroke="none" fill="#000000" transform="matrix(0.0833333 0 0 0.0833333 -85.2583 -74)" d="M 7681.18,1776.38 L 7677.08,1769.15 L 7681.29,1761.98 L 7959.97,1764.01 L 7964.07,1771.24 L 7959.86,1778.41 L 7681.18,1776.38 Z " />
<path stroke="none" fill="#000000" transform="matrix(0.0833333 0 0 0.0833333 -85.2583 -74)" d="M 8820.95,1770.29 L 8825.05,1777.52 L 8820.84,1784.69 L 8542.16,1782.66 L 8538.06,1775.43 L 8542.27,1768.26 L 8820.95,1770.29 Z " />
<path stroke="none" fill="#000000" transform="matrix(0.0833333 0 0 0.0833333 -85.2583 -74)" d="M 8970.94,2019.94 L 8962.52,2034.28 L 8820.84,1784.69 L 8825.05,1777.52 L 8833.36,1777.58 L 8970.94,2019.94 Z " />
<path stroke="none" fill="#000000" transform="matrix(0.0833333 0 0 0.0833333 -85.2583 -74)" d="M 9003.87,1970.97 L 8991.35,1978.08 L 8879.76,1781.52 L 8892.29,1774.41 L 9003.87,1970.97 Z " />
<path stroke="none" fill="#000000" transform="matrix(0.0833333 0 0 0.0833333 -85.2583 -74)" d="M 9249.62,2021.98 L 9257.83,2036.44 L 8962.52,2034.28 L 8970.94,2019.94 L 9249.62,2021.98 Z " />
<path stroke="none" fill="#000000" transform="matrix(0.0833333 0 0 0.0833333 -85.2583 -74)" d="M 9390.72,1781.65 L 9399.03,1781.71 L 9403.14,1788.94 L 9257.83,2036.44 L 9249.62,2021.98 L 9390.72,1781.65 Z " />
<path stroke="none" fill="#000000" transform="matrix(0.0833333 0 0 0.0833333 -85.2583 -74)" d="M 9331.85,1777.62 L 9344.27,1784.91 L 9229.83,1979.82 L 9217.41,1972.53 L 9331.85,1777.62 Z " />
<path stroke="none" fill="#000000" transform="matrix(0.0833333 0 0 0.0833333 -85.2583 -74)" d="M 9253.14,1539.29 L 9261.56,1524.95 L 9403.24,1774.54 L 9399.03,1781.71 L 9390.72,1781.65 L 9253.14,1539.29 Z " />
<path stroke="none" fill="#000000" transform="matrix(0.0833333 0 0 0.0833333 -85.2583 -74)" d="M 8974.46,1537.26 L 8966.25,1522.8 L 9261.56,1524.95 L 9253.14,1539.29 L 8974.46,1537.26 Z " />
<path stroke="none" fill="#000000" transform="matrix(0.0833333 0 0 0.0833333 -85.2583 -74)" d="M 9000.41,1590.26 L 9000.51,1575.86 L 9226.53,1577.51 L 9226.43,1591.9 L 9000.41,1590.26 Z " />
<path stroke="none" fill="#000000" transform="matrix(0.0833333 0 0 0.0833333 -85.2583 -74)" d="M 8833.36,1777.58 L 8825.05,1777.52 L 8820.95,1770.29 L 8966.25,1522.8 L 8974.46,1537.26 L 8833.36,1777.58 Z " />
<path stroke="none" fill="#000000" transform="matrix(0.0833333 0 0 0.0833333 -85.2583 -74)" d="M 7531.19,1526.73 L 7539.61,1512.39 L 7681.29,1761.98 L 7677.08,1769.15 L 7668.77,1769.09 L 7531.19,1526.73 Z " />
<path stroke="none" fill="#000000" transform="matrix(0.0833333 0 0 0.0833333 -85.2583 -74)" d="M 7498.26,1575.7 L 7510.79,1568.59 L 7622.37,1765.15 L 7609.84,1772.26 L 7498.26,1575.7 Z " />
<path stroke="none" fill="#000000" transform="matrix(0.0833333 0 0 0.0833333 -85.2583 -74)" d="M 7252.51,1524.7 L 7244.3,1510.24 L 7539.61,1512.39 L 7531.19,1526.73 L 7252.51,1524.7 Z " />
<path stroke="none" fill="#000000" transform="matrix(0.0833333 0 0 0.0833333 -85.2583 -74)" d="M 7111.41,1765.02 L 7103.1,1764.96 L 7098.99,1757.73 L 7244.3,1510.24 L 7252.51,1524.7 L 7111.41,1765.02 Z " />
<path stroke="none" fill="#000000" transform="matrix(0.0833333 0 0 0.0833333 -85.2583 -74)" d="M 7170.28,1769.05 L 7157.86,1761.76 L 7272.3,1566.85 L 7284.72,1574.14 L 7170.28,1769.05 Z " />
<path stroke="none" fill="#000000" transform="matrix(0.0833333 0 0 0.0833333 -85.2583 -74)" d="M 7248.99,2007.38 L 7240.57,2021.72 L 7098.89,1772.13 L 7103.1,1764.96 L 7111.41,1765.02 L 7248.99,2007.38 Z " />
<path stroke="none" fill="#000000" transform="matrix(0.0833333 0 0 0.0833333 -85.2583 -74)" d="M 7527.67,2009.42 L 7535.88,2023.88 L 7240.57,2021.72 L 7248.99,2007.38 L 7527.67,2009.42 Z " />
<path stroke="none" fill="#000000" transform="matrix(0.0833333 0 0 0.0833333 -85.2583 -74)" d="M 7501.72,1956.42 L 7501.62,1970.82 L 7275.6,1969.17 L 7275.7,1954.77 L 7501.72,1956.42 Z " />
<path stroke="none" fill="#000000" transform="matrix(0.0833333 0 0 0.0833333 -85.2583 -74)" d="M 7668.77,1769.09 L 7677.08,1769.15 L 7681.18,1776.38 L 7535.88,2023.88 L 7527.67,2009.42 L 7668.77,1769.09 Z " />
<path stroke="none" fill="#000000" transform="matrix(0.0833333 0 0 0.0833333 -85.2583 -74)" d="M 9584.58,1775.86 L 9584.48,1790.26 L 9403.14,1788.94 L 9399.03,1781.71 L 9403.24,1774.54 L 9584.58,1775.86 Z " />
<path stroke="none" fill="#000000" transform="matrix(0.0833333 0 0 0.0833333 -85.2583 -74)" d="M 6899.15,1770.68 L 6899.25,1756.28 L 7098.99,1757.73 L 7103.1,1764.96 L 7098.89,1772.13 L 6899.15,1770.68 Z " />
<text x="0" y="0" stroke="none" fill="#000000" transform="matrix(0.0833333 0 0 0.0833333 162.246 33.2118)" font-style="normal" font-weight="normal" font-size="200px" font-family="Arial" >
N</text>
<text x="0" y="0" stroke="none" fill="#000000" transform="matrix(0.0833333 0 0 0.0833333 143.458 19.0132)" font-style="normal" font-weight="normal" font-size="200px" font-family="Arial" >
S</text>
<text x="0" y="0" stroke="none" fill="#000000" transform="matrix(0.0833333 0 0 0.0833333 123.549 32.9296)" font-style="normal" font-weight="normal" font-size="200px" font-family="Arial" >
N</text>
<path stroke="none" fill="#000000" transform="matrix(0.0833333 0 0 0.0833333 -85.2583 -74)" d="M 2664.97,1968.66 L 2656.55,1983 L 2514.86,1733.41 L 2519.07,1726.24 L 2527.39,1726.3 L 2664.97,1968.66 Z " />
<path stroke="none" fill="#000000" transform="matrix(0.0833333 0 0 0.0833333 -85.2583 -74)" d="M 2697.89,1919.69 L 2685.37,1926.8 L 2573.79,1730.24 L 2586.31,1723.13 L 2697.89,1919.69 Z " />
<path stroke="none" fill="#000000" transform="matrix(0.0833333 0 0 0.0833333 -85.2583 -74)" d="M 2943.64,1970.7 L 2951.85,1985.16 L 2656.55,1983 L 2664.97,1968.66 L 2943.64,1970.7 Z " />
<path stroke="none" fill="#000000" transform="matrix(0.0833333 0 0 0.0833333 -85.2583 -74)" d="M 3084.74,1730.37 L 3093.06,1730.43 L 3097.16,1737.66 L 2951.85,1985.16 L 2943.64,1970.7 L 3084.74,1730.37 Z " />
<path stroke="none" fill="#000000" transform="matrix(0.0833333 0 0 0.0833333 -85.2583 -74)" d="M 3025.87,1726.34 L 3038.29,1733.63 L 2923.85,1928.54 L 2911.44,1921.25 L 3025.87,1726.34 Z " />
<path stroke="none" fill="#000000" transform="matrix(0.0833333 0 0 0.0833333 -85.2583 -74)" d="M 2947.16,1488.01 L 2951.37,1480.84 L 2959.22,1480.07 L 3097.27,1723.26 L 3093.06,1730.43 L 3084.74,1730.37 L 2947.16,1488.01 Z " />
<path stroke="none" fill="#000000" transform="matrix(0.0833333 0 0 0.0833333 -85.2583 -74)" d="M 2668.49,1485.98 L 2664.38,1478.75 L 2669.67,1471.59 L 2946.2,1473.6 L 2951.37,1480.84 L 2947.16,1488.01 L 2668.49,1485.98 Z " />
<path stroke="none" fill="#000000" transform="matrix(0.0833333 0 0 0.0833333 -85.2583 -74)" d="M 2527.39,1726.3 L 2519.07,1726.24 L 2514.97,1719.01 L 2656.55,1477.87 L 2664.38,1478.75 L 2668.49,1485.98 L 2527.39,1726.3 Z " />
<path stroke="none" fill="#000000" transform="matrix(0.0833333 0 0 0.0833333 -85.2583 -74)" d="M 2990.65,1340.11 L 3004.31,1344.66 L 2959.22,1480.07 L 2951.37,1480.84 L 2946.2,1473.6 L 2990.65,1340.11 Z " />
<path stroke="none" fill="#000000" transform="matrix(0.0833333 0 0 0.0833333 -85.2583 -74)" d="M 2940.55,1323.42 L 2954.21,1327.97 L 2920.22,1430.03 L 2906.56,1425.48 L 2940.55,1323.42 Z " />
<path stroke="none" fill="#000000" transform="matrix(0.0833333 0 0 0.0833333 -85.2583 -74)" d="M 2908.48,1118.95 L 2917.03,1107.36 L 2939.89,1124.23 L 2931.34,1135.81 L 2908.48,1118.95 Z " />
<path stroke="none" fill="#000000" transform="matrix(0.0833333 0 0 0.0833333 -85.2583 -74)" d="M 2689.24,1134.2 L 2680.86,1122.49 L 2705.19,1105.08 L 2713.57,1116.79 L 2689.24,1134.2 Z " />
<path stroke="none" fill="#000000" transform="matrix(0.0833333 0 0 0.0833333 -85.2583 -74)" d="M 2669.67,1471.59 L 2664.38,1478.75 L 2656.55,1477.87 L 2613.31,1341.4 L 2627.03,1337.05 L 2669.67,1471.59 Z " />
<path stroke="none" fill="#000000" transform="matrix(0.0833333 0 0 0.0833333 -85.2583 -74)" d="M 2710,1424.05 L 2696.27,1428.4 L 2663.65,1325.45 L 2677.37,1321.1 L 2710,1424.05 Z " />
<path stroke="none" fill="#000000" transform="matrix(0.0833333 0 0 0.0833333 -85.2583 -74)" d="M 2236.18,1731.38 L 2232.08,1724.15 L 2236.29,1716.98 L 2514.97,1719.01 L 2519.07,1726.24 L 2514.86,1733.41 L 2236.18,1731.38 Z " />
<path stroke="none" fill="#000000" transform="matrix(0.0833333 0 0 0.0833333 -85.2583 -74)" d="M 3375.95,1725.29 L 3380.05,1732.52 L 3375.84,1739.69 L 3097.16,1737.66 L 3093.06,1730.43 L 3097.27,1723.26 L 3375.95,1725.29 Z " />
<path stroke="none" fill="#000000" transform="matrix(0.0833333 0 0 0.0833333 -85.2583 -74)" d="M 3525.94,1974.94 L 3517.52,1989.28 L 3375.84,1739.69 L 3380.05,1732.52 L 3388.36,1732.58 L 3525.94,1974.94 Z " />
<path stroke="none" fill="#000000" transform="matrix(0.0833333 0 0 0.0833333 -85.2583 -74)" d="M 3558.87,1925.97 L 3546.35,1933.08 L 3434.76,1736.52 L 3447.29,1729.41 L 3558.87,1925.97 Z " />
<path stroke="none" fill="#000000" transform="matrix(0.0833333 0 0 0.0833333 -85.2583 -74)" d="M 3804.62,1976.98 L 3812.83,1991.44 L 3517.52,1989.28 L 3525.94,1974.94 L 3804.62,1976.98 Z " />
<path stroke="none" fill="#000000" transform="matrix(0.0833333 0 0 0.0833333 -85.2583 -74)" d="M 3945.72,1736.65 L 3962.35,1736.77 L 3812.83,1991.44 L 3804.62,1976.98 L 3945.72,1736.65 Z " />
<path stroke="none" fill="#000000" transform="matrix(0.0833333 0 0 0.0833333 -85.2583 -74)" d="M 3886.85,1732.62 L 3899.27,1739.91 L 3784.83,1934.82 L 3772.41,1927.53 L 3886.85,1732.62 Z " />
<path stroke="none" fill="#000000" transform="matrix(0.0833333 0 0 0.0833333 -85.2583 -74)" d="M 3808.14,1494.29 L 3816.56,1479.95 L 3962.35,1736.77 L 3945.72,1736.65 L 3808.14,1494.29 Z " />
<path stroke="none" fill="#000000" transform="matrix(0.0833333 0 0 0.0833333 -85.2583 -74)" d="M 3529.46,1492.26 L 3521.25,1477.8 L 3816.56,1479.95 L 3808.14,1494.29 L 3529.46,1492.26 Z " />
<path stroke="none" fill="#000000" transform="matrix(0.0833333 0 0 0.0833333 -85.2583 -74)" d="M 3555.41,1545.26 L 3555.51,1530.86 L 3781.53,1532.51 L 3781.43,1546.9 L 3555.41,1545.26 Z " />
<path stroke="none" fill="#000000" transform="matrix(0.0833333 0 0 0.0833333 -85.2583 -74)" d="M 3388.36,1732.58 L 3380.05,1732.52 L 3375.95,1725.29 L 3521.25,1477.8 L 3529.46,1492.26 L 3388.36,1732.58 Z " />
<path stroke="none" fill="#000000" transform="matrix(0.0833333 0 0 0.0833333 -85.2583 -74)" d="M 2086.19,1481.73 L 2094.61,1467.39 L 2236.29,1716.98 L 2232.08,1724.15 L 2223.77,1724.09 L 2086.19,1481.73 Z " />
<path stroke="none" fill="#000000" transform="matrix(0.0833333 0 0 0.0833333 -85.2583 -74)" d="M 2053.26,1530.7 L 2065.79,1523.59 L 2177.37,1720.15 L 2164.84,1727.26 L 2053.26,1530.7 Z " />
<path stroke="none" fill="#000000" transform="matrix(0.0833333 0 0 0.0833333 -85.2583 -74)" d="M 1807.51,1479.7 L 1799.3,1465.24 L 2094.61,1467.39 L 2086.19,1481.73 L 1807.51,1479.7 Z " />
<path stroke="none" fill="#000000" transform="matrix(0.0833333 0 0 0.0833333 -85.2583 -74)" d="M 1666.41,1720.02 L 1649.78,1719.9 L 1799.3,1465.24 L 1807.51,1479.7 L 1666.41,1720.02 Z " />
<path stroke="none" fill="#000000" transform="matrix(0.0833333 0 0 0.0833333 -85.2583 -74)" d="M 1725.28,1724.05 L 1712.86,1716.76 L 1827.3,1521.85 L 1839.72,1529.14 L 1725.28,1724.05 Z " />
<path stroke="none" fill="#000000" transform="matrix(0.0833333 0 0 0.0833333 -85.2583 -74)" d="M 1803.99,1962.38 L 1795.57,1976.72 L 1649.78,1719.9 L 1666.41,1720.02 L 1803.99,1962.38 Z " />
<path stroke="none" fill="#000000" transform="matrix(0.0833333 0 0 0.0833333 -85.2583 -74)" d="M 2082.67,1964.42 L 2090.88,1978.88 L 1795.57,1976.72 L 1803.99,1962.38 L 2082.67,1964.42 Z " />
<path stroke="none" fill="#000000" transform="matrix(0.0833333 0 0 0.0833333 -85.2583 -74)" d="M 2056.72,1911.42 L 2056.62,1925.82 L 1830.6,1924.17 L 1830.7,1909.77 L 2056.72,1911.42 Z " />
<path stroke="none" fill="#000000" transform="matrix(0.0833333 0 0 0.0833333 -85.2583 -74)" d="M 2223.77,1724.09 L 2232.08,1724.15 L 2236.18,1731.38 L 2090.88,1978.88 L 2082.67,1964.42 L 2223.77,1724.09 Z " />
<path stroke="none" fill="#000000" transform="matrix(0.0833333 0 0 0.0833333 -85.2583 -74)" d="M 6055.15,1295 L 4979.84,1295 L 4979.84,1285 L 6055.15,1285 Z " />
<path stroke="none" fill="#000000" transform="matrix(0.0833333 0 0 0.0833333 -85.2583 -74)" d="M 6159.18,1290 C 6159.18,1290 6039.18,1315.77 6039.18,1315.77 C 6039.18,1315.77 6054.15,1301.28 6054.15,1290 C 6054.15,1278.29 6039.18,1263.23 6039.18,1263.23 C 6039.18,1263.23 6159.18,1290 6159.18,1290 C 6159.18,1290 6159.18,1290 6159.18,1290 " />
<path stroke="#000000" stroke-width="1" fill="none" transform="matrix(0.0833333 0 0 0.0833333 -85.2583 -74)" d="M 6159.18,1290 C 6159.18,1290 6039.18,1315.77 6039.18,1315.77 C 6039.18,1315.77 6054.15,1301.28 6054.15,1290 C 6054.15,1278.29 6039.18,1263.23 6039.18,1263.23 C 6039.18,1263.23 6159.18,1290 6159.18,1290 C 6159.18,1290 6159.18,1290 6159.18,1290 " />
<text x="0" y="0" stroke="none" fill="#000000" transform="matrix(0.0833333 0 0 0.0833333 362.867 23.5)" font-style="normal" font-weight="normal" font-size="200px" font-family="Arial" >
Br</text>
<text x="0" y="0" stroke="none" fill="#000000" transform="matrix(0.0833333 0 0 0.0833333 379.567 27.1667)" font-style="normal" font-weight="normal" font-size="150px" font-family="Arial" >
2</text>
<text x="0" y="0" stroke="none" fill="#000000" transform="matrix(0.0833333 0 0 0.0833333 386.518 23.5)" font-style="normal" font-weight="normal" font-size="200px" font-family="Arial" >
,</text>
<text x="0" y="0" stroke="none" fill="#000000" transform="matrix(0.0833333 0 0 0.0833333 326.617 58.5)" font-style="normal" font-weight="normal" font-size="200px" font-family="Arial" >
chloroform, </text>
<text x="0" y="0" stroke="none" fill="#000000" transform="matrix(0.0833333 0 0 0.0833333 414.813 58.5)" font-style="normal" font-weight="normal" font-size="200px" font-family="Arial" >
I</text>
<text x="0" y="0" stroke="none" fill="#000000" transform="matrix(0.0833333 0 0 0.0833333 419.48 62.1667)" font-style="normal" font-weight="normal" font-size="150px" font-family="Arial" >
2</text>
<text x="0" y="0" stroke="none" fill="#000000" transform="matrix(0.0833333 0 0 0.0833333 6.61667 28.5)" font-style="normal" font-weight="bold" font-size="280px" font-family="Arial" >
a)</text>
<text x="0" y="0" stroke="none" fill="#000000" transform="matrix(0.0833333 0 0 0.0833333 9.11667 153.5)" font-style="normal" font-weight="bold" font-size="280px" font-family="Arial" >
b)</text>
<path stroke="none" fill="#000000" transform="matrix(0.0833333 0 0 0.0833333 -85.2583 -74)" d="M 4616.58,2975.15 L 2676.14,2975.15 L 2676.14,2965.15 L 4616.58,2965.15 Z " />
<path stroke="none" fill="#000000" transform="matrix(0.0833333 0 0 0.0833333 -85.2583 -74)" d="M 4720.6,2970.15 C 4720.6,2970.15 4600.6,2995.91 4600.6,2995.91 C 4600.6,2995.91 4615.58,2981.42 4615.58,2970.15 C 4615.58,2958.43 4600.6,2943.38 4600.6,2943.38 C 4600.6,2943.38 4720.6,2970.15 4720.6,2970.15 C 4720.6,2970.15 4720.6,2970.15 4720.6,2970.15 " />
<path stroke="#000000" stroke-width="1" fill="none" transform="matrix(0.0833333 0 0 0.0833333 -85.2583 -74)" d="M 4720.6,2970.15 C 4720.6,2970.15 4600.6,2995.91 4600.6,2995.91 C 4600.6,2995.91 4615.58,2981.42 4615.58,2970.15 C 4615.58,2958.43 4600.6,2943.38 4600.6,2943.38 C 4600.6,2943.38 4720.6,2970.15 4720.6,2970.15 C 4720.6,2970.15 4720.6,2970.15 4720.6,2970.15 " />
<text x="0" y="0" stroke="none" fill="#000000" transform="matrix(0.0833333 0 0 0.0833333 81.5133 208.665)" font-style="normal" font-weight="normal" font-size="200px" font-family="Arial" >
S</text>
<text x="0" y="0" stroke="none" fill="#000000" transform="matrix(0.0833333 0 0 0.0833333 38.9684 201.945)" font-style="normal" font-weight="normal" font-size="200px" font-family="Arial" >
R</text>
<path stroke="none" fill="#000000" transform="matrix(0.0833333 0 0 0.0833333 -85.2583 -74)" d="M 1919.6,2864.95 L 1930.04,2879.36 L 1844.25,3142.25 L 1835.79,3144.99 L 1830.08,3139.27 L 1919.6,2864.95 Z " />
<path stroke="none" fill="#000000" transform="matrix(0.0833333 0 0 0.0833333 -85.2583 -74)" d="M 1956.27,2922.78 L 1969.96,2927.24 L 1904.74,3127.14 L 1891.05,3122.67 L 1956.27,2922.78 Z " />
<path stroke="none" fill="#000000" transform="matrix(0.0833333 0 0 0.0833333 -85.2583 -74)" d="M 2217.06,2865.32 L 2206.58,2879.71 L 1930.04,2879.36 L 1919.6,2864.95 L 2217.06,2865.32 Z " />
<path stroke="none" fill="#000000" transform="matrix(0.0833333 0 0 0.0833333 -85.2583 -74)" d="M 2308.62,3148.34 L 2291.7,3142.82 L 2206.58,2879.71 L 2217.06,2865.32 L 2308.62,3148.34 Z " />
<path stroke="none" fill="#000000" transform="matrix(0.0833333 0 0 0.0833333 -85.2583 -74)" d="M 2244.96,3123.12 L 2231.26,3127.55 L 2166.53,2927.49 L 2180.24,2923.06 L 2244.96,3123.12 Z " />
<path stroke="none" fill="#000000" transform="matrix(0.0833333 0 0 0.0833333 -85.2583 -74)" d="M 2163.41,3253.57 L 2154.96,3241.91 L 2291.7,3142.82 L 2308.62,3148.34 L 2163.41,3253.57 Z " />
<path stroke="none" fill="#000000" transform="matrix(0.0833333 0 0 0.0833333 -85.2583 -74)" d="M 1834.51,3152.97 L 1835.79,3144.99 L 1844.25,3142.25 L 1979.71,3240.93 L 1971.23,3252.57 L 1834.51,3152.97 Z " />
<path stroke="none" fill="#000000" transform="matrix(0.0833333 0 0 0.0833333 -85.2583 -74)" d="M 1673.99,3204.95 L 1669.55,3191.25 L 1830.08,3139.27 L 1835.79,3144.99 L 1834.51,3152.97 L 1673.99,3204.95 Z " />
<text x="0" y="0" stroke="none" fill="#000000" transform="matrix(0.0833333 0 0 0.0833333 363.56 205.891)" font-style="normal" font-weight="normal" font-size="200px" font-family="Arial" >
S</text>
<text x="0" y="0" stroke="none" fill="#000000" transform="matrix(0.0833333 0 0 0.0833333 320.994 199.304)" font-style="normal" font-weight="normal" font-size="200px" font-family="Arial" >
R</text>
<text x="0" y="0" stroke="none" fill="#000000" transform="matrix(0.0833333 0 0 0.0833333 405.642 199.143)" font-style="normal" font-weight="normal" font-size="200px" font-family="Arial" >
B</text>
<text x="0" y="0" stroke="none" fill="#000000" transform="matrix(0.0833333 0 0 0.0833333 412.118 221.875)" font-style="normal" font-weight="normal" font-size="200px" font-family="Arial" >
O</text>
<text x="0" y="0" stroke="none" fill="#000000" transform="matrix(0.0833333 0 0 0.0833333 424.006 185.049)" font-style="normal" font-weight="normal" font-size="200px" font-family="Arial" >
O</text>
<path stroke="none" fill="#000000" transform="matrix(0.0833333 0 0 0.0833333 -85.2583 -74)" d="M 5302.73,2832.12 L 5313.22,2846.5 L 5228.27,3109.67 L 5219.81,3112.44 L 5214.08,3106.73 L 5302.73,2832.12 Z " />
<path stroke="none" fill="#000000" transform="matrix(0.0833333 0 0 0.0833333 -85.2583 -74)" d="M 5339.59,2889.84 L 5353.3,2894.26 L 5288.7,3094.36 L 5275,3089.93 L 5339.59,2889.84 Z " />
<path stroke="none" fill="#000000" transform="matrix(0.0833333 0 0 0.0833333 -85.2583 -74)" d="M 5600.19,2831.56 L 5589.76,2845.98 L 5313.22,2846.5 L 5302.73,2832.12 L 5600.19,2831.56 Z " />
<path stroke="none" fill="#000000" transform="matrix(0.0833333 0 0 0.0833333 -85.2583 -74)" d="M 5689.89,3105.83 L 5684.18,3111.55 L 5675.71,3108.82 L 5589.76,2845.98 L 5600.19,2831.56 L 5689.89,3105.83 Z " />
<path stroke="none" fill="#000000" transform="matrix(0.0833333 0 0 0.0833333 -85.2583 -74)" d="M 5628.91,3089.26 L 5615.22,3093.74 L 5549.87,2893.89 L 5563.55,2889.41 L 5628.91,3089.26 Z " />
<path stroke="none" fill="#000000" transform="matrix(0.0833333 0 0 0.0833333 -85.2583 -74)" d="M 5547.8,3219.95 L 5539.32,3208.31 L 5675.71,3108.82 L 5684.18,3111.55 L 5685.46,3119.53 L 5547.8,3219.95 Z " />
<path stroke="none" fill="#000000" transform="matrix(0.0833333 0 0 0.0833333 -85.2583 -74)" d="M 5218.56,3120.42 L 5219.81,3112.44 L 5228.27,3109.67 L 5364.06,3207.93 L 5355.62,3219.6 L 5218.56,3120.42 Z " />
<path stroke="none" fill="#000000" transform="matrix(0.0833333 0 0 0.0833333 -85.2583 -74)" d="M 5058.24,3172.89 L 5053.76,3159.2 L 5214.08,3106.73 L 5219.81,3112.44 L 5218.56,3120.42 L 5058.24,3172.89 Z " />
<path stroke="none" fill="#000000" transform="matrix(0.0833333 0 0 0.0833333 -85.2583 -74)" d="M 5846.97,3156.54 L 5842.55,3170.24 L 5685.46,3119.53 L 5684.18,3111.55 L 5689.89,3105.83 L 5846.97,3156.54 Z " />
<path stroke="none" fill="#000000" transform="matrix(0.0833333 0 0 0.0833333 -85.2583 -74)" d="M 6017.32,3360.06 L 6003.63,3364.54 L 5991.41,3327.17 L 6005.1,3322.7 L 6017.32,3360.06 Z " />
<path stroke="none" fill="#000000" transform="matrix(0.0833333 0 0 0.0833333 -85.2583 -74)" d="M 6082.71,3099.33 L 6091.19,3110.97 L 6052.08,3139.5 L 6043.59,3127.86 L 6082.71,3099.33 Z " />
<path stroke="none" fill="#000000" transform="matrix(0.0833333 0 0 0.0833333 -85.2583 -74)" d="M 6328.27,3464.77 L 6333.51,3471.96 L 6327.04,3479.17 L 6164.53,3479.48 L 6164.5,3465.08 L 6328.27,3464.77 Z " />
<path stroke="none" fill="#000000" transform="matrix(0.0833333 0 0 0.0833333 -85.2583 -74)" d="M 6420.65,3189.2 L 6421.68,3198.83 L 6413.22,3201.6 L 6287.89,3110.91 L 6296.33,3099.24 L 6420.65,3189.2 Z " />
<path stroke="none" fill="#000000" transform="matrix(0.0833333 0 0 0.0833333 -85.2583 -74)" d="M 6413.22,3201.6 L 6421.68,3198.83 L 6426.54,3207.22 L 6342.36,3468 L 6333.51,3471.96 L 6328.27,3464.77 L 6413.22,3201.6 Z " />
<path stroke="none" fill="#000000" transform="matrix(0.0833333 0 0 0.0833333 -85.2583 -74)" d="M 6598.84,3581.61 L 6593.01,3594.77 L 6342,3483.59 L 6333.51,3471.96 L 6342.36,3468 L 6598.84,3581.61 Z " />
<path stroke="none" fill="#000000" transform="matrix(0.0833333 0 0 0.0833333 -85.2583 -74)" d="M 6371.21,3756.56 L 6356.9,3758.09 L 6327.04,3479.17 L 6333.51,3471.96 L 6342,3483.59 L 6371.21,3756.56 Z " />
<path stroke="none" fill="#000000" transform="matrix(0.0833333 0 0 0.0833333 -85.2583 -74)" d="M 6607.95,2980.38 L 6618.67,2989.99 L 6435.37,3194.36 L 6421.68,3198.83 L 6420.65,3189.2 L 6607.95,2980.38 Z " />
<path stroke="none" fill="#000000" transform="matrix(0.0833333 0 0 0.0833333 -85.2583 -74)" d="M 6704,3250.93 L 6701.04,3265.02 L 6426.54,3207.22 L 6421.68,3198.83 L 6435.37,3194.36 L 6704,3250.93 Z " />
<text x="0" y="0" stroke="none" fill="#000000" transform="matrix(0.0833333 0 0 0.0833333 176.753 142.012)" font-style="normal" font-weight="normal" font-size="200px" font-family="Arial" >
1) </text>
<text x="0" y="0" stroke="none" fill="#000000" transform="matrix(0.0833333 0 0 0.0833333 196.272 142.012)" font-style="normal" font-weight="normal" font-size="200px" font-family="Arial" >
n-BuLi</text>
<text x="0" y="0" stroke="none" fill="#000000" transform="matrix(0.0833333 0 0 0.0833333 176.753 160.762)" font-style="normal" font-weight="normal" font-size="200px" font-family="Arial" >
2) </text>
<text x="0" y="0" stroke="none" fill="#000000" transform="matrix(0.0833333 0 0 0.0833333 196.272 160.762)" font-style="normal" font-weight="normal" font-size="200px" font-family="Arial" >
IPTMDOB</text>
<text x="0" y="0" stroke="none" fill="#000000" transform="matrix(0.0833333 0 0 0.0833333 159.203 194.562)" font-style="normal" font-weight="normal" font-size="200px" font-family="Arial" >
THF </text>
<text x="0" y="0" stroke="none" fill="#000000" transform="matrix(0.0833333 0 0 0.0833333 196.267 194.562)" font-style="normal" font-weight="normal" font-size="200px" font-family="Arial" >
abs, </text>
<text x="0" y="0" stroke="none" fill="#000000" transform="matrix(0.0833333 0 0 0.0833333 232.472 194.562)" font-style="normal" font-weight="normal" font-size="200px" font-family="Arial" >
-78°C</text>
<text x="0" y="0" stroke="none" fill="#000000" transform="matrix(0.0833333 0 0 0.0833333 499.917 178.25)" font-style="normal" font-weight="normal" font-size="200px" font-family="Arial" >
Hex-T-B-pin </text>
<text x="0" y="0" stroke="none" fill="#000000" transform="matrix(0.0833333 0 0 0.0833333 594.51 178.25)" font-style="normal" font-weight="normal" font-size="200px" font-family="Arial" >
 </text>
<text x="0" y="0" stroke="none" fill="#000000" transform="matrix(0.0833333 0 0 0.0833333 599.177 178.25)" font-style="normal" font-weight="normal" font-size="200px" font-family="Arial" >
 </text>
<text x="0" y="0" stroke="none" fill="#000000" transform="matrix(0.0833333 0 0 0.0833333 603.844 178.25)" font-style="normal" font-weight="normal" font-size="200px" font-family="Arial" >
R </text>
<text x="0" y="0" stroke="none" fill="#000000" transform="matrix(0.0833333 0 0 0.0833333 620.547 178.25)" font-style="normal" font-weight="normal" font-size="200px" font-family="Arial" >
= </text>
<text x="0" y="0" stroke="none" fill="#000000" transform="matrix(0.0833333 0 0 0.0833333 634.963 178.25)" font-style="normal" font-weight="normal" font-size="200px" font-family="Arial" >
C</text>
<text x="0" y="0" stroke="none" fill="#000000" transform="matrix(0.0833333 0 0 0.0833333 646.999 181.917)" font-style="normal" font-weight="normal" font-size="150px" font-family="Arial" >
6</text>
<text x="0" y="0" stroke="none" fill="#000000" transform="matrix(0.0833333 0 0 0.0833333 653.951 178.25)" font-style="normal" font-weight="normal" font-size="200px" font-family="Arial" >
H</text>
<text x="0" y="0" stroke="none" fill="#000000" transform="matrix(0.0833333 0 0 0.0833333 665.987 181.917)" font-style="normal" font-weight="normal" font-size="150px" font-family="Arial" >
13</text>
<text x="0" y="0" stroke="none" fill="#000000" transform="matrix(0.0833333 0 0 0.0833333 679.891 178.25)" font-style="normal" font-weight="normal" font-size="200px" font-family="Arial" >
 </text>
<text x="0" y="0" stroke="none" fill="#000000" transform="matrix(0.0833333 0 0 0.0833333 684.558 178.25)" font-style="normal" font-weight="normal" font-size="200px" font-family="Arial" >
 </text>
<text x="0" y="0" stroke="none" fill="#000000" transform="matrix(0.0833333 0 0 0.0833333 689.225 178.25)" font-style="normal" font-weight="normal" font-size="200px" font-family="Arial" >
93%</text>
<text x="0" y="0" stroke="none" fill="#000000" transform="matrix(0.0833333 0 0 0.0833333 499.917 197)" font-style="normal" font-weight="normal" font-size="200px" font-family="Arial" >
Oct-T-B-pin </text>
<text x="0" y="0" stroke="none" fill="#000000" transform="matrix(0.0833333 0 0 0.0833333 590.872 197)" font-style="normal" font-weight="normal" font-size="200px" font-family="Arial" >
 </text>
<text x="0" y="0" stroke="none" fill="#000000" transform="matrix(0.0833333 0 0 0.0833333 595.538 197)" font-style="normal" font-weight="normal" font-size="200px" font-family="Arial" >
 </text>
<text x="0" y="0" stroke="none" fill="#000000" transform="matrix(0.0833333 0 0 0.0833333 600.205 197)" font-style="normal" font-weight="normal" font-size="200px" font-family="Arial" >
 </text>
<text x="0" y="0" stroke="none" fill="#000000" transform="matrix(0.0833333 0 0 0.0833333 604.872 197)" font-style="normal" font-weight="normal" font-size="200px" font-family="Arial" >
R </text>
<text x="0" y="0" stroke="none" fill="#000000" transform="matrix(0.0833333 0 0 0.0833333 621.575 197)" font-style="normal" font-weight="normal" font-size="200px" font-family="Arial" >
= </text>
<text x="0" y="0" stroke="none" fill="#000000" transform="matrix(0.0833333 0 0 0.0833333 635.991 197)" font-style="normal" font-weight="normal" font-size="200px" font-family="Arial" >
C</text>
<text x="0" y="0" stroke="none" fill="#000000" transform="matrix(0.0833333 0 0 0.0833333 648.027 200.667)" font-style="normal" font-weight="normal" font-size="150px" font-family="Arial" >
8</text>
<text x="0" y="0" stroke="none" fill="#000000" transform="matrix(0.0833333 0 0 0.0833333 654.979 197)" font-style="normal" font-weight="normal" font-size="200px" font-family="Arial" >
H</text>
<text x="0" y="0" stroke="none" fill="#000000" transform="matrix(0.0833333 0 0 0.0833333 667.015 200.667)" font-style="normal" font-weight="normal" font-size="150px" font-family="Arial" >
17</text>
<text x="0" y="0" stroke="none" fill="#000000" transform="matrix(0.0833333 0 0 0.0833333 680.919 197)" font-style="normal" font-weight="normal" font-size="200px" font-family="Arial" >
 </text>
<text x="0" y="0" stroke="none" fill="#000000" transform="matrix(0.0833333 0 0 0.0833333 685.586 197)" font-style="normal" font-weight="normal" font-size="200px" font-family="Arial" >
 </text>
<text x="0" y="0" stroke="none" fill="#000000" transform="matrix(0.0833333 0 0 0.0833333 690.253 197)" font-style="normal" font-weight="normal" font-size="200px" font-family="Arial" >
98%</text>
<text x="0" y="0" stroke="none" fill="#000000" transform="matrix(0.0833333 0 0 0.0833333 499.917 215.75)" font-style="normal" font-weight="normal" font-size="200px" font-family="Arial" >
Dec-T-B-pin </text>
<text x="0" y="0" stroke="none" fill="#000000" transform="matrix(0.0833333 0 0 0.0833333 594.51 215.75)" font-style="normal" font-weight="normal" font-size="200px" font-family="Arial" >
 </text>
<text x="0" y="0" stroke="none" fill="#000000" transform="matrix(0.0833333 0 0 0.0833333 599.177 215.75)" font-style="normal" font-weight="normal" font-size="200px" font-family="Arial" >
 </text>
<text x="0" y="0" stroke="none" fill="#000000" transform="matrix(0.0833333 0 0 0.0833333 603.844 215.75)" font-style="normal" font-weight="normal" font-size="200px" font-family="Arial" >
R </text>
<text x="0" y="0" stroke="none" fill="#000000" transform="matrix(0.0833333 0 0 0.0833333 620.547 215.75)" font-style="normal" font-weight="normal" font-size="200px" font-family="Arial" >
= </text>
<text x="0" y="0" stroke="none" fill="#000000" transform="matrix(0.0833333 0 0 0.0833333 634.963 215.75)" font-style="normal" font-weight="normal" font-size="200px" font-family="Arial" >
C</text>
<text x="0" y="0" stroke="none" fill="#000000" transform="matrix(0.0833333 0 0 0.0833333 646.999 219.417)" font-style="normal" font-weight="normal" font-size="150px" font-family="Arial" >
10</text>
<text x="0" y="0" stroke="none" fill="#000000" transform="matrix(0.0833333 0 0 0.0833333 660.903 215.75)" font-style="normal" font-weight="normal" font-size="200px" font-family="Arial" >
H</text>
<text x="0" y="0" stroke="none" fill="#000000" transform="matrix(0.0833333 0 0 0.0833333 672.939 219.417)" font-style="normal" font-weight="normal" font-size="150px" font-family="Arial" >
21</text>
<text x="0" y="0" stroke="none" fill="#000000" transform="matrix(0.0833333 0 0 0.0833333 686.843 215.75)" font-style="normal" font-weight="normal" font-size="200px" font-family="Arial" >
 </text>
<text x="0" y="0" stroke="none" fill="#000000" transform="matrix(0.0833333 0 0 0.0833333 691.51 215.75)" font-style="normal" font-weight="normal" font-size="200px" font-family="Arial" >
92%</text>
<text x="0" y="0" stroke="none" fill="#000000" transform="matrix(0.0833333 0 0 0.0833333 624.117 133.5)" font-style="normal" font-weight="normal" font-size="200px" font-family="Arial" >
59%</text>
<text x="0" y="0" stroke="none" fill="#000000" transform="matrix(0.0833333 0 0 0.0833333 91.6849 343.477)" font-style="normal" font-weight="normal" font-size="200px" font-family="Arial" >
S</text>
<text x="0" y="0" stroke="none" fill="#000000" transform="matrix(0.0833333 0 0 0.0833333 134.015 337.371)" font-style="normal" font-weight="normal" font-size="200px" font-family="Arial" >
Br</text>
<path stroke="none" fill="#000000" transform="matrix(0.0833333 0 0 0.0833333 -85.2583 -74)" d="M 2334.61,4497.7 L 2345.27,4483.44 L 2430.93,4760.04 L 2425.14,4765.68 L 2416.71,4762.81 L 2334.61,4497.7 Z " />
<path stroke="none" fill="#000000" transform="matrix(0.0833333 0 0 0.0833333 -85.2583 -74)" d="M 2294.04,4544.87 L 2307.8,4540.61 L 2370.34,4742.56 L 2356.59,4746.82 L 2294.04,4544.87 Z " />
<path stroke="none" fill="#000000" transform="matrix(0.0833333 0 0 0.0833333 -85.2583 -74)" d="M 2057.1,4493.85 L 2046.83,4479.31 L 2345.27,4483.44 L 2334.61,4497.7 L 2057.1,4493.85 Z " />
<path stroke="none" fill="#000000" transform="matrix(0.0833333 0 0 0.0833333 -85.2583 -74)" d="M 1967.69,4756.6 L 1950.69,4761.86 L 2046.83,4479.31 L 2057.1,4493.85 L 1967.69,4756.6 Z " />
<path stroke="none" fill="#000000" transform="matrix(0.0833333 0 0 0.0833333 -85.2583 -74)" d="M 2028.23,4742.28 L 2014.6,4737.64 L 2082.71,4537.49 L 2096.34,4542.13 L 2028.23,4742.28 Z " />
<path stroke="none" fill="#000000" transform="matrix(0.0833333 0 0 0.0833333 -85.2583 -74)" d="M 2102.61,4857.5 L 2093.98,4869.03 L 1950.69,4761.86 L 1967.69,4756.6 L 2102.61,4857.5 Z " />
<path stroke="none" fill="#000000" transform="matrix(0.0833333 0 0 0.0833333 -85.2583 -74)" d="M 2416.71,4762.81 L 2425.14,4765.68 L 2426.29,4773.68 L 2286.08,4872.61 L 2277.78,4860.84 L 2416.71,4762.81 Z " />
<path stroke="none" fill="#000000" transform="matrix(0.0833333 0 0 0.0833333 -85.2583 -74)" d="M 2587.5,4813.32 L 2582.86,4826.96 L 2426.29,4773.68 L 2425.14,4765.68 L 2430.93,4760.04 L 2587.5,4813.32 Z " />
<text x="0" y="0" stroke="none" fill="#000000" transform="matrix(0.0833333 0 0 0.0833333 4.06397 303.82)" font-style="normal" font-weight="bold" font-size="280px" font-family="Arial" >
c)</text>
<text x="0" y="0" stroke="none" fill="#000000" transform="matrix(0.0833333 0 0 0.0833333 309.089 339.548)" font-style="normal" font-weight="normal" font-size="200px" font-family="Arial" >
S</text>
<text x="0" y="0" stroke="none" fill="#000000" transform="matrix(0.0833333 0 0 0.0833333 350.019 333.555)" font-style="normal" font-weight="normal" font-size="200px" font-family="Arial" >
MgBr</text>
<path stroke="none" fill="#000000" transform="matrix(0.0833333 0 0 0.0833333 -85.2583 -74)" d="M 4944.61,4450.94 L 4955.31,4436.71 L 5040.23,4713.54 L 5034.43,4719.16 L 5026.01,4716.27 L 4944.61,4450.94 Z " />
<path stroke="none" fill="#000000" transform="matrix(0.0833333 0 0 0.0833333 -85.2583 -74)" d="M 4903.92,4498 L 4917.69,4493.78 L 4979.69,4695.9 L 4965.93,4700.12 L 4903.92,4498 Z " />
<path stroke="none" fill="#000000" transform="matrix(0.0833333 0 0 0.0833333 -85.2583 -74)" d="M 4667.11,4446.36 L 4656.89,4431.79 L 4955.31,4436.71 L 4944.61,4450.94 L 4667.11,4446.36 Z " />
<path stroke="none" fill="#000000" transform="matrix(0.0833333 0 0 0.0833333 -85.2583 -74)" d="M 4577.01,4708.86 L 4559.99,4714.08 L 4656.89,4431.79 L 4667.11,4446.36 L 4577.01,4708.86 Z " />
<path stroke="none" fill="#000000" transform="matrix(0.0833333 0 0 0.0833333 -85.2583 -74)" d="M 4637.59,4694.7 L 4623.97,4690.03 L 4692.61,4490.06 L 4706.23,4494.74 L 4637.59,4694.7 Z " />
<path stroke="none" fill="#000000" transform="matrix(0.0833333 0 0 0.0833333 -85.2583 -74)" d="M 4711.63,4810.11 L 4702.98,4821.62 L 4559.99,4714.08 L 4577.01,4708.86 L 4711.63,4810.11 Z " />
<path stroke="none" fill="#000000" transform="matrix(0.0833333 0 0 0.0833333 -85.2583 -74)" d="M 5026.01,4716.27 L 5034.43,4719.16 L 5035.56,4727.16 L 4895.06,4825.74 L 4886.79,4813.95 L 5026.01,4716.27 Z " />
<path stroke="none" fill="#000000" transform="matrix(0.0833333 0 0 0.0833333 -85.2583 -74)" d="M 5181.35,4761.98 L 5176.67,4775.6 L 5035.56,4727.16 L 5034.43,4719.16 L 5040.23,4713.54 L 5181.35,4761.98 Z " />
<path stroke="none" fill="#000000" transform="matrix(0.0833333 0 0 0.0833333 -85.2583 -74)" d="M 7690.39,4733.84 L 6201.87,4733.84 L 6201.87,4723.84 L 7690.39,4723.84 Z " />
<path stroke="none" fill="#000000" transform="matrix(0.0833333 0 0 0.0833333 -85.2583 -74)" d="M 7794.41,4728.84 C 7794.41,4728.84 7674.41,4754.61 7674.41,4754.61 C 7674.41,4754.61 7689.39,4740.12 7689.39,4728.84 C 7689.39,4717.13 7674.41,4702.07 7674.41,4702.07 C 7674.41,4702.07 7794.41,4728.84 7794.41,4728.84 C 7794.41,4728.84 7794.41,4728.84 7794.41,4728.84 " />
<path stroke="#000000" stroke-width="1" fill="none" transform="matrix(0.0833333 0 0 0.0833333 -85.2583 -74)" d="M 7794.41,4728.84 C 7794.41,4728.84 7674.41,4754.61 7674.41,4754.61 C 7674.41,4754.61 7689.39,4740.12 7689.39,4728.84 C 7689.39,4717.13 7674.41,4702.07 7674.41,4702.07 C 7674.41,4702.07 7794.41,4728.84 7794.41,4728.84 C 7794.41,4728.84 7794.41,4728.84 7794.41,4728.84 " />
<text x="0" y="0" stroke="none" fill="#000000" transform="matrix(0.0833333 0 0 0.0833333 191.375 295.75)" font-style="normal" font-weight="normal" font-size="200px" font-family="Arial" >
Mg</text>
<text x="0" y="0" stroke="none" fill="#000000" transform="matrix(0.0833333 0 0 0.0833333 186.635 341.32)" font-style="normal" font-weight="normal" font-size="200px" font-family="Arial" >
THF</text>
<text x="0" y="0" stroke="none" fill="#000000" transform="matrix(0.0833333 0 0 0.0833333 464.064 346.32)" font-style="normal" font-weight="normal" font-size="200px" font-family="Arial" >
THF</text>
<text x="0" y="0" stroke="none" fill="#000000" transform="matrix(0.0833333 0 0 0.0833333 601.846 338.442)" font-style="normal" font-weight="normal" font-size="200px" font-family="Arial" >
S</text>
<text x="0" y="0" stroke="none" fill="#000000" transform="matrix(0.0833333 0 0 0.0833333 643.696 330.379)" font-style="normal" font-weight="normal" font-size="200px" font-family="Arial" >
B</text>
<text x="0" y="0" stroke="none" fill="#000000" transform="matrix(0.0833333 0 0 0.0833333 648.485 353.595)" font-style="normal" font-weight="normal" font-size="200px" font-family="Arial" >
O</text>
<text x="0" y="0" stroke="none" fill="#000000" transform="matrix(0.0833333 0 0 0.0833333 659.97 313.794)" font-style="normal" font-weight="normal" font-size="200px" font-family="Arial" >
O</text>
<path stroke="none" fill="#000000" transform="matrix(0.0833333 0 0 0.0833333 -85.2583 -74)" d="M 8435.51,4432.5 L 8445.49,4417.76 L 8543.73,4689.09 L 8538.21,4694.99 L 8529.66,4692.52 L 8435.51,4432.5 Z " />
<path stroke="none" fill="#000000" transform="matrix(0.0833333 0 0 0.0833333 -85.2583 -74)" d="M 8397.14,4481.64 L 8410.68,4476.73 L 8482.26,4674.44 L 8468.72,4679.34 L 8397.14,4481.64 Z " />
<path stroke="none" fill="#000000" transform="matrix(0.0833333 0 0 0.0833333 -85.2583 -74)" d="M 8159.12,4441.69 L 8148.19,4427.65 L 8445.49,4417.76 L 8435.51,4432.5 L 8159.12,4441.69 Z " />
<path stroke="none" fill="#000000" transform="matrix(0.0833333 0 0 0.0833333 -85.2583 -74)" d="M 8082.46,4707.39 L 8065.72,4713.45 L 8148.19,4427.65 L 8159.12,4441.69 L 8082.46,4707.39 Z " />
<path stroke="none" fill="#000000" transform="matrix(0.0833333 0 0 0.0833333 -85.2583 -74)" d="M 8142.38,4690.19 L 8128.55,4686.2 L 8186.84,4484.18 L 8200.67,4488.17 L 8142.38,4690.19 Z " />
<path stroke="none" fill="#000000" transform="matrix(0.0833333 0 0 0.0833333 -85.2583 -74)" d="M 8221.53,4801.53 L 8213.46,4813.46 L 8065.72,4713.45 L 8082.46,4707.39 L 8221.53,4801.53 Z " />
<path stroke="none" fill="#000000" transform="matrix(0.0833333 0 0 0.0833333 -85.2583 -74)" d="M 8529.66,4692.52 L 8538.21,4694.99 L 8539.74,4702.92 L 8405.57,4807.38 L 8396.73,4796.02 L 8529.66,4692.52 Z " />
<path stroke="none" fill="#000000" transform="matrix(0.0833333 0 0 0.0833333 -85.2583 -74)" d="M 8703.68,4735.24 L 8699.69,4749.07 L 8539.74,4702.92 L 8538.21,4694.99 L 8543.73,4689.09 L 8703.68,4735.24 Z " />
<path stroke="none" fill="#000000" transform="matrix(0.0833333 0 0 0.0833333 -85.2583 -74)" d="M 8862.07,4938.93 L 8848.09,4942.39 L 8838.55,4903.87 L 8852.53,4900.41 L 8862.07,4938.93 Z " />
<path stroke="none" fill="#000000" transform="matrix(0.0833333 0 0 0.0833333 -85.2583 -74)" d="M 8923.35,4659.27 L 8933.34,4669.65 L 8900.81,4700.95 L 8890.83,4690.57 L 8923.35,4659.27 Z " />
<path stroke="none" fill="#000000" transform="matrix(0.0833333 0 0 0.0833333 -85.2583 -74)" d="M 9163.81,5031.95 L 9169.57,5038.88 L 9163.56,5046.38 L 9001.05,5054.47 L 9000.34,5040.09 L 9163.81,5031.95 Z " />
<path stroke="none" fill="#000000" transform="matrix(0.0833333 0 0 0.0833333 -85.2583 -74)" d="M 9233.06,4758.01 L 9233.52,4768.13 L 9225.53,4770.61 L 9111.17,4667.1 L 9120.84,4656.42 L 9233.06,4758.01 Z " />
<path stroke="none" fill="#000000" transform="matrix(0.0833333 0 0 0.0833333 -85.2583 -74)" d="M 9225.53,4770.61 L 9233.52,4768.13 L 9238.89,4776.72 L 9178.04,5034.32 L 9169.57,5038.88 L 9163.81,5031.95 L 9225.53,4770.61 Z " />
<path stroke="none" fill="#000000" transform="matrix(0.0833333 0 0 0.0833333 -85.2583 -74)" d="M 9441.37,5131.31 L 9436.39,5144.82 L 9178.78,5049.94 L 9169.57,5038.88 L 9178.04,5034.32 L 9441.37,5131.31 Z " />
<path stroke="none" fill="#000000" transform="matrix(0.0833333 0 0 0.0833333 -85.2583 -74)" d="M 9225.42,5320.48 L 9211.23,5322.93 L 9163.56,5046.38 L 9169.57,5038.88 L 9178.78,5049.94 L 9225.42,5320.48 Z " />
<path stroke="none" fill="#000000" transform="matrix(0.0833333 0 0 0.0833333 -85.2583 -74)" d="M 9422.93,4552.39 L 9433.51,4562.16 L 9247.27,4763.85 L 9233.52,4768.13 L 9233.06,4758.01 L 9422.93,4552.39 Z " />
<path stroke="none" fill="#000000" transform="matrix(0.0833333 0 0 0.0833333 -85.2583 -74)" d="M 9515.06,4824.3 L 9511.89,4838.35 L 9238.89,4776.72 L 9233.52,4768.13 L 9247.27,4763.85 L 9515.06,4824.3 Z " />
<path stroke="none" fill="#000000" transform="matrix(0.0833333 0 0 0.0833333 -85.2583 -74)" d="M 4117.84,4673.84 L 2916.87,4673.84 L 2916.87,4663.84 L 4117.84,4663.84 Z " />
<path stroke="none" fill="#000000" transform="matrix(0.0833333 0 0 0.0833333 -85.2583 -74)" d="M 4221.87,4668.84 C 4221.87,4668.84 4101.87,4694.61 4101.87,4694.61 C 4101.87,4694.61 4116.84,4680.12 4116.84,4668.84 C 4116.84,4657.13 4101.87,4642.07 4101.87,4642.07 C 4101.87,4642.07 4221.87,4668.84 4221.87,4668.84 C 4221.87,4668.84 4221.87,4668.84 4221.87,4668.84 " />
<path stroke="#000000" stroke-width="1" fill="none" transform="matrix(0.0833333 0 0 0.0833333 -85.2583 -74)" d="M 4221.87,4668.84 C 4221.87,4668.84 4101.87,4694.61 4101.87,4694.61 C 4101.87,4694.61 4116.84,4680.12 4116.84,4668.84 C 4116.84,4657.13 4101.87,4642.07 4101.87,4642.07 C 4101.87,4642.07 4221.87,4668.84 4221.87,4668.84 C 4221.87,4668.84 4221.87,4668.84 4221.87,4668.84 " />
<text x="0" y="0" stroke="none" fill="#000000" transform="matrix(0.0833333 0 0 0.0833333 597.464 374.92)" font-style="normal" font-weight="normal" font-size="200px" font-family="Arial" >
85%</text>
<text x="0" y="0" stroke="none" fill="#000000" transform="matrix(0.0833333 0 0 0.0833333 442.814 263.82)" font-style="normal" font-weight="normal" font-size="200px" font-family="Arial" >
1) </text>
<text x="0" y="0" stroke="none" fill="#000000" transform="matrix(0.0833333 0 0 0.0833333 462.333 263.82)" font-style="normal" font-weight="normal" font-size="200px" font-family="Arial" >
IPTMDOB</text>
</svg>
