<?xml version="1.0" standalone="no" ?>
<!DOCTYPE svg PUBLIC "-//W3C//DTD SVG 1.1//EN" "http://www.w3.org/Graphics/SVG/1.1/DTD/svg11.dtd">
<svg width="444px" height="163px" viewBox="0 0 444 163" style="background-color: #ffffff00" xmlns="http://www.w3.org/2000/svg" xmlns:xlink="http://www.w3.org/1999/xlink" version="1.1" >
<path stroke="none" fill="#c10074" transform="matrix(0.0833333 0 0 0.0833333 -289.175 -323.083)" d="M 3787.44,4628.24 L 3778.46,4633.43 L 3778.46,4389.44 L 3782.95,4386.85 L 3787.44,4389.44 L 3787.44,4628.24 Z " />
<path stroke="none" fill="#c10074" transform="matrix(0.0833333 0 0 0.0833333 -289.175 -323.083)" d="M 3836.24,4602.66 L 3827.25,4602.66 L 3827.25,4415.02 L 3836.24,4415.02 L 3836.24,4602.66 Z " />
<path stroke="none" fill="#c10074" transform="matrix(0.0833333 0 0 0.0833333 -289.175 -323.083)" d="M 3994.24,4747.64 L 3994.24,4758.01 L 3778.46,4633.43 L 3787.44,4628.24 L 3994.24,4747.64 Z " />
<path stroke="none" fill="#c10074" transform="matrix(0.0833333 0 0 0.0833333 -289.175 -323.083)" d="M 4201.05,4628.24 L 4205.54,4630.84 L 4205.54,4636.02 L 3994.24,4758.01 L 3994.24,4747.64 L 4201.05,4628.24 Z " />
<path stroke="none" fill="#c10074" transform="matrix(0.0833333 0 0 0.0833333 -289.175 -323.083)" d="M 4154.5,4598.77 L 4158.99,4606.55 L 3996.49,4700.37 L 3992,4692.59 L 4154.5,4598.77 Z " />
<path stroke="none" fill="#c10074" transform="matrix(0.0833333 0 0 0.0833333 -289.175 -323.083)" d="M 4201.05,4389.44 L 4205.54,4386.85 L 4210.03,4389.44 L 4210.03,4628.24 L 4205.54,4630.84 L 4201.05,4628.24 L 4201.05,4389.44 Z " />
<path stroke="none" fill="#c10074" transform="matrix(0.0833333 0 0 0.0833333 -289.175 -323.083)" d="M 3994.24,4270.05 L 3994.24,4259.67 L 4205.54,4381.66 L 4205.54,4386.85 L 4201.05,4389.44 L 3994.24,4270.05 Z " />
<path stroke="none" fill="#c10074" transform="matrix(0.0833333 0 0 0.0833333 -289.175 -323.083)" d="M 3992,4325.1 L 3996.49,4317.31 L 4158.99,4411.13 L 4154.5,4418.91 L 3992,4325.1 Z " />
<path stroke="none" fill="#c10074" transform="matrix(0.0833333 0 0 0.0833333 -289.175 -323.083)" d="M 3787.44,4389.44 L 3782.95,4386.85 L 3782.95,4381.66 L 3994.24,4259.67 L 3994.24,4270.05 L 3787.44,4389.44 Z " />
<text x="0" y="0" stroke="none" fill="#c10074" transform="matrix(0.0833333 0 0 0.0833333 75.0198 77.5273)" font-style="normal" font-weight="normal" font-size="140px" font-family="Arial" >
S</text>
<path stroke="none" fill="#c10074" transform="matrix(0.0833333 0 0 0.0833333 -289.175 -323.083)" d="M 4359.49,4714.53 L 4355,4722.31 L 4205.54,4636.02 L 4205.54,4630.84 L 4210.03,4628.24 L 4359.49,4714.53 Z " />
<path stroke="none" fill="#c10074" transform="matrix(0.0833333 0 0 0.0833333 -289.175 -323.083)" d="M 4623.64,4628.24 L 4632.63,4633.43 L 4477.93,4722.74 L 4473.43,4714.96 L 4623.64,4628.24 Z " />
<path stroke="none" fill="#c10074" transform="matrix(0.0833333 0 0 0.0833333 -289.175 -323.083)" d="M 4623.64,4389.44 L 4632.63,4384.26 L 4632.63,4633.43 L 4623.64,4628.24 L 4623.64,4389.44 Z " />
<path stroke="none" fill="#c10074" transform="matrix(0.0833333 0 0 0.0833333 -289.175 -323.083)" d="M 4416.84,4270.05 L 4416.84,4259.67 L 4632.63,4384.26 L 4623.64,4389.44 L 4416.84,4270.05 Z " />
<path stroke="none" fill="#c10074" transform="matrix(0.0833333 0 0 0.0833333 -289.175 -323.083)" d="M 4210.03,4389.44 L 4205.54,4386.85 L 4205.54,4381.66 L 4416.84,4259.67 L 4416.84,4270.05 L 4210.03,4389.44 Z " />
<text x="0" y="0" stroke="none" fill="#c10074" transform="matrix(0.0833333 0 0 0.0833333 74.3531 16.5312)" font-style="normal" font-weight="normal" font-size="140px" font-family="Arial" >
O</text>
<path stroke="none" fill="#c10074" transform="matrix(0.0833333 0 0 0.0833333 -289.175 -323.083)" d="M 4387.95,4101.54 L 4396.93,4101.54 L 4396.93,4278.95 L 4387.95,4278.95 L 4387.95,4101.54 Z " />
<path stroke="none" fill="#c10074" transform="matrix(0.0833333 0 0 0.0833333 -289.175 -323.083)" d="M 4436.74,4101.54 L 4445.73,4101.54 L 4445.73,4278.95 L 4436.74,4278.95 L 4436.74,4101.54 Z " />
<text x="0" y="0" stroke="none" fill="#c10074" transform="matrix(0.0833333 0 0 0.0833333 4.25422 36.8633)" font-style="normal" font-weight="normal" font-size="140px" font-family="Arial" >
R</text>
<path stroke="none" fill="#c10074" transform="matrix(0.0833333 0 0 0.0833333 -289.175 -323.083)" d="M 3649.24,4314.84 L 3653.73,4307.06 L 3782.95,4381.66 L 3782.95,4386.85 L 3778.46,4389.44 L 3649.24,4314.84 Z " />
<path stroke="none" fill="#0000ff" transform="matrix(0.0833333 0 0 0.0833333 -289.175 -323.083)" d="M 5763.71,4640.44 L 5754.73,4645.63 L 5754.73,4401.64 L 5759.22,4399.05 L 5763.71,4401.64 L 5763.71,4640.44 Z " />
<path stroke="none" fill="#0000ff" transform="matrix(0.0833333 0 0 0.0833333 -289.175 -323.083)" d="M 5812.51,4614.86 L 5803.53,4614.86 L 5803.53,4427.22 L 5812.51,4427.22 L 5812.51,4614.86 Z " />
<path stroke="none" fill="#0000ff" transform="matrix(0.0833333 0 0 0.0833333 -289.175 -323.083)" d="M 5970.52,4759.84 L 5970.52,4770.21 L 5754.73,4645.63 L 5763.71,4640.44 L 5970.52,4759.84 Z " />
<path stroke="none" fill="#0000ff" transform="matrix(0.0833333 0 0 0.0833333 -289.175 -323.083)" d="M 6177.32,4640.44 L 6181.81,4643.03 L 6181.81,4648.22 L 5970.52,4770.21 L 5970.52,4759.84 L 6177.32,4640.44 Z " />
<path stroke="none" fill="#0000ff" transform="matrix(0.0833333 0 0 0.0833333 -289.175 -323.083)" d="M 6130.77,4610.97 L 6135.26,4618.75 L 5972.76,4712.57 L 5968.27,4704.79 L 6130.77,4610.97 Z " />
<path stroke="none" fill="#0000ff" transform="matrix(0.0833333 0 0 0.0833333 -289.175 -323.083)" d="M 6177.32,4401.64 L 6181.81,4399.05 L 6186.31,4401.64 L 6186.31,4640.44 L 6181.81,4643.03 L 6177.32,4640.44 L 6177.32,4401.64 Z " />
<path stroke="none" fill="#0000ff" transform="matrix(0.0833333 0 0 0.0833333 -289.175 -323.083)" d="M 5970.52,4282.25 L 5970.52,4271.87 L 6181.81,4393.86 L 6181.81,4399.05 L 6177.32,4401.64 L 5970.52,4282.25 Z " />
<path stroke="none" fill="#0000ff" transform="matrix(0.0833333 0 0 0.0833333 -289.175 -323.083)" d="M 5968.27,4337.29 L 5972.76,4329.51 L 6135.26,4423.33 L 6130.77,4431.11 L 5968.27,4337.29 Z " />
<path stroke="none" fill="#0000ff" transform="matrix(0.0833333 0 0 0.0833333 -289.175 -323.083)" d="M 5763.71,4401.64 L 5759.22,4399.05 L 5759.22,4393.86 L 5970.52,4271.87 L 5970.52,4282.25 L 5763.71,4401.64 Z " />
<text x="0" y="0" stroke="none" fill="#0000ff" transform="matrix(0.0833333 0 0 0.0833333 239.709 78.5439)" font-style="normal" font-weight="normal" font-size="140px" font-family="Arial" >
S</text>
<path stroke="none" fill="#0000ff" transform="matrix(0.0833333 0 0 0.0833333 -289.175 -323.083)" d="M 6335.76,4726.73 L 6331.27,4734.51 L 6181.81,4648.22 L 6181.81,4643.03 L 6186.31,4640.44 L 6335.76,4726.73 Z " />
<path stroke="none" fill="#0000ff" transform="matrix(0.0833333 0 0 0.0833333 -289.175 -323.083)" d="M 6599.92,4640.44 L 6608.9,4645.63 L 6454.2,4734.94 L 6449.71,4727.16 L 6599.92,4640.44 Z " />
<path stroke="none" fill="#0000ff" transform="matrix(0.0833333 0 0 0.0833333 -289.175 -323.083)" d="M 6599.92,4401.64 L 6608.9,4396.46 L 6608.9,4645.63 L 6599.92,4640.44 L 6599.92,4401.64 Z " />
<path stroke="none" fill="#0000ff" transform="matrix(0.0833333 0 0 0.0833333 -289.175 -323.083)" d="M 6393.11,4282.25 L 6393.11,4277.06 L 6400.43,4276.1 L 6608.9,4396.46 L 6599.92,4401.64 L 6393.11,4282.25 Z " />
<path stroke="none" fill="#0000ff" transform="matrix(0.0833333 0 0 0.0833333 -289.175 -323.083)" d="M 6186.31,4401.64 L 6181.81,4399.05 L 6181.81,4393.86 L 6385.79,4276.1 L 6393.11,4277.06 L 6393.11,4282.25 L 6186.31,4401.64 Z " />
<text x="0" y="0" stroke="none" fill="#0000ff" transform="matrix(0.0833333 0 0 0.0833333 168.944 37.8799)" font-style="normal" font-weight="normal" font-size="140px" font-family="Arial" >
R</text>
<path stroke="none" fill="#0000ff" transform="matrix(0.0833333 0 0 0.0833333 -289.175 -323.083)" d="M 5625.51,4327.04 L 5630.01,4319.26 L 5759.22,4393.86 L 5759.22,4399.05 L 5754.73,4401.64 L 5625.51,4327.04 Z " />
<text x="0" y="0" stroke="none" fill="#0000ff" transform="matrix(0.0833333 0 0 0.0833333 212.949 23.5029)" font-style="normal" font-weight="normal" font-size="140px" font-family="Arial" >
F</text>
<text x="0" y="0" stroke="none" fill="#0000ff" transform="matrix(0.0833333 0 0 0.0833333 220.115 26.0863)" font-style="normal" font-weight="normal" font-size="105px" font-family="Arial" >
3</text>
<text x="0" y="0" stroke="none" fill="#0000ff" transform="matrix(0.0833333 0 0 0.0833333 224.99 23.5029)" font-style="normal" font-weight="normal" font-size="140px" font-family="Arial" >
C</text>
<path stroke="none" fill="#0000ff" transform="matrix(0.0833333 0 0 0.0833333 -289.175 -323.083)" d="M 6274.37,4164.67 L 6280.72,4158.32 L 6393.11,4270.71 L 6393.11,4277.06 L 6385.79,4276.1 L 6274.37,4164.67 Z " />
<text x="0" y="0" stroke="none" fill="#0000ff" transform="matrix(0.0833333 0 0 0.0833333 253.42 23.5029)" font-style="normal" font-weight="normal" font-size="140px" font-family="Arial" >
OH</text>
<path stroke="none" fill="#0000ff" transform="matrix(0.0833333 0 0 0.0833333 -289.175 -323.083)" d="M 6506.2,4157.62 L 6512.55,4163.97 L 6400.43,4276.1 L 6393.11,4277.06 L 6393.11,4270.71 L 6506.2,4157.62 Z " />
<path stroke="none" fill="#000000" transform="matrix(0.0833333 0 0 0.0833333 -289.175 -323.083)" d="M 7491.9,4464.04 L 6804.98,4464.04 L 6804.98,4455.04 L 7491.9,4455.04 Z " />
<path stroke="none" fill="#000000" transform="matrix(0.0833333 0 0 0.0833333 -289.175 -323.083)" d="M 7608.87,4459.54 C 7608.87,4459.54 7474.1,4494.23 7474.1,4494.23 C 7474.1,4494.23 7490.9,4474.72 7490.9,4459.54 C 7490.9,4443.92 7474.1,4423.85 7474.1,4423.85 C 7474.1,4423.85 7608.87,4459.54 7608.87,4459.54 C 7608.87,4459.54 7608.87,4459.54 7608.87,4459.54 " />
<path stroke="#000000" stroke-width="1" fill="none" transform="matrix(0.0833333 0 0 0.0833333 -289.175 -323.083)" d="M 7608.87,4459.54 C 7608.87,4459.54 7474.1,4494.23 7474.1,4494.23 C 7474.1,4494.23 7490.9,4474.72 7490.9,4459.54 C 7490.9,4443.92 7474.1,4423.85 7474.1,4423.85 C 7474.1,4423.85 7608.87,4459.54 7608.87,4459.54 C 7608.87,4459.54 7608.87,4459.54 7608.87,4459.54 " />
<text x="0" y="0" stroke="none" fill="#000000" transform="matrix(0.0833333 0 0 0.0833333 278.929 36.3457)" font-style="normal" font-weight="normal" font-size="140px" font-family="Arial" >
P</text>
<text x="0" y="0" stroke="none" fill="#000000" transform="matrix(0.0833333 0 0 0.0833333 286.71 38.929)" font-style="normal" font-weight="normal" font-size="105px" font-family="Arial" >
2</text>
<text x="0" y="0" stroke="none" fill="#000000" transform="matrix(0.0833333 0 0 0.0833333 291.585 36.3457)" font-style="normal" font-weight="normal" font-size="140px" font-family="Arial" >
O</text>
<text x="0" y="0" stroke="none" fill="#000000" transform="matrix(0.0833333 0 0 0.0833333 300.669 38.929)" font-style="normal" font-weight="normal" font-size="105px" font-family="Arial" >
5</text>
<text x="0" y="0" stroke="none" fill="#000000" transform="matrix(0.0833333 0 0 0.0833333 305.544 36.3457)" font-style="normal" font-weight="normal" font-size="140px" font-family="Arial" >
/ </text>
<text x="0" y="0" stroke="none" fill="#000000" transform="matrix(0.0833333 0 0 0.0833333 312.044 36.3457)" font-style="normal" font-weight="normal" font-size="140px" font-family="Arial" >
SiO</text>
<text x="0" y="0" stroke="none" fill="#000000" transform="matrix(0.0833333 0 0 0.0833333 331.5 38.929)" font-style="normal" font-weight="normal" font-size="105px" font-family="Arial" >
2</text>
<path stroke="none" fill="#007109" transform="matrix(0.0833333 0 0 0.0833333 -289.175 -323.083)" d="M 4397.57,5604.16 L 4388.59,5609.35 L 4388.59,5365.36 L 4393.08,5362.77 L 4397.57,5365.36 L 4397.57,5604.16 Z " />
<path stroke="none" fill="#007109" transform="matrix(0.0833333 0 0 0.0833333 -289.175 -323.083)" d="M 4446.37,5578.58 L 4437.38,5578.58 L 4437.38,5390.94 L 4446.37,5390.94 L 4446.37,5578.58 Z " />
<path stroke="none" fill="#007109" transform="matrix(0.0833333 0 0 0.0833333 -289.175 -323.083)" d="M 4604.38,5723.56 L 4604.38,5733.93 L 4388.59,5609.35 L 4397.57,5604.16 L 4604.38,5723.56 Z " />
<path stroke="none" fill="#007109" transform="matrix(0.0833333 0 0 0.0833333 -289.175 -323.083)" d="M 4811.18,5604.16 L 4815.67,5606.75 L 4815.67,5611.94 L 4604.38,5733.93 L 4604.38,5723.56 L 4811.18,5604.16 Z " />
<path stroke="none" fill="#007109" transform="matrix(0.0833333 0 0 0.0833333 -289.175 -323.083)" d="M 4764.63,5574.69 L 4769.12,5582.47 L 4606.62,5676.29 L 4602.13,5668.51 L 4764.63,5574.69 Z " />
<path stroke="none" fill="#007109" transform="matrix(0.0833333 0 0 0.0833333 -289.175 -323.083)" d="M 4811.18,5365.36 L 4815.67,5362.77 L 4820.17,5365.36 L 4820.17,5604.16 L 4815.67,5606.75 L 4811.18,5604.16 L 4811.18,5365.36 Z " />
<path stroke="none" fill="#007109" transform="matrix(0.0833333 0 0 0.0833333 -289.175 -323.083)" d="M 4604.38,5245.96 L 4604.38,5235.59 L 4815.67,5357.58 L 4815.67,5362.77 L 4811.18,5365.36 L 4604.38,5245.96 Z " />
<path stroke="none" fill="#007109" transform="matrix(0.0833333 0 0 0.0833333 -289.175 -323.083)" d="M 4602.13,5301.01 L 4606.62,5293.23 L 4769.12,5387.05 L 4764.63,5394.83 L 4602.13,5301.01 Z " />
<path stroke="none" fill="#007109" transform="matrix(0.0833333 0 0 0.0833333 -289.175 -323.083)" d="M 4397.57,5365.36 L 4393.08,5362.77 L 4393.08,5357.58 L 4604.38,5235.59 L 4604.38,5245.96 L 4397.57,5365.36 Z " />
<text x="0" y="0" stroke="none" fill="#007109" transform="matrix(0.0833333 0 0 0.0833333 125.864 158.854)" font-style="normal" font-weight="normal" font-size="140px" font-family="Arial" >
S</text>
<path stroke="none" fill="#007109" transform="matrix(0.0833333 0 0 0.0833333 -289.175 -323.083)" d="M 4969.62,5690.45 L 4965.13,5698.23 L 4815.67,5611.94 L 4815.67,5606.75 L 4820.17,5604.16 L 4969.62,5690.45 Z " />
<path stroke="none" fill="#007109" transform="matrix(0.0833333 0 0 0.0833333 -289.175 -323.083)" d="M 5233.77,5604.16 L 5242.76,5609.35 L 5088.06,5698.66 L 5083.57,5690.88 L 5233.77,5604.16 Z " />
<path stroke="none" fill="#007109" transform="matrix(0.0833333 0 0 0.0833333 -289.175 -323.083)" d="M 5233.77,5365.36 L 5242.76,5360.17 L 5242.76,5609.35 L 5233.77,5604.16 L 5233.77,5365.36 Z " />
<path stroke="none" fill="#007109" transform="matrix(0.0833333 0 0 0.0833333 -289.175 -323.083)" d="M 5026.97,5245.96 L 5026.97,5240.78 L 5031.46,5238.18 L 5242.76,5360.17 L 5233.77,5365.36 L 5026.97,5245.96 Z " />
<path stroke="none" fill="#007109" transform="matrix(0.0833333 0 0 0.0833333 -289.175 -323.083)" d="M 5024.72,5301.01 L 5029.22,5293.23 L 5191.72,5387.05 L 5187.22,5394.83 L 5024.72,5301.01 Z " />
<path stroke="none" fill="#007109" transform="matrix(0.0833333 0 0 0.0833333 -289.175 -323.083)" d="M 4820.17,5365.36 L 4815.67,5362.77 L 4815.67,5357.58 L 5022.48,5238.18 L 5026.97,5240.78 L 5026.97,5245.96 L 4820.17,5365.36 Z " />
<text x="0" y="0" stroke="none" fill="#007109" transform="matrix(0.0833333 0 0 0.0833333 125.531 97.8577)" font-style="normal" font-weight="normal" font-size="140px" font-family="Arial" >
CF</text>
<text x="0" y="0" stroke="none" fill="#007109" transform="matrix(0.0833333 0 0 0.0833333 141.123 100.441)" font-style="normal" font-weight="normal" font-size="105px" font-family="Arial" >
3</text>
<path stroke="none" fill="#007109" transform="matrix(0.0833333 0 0 0.0833333 -289.175 -323.083)" d="M 5022.48,5079.46 L 5031.46,5079.46 L 5031.46,5238.18 L 5026.97,5240.78 L 5022.48,5238.18 L 5022.48,5079.46 Z " />
<text x="0" y="0" stroke="none" fill="#007109" transform="matrix(0.0833333 0 0 0.0833333 55.0986 118.19)" font-style="normal" font-weight="normal" font-size="140px" font-family="Arial" >
R</text>
<path stroke="none" fill="#007109" transform="matrix(0.0833333 0 0 0.0833333 -289.175 -323.083)" d="M 4259.37,5290.76 L 4263.87,5282.98 L 4393.08,5357.58 L 4393.08,5362.77 L 4388.59,5365.36 L 4259.37,5290.76 Z " />
<path stroke="none" fill="#000000" transform="matrix(0.0833333 0 0 0.0833333 -289.175 -323.083)" d="M 5969.88,5494.85 L 5424.77,5494.85 L 5424.77,5485.85 L 5969.88,5485.85 Z " />
<path stroke="none" fill="#000000" transform="matrix(0.0833333 0 0 0.0833333 -289.175 -323.083)" d="M 6086.84,5490.35 C 6086.84,5490.35 5952.08,5525.04 5952.08,5525.04 C 5952.08,5525.04 5968.88,5505.54 5968.88,5490.35 C 5968.88,5474.73 5952.08,5454.66 5952.08,5454.66 C 5952.08,5454.66 6086.84,5490.35 6086.84,5490.35 C 6086.84,5490.35 6086.84,5490.35 6086.84,5490.35 " />
<path stroke="#000000" stroke-width="1" fill="none" transform="matrix(0.0833333 0 0 0.0833333 -289.175 -323.083)" d="M 6086.84,5490.35 C 6086.84,5490.35 5952.08,5525.04 5952.08,5525.04 C 5952.08,5525.04 5968.88,5505.54 5968.88,5490.35 C 5968.88,5474.73 5952.08,5454.66 5952.08,5454.66 C 5952.08,5454.66 6086.84,5490.35 6086.84,5490.35 C 6086.84,5490.35 6086.84,5490.35 6086.84,5490.35 " />
<path stroke="none" fill="#a80000" transform="matrix(0.0833333 0 0 0.0833333 -289.175 -323.083)" d="M 6443.99,5592.98 L 6435.01,5598.16 L 6435.01,5354.18 L 6439.5,5351.59 L 6443.99,5354.18 L 6443.99,5592.98 Z " />
<path stroke="none" fill="#a80000" transform="matrix(0.0833333 0 0 0.0833333 -289.175 -323.083)" d="M 6492.79,5567.4 L 6483.8,5567.4 L 6483.8,5379.76 L 6492.79,5379.76 L 6492.79,5567.4 Z " />
<path stroke="none" fill="#a80000" transform="matrix(0.0833333 0 0 0.0833333 -289.175 -323.083)" d="M 6650.8,5712.38 L 6650.8,5722.75 L 6435.01,5598.16 L 6443.99,5592.98 L 6650.8,5712.38 Z " />
<path stroke="none" fill="#a80000" transform="matrix(0.0833333 0 0 0.0833333 -289.175 -323.083)" d="M 6857.6,5592.98 L 6862.09,5595.57 L 6862.09,5600.76 L 6650.8,5722.75 L 6650.8,5712.38 L 6857.6,5592.98 Z " />
<path stroke="none" fill="#a80000" transform="matrix(0.0833333 0 0 0.0833333 -289.175 -323.083)" d="M 6811.05,5563.51 L 6815.54,5571.29 L 6653.04,5665.11 L 6648.55,5657.33 L 6811.05,5563.51 Z " />
<path stroke="none" fill="#a80000" transform="matrix(0.0833333 0 0 0.0833333 -289.175 -323.083)" d="M 6857.6,5354.18 L 6862.09,5351.59 L 6866.58,5354.18 L 6866.58,5592.98 L 6862.09,5595.57 L 6857.6,5592.98 L 6857.6,5354.18 Z " />
<path stroke="none" fill="#a80000" transform="matrix(0.0833333 0 0 0.0833333 -289.175 -323.083)" d="M 6650.8,5234.78 L 6650.8,5224.41 L 6862.09,5346.4 L 6862.09,5351.59 L 6857.6,5354.18 L 6650.8,5234.78 Z " />
<path stroke="none" fill="#a80000" transform="matrix(0.0833333 0 0 0.0833333 -289.175 -323.083)" d="M 6648.55,5289.83 L 6653.04,5282.05 L 6815.54,5375.87 L 6811.05,5383.65 L 6648.55,5289.83 Z " />
<path stroke="none" fill="#a80000" transform="matrix(0.0833333 0 0 0.0833333 -289.175 -323.083)" d="M 6443.99,5354.18 L 6439.5,5351.59 L 6439.5,5346.4 L 6650.8,5224.41 L 6650.8,5234.78 L 6443.99,5354.18 Z " />
<text x="0" y="0" stroke="none" fill="#a80000" transform="matrix(0.0833333 0 0 0.0833333 296.399 157.922)" font-style="normal" font-weight="normal" font-size="140px" font-family="Arial" >
S</text>
<path stroke="none" fill="#a80000" transform="matrix(0.0833333 0 0 0.0833333 -289.175 -323.083)" d="M 7016.04,5679.27 L 7011.55,5687.05 L 6862.09,5600.76 L 6862.09,5595.57 L 6866.58,5592.98 L 7016.04,5679.27 Z " />
<path stroke="none" fill="#a80000" transform="matrix(0.0833333 0 0 0.0833333 -289.175 -323.083)" d="M 7280.19,5592.98 L 7289.18,5598.16 L 7134.48,5687.48 L 7129.99,5679.7 L 7280.19,5592.98 Z " />
<path stroke="none" fill="#a80000" transform="matrix(0.0833333 0 0 0.0833333 -289.175 -323.083)" d="M 7280.19,5354.18 L 7289.18,5348.99 L 7289.18,5598.16 L 7280.19,5592.98 L 7280.19,5354.18 Z " />
<path stroke="none" fill="#a80000" transform="matrix(0.0833333 0 0 0.0833333 -289.175 -323.083)" d="M 7073.39,5234.78 L 7073.39,5229.59 L 7077.88,5227 L 7289.18,5348.99 L 7280.19,5354.18 L 7073.39,5234.78 Z " />
<path stroke="none" fill="#a80000" transform="matrix(0.0833333 0 0 0.0833333 -289.175 -323.083)" d="M 7071.14,5289.83 L 7075.63,5282.05 L 7238.13,5375.87 L 7233.64,5383.65 L 7071.14,5289.83 Z " />
<path stroke="none" fill="#a80000" transform="matrix(0.0833333 0 0 0.0833333 -289.175 -323.083)" d="M 6866.58,5354.18 L 6862.09,5351.59 L 6862.09,5346.4 L 7068.9,5227 L 7073.39,5229.59 L 7073.39,5234.78 L 6866.58,5354.18 Z " />
<text x="0" y="0" stroke="none" fill="#a80000" transform="matrix(0.0833333 0 0 0.0833333 296.066 96.9258)" font-style="normal" font-weight="normal" font-size="140px" font-family="Arial" >
CF</text>
<text x="0" y="0" stroke="none" fill="#a80000" transform="matrix(0.0833333 0 0 0.0833333 311.658 99.5091)" font-style="normal" font-weight="normal" font-size="105px" font-family="Arial" >
3</text>
<path stroke="none" fill="#a80000" transform="matrix(0.0833333 0 0 0.0833333 -289.175 -323.083)" d="M 7068.9,5068.28 L 7077.88,5068.28 L 7077.88,5227 L 7073.39,5229.59 L 7068.9,5227 L 7068.9,5068.28 Z " />
<text x="0" y="0" stroke="none" fill="#a80000" transform="matrix(0.0833333 0 0 0.0833333 225.633 117.258)" font-style="normal" font-weight="normal" font-size="140px" font-family="Arial" >
R</text>
<path stroke="none" fill="#a80000" transform="matrix(0.0833333 0 0 0.0833333 -289.175 -323.083)" d="M 6305.79,5279.58 L 6310.28,5271.8 L 6439.5,5346.4 L 6439.5,5351.59 L 6435.01,5354.18 L 6305.79,5279.58 Z " />
<text x="0" y="0" stroke="none" fill="#a80000" transform="matrix(0.0833333 0 0 0.0833333 330.949 157.922)" font-style="normal" font-weight="normal" font-size="140px" font-family="Arial" >
O</text>
<path stroke="none" fill="#a80000" transform="matrix(0.0833333 0 0 0.0833333 -289.175 -323.083)" d="M 7448.41,5656.74 L 7443.92,5664.52 L 7282.44,5571.29 L 7286.93,5563.51 L 7448.41,5656.74 Z " />
<path stroke="none" fill="#a80000" transform="matrix(0.0833333 0 0 0.0833333 -289.175 -323.083)" d="M 7424.02,5699 L 7419.52,5706.78 L 7258.04,5613.55 L 7262.53,5605.77 L 7424.02,5699 Z " />
<text x="0" y="0" stroke="none" fill="#000000" transform="matrix(0.0833333 0 0 0.0833333 163.398 123.772)" font-style="normal" font-weight="normal" font-size="140px" font-family="Arial" >
CrO</text>
<text x="0" y="0" stroke="none" fill="#000000" transform="matrix(0.0833333 0 0 0.0833333 184.823 126.355)" font-style="normal" font-weight="normal" font-size="105px" font-family="Arial" >
3,</text>
<text x="0" y="0" stroke="none" fill="#000000" transform="matrix(0.0833333 0 0 0.0833333 192.136 123.772)" font-style="normal" font-weight="normal" font-size="140px" font-family="Arial" >
 </text>
<text x="0" y="0" stroke="none" fill="#000000" transform="matrix(0.0833333 0 0 0.0833333 195.386 123.772)" font-style="normal" font-weight="normal" font-size="140px" font-family="Arial" >
Py</text>
<path stroke="none" fill="#007109" transform="matrix(0.0833333 0 0 0.0833333 -289.175 -323.083)" d="M 7905.69,4592.66 L 7896.71,4597.85 L 7896.71,4353.86 L 7901.2,4351.27 L 7905.69,4353.86 L 7905.69,4592.66 Z " />
<path stroke="none" fill="#007109" transform="matrix(0.0833333 0 0 0.0833333 -289.175 -323.083)" d="M 7954.49,4567.08 L 7945.5,4567.08 L 7945.5,4379.44 L 7954.49,4379.44 L 7954.49,4567.08 Z " />
<path stroke="none" fill="#007109" transform="matrix(0.0833333 0 0 0.0833333 -289.175 -323.083)" d="M 8112.5,4712.06 L 8112.5,4722.43 L 7896.71,4597.85 L 7905.69,4592.66 L 8112.5,4712.06 Z " />
<path stroke="none" fill="#007109" transform="matrix(0.0833333 0 0 0.0833333 -289.175 -323.083)" d="M 8319.3,4592.66 L 8323.79,4595.25 L 8323.79,4600.44 L 8112.5,4722.43 L 8112.5,4712.06 L 8319.3,4592.66 Z " />
<path stroke="none" fill="#007109" transform="matrix(0.0833333 0 0 0.0833333 -289.175 -323.083)" d="M 8272.75,4563.19 L 8277.24,4570.97 L 8114.74,4664.79 L 8110.25,4657.01 L 8272.75,4563.19 Z " />
<path stroke="none" fill="#007109" transform="matrix(0.0833333 0 0 0.0833333 -289.175 -323.083)" d="M 8319.3,4353.86 L 8323.79,4351.27 L 8328.29,4353.86 L 8328.29,4592.66 L 8323.79,4595.25 L 8319.3,4592.66 L 8319.3,4353.86 Z " />
<path stroke="none" fill="#007109" transform="matrix(0.0833333 0 0 0.0833333 -289.175 -323.083)" d="M 8112.5,4234.47 L 8112.5,4224.09 L 8323.79,4346.08 L 8323.79,4351.27 L 8319.3,4353.86 L 8112.5,4234.47 Z " />
<path stroke="none" fill="#007109" transform="matrix(0.0833333 0 0 0.0833333 -289.175 -323.083)" d="M 8110.25,4289.51 L 8114.74,4281.73 L 8277.24,4375.55 L 8272.75,4383.33 L 8110.25,4289.51 Z " />
<path stroke="none" fill="#007109" transform="matrix(0.0833333 0 0 0.0833333 -289.175 -323.083)" d="M 7905.69,4353.86 L 7901.2,4351.27 L 7901.2,4346.08 L 8112.5,4224.09 L 8112.5,4234.47 L 7905.69,4353.86 Z " />
<text x="0" y="0" stroke="none" fill="#007109" transform="matrix(0.0833333 0 0 0.0833333 418.208 74.5622)" font-style="normal" font-weight="normal" font-size="140px" font-family="Arial" >
S</text>
<path stroke="none" fill="#007109" transform="matrix(0.0833333 0 0 0.0833333 -289.175 -323.083)" d="M 8477.74,4678.95 L 8473.25,4686.73 L 8323.79,4600.44 L 8323.79,4595.25 L 8328.29,4592.66 L 8477.74,4678.95 Z " />
<path stroke="none" fill="#007109" transform="matrix(0.0833333 0 0 0.0833333 -289.175 -323.083)" d="M 8741.89,4592.66 L 8750.88,4597.85 L 8596.18,4687.16 L 8591.69,4679.38 L 8741.89,4592.66 Z " />
<path stroke="none" fill="#007109" transform="matrix(0.0833333 0 0 0.0833333 -289.175 -323.083)" d="M 8741.89,4353.86 L 8750.88,4348.68 L 8750.88,4597.85 L 8741.89,4592.66 L 8741.89,4353.86 Z " />
<path stroke="none" fill="#007109" transform="matrix(0.0833333 0 0 0.0833333 -289.175 -323.083)" d="M 8535.09,4234.47 L 8535.09,4229.28 L 8539.58,4226.68 L 8750.88,4348.68 L 8741.89,4353.86 L 8535.09,4234.47 Z " />
<path stroke="none" fill="#007109" transform="matrix(0.0833333 0 0 0.0833333 -289.175 -323.083)" d="M 8532.84,4289.51 L 8537.34,4281.73 L 8699.84,4375.55 L 8695.34,4383.33 L 8532.84,4289.51 Z " />
<path stroke="none" fill="#007109" transform="matrix(0.0833333 0 0 0.0833333 -289.175 -323.083)" d="M 8328.29,4353.86 L 8323.79,4351.27 L 8323.79,4346.08 L 8530.6,4226.68 L 8535.09,4229.28 L 8535.09,4234.47 L 8328.29,4353.86 Z " />
<text x="0" y="0" stroke="none" fill="#007109" transform="matrix(0.0833333 0 0 0.0833333 417.874 13.5661)" font-style="normal" font-weight="normal" font-size="140px" font-family="Arial" >
CF</text>
<text x="0" y="0" stroke="none" fill="#007109" transform="matrix(0.0833333 0 0 0.0833333 433.466 16.1495)" font-style="normal" font-weight="normal" font-size="105px" font-family="Arial" >
3</text>
<path stroke="none" fill="#007109" transform="matrix(0.0833333 0 0 0.0833333 -289.175 -323.083)" d="M 8530.6,4067.96 L 8539.58,4067.96 L 8539.58,4226.68 L 8535.09,4229.28 L 8530.6,4226.68 L 8530.6,4067.96 Z " />
<text x="0" y="0" stroke="none" fill="#007109" transform="matrix(0.0833333 0 0 0.0833333 347.442 33.8982)" font-style="normal" font-weight="normal" font-size="140px" font-family="Arial" >
R</text>
<path stroke="none" fill="#007109" transform="matrix(0.0833333 0 0 0.0833333 -289.175 -323.083)" d="M 7767.49,4279.26 L 7771.99,4271.48 L 7901.2,4346.08 L 7901.2,4351.27 L 7896.71,4353.86 L 7767.49,4279.26 Z " />
<path stroke="none" fill="#000000" transform="matrix(0.0833333 0 0 0.0833333 -289.175 -323.083)" d="M 5325.86,4469.34 L 4716.97,4469.34 L 4716.97,4460.34 L 5325.86,4460.34 Z " />
<path stroke="none" fill="#000000" transform="matrix(0.0833333 0 0 0.0833333 -289.175 -323.083)" d="M 5442.83,4464.84 C 5442.83,4464.84 5308.06,4499.53 5308.06,4499.53 C 5308.06,4499.53 5324.86,4480.02 5324.86,4464.84 C 5324.86,4449.22 5308.06,4429.15 5308.06,4429.15 C 5308.06,4429.15 5442.83,4464.84 5442.83,4464.84 C 5442.83,4464.84 5442.83,4464.84 5442.83,4464.84 " />
<path stroke="#000000" stroke-width="1" fill="none" transform="matrix(0.0833333 0 0 0.0833333 -289.175 -323.083)" d="M 5442.83,4464.84 C 5442.83,4464.84 5308.06,4499.53 5308.06,4499.53 C 5308.06,4499.53 5324.86,4480.02 5324.86,4464.84 C 5324.86,4449.22 5308.06,4429.15 5308.06,4429.15 C 5308.06,4429.15 5442.83,4464.84 5442.83,4464.84 C 5442.83,4464.84 5442.83,4464.84 5442.83,4464.84 " />
<text x="0" y="0" stroke="none" fill="#000000" transform="matrix(0.0833333 0 0 0.0833333 360.374 126.616)" font-style="normal" font-weight="normal" font-size="140px" font-family="Arial" >
R </text>
<text x="0" y="0" stroke="none" fill="#000000" transform="matrix(0.0833333 0 0 0.0833333 372.05 126.616)" font-style="normal" font-weight="normal" font-size="140px" font-family="Arial" >
= </text>
<text x="0" y="0" stroke="none" fill="#000000" transform="matrix(0.0833333 0 0 0.0833333 382.133 126.616)" font-style="normal" font-weight="normal" font-size="140px" font-family="Arial" >
H, </text>
<text x="0" y="0" stroke="none" fill="#000000" transform="matrix(0.0833333 0 0 0.0833333 397.058 126.616)" font-style="normal" font-weight="normal" font-size="140px" font-family="Arial" >
Cl</text>
<text x="0" y="0" stroke="none" fill="#000000" transform="matrix(0.0833333 0 0 0.0833333 103.792 38.4093)" font-style="normal" font-weight="normal" font-size="140px" font-family="Arial" >
CF</text>
<text x="0" y="0" stroke="none" fill="#000000" transform="matrix(0.0833333 0 0 0.0833333 119.384 40.9927)" font-style="normal" font-weight="normal" font-size="105px" font-family="Arial" >
3</text>
<text x="0" y="0" stroke="none" fill="#000000" transform="matrix(0.0833333 0 0 0.0833333 124.259 38.4093)" font-style="normal" font-weight="normal" font-size="140px" font-family="Arial" >
SiMe</text>
<text x="0" y="0" stroke="none" fill="#000000" transform="matrix(0.0833333 0 0 0.0833333 150.883 40.9927)" font-style="normal" font-weight="normal" font-size="105px" font-family="Arial" >
3</text>
<path stroke="#000000" stroke-width="6" fill="none" transform="matrix(0.0833333 0 0 0.0833333 -289.175 -323.083)" d="M 8443.62,5474.85 C 8443.62,5474.85 8443.62,5211.57 8443.62,5211.57 C 8443.62,5211.57 7723.23,5211.57 7723.23,5211.57 C 7723.23,5211.57 7723.23,5474.85 7723.23,5474.85 C 7723.23,5474.85 8443.62,5474.85 8443.62,5474.85 " />
</svg>
