<?xml version="1.0" standalone="no" ?>
<!DOCTYPE svg PUBLIC "-//W3C//DTD SVG 1.1//EN" "http://www.w3.org/Graphics/SVG/1.1/DTD/svg11.dtd">
<svg width="446px" height="233px" viewBox="0 0 446 233" style="background-color: #ffffff00" xmlns="http://www.w3.org/2000/svg" xmlns:xlink="http://www.w3.org/1999/xlink" version="1.1" >
<path stroke="none" fill="#c40062" transform="matrix(0.0833333 0 0 0.0833333 -111.175 -327.417)" d="M 1646.65,4644.93 L 1637.67,4650.12 L 1637.67,4406.13 L 1642.16,4403.54 L 1646.65,4406.13 L 1646.65,4644.93 Z " />
<path stroke="none" fill="#c40062" transform="matrix(0.0833333 0 0 0.0833333 -111.175 -327.417)" d="M 1695.45,4619.35 L 1686.46,4619.35 L 1686.46,4431.71 L 1695.45,4431.71 L 1695.45,4619.35 Z " />
<path stroke="none" fill="#c40062" transform="matrix(0.0833333 0 0 0.0833333 -111.175 -327.417)" d="M 1853.46,4764.33 L 1853.46,4774.7 L 1637.67,4650.12 L 1646.65,4644.93 L 1853.46,4764.33 Z " />
<path stroke="none" fill="#c40062" transform="matrix(0.0833333 0 0 0.0833333 -111.175 -327.417)" d="M 2060.26,4644.93 L 2064.75,4647.52 L 2064.75,4652.71 L 1853.46,4774.7 L 1853.46,4764.33 L 2060.26,4644.93 Z " />
<path stroke="none" fill="#c40062" transform="matrix(0.0833333 0 0 0.0833333 -111.175 -327.417)" d="M 2013.71,4615.46 L 2018.2,4623.24 L 1855.7,4717.06 L 1851.21,4709.28 L 2013.71,4615.46 Z " />
<path stroke="none" fill="#c40062" transform="matrix(0.0833333 0 0 0.0833333 -111.175 -327.417)" d="M 2060.26,4406.13 L 2064.75,4403.54 L 2069.24,4406.13 L 2069.24,4644.93 L 2064.75,4647.52 L 2060.26,4644.93 L 2060.26,4406.13 Z " />
<path stroke="none" fill="#c40062" transform="matrix(0.0833333 0 0 0.0833333 -111.175 -327.417)" d="M 1853.46,4286.73 L 1853.46,4276.36 L 2064.75,4398.35 L 2064.75,4403.54 L 2060.26,4406.13 L 1853.46,4286.73 Z " />
<path stroke="none" fill="#c40062" transform="matrix(0.0833333 0 0 0.0833333 -111.175 -327.417)" d="M 1851.21,4341.78 L 1855.7,4334 L 2018.2,4427.82 L 2013.71,4435.6 L 1851.21,4341.78 Z " />
<path stroke="none" fill="#c40062" transform="matrix(0.0833333 0 0 0.0833333 -111.175 -327.417)" d="M 1646.65,4406.13 L 1642.16,4403.54 L 1642.16,4398.35 L 1853.46,4276.36 L 1853.46,4286.73 L 1646.65,4406.13 Z " />
<text x="0" y="0" stroke="none" fill="#c40062" transform="matrix(0.0833333 0 0 0.0833333 74.6208 74.5845)" font-style="normal" font-weight="normal" font-size="140px" font-family="Arial" >
S</text>
<path stroke="none" fill="#c40062" transform="matrix(0.0833333 0 0 0.0833333 -111.175 -327.417)" d="M 2218.7,4731.22 L 2214.21,4739 L 2064.75,4652.71 L 2064.75,4647.52 L 2069.24,4644.93 L 2218.7,4731.22 Z " />
<path stroke="none" fill="#c40062" transform="matrix(0.0833333 0 0 0.0833333 -111.175 -327.417)" d="M 2482.85,4644.93 L 2491.84,4650.12 L 2337.14,4739.43 L 2332.65,4731.65 L 2482.85,4644.93 Z " />
<path stroke="none" fill="#c40062" transform="matrix(0.0833333 0 0 0.0833333 -111.175 -327.417)" d="M 2482.85,4406.13 L 2491.84,4400.94 L 2491.84,4650.12 L 2482.85,4644.93 L 2482.85,4406.13 Z " />
<path stroke="none" fill="#c40062" transform="matrix(0.0833333 0 0 0.0833333 -111.175 -327.417)" d="M 2276.05,4286.73 L 2276.05,4276.36 L 2491.84,4400.94 L 2482.85,4406.13 L 2276.05,4286.73 Z " />
<path stroke="none" fill="#c40062" transform="matrix(0.0833333 0 0 0.0833333 -111.175 -327.417)" d="M 2069.24,4406.13 L 2064.75,4403.54 L 2064.75,4398.35 L 2276.05,4276.36 L 2276.05,4286.73 L 2069.24,4406.13 Z " />
<text x="0" y="0" stroke="none" fill="#c40062" transform="matrix(0.0833333 0 0 0.0833333 73.9541 13.5884)" font-style="normal" font-weight="normal" font-size="140px" font-family="Arial" >
O</text>
<path stroke="none" fill="#c40062" transform="matrix(0.0833333 0 0 0.0833333 -111.175 -327.417)" d="M 2247.16,4118.23 L 2256.14,4118.23 L 2256.14,4295.63 L 2247.16,4295.63 L 2247.16,4118.23 Z " />
<path stroke="none" fill="#c40062" transform="matrix(0.0833333 0 0 0.0833333 -111.175 -327.417)" d="M 2295.96,4118.23 L 2304.94,4118.23 L 2304.94,4295.63 L 2295.96,4295.63 L 2295.96,4118.23 Z " />
<text x="0" y="0" stroke="none" fill="#c40062" transform="matrix(0.0833333 0 0 0.0833333 3.8552 33.9205)" font-style="normal" font-weight="normal" font-size="140px" font-family="Arial" >
R</text>
<path stroke="none" fill="#c40062" transform="matrix(0.0833333 0 0 0.0833333 -111.175 -327.417)" d="M 1508.45,4331.53 L 1512.94,4323.75 L 1642.16,4398.35 L 1642.16,4403.54 L 1637.67,4406.13 L 1508.45,4331.53 Z " />
<text x="0" y="0" stroke="none" fill="#000000" transform="matrix(0.0833333 0 0 0.0833333 49.1794 92.9556)" font-style="normal" font-weight="bold" font-size="140px" font-family="Arial" >
2a,b</text>
<path stroke="none" fill="#000000" transform="matrix(0.0833333 0 0 0.0833333 -111.175 -327.417)" d="M 3914.85,4533.2 L 2700.1,4533.2 L 2700.1,4524.2 L 3914.85,4524.2 Z " />
<path stroke="none" fill="#000000" transform="matrix(0.0833333 0 0 0.0833333 -111.175 -327.417)" d="M 4031.82,4528.7 C 4031.82,4528.7 3897.05,4563.39 3897.05,4563.39 C 3897.05,4563.39 3913.85,4543.89 3913.85,4528.7 C 3913.85,4513.08 3897.05,4493.01 3897.05,4493.01 C 3897.05,4493.01 4031.82,4528.7 4031.82,4528.7 C 4031.82,4528.7 4031.82,4528.7 4031.82,4528.7 " />
<path stroke="#000000" stroke-width="1" fill="none" transform="matrix(0.0833333 0 0 0.0833333 -111.175 -327.417)" d="M 4031.82,4528.7 C 4031.82,4528.7 3897.05,4563.39 3897.05,4563.39 C 3897.05,4563.39 3913.85,4543.89 3913.85,4528.7 C 3913.85,4513.08 3897.05,4493.01 3897.05,4493.01 C 3897.05,4493.01 4031.82,4528.7 4031.82,4528.7 C 4031.82,4528.7 4031.82,4528.7 4031.82,4528.7 " />
<text x="0" y="0" stroke="none" fill="#000000" transform="matrix(0.0833333 0 0 0.0833333 113.834 25.0153)" font-style="normal" font-weight="normal" font-size="140px" font-family="Arial" >
1.</text>
<text x="0" y="0" stroke="none" fill="#000000" transform="matrix(0.0833333 0 0 0.0833333 123.584 25.0153)" font-style="normal" font-weight="normal" font-size="140px" font-family="Arial" >
 </text>
<text x="0" y="0" stroke="none" fill="#000000" transform="matrix(0.0833333 0 0 0.0833333 126.834 25.0153)" font-style="normal" font-weight="normal" font-size="140px" font-family="Arial" >
CF</text>
<text x="0" y="0" stroke="none" fill="#000000" transform="matrix(0.0833333 0 0 0.0833333 142.426 27.5987)" font-style="normal" font-weight="normal" font-size="105px" font-family="Arial" >
3</text>
<text x="0" y="0" stroke="none" fill="#000000" transform="matrix(0.0833333 0 0 0.0833333 147.301 25.0153)" font-style="normal" font-weight="normal" font-size="140px" font-family="Arial" >
SiMe</text>
<text x="0" y="0" stroke="none" fill="#000000" transform="matrix(0.0833333 0 0 0.0833333 173.924 27.5987)" font-style="normal" font-weight="normal" font-size="105px" font-family="Arial" >
3,</text>
<text x="0" y="0" stroke="none" fill="#000000" transform="matrix(0.0833333 0 0 0.0833333 113.834 38.6681)" font-style="normal" font-weight="normal" font-size="140px" font-family="Arial" >
n-Bu</text>
<text x="0" y="0" stroke="none" fill="#000000" transform="matrix(0.0833333 0 0 0.0833333 138.532 41.2514)" font-style="normal" font-weight="normal" font-size="105px" font-family="Arial" >
4</text>
<text x="0" y="0" stroke="none" fill="#000000" transform="matrix(0.0833333 0 0 0.0833333 143.407 38.6681)" font-style="normal" font-weight="normal" font-size="140px" font-family="Arial" >
NF</text>
<text x="0" y="0" stroke="none" fill="#000000" transform="matrix(0.0833333 0 0 0.0833333 158.999 38.6681)" font-style="normal" font-weight="normal" font-size="140px" font-family="Arial" >
 </text>
<text x="0" y="0" stroke="none" fill="#000000" transform="matrix(0.0833333 0 0 0.0833333 162.249 38.6681)" font-style="normal" font-weight="normal" font-size="140px" font-family="Arial" >
(cat), </text>
<text x="0" y="0" stroke="none" fill="#000000" transform="matrix(0.0833333 0 0 0.0833333 192.165 38.6681)" font-style="normal" font-weight="normal" font-size="140px" font-family="Arial" >
THF</text>
<text x="0" y="0" stroke="none" fill="#000000" transform="matrix(0.0833333 0 0 0.0833333 113.834 68.4141)" font-style="normal" font-weight="normal" font-size="140px" font-family="Arial" >
2. </text>
<text x="0" y="0" stroke="none" fill="#000000" transform="matrix(0.0833333 0 0 0.0833333 126.834 68.4141)" font-style="normal" font-weight="normal" font-size="140px" font-family="Arial" >
HCl, </text>
<text x="0" y="0" stroke="none" fill="#000000" transform="matrix(0.0833333 0 0 0.0833333 152.776 68.4141)" font-style="normal" font-weight="normal" font-size="140px" font-family="Arial" >
aq, </text>
<text x="0" y="0" stroke="none" fill="#000000" transform="matrix(0.0833333 0 0 0.0833333 172.276 68.4141)" font-style="normal" font-weight="normal" font-size="140px" font-family="Arial" >
MeOH</text>
<path stroke="none" fill="#0000ff" transform="matrix(0.0833333 0 0 0.0833333 -111.175 -327.417)" d="M 4506.37,4644.93 L 4497.39,4650.12 L 4497.39,4406.13 L 4501.88,4403.54 L 4506.37,4406.13 L 4506.37,4644.93 Z " />
<path stroke="none" fill="#0000ff" transform="matrix(0.0833333 0 0 0.0833333 -111.175 -327.417)" d="M 4555.17,4619.35 L 4546.18,4619.35 L 4546.18,4431.71 L 4555.17,4431.71 L 4555.17,4619.35 Z " />
<path stroke="none" fill="#0000ff" transform="matrix(0.0833333 0 0 0.0833333 -111.175 -327.417)" d="M 4713.18,4764.33 L 4713.18,4774.7 L 4497.39,4650.12 L 4506.37,4644.93 L 4713.18,4764.33 Z " />
<path stroke="none" fill="#0000ff" transform="matrix(0.0833333 0 0 0.0833333 -111.175 -327.417)" d="M 4919.98,4644.93 L 4924.47,4647.52 L 4924.47,4652.71 L 4713.18,4774.7 L 4713.18,4764.33 L 4919.98,4644.93 Z " />
<path stroke="none" fill="#0000ff" transform="matrix(0.0833333 0 0 0.0833333 -111.175 -327.417)" d="M 4873.43,4615.46 L 4877.92,4623.24 L 4715.42,4717.06 L 4710.93,4709.28 L 4873.43,4615.46 Z " />
<path stroke="none" fill="#0000ff" transform="matrix(0.0833333 0 0 0.0833333 -111.175 -327.417)" d="M 4919.98,4406.13 L 4924.47,4403.54 L 4928.96,4406.13 L 4928.96,4644.93 L 4924.47,4647.52 L 4919.98,4644.93 L 4919.98,4406.13 Z " />
<path stroke="none" fill="#0000ff" transform="matrix(0.0833333 0 0 0.0833333 -111.175 -327.417)" d="M 4713.18,4286.73 L 4713.18,4276.36 L 4924.47,4398.35 L 4924.47,4403.54 L 4919.98,4406.13 L 4713.18,4286.73 Z " />
<path stroke="none" fill="#0000ff" transform="matrix(0.0833333 0 0 0.0833333 -111.175 -327.417)" d="M 4710.93,4341.78 L 4715.42,4334 L 4877.92,4427.82 L 4873.43,4435.6 L 4710.93,4341.78 Z " />
<path stroke="none" fill="#0000ff" transform="matrix(0.0833333 0 0 0.0833333 -111.175 -327.417)" d="M 4506.37,4406.13 L 4501.88,4403.54 L 4501.88,4398.35 L 4713.18,4276.36 L 4713.18,4286.73 L 4506.37,4406.13 Z " />
<text x="0" y="0" stroke="none" fill="#0000ff" transform="matrix(0.0833333 0 0 0.0833333 312.931 74.5845)" font-style="normal" font-weight="normal" font-size="140px" font-family="Arial" >
S</text>
<path stroke="none" fill="#0000ff" transform="matrix(0.0833333 0 0 0.0833333 -111.175 -327.417)" d="M 5078.42,4731.22 L 5073.93,4739 L 4924.47,4652.71 L 4924.47,4647.52 L 4928.96,4644.93 L 5078.42,4731.22 Z " />
<path stroke="none" fill="#0000ff" transform="matrix(0.0833333 0 0 0.0833333 -111.175 -327.417)" d="M 5342.57,4644.93 L 5351.56,4650.12 L 5196.86,4739.43 L 5192.37,4731.65 L 5342.57,4644.93 Z " />
<path stroke="none" fill="#0000ff" transform="matrix(0.0833333 0 0 0.0833333 -111.175 -327.417)" d="M 5342.57,4406.13 L 5351.56,4400.94 L 5351.56,4650.12 L 5342.57,4644.93 L 5342.57,4406.13 Z " />
<path stroke="none" fill="#0000ff" transform="matrix(0.0833333 0 0 0.0833333 -111.175 -327.417)" d="M 5135.77,4286.73 L 5135.77,4281.55 L 5143.08,4280.58 L 5351.56,4400.94 L 5342.57,4406.13 L 5135.77,4286.73 Z " />
<path stroke="none" fill="#0000ff" transform="matrix(0.0833333 0 0 0.0833333 -111.175 -327.417)" d="M 4928.96,4406.13 L 4924.47,4403.54 L 4924.47,4398.35 L 5128.45,4280.58 L 5135.77,4281.55 L 5135.77,4286.73 L 4928.96,4406.13 Z " />
<text x="0" y="0" stroke="none" fill="#0000ff" transform="matrix(0.0833333 0 0 0.0833333 242.165 33.9205)" font-style="normal" font-weight="normal" font-size="140px" font-family="Arial" >
R</text>
<path stroke="none" fill="#0000ff" transform="matrix(0.0833333 0 0 0.0833333 -111.175 -327.417)" d="M 4368.17,4331.53 L 4372.66,4323.75 L 4501.88,4398.35 L 4501.88,4403.54 L 4497.39,4406.13 L 4368.17,4331.53 Z " />
<text x="0" y="0" stroke="none" fill="#000000" transform="matrix(0.0833333 0 0 0.0833333 287.489 92.9556)" font-style="normal" font-weight="bold" font-size="140px" font-family="Arial" >
3a,b</text>
<text x="0" y="0" stroke="none" fill="#0000ff" transform="matrix(0.0833333 0 0 0.0833333 286.17 19.5435)" font-style="normal" font-weight="normal" font-size="140px" font-family="Arial" >
F</text>
<text x="0" y="0" stroke="none" fill="#0000ff" transform="matrix(0.0833333 0 0 0.0833333 293.337 22.1269)" font-style="normal" font-weight="normal" font-size="105px" font-family="Arial" >
3</text>
<text x="0" y="0" stroke="none" fill="#0000ff" transform="matrix(0.0833333 0 0 0.0833333 298.212 19.5435)" font-style="normal" font-weight="normal" font-size="140px" font-family="Arial" >
C</text>
<path stroke="none" fill="#0000ff" transform="matrix(0.0833333 0 0 0.0833333 -111.175 -327.417)" d="M 5017.03,4169.16 L 5023.38,4162.81 L 5135.77,4275.19 L 5135.77,4281.55 L 5128.45,4280.58 L 5017.03,4169.16 Z " />
<text x="0" y="0" stroke="none" fill="#0000ff" transform="matrix(0.0833333 0 0 0.0833333 326.641 19.5435)" font-style="normal" font-weight="normal" font-size="140px" font-family="Arial" >
OH</text>
<path stroke="none" fill="#0000ff" transform="matrix(0.0833333 0 0 0.0833333 -111.175 -327.417)" d="M 5248.85,4162.11 L 5255.21,4168.46 L 5143.08,4280.58 L 5135.77,4281.55 L 5135.77,4275.19 L 5248.85,4162.11 Z " />
<text x="0" y="0" stroke="none" fill="#000000" transform="matrix(0.0833333 0 0 0.0833333 3.85521 150.915)" font-style="normal" font-weight="bold" font-size="140px" font-family="Arial" >
3a,b</text>
<path stroke="none" fill="#000000" transform="matrix(0.0833333 0 0 0.0833333 -111.175 -327.417)" d="M 2642.22,5699.85 L 1804.16,5699.85 L 1804.16,5690.85 L 2642.22,5690.85 Z " />
<path stroke="none" fill="#000000" transform="matrix(0.0833333 0 0 0.0833333 -111.175 -327.417)" d="M 2759.18,5695.35 C 2759.18,5695.35 2624.41,5730.04 2624.41,5730.04 C 2624.41,5730.04 2641.22,5710.53 2641.22,5695.35 C 2641.22,5679.73 2624.41,5659.66 2624.41,5659.66 C 2624.41,5659.66 2759.18,5695.35 2759.18,5695.35 C 2759.18,5695.35 2759.18,5695.35 2759.18,5695.35 " />
<path stroke="#000000" stroke-width="1" fill="none" transform="matrix(0.0833333 0 0 0.0833333 -111.175 -327.417)" d="M 2759.18,5695.35 C 2759.18,5695.35 2624.41,5730.04 2624.41,5730.04 C 2624.41,5730.04 2641.22,5710.53 2641.22,5695.35 C 2641.22,5679.73 2624.41,5659.66 2624.41,5659.66 C 2624.41,5659.66 2759.18,5695.35 2759.18,5695.35 C 2759.18,5695.35 2759.18,5695.35 2759.18,5695.35 " />
<text x="0" y="0" stroke="none" fill="#000000" transform="matrix(0.0833333 0 0 0.0833333 45.5535 136.687)" font-style="normal" font-weight="normal" font-size="140px" font-family="Arial" >
P</text>
<text x="0" y="0" stroke="none" fill="#000000" transform="matrix(0.0833333 0 0 0.0833333 53.335 139.27)" font-style="normal" font-weight="normal" font-size="105px" font-family="Arial" >
2</text>
<text x="0" y="0" stroke="none" fill="#000000" transform="matrix(0.0833333 0 0 0.0833333 58.21 136.687)" font-style="normal" font-weight="normal" font-size="140px" font-family="Arial" >
O</text>
<text x="0" y="0" stroke="none" fill="#000000" transform="matrix(0.0833333 0 0 0.0833333 67.2934 139.27)" font-style="normal" font-weight="normal" font-size="105px" font-family="Arial" >
5</text>
<text x="0" y="0" stroke="none" fill="#000000" transform="matrix(0.0833333 0 0 0.0833333 72.1684 136.687)" font-style="normal" font-weight="normal" font-size="140px" font-family="Arial" >
/ </text>
<text x="0" y="0" stroke="none" fill="#000000" transform="matrix(0.0833333 0 0 0.0833333 78.6684 136.687)" font-style="normal" font-weight="normal" font-size="140px" font-family="Arial" >
SiO</text>
<text x="0" y="0" stroke="none" fill="#000000" transform="matrix(0.0833333 0 0 0.0833333 98.1252 139.27)" font-style="normal" font-weight="normal" font-size="105px" font-family="Arial" >
2</text>
<text x="0" y="0" stroke="none" fill="#000000" transform="matrix(0.0833333 0 0 0.0833333 40.8465 164.809)" font-style="normal" font-weight="normal" font-size="140px" font-family="Arial" >
ClCH</text>
<text x="0" y="0" stroke="none" fill="#000000" transform="matrix(0.0833333 0 0 0.0833333 68.7143 167.393)" font-style="normal" font-weight="normal" font-size="105px" font-family="Arial" >
2</text>
<text x="0" y="0" stroke="none" fill="#000000" transform="matrix(0.0833333 0 0 0.0833333 73.5893 164.809)" font-style="normal" font-weight="normal" font-size="140px" font-family="Arial" >
CH</text>
<text x="0" y="0" stroke="none" fill="#000000" transform="matrix(0.0833333 0 0 0.0833333 90.4399 167.393)" font-style="normal" font-weight="normal" font-size="105px" font-family="Arial" >
2</text>
<text x="0" y="0" stroke="none" fill="#000000" transform="matrix(0.0833333 0 0 0.0833333 95.3149 164.809)" font-style="normal" font-weight="normal" font-size="140px" font-family="Arial" >
Cl,</text>
<text x="0" y="0" stroke="none" fill="#000000" transform="matrix(0.0833333 0 0 0.0833333 40.8465 178.226)" font-style="normal" font-weight="normal" font-size="140px" font-family="Arial" >
 </text>
<text x="0" y="0" stroke="none" fill="#000000" transform="matrix(0.0833333 0 0 0.0833333 44.0965 178.226)" font-style="normal" font-weight="normal" font-size="140px" font-family="Arial" >
 </text>
<text x="0" y="0" stroke="none" fill="#000000" transform="matrix(0.0833333 0 0 0.0833333 47.3465 178.226)" font-style="normal" font-weight="normal" font-size="140px" font-family="Arial" >
 </text>
<text x="0" y="0" stroke="none" fill="#000000" transform="matrix(0.0833333 0 0 0.0833333 50.5965 178.226)" font-style="normal" font-weight="normal" font-size="140px" font-family="Arial" >
 </text>
<text x="0" y="0" stroke="none" fill="#000000" transform="matrix(0.0833333 0 0 0.0833333 53.8465 178.226)" font-style="normal" font-weight="normal" font-size="140px" font-family="Arial" >
- </text>
<text x="0" y="0" stroke="none" fill="#000000" transform="matrix(0.0833333 0 0 0.0833333 61.0132 178.226)" font-style="normal" font-weight="normal" font-size="140px" font-family="Arial" >
H</text>
<text x="0" y="0" stroke="none" fill="#000000" transform="matrix(0.0833333 0 0 0.0833333 69.4385 180.809)" font-style="normal" font-weight="normal" font-size="105px" font-family="Arial" >
2</text>
<text x="0" y="0" stroke="none" fill="#000000" transform="matrix(0.0833333 0 0 0.0833333 74.3135 178.226)" font-style="normal" font-weight="normal" font-size="140px" font-family="Arial" >
O</text>
<path stroke="none" fill="#009100" transform="matrix(0.0833333 0 0 0.0833333 -111.175 -327.417)" d="M 3168.27,5812.87 L 3159.29,5818.06 L 3159.29,5574.08 L 3163.78,5571.48 L 3168.27,5574.08 L 3168.27,5812.87 Z " />
<path stroke="none" fill="#009100" transform="matrix(0.0833333 0 0 0.0833333 -111.175 -327.417)" d="M 3217.07,5787.29 L 3208.08,5787.29 L 3208.08,5599.66 L 3217.07,5599.66 L 3217.07,5787.29 Z " />
<path stroke="none" fill="#009100" transform="matrix(0.0833333 0 0 0.0833333 -111.175 -327.417)" d="M 3375.08,5932.27 L 3375.08,5942.65 L 3159.29,5818.06 L 3168.27,5812.87 L 3375.08,5932.27 Z " />
<path stroke="none" fill="#009100" transform="matrix(0.0833333 0 0 0.0833333 -111.175 -327.417)" d="M 3581.88,5812.87 L 3586.37,5815.47 L 3586.37,5820.65 L 3375.08,5942.65 L 3375.08,5932.27 L 3581.88,5812.87 Z " />
<path stroke="none" fill="#009100" transform="matrix(0.0833333 0 0 0.0833333 -111.175 -327.417)" d="M 3535.33,5783.4 L 3539.82,5791.18 L 3377.32,5885 L 3372.83,5877.22 L 3535.33,5783.4 Z " />
<path stroke="none" fill="#009100" transform="matrix(0.0833333 0 0 0.0833333 -111.175 -327.417)" d="M 3581.88,5574.08 L 3586.37,5571.48 L 3590.86,5574.08 L 3590.86,5812.87 L 3586.37,5815.47 L 3581.88,5812.87 L 3581.88,5574.08 Z " />
<path stroke="none" fill="#009100" transform="matrix(0.0833333 0 0 0.0833333 -111.175 -327.417)" d="M 3375.08,5454.68 L 3375.08,5444.3 L 3586.37,5566.3 L 3586.37,5571.48 L 3581.88,5574.08 L 3375.08,5454.68 Z " />
<path stroke="none" fill="#009100" transform="matrix(0.0833333 0 0 0.0833333 -111.175 -327.417)" d="M 3372.83,5509.73 L 3377.32,5501.95 L 3539.82,5595.77 L 3535.33,5603.55 L 3372.83,5509.73 Z " />
<path stroke="none" fill="#009100" transform="matrix(0.0833333 0 0 0.0833333 -111.175 -327.417)" d="M 3168.27,5574.08 L 3163.78,5571.48 L 3163.78,5566.3 L 3375.08,5444.3 L 3375.08,5454.68 L 3168.27,5574.08 Z " />
<text x="0" y="0" stroke="none" fill="#009100" transform="matrix(0.0833333 0 0 0.0833333 201.422 171.913)" font-style="normal" font-weight="normal" font-size="140px" font-family="Arial" >
S</text>
<path stroke="none" fill="#009100" transform="matrix(0.0833333 0 0 0.0833333 -111.175 -327.417)" d="M 3740.32,5899.16 L 3735.83,5906.94 L 3586.37,5820.65 L 3586.37,5815.47 L 3590.86,5812.87 L 3740.32,5899.16 Z " />
<path stroke="none" fill="#009100" transform="matrix(0.0833333 0 0 0.0833333 -111.175 -327.417)" d="M 4004.47,5812.87 L 4013.46,5818.06 L 3858.76,5907.38 L 3854.27,5899.6 L 4004.47,5812.87 Z " />
<path stroke="none" fill="#009100" transform="matrix(0.0833333 0 0 0.0833333 -111.175 -327.417)" d="M 4004.47,5574.08 L 4013.46,5568.89 L 4013.46,5818.06 L 4004.47,5812.87 L 4004.47,5574.08 Z " />
<path stroke="none" fill="#009100" transform="matrix(0.0833333 0 0 0.0833333 -111.175 -327.417)" d="M 3797.67,5454.68 L 3797.67,5449.49 L 3802.16,5446.9 L 4013.46,5568.89 L 4004.47,5574.08 L 3797.67,5454.68 Z " />
<path stroke="none" fill="#009100" transform="matrix(0.0833333 0 0 0.0833333 -111.175 -327.417)" d="M 3795.42,5509.73 L 3799.91,5501.95 L 3962.41,5595.77 L 3957.92,5603.55 L 3795.42,5509.73 Z " />
<path stroke="none" fill="#009100" transform="matrix(0.0833333 0 0 0.0833333 -111.175 -327.417)" d="M 3590.86,5574.08 L 3586.37,5571.48 L 3586.37,5566.3 L 3793.18,5446.9 L 3797.67,5449.49 L 3797.67,5454.68 L 3590.86,5574.08 Z " />
<text x="0" y="0" stroke="none" fill="#009100" transform="matrix(0.0833333 0 0 0.0833333 201.089 110.917)" font-style="normal" font-weight="normal" font-size="140px" font-family="Arial" >
CF</text>
<text x="0" y="0" stroke="none" fill="#009100" transform="matrix(0.0833333 0 0 0.0833333 216.681 113.5)" font-style="normal" font-weight="normal" font-size="105px" font-family="Arial" >
3</text>
<path stroke="none" fill="#009100" transform="matrix(0.0833333 0 0 0.0833333 -111.175 -327.417)" d="M 3793.18,5288.17 L 3802.16,5288.17 L 3802.16,5446.9 L 3797.67,5449.49 L 3793.18,5446.9 L 3793.18,5288.17 Z " />
<text x="0" y="0" stroke="none" fill="#009100" transform="matrix(0.0833333 0 0 0.0833333 130.657 131.249)" font-style="normal" font-weight="normal" font-size="140px" font-family="Arial" >
R</text>
<path stroke="none" fill="#009100" transform="matrix(0.0833333 0 0 0.0833333 -111.175 -327.417)" d="M 3030.07,5499.47 L 3034.56,5491.69 L 3163.78,5566.3 L 3163.78,5571.48 L 3159.29,5574.08 L 3030.07,5499.47 Z " />
<text x="0" y="0" stroke="none" fill="#000000" transform="matrix(0.0833333 0 0 0.0833333 175.981 190.284)" font-style="normal" font-weight="bold" font-size="140px" font-family="Arial" >
1a,b</text>
<path stroke="none" fill="#000000" transform="matrix(0.0833333 0 0 0.0833333 -111.175 -327.417)" d="M 4857.6,5699.85 L 4253.57,5699.85 L 4253.57,5690.85 L 4857.6,5690.85 Z " />
<path stroke="none" fill="#000000" transform="matrix(0.0833333 0 0 0.0833333 -111.175 -327.417)" d="M 4974.56,5695.35 C 4974.56,5695.35 4839.8,5730.04 4839.8,5730.04 C 4839.8,5730.04 4856.6,5710.53 4856.6,5695.35 C 4856.6,5679.73 4839.8,5659.66 4839.8,5659.66 C 4839.8,5659.66 4974.56,5695.35 4974.56,5695.35 C 4974.56,5695.35 4974.56,5695.35 4974.56,5695.35 " />
<path stroke="#000000" stroke-width="1" fill="none" transform="matrix(0.0833333 0 0 0.0833333 -111.175 -327.417)" d="M 4974.56,5695.35 C 4974.56,5695.35 4839.8,5730.04 4839.8,5730.04 C 4839.8,5730.04 4856.6,5710.53 4856.6,5695.35 C 4856.6,5679.73 4839.8,5659.66 4839.8,5659.66 C 4839.8,5659.66 4974.56,5695.35 4974.56,5695.35 C 4974.56,5695.35 4974.56,5695.35 4974.56,5695.35 " />
<path stroke="none" fill="#c40000" transform="matrix(0.0833333 0 0 0.0833333 -111.175 -327.417)" d="M 5383.65,5811.58 L 5374.67,5816.76 L 5374.67,5572.78 L 5379.16,5570.19 L 5383.65,5572.78 L 5383.65,5811.58 Z " />
<path stroke="none" fill="#c40000" transform="matrix(0.0833333 0 0 0.0833333 -111.175 -327.417)" d="M 5432.45,5786 L 5423.47,5786 L 5423.47,5598.36 L 5432.45,5598.36 L 5432.45,5786 Z " />
<path stroke="none" fill="#c40000" transform="matrix(0.0833333 0 0 0.0833333 -111.175 -327.417)" d="M 5590.46,5930.98 L 5590.46,5941.35 L 5374.67,5816.76 L 5383.65,5811.58 L 5590.46,5930.98 Z " />
<path stroke="none" fill="#c40000" transform="matrix(0.0833333 0 0 0.0833333 -111.175 -327.417)" d="M 5797.26,5811.58 L 5801.76,5814.17 L 5801.76,5819.36 L 5590.46,5941.35 L 5590.46,5930.98 L 5797.26,5811.58 Z " />
<path stroke="none" fill="#c40000" transform="matrix(0.0833333 0 0 0.0833333 -111.175 -327.417)" d="M 5750.71,5782.11 L 5755.21,5789.89 L 5592.71,5883.71 L 5588.21,5875.93 L 5750.71,5782.11 Z " />
<path stroke="none" fill="#c40000" transform="matrix(0.0833333 0 0 0.0833333 -111.175 -327.417)" d="M 5797.26,5572.78 L 5801.76,5570.19 L 5806.25,5572.78 L 5806.25,5811.58 L 5801.76,5814.17 L 5797.26,5811.58 L 5797.26,5572.78 Z " />
<path stroke="none" fill="#c40000" transform="matrix(0.0833333 0 0 0.0833333 -111.175 -327.417)" d="M 5590.46,5453.38 L 5590.46,5443.01 L 5801.76,5565 L 5801.76,5570.19 L 5797.26,5572.78 L 5590.46,5453.38 Z " />
<path stroke="none" fill="#c40000" transform="matrix(0.0833333 0 0 0.0833333 -111.175 -327.417)" d="M 5588.21,5508.43 L 5592.71,5500.65 L 5755.21,5594.47 L 5750.71,5602.25 L 5588.21,5508.43 Z " />
<path stroke="none" fill="#c40000" transform="matrix(0.0833333 0 0 0.0833333 -111.175 -327.417)" d="M 5383.65,5572.78 L 5379.16,5570.19 L 5379.16,5565 L 5590.46,5443.01 L 5590.46,5453.38 L 5383.65,5572.78 Z " />
<text x="0" y="0" stroke="none" fill="#c40000" transform="matrix(0.0833333 0 0 0.0833333 386.038 171.805)" font-style="normal" font-weight="normal" font-size="140px" font-family="Arial" >
S</text>
<path stroke="none" fill="#c40000" transform="matrix(0.0833333 0 0 0.0833333 -111.175 -327.417)" d="M 5955.71,5897.87 L 5951.21,5905.65 L 5801.76,5819.36 L 5801.76,5814.17 L 5806.25,5811.58 L 5955.71,5897.87 Z " />
<path stroke="none" fill="#c40000" transform="matrix(0.0833333 0 0 0.0833333 -111.175 -327.417)" d="M 6219.86,5811.58 L 6228.84,5816.76 L 6074.14,5906.08 L 6069.65,5898.3 L 6219.86,5811.58 Z " />
<path stroke="none" fill="#c40000" transform="matrix(0.0833333 0 0 0.0833333 -111.175 -327.417)" d="M 6219.86,5572.78 L 6228.84,5567.59 L 6228.84,5816.76 L 6219.86,5811.58 L 6219.86,5572.78 Z " />
<path stroke="none" fill="#c40000" transform="matrix(0.0833333 0 0 0.0833333 -111.175 -327.417)" d="M 6013.05,5453.38 L 6013.05,5448.19 L 6017.54,5445.6 L 6228.84,5567.59 L 6219.86,5572.78 L 6013.05,5453.38 Z " />
<path stroke="none" fill="#c40000" transform="matrix(0.0833333 0 0 0.0833333 -111.175 -327.417)" d="M 6010.81,5508.43 L 6015.3,5500.65 L 6177.8,5594.47 L 6173.31,5602.25 L 6010.81,5508.43 Z " />
<path stroke="none" fill="#c40000" transform="matrix(0.0833333 0 0 0.0833333 -111.175 -327.417)" d="M 5806.25,5572.78 L 5801.76,5570.19 L 5801.76,5565 L 6008.56,5445.6 L 6013.05,5448.19 L 6013.05,5453.38 L 5806.25,5572.78 Z " />
<text x="0" y="0" stroke="none" fill="#c40000" transform="matrix(0.0833333 0 0 0.0833333 385.704 110.809)" font-style="normal" font-weight="normal" font-size="140px" font-family="Arial" >
CF</text>
<text x="0" y="0" stroke="none" fill="#c40000" transform="matrix(0.0833333 0 0 0.0833333 401.296 113.392)" font-style="normal" font-weight="normal" font-size="105px" font-family="Arial" >
3</text>
<path stroke="none" fill="#c40000" transform="matrix(0.0833333 0 0 0.0833333 -111.175 -327.417)" d="M 6008.56,5286.88 L 6017.54,5286.88 L 6017.54,5445.6 L 6013.05,5448.19 L 6008.56,5445.6 L 6008.56,5286.88 Z " />
<text x="0" y="0" stroke="none" fill="#c40000" transform="matrix(0.0833333 0 0 0.0833333 315.272 131.141)" font-style="normal" font-weight="normal" font-size="140px" font-family="Arial" >
R</text>
<path stroke="none" fill="#c40000" transform="matrix(0.0833333 0 0 0.0833333 -111.175 -327.417)" d="M 5245.46,5498.18 L 5249.95,5490.4 L 5379.16,5565 L 5379.16,5570.19 L 5374.67,5572.78 L 5245.46,5498.18 Z " />
<text x="0" y="0" stroke="none" fill="#000000" transform="matrix(0.0833333 0 0 0.0833333 360.596 190.176)" font-style="normal" font-weight="bold" font-size="140px" font-family="Arial" >
4a,b</text>
<text x="0" y="0" stroke="none" fill="#c40000" transform="matrix(0.0833333 0 0 0.0833333 420.587 171.805)" font-style="normal" font-weight="normal" font-size="140px" font-family="Arial" >
O</text>
<path stroke="none" fill="#c40000" transform="matrix(0.0833333 0 0 0.0833333 -111.175 -327.417)" d="M 6388.08,5875.34 L 6383.59,5883.12 L 6222.1,5789.89 L 6226.6,5782.11 L 6388.08,5875.34 Z " />
<path stroke="none" fill="#c40000" transform="matrix(0.0833333 0 0 0.0833333 -111.175 -327.417)" d="M 6363.68,5917.6 L 6359.19,5925.38 L 6197.7,5832.15 L 6202.2,5824.37 L 6363.68,5917.6 Z " />
<text x="0" y="0" stroke="none" fill="#000000" transform="matrix(0.0833333 0 0 0.0833333 248.074 137.105)" font-style="normal" font-weight="normal" font-size="140px" font-family="Arial" >
CrO</text>
<text x="0" y="0" stroke="none" fill="#000000" transform="matrix(0.0833333 0 0 0.0833333 269.499 139.689)" font-style="normal" font-weight="normal" font-size="105px" font-family="Arial" >
3,</text>
<text x="0" y="0" stroke="none" fill="#000000" transform="matrix(0.0833333 0 0 0.0833333 276.812 137.105)" font-style="normal" font-weight="normal" font-size="140px" font-family="Arial" >
 </text>
<text x="0" y="0" stroke="none" fill="#000000" transform="matrix(0.0833333 0 0 0.0833333 280.062 137.105)" font-style="normal" font-weight="normal" font-size="140px" font-family="Arial" >
Py</text>
<text x="0" y="0" stroke="none" fill="#000000" transform="matrix(0.0833333 0 0 0.0833333 252.066 163.474)" font-style="normal" font-weight="normal" font-size="140px" font-family="Arial" >
CH</text>
<text x="0" y="0" stroke="none" fill="#000000" transform="matrix(0.0833333 0 0 0.0833333 268.917 166.057)" font-style="normal" font-weight="normal" font-size="105px" font-family="Arial" >
2</text>
<text x="0" y="0" stroke="none" fill="#000000" transform="matrix(0.0833333 0 0 0.0833333 273.792 163.474)" font-style="normal" font-weight="normal" font-size="140px" font-family="Arial" >
Cl</text>
<text x="0" y="0" stroke="none" fill="#000000" transform="matrix(0.0833333 0 0 0.0833333 284.809 166.057)" font-style="normal" font-weight="normal" font-size="105px" font-family="Arial" >
2</text>
<text x="0" y="0" stroke="none" fill="#000000" transform="matrix(0.0833333 0 0 0.0833333 143.99 212.22)" font-style="normal" font-weight="normal" font-size="140px" font-family="Arial" >
R </text>
<text x="0" y="0" stroke="none" fill="#000000" transform="matrix(0.0833333 0 0 0.0833333 155.665 212.22)" font-style="normal" font-weight="normal" font-size="140px" font-family="Arial" >
= </text>
<text x="0" y="0" stroke="none" fill="#000000" transform="matrix(0.0833333 0 0 0.0833333 165.748 212.22)" font-style="normal" font-weight="normal" font-size="140px" font-family="Arial" >
H </text>
<text x="0" y="0" stroke="none" fill="#000000" transform="matrix(0.0833333 0 0 0.0833333 177.424 212.22)" font-style="normal" font-weight="normal" font-size="140px" font-family="Arial" >
(</text>
<text x="0" y="0" stroke="none" fill="#000000" transform="matrix(0.0833333 0 0 0.0833333 181.34 212.22)" font-style="normal" font-weight="bold" font-size="140px" font-family="Arial" >
1a</text>
<text x="0" y="0" stroke="none" fill="#000000" transform="matrix(0.0833333 0 0 0.0833333 194.34 212.22)" font-style="normal" font-weight="normal" font-size="140px" font-family="Arial" >
, </text>
<text x="0" y="0" stroke="none" fill="#000000" transform="matrix(0.0833333 0 0 0.0833333 200.84 212.22)" font-style="normal" font-weight="normal" font-size="140px" font-family="Arial" >
74%),</text>
<text x="0" y="0" stroke="none" fill="#000000" transform="matrix(0.0833333 0 0 0.0833333 143.99 225.97)" font-style="normal" font-weight="normal" font-size="140px" font-family="Arial" >
R </text>
<text x="0" y="0" stroke="none" fill="#000000" transform="matrix(0.0833333 0 0 0.0833333 155.665 225.97)" font-style="normal" font-weight="normal" font-size="140px" font-family="Arial" >
= </text>
<text x="0" y="0" stroke="none" fill="#000000" transform="matrix(0.0833333 0 0 0.0833333 165.748 225.97)" font-style="normal" font-weight="normal" font-size="140px" font-family="Arial" >
Cl </text>
<text x="0" y="0" stroke="none" fill="#000000" transform="matrix(0.0833333 0 0 0.0833333 180.015 225.97)" font-style="normal" font-weight="normal" font-size="140px" font-family="Arial" >
(</text>
<text x="0" y="0" stroke="none" fill="#000000" transform="matrix(0.0833333 0 0 0.0833333 183.932 225.97)" font-style="normal" font-weight="bold" font-size="140px" font-family="Arial" >
1b</text>
<text x="0" y="0" stroke="none" fill="#000000" transform="matrix(0.0833333 0 0 0.0833333 197.599 225.97)" font-style="normal" font-weight="normal" font-size="140px" font-family="Arial" >
, </text>
<text x="0" y="0" stroke="none" fill="#000000" transform="matrix(0.0833333 0 0 0.0833333 204.099 225.97)" font-style="normal" font-weight="normal" font-size="140px" font-family="Arial" >
82%)</text>
<text x="0" y="0" stroke="none" fill="#000000" transform="matrix(0.0833333 0 0 0.0833333 328.605 212.112)" font-style="normal" font-weight="normal" font-size="140px" font-family="Arial" >
R </text>
<text x="0" y="0" stroke="none" fill="#000000" transform="matrix(0.0833333 0 0 0.0833333 340.28 212.112)" font-style="normal" font-weight="normal" font-size="140px" font-family="Arial" >
= </text>
<text x="0" y="0" stroke="none" fill="#000000" transform="matrix(0.0833333 0 0 0.0833333 350.364 212.112)" font-style="normal" font-weight="normal" font-size="140px" font-family="Arial" >
H </text>
<text x="0" y="0" stroke="none" fill="#000000" transform="matrix(0.0833333 0 0 0.0833333 362.039 212.112)" font-style="normal" font-weight="normal" font-size="140px" font-family="Arial" >
(</text>
<text x="0" y="0" stroke="none" fill="#000000" transform="matrix(0.0833333 0 0 0.0833333 365.956 212.112)" font-style="normal" font-weight="bold" font-size="140px" font-family="Arial" >
4a</text>
<text x="0" y="0" stroke="none" fill="#000000" transform="matrix(0.0833333 0 0 0.0833333 378.956 212.112)" font-style="normal" font-weight="normal" font-size="140px" font-family="Arial" >
, </text>
<text x="0" y="0" stroke="none" fill="#000000" transform="matrix(0.0833333 0 0 0.0833333 385.456 212.112)" font-style="normal" font-weight="normal" font-size="140px" font-family="Arial" >
61%),</text>
<text x="0" y="0" stroke="none" fill="#000000" transform="matrix(0.0833333 0 0 0.0833333 328.605 225.862)" font-style="normal" font-weight="normal" font-size="140px" font-family="Arial" >
R </text>
<text x="0" y="0" stroke="none" fill="#000000" transform="matrix(0.0833333 0 0 0.0833333 340.28 225.862)" font-style="normal" font-weight="normal" font-size="140px" font-family="Arial" >
= </text>
<text x="0" y="0" stroke="none" fill="#000000" transform="matrix(0.0833333 0 0 0.0833333 350.364 225.862)" font-style="normal" font-weight="normal" font-size="140px" font-family="Arial" >
Cl </text>
<text x="0" y="0" stroke="none" fill="#000000" transform="matrix(0.0833333 0 0 0.0833333 364.631 225.862)" font-style="normal" font-weight="normal" font-size="140px" font-family="Arial" >
(</text>
<text x="0" y="0" stroke="none" fill="#000000" transform="matrix(0.0833333 0 0 0.0833333 368.547 225.862)" font-style="normal" font-weight="bold" font-size="140px" font-family="Arial" >
4b</text>
<text x="0" y="0" stroke="none" fill="#000000" transform="matrix(0.0833333 0 0 0.0833333 382.214 225.862)" font-style="normal" font-weight="normal" font-size="140px" font-family="Arial" >
, </text>
<text x="0" y="0" stroke="none" fill="#000000" transform="matrix(0.0833333 0 0 0.0833333 388.714 225.862)" font-style="normal" font-weight="normal" font-size="140px" font-family="Arial" >
65%)</text>
<text x="0" y="0" stroke="none" fill="#000000" transform="matrix(0.0833333 0 0 0.0833333 354.743 46.7108)" font-style="normal" font-weight="normal" font-size="140px" font-family="Arial" >
R </text>
<text x="0" y="0" stroke="none" fill="#000000" transform="matrix(0.0833333 0 0 0.0833333 366.418 46.7108)" font-style="normal" font-weight="normal" font-size="140px" font-family="Arial" >
= </text>
<text x="0" y="0" stroke="none" fill="#000000" transform="matrix(0.0833333 0 0 0.0833333 376.501 46.7108)" font-style="normal" font-weight="normal" font-size="140px" font-family="Arial" >
H </text>
<text x="0" y="0" stroke="none" fill="#000000" transform="matrix(0.0833333 0 0 0.0833333 388.177 46.7108)" font-style="normal" font-weight="normal" font-size="140px" font-family="Arial" >
(</text>
<text x="0" y="0" stroke="none" fill="#000000" transform="matrix(0.0833333 0 0 0.0833333 392.093 46.7108)" font-style="normal" font-weight="bold" font-size="140px" font-family="Arial" >
3a</text>
<text x="0" y="0" stroke="none" fill="#000000" transform="matrix(0.0833333 0 0 0.0833333 405.093 46.7108)" font-style="normal" font-weight="normal" font-size="140px" font-family="Arial" >
, </text>
<text x="0" y="0" stroke="none" fill="#000000" transform="matrix(0.0833333 0 0 0.0833333 411.593 46.7108)" font-style="normal" font-weight="normal" font-size="140px" font-family="Arial" >
87%),</text>
<text x="0" y="0" stroke="none" fill="#000000" transform="matrix(0.0833333 0 0 0.0833333 354.743 60.4608)" font-style="normal" font-weight="normal" font-size="140px" font-family="Arial" >
R </text>
<text x="0" y="0" stroke="none" fill="#000000" transform="matrix(0.0833333 0 0 0.0833333 366.418 60.4608)" font-style="normal" font-weight="normal" font-size="140px" font-family="Arial" >
= </text>
<text x="0" y="0" stroke="none" fill="#000000" transform="matrix(0.0833333 0 0 0.0833333 376.501 60.4608)" font-style="normal" font-weight="normal" font-size="140px" font-family="Arial" >
Cl </text>
<text x="0" y="0" stroke="none" fill="#000000" transform="matrix(0.0833333 0 0 0.0833333 390.768 60.4608)" font-style="normal" font-weight="bold" font-size="140px" font-family="Arial" >
(3b</text>
<text x="0" y="0" stroke="none" fill="#000000" transform="matrix(0.0833333 0 0 0.0833333 408.352 60.4608)" font-style="normal" font-weight="normal" font-size="140px" font-family="Arial" >
, </text>
<text x="0" y="0" stroke="none" fill="#000000" transform="matrix(0.0833333 0 0 0.0833333 414.852 60.4608)" font-style="normal" font-weight="normal" font-size="140px" font-family="Arial" >
92%)</text>
</svg>
