<?xml version="1.0" standalone="no" ?>
<!DOCTYPE svg PUBLIC "-//W3C//DTD SVG 1.1//EN" "http://www.w3.org/Graphics/SVG/1.1/DTD/svg11.dtd">
<svg width="712px" height="169px" viewBox="0 0 712 169" style="background-color: #ffffff00" xmlns="http://www.w3.org/2000/svg" xmlns:xlink="http://www.w3.org/1999/xlink" version="1.1" >
<path stroke="none" fill="#000000" transform="matrix(0.0666667 0 0 0.0666667 -250.132 -232.333)" d="M 5388.1,5262.76 L 5390.11,5266.24 L 5388.56,5269.71 L 5194.44,5269.71 L 5192.89,5266.24 L 5194.9,5262.76 L 5388.1,5262.76 Z " />
<path stroke="none" fill="#000000" transform="matrix(0.0666667 0 0 0.0666667 -250.132 -232.333)" d="M 5484.7,5095.44 L 5488.72,5095.44 L 5490.47,5099.37 L 5394.38,5265.79 L 5390.11,5266.24 L 5388.1,5262.76 L 5484.7,5095.44 Z " />
<path stroke="none" fill="#000000" transform="matrix(0.0666667 0 0 0.0666667 -250.132 -232.333)" d="M 5503.56,5133.79 L 5509.58,5137.26 L 5436.76,5263.39 L 5430.74,5259.91 L 5503.56,5133.79 Z " />
<path stroke="none" fill="#000000" transform="matrix(0.0666667 0 0 0.0666667 -250.132 -232.333)" d="M 5388.1,4928.12 L 5390.11,4924.64 L 5394.12,4924.64 L 5490.96,5092.36 L 5488.72,5095.44 L 5484.7,5095.44 L 5388.1,4928.12 Z " />
<path stroke="none" fill="#000000" transform="matrix(0.0666667 0 0 0.0666667 -250.132 -232.333)" d="M 5194.9,4928.12 L 5192.89,4924.64 L 5194.9,4921.17 L 5388.1,4921.17 L 5390.11,4924.64 L 5388.1,4928.12 L 5194.9,4928.12 Z " />
<path stroke="none" fill="#000000" transform="matrix(0.0666667 0 0 0.0666667 -250.132 -232.333)" d="M 5213.39,4963.62 L 5213.39,4956.67 L 5369.61,4956.67 L 5369.61,4963.62 L 5213.39,4963.62 Z " />
<path stroke="none" fill="#000000" transform="matrix(0.0666667 0 0 0.0666667 -250.132 -232.333)" d="M 5098.3,5095.44 L 5094.28,5095.44 L 5092.05,5092.36 L 5188.88,4924.64 L 5192.89,4924.64 L 5194.9,4928.12 L 5098.3,5095.44 Z " />
<path stroke="none" fill="#000000" transform="matrix(0.0666667 0 0 0.0666667 -250.132 -232.333)" d="M 5194.9,5262.76 L 5192.89,5266.24 L 5188.62,5265.79 L 5092.54,5099.37 L 5094.28,5095.44 L 5098.3,5095.44 L 5194.9,5262.76 Z " />
<path stroke="none" fill="#000000" transform="matrix(0.0666667 0 0 0.0666667 -250.132 -232.333)" d="M 5152.26,5259.91 L 5146.24,5263.39 L 5073.43,5137.26 L 5079.45,5133.79 L 5152.26,5259.91 Z " />
<text x="0" y="0" stroke="none" fill="#000000" transform="matrix(0.0666667 0 0 0.0666667 114.573 132.553)" font-style="normal" font-weight="bold" font-size="154px" font-family="Arial" >
S</text>
<path stroke="none" fill="#000000" transform="matrix(0.0666667 0 0 0.0666667 -250.132 -232.333)" d="M 5475.64,5356.03 L 5470.47,5360.68 L 5388.56,5269.71 L 5390.11,5266.24 L 5394.38,5265.79 L 5475.64,5356.03 Z " />
<path stroke="none" fill="#000000" transform="matrix(0.0666667 0 0 0.0666667 -250.132 -232.333)" d="M 5698.52,5330.43 L 5702.24,5332.58 L 5702.04,5336.48 L 5584.42,5388.84 L 5581.59,5382.49 L 5698.52,5330.43 Z " />
<path stroke="none" fill="#000000" transform="matrix(0.0666667 0 0 0.0666667 -250.132 -232.333)" d="M 5678.43,5139.32 L 5684.82,5133.57 L 5705.51,5330.46 L 5702.24,5332.58 L 5698.52,5330.43 L 5678.43,5139.32 Z " />
<path stroke="none" fill="#000000" transform="matrix(0.0666667 0 0 0.0666667 -250.132 -232.333)" d="M 5645.56,5166.17 L 5652.48,5165.44 L 5667.7,5310.28 L 5660.78,5311 L 5645.56,5166.17 Z " />
<path stroke="none" fill="#000000" transform="matrix(0.0666667 0 0 0.0666667 -250.132 -232.333)" d="M 5490.47,5099.37 L 5488.72,5095.44 L 5490.96,5092.36 L 5684.82,5133.57 L 5678.43,5139.32 L 5490.47,5099.37 Z " />
<text x="0" y="0" stroke="none" fill="#000000" transform="matrix(0.0666667 0 0 0.0666667 83.8302 132.553)" font-style="normal" font-weight="bold" font-size="154px" font-family="Arial" >
S</text>
<path stroke="none" fill="#000000" transform="matrix(0.0666667 0 0 0.0666667 -250.132 -232.333)" d="M 4904.57,5139.32 L 4898.18,5133.57 L 5092.05,5092.36 L 5094.28,5095.44 L 5092.54,5099.37 L 4904.57,5139.32 Z " />
<path stroke="none" fill="#000000" transform="matrix(0.0666667 0 0 0.0666667 -250.132 -232.333)" d="M 4884.48,5330.43 L 4880.76,5332.58 L 4877.49,5330.46 L 4898.18,5133.57 L 4904.57,5139.32 L 4884.48,5330.43 Z " />
<path stroke="none" fill="#000000" transform="matrix(0.0666667 0 0 0.0666667 -250.132 -232.333)" d="M 4922.22,5311 L 4915.3,5310.28 L 4930.53,5165.44 L 4937.44,5166.17 L 4922.22,5311 Z " />
<path stroke="none" fill="#000000" transform="matrix(0.0666667 0 0 0.0666667 -250.132 -232.333)" d="M 4999.65,5381.71 L 4996.82,5388.06 L 4880.96,5336.48 L 4880.76,5332.58 L 4884.48,5330.43 L 4999.65,5381.71 Z " />
<path stroke="none" fill="#000000" transform="matrix(0.0666667 0 0 0.0666667 -250.132 -232.333)" d="M 5188.62,5265.79 L 5192.89,5266.24 L 5194.44,5269.71 L 5111.24,5362.12 L 5106.07,5357.46 L 5188.62,5265.79 Z " />
<text x="0" y="0" stroke="none" fill="#000000" transform="matrix(0.0666667 0 0 0.0666667 112.083 88.6232)" font-style="normal" font-weight="bold" font-size="154px" font-family="Arial" >
N</text>
<text x="0" y="0" stroke="none" fill="#000000" transform="matrix(0.0666667 0 0 0.0666667 85.7873 88.6232)" font-style="normal" font-weight="bold" font-size="154px" font-family="Arial" >
N</text>
<path stroke="none" fill="#000000" transform="matrix(0.0666667 0 0 0.0666667 -250.132 -232.333)" d="M 5440.81,4829.88 L 5446.83,4833.36 L 5394.12,4924.64 L 5390.11,4924.64 L 5388.1,4921.17 L 5440.81,4829.88 Z " />
<path stroke="none" fill="#000000" transform="matrix(0.0666667 0 0 0.0666667 -250.132 -232.333)" d="M 5388.1,4586.53 L 5390.11,4583.05 L 5394.38,4583.5 L 5449.14,4678.34 L 5443.12,4681.82 L 5388.1,4586.53 Z " />
<path stroke="none" fill="#000000" transform="matrix(0.0666667 0 0 0.0666667 -250.132 -232.333)" d="M 5366.6,4620.29 L 5372.63,4616.81 L 5418.4,4696.09 L 5412.37,4699.57 L 5366.6,4620.29 Z " />
<path stroke="none" fill="#000000" transform="matrix(0.0666667 0 0 0.0666667 -250.132 -232.333)" d="M 5194.9,4586.53 L 5192.89,4583.05 L 5194.44,4579.58 L 5388.56,4579.58 L 5390.11,4583.05 L 5388.1,4586.53 L 5194.9,4586.53 Z " />
<path stroke="none" fill="#000000" transform="matrix(0.0666667 0 0 0.0666667 -250.132 -232.333)" d="M 5139.64,4682.25 L 5133.61,4678.77 L 5188.62,4583.5 L 5192.89,4583.05 L 5194.9,4586.53 L 5139.64,4682.25 Z " />
<path stroke="none" fill="#000000" transform="matrix(0.0666667 0 0 0.0666667 -250.132 -232.333)" d="M 5170.38,4700 L 5164.36,4696.52 L 5210.38,4616.81 L 5216.4,4620.29 L 5170.38,4700 Z " />
<path stroke="none" fill="#000000" transform="matrix(0.0666667 0 0 0.0666667 -250.132 -232.333)" d="M 5194.9,4921.17 L 5192.89,4924.64 L 5188.88,4924.64 L 5135.92,4832.92 L 5141.95,4829.45 L 5194.9,4921.17 Z " />
<path stroke="none" fill="#000000" transform="matrix(0.0666667 0 0 0.0666667 -250.132 -232.333)" d="M 5522.97,4440.7 L 5522.07,4436.49 L 5525.32,4434.13 L 5701.82,4512.71 L 5702.66,4520.7 L 5522.97,4440.7 Z " />
<path stroke="none" fill="#000000" transform="matrix(0.0666667 0 0 0.0666667 -250.132 -232.333)" d="M 5394.38,4583.5 L 5390.11,4583.05 L 5388.56,4579.58 L 5518.46,4435.32 L 5522.07,4436.49 L 5522.97,4440.7 L 5394.38,4583.5 Z " />
<path stroke="none" fill="#000000" transform="matrix(0.0666667 0 0 0.0666667 -250.132 -232.333)" d="M 5060.03,4440.7 L 5060.93,4436.49 L 5064.55,4435.32 L 5194.44,4579.58 L 5192.89,4583.05 L 5188.62,4583.5 L 5060.03,4440.7 Z " />
<path stroke="none" fill="#000000" transform="matrix(0.0666667 0 0 0.0666667 -250.132 -232.333)" d="M 4880.34,4520.7 L 4881.18,4512.71 L 5057.68,4434.13 L 5060.93,4436.49 L 5060.03,4440.7 L 4880.34,4520.7 Z " />
<path stroke="none" fill="#000000" transform="matrix(0.0666667 0 0 0.0666667 -250.132 -232.333)" d="M 5858.13,4399.15 L 5865.46,4402.42 L 5702.66,4520.7 L 5701.82,4512.71 L 5858.13,4399.15 Z " />
<path stroke="none" fill="#000000" transform="matrix(0.0666667 0 0 0.0666667 -250.132 -232.333)" d="M 5822.3,4381.3 L 5826.39,4386.93 L 5700,4478.75 L 5695.91,4473.13 L 5822.3,4381.3 Z " />
<path stroke="none" fill="#000000" transform="matrix(0.0666667 0 0 0.0666667 -250.132 -232.333)" d="M 5837.93,4207.01 L 5841.18,4204.65 L 5844.8,4205.82 L 5865.46,4402.42 L 5858.13,4399.15 L 5837.93,4207.01 Z " />
<path stroke="none" fill="#000000" transform="matrix(0.0666667 0 0 0.0666667 -250.132 -232.333)" d="M 5661.43,4128.43 L 5661.01,4124.43 L 5664.73,4122.28 L 5840.29,4200.44 L 5841.18,4204.65 L 5837.93,4207.01 L 5661.43,4128.43 Z " />
<path stroke="none" fill="#000000" transform="matrix(0.0666667 0 0 0.0666667 -250.132 -232.333)" d="M 5663.88,4168.37 L 5666.71,4162.02 L 5809.43,4225.57 L 5806.6,4231.92 L 5663.88,4168.37 Z " />
<path stroke="none" fill="#000000" transform="matrix(0.0666667 0 0 0.0666667 -250.132 -232.333)" d="M 5505.13,4241.99 L 5497.79,4238.72 L 5657.72,4122.53 L 5661.01,4124.43 L 5661.43,4128.43 L 5505.13,4241.99 Z " />
<path stroke="none" fill="#000000" transform="matrix(0.0666667 0 0 0.0666667 -250.132 -232.333)" d="M 5525.32,4434.13 L 5522.07,4436.49 L 5518.46,4435.32 L 5497.79,4238.72 L 5505.13,4241.99 L 5525.32,4434.13 Z " />
<path stroke="none" fill="#000000" transform="matrix(0.0666667 0 0 0.0666667 -250.132 -232.333)" d="M 5558.7,4412.03 L 5551.78,4412.76 L 5535.45,4257.39 L 5542.36,4256.66 L 5558.7,4412.03 Z " />
<path stroke="none" fill="#000000" transform="matrix(0.0666667 0 0 0.0666667 -250.132 -232.333)" d="M 5077.88,4241.99 L 5085.21,4238.72 L 5064.55,4435.32 L 5060.93,4436.49 L 5057.68,4434.13 L 5077.88,4241.99 Z " />
<path stroke="none" fill="#000000" transform="matrix(0.0666667 0 0 0.0666667 -250.132 -232.333)" d="M 5040.64,4256.66 L 5047.55,4257.39 L 5031.22,4412.76 L 5024.31,4412.03 L 5040.64,4256.66 Z " />
<path stroke="none" fill="#000000" transform="matrix(0.0666667 0 0 0.0666667 -250.132 -232.333)" d="M 4921.57,4128.43 L 4921.99,4124.43 L 4925.29,4122.53 L 5085.21,4238.72 L 5077.88,4241.99 L 4921.57,4128.43 Z " />
<path stroke="none" fill="#000000" transform="matrix(0.0666667 0 0 0.0666667 -250.132 -232.333)" d="M 4745.07,4207.01 L 4741.82,4204.65 L 4742.72,4200.44 L 4918.27,4122.28 L 4921.99,4124.43 L 4921.57,4128.43 L 4745.07,4207.01 Z " />
<path stroke="none" fill="#000000" transform="matrix(0.0666667 0 0 0.0666667 -250.132 -232.333)" d="M 4776.4,4231.92 L 4773.57,4225.57 L 4916.29,4162.02 L 4919.12,4168.38 L 4776.4,4231.92 Z " />
<path stroke="none" fill="#000000" transform="matrix(0.0666667 0 0 0.0666667 -250.132 -232.333)" d="M 4724.88,4399.15 L 4717.54,4402.42 L 4738.2,4205.82 L 4741.82,4204.65 L 4745.07,4207.01 L 4724.88,4399.15 Z " />
<path stroke="none" fill="#000000" transform="matrix(0.0666667 0 0 0.0666667 -250.132 -232.333)" d="M 4881.18,4512.71 L 4880.34,4520.7 L 4717.54,4402.42 L 4724.88,4399.15 L 4881.18,4512.71 Z " />
<path stroke="none" fill="#000000" transform="matrix(0.0666667 0 0 0.0666667 -250.132 -232.333)" d="M 4887.09,4473.13 L 4883,4478.75 L 4756.61,4386.93 L 4760.7,4381.3 L 4887.09,4473.13 Z " />
<text x="0" y="0" stroke="none" fill="#000000" transform="matrix(0.0666667 0 0 0.0666667 144.378 42.2391)" font-style="normal" font-weight="bold" font-size="154px" font-family="Arial" >
N</text>
<path stroke="none" fill="#000000" transform="matrix(0.0666667 0 0 0.0666667 -250.132 -232.333)" d="M 5910.25,4122.74 L 5915.42,4127.4 L 5844.8,4205.82 L 5841.18,4204.65 L 5840.29,4200.44 L 5910.25,4122.74 Z " />
<path stroke="none" fill="#000000" transform="matrix(0.0666667 0 0 0.0666667 -250.132 -232.333)" d="M 5872.79,3891.22 L 5874.54,3887.29 L 5878.32,3886.89 L 5933.56,3982.58 L 5927.54,3986.05 L 5872.79,3891.22 Z " />
<path stroke="none" fill="#000000" transform="matrix(0.0666667 0 0 0.0666667 -250.132 -232.333)" d="M 5684.82,3931.17 L 5681.63,3928.29 L 5682.87,3924.48 L 5871.85,3884.31 L 5874.54,3887.29 L 5872.79,3891.22 L 5684.82,3931.17 Z " />
<path stroke="none" fill="#000000" transform="matrix(0.0666667 0 0 0.0666667 -250.132 -232.333)" d="M 5695.02,3892.71 L 5693.57,3885.91 L 5846.38,3853.43 L 5847.83,3860.23 L 5695.02,3892.71 Z " />
<path stroke="none" fill="#000000" transform="matrix(0.0666667 0 0 0.0666667 -250.132 -232.333)" d="M 5664.73,4122.28 L 5661.01,4124.43 L 5657.72,4122.53 L 5678.01,3929.47 L 5681.63,3928.29 L 5684.82,3931.17 L 5664.73,4122.28 Z " />
<path stroke="none" fill="#000000" transform="matrix(0.0666667 0 0 0.0666667 -250.132 -232.333)" d="M 5931.55,3700.56 L 5939.41,3698.89 L 5878.32,3886.89 L 5874.54,3887.29 L 5871.85,3884.31 L 5931.55,3700.56 Z " />
<path stroke="none" fill="#000000" transform="matrix(0.0666667 0 0 0.0666667 -250.132 -232.333)" d="M 5802.27,3556.98 L 5804.76,3549.35 L 5939.41,3698.89 L 5931.55,3700.56 L 5802.27,3556.98 Z " />
<path stroke="none" fill="#000000" transform="matrix(0.0666667 0 0 0.0666667 -250.132 -232.333)" d="M 5788.26,3594.48 L 5793.43,3589.82 L 5897.97,3705.92 L 5892.8,3710.57 L 5788.26,3594.48 Z " />
<path stroke="none" fill="#000000" transform="matrix(0.0666667 0 0 0.0666667 -250.132 -232.333)" d="M 5613.29,3597.15 L 5607.92,3591.18 L 5804.76,3549.35 L 5802.27,3556.98 L 5613.29,3597.15 Z " />
<path stroke="none" fill="#000000" transform="matrix(0.0666667 0 0 0.0666667 -250.132 -232.333)" d="M 5553.59,3780.9 L 5545.74,3782.57 L 5607.92,3591.18 L 5613.29,3597.15 L 5553.59,3780.9 Z " />
<path stroke="none" fill="#000000" transform="matrix(0.0666667 0 0 0.0666667 -250.132 -232.333)" d="M 5593.06,3774.29 L 5586.45,3772.14 L 5634.73,3623.56 L 5641.34,3625.7 L 5593.06,3774.29 Z " />
<path stroke="none" fill="#000000" transform="matrix(0.0666667 0 0 0.0666667 -250.132 -232.333)" d="M 5682.87,3924.48 L 5681.63,3928.29 L 5678.01,3929.47 L 5545.74,3782.57 L 5553.59,3780.9 L 5682.87,3924.48 Z " />
<text x="0" y="0" stroke="none" fill="#000000" transform="matrix(0.0666667 0 0 0.0666667 53.4923 42.2391)" font-style="normal" font-weight="bold" font-size="154px" font-family="Arial" >
N</text>
<path stroke="none" fill="#000000" transform="matrix(0.0666667 0 0 0.0666667 -250.132 -232.333)" d="M 4898.18,3931.17 L 4901.38,3928.29 L 4905,3929.47 L 4925.29,4122.53 L 4921.99,4124.43 L 4918.27,4122.28 L 4898.18,3931.17 Z " />
<path stroke="none" fill="#000000" transform="matrix(0.0666667 0 0 0.0666667 -250.132 -232.333)" d="M 4710.22,3891.22 L 4708.47,3887.29 L 4711.15,3884.31 L 4900.13,3924.48 L 4901.38,3928.29 L 4898.18,3931.17 L 4710.22,3891.22 Z " />
<path stroke="none" fill="#000000" transform="matrix(0.0666667 0 0 0.0666667 -250.132 -232.333)" d="M 4735.17,3860.23 L 4736.62,3853.43 L 4889.43,3885.91 L 4887.99,3892.71 L 4735.17,3860.23 Z " />
<path stroke="none" fill="#000000" transform="matrix(0.0666667 0 0 0.0666667 -250.132 -232.333)" d="M 4655.21,3986.49 L 4649.19,3983.01 L 4704.68,3886.89 L 4708.47,3887.29 L 4710.22,3891.22 L 4655.21,3986.49 Z " />
<path stroke="none" fill="#000000" transform="matrix(0.0666667 0 0 0.0666667 -250.132 -232.333)" d="M 4742.72,4200.44 L 4741.82,4204.65 L 4738.2,4205.82 L 4667.14,4126.9 L 4672.31,4122.25 L 4742.72,4200.44 Z " />
<path stroke="none" fill="#000000" transform="matrix(0.0666667 0 0 0.0666667 -250.132 -232.333)" d="M 5029.41,3780.9 L 5037.27,3782.57 L 4905,3929.47 L 4901.38,3928.29 L 4900.13,3924.48 L 5029.41,3780.9 Z " />
<path stroke="none" fill="#000000" transform="matrix(0.0666667 0 0 0.0666667 -250.132 -232.333)" d="M 4969.71,3597.15 L 4975.08,3591.18 L 5037.27,3782.57 L 5029.41,3780.9 L 4969.71,3597.15 Z " />
<path stroke="none" fill="#000000" transform="matrix(0.0666667 0 0 0.0666667 -250.132 -232.333)" d="M 4941.66,3625.7 L 4948.27,3623.56 L 4996.55,3772.14 L 4989.94,3774.29 L 4941.66,3625.7 Z " />
<path stroke="none" fill="#000000" transform="matrix(0.0666667 0 0 0.0666667 -250.132 -232.333)" d="M 4780.73,3556.98 L 4778.25,3549.35 L 4975.08,3591.18 L 4969.71,3597.15 L 4780.73,3556.98 Z " />
<path stroke="none" fill="#000000" transform="matrix(0.0666667 0 0 0.0666667 -250.132 -232.333)" d="M 4651.45,3700.56 L 4643.6,3698.89 L 4778.25,3549.35 L 4780.73,3556.98 L 4651.45,3700.56 Z " />
<path stroke="none" fill="#000000" transform="matrix(0.0666667 0 0 0.0666667 -250.132 -232.333)" d="M 4690.2,3710.57 L 4685.03,3705.92 L 4789.57,3589.82 L 4794.74,3594.48 L 4690.2,3710.57 Z " />
<path stroke="none" fill="#000000" transform="matrix(0.0666667 0 0 0.0666667 -250.132 -232.333)" d="M 4711.15,3884.31 L 4708.47,3887.29 L 4704.68,3886.89 L 4643.6,3698.89 L 4651.45,3700.56 L 4711.15,3884.31 Z " />
<path stroke="none" fill="#000000" transform="matrix(0.0666667 0 0 0.0666667 -250.132 -232.333)" d="M 6075.53,4155.56 L 6073.64,4163.5 L 6033.63,4123.49 L 6038.55,4118.57 L 6075.53,4155.56 Z " />
<path stroke="none" fill="#000000" transform="matrix(0.0666667 0 0 0.0666667 -250.132 -232.333)" d="M 6213.08,4110.33 L 6215.21,4113.29 L 6214.97,4117.03 L 6073.64,4163.5 L 6075.53,4155.56 L 6213.08,4110.33 Z " />
<text x="0" y="0" stroke="none" fill="#000000" transform="matrix(0.0666667 0 0 0.0666667 167.329 36.6857)" font-style="normal" font-weight="bold" font-size="154px" font-family="Arial" >
C</text>
<text x="0" y="0" stroke="none" fill="#000000" transform="matrix(0.0666667 0 0 0.0666667 174.743 38.8857)" font-style="normal" font-weight="bold" font-size="115.5px" font-family="Arial" >
8</text>
<text x="0" y="0" stroke="none" fill="#000000" transform="matrix(0.0666667 0 0 0.0666667 179.043 36.6857)" font-style="normal" font-weight="bold" font-size="154px" font-family="Arial" >
H</text>
<text x="0" y="0" stroke="none" fill="#000000" transform="matrix(0.0666667 0 0 0.0666667 186.458 38.8857)" font-style="normal" font-weight="bold" font-size="115.5px" font-family="Arial" >
17</text>
<path stroke="none" fill="#000000" transform="matrix(0.0666667 0 0 0.0666667 -250.132 -232.333)" d="M 6269.85,4033.39 L 6275.45,4037.51 L 6220.5,4111.97 L 6215.21,4113.29 L 6213.08,4110.33 L 6269.85,4033.39 Z " />
<text x="0" y="0" stroke="none" fill="#000000" transform="matrix(0.0666667 0 0 0.0666667 171.185 51.0576)" font-style="normal" font-weight="bold" font-size="154px" font-family="Arial" >
C</text>
<text x="0" y="0" stroke="none" fill="#000000" transform="matrix(0.0666667 0 0 0.0666667 178.599 53.2576)" font-style="normal" font-weight="bold" font-size="115.5px" font-family="Arial" >
10</text>
<text x="0" y="0" stroke="none" fill="#000000" transform="matrix(0.0666667 0 0 0.0666667 187.199 51.0576)" font-style="normal" font-weight="bold" font-size="154px" font-family="Arial" >
H</text>
<text x="0" y="0" stroke="none" fill="#000000" transform="matrix(0.0666667 0 0 0.0666667 194.613 53.2576)" font-style="normal" font-weight="bold" font-size="115.5px" font-family="Arial" >
21</text>
<path stroke="none" fill="#000000" transform="matrix(0.0666667 0 0 0.0666667 -250.132 -232.333)" d="M 6315.68,4157.82 L 6312.66,4164.08 L 6214.97,4117.03 L 6215.21,4113.29 L 6220.5,4111.97 L 6315.68,4157.82 Z " />
<path stroke="none" fill="#000000" transform="matrix(0.0666667 0 0 0.0666667 -250.132 -232.333)" d="M 4366.11,4120.68 L 4365.66,4116.87 L 4367.6,4113.85 L 4505.33,4159.14 L 4507.26,4167.09 L 4366.11,4120.68 Z " />
<text x="0" y="0" stroke="none" fill="#000000" transform="matrix(0.0666667 0 0 0.0666667 19.5322 36.6221)" font-style="normal" font-weight="bold" font-size="154px" font-family="Arial" >
C</text>
<text x="0" y="0" stroke="none" fill="#000000" transform="matrix(0.0666667 0 0 0.0666667 26.9465 38.8221)" font-style="normal" font-weight="bold" font-size="115.5px" font-family="Arial" >
8</text>
<text x="0" y="0" stroke="none" fill="#000000" transform="matrix(0.0666667 0 0 0.0666667 31.2465 36.6221)" font-style="normal" font-weight="bold" font-size="154px" font-family="Arial" >
H</text>
<text x="0" y="0" stroke="none" fill="#000000" transform="matrix(0.0666667 0 0 0.0666667 38.6608 38.8221)" font-style="normal" font-weight="bold" font-size="115.5px" font-family="Arial" >
17</text>
<path stroke="none" fill="#000000" transform="matrix(0.0666667 0 0 0.0666667 -250.132 -232.333)" d="M 4310.31,4062.14 L 4315.42,4057.42 L 4367.6,4113.85 L 4365.66,4116.87 L 4360.24,4116.13 L 4310.31,4062.14 Z " />
<text x="0" y="0" stroke="none" fill="#000000" transform="matrix(0.0666667 0 0 0.0666667 2.99584 51.5361)" font-style="normal" font-weight="bold" font-size="154px" font-family="Arial" >
C</text>
<text x="0" y="0" stroke="none" fill="#000000" transform="matrix(0.0666667 0 0 0.0666667 10.4101 53.7361)" font-style="normal" font-weight="bold" font-size="115.5px" font-family="Arial" >
10</text>
<text x="0" y="0" stroke="none" fill="#000000" transform="matrix(0.0666667 0 0 0.0666667 19.0101 51.5361)" font-style="normal" font-weight="bold" font-size="154px" font-family="Arial" >
H</text>
<text x="0" y="0" stroke="none" fill="#000000" transform="matrix(0.0666667 0 0 0.0666667 26.4244 53.7361)" font-style="normal" font-weight="bold" font-size="115.5px" font-family="Arial" >
21</text>
<path stroke="none" fill="#000000" transform="matrix(0.0666667 0 0 0.0666667 -250.132 -232.333)" d="M 4265.14,4182.7 L 4261.5,4176.78 L 4360.24,4116.13 L 4365.66,4116.87 L 4366.11,4120.68 L 4265.14,4182.7 Z " />
<path stroke="none" fill="#000000" transform="matrix(0.0666667 0 0 0.0666667 -250.132 -232.333)" d="M 4507.26,4167.09 L 4505.33,4159.14 L 4544.34,4119.58 L 4549.29,4124.46 L 4507.26,4167.09 Z " />
<path stroke="none" fill="#000000" transform="matrix(0.0666667 0 0 0.0666667 -250.132 -232.333)" d="M 12367.1,5249.4 L 12369.1,5252.88 L 12367.6,5256.36 L 12173.4,5256.36 L 12171.9,5252.88 L 12173.9,5249.4 L 12367.1,5249.4 Z " />
<path stroke="none" fill="#000000" transform="matrix(0.0666667 0 0 0.0666667 -250.132 -232.333)" d="M 12463.7,5082.09 L 12467.7,5082.09 L 12469.5,5086.01 L 12373.4,5252.43 L 12369.1,5252.88 L 12367.1,5249.4 L 12463.7,5082.09 Z " />
<path stroke="none" fill="#000000" transform="matrix(0.0666667 0 0 0.0666667 -250.132 -232.333)" d="M 12482.6,5120.43 L 12488.6,5123.91 L 12415.8,5250.03 L 12409.7,5246.56 L 12482.6,5120.43 Z " />
<path stroke="none" fill="#000000" transform="matrix(0.0666667 0 0 0.0666667 -250.132 -232.333)" d="M 12367.1,4914.77 L 12369.1,4911.29 L 12373.1,4911.29 L 12470,5079.01 L 12467.7,5082.09 L 12463.7,5082.09 L 12367.1,4914.77 Z " />
<path stroke="none" fill="#000000" transform="matrix(0.0666667 0 0 0.0666667 -250.132 -232.333)" d="M 12173.9,4914.77 L 12171.9,4911.29 L 12173.9,4907.81 L 12367.1,4907.81 L 12369.1,4911.29 L 12367.1,4914.77 L 12173.9,4914.77 Z " />
<path stroke="none" fill="#000000" transform="matrix(0.0666667 0 0 0.0666667 -250.132 -232.333)" d="M 12192.4,4950.27 L 12192.4,4943.31 L 12348.6,4943.31 L 12348.6,4950.27 L 12192.4,4950.27 Z " />
<path stroke="none" fill="#000000" transform="matrix(0.0666667 0 0 0.0666667 -250.132 -232.333)" d="M 12077.3,5082.09 L 12073.3,5082.09 L 12071.1,5079.01 L 12167.9,4911.29 L 12171.9,4911.29 L 12173.9,4914.77 L 12077.3,5082.09 Z " />
<path stroke="none" fill="#000000" transform="matrix(0.0666667 0 0 0.0666667 -250.132 -232.333)" d="M 12173.9,5249.4 L 12171.9,5252.88 L 12167.6,5252.43 L 12071.5,5086.01 L 12073.3,5082.09 L 12077.3,5082.09 L 12173.9,5249.4 Z " />
<path stroke="none" fill="#000000" transform="matrix(0.0666667 0 0 0.0666667 -250.132 -232.333)" d="M 12131.3,5246.56 L 12125.3,5250.03 L 12052.4,5123.91 L 12058.5,5120.43 L 12131.3,5246.56 Z " />
<text x="0" y="0" stroke="none" fill="#000000" transform="matrix(0.0666667 0 0 0.0666667 579.841 131.663)" font-style="normal" font-weight="bold" font-size="154px" font-family="Arial" >
S</text>
<path stroke="none" fill="#000000" transform="matrix(0.0666667 0 0 0.0666667 -250.132 -232.333)" d="M 12454.6,5342.67 L 12449.5,5347.33 L 12367.6,5256.36 L 12369.1,5252.88 L 12373.4,5252.43 L 12454.6,5342.67 Z " />
<path stroke="none" fill="#000000" transform="matrix(0.0666667 0 0 0.0666667 -250.132 -232.333)" d="M 12677.5,5317.08 L 12681.3,5319.23 L 12682,5322.71 L 12563.4,5375.49 L 12560.6,5369.14 L 12677.5,5317.08 Z " />
<path stroke="none" fill="#000000" transform="matrix(0.0666667 0 0 0.0666667 -250.132 -232.333)" d="M 12657.4,5125.96 L 12663.8,5120.21 L 12684.4,5315.77 L 12681.3,5319.23 L 12677.5,5317.08 L 12657.4,5125.96 Z " />
<path stroke="none" fill="#000000" transform="matrix(0.0666667 0 0 0.0666667 -250.132 -232.333)" d="M 12624.6,5152.81 L 12631.5,5152.09 L 12646.7,5296.92 L 12639.8,5297.65 L 12624.6,5152.81 Z " />
<path stroke="none" fill="#000000" transform="matrix(0.0666667 0 0 0.0666667 -250.132 -232.333)" d="M 12469.5,5086.01 L 12467.7,5082.09 L 12470,5079.01 L 12663.8,5120.21 L 12657.4,5125.96 L 12469.5,5086.01 Z " />
<text x="0" y="0" stroke="none" fill="#000000" transform="matrix(0.0666667 0 0 0.0666667 549.097 131.663)" font-style="normal" font-weight="bold" font-size="154px" font-family="Arial" >
S</text>
<path stroke="none" fill="#000000" transform="matrix(0.0666667 0 0 0.0666667 -250.132 -232.333)" d="M 11883.6,5125.96 L 11877.2,5120.21 L 12071.1,5079.01 L 12073.3,5082.09 L 12071.5,5086.01 L 11883.6,5125.96 Z " />
<path stroke="none" fill="#000000" transform="matrix(0.0666667 0 0 0.0666667 -250.132 -232.333)" d="M 11863.5,5317.08 L 11859.8,5319.23 L 11856.6,5315.79 L 11877.2,5120.21 L 11883.6,5125.96 L 11863.5,5317.08 Z " />
<path stroke="none" fill="#000000" transform="matrix(0.0666667 0 0 0.0666667 -250.132 -232.333)" d="M 11901.2,5297.65 L 11894.3,5296.92 L 11909.5,5152.09 L 11916.4,5152.81 L 11901.2,5297.65 Z " />
<path stroke="none" fill="#000000" transform="matrix(0.0666667 0 0 0.0666667 -250.132 -232.333)" d="M 11978.7,5368.35 L 11975.8,5374.71 L 11859.1,5322.71 L 11859.8,5319.23 L 11863.5,5317.08 L 11978.7,5368.35 Z " />
<path stroke="none" fill="#000000" transform="matrix(0.0666667 0 0 0.0666667 -250.132 -232.333)" d="M 12167.6,5252.43 L 12171.9,5252.88 L 12173.4,5256.36 L 12090.2,5348.76 L 12085.1,5344.11 L 12167.6,5252.43 Z " />
<text x="0" y="0" stroke="none" fill="#000000" transform="matrix(0.0666667 0 0 0.0666667 577.35 87.7329)" font-style="normal" font-weight="bold" font-size="154px" font-family="Arial" >
N</text>
<text x="0" y="0" stroke="none" fill="#000000" transform="matrix(0.0666667 0 0 0.0666667 551.054 87.7329)" font-style="normal" font-weight="bold" font-size="154px" font-family="Arial" >
N</text>
<path stroke="none" fill="#000000" transform="matrix(0.0666667 0 0 0.0666667 -250.132 -232.333)" d="M 12419.8,4816.53 L 12425.8,4820 L 12373.1,4911.29 L 12369.1,4911.29 L 12367.1,4907.81 L 12419.8,4816.53 Z " />
<path stroke="none" fill="#000000" transform="matrix(0.0666667 0 0 0.0666667 -250.132 -232.333)" d="M 12367.1,4573.17 L 12369.1,4569.7 L 12373.4,4570.15 L 12428.1,4664.98 L 12422.1,4668.46 L 12367.1,4573.17 Z " />
<path stroke="none" fill="#000000" transform="matrix(0.0666667 0 0 0.0666667 -250.132 -232.333)" d="M 12345.6,4606.94 L 12351.6,4603.46 L 12397.4,4682.73 L 12391.4,4686.21 L 12345.6,4606.94 Z " />
<path stroke="none" fill="#000000" transform="matrix(0.0666667 0 0 0.0666667 -250.132 -232.333)" d="M 12173.9,4573.17 L 12171.9,4569.7 L 12173.4,4566.22 L 12367.6,4566.22 L 12369.1,4569.7 L 12367.1,4573.17 L 12173.9,4573.17 Z " />
<path stroke="none" fill="#000000" transform="matrix(0.0666667 0 0 0.0666667 -250.132 -232.333)" d="M 12118.6,4668.89 L 12112.6,4665.42 L 12167.6,4570.15 L 12171.9,4569.7 L 12173.9,4573.17 L 12118.6,4668.89 Z " />
<path stroke="none" fill="#000000" transform="matrix(0.0666667 0 0 0.0666667 -250.132 -232.333)" d="M 12149.4,4686.64 L 12143.4,4683.17 L 12189.4,4603.46 L 12195.4,4606.94 L 12149.4,4686.64 Z " />
<path stroke="none" fill="#000000" transform="matrix(0.0666667 0 0 0.0666667 -250.132 -232.333)" d="M 12173.9,4907.81 L 12171.9,4911.29 L 12167.9,4911.29 L 12114.9,4819.57 L 12121,4816.09 L 12173.9,4907.81 Z " />
<path stroke="none" fill="#000000" transform="matrix(0.0666667 0 0 0.0666667 -250.132 -232.333)" d="M 12502,4427.34 L 12501.1,4423.14 L 12504.3,4420.78 L 12680.8,4499.36 L 12681.7,4507.34 L 12502,4427.34 Z " />
<path stroke="none" fill="#000000" transform="matrix(0.0666667 0 0 0.0666667 -250.132 -232.333)" d="M 12373.4,4570.15 L 12369.1,4569.7 L 12367.6,4566.22 L 12497.5,4421.96 L 12501.1,4423.14 L 12502,4427.34 L 12373.4,4570.15 Z " />
<path stroke="none" fill="#000000" transform="matrix(0.0666667 0 0 0.0666667 -250.132 -232.333)" d="M 12039,4427.34 L 12039.9,4423.14 L 12043.6,4421.96 L 12173.4,4566.22 L 12171.9,4569.7 L 12167.6,4570.15 L 12039,4427.34 Z " />
<path stroke="none" fill="#000000" transform="matrix(0.0666667 0 0 0.0666667 -250.132 -232.333)" d="M 11859.3,4507.34 L 11860.2,4499.36 L 12036.7,4420.78 L 12039.9,4423.14 L 12039,4427.34 L 11859.3,4507.34 Z " />
<path stroke="none" fill="#000000" transform="matrix(0.0666667 0 0 0.0666667 -250.132 -232.333)" d="M 12837.1,4385.8 L 12844.5,4389.06 L 12681.7,4507.34 L 12680.8,4499.36 L 12837.1,4385.8 Z " />
<path stroke="none" fill="#000000" transform="matrix(0.0666667 0 0 0.0666667 -250.132 -232.333)" d="M 12801.3,4367.94 L 12805.4,4373.57 L 12679,4465.4 L 12674.9,4459.77 L 12801.3,4367.94 Z " />
<path stroke="none" fill="#000000" transform="matrix(0.0666667 0 0 0.0666667 -250.132 -232.333)" d="M 12816.9,4193.65 L 12820.2,4191.29 L 12823.8,4192.47 L 12844.5,4389.06 L 12837.1,4385.8 L 12816.9,4193.65 Z " />
<path stroke="none" fill="#000000" transform="matrix(0.0666667 0 0 0.0666667 -250.132 -232.333)" d="M 12640.4,4115.07 L 12640,4111.08 L 12643.7,4108.93 L 12819.3,4187.09 L 12820.2,4191.29 L 12816.9,4193.65 L 12640.4,4115.07 Z " />
<path stroke="none" fill="#000000" transform="matrix(0.0666667 0 0 0.0666667 -250.132 -232.333)" d="M 12642.9,4155.02 L 12645.7,4148.67 L 12788.4,4212.21 L 12785.6,4218.56 L 12642.9,4155.02 Z " />
<path stroke="none" fill="#000000" transform="matrix(0.0666667 0 0 0.0666667 -250.132 -232.333)" d="M 12484.1,4228.63 L 12476.8,4225.37 L 12636.7,4109.17 L 12640,4111.08 L 12640.4,4115.07 L 12484.1,4228.63 Z " />
<path stroke="none" fill="#000000" transform="matrix(0.0666667 0 0 0.0666667 -250.132 -232.333)" d="M 12504.3,4420.78 L 12501.1,4423.14 L 12497.5,4421.96 L 12476.8,4225.37 L 12484.1,4228.63 L 12504.3,4420.78 Z " />
<path stroke="none" fill="#000000" transform="matrix(0.0666667 0 0 0.0666667 -250.132 -232.333)" d="M 12537.7,4398.68 L 12530.8,4399.41 L 12514.5,4244.03 L 12521.4,4243.31 L 12537.7,4398.68 Z " />
<path stroke="none" fill="#000000" transform="matrix(0.0666667 0 0 0.0666667 -250.132 -232.333)" d="M 12056.9,4228.63 L 12064.2,4225.37 L 12043.6,4421.96 L 12039.9,4423.14 L 12036.7,4420.78 L 12056.9,4228.63 Z " />
<path stroke="none" fill="#000000" transform="matrix(0.0666667 0 0 0.0666667 -250.132 -232.333)" d="M 12019.6,4243.31 L 12026.6,4244.03 L 12010.2,4399.41 L 12003.3,4398.68 L 12019.6,4243.31 Z " />
<path stroke="none" fill="#000000" transform="matrix(0.0666667 0 0 0.0666667 -250.132 -232.333)" d="M 11900.6,4115.07 L 11901,4111.08 L 11904.3,4109.17 L 12064.2,4225.37 L 12056.9,4228.63 L 11900.6,4115.07 Z " />
<path stroke="none" fill="#000000" transform="matrix(0.0666667 0 0 0.0666667 -250.132 -232.333)" d="M 11724.1,4193.65 L 11720.8,4191.29 L 11721.7,4187.09 L 11897.3,4108.93 L 11901,4111.08 L 11900.6,4115.07 L 11724.1,4193.65 Z " />
<path stroke="none" fill="#000000" transform="matrix(0.0666667 0 0 0.0666667 -250.132 -232.333)" d="M 11755.4,4218.56 L 11752.6,4212.21 L 11895.3,4148.67 L 11898.1,4155.02 L 11755.4,4218.56 Z " />
<path stroke="none" fill="#000000" transform="matrix(0.0666667 0 0 0.0666667 -250.132 -232.333)" d="M 11703.9,4385.8 L 11696.5,4389.06 L 11717.2,4192.47 L 11720.8,4191.29 L 11724.1,4193.65 L 11703.9,4385.8 Z " />
<path stroke="none" fill="#000000" transform="matrix(0.0666667 0 0 0.0666667 -250.132 -232.333)" d="M 11860.2,4499.36 L 11859.3,4507.34 L 11696.5,4389.06 L 11703.9,4385.8 L 11860.2,4499.36 Z " />
<path stroke="none" fill="#000000" transform="matrix(0.0666667 0 0 0.0666667 -250.132 -232.333)" d="M 11866.1,4459.77 L 11862,4465.4 L 11735.6,4373.57 L 11739.7,4367.94 L 11866.1,4459.77 Z " />
<text x="0" y="0" stroke="none" fill="#000000" transform="matrix(0.0666667 0 0 0.0666667 609.645 41.3487)" font-style="normal" font-weight="bold" font-size="154px" font-family="Arial" >
N</text>
<path stroke="none" fill="#000000" transform="matrix(0.0666667 0 0 0.0666667 -250.132 -232.333)" d="M 12889.3,4109.39 L 12894.4,4114.04 L 12823.8,4192.47 L 12820.2,4191.29 L 12819.3,4187.09 L 12889.3,4109.39 Z " />
<path stroke="none" fill="#000000" transform="matrix(0.0666667 0 0 0.0666667 -250.132 -232.333)" d="M 12851.8,3877.86 L 12853.5,3873.93 L 12857.3,3873.54 L 12912.6,3969.22 L 12906.6,3972.7 L 12851.8,3877.86 Z " />
<path stroke="none" fill="#000000" transform="matrix(0.0666667 0 0 0.0666667 -250.132 -232.333)" d="M 12663.8,3917.81 L 12660.6,3914.94 L 12661.9,3911.12 L 12850.9,3870.95 L 12853.5,3873.93 L 12851.8,3877.86 L 12663.8,3917.81 Z " />
<path stroke="none" fill="#000000" transform="matrix(0.0666667 0 0 0.0666667 -250.132 -232.333)" d="M 12674,3879.35 L 12672.6,3872.55 L 12825.4,3840.07 L 12826.8,3846.87 L 12674,3879.35 Z " />
<path stroke="none" fill="#000000" transform="matrix(0.0666667 0 0 0.0666667 -250.132 -232.333)" d="M 12643.7,4108.93 L 12640,4111.08 L 12636.7,4109.17 L 12657,3916.11 L 12660.6,3914.94 L 12663.8,3917.81 L 12643.7,4108.93 Z " />
<path stroke="none" fill="#000000" transform="matrix(0.0666667 0 0 0.0666667 -250.132 -232.333)" d="M 12910.6,3687.2 L 12918.4,3685.53 L 12857.3,3873.54 L 12853.5,3873.93 L 12850.9,3870.95 L 12910.6,3687.2 Z " />
<path stroke="none" fill="#000000" transform="matrix(0.0666667 0 0 0.0666667 -250.132 -232.333)" d="M 12781.3,3543.63 L 12783.8,3535.99 L 12918.4,3685.53 L 12910.6,3687.2 L 12781.3,3543.63 Z " />
<path stroke="none" fill="#000000" transform="matrix(0.0666667 0 0 0.0666667 -250.132 -232.333)" d="M 12767.3,3581.12 L 12772.4,3576.47 L 12877,3692.57 L 12871.8,3697.22 L 12767.3,3581.12 Z " />
<path stroke="none" fill="#000000" transform="matrix(0.0666667 0 0 0.0666667 -250.132 -232.333)" d="M 12592.3,3583.8 L 12586.9,3577.83 L 12783.8,3535.99 L 12781.3,3543.63 L 12592.3,3583.8 Z " />
<path stroke="none" fill="#000000" transform="matrix(0.0666667 0 0 0.0666667 -250.132 -232.333)" d="M 12532.6,3767.54 L 12524.7,3769.21 L 12586.9,3577.83 L 12592.3,3583.8 L 12532.6,3767.54 Z " />
<path stroke="none" fill="#000000" transform="matrix(0.0666667 0 0 0.0666667 -250.132 -232.333)" d="M 12572.1,3760.93 L 12565.5,3758.78 L 12613.7,3610.2 L 12620.3,3612.35 L 12572.1,3760.93 Z " />
<path stroke="none" fill="#000000" transform="matrix(0.0666667 0 0 0.0666667 -250.132 -232.333)" d="M 12661.9,3911.12 L 12660.6,3914.94 L 12657,3916.11 L 12524.7,3769.21 L 12532.6,3767.54 L 12661.9,3911.12 Z " />
<text x="0" y="0" stroke="none" fill="#000000" transform="matrix(0.0666667 0 0 0.0666667 518.759 41.3487)" font-style="normal" font-weight="bold" font-size="154px" font-family="Arial" >
N</text>
<path stroke="none" fill="#000000" transform="matrix(0.0666667 0 0 0.0666667 -250.132 -232.333)" d="M 11877.2,3917.81 L 11880.4,3914.94 L 11884,3916.11 L 11904.3,4109.17 L 11901,4111.08 L 11897.3,4108.93 L 11877.2,3917.81 Z " />
<path stroke="none" fill="#000000" transform="matrix(0.0666667 0 0 0.0666667 -250.132 -232.333)" d="M 11689.2,3877.86 L 11687.5,3873.93 L 11690.2,3870.95 L 11879.1,3911.12 L 11880.4,3914.94 L 11877.2,3917.81 L 11689.2,3877.86 Z " />
<path stroke="none" fill="#000000" transform="matrix(0.0666667 0 0 0.0666667 -250.132 -232.333)" d="M 11714.2,3846.87 L 11715.6,3840.07 L 11868.4,3872.55 L 11867,3879.35 L 11714.2,3846.87 Z " />
<path stroke="none" fill="#000000" transform="matrix(0.0666667 0 0 0.0666667 -250.132 -232.333)" d="M 11634.2,3973.13 L 11628.2,3969.65 L 11683.7,3873.54 L 11687.5,3873.93 L 11689.2,3877.86 L 11634.2,3973.13 Z " />
<path stroke="none" fill="#000000" transform="matrix(0.0666667 0 0 0.0666667 -250.132 -232.333)" d="M 11721.7,4187.09 L 11720.8,4191.29 L 11717.2,4192.47 L 11646.1,4113.54 L 11651.3,4108.89 L 11721.7,4187.09 Z " />
<path stroke="none" fill="#000000" transform="matrix(0.0666667 0 0 0.0666667 -250.132 -232.333)" d="M 12008.4,3767.54 L 12016.3,3769.21 L 11884,3916.11 L 11880.4,3914.94 L 11879.1,3911.12 L 12008.4,3767.54 Z " />
<path stroke="none" fill="#000000" transform="matrix(0.0666667 0 0 0.0666667 -250.132 -232.333)" d="M 11948.7,3583.8 L 11954.1,3577.83 L 12016.3,3769.21 L 12008.4,3767.54 L 11948.7,3583.8 Z " />
<path stroke="none" fill="#000000" transform="matrix(0.0666667 0 0 0.0666667 -250.132 -232.333)" d="M 11920.7,3612.35 L 11927.3,3610.2 L 11975.6,3758.78 L 11968.9,3760.93 L 11920.7,3612.35 Z " />
<path stroke="none" fill="#000000" transform="matrix(0.0666667 0 0 0.0666667 -250.132 -232.333)" d="M 11759.7,3543.63 L 11757.3,3535.99 L 11954.1,3577.83 L 11948.7,3583.8 L 11759.7,3543.63 Z " />
<path stroke="none" fill="#000000" transform="matrix(0.0666667 0 0 0.0666667 -250.132 -232.333)" d="M 11630.5,3687.2 L 11622.6,3685.53 L 11757.3,3535.99 L 11759.7,3543.63 L 11630.5,3687.2 Z " />
<path stroke="none" fill="#000000" transform="matrix(0.0666667 0 0 0.0666667 -250.132 -232.333)" d="M 11669.2,3697.22 L 11664,3692.57 L 11768.6,3576.47 L 11773.7,3581.12 L 11669.2,3697.22 Z " />
<path stroke="none" fill="#000000" transform="matrix(0.0666667 0 0 0.0666667 -250.132 -232.333)" d="M 11690.2,3870.95 L 11687.5,3873.93 L 11683.7,3873.54 L 11622.6,3685.53 L 11630.5,3687.2 L 11690.2,3870.95 Z " />
<path stroke="none" fill="#000000" transform="matrix(0.0666667 0 0 0.0666667 -250.132 -232.333)" d="M 13054.5,4142.2 L 13052.6,4150.14 L 13012.6,4110.14 L 13017.6,4105.22 L 13054.5,4142.2 Z " />
<path stroke="none" fill="#000000" transform="matrix(0.0666667 0 0 0.0666667 -250.132 -232.333)" d="M 13192.1,4096.97 L 13194.2,4099.93 L 13194,4103.67 L 13052.6,4150.14 L 13054.5,4142.2 L 13192.1,4096.97 Z " />
<text x="0" y="0" stroke="none" fill="#000000" transform="matrix(0.0666667 0 0 0.0666667 632.596 35.7953)" font-style="normal" font-weight="bold" font-size="154px" font-family="Arial" >
C</text>
<text x="0" y="0" stroke="none" fill="#000000" transform="matrix(0.0666667 0 0 0.0666667 640.011 37.9953)" font-style="normal" font-weight="bold" font-size="115.5px" font-family="Arial" >
8</text>
<text x="0" y="0" stroke="none" fill="#000000" transform="matrix(0.0666667 0 0 0.0666667 644.311 35.7953)" font-style="normal" font-weight="bold" font-size="154px" font-family="Arial" >
H</text>
<text x="0" y="0" stroke="none" fill="#000000" transform="matrix(0.0666667 0 0 0.0666667 651.725 37.9953)" font-style="normal" font-weight="bold" font-size="115.5px" font-family="Arial" >
17</text>
<path stroke="none" fill="#000000" transform="matrix(0.0666667 0 0 0.0666667 -250.132 -232.333)" d="M 13248.9,4020.03 L 13254.5,4024.16 L 13199.5,4098.62 L 13194.2,4099.93 L 13192.1,4096.97 L 13248.9,4020.03 Z " />
<text x="0" y="0" stroke="none" fill="#000000" transform="matrix(0.0666667 0 0 0.0666667 636.452 50.1672)" font-style="normal" font-weight="bold" font-size="154px" font-family="Arial" >
C</text>
<text x="0" y="0" stroke="none" fill="#000000" transform="matrix(0.0666667 0 0 0.0666667 643.866 52.3672)" font-style="normal" font-weight="bold" font-size="115.5px" font-family="Arial" >
10</text>
<text x="0" y="0" stroke="none" fill="#000000" transform="matrix(0.0666667 0 0 0.0666667 652.466 50.1672)" font-style="normal" font-weight="bold" font-size="154px" font-family="Arial" >
H</text>
<text x="0" y="0" stroke="none" fill="#000000" transform="matrix(0.0666667 0 0 0.0666667 659.88 52.3672)" font-style="normal" font-weight="bold" font-size="115.5px" font-family="Arial" >
21</text>
<path stroke="none" fill="#000000" transform="matrix(0.0666667 0 0 0.0666667 -250.132 -232.333)" d="M 13294.7,4144.46 L 13291.7,4150.73 L 13194,4103.67 L 13194.2,4099.93 L 13199.5,4098.62 L 13294.7,4144.46 Z " />
<path stroke="none" fill="#000000" transform="matrix(0.0666667 0 0 0.0666667 -250.132 -232.333)" d="M 11345.1,4107.33 L 11344.7,4103.52 L 11346.6,4100.5 L 11484.3,4145.78 L 11486.3,4153.74 L 11345.1,4107.33 Z " />
<text x="0" y="0" stroke="none" fill="#000000" transform="matrix(0.0666667 0 0 0.0666667 484.799 35.7317)" font-style="normal" font-weight="bold" font-size="154px" font-family="Arial" >
C</text>
<text x="0" y="0" stroke="none" fill="#000000" transform="matrix(0.0666667 0 0 0.0666667 492.214 37.9317)" font-style="normal" font-weight="bold" font-size="115.5px" font-family="Arial" >
8</text>
<text x="0" y="0" stroke="none" fill="#000000" transform="matrix(0.0666667 0 0 0.0666667 496.514 35.7317)" font-style="normal" font-weight="bold" font-size="154px" font-family="Arial" >
H</text>
<text x="0" y="0" stroke="none" fill="#000000" transform="matrix(0.0666667 0 0 0.0666667 503.928 37.9317)" font-style="normal" font-weight="bold" font-size="115.5px" font-family="Arial" >
17</text>
<path stroke="none" fill="#000000" transform="matrix(0.0666667 0 0 0.0666667 -250.132 -232.333)" d="M 11289.3,4048.79 L 11294.4,4044.06 L 11346.6,4100.5 L 11344.7,4103.52 L 11339.2,4102.77 L 11289.3,4048.79 Z " />
<text x="0" y="0" stroke="none" fill="#000000" transform="matrix(0.0666667 0 0 0.0666667 468.263 50.6457)" font-style="normal" font-weight="bold" font-size="154px" font-family="Arial" >
C</text>
<text x="0" y="0" stroke="none" fill="#000000" transform="matrix(0.0666667 0 0 0.0666667 475.677 52.8457)" font-style="normal" font-weight="bold" font-size="115.5px" font-family="Arial" >
10</text>
<text x="0" y="0" stroke="none" fill="#000000" transform="matrix(0.0666667 0 0 0.0666667 484.277 50.6457)" font-style="normal" font-weight="bold" font-size="154px" font-family="Arial" >
H</text>
<text x="0" y="0" stroke="none" fill="#000000" transform="matrix(0.0666667 0 0 0.0666667 491.691 52.8457)" font-style="normal" font-weight="bold" font-size="115.5px" font-family="Arial" >
21</text>
<path stroke="none" fill="#000000" transform="matrix(0.0666667 0 0 0.0666667 -250.132 -232.333)" d="M 11244.1,4169.35 L 11240.5,4163.42 L 11339.2,4102.77 L 11344.7,4103.52 L 11345.1,4107.33 L 11244.1,4169.35 Z " />
<path stroke="none" fill="#000000" transform="matrix(0.0666667 0 0 0.0666667 -250.132 -232.333)" d="M 11486.3,4153.74 L 11484.3,4145.78 L 11523.3,4106.23 L 11528.3,4111.11 L 11486.3,4153.74 Z " />
<text x="0" y="0" stroke="none" fill="#000000" transform="matrix(0.0666667 0 0 0.0666667 525.362 126.48)" font-style="normal" font-weight="bold" font-size="154px" font-family="Arial" >
*</text>
<path stroke="none" fill="#000000" transform="matrix(0.0666667 0 0 0.0666667 -250.132 -232.333)" d="M 11707,5324.61 L 11706.9,5317.66 L 11856.6,5315.79 L 11859.8,5319.23 L 11859.1,5322.71 L 11707,5324.61 Z " />
<path stroke="none" fill="#000000" transform="matrix(0.0666667 0 0 0.0666667 -250.132 -232.333)" d="M 6556,5294.49 L 6706.43,5294.49 L 6706.43,5300.49 L 6556,5300.49 Z " />
<path stroke="none" fill="#000000" transform="matrix(0.0666667 0 0 0.0666667 -250.132 -232.333)" d="M 6634.22,5222.27 L 6634.22,5372.7 L 6628.22,5372.7 L 6628.22,5222.27 Z " />
<path stroke="none" fill="#000000" transform="matrix(0.0666667 0 0 0.0666667 -250.132 -232.333)" d="M 10723.7,5282.31 L 9614.11,5282.31 L 9614.11,5275.31 L 10723.7,5275.31 Z " />
<path stroke="none" fill="#000000" transform="matrix(0.0666667 0 0 0.0666667 -250.132 -232.333)" d="M 10859.6,5278.81 C 10859.6,5278.81 10703.1,5318.96 10703.1,5318.96 C 10703.1,5318.96 10722.7,5296.38 10722.7,5278.81 C 10722.7,5260.8 10703.1,5237.66 10703.1,5237.66 C 10703.1,5237.66 10859.6,5278.81 10859.6,5278.81 C 10859.6,5278.81 10859.6,5278.81 10859.6,5278.81 " />
<path stroke="#000000" stroke-width="1" fill="none" transform="matrix(0.0666667 0 0 0.0666667 -250.132 -232.333)" d="M 10859.6,5278.81 C 10859.6,5278.81 10703.1,5318.96 10703.1,5318.96 C 10703.1,5318.96 10722.7,5296.38 10722.7,5278.81 C 10722.7,5260.8 10703.1,5237.66 10703.1,5237.66 C 10703.1,5237.66 10859.6,5278.81 10859.6,5278.81 C 10859.6,5278.81 10859.6,5278.81 10859.6,5278.81 " />
<path stroke="none" fill="#000000" transform="matrix(0.0666667 0 0 0.0666667 -250.132 -232.333)" d="M 8130.18,5088.36 L 8128.17,5091.84 L 8124.39,5092.24 L 8030.69,4929.95 L 8038.72,4929.95 L 8130.18,5088.36 Z " />
<path stroke="none" fill="#000000" transform="matrix(0.0666667 0 0 0.0666667 -250.132 -232.333)" d="M 8313.1,5088.36 L 8315.11,5091.84 L 8312.58,5095.32 L 8130.7,5095.32 L 8128.17,5091.84 L 8130.18,5088.36 L 8313.1,5088.36 Z " />
<path stroke="none" fill="#000000" transform="matrix(0.0666667 0 0 0.0666667 -250.132 -232.333)" d="M 8404.56,4929.95 L 8412.59,4929.95 L 8318.89,5092.24 L 8315.11,5091.84 L 8313.1,5088.36 L 8404.56,4929.95 Z " />
<path stroke="none" fill="#000000" transform="matrix(0.0666667 0 0 0.0666667 -250.132 -232.333)" d="M 8313.1,4771.53 L 8315.11,4768.06 L 8318.89,4767.66 L 8412.59,4929.95 L 8404.56,4929.95 L 8313.1,4771.53 Z " />
<path stroke="none" fill="#000000" transform="matrix(0.0666667 0 0 0.0666667 -250.132 -232.333)" d="M 8130.18,4771.53 L 8128.17,4768.06 L 8130.7,4764.58 L 8312.58,4764.58 L 8315.11,4768.06 L 8313.1,4771.53 L 8130.18,4771.53 Z " />
<path stroke="none" fill="#000000" transform="matrix(0.0666667 0 0 0.0666667 -250.132 -232.333)" d="M 8038.72,4929.95 L 8030.69,4929.95 L 8124.39,4767.66 L 8128.17,4768.06 L 8130.18,4771.53 L 8038.72,4929.95 Z " />
<text x="0" y="0" stroke="none" fill="#000000" transform="matrix(0.0666667 0 0 0.0666667 294.544 130.334)" font-style="normal" font-weight="bold" font-size="154px" font-family="Arial" >
S</text>
<path stroke="none" fill="#000000" transform="matrix(0.0666667 0 0 0.0666667 -250.132 -232.333)" d="M 8074.49,5268.3 L 8070.4,5269.63 L 8067.87,5266.18 L 8124.39,5092.24 L 8128.17,5091.84 L 8130.7,5095.32 L 8074.49,5268.3 Z " />
<path stroke="none" fill="#000000" transform="matrix(0.0666667 0 0 0.0666667 -250.132 -232.333)" d="M 8113.27,5257.85 L 8106.65,5255.7 L 8149.31,5124.41 L 8155.92,5126.56 L 8113.27,5257.85 Z " />
<path stroke="none" fill="#000000" transform="matrix(0.0666667 0 0 0.0666667 -250.132 -232.333)" d="M 8165.87,5334.69 L 8161.78,5340.32 L 8069.29,5273.12 L 8070.4,5269.63 L 8074.49,5268.3 L 8165.87,5334.69 Z " />
<path stroke="none" fill="#000000" transform="matrix(0.0666667 0 0 0.0666667 -250.132 -232.333)" d="M 8368.79,5268.3 L 8372.87,5269.63 L 8373.98,5273.12 L 8279.89,5341.48 L 8275.8,5335.86 L 8368.79,5268.3 Z " />
<path stroke="none" fill="#000000" transform="matrix(0.0666667 0 0 0.0666667 -250.132 -232.333)" d="M 8312.58,5095.32 L 8315.11,5091.84 L 8318.89,5092.24 L 8375.41,5266.19 L 8372.87,5269.63 L 8368.79,5268.3 L 8312.58,5095.32 Z " />
<path stroke="none" fill="#000000" transform="matrix(0.0666667 0 0 0.0666667 -250.132 -232.333)" d="M 8287.35,5126.56 L 8293.97,5124.41 L 8336.62,5255.7 L 8330.01,5257.85 L 8287.35,5126.56 Z " />
<text x="0" y="0" stroke="none" fill="#000000" transform="matrix(0.0666667 0 0 0.0666667 327.063 131.025)" font-style="normal" font-weight="bold" font-size="154px" font-family="Arial" >
S</text>
<path stroke="none" fill="#000000" transform="matrix(0.0666667 0 0 0.0666667 -250.132 -232.333)" d="M 8815.14,5095.15 L 8820.48,5088.19 L 8868.86,5268.76 L 8866.19,5272.24 L 8862.23,5270.87 L 8815.14,5095.15 Z " />
<path stroke="none" fill="#000000" transform="matrix(0.0666667 0 0 0.0666667 -250.132 -232.333)" d="M 8788.63,5126.22 L 8795.35,5124.42 L 8831.16,5258.07 L 8824.44,5259.87 L 8788.63,5126.22 Z " />
<path stroke="none" fill="#000000" transform="matrix(0.0666667 0 0 0.0666667 -250.132 -232.333)" d="M 8633.55,5095.15 L 8628.71,5088.19 L 8820.48,5088.19 L 8815.14,5095.15 L 8633.55,5095.15 Z " />
<path stroke="none" fill="#000000" transform="matrix(0.0666667 0 0 0.0666667 -250.132 -232.333)" d="M 8568.27,5271.11 L 8564.14,5272.24 L 8561.73,5268.73 L 8628.71,5088.19 L 8633.55,5095.15 L 8568.27,5271.11 Z " />
<path stroke="none" fill="#000000" transform="matrix(0.0666667 0 0 0.0666667 -250.132 -232.333)" d="M 8608.56,5262.17 L 8602.04,5259.75 L 8651.98,5125.13 L 8658.5,5127.55 L 8608.56,5262.17 Z " />
<path stroke="none" fill="#000000" transform="matrix(0.0666667 0 0 0.0666667 -250.132 -232.333)" d="M 8655.62,5341.84 L 8651.24,5347.25 L 8562.89,5275.7 L 8564.14,5272.24 L 8568.27,5271.11 L 8655.62,5341.84 Z " />
<path stroke="none" fill="#000000" transform="matrix(0.0666667 0 0 0.0666667 -250.132 -232.333)" d="M 8862.23,5270.87 L 8866.19,5272.24 L 8867.35,5275.71 L 8767.21,5350.86 L 8763.03,5345.3 L 8862.23,5270.87 Z " />
<text x="0" y="0" stroke="none" fill="#000000" transform="matrix(0.0666667 0 0 0.0666667 260.954 131.025)" font-style="normal" font-weight="bold" font-size="154px" font-family="Arial" >
S</text>
<path stroke="none" fill="#000000" transform="matrix(0.0666667 0 0 0.0666667 -250.132 -232.333)" d="M 7823.51,5095.15 L 7828.84,5088.19 L 7877.22,5268.72 L 7874.56,5272.24 L 7870.59,5270.87 L 7823.51,5095.15 Z " />
<path stroke="none" fill="#000000" transform="matrix(0.0666667 0 0 0.0666667 -250.132 -232.333)" d="M 7797,5126.22 L 7803.72,5124.42 L 7839.53,5258.07 L 7832.81,5259.87 L 7797,5126.22 Z " />
<path stroke="none" fill="#000000" transform="matrix(0.0666667 0 0 0.0666667 -250.132 -232.333)" d="M 7641.92,5095.15 L 7637.08,5088.19 L 7828.84,5088.19 L 7823.51,5095.15 L 7641.92,5095.15 Z " />
<path stroke="none" fill="#000000" transform="matrix(0.0666667 0 0 0.0666667 -250.132 -232.333)" d="M 7576.63,5271.11 L 7572.51,5272.24 L 7570.09,5268.76 L 7637.08,5088.19 L 7641.92,5095.15 L 7576.63,5271.11 Z " />
<path stroke="none" fill="#000000" transform="matrix(0.0666667 0 0 0.0666667 -250.132 -232.333)" d="M 7616.92,5262.17 L 7610.41,5259.75 L 7660.35,5125.13 L 7666.87,5127.55 L 7616.92,5262.17 Z " />
<path stroke="none" fill="#000000" transform="matrix(0.0666667 0 0 0.0666667 -250.132 -232.333)" d="M 7663.98,5341.84 L 7659.61,5347.25 L 7571.27,5275.71 L 7572.51,5272.24 L 7576.63,5271.11 L 7663.98,5341.84 Z " />
<path stroke="none" fill="#000000" transform="matrix(0.0666667 0 0 0.0666667 -250.132 -232.333)" d="M 7870.59,5270.87 L 7874.56,5272.24 L 7875.74,5275.7 L 7775.58,5350.86 L 7771.4,5345.3 L 7870.59,5270.87 Z " />
<path stroke="none" fill="#000000" transform="matrix(0.0666667 0 0 0.0666667 -250.132 -232.333)" d="M 8067.87,5266.18 L 8070.4,5269.63 L 8069.29,5273.12 L 7875.74,5275.7 L 7874.56,5272.24 L 7877.22,5268.72 L 8067.87,5266.18 Z " />
<path stroke="none" fill="#000000" transform="matrix(0.0666667 0 0 0.0666667 -250.132 -232.333)" d="M 8561.73,5268.73 L 8564.14,5272.24 L 8562.89,5275.7 L 8373.98,5273.12 L 8372.87,5269.63 L 8375.41,5266.19 L 8561.73,5268.73 Z " />
<text x="0" y="0" stroke="none" fill="#000000" transform="matrix(0.0666667 0 0 0.0666667 349.71 123.182)" font-style="normal" font-weight="bold" font-size="154px" font-family="Arial" >
Br</text>
<path stroke="none" fill="#000000" transform="matrix(0.0666667 0 0 0.0666667 -250.132 -232.333)" d="M 8991.08,5268.76 L 8991.08,5275.71 L 8867.35,5275.71 L 8866.19,5272.24 L 8868.86,5268.76 L 8991.08,5268.76 Z " />
<text x="0" y="0" stroke="none" fill="#000000" transform="matrix(0.0666667 0 0 0.0666667 232.825 123.182)" font-style="normal" font-weight="bold" font-size="154px" font-family="Arial" >
Br</text>
<path stroke="none" fill="#000000" transform="matrix(0.0666667 0 0 0.0666667 -250.132 -232.333)" d="M 7433.9,5275.71 L 7433.9,5268.76 L 7570.09,5268.76 L 7572.51,5272.24 L 7571.27,5275.71 L 7433.9,5275.71 Z " />
<text x="0" y="0" stroke="none" fill="#000000" transform="matrix(0.0666667 0 0 0.0666667 294.544 70.3929)" font-style="normal" font-weight="bold" font-size="154px" font-family="Arial" >
S</text>
<path stroke="none" fill="#000000" transform="matrix(0.0666667 0 0 0.0666667 -250.132 -232.333)" d="M 8368.79,4591.6 L 8372.87,4590.27 L 8375.16,4594.48 L 8318.89,4767.66 L 8315.11,4768.06 L 8312.58,4764.58 L 8368.79,4591.6 Z " />
<path stroke="none" fill="#000000" transform="matrix(0.0666667 0 0 0.0666667 -250.132 -232.333)" d="M 8330.01,4602.05 L 8336.62,4604.2 L 8293.97,4735.48 L 8287.35,4733.33 L 8330.01,4602.05 Z " />
<path stroke="none" fill="#000000" transform="matrix(0.0666667 0 0 0.0666667 -250.132 -232.333)" d="M 8280.46,4527.43 L 8284.55,4521.8 L 8374.4,4587.08 L 8372.87,4590.27 L 8368.79,4591.6 L 8280.46,4527.43 Z " />
<path stroke="none" fill="#000000" transform="matrix(0.0666667 0 0 0.0666667 -250.132 -232.333)" d="M 8074.49,4591.6 L 8070.4,4590.27 L 8068.88,4587.08 L 8158.73,4521.8 L 8162.82,4527.43 L 8074.49,4591.6 Z " />
<path stroke="none" fill="#000000" transform="matrix(0.0666667 0 0 0.0666667 -250.132 -232.333)" d="M 8130.7,4764.58 L 8128.17,4768.06 L 8124.39,4767.66 L 8068.12,4594.48 L 8070.4,4590.27 L 8074.49,4591.6 L 8130.7,4764.58 Z " />
<path stroke="none" fill="#000000" transform="matrix(0.0666667 0 0 0.0666667 -250.132 -232.333)" d="M 8155.92,4733.33 L 8149.31,4735.48 L 8106.65,4604.2 L 8113.27,4602.05 L 8155.92,4733.33 Z " />
<text x="0" y="0" stroke="none" fill="#000000" transform="matrix(0.0666667 0 0 0.0666667 318.902 100.363)" font-style="normal" font-weight="bold" font-size="154px" font-family="Arial" >
O</text>
<path stroke="none" fill="#000000" transform="matrix(0.0666667 0 0 0.0666667 -250.132 -232.333)" d="M 8523.97,4909.65 L 8523.97,4916.6 L 8398.86,4916.6 L 8398.86,4909.65 L 8523.97,4909.65 Z " />
<path stroke="none" fill="#000000" transform="matrix(0.0666667 0 0 0.0666667 -250.132 -232.333)" d="M 8523.97,4943.3 L 8523.97,4950.25 L 8398.86,4950.25 L 8398.86,4943.3 L 8523.97,4943.3 Z " />
<text x="0" y="0" stroke="none" fill="#000000" transform="matrix(0.0666667 0 0 0.0666667 269.053 100.363)" font-style="normal" font-weight="bold" font-size="154px" font-family="Arial" >
O</text>
<path stroke="none" fill="#000000" transform="matrix(0.0666667 0 0 0.0666667 -250.132 -232.333)" d="M 7919.31,4950.25 L 7919.31,4943.3 L 8044.42,4943.3 L 8044.42,4950.25 L 7919.31,4950.25 Z " />
<path stroke="none" fill="#000000" transform="matrix(0.0666667 0 0 0.0666667 -250.132 -232.333)" d="M 7919.31,4916.6 L 7919.31,4909.65 L 8044.42,4909.65 L 8044.42,4916.6 L 7919.31,4916.6 Z " />
<path stroke="none" fill="#000000" transform="matrix(0.0666667 0 0 0.0666667 -250.132 -232.333)" d="M 8552.95,4634.92 L 8553.93,4642.38 L 8375.16,4594.48 L 8372.87,4590.27 L 8374.4,4587.08 L 8552.95,4634.92 Z " />
<path stroke="none" fill="#000000" transform="matrix(0.0666667 0 0 0.0666667 -250.132 -232.333)" d="M 7889.35,4642.38 L 7890.33,4634.92 L 8068.88,4587.08 L 8070.4,4590.27 L 8068.12,4594.48 L 7889.35,4642.38 Z " />
<path stroke="none" fill="#000000" transform="matrix(0.0666667 0 0 0.0666667 -250.132 -232.333)" d="M 8712.35,4542.89 L 8715.33,4545.19 L 8715.82,4548.92 L 8553.93,4642.38 L 8552.95,4634.92 L 8712.35,4542.89 Z " />
<path stroke="none" fill="#000000" transform="matrix(0.0666667 0 0 0.0666667 -250.132 -232.333)" d="M 7727.45,4548.92 L 7727.95,4545.19 L 7730.93,4542.89 L 7890.33,4634.92 L 7889.35,4642.38 L 7727.45,4548.92 Z " />
<text x="0" y="0" stroke="none" fill="#000000" transform="matrix(0.0666667 0 0 0.0666667 329.783 63.3413)" font-style="normal" font-weight="bold" font-size="180px" font-family="Arial" >
C</text>
<text x="0" y="0" stroke="none" fill="#000000" transform="matrix(0.0666667 0 0 0.0666667 338.449 65.9413)" font-style="normal" font-weight="bold" font-size="135px" font-family="Arial" >
2</text>
<text x="0" y="0" stroke="none" fill="#000000" transform="matrix(0.0666667 0 0 0.0666667 343.455 63.3413)" font-style="normal" font-weight="bold" font-size="180px" font-family="Arial" >
H</text>
<text x="0" y="0" stroke="none" fill="#000000" transform="matrix(0.0666667 0 0 0.0666667 352.121 65.9413)" font-style="normal" font-weight="bold" font-size="135px" font-family="Arial" >
5</text>
<path stroke="none" fill="#000000" transform="matrix(0.0666667 0 0 0.0666667 -250.132 -232.333)" d="M 8738,4447.15 L 8744.72,4448.95 L 8719.59,4542.73 L 8715.33,4545.19 L 8712.35,4542.89 L 8738,4447.15 Z " />
<text x="0" y="0" stroke="none" fill="#000000" transform="matrix(0.0666667 0 0 0.0666667 245.495 63.3413)" font-style="normal" font-weight="bold" font-size="180px" font-family="Arial" >
C</text>
<text x="0" y="0" stroke="none" fill="#000000" transform="matrix(0.0666667 0 0 0.0666667 254.162 65.9413)" font-style="normal" font-weight="bold" font-size="135px" font-family="Arial" >
2</text>
<text x="0" y="0" stroke="none" fill="#000000" transform="matrix(0.0666667 0 0 0.0666667 259.167 63.3413)" font-style="normal" font-weight="bold" font-size="180px" font-family="Arial" >
H</text>
<text x="0" y="0" stroke="none" fill="#000000" transform="matrix(0.0666667 0 0 0.0666667 267.834 65.9413)" font-style="normal" font-weight="bold" font-size="135px" font-family="Arial" >
5</text>
<path stroke="none" fill="#000000" transform="matrix(0.0666667 0 0 0.0666667 -250.132 -232.333)" d="M 7697.34,4444.41 L 7704.06,4442.61 L 7730.93,4542.89 L 7727.95,4545.19 L 7723.69,4542.73 L 7697.34,4444.41 Z " />
<text x="0" y="0" stroke="none" fill="#000000" transform="matrix(0.0666667 0 0 0.0666667 338.595 78.6045)" font-style="normal" font-weight="normal" font-size="180px" font-family="Arial" >
C</text>
<text x="0" y="0" stroke="none" fill="#000000" transform="matrix(0.0666667 0 0 0.0666667 347.262 81.2045)" font-style="normal" font-weight="normal" font-size="135px" font-family="Arial" >
4</text>
<text x="0" y="0" stroke="none" fill="#000000" transform="matrix(0.0666667 0 0 0.0666667 352.267 78.6045)" font-style="normal" font-weight="normal" font-size="180px" font-family="Arial" >
H</text>
<text x="0" y="0" stroke="none" fill="#000000" transform="matrix(0.0666667 0 0 0.0666667 360.934 81.2045)" font-style="normal" font-weight="normal" font-size="135px" font-family="Arial" >
9</text>
<path stroke="none" fill="#000000" transform="matrix(0.0666667 0 0 0.0666667 -250.132 -232.333)" d="M 8825.35,4571.07 L 8823.55,4577.78 L 8715.82,4548.92 L 8715.33,4545.19 L 8719.59,4542.73 L 8825.35,4571.07 Z " />
<text x="0" y="0" stroke="none" fill="#000000" transform="matrix(0.0666667 0 0 0.0666667 229.016 78.6045)" font-style="normal" font-weight="bold" font-size="180px" font-family="Arial" >
C</text>
<text x="0" y="0" stroke="none" fill="#000000" transform="matrix(0.0666667 0 0 0.0666667 237.683 81.2045)" font-style="normal" font-weight="bold" font-size="135px" font-family="Arial" >
4</text>
<text x="0" y="0" stroke="none" fill="#000000" transform="matrix(0.0666667 0 0 0.0666667 242.688 78.6045)" font-style="normal" font-weight="bold" font-size="180px" font-family="Arial" >
H</text>
<text x="0" y="0" stroke="none" fill="#000000" transform="matrix(0.0666667 0 0 0.0666667 251.355 81.2045)" font-style="normal" font-weight="bold" font-size="135px" font-family="Arial" >
9</text>
<path stroke="none" fill="#000000" transform="matrix(0.0666667 0 0 0.0666667 -250.132 -232.333)" d="M 7587.57,4586.4 L 7585.77,4579.68 L 7723.69,4542.73 L 7727.95,4545.19 L 7727.45,4548.92 L 7587.57,4586.4 Z " />
<path stroke="none" fill="#000000" transform="matrix(0.0666667 0 0 0.0666667 -250.132 -232.333)" d="M 13432.3,5136.64 L 13430.3,5140.11 L 13426.5,5140.51 L 13332.8,4978.22 L 13340.8,4978.22 L 13432.3,5136.64 Z " />
<path stroke="none" fill="#000000" transform="matrix(0.0666667 0 0 0.0666667 -250.132 -232.333)" d="M 13615.2,5136.64 L 13617.2,5140.11 L 13614.7,5143.59 L 13432.8,5143.59 L 13430.3,5140.11 L 13432.3,5136.64 L 13615.2,5136.64 Z " />
<path stroke="none" fill="#000000" transform="matrix(0.0666667 0 0 0.0666667 -250.132 -232.333)" d="M 13706.7,4978.22 L 13714.7,4978.22 L 13621,5140.51 L 13617.2,5140.11 L 13615.2,5136.64 L 13706.7,4978.22 Z " />
<path stroke="none" fill="#000000" transform="matrix(0.0666667 0 0 0.0666667 -250.132 -232.333)" d="M 13615.2,4819.81 L 13617.2,4816.33 L 13621,4815.93 L 13714.7,4978.22 L 13706.7,4978.22 L 13615.2,4819.81 Z " />
<path stroke="none" fill="#000000" transform="matrix(0.0666667 0 0 0.0666667 -250.132 -232.333)" d="M 13432.3,4819.81 L 13430.3,4816.33 L 13432.8,4812.85 L 13614.7,4812.85 L 13617.2,4816.33 L 13615.2,4819.81 L 13432.3,4819.81 Z " />
<path stroke="none" fill="#000000" transform="matrix(0.0666667 0 0 0.0666667 -250.132 -232.333)" d="M 13340.8,4978.22 L 13332.8,4978.22 L 13426.5,4815.93 L 13430.3,4816.33 L 13432.3,4819.81 L 13340.8,4978.22 Z " />
<text x="0" y="0" stroke="none" fill="#000000" transform="matrix(0.0666667 0 0 0.0666667 648.019 133.552)" font-style="normal" font-weight="bold" font-size="154px" font-family="Arial" >
S</text>
<path stroke="none" fill="#000000" transform="matrix(0.0666667 0 0 0.0666667 -250.132 -232.333)" d="M 13376.6,5316.57 L 13372.5,5317.9 L 13370,5314.46 L 13426.5,5140.51 L 13430.3,5140.11 L 13432.8,5143.59 L 13376.6,5316.57 Z " />
<path stroke="none" fill="#000000" transform="matrix(0.0666667 0 0 0.0666667 -250.132 -232.333)" d="M 13415.4,5306.12 L 13408.8,5303.97 L 13451.4,5172.69 L 13458,5174.84 L 13415.4,5306.12 Z " />
<path stroke="none" fill="#000000" transform="matrix(0.0666667 0 0 0.0666667 -250.132 -232.333)" d="M 13468,5382.96 L 13463.9,5388.59 L 13371.4,5321.39 L 13372.5,5317.9 L 13376.6,5316.57 L 13468,5382.96 Z " />
<path stroke="none" fill="#000000" transform="matrix(0.0666667 0 0 0.0666667 -250.132 -232.333)" d="M 13670.9,5316.57 L 13675,5317.9 L 13676.1,5321.39 L 13582,5389.75 L 13577.9,5384.13 L 13670.9,5316.57 Z " />
<path stroke="none" fill="#000000" transform="matrix(0.0666667 0 0 0.0666667 -250.132 -232.333)" d="M 13614.7,5143.59 L 13617.2,5140.11 L 13621,5140.51 L 13677.5,5314.46 L 13675,5317.9 L 13670.9,5316.57 L 13614.7,5143.59 Z " />
<path stroke="none" fill="#000000" transform="matrix(0.0666667 0 0 0.0666667 -250.132 -232.333)" d="M 13589.5,5174.84 L 13596.1,5172.69 L 13638.7,5303.97 L 13632.1,5306.12 L 13589.5,5174.84 Z " />
<text x="0" y="0" stroke="none" fill="#000000" transform="matrix(0.0666667 0 0 0.0666667 680.537 134.243)" font-style="normal" font-weight="bold" font-size="154px" font-family="Arial" >
S</text>
<path stroke="none" fill="#000000" transform="matrix(0.0666667 0 0 0.0666667 -250.132 -232.333)" d="M 14117.3,5143.42 L 14122.6,5136.47 L 14171,5316.96 L 14168.3,5320.51 L 14164.3,5319.14 L 14117.3,5143.42 Z " />
<path stroke="none" fill="#000000" transform="matrix(0.0666667 0 0 0.0666667 -250.132 -232.333)" d="M 14090.7,5174.49 L 14097.5,5172.69 L 14133.3,5306.35 L 14126.6,5308.15 L 14090.7,5174.49 Z " />
<path stroke="none" fill="#000000" transform="matrix(0.0666667 0 0 0.0666667 -250.132 -232.333)" d="M 13935.7,5143.42 L 13930.8,5136.47 L 14122.6,5136.47 L 14117.3,5143.42 L 13935.7,5143.42 Z " />
<path stroke="none" fill="#000000" transform="matrix(0.0666667 0 0 0.0666667 -250.132 -232.333)" d="M 13870.4,5319.38 L 13866.3,5320.51 L 13863.8,5317 L 13930.8,5136.47 L 13935.7,5143.42 L 13870.4,5319.38 Z " />
<path stroke="none" fill="#000000" transform="matrix(0.0666667 0 0 0.0666667 -250.132 -232.333)" d="M 13910.7,5310.44 L 13904.2,5308.02 L 13954.1,5173.4 L 13960.6,5175.82 L 13910.7,5310.44 Z " />
<path stroke="none" fill="#000000" transform="matrix(0.0666667 0 0 0.0666667 -250.132 -232.333)" d="M 13957.7,5390.11 L 13953.4,5395.52 L 13865,5323.97 L 13866.3,5320.51 L 13870.4,5319.38 L 13957.7,5390.11 Z " />
<path stroke="none" fill="#000000" transform="matrix(0.0666667 0 0 0.0666667 -250.132 -232.333)" d="M 14164.3,5319.14 L 14168.3,5320.51 L 14169.5,5323.96 L 14069.3,5399.13 L 14065.2,5393.57 L 14164.3,5319.14 Z " />
<text x="0" y="0" stroke="none" fill="#000000" transform="matrix(0.0666667 0 0 0.0666667 614.428 134.243)" font-style="normal" font-weight="bold" font-size="154px" font-family="Arial" >
S</text>
<path stroke="none" fill="#000000" transform="matrix(0.0666667 0 0 0.0666667 -250.132 -232.333)" d="M 13125.6,5143.42 L 13131,5136.47 L 13179.3,5317 L 13176.7,5320.51 L 13172.7,5319.14 L 13125.6,5143.42 Z " />
<path stroke="none" fill="#000000" transform="matrix(0.0666667 0 0 0.0666667 -250.132 -232.333)" d="M 13099.1,5174.49 L 13105.8,5172.69 L 13141.6,5306.35 L 13134.9,5308.15 L 13099.1,5174.49 Z " />
<path stroke="none" fill="#000000" transform="matrix(0.0666667 0 0 0.0666667 -250.132 -232.333)" d="M 12944,5143.42 L 12939.2,5136.47 L 13131,5136.47 L 13125.6,5143.42 L 12944,5143.42 Z " />
<path stroke="none" fill="#000000" transform="matrix(0.0666667 0 0 0.0666667 -250.132 -232.333)" d="M 12878.8,5319.38 L 12874.6,5320.51 L 12872.2,5317.02 L 12939.2,5136.47 L 12944,5143.42 L 12878.8,5319.38 Z " />
<path stroke="none" fill="#000000" transform="matrix(0.0666667 0 0 0.0666667 -250.132 -232.333)" d="M 12919,5310.44 L 12912.5,5308.02 L 12962.5,5173.4 L 12969,5175.82 L 12919,5310.44 Z " />
<path stroke="none" fill="#000000" transform="matrix(0.0666667 0 0 0.0666667 -250.132 -232.333)" d="M 12966.1,5390.11 L 12961.7,5395.52 L 12873.4,5323.98 L 12874.6,5320.51 L 12878.8,5319.38 L 12966.1,5390.11 Z " />
<path stroke="none" fill="#000000" transform="matrix(0.0666667 0 0 0.0666667 -250.132 -232.333)" d="M 13172.7,5319.14 L 13176.7,5320.51 L 13177.9,5323.97 L 13077.7,5399.13 L 13073.5,5393.57 L 13172.7,5319.14 Z " />
<path stroke="none" fill="#000000" transform="matrix(0.0666667 0 0 0.0666667 -250.132 -232.333)" d="M 13370,5314.46 L 13372.5,5317.9 L 13371.4,5321.39 L 13177.9,5323.97 L 13176.7,5320.51 L 13179.3,5317 L 13370,5314.46 Z " />
<path stroke="none" fill="#000000" transform="matrix(0.0666667 0 0 0.0666667 -250.132 -232.333)" d="M 13863.8,5317 L 13866.3,5320.51 L 13865,5323.97 L 13676.1,5321.39 L 13675,5317.9 L 13677.5,5314.46 L 13863.8,5317 Z " />
<text x="0" y="0" stroke="none" fill="#000000" transform="matrix(0.0666667 0 0 0.0666667 704.875 126.079)" font-style="normal" font-weight="bold" font-size="154px" font-family="Arial" >
*</text>
<path stroke="none" fill="#000000" transform="matrix(0.0666667 0 0 0.0666667 -250.132 -232.333)" d="M 14309.5,5313.38 L 14309.7,5320.33 L 14169.5,5323.96 L 14168.3,5320.51 L 14171,5316.96 L 14309.5,5313.38 Z " />
<text x="0" y="0" stroke="none" fill="#000000" transform="matrix(0.0666667 0 0 0.0666667 648.019 73.611)" font-style="normal" font-weight="bold" font-size="154px" font-family="Arial" >
S</text>
<path stroke="none" fill="#000000" transform="matrix(0.0666667 0 0 0.0666667 -250.132 -232.333)" d="M 13670.9,4639.87 L 13675,4638.54 L 13677.3,4642.76 L 13621,4815.93 L 13617.2,4816.33 L 13614.7,4812.85 L 13670.9,4639.87 Z " />
<path stroke="none" fill="#000000" transform="matrix(0.0666667 0 0 0.0666667 -250.132 -232.333)" d="M 13632.1,4650.32 L 13638.7,4652.47 L 13596.1,4783.76 L 13589.5,4781.61 L 13632.1,4650.32 Z " />
<path stroke="none" fill="#000000" transform="matrix(0.0666667 0 0 0.0666667 -250.132 -232.333)" d="M 13582.6,4575.7 L 13586.7,4570.07 L 13676.5,4635.35 L 13675,4638.54 L 13670.9,4639.87 L 13582.6,4575.7 Z " />
<path stroke="none" fill="#000000" transform="matrix(0.0666667 0 0 0.0666667 -250.132 -232.333)" d="M 13376.6,4639.87 L 13372.5,4638.54 L 13371,4635.35 L 13460.8,4570.07 L 13464.9,4575.7 L 13376.6,4639.87 Z " />
<path stroke="none" fill="#000000" transform="matrix(0.0666667 0 0 0.0666667 -250.132 -232.333)" d="M 13432.8,4812.85 L 13430.3,4816.33 L 13426.5,4815.93 L 13370.2,4642.76 L 13372.5,4638.54 L 13376.6,4639.87 L 13432.8,4812.85 Z " />
<path stroke="none" fill="#000000" transform="matrix(0.0666667 0 0 0.0666667 -250.132 -232.333)" d="M 13458,4781.61 L 13451.4,4783.76 L 13408.8,4652.47 L 13415.4,4650.32 L 13458,4781.61 Z " />
<text x="0" y="0" stroke="none" fill="#000000" transform="matrix(0.0666667 0 0 0.0666667 672.377 103.581)" font-style="normal" font-weight="bold" font-size="154px" font-family="Arial" >
O</text>
<path stroke="none" fill="#000000" transform="matrix(0.0666667 0 0 0.0666667 -250.132 -232.333)" d="M 13826.1,4957.92 L 13826.1,4964.87 L 13701,4964.87 L 13701,4957.92 L 13826.1,4957.92 Z " />
<path stroke="none" fill="#000000" transform="matrix(0.0666667 0 0 0.0666667 -250.132 -232.333)" d="M 13826.1,4991.57 L 13826.1,4998.52 L 13701,4998.52 L 13701,4991.57 L 13826.1,4991.57 Z " />
<text x="0" y="0" stroke="none" fill="#000000" transform="matrix(0.0666667 0 0 0.0666667 622.527 103.581)" font-style="normal" font-weight="bold" font-size="154px" font-family="Arial" >
O</text>
<path stroke="none" fill="#000000" transform="matrix(0.0666667 0 0 0.0666667 -250.132 -232.333)" d="M 13221.4,4998.52 L 13221.4,4991.57 L 13346.5,4991.57 L 13346.5,4998.52 L 13221.4,4998.52 Z " />
<path stroke="none" fill="#000000" transform="matrix(0.0666667 0 0 0.0666667 -250.132 -232.333)" d="M 13221.4,4964.88 L 13221.4,4957.92 L 13346.5,4957.92 L 13346.5,4964.88 L 13221.4,4964.88 Z " />
<text x="0" y="0" stroke="none" fill="#000000" transform="matrix(0.0666667 0 0 0.0666667 669.872 84.1618)" font-style="normal" font-weight="bold" font-size="154px" font-family="Arial" >
C</text>
<text x="0" y="0" stroke="none" fill="#000000" transform="matrix(0.0666667 0 0 0.0666667 677.286 86.3618)" font-style="normal" font-weight="bold" font-size="115.5px" font-family="Arial" >
8</text>
<text x="0" y="0" stroke="none" fill="#000000" transform="matrix(0.0666667 0 0 0.0666667 681.586 84.1618)" font-style="normal" font-weight="bold" font-size="154px" font-family="Arial" >
H</text>
<text x="0" y="0" stroke="none" fill="#000000" transform="matrix(0.0666667 0 0 0.0666667 689.001 86.3618)" font-style="normal" font-weight="bold" font-size="115.5px" font-family="Arial" >
17</text>
<path stroke="none" fill="#000000" transform="matrix(0.0666667 0 0 0.0666667 -250.132 -232.333)" d="M 13791.8,4666.24 L 13790,4672.96 L 13677.3,4642.76 L 13675,4638.54 L 13676.5,4635.35 L 13791.8,4666.24 Z " />
<text x="0" y="0" stroke="none" fill="#000000" transform="matrix(0.0666667 0 0 0.0666667 604.47 84.1618)" font-style="normal" font-weight="bold" font-size="154px" font-family="Arial" >
C</text>
<text x="0" y="0" stroke="none" fill="#000000" transform="matrix(0.0666667 0 0 0.0666667 611.884 86.3618)" font-style="normal" font-weight="bold" font-size="115.5px" font-family="Arial" >
8</text>
<text x="0" y="0" stroke="none" fill="#000000" transform="matrix(0.0666667 0 0 0.0666667 616.184 84.1618)" font-style="normal" font-weight="bold" font-size="154px" font-family="Arial" >
H</text>
<text x="0" y="0" stroke="none" fill="#000000" transform="matrix(0.0666667 0 0 0.0666667 623.599 86.3618)" font-style="normal" font-weight="bold" font-size="115.5px" font-family="Arial" >
17</text>
<path stroke="none" fill="#000000" transform="matrix(0.0666667 0 0 0.0666667 -250.132 -232.333)" d="M 13242.9,4676.88 L 13241.1,4670.16 L 13371,4635.35 L 13372.5,4638.54 L 13370.2,4642.76 L 13242.9,4676.88 Z " />
<path stroke="none" fill="#000000" transform="matrix(0.0666667 0 0 0.0666667 -250.132 -232.333)" d="M 12872.2,5317.02 L 12874.6,5320.51 L 12873.4,5323.98 L 12682,5322.71 L 12681.3,5319.23 L 12684.4,5315.77 L 12872.2,5317.02 Z " />
<path stroke="#000000" stroke-width="7" fill="none" transform="matrix(0.0666667 0 0 0.0666667 -250.132 -232.333)" d="M 14230.4,5115.75 L 14256.1,5115.75 " />
<path stroke="#000000" stroke-width="7" fill="none" transform="matrix(0.0666667 0 0 0.0666667 -250.132 -232.333)" d="M 14256.1,5115.75 L 14256.1,5463.18 " />
<path stroke="#000000" stroke-width="7" fill="none" transform="matrix(0.0666667 0 0 0.0666667 -250.132 -232.333)" d="M 14256.1,5463.18 L 14230.4,5463.18 " />
<path stroke="#000000" stroke-width="7" fill="none" transform="matrix(0.0666667 0 0 0.0666667 -250.132 -232.333)" d="M 11770.1,5463.18 L 11744.4,5463.18 " />
<path stroke="#000000" stroke-width="7" fill="none" transform="matrix(0.0666667 0 0 0.0666667 -250.132 -232.333)" d="M 11744.4,5463.18 L 11744.4,5115.75 " />
<path stroke="#000000" stroke-width="7" fill="none" transform="matrix(0.0666667 0 0 0.0666667 -250.132 -232.333)" d="M 11744.4,5115.75 L 11770.1,5115.75 " />
<text x="0" y="0" stroke="none" fill="#000000" transform="matrix(0.0666667 0 0 0.0666667 702.724 132.696)" font-style="normal" font-weight="bold" font-size="115.5px" font-family="Arial" >
n</text>
<text x="0" y="0" stroke="none" fill="#000000" transform="matrix(0.0666667 0 0 0.0666667 584.076 162.341)" font-style="normal" font-weight="bold" font-size="205px" font-family="Arial" >
 </text>
<text x="0" y="0" stroke="none" fill="#000000" transform="matrix(0.0666667 0 0 0.0666667 587.876 162.341)" font-style="normal" font-weight="bold" font-size="205px" font-family="Arial" >
P</text>
<text x="0" y="0" stroke="none" fill="#000000" transform="matrix(0.0666667 0 0 0.0666667 597.009 162.341)" font-style="normal" font-weight="bold" font-size="205px" font-family="Arial" >
1</text>
<text x="0" y="0" stroke="none" fill="#000000" transform="matrix(0.0666667 0 0 0.0666667 95.2266 156.938)" font-style="normal" font-weight="bold" font-size="205px" font-family="Arial" >
M</text>
<text x="0" y="0" stroke="none" fill="#000000" transform="matrix(0.0666667 0 0 0.0666667 106.627 159.871)" font-style="normal" font-weight="bold" font-size="153.75px" font-family="Arial" >
1</text>
<text x="0" y="0" stroke="none" fill="#000000" transform="matrix(0.0666667 0 0 0.0666667 61.9164 132.769)" font-style="normal" font-weight="bold" font-size="154px" font-family="Arial" >
H</text>
<path stroke="none" fill="#000000" transform="matrix(0.0666667 0 0 0.0666667 -250.132 -232.333)" d="M 4808.22,5378.48 L 4804.75,5372.45 L 4877.49,5330.46 L 4880.76,5332.58 L 4880.96,5336.48 L 4808.22,5378.48 Z " />
<text x="0" y="0" stroke="none" fill="#000000" transform="matrix(0.0666667 0 0 0.0666667 135.954 132.769)" font-style="normal" font-weight="bold" font-size="154px" font-family="Arial" >
H</text>
<path stroke="none" fill="#000000" transform="matrix(0.0666667 0 0 0.0666667 -250.132 -232.333)" d="M 5778.26,5372.45 L 5774.78,5378.48 L 5702.04,5336.48 L 5702.24,5332.58 L 5705.51,5330.46 L 5778.26,5372.45 Z " />
<text x="0" y="0" stroke="none" fill="#000000" transform="matrix(0.0666667 0 0 0.0666667 287.6 158.977)" font-style="normal" font-weight="bold" font-size="205px" font-family="Arial" >
M2</text>
<text x="0" y="0" stroke="none" fill="#000000" transform="matrix(0.0666667 0 0 0.0666667 407.209 96.6329)" font-style="normal" font-weight="normal" font-size="160px" font-family="Arial" >
Pd</text>
<text x="0" y="0" stroke="none" fill="#000000" transform="matrix(0.0666667 0 0 0.0666667 420.275 98.8995)" font-style="normal" font-weight="normal" font-size="120px" font-family="Arial" >
2</text>
<text x="0" y="0" stroke="none" fill="#000000" transform="matrix(0.0666667 0 0 0.0666667 424.742 96.6329)" font-style="normal" font-weight="normal" font-size="160px" font-family="Arial" >
(dba)</text>
<text x="0" y="0" stroke="none" fill="#000000" transform="matrix(0.0666667 0 0 0.0666667 449.646 98.8995)" font-style="normal" font-weight="normal" font-size="120px" font-family="Arial" >
3</text>
<text x="0" y="0" stroke="none" fill="#000000" transform="matrix(0.0666667 0 0 0.0666667 397.649 110.633)" font-style="normal" font-weight="normal" font-size="160px" font-family="Arial" >
K</text>
<text x="0" y="0" stroke="none" fill="#000000" transform="matrix(0.0666667 0 0 0.0666667 404.782 112.9)" font-style="normal" font-weight="normal" font-size="120px" font-family="Arial" >
2</text>
<text x="0" y="0" stroke="none" fill="#000000" transform="matrix(0.0666667 0 0 0.0666667 409.249 110.633)" font-style="normal" font-weight="normal" font-size="160px" font-family="Arial" >
CO</text>
<text x="0" y="0" stroke="none" fill="#000000" transform="matrix(0.0666667 0 0 0.0666667 425.279 112.9)" font-style="normal" font-weight="normal" font-size="120px" font-family="Arial" >
3</text>
<text x="0" y="0" stroke="none" fill="#000000" transform="matrix(0.0666667 0 0 0.0666667 429.746 110.633)" font-style="normal" font-weight="normal" font-size="160px" font-family="Arial" >
/PivOH</text>
<text x="0" y="0" stroke="none" fill="#000000" transform="matrix(0.0666667 0 0 0.0666667 412.091 132.453)" font-style="normal" font-weight="normal" font-size="160px" font-family="Arial" >
toluene</text>
<text x="0" y="0" stroke="none" fill="#000000" transform="matrix(0.0666667 0 0 0.0666667 399.779 143.787)" font-style="normal" font-weight="normal" font-size="160px" font-family="Arial" >
100 </text>
<text x="0" y="0" stroke="none" fill="#000000" transform="matrix(0.0666667 0 0 0.0666667 420.543 139.587)" font-style="normal" font-weight="normal" font-size="120px" font-family="Arial" >
o</text>
<text x="0" y="0" stroke="none" fill="#000000" transform="matrix(0.0666667 0 0 0.0666667 425.01 143.787)" font-style="normal" font-weight="normal" font-size="160px" font-family="Arial" >
C, </text>
<text x="0" y="0" stroke="none" fill="#000000" transform="matrix(0.0666667 0 0 0.0666667 438.67 143.787)" font-style="normal" font-weight="normal" font-size="160px" font-family="Arial" >
20 </text>
<text x="0" y="0" stroke="none" fill="#000000" transform="matrix(0.0666667 0 0 0.0666667 453.5 143.787)" font-style="normal" font-weight="normal" font-size="160px" font-family="Arial" >
h</text>
</svg>
