<?xml version="1.0" standalone="no" ?>
<!DOCTYPE svg PUBLIC "-//W3C//DTD SVG 1.1//EN" "http://www.w3.org/Graphics/SVG/1.1/DTD/svg11.dtd">
<svg width="368px" height="204px" viewBox="0 0 368 204" style="background-color: #ffffff00" xmlns="http://www.w3.org/2000/svg" xmlns:xlink="http://www.w3.org/1999/xlink" version="1.1" >
<path stroke="none" fill="#800040" transform="matrix(0.0666667 0 0 0.0666667 -41.5336 -43)" d="M 3062.45,3264.23 L 3065.47,3269.46 L 3063.14,3274.68 L 2771.38,3274.68 L 2769.05,3269.46 L 2772.07,3264.23 L 3062.45,3264.23 Z " />
<path stroke="none" fill="#800040" transform="matrix(0.0666667 0 0 0.0666667 -41.5336 -43)" d="M 3207.65,3012.75 L 3213.68,3012.75 L 3216.31,3018.65 L 3071.9,3268.78 L 3065.47,3269.46 L 3062.45,3264.23 L 3207.65,3012.75 Z " />
<path stroke="none" fill="#800040" transform="matrix(0.0666667 0 0 0.0666667 -41.5336 -43)" d="M 3235.98,3070.39 L 3245.03,3075.61 L 3135.59,3265.18 L 3126.54,3259.95 L 3235.98,3070.39 Z " />
<path stroke="none" fill="#800040" transform="matrix(0.0666667 0 0 0.0666667 -41.5336 -43)" d="M 3062.45,2761.27 L 3065.47,2756.04 L 3071.51,2756.04 L 3217.04,3008.12 L 3213.68,3012.75 L 3207.65,3012.75 L 3062.45,2761.27 Z " />
<path stroke="none" fill="#800040" transform="matrix(0.0666667 0 0 0.0666667 -41.5336 -43)" d="M 2772.07,2761.27 L 2769.05,2756.04 L 2772.07,2750.82 L 3062.45,2750.82 L 3065.47,2756.04 L 3062.45,2761.27 L 2772.07,2761.27 Z " />
<path stroke="none" fill="#800040" transform="matrix(0.0666667 0 0 0.0666667 -41.5336 -43)" d="M 2799.86,2814.63 L 2799.86,2804.17 L 3034.67,2804.17 L 3034.67,2814.63 L 2799.86,2814.63 Z " />
<path stroke="none" fill="#800040" transform="matrix(0.0666667 0 0 0.0666667 -41.5336 -43)" d="M 2626.88,3012.75 L 2620.84,3012.75 L 2617.48,3008.12 L 2763.02,2756.04 L 2769.05,2756.04 L 2772.07,2761.27 L 2626.88,3012.75 Z " />
<path stroke="none" fill="#800040" transform="matrix(0.0666667 0 0 0.0666667 -41.5336 -43)" d="M 2772.07,3264.23 L 2769.05,3269.46 L 2762.63,3268.78 L 2618.22,3018.65 L 2620.84,3012.75 L 2626.88,3012.75 L 2772.07,3264.23 Z " />
<path stroke="none" fill="#800040" transform="matrix(0.0666667 0 0 0.0666667 -41.5336 -43)" d="M 2707.99,3259.95 L 2698.94,3265.18 L 2589.49,3075.61 L 2598.54,3070.39 L 2707.99,3259.95 Z " />
<text x="0" y="0" stroke="none" fill="#800040" transform="matrix(0.0666667 0 0 0.0666667 170.921 195.716)" font-style="normal" font-weight="bold" font-size="231px" font-family="Arial" >
S</text>
<path stroke="none" fill="#800040" transform="matrix(0.0666667 0 0 0.0666667 -41.5336 -43)" d="M 3193.78,3404.14 L 3186.01,3411.14 L 3063.14,3274.68 L 3065.47,3269.46 L 3071.9,3268.78 L 3193.78,3404.14 Z " />
<path stroke="none" fill="#800040" transform="matrix(0.0666667 0 0 0.0666667 -41.5336 -43)" d="M 3529.01,3365.94 L 3534.61,3369.17 L 3535.7,3374.41 L 3357.86,3453.59 L 3353.61,3444.04 L 3529.01,3365.94 Z " />
<path stroke="none" fill="#800040" transform="matrix(0.0666667 0 0 0.0666667 -41.5336 -43)" d="M 3498.82,3078.7 L 3508.42,3070.06 L 3539.31,3363.98 L 3534.61,3369.17 L 3529.01,3365.94 L 3498.82,3078.7 Z " />
<path stroke="none" fill="#800040" transform="matrix(0.0666667 0 0 0.0666667 -41.5336 -43)" d="M 3449.41,3119.06 L 3459.81,3117.96 L 3482.69,3335.65 L 3472.29,3336.75 L 3449.41,3119.06 Z " />
<path stroke="none" fill="#800040" transform="matrix(0.0666667 0 0 0.0666667 -41.5336 -43)" d="M 3216.31,3018.65 L 3213.68,3012.75 L 3217.04,3008.12 L 3508.42,3070.06 L 3498.82,3078.7 L 3216.31,3018.65 Z " />
<text x="0" y="0" stroke="none" fill="#800040" transform="matrix(0.0666667 0 0 0.0666667 124.714 195.716)" font-style="normal" font-weight="bold" font-size="231px" font-family="Arial" >
S</text>
<path stroke="none" fill="#800040" transform="matrix(0.0666667 0 0 0.0666667 -41.5336 -43)" d="M 2335.7,3078.7 L 2326.1,3070.06 L 2617.48,3008.12 L 2620.84,3012.75 L 2618.22,3018.65 L 2335.7,3078.7 Z " />
<path stroke="none" fill="#800040" transform="matrix(0.0666667 0 0 0.0666667 -41.5336 -43)" d="M 2305.51,3365.94 L 2299.92,3369.17 L 2295.21,3364.01 L 2326.1,3070.06 L 2335.7,3078.7 L 2305.51,3365.94 Z " />
<path stroke="none" fill="#800040" transform="matrix(0.0666667 0 0 0.0666667 -41.5336 -43)" d="M 2362.23,3336.75 L 2351.84,3335.65 L 2374.72,3117.96 L 2385.11,3119.06 L 2362.23,3336.75 Z " />
<path stroke="none" fill="#800040" transform="matrix(0.0666667 0 0 0.0666667 -41.5336 -43)" d="M 2478.5,3442.97 L 2474.25,3452.51 L 2298.84,3374.41 L 2299.92,3369.17 L 2305.51,3365.94 L 2478.5,3442.97 Z " />
<path stroke="none" fill="#800040" transform="matrix(0.0666667 0 0 0.0666667 -41.5336 -43)" d="M 2762.63,3268.78 L 2769.05,3269.46 L 2771.38,3274.68 L 2647.12,3412.68 L 2639.35,3405.69 L 2762.63,3268.78 Z " />
<text x="0" y="0" stroke="none" fill="#800040" transform="matrix(0.0666667 0 0 0.0666667 167.145 129.689)" font-style="normal" font-weight="bold" font-size="231px" font-family="Arial" >
N</text>
<text x="0" y="0" stroke="none" fill="#800040" transform="matrix(0.0666667 0 0 0.0666667 127.623 129.689)" font-style="normal" font-weight="bold" font-size="231px" font-family="Arial" >
N</text>
<path stroke="none" fill="#800040" transform="matrix(0.0666667 0 0 0.0666667 -41.5336 -43)" d="M 3141.82,2613.35 L 3150.87,2618.58 L 3071.51,2756.04 L 3065.47,2756.04 L 3062.45,2750.82 L 3141.82,2613.35 Z " />
<path stroke="none" fill="#800040" transform="matrix(0.0666667 0 0 0.0666667 -41.5336 -43)" d="M 3062.45,2247.86 L 3065.47,2242.63 L 3071.9,2243.31 L 3153.9,2385.35 L 3144.85,2390.58 L 3062.45,2247.86 Z " />
<path stroke="none" fill="#800040" transform="matrix(0.0666667 0 0 0.0666667 -41.5336 -43)" d="M 3030.14,2298.6 L 3039.19,2293.38 L 3107.7,2412.03 L 3098.65,2417.25 L 3030.14,2298.6 Z " />
<path stroke="none" fill="#800040" transform="matrix(0.0666667 0 0 0.0666667 -41.5336 -43)" d="M 2772.07,2247.86 L 2769.05,2242.63 L 2771.38,2237.41 L 3063.14,2237.41 L 3065.47,2242.63 L 3062.45,2247.86 L 2772.07,2247.86 Z " />
<path stroke="none" fill="#800040" transform="matrix(0.0666667 0 0 0.0666667 -41.5336 -43)" d="M 2689.42,2391.01 L 2680.37,2385.78 L 2762.63,2243.31 L 2769.05,2242.63 L 2772.07,2247.86 L 2689.42,2391.01 Z " />
<path stroke="none" fill="#800040" transform="matrix(0.0666667 0 0 0.0666667 -41.5336 -43)" d="M 2735.63,2417.69 L 2726.58,2412.46 L 2795.33,2293.38 L 2804.38,2298.6 L 2735.63,2417.69 Z " />
<path stroke="none" fill="#800040" transform="matrix(0.0666667 0 0 0.0666667 -41.5336 -43)" d="M 2772.07,2750.82 L 2769.05,2756.04 L 2763.02,2756.04 L 2683.4,2618.14 L 2692.45,2612.92 L 2772.07,2750.82 Z " />
<path stroke="none" fill="#800040" transform="matrix(0.0666667 0 0 0.0666667 -41.5336 -43)" d="M 3265.16,2028.67 L 3263.81,2022.35 L 3268.7,2018.8 L 3533.98,2136.91 L 3535.24,2148.92 L 3265.16,2028.67 Z " />
<path stroke="none" fill="#800040" transform="matrix(0.0666667 0 0 0.0666667 -41.5336 -43)" d="M 3071.9,2243.31 L 3065.47,2242.63 L 3063.14,2237.41 L 3258.37,2020.58 L 3263.81,2022.35 L 3265.16,2028.67 L 3071.9,2243.31 Z " />
<path stroke="none" fill="#800040" transform="matrix(0.0666667 0 0 0.0666667 -41.5336 -43)" d="M 2569.37,2028.67 L 2570.71,2022.35 L 2576.15,2020.58 L 2771.38,2237.41 L 2769.05,2242.63 L 2762.63,2243.31 L 2569.37,2028.67 Z " />
<path stroke="none" fill="#800040" transform="matrix(0.0666667 0 0 0.0666667 -41.5336 -43)" d="M 2299.29,2148.92 L 2300.55,2136.91 L 2565.83,2018.8 L 2570.71,2022.35 L 2569.37,2028.67 L 2299.29,2148.92 Z " />
<path stroke="none" fill="#800040" transform="matrix(0.0666667 0 0 0.0666667 -41.5336 -43)" d="M 3768.9,1966.23 L 3779.93,1971.14 L 3535.24,2148.92 L 3533.98,2136.91 L 3768.9,1966.23 Z " />
<path stroke="none" fill="#800040" transform="matrix(0.0666667 0 0 0.0666667 -41.5336 -43)" d="M 3715.06,1939.4 L 3721.2,1947.85 L 3531.24,2085.87 L 3525.09,2077.42 L 3715.06,1939.4 Z " />
<path stroke="none" fill="#800040" transform="matrix(0.0666667 0 0 0.0666667 -41.5336 -43)" d="M 3738.55,1677.44 L 3743.43,1673.89 L 3748.87,1675.66 L 3779.93,1971.14 L 3768.9,1966.23 L 3738.55,1677.44 Z " />
<path stroke="none" fill="#800040" transform="matrix(0.0666667 0 0 0.0666667 -41.5336 -43)" d="M 3473.27,1559.33 L 3472.64,1553.32 L 3478.23,1550.09 L 3742.09,1667.57 L 3743.43,1673.89 L 3738.55,1677.44 L 3473.27,1559.33 Z " />
<path stroke="none" fill="#800040" transform="matrix(0.0666667 0 0 0.0666667 -41.5336 -43)" d="M 3476.95,1619.37 L 3481.2,1609.82 L 3695.71,1705.33 L 3691.46,1714.88 L 3476.95,1619.37 Z " />
<path stroke="none" fill="#800040" transform="matrix(0.0666667 0 0 0.0666667 -41.5336 -43)" d="M 3238.34,1730.01 L 3227.32,1725.1 L 3467.68,1550.46 L 3472.64,1553.32 L 3473.27,1559.33 L 3238.34,1730.01 Z " />
<path stroke="none" fill="#800040" transform="matrix(0.0666667 0 0 0.0666667 -41.5336 -43)" d="M 3268.7,2018.8 L 3263.81,2022.35 L 3258.37,2020.58 L 3227.32,1725.1 L 3238.34,1730.01 L 3268.7,2018.8 Z " />
<path stroke="none" fill="#800040" transform="matrix(0.0666667 0 0 0.0666667 -41.5336 -43)" d="M 3318.85,1985.59 L 3308.46,1986.68 L 3283.92,1753.16 L 3294.31,1752.07 L 3318.85,1985.59 Z " />
<path stroke="none" fill="#800040" transform="matrix(0.0666667 0 0 0.0666667 -41.5336 -43)" d="M 2596.18,1730.01 L 2607.21,1725.1 L 2576.15,2020.58 L 2570.71,2022.35 L 2565.83,2018.8 L 2596.18,1730.01 Z " />
<path stroke="none" fill="#800040" transform="matrix(0.0666667 0 0 0.0666667 -41.5336 -43)" d="M 2540.21,1752.07 L 2550.61,1753.16 L 2526.06,1986.68 L 2515.67,1985.59 L 2540.21,1752.07 Z " />
<path stroke="none" fill="#800040" transform="matrix(0.0666667 0 0 0.0666667 -41.5336 -43)" d="M 2361.26,1559.33 L 2361.89,1553.32 L 2366.84,1550.46 L 2607.21,1725.1 L 2596.18,1730.01 L 2361.26,1559.33 Z " />
<path stroke="none" fill="#800040" transform="matrix(0.0666667 0 0 0.0666667 -41.5336 -43)" d="M 2095.98,1677.44 L 2091.09,1673.89 L 2092.44,1667.57 L 2356.29,1550.09 L 2361.89,1553.32 L 2361.26,1559.33 L 2095.98,1677.44 Z " />
<path stroke="none" fill="#800040" transform="matrix(0.0666667 0 0 0.0666667 -41.5336 -43)" d="M 2143.06,1714.88 L 2138.81,1705.33 L 2353.32,1609.82 L 2357.57,1619.37 L 2143.06,1714.88 Z " />
<path stroke="none" fill="#800040" transform="matrix(0.0666667 0 0 0.0666667 -41.5336 -43)" d="M 2065.62,1966.23 L 2054.6,1971.14 L 2085.65,1675.66 L 2091.09,1673.89 L 2095.98,1677.44 L 2065.62,1966.23 Z " />
<path stroke="none" fill="#800040" transform="matrix(0.0666667 0 0 0.0666667 -41.5336 -43)" d="M 2300.55,2136.91 L 2299.29,2148.92 L 2054.6,1971.14 L 2065.62,1966.23 L 2300.55,2136.91 Z " />
<path stroke="none" fill="#800040" transform="matrix(0.0666667 0 0 0.0666667 -41.5336 -43)" d="M 2309.43,2077.42 L 2303.29,2085.87 L 2113.32,1947.85 L 2119.47,1939.4 L 2309.43,2077.42 Z " />
<text x="0" y="0" stroke="none" fill="#800040" transform="matrix(0.0666667 0 0 0.0666667 215.684 59.9738)" font-style="normal" font-weight="bold" font-size="231px" font-family="Arial" >
N</text>
<path stroke="none" fill="#800040" transform="matrix(0.0666667 0 0 0.0666667 -41.5336 -43)" d="M 3847.4,1550.61 L 3855.16,1557.61 L 3748.87,1675.66 L 3743.43,1673.89 L 3742.09,1667.57 L 3847.4,1550.61 Z " />
<path stroke="none" fill="#800040" transform="matrix(0.0666667 0 0 0.0666667 -41.5336 -43)" d="M 3790.94,1202.8 L 3793.56,1196.9 L 3799.25,1196.3 L 3882,1339.62 L 3872.94,1344.85 L 3790.94,1202.8 Z " />
<path stroke="none" fill="#800040" transform="matrix(0.0666667 0 0 0.0666667 -41.5336 -43)" d="M 3508.42,1262.85 L 3503.62,1258.53 L 3505.49,1252.79 L 3789.53,1192.42 L 3793.56,1196.9 L 3790.94,1202.8 L 3508.42,1262.85 Z " />
<path stroke="none" fill="#800040" transform="matrix(0.0666667 0 0 0.0666667 -41.5336 -43)" d="M 3523.75,1205.05 L 3521.57,1194.82 L 3751.25,1146 L 3753.42,1156.23 L 3523.75,1205.05 Z " />
<path stroke="none" fill="#800040" transform="matrix(0.0666667 0 0 0.0666667 -41.5336 -43)" d="M 3478.23,1550.09 L 3472.64,1553.32 L 3467.68,1550.46 L 3498.18,1260.3 L 3503.62,1258.53 L 3508.42,1262.85 L 3478.23,1550.09 Z " />
<path stroke="none" fill="#800040" transform="matrix(0.0666667 0 0 0.0666667 -41.5336 -43)" d="M 3879.26,916.245 L 3891.06,913.736 L 3799.25,1196.3 L 3793.56,1196.9 L 3789.53,1192.42 L 3879.26,916.245 Z " />
<path stroke="none" fill="#800040" transform="matrix(0.0666667 0 0 0.0666667 -41.5336 -43)" d="M 3684.95,700.447 L 3688.68,688.969 L 3891.06,913.736 L 3879.26,916.245 L 3684.95,700.447 Z " />
<path stroke="none" fill="#800040" transform="matrix(0.0666667 0 0 0.0666667 -41.5336 -43)" d="M 3663.9,756.799 L 3671.66,749.805 L 3828.78,924.303 L 3821.01,931.296 L 3663.9,756.799 Z " />
<path stroke="none" fill="#800040" transform="matrix(0.0666667 0 0 0.0666667 -41.5336 -43)" d="M 3400.91,760.821 L 3392.84,751.853 L 3688.68,688.969 L 3684.95,700.447 L 3400.91,760.821 Z " />
<path stroke="none" fill="#800040" transform="matrix(0.0666667 0 0 0.0666667 -41.5336 -43)" d="M 3311.18,1036.99 L 3299.38,1039.5 L 3392.84,751.853 L 3400.91,760.821 L 3311.18,1036.99 Z " />
<path stroke="none" fill="#800040" transform="matrix(0.0666667 0 0 0.0666667 -41.5336 -43)" d="M 3370.51,1027.05 L 3360.57,1023.82 L 3433.13,800.507 L 3443.07,803.736 L 3370.51,1027.05 Z " />
<path stroke="none" fill="#800040" transform="matrix(0.0666667 0 0 0.0666667 -41.5336 -43)" d="M 3505.49,1252.79 L 3503.62,1258.53 L 3498.18,1260.3 L 3299.38,1039.5 L 3311.18,1036.99 L 3505.49,1252.79 Z " />
<text x="0" y="0" stroke="none" fill="#800040" transform="matrix(0.0666667 0 0 0.0666667 79.0831 59.9738)" font-style="normal" font-weight="bold" font-size="231px" font-family="Arial" >
N</text>
<path stroke="none" fill="#800040" transform="matrix(0.0666667 0 0 0.0666667 -41.5336 -43)" d="M 2326.1,1262.85 L 2330.9,1258.53 L 2336.34,1260.3 L 2366.84,1550.46 L 2361.89,1553.32 L 2356.29,1550.09 L 2326.1,1262.85 Z " />
<path stroke="none" fill="#800040" transform="matrix(0.0666667 0 0 0.0666667 -41.5336 -43)" d="M 2043.59,1202.8 L 2040.96,1196.9 L 2045,1192.42 L 2329.04,1252.79 L 2330.9,1258.53 L 2326.1,1262.85 L 2043.59,1202.8 Z " />
<path stroke="none" fill="#800040" transform="matrix(0.0666667 0 0 0.0666667 -41.5336 -43)" d="M 2081.1,1156.23 L 2083.27,1146 L 2312.95,1194.82 L 2310.78,1205.05 L 2081.1,1156.23 Z " />
<path stroke="none" fill="#800040" transform="matrix(0.0666667 0 0 0.0666667 -41.5336 -43)" d="M 1961.33,1345.28 L 1952.28,1340.05 L 2035.27,1196.3 L 2040.96,1196.9 L 2043.59,1202.8 L 1961.33,1345.28 Z " />
<path stroke="none" fill="#800040" transform="matrix(0.0666667 0 0 0.0666667 -41.5336 -43)" d="M 2092.44,1667.57 L 2091.09,1673.89 L 2085.65,1675.66 L 1978.91,1557.11 L 1986.68,1550.11 L 2092.44,1667.57 Z " />
<path stroke="none" fill="#800040" transform="matrix(0.0666667 0 0 0.0666667 -41.5336 -43)" d="M 2523.34,1036.99 L 2535.15,1039.5 L 2336.34,1260.3 L 2330.9,1258.53 L 2329.04,1252.79 L 2523.34,1036.99 Z " />
<path stroke="none" fill="#800040" transform="matrix(0.0666667 0 0 0.0666667 -41.5336 -43)" d="M 2433.61,760.821 L 2441.68,751.853 L 2535.15,1039.5 L 2523.34,1036.99 L 2433.61,760.821 Z " />
<path stroke="none" fill="#800040" transform="matrix(0.0666667 0 0 0.0666667 -41.5336 -43)" d="M 2391.45,803.737 L 2401.39,800.507 L 2473.95,1023.82 L 2464.01,1027.05 L 2391.45,803.737 Z " />
<path stroke="none" fill="#800040" transform="matrix(0.0666667 0 0 0.0666667 -41.5336 -43)" d="M 2149.57,700.447 L 2145.84,688.969 L 2441.68,751.853 L 2433.61,760.821 L 2149.57,700.447 Z " />
<path stroke="none" fill="#800040" transform="matrix(0.0666667 0 0 0.0666667 -41.5336 -43)" d="M 1955.26,916.245 L 1943.46,913.736 L 2145.84,688.969 L 2149.57,700.447 L 1955.26,916.245 Z " />
<path stroke="none" fill="#800040" transform="matrix(0.0666667 0 0 0.0666667 -41.5336 -43)" d="M 2013.51,931.296 L 2005.74,924.303 L 2162.86,749.806 L 2170.63,756.799 L 2013.51,931.296 Z " />
<path stroke="none" fill="#800040" transform="matrix(0.0666667 0 0 0.0666667 -41.5336 -43)" d="M 2045,1192.42 L 2040.96,1196.9 L 2035.27,1196.3 L 1943.46,913.736 L 1955.26,916.245 L 2045,1192.42 Z " />
<path stroke="none" fill="#800040" transform="matrix(0.0666667 0 0 0.0666667 -41.5336 -43)" d="M 4095.66,1600.1 L 4092.82,1612.04 L 4032.79,1552.01 L 4040.18,1544.62 L 4095.66,1600.1 Z " />
<path stroke="none" fill="#800040" transform="matrix(0.0666667 0 0 0.0666667 -41.5336 -43)" d="M 4302.39,1532.13 L 4305.6,1536.57 L 4305.23,1542.19 L 4092.82,1612.04 L 4095.66,1600.1 L 4302.39,1532.13 Z " />
<text x="0" y="0" stroke="none" fill="#800040" transform="matrix(0.0666667 0 0 0.0666667 250.18 51.627)" font-style="normal" font-weight="bold" font-size="231px" font-family="Arial" >
C</text>
<text x="0" y="0" stroke="none" fill="#800040" transform="matrix(0.0666667 0 0 0.0666667 261.313 54.8937)" font-style="normal" font-weight="bold" font-size="173.25px" font-family="Arial" >
8</text>
<text x="0" y="0" stroke="none" fill="#800040" transform="matrix(0.0666667 0 0 0.0666667 267.737 51.627)" font-style="normal" font-weight="bold" font-size="231px" font-family="Arial" >
H</text>
<text x="0" y="0" stroke="none" fill="#800040" transform="matrix(0.0666667 0 0 0.0666667 278.87 54.8937)" font-style="normal" font-weight="bold" font-size="173.25px" font-family="Arial" >
17</text>
<path stroke="none" fill="#800040" transform="matrix(0.0666667 0 0 0.0666667 -41.5336 -43)" d="M 4388.01,1416.09 L 4396.42,1422.29 L 4313.55,1534.6 L 4305.6,1536.57 L 4302.39,1532.13 L 4388.01,1416.09 Z " />
<text x="0" y="0" stroke="none" fill="#800040" transform="matrix(0.0666667 0 0 0.0666667 255.975 73.228)" font-style="normal" font-weight="bold" font-size="231px" font-family="Arial" >
C</text>
<text x="0" y="0" stroke="none" fill="#800040" transform="matrix(0.0666667 0 0 0.0666667 267.108 76.4947)" font-style="normal" font-weight="bold" font-size="173.25px" font-family="Arial" >
10</text>
<text x="0" y="0" stroke="none" fill="#800040" transform="matrix(0.0666667 0 0 0.0666667 279.956 73.228)" font-style="normal" font-weight="bold" font-size="231px" font-family="Arial" >
H</text>
<text x="0" y="0" stroke="none" fill="#800040" transform="matrix(0.0666667 0 0 0.0666667 291.089 76.4947)" font-style="normal" font-weight="bold" font-size="173.25px" font-family="Arial" >
21</text>
<path stroke="none" fill="#800040" transform="matrix(0.0666667 0 0 0.0666667 -41.5336 -43)" d="M 4456.11,1603.26 L 4451.58,1612.68 L 4305.23,1542.19 L 4305.6,1536.57 L 4313.55,1534.6 L 4456.11,1603.26 Z " />
<path stroke="none" fill="#800040" transform="matrix(0.0666667 0 0 0.0666667 -41.5336 -43)" d="M 1526.4,1547.69 L 1525.73,1541.97 L 1528.64,1537.42 L 1735.65,1605.49 L 1738.54,1617.44 L 1526.4,1547.69 Z " />
<text x="0" y="0" stroke="none" fill="#800040" transform="matrix(0.0666667 0 0 0.0666667 28.0232 51.5315)" font-style="normal" font-weight="bold" font-size="231px" font-family="Arial" >
C</text>
<text x="0" y="0" stroke="none" fill="#800040" transform="matrix(0.0666667 0 0 0.0666667 39.1565 54.7982)" font-style="normal" font-weight="bold" font-size="173.25px" font-family="Arial" >
8</text>
<text x="0" y="0" stroke="none" fill="#800040" transform="matrix(0.0666667 0 0 0.0666667 45.5801 51.5315)" font-style="normal" font-weight="bold" font-size="231px" font-family="Arial" >
H</text>
<text x="0" y="0" stroke="none" fill="#800040" transform="matrix(0.0666667 0 0 0.0666667 56.7134 54.7982)" font-style="normal" font-weight="bold" font-size="173.25px" font-family="Arial" >
17</text>
<path stroke="none" fill="#800040" transform="matrix(0.0666667 0 0 0.0666667 -41.5336 -43)" d="M 1441.35,1458.42 L 1449.03,1451.33 L 1528.64,1537.42 L 1525.73,1541.97 L 1517.57,1540.84 L 1441.35,1458.42 Z " />
<text x="0" y="0" stroke="none" fill="#800040" transform="matrix(0.0666667 0 0 0.0666667 3.32855 73.9472)" font-style="normal" font-weight="bold" font-size="231px" font-family="Arial" >
C</text>
<text x="0" y="0" stroke="none" fill="#800040" transform="matrix(0.0666667 0 0 0.0666667 14.4619 77.2138)" font-style="normal" font-weight="bold" font-size="173.25px" font-family="Arial" >
10</text>
<text x="0" y="0" stroke="none" fill="#800040" transform="matrix(0.0666667 0 0 0.0666667 27.309 73.9472)" font-style="normal" font-weight="bold" font-size="231px" font-family="Arial" >
H</text>
<text x="0" y="0" stroke="none" fill="#800040" transform="matrix(0.0666667 0 0 0.0666667 38.4423 77.2138)" font-style="normal" font-weight="bold" font-size="173.25px" font-family="Arial" >
21</text>
<path stroke="none" fill="#800040" transform="matrix(0.0666667 0 0 0.0666667 -41.5336 -43)" d="M 1374.8,1640.81 L 1369.33,1631.9 L 1517.57,1540.84 L 1525.73,1541.97 L 1526.4,1547.69 L 1374.8,1640.81 Z " />
<path stroke="none" fill="#800040" transform="matrix(0.0666667 0 0 0.0666667 -41.5336 -43)" d="M 1738.54,1617.44 L 1735.65,1605.49 L 1794.43,1545.88 L 1801.87,1553.22 L 1738.54,1617.44 Z " />
<text x="0" y="0" stroke="none" fill="#000000" transform="matrix(0.0666667 0 0 0.0666667 89.0188 187.925)" font-style="normal" font-weight="bold" font-size="231px" font-family="Arial" >
*</text>
<path stroke="none" fill="#000000" transform="matrix(0.0666667 0 0 0.0666667 -41.5336 -43)" d="M 2070.22,3377.27 L 2070.09,3366.82 L 2295.21,3364.01 L 2299.92,3369.17 L 2298.84,3374.41 L 2070.22,3377.27 Z " />
<path stroke="none" fill="#008080" transform="matrix(0.0666667 0 0 0.0666667 -41.5336 -43)" d="M 4663.43,3094.74 L 4660.41,3099.97 L 4654.72,3100.57 L 4513.89,2856.64 L 4525.96,2856.64 L 4663.43,3094.74 Z " />
<path stroke="none" fill="#008080" transform="matrix(0.0666667 0 0 0.0666667 -41.5336 -43)" d="M 4938.36,3094.74 L 4941.38,3099.97 L 4937.58,3105.19 L 4664.21,3105.19 L 4660.41,3099.97 L 4663.43,3094.74 L 4938.36,3094.74 Z " />
<path stroke="none" fill="#008080" transform="matrix(0.0666667 0 0 0.0666667 -41.5336 -43)" d="M 5075.82,2856.64 L 5087.89,2856.64 L 4947.06,3100.57 L 4941.38,3099.97 L 4938.36,3094.74 L 5075.82,2856.64 Z " />
<path stroke="none" fill="#008080" transform="matrix(0.0666667 0 0 0.0666667 -41.5336 -43)" d="M 4938.36,2618.55 L 4941.38,2613.32 L 4947.06,2612.72 L 5087.89,2856.64 L 5075.82,2856.64 L 4938.36,2618.55 Z " />
<path stroke="none" fill="#008080" transform="matrix(0.0666667 0 0 0.0666667 -41.5336 -43)" d="M 4663.43,2618.55 L 4660.41,2613.32 L 4664.21,2608.1 L 4937.58,2608.1 L 4941.38,2613.32 L 4938.36,2618.55 L 4663.43,2618.55 Z " />
<path stroke="none" fill="#008080" transform="matrix(0.0666667 0 0 0.0666667 -41.5336 -43)" d="M 4525.96,2856.64 L 4513.89,2856.64 L 4654.72,2612.72 L 4660.41,2613.32 L 4663.43,2618.55 L 4525.96,2856.64 Z " />
<text x="0" y="0" stroke="none" fill="#008080" transform="matrix(0.0666667 0 0 0.0666667 273.393 198.555)" font-style="normal" font-weight="bold" font-size="231px" font-family="Arial" >
S</text>
<path stroke="none" fill="#008080" transform="matrix(0.0666667 0 0 0.0666667 -41.5336 -43)" d="M 4579.73,3365.19 L 4573.59,3367.18 L 4569.77,3362.01 L 4654.72,3100.57 L 4660.41,3099.97 L 4664.21,3105.19 L 4579.73,3365.19 Z " />
<path stroke="none" fill="#008080" transform="matrix(0.0666667 0 0 0.0666667 -41.5336 -43)" d="M 4638.01,3349.48 L 4628.07,3346.25 L 4692.18,3148.93 L 4702.12,3152.16 L 4638.01,3349.48 Z " />
<path stroke="none" fill="#008080" transform="matrix(0.0666667 0 0 0.0666667 -41.5336 -43)" d="M 4716.97,3464.89 L 4710.82,3473.35 L 4571.92,3372.43 L 4573.59,3367.18 L 4579.73,3365.19 L 4716.97,3464.89 Z " />
<path stroke="none" fill="#008080" transform="matrix(0.0666667 0 0 0.0666667 -41.5336 -43)" d="M 5022.06,3365.19 L 5028.2,3367.18 L 5029.86,3372.43 L 4889,3474.77 L 4882.86,3466.32 L 5022.06,3365.19 Z " />
<path stroke="none" fill="#008080" transform="matrix(0.0666667 0 0 0.0666667 -41.5336 -43)" d="M 4937.58,3105.19 L 4941.38,3099.97 L 4947.06,3100.57 L 5032.01,3362.01 L 5028.2,3367.18 L 5022.06,3365.19 L 4937.58,3105.19 Z " />
<path stroke="none" fill="#008080" transform="matrix(0.0666667 0 0 0.0666667 -41.5336 -43)" d="M 4899.66,3152.16 L 4909.6,3148.93 L 4973.72,3346.25 L 4963.78,3349.48 L 4899.66,3152.16 Z " />
<text x="0" y="0" stroke="none" fill="#008080" transform="matrix(0.0666667 0 0 0.0666667 322.268 199.595)" font-style="normal" font-weight="bold" font-size="231px" font-family="Arial" >
S</text>
<path stroke="none" fill="#008080" transform="matrix(0.0666667 0 0 0.0666667 -41.5336 -43)" d="M 5692.93,3104.94 L 5700.95,3094.48 L 5773.64,3365.77 L 5769.66,3371.1 L 5763.69,3369.04 L 5692.93,3104.94 Z " />
<path stroke="none" fill="#008080" transform="matrix(0.0666667 0 0 0.0666667 -41.5336 -43)" d="M 5653.08,3151.64 L 5663.18,3148.93 L 5717.01,3349.82 L 5706.91,3352.52 L 5653.08,3151.64 Z " />
<path stroke="none" fill="#008080" transform="matrix(0.0666667 0 0 0.0666667 -41.5336 -43)" d="M 5419.99,3104.94 L 5412.72,3094.48 L 5700.95,3094.48 L 5692.93,3104.94 L 5419.99,3104.94 Z " />
<path stroke="none" fill="#008080" transform="matrix(0.0666667 0 0 0.0666667 -41.5336 -43)" d="M 5321.87,3369.4 L 5315.67,3371.1 L 5312.05,3365.83 L 5412.72,3094.48 L 5419.99,3104.94 L 5321.87,3369.4 Z " />
<path stroke="none" fill="#008080" transform="matrix(0.0666667 0 0 0.0666667 -41.5336 -43)" d="M 5382.43,3355.97 L 5372.63,3352.33 L 5447.7,3150 L 5457.5,3153.63 L 5382.43,3355.97 Z " />
<path stroke="none" fill="#008080" transform="matrix(0.0666667 0 0 0.0666667 -41.5336 -43)" d="M 5453.02,3475.61 L 5446.45,3483.73 L 5313.79,3376.3 L 5315.67,3371.1 L 5321.87,3369.4 L 5453.02,3475.61 Z " />
<path stroke="none" fill="#008080" transform="matrix(0.0666667 0 0 0.0666667 -41.5336 -43)" d="M 5763.69,3369.04 L 5769.66,3371.1 L 5771.46,3376.28 L 5621.44,3488.85 L 5615.17,3480.49 L 5763.69,3369.04 Z " />
<text x="0" y="0" stroke="none" fill="#008080" transform="matrix(0.0666667 0 0 0.0666667 222.906 199.595)" font-style="normal" font-weight="bold" font-size="231px" font-family="Arial" >
S</text>
<path stroke="none" fill="#008080" transform="matrix(0.0666667 0 0 0.0666667 -41.5336 -43)" d="M 4202.5,3104.94 L 4210.52,3094.48 L 4283.23,3365.82 L 4279.23,3371.1 L 4273.27,3369.04 L 4202.5,3104.94 Z " />
<path stroke="none" fill="#008080" transform="matrix(0.0666667 0 0 0.0666667 -41.5336 -43)" d="M 4162.66,3151.64 L 4172.76,3148.93 L 4226.58,3349.82 L 4216.49,3352.52 L 4162.66,3151.64 Z " />
<path stroke="none" fill="#008080" transform="matrix(0.0666667 0 0 0.0666667 -41.5336 -43)" d="M 3929.57,3104.94 L 3922.3,3094.48 L 4210.52,3094.48 L 4202.5,3104.94 L 3929.57,3104.94 Z " />
<path stroke="none" fill="#008080" transform="matrix(0.0666667 0 0 0.0666667 -41.5336 -43)" d="M 3831.45,3369.4 L 3825.25,3371.1 L 3821.62,3365.85 L 3922.3,3094.48 L 3929.57,3104.94 L 3831.45,3369.4 Z " />
<path stroke="none" fill="#008080" transform="matrix(0.0666667 0 0 0.0666667 -41.5336 -43)" d="M 3892.01,3355.97 L 3882.21,3352.33 L 3957.28,3150 L 3967.08,3153.63 L 3892.01,3355.97 Z " />
<path stroke="none" fill="#008080" transform="matrix(0.0666667 0 0 0.0666667 -41.5336 -43)" d="M 3962.6,3475.61 L 3956.02,3483.73 L 3823.38,3376.31 L 3825.25,3371.1 L 3831.45,3369.4 L 3962.6,3475.61 Z " />
<path stroke="none" fill="#008080" transform="matrix(0.0666667 0 0 0.0666667 -41.5336 -43)" d="M 4273.27,3369.04 L 4279.23,3371.1 L 4281.01,3376.3 L 4131.02,3488.85 L 4124.75,3480.49 L 4273.27,3369.04 Z " />
<path stroke="none" fill="#008080" transform="matrix(0.0666667 0 0 0.0666667 -41.5336 -43)" d="M 4569.77,3362.01 L 4573.59,3367.18 L 4571.92,3372.43 L 4281.01,3376.3 L 4279.23,3371.1 L 4283.23,3365.82 L 4569.77,3362.01 Z " />
<path stroke="none" fill="#008080" transform="matrix(0.0666667 0 0 0.0666667 -41.5336 -43)" d="M 5312.05,3365.83 L 5315.67,3371.1 L 5313.79,3376.3 L 5029.86,3372.43 L 5028.2,3367.18 L 5032.01,3362.01 L 5312.05,3365.83 Z " />
<text x="0" y="0" stroke="none" fill="#000000" transform="matrix(0.0666667 0 0 0.0666667 358.827 187.323)" font-style="normal" font-weight="bold" font-size="231px" font-family="Arial" >
*</text>
<path stroke="none" fill="#000000" transform="matrix(0.0666667 0 0 0.0666667 -41.5336 -43)" d="M 5981.44,3360.4 L 5981.71,3370.85 L 5771.46,3376.28 L 5769.66,3371.1 L 5773.64,3365.77 L 5981.44,3360.4 Z " />
<text x="0" y="0" stroke="none" fill="#008080" transform="matrix(0.0666667 0 0 0.0666667 273.393 108.464)" font-style="normal" font-weight="bold" font-size="231px" font-family="Arial" >
S</text>
<path stroke="none" fill="#008080" transform="matrix(0.0666667 0 0 0.0666667 -41.5336 -43)" d="M 5022.06,2348.1 L 5028.2,2346.11 L 5031.64,2352.44 L 4947.06,2612.72 L 4941.38,2613.32 L 4937.58,2608.1 L 5022.06,2348.1 Z " />
<path stroke="none" fill="#008080" transform="matrix(0.0666667 0 0 0.0666667 -41.5336 -43)" d="M 4963.78,2363.81 L 4973.72,2367.04 L 4909.6,2564.36 L 4899.66,2561.13 L 4963.78,2363.81 Z " />
<path stroke="none" fill="#008080" transform="matrix(0.0666667 0 0 0.0666667 -41.5336 -43)" d="M 4888.96,2251.41 L 4895.1,2242.95 L 5030.49,2341.31 L 5028.2,2346.11 L 5022.06,2348.1 L 4888.96,2251.41 Z " />
<path stroke="none" fill="#008080" transform="matrix(0.0666667 0 0 0.0666667 -41.5336 -43)" d="M 4579.73,2348.1 L 4573.59,2346.11 L 4571.3,2341.31 L 4706.98,2242.74 L 4713.12,2251.19 L 4579.73,2348.1 Z " />
<path stroke="none" fill="#008080" transform="matrix(0.0666667 0 0 0.0666667 -41.5336 -43)" d="M 4664.21,2608.1 L 4660.41,2613.32 L 4654.72,2612.72 L 4570.15,2352.44 L 4573.59,2346.11 L 4579.73,2348.1 L 4664.21,2608.1 Z " />
<path stroke="none" fill="#008080" transform="matrix(0.0666667 0 0 0.0666667 -41.5336 -43)" d="M 4702.12,2561.13 L 4692.18,2564.36 L 4628.07,2367.04 L 4638.01,2363.81 L 4702.12,2561.13 Z " />
<text x="0" y="0" stroke="none" fill="#008080" transform="matrix(0.0666667 0 0 0.0666667 309.988 153.51)" font-style="normal" font-weight="bold" font-size="231px" font-family="Arial" >
O</text>
<path stroke="none" fill="#008080" transform="matrix(0.0666667 0 0 0.0666667 -41.5336 -43)" d="M 5255.95,2826.13 L 5255.95,2836.58 L 5067.26,2836.58 L 5067.26,2826.13 L 5255.95,2826.13 Z " />
<path stroke="none" fill="#008080" transform="matrix(0.0666667 0 0 0.0666667 -41.5336 -43)" d="M 5255.95,2876.71 L 5255.95,2887.16 L 5067.26,2887.16 L 5067.26,2876.71 L 5255.95,2876.71 Z " />
<text x="0" y="0" stroke="none" fill="#008080" transform="matrix(0.0666667 0 0 0.0666667 235.064 153.51)" font-style="normal" font-weight="bold" font-size="231px" font-family="Arial" >
O</text>
<path stroke="none" fill="#008080" transform="matrix(0.0666667 0 0 0.0666667 -41.5336 -43)" d="M 4346.83,2887.16 L 4346.83,2876.71 L 4534.53,2876.71 L 4534.53,2887.16 L 4346.83,2887.16 Z " />
<path stroke="none" fill="#008080" transform="matrix(0.0666667 0 0 0.0666667 -41.5336 -43)" d="M 4346.83,2836.58 L 4346.83,2826.13 L 4534.53,2826.13 L 4534.53,2836.58 L 4346.83,2836.58 Z " />
<text x="0" y="0" stroke="none" fill="#008080" transform="matrix(0.0666667 0 0 0.0666667 306.206 124.322)" font-style="normal" font-weight="bold" font-size="231px" font-family="Arial" >
C</text>
<text x="0" y="0" stroke="none" fill="#008080" transform="matrix(0.0666667 0 0 0.0666667 317.339 127.589)" font-style="normal" font-weight="bold" font-size="173.25px" font-family="Arial" >
8</text>
<text x="0" y="0" stroke="none" fill="#008080" transform="matrix(0.0666667 0 0 0.0666667 323.763 124.322)" font-style="normal" font-weight="bold" font-size="231px" font-family="Arial" >
H</text>
<text x="0" y="0" stroke="none" fill="#008080" transform="matrix(0.0666667 0 0 0.0666667 334.896 127.589)" font-style="normal" font-weight="bold" font-size="173.25px" font-family="Arial" >
17</text>
<path stroke="none" fill="#008080" transform="matrix(0.0666667 0 0 0.0666667 -41.5336 -43)" d="M 5203.4,2387.64 L 5200.7,2397.74 L 5031.64,2352.44 L 5028.2,2346.11 L 5030.49,2341.31 L 5203.4,2387.64 Z " />
<text x="0" y="0" stroke="none" fill="#008080" transform="matrix(0.0666667 0 0 0.0666667 208.009 124.322)" font-style="normal" font-weight="bold" font-size="231px" font-family="Arial" >
C</text>
<text x="0" y="0" stroke="none" fill="#008080" transform="matrix(0.0666667 0 0 0.0666667 219.142 127.589)" font-style="normal" font-weight="bold" font-size="173.25px" font-family="Arial" >
8</text>
<text x="0" y="0" stroke="none" fill="#008080" transform="matrix(0.0666667 0 0 0.0666667 225.566 124.322)" font-style="normal" font-weight="bold" font-size="231px" font-family="Arial" >
H</text>
<text x="0" y="0" stroke="none" fill="#008080" transform="matrix(0.0666667 0 0 0.0666667 236.699 127.589)" font-style="normal" font-weight="bold" font-size="173.25px" font-family="Arial" >
17</text>
<path stroke="none" fill="#008080" transform="matrix(0.0666667 0 0 0.0666667 -41.5336 -43)" d="M 4378.87,2403.69 L 4376.17,2393.6 L 4571.3,2341.31 L 4573.59,2346.11 L 4570.15,2352.44 L 4378.87,2403.69 Z " />
<path stroke="none" fill="#000000" transform="matrix(0.0666667 0 0 0.0666667 -41.5336 -43)" d="M 3821.62,3365.85 L 3825.25,3371.1 L 3823.38,3376.31 L 3535.7,3374.41 L 3534.61,3369.17 L 3539.31,3363.98 L 3821.62,3365.85 Z " />
<path stroke="#000000" stroke-width="10" fill="none" transform="matrix(0.0666667 0 0 0.0666667 -41.5336 -43)" d="M 5863.33,3063.35 L 5901.56,3063.35 " />
<path stroke="#000000" stroke-width="10" fill="none" transform="matrix(0.0666667 0 0 0.0666667 -41.5336 -43)" d="M 5901.56,3063.35 L 5901.56,3585.54 " />
<path stroke="#000000" stroke-width="10" fill="none" transform="matrix(0.0666667 0 0 0.0666667 -41.5336 -43)" d="M 5901.56,3585.54 L 5863.33,3585.54 " />
<path stroke="#000000" stroke-width="10" fill="none" transform="matrix(0.0666667 0 0 0.0666667 -41.5336 -43)" d="M 2164.78,3585.54 L 2126.55,3585.54 " />
<path stroke="#000000" stroke-width="10" fill="none" transform="matrix(0.0666667 0 0 0.0666667 -41.5336 -43)" d="M 2126.55,3585.54 L 2126.55,3063.35 " />
<path stroke="#000000" stroke-width="10" fill="none" transform="matrix(0.0666667 0 0 0.0666667 -41.5336 -43)" d="M 2126.55,3063.35 L 2164.78,3063.35 " />
<text x="0" y="0" stroke="none" fill="#000000" transform="matrix(0.0666667 0 0 0.0666667 354.922 197.906)" font-style="normal" font-weight="bold" font-size="173.25px" font-family="Arial" >
n</text>
</svg>
