<?xml version="1.0" standalone="no" ?>
<!DOCTYPE svg PUBLIC "-//W3C//DTD SVG 1.1//EN" "http://www.w3.org/Graphics/SVG/1.1/DTD/svg11.dtd">
<svg width="594px" height="382px" viewBox="0 0 594 382" style="background-color: #ffffff00" xmlns="http://www.w3.org/2000/svg" xmlns:xlink="http://www.w3.org/1999/xlink" version="1.1" >
<path stroke="none" fill="#000000" transform="matrix(0.0666667 0 0 0.0666667 -40.0003 -83)" d="M 1094.67,2545.88 L 1094.9,2568.79 L 901.931,2459.96 L 914.077,2444.03 L 1094.67,2545.88 L 1094.67,2545.88 Z " />
<path stroke="none" fill="#000000" transform="matrix(0.0666667 0 0 0.0666667 -40.0003 -83)" d="M 754.669,2376.9 L 774.395,2365.25 L 825.837,2394.26 L 813.691,2410.19 L 754.669,2376.9 L 754.669,2376.9 Z " />
<path stroke="none" fill="#000000" transform="matrix(0.0666667 0 0 0.0666667 -40.0003 -83)" d="M 1098.86,2469.9 L 1089.11,2487.18 L 943.708,2405.17 L 955.854,2389.24 L 1098.86,2469.9 L 1098.86,2469.9 Z " />
<path stroke="none" fill="#000000" transform="matrix(0.0666667 0 0 0.0666667 -40.0003 -83)" d="M 827.506,2339.63 L 837.254,2322.35 L 867.614,2339.47 L 855.468,2355.4 L 827.506,2339.63 L 827.506,2339.63 Z " />
<path stroke="none" fill="#000000" transform="matrix(0.0666667 0 0 0.0666667 -40.0003 -83)" d="M 1407.53,1991.16 L 1427.26,1979.5 L 1431.19,2370.09 L 1411.23,2358.84 L 1407.53,1991.16 Z " />
<path stroke="none" fill="#000000" transform="matrix(0.0666667 0 0 0.0666667 -40.0003 -83)" d="M 1339.63,2025.52 L 1359.47,2025.32 L 1362.49,2325.65 L 1342.65,2325.85 L 1339.63,2025.52 Z " />
<path stroke="none" fill="#000000" transform="matrix(0.0666667 0 0 0.0666667 -40.0003 -83)" d="M 1087.26,1810.52 L 1087.15,1799.07 L 1097.01,1793.24 L 1427.26,1979.5 L 1407.53,1991.16 L 1087.26,1810.52 Z " />
<path stroke="none" fill="#000000" transform="matrix(0.0666667 0 0 0.0666667 -40.0003 -83)" d="M 770.693,1997.57 L 750.737,1986.31 L 1077.17,1793.44 L 1087.15,1799.07 L 1087.26,1810.52 L 770.693,1997.57 Z " />
<path stroke="none" fill="#000000" transform="matrix(0.0666667 0 0 0.0666667 -40.0003 -83)" d="M 834.403,2039.2 L 824.309,2022.11 L 1082.89,1869.33 L 1092.99,1886.41 L 834.403,2039.2 Z " />
<path stroke="none" fill="#000000" transform="matrix(0.0666667 0 0 0.0666667 -40.0003 -83)" d="M 774.395,2365.25 L 754.669,2376.9 L 750.737,1986.31 L 770.693,1997.57 L 774.395,2365.25 Z " />
<text x="0" y="0" stroke="none" fill="#000000" transform="matrix(0.0666667 0 0 0.0666667 27.3216 17.4289)" font-style="normal" font-weight="normal" font-size="220px" font-family="Arial" >
Br</text>
<path stroke="none" fill="#000000" transform="matrix(0.0666667 0 0 0.0666667 -40.0003 -83)" d="M 1074.68,1546.61 L 1094.52,1546.41 L 1097.01,1793.24 L 1087.15,1799.07 L 1077.17,1793.44 L 1074.68,1546.61 Z " />
<text x="0" y="0" stroke="none" fill="#000000" transform="matrix(0.0666667 0 0 0.0666667 62.4611 67.1858)" font-style="normal" font-weight="normal" font-size="220px" font-family="Arial" >
+</text>
<path stroke="none" fill="#000000" transform="matrix(0.0666667 0 0 0.0666667 -40.0003 -83)" d="M 5810.27,1737.98 L 5798.5,1718.32 L 6155.85,1712.61 L 6144.72,1732.63 L 5810.27,1737.98 Z " />
<path stroke="none" fill="#000000" transform="matrix(0.0666667 0 0 0.0666667 -40.0003 -83)" d="M 5647.68,2030.29 L 5624.77,2030.66 L 5798.5,1718.32 L 5810.27,1737.98 L 5647.68,2030.29 Z " />
<path stroke="none" fill="#000000" transform="matrix(0.0666667 0 0 0.0666667 -40.0003 -83)" d="M 5716.79,2034.15 L 5699.45,2024.5 L 5832.66,1785.02 L 5850,1794.66 L 5716.79,2034.15 Z " />
<path stroke="none" fill="#000000" transform="matrix(0.0666667 0 0 0.0666667 -40.0003 -83)" d="M 5819.53,2317.25 L 5808.39,2337.28 L 5748.24,2236.83 L 5766.15,2228.13 L 5819.53,2317.25 L 5819.53,2317.25 Z " />
<path stroke="none" fill="#000000" transform="matrix(0.0666667 0 0 0.0666667 -40.0003 -83)" d="M 5624.77,2030.66 L 5647.68,2030.29 L 5714.4,2141.71 L 5696.48,2150.41 L 5624.77,2030.66 L 5624.77,2030.66 Z " />
<path stroke="none" fill="#000000" transform="matrix(0.0666667 0 0 0.0666667 -40.0003 -83)" d="M 6153.98,2311.91 L 6165.75,2331.57 L 5808.39,2337.28 L 5819.53,2317.25 L 6153.98,2311.91 Z " />
<path stroke="none" fill="#000000" transform="matrix(0.0666667 0 0 0.0666667 -40.0003 -83)" d="M 6122.76,2250.13 L 6123.08,2269.97 L 5849.07,2274.35 L 5848.75,2254.51 L 6122.76,2250.13 Z " />
<path stroke="none" fill="#000000" transform="matrix(0.0666667 0 0 0.0666667 -40.0003 -83)" d="M 6316.57,2019.6 L 6328.02,2019.42 L 6333.91,2029.24 L 6165.75,2331.57 L 6153.98,2311.91 L 6316.57,2019.6 Z " />
<path stroke="none" fill="#000000" transform="matrix(0.0666667 0 0 0.0666667 -40.0003 -83)" d="M 6144.72,1732.63 L 6155.85,1712.61 L 6333.59,2009.4 L 6328.02,2019.42 L 6316.57,2019.6 L 6144.72,1732.63 Z " />
<path stroke="none" fill="#000000" transform="matrix(0.0666667 0 0 0.0666667 -40.0003 -83)" d="M 6106.82,1790.56 L 6123.84,1780.36 L 6264.64,2015.47 L 6247.62,2025.66 L 6106.82,1790.56 Z " />
<path stroke="none" fill="#000000" transform="matrix(0.0666667 0 0 0.0666667 -40.0003 -83)" d="M 6668.04,2004.06 L 6673.92,2013.89 L 6668.35,2023.9 L 6333.91,2029.24 L 6328.02,2019.42 L 6333.59,2009.4 L 6668.04,2004.06 Z " />
<path stroke="none" fill="#000000" transform="matrix(0.0666667 0 0 0.0666667 -40.0003 -83)" d="M 6857.23,2300.67 L 6846.09,2320.69 L 6668.35,2023.9 L 6673.92,2013.89 L 6685.38,2013.7 L 6857.23,2300.67 Z " />
<path stroke="none" fill="#000000" transform="matrix(0.0666667 0 0 0.0666667 -40.0003 -83)" d="M 6895.12,2242.74 L 6878.1,2252.94 L 6737.3,2017.83 L 6754.33,2007.64 L 6895.12,2242.74 Z " />
<path stroke="none" fill="#000000" transform="matrix(0.0666667 0 0 0.0666667 -40.0003 -83)" d="M 7191.67,2295.32 L 7203.44,2314.98 L 6846.09,2320.69 L 6857.23,2300.67 L 7191.67,2295.32 Z " />
<path stroke="none" fill="#000000" transform="matrix(0.0666667 0 0 0.0666667 -40.0003 -83)" d="M 7354.26,2003.01 L 7377.17,2002.64 L 7203.44,2314.98 L 7191.67,2295.32 L 7354.26,2003.01 Z " />
<path stroke="none" fill="#000000" transform="matrix(0.0666667 0 0 0.0666667 -40.0003 -83)" d="M 7285.16,1999.15 L 7302.5,2008.8 L 7169.29,2248.28 L 7151.95,2238.64 L 7285.16,1999.15 Z " />
<path stroke="none" fill="#000000" transform="matrix(0.0666667 0 0 0.0666667 -40.0003 -83)" d="M 7182.41,1716.05 L 7193.55,1696.02 L 7377.17,2002.64 L 7354.26,2003.01 L 7182.41,1716.05 Z " />
<path stroke="none" fill="#000000" transform="matrix(0.0666667 0 0 0.0666667 -40.0003 -83)" d="M 6847.97,1721.39 L 6836.2,1701.74 L 7193.55,1696.02 L 7182.41,1716.05 L 6847.97,1721.39 Z " />
<path stroke="none" fill="#000000" transform="matrix(0.0666667 0 0 0.0666667 -40.0003 -83)" d="M 6879.18,1783.17 L 6878.87,1763.33 L 7152.87,1758.95 L 7153.19,1778.79 L 6879.18,1783.17 Z " />
<path stroke="none" fill="#000000" transform="matrix(0.0666667 0 0 0.0666667 -40.0003 -83)" d="M 6685.38,2013.7 L 6673.92,2013.89 L 6668.04,2004.06 L 6836.2,1701.74 L 6847.97,1721.39 L 6685.38,2013.7 Z " />
<path stroke="none" fill="#000000" transform="matrix(0.0666667 0 0 0.0666667 -40.0003 -83)" d="M 1411.23,2358.84 L 1431.19,2370.09 L 1094.9,2568.79 L 1094.67,2545.88 L 1411.23,2358.84 Z " />
<text x="0" y="0" stroke="none" fill="#000000" transform="matrix(0.0666667 0 0 0.0666667 316.4 78.6194)" font-style="normal" font-weight="normal" font-size="220px" font-family="Arial" >
R</text>
<path stroke="none" fill="#000000" transform="matrix(0.0666667 0 0 0.0666667 -40.0003 -83)" d="M 5529.67,2298.23 L 5521,2280.38 L 5845.63,2122.72 L 5854.3,2140.57 L 5529.67,2298.23 Z " />
<text x="0" y="0" stroke="none" fill="#000000" transform="matrix(0.0666667 0 0 0.0666667 3.56673 96.0176)" font-style="normal" font-weight="normal" font-size="220px" font-family="Arial" >
R</text>
<path stroke="none" fill="#000000" transform="matrix(0.0666667 0 0 0.0666667 -40.0003 -83)" d="M 810.233,2513.84 L 794.454,2501.81 L 1041.46,2177.86 L 1057.24,2189.89 L 810.233,2513.84 Z " />
<text x="0" y="0" stroke="none" fill="#000000" transform="matrix(0.0666667 0 0 0.0666667 157.092 50.64)" font-style="normal" font-weight="normal" font-size="200px" font-family="Arial" >
0.5 </text>
<text x="0" y="0" stroke="none" fill="#000000" transform="matrix(0.0666667 0 0 0.0666667 179.389 50.64)" font-style="normal" font-weight="normal" font-size="200px" font-family="Arial" >
mol% </text>
<text x="0" y="0" stroke="none" fill="#000000" transform="matrix(0.0666667 0 0 0.0666667 216.5 50.64)" font-style="normal" font-weight="normal" font-size="200px" font-family="Arial" >
(based </text>
<text x="0" y="0" stroke="none" fill="#000000" transform="matrix(0.0666667 0 0 0.0666667 261.028 50.64)" font-style="normal" font-weight="normal" font-size="200px" font-family="Arial" >
on </text>
<text x="0" y="0" stroke="none" fill="#000000" transform="matrix(0.0666667 0 0 0.0666667 279.592 50.64)" font-style="normal" font-weight="normal" font-size="200px" font-family="Arial" >
Pd)</text>
<text x="0" y="0" stroke="none" fill="#000000" transform="matrix(0.0666667 0 0 0.0666667 178.205 74.8975)" font-style="normal" font-weight="normal" font-size="200px" font-family="Arial" >
KF, </text>
<text x="0" y="0" stroke="none" fill="#000000" transform="matrix(0.0666667 0 0 0.0666667 202.709 74.8975)" font-style="normal" font-weight="normal" font-size="200px" font-family="Arial" >
MeOH, </text>
<text x="0" y="0" stroke="none" fill="#000000" transform="matrix(0.0666667 0 0 0.0666667 248.754 74.8975)" font-style="normal" font-weight="normal" font-size="200px" font-family="Arial" >
20 </text>
<text x="0" y="0" stroke="none" fill="#000000" transform="matrix(0.0666667 0 0 0.0666667 267.318 69.6975)" font-style="normal" font-weight="normal" font-size="150px" font-family="Arial" >
o</text>
<text x="0" y="0" stroke="none" fill="#000000" transform="matrix(0.0666667 0 0 0.0666667 272.879 74.8975)" font-style="normal" font-weight="normal" font-size="200px" font-family="Arial" >
C</text>
<path stroke="none" fill="#000000" transform="matrix(0.0666667 0 0 0.0666667 -40.0003 -83)" d="M 5116.34,2130.52 L 2928,2130.52 L 2928,2110.52 L 5116.34,2110.52 Z " />
<path stroke="none" fill="#000000" transform="matrix(0.0666667 0 0 0.0666667 -40.0003 -83)" d="M 5288.96,2120.52 C 5288.96,2120.52 5090.54,2171.13 5090.54,2171.13 C 5090.54,2171.13 5115.34,2142.66 5115.34,2120.52 C 5115.34,2097.94 5090.54,2068.92 5090.54,2068.92 C 5090.54,2068.92 5288.96,2120.52 5288.96,2120.52 C 5288.96,2120.52 5288.96,2120.52 5288.96,2120.52 " />
<path stroke="#000000" stroke-width="1" fill="none" transform="matrix(0.0666667 0 0 0.0666667 -40.0003 -83)" d="M 5288.96,2120.52 C 5288.96,2120.52 5090.54,2171.13 5090.54,2171.13 C 5090.54,2171.13 5115.34,2142.66 5115.34,2120.52 C 5115.34,2097.94 5090.54,2068.92 5090.54,2068.92 C 5090.54,2068.92 5288.96,2120.52 5288.96,2120.52 C 5288.96,2120.52 5288.96,2120.52 5288.96,2120.52 " />
<text x="0" y="0" stroke="none" fill="#000000" transform="matrix(0.0666667 0 0 0.0666667 79.4528 66.7091)" font-style="normal" font-weight="normal" font-size="220px" font-family="Arial" >
PhB(OH)</text>
<text x="0" y="0" stroke="none" fill="#000000" transform="matrix(0.0666667 0 0 0.0666667 138.986 69.8424)" font-style="normal" font-weight="normal" font-size="165px" font-family="Arial" >
2</text>
<path stroke="none" fill="#000000" transform="matrix(0.0666667 0 0 0.0666667 -40.0003 -83)" d="M 7801.37,1890.61 L 7784.37,1900.43 L 7784.37,1568.72 L 7801.37,1578.54 L 7801.37,1890.61 Z " />
<path stroke="none" fill="#000000" transform="matrix(0.0666667 0 0 0.0666667 -40.0003 -83)" d="M 7865.75,1858.36 L 7848.74,1858.36 L 7848.74,1610.8 L 7865.75,1610.8 L 7865.75,1858.36 Z " />
<path stroke="none" fill="#000000" transform="matrix(0.0666667 0 0 0.0666667 -40.0003 -83)" d="M 8071.63,2046.65 L 8071.63,2066.29 L 7784.37,1900.43 L 7801.37,1890.61 L 8071.63,2046.65 Z " />
<path stroke="none" fill="#000000" transform="matrix(0.0666667 0 0 0.0666667 -40.0003 -83)" d="M 8341.89,1890.61 L 8350.4,1895.52 L 8350.69,1905.18 L 8071.63,2066.29 L 8071.63,2046.65 L 8341.89,1890.61 Z " />
<path stroke="none" fill="#000000" transform="matrix(0.0666667 0 0 0.0666667 -40.0003 -83)" d="M 8281.77,1850.99 L 8290.27,1865.72 L 8075.89,1989.5 L 8067.38,1974.77 L 8281.77,1850.99 Z " />
<path stroke="none" fill="#000000" transform="matrix(0.0666667 0 0 0.0666667 -40.0003 -83)" d="M 8341.89,1578.54 L 8350.4,1573.63 L 8358.9,1578.54 L 8358.9,1890.27 L 8350.4,1895.52 L 8341.89,1890.61 L 8341.89,1578.54 Z " />
<path stroke="none" fill="#000000" transform="matrix(0.0666667 0 0 0.0666667 -40.0003 -83)" d="M 8071.63,1422.51 L 8071.63,1402.87 L 8350.4,1563.81 L 8350.4,1573.63 L 8341.89,1578.54 L 8071.63,1422.51 Z " />
<path stroke="none" fill="#000000" transform="matrix(0.0666667 0 0 0.0666667 -40.0003 -83)" d="M 8067.38,1494.39 L 8075.89,1479.66 L 8290.27,1603.44 L 8281.77,1618.17 L 8067.38,1494.39 Z " />
<path stroke="none" fill="#000000" transform="matrix(0.0666667 0 0 0.0666667 -40.0003 -83)" d="M 7801.37,1578.54 L 7784.37,1568.72 L 8071.63,1402.87 L 8071.63,1422.51 L 7801.37,1578.54 Z " />
<text x="0" y="0" stroke="none" fill="#000000" transform="matrix(0.0666667 0 0 0.0666667 529.693 61.0183)" font-style="normal" font-weight="normal" font-size="240px" font-family="Arial" >
Pd</text>
<path stroke="none" fill="#000000" transform="matrix(0.0666667 0 0 0.0666667 -40.0003 -83)" d="M 8525.5,1973.5 L 8517.9,1988.71 L 8350.69,1905.18 L 8350.4,1895.52 L 8358.9,1890.27 L 8525.5,1973.5 Z " />
<path stroke="none" fill="#000000" transform="matrix(0.0666667 0 0 0.0666667 -40.0003 -83)" d="M 8646.71,1392.74 L 8646.71,1412.38 L 8358.9,1578.54 L 8350.4,1573.63 L 8350.4,1563.81 L 8646.71,1392.74 Z " />
<text x="0" y="0" stroke="none" fill="#000000" transform="matrix(0.0666667 0 0 0.0666667 550.435 28.1756)" font-style="normal" font-weight="normal" font-size="240px" font-family="Arial" >
NMe</text>
<text x="0" y="0" stroke="none" fill="#000000" transform="matrix(0.0666667 0 0 0.0666667 584.222 31.6423)" font-style="normal" font-weight="normal" font-size="180px" font-family="Arial" >
2</text>
<path stroke="none" fill="#000000" transform="matrix(0.0666667 0 0 0.0666667 -40.0003 -83)" d="M 8827.14,1496.91 L 8818.64,1511.64 L 8646.71,1412.38 L 8646.71,1392.74 L 8827.14,1496.91 Z " />
<path stroke="none" fill="#000000" transform="matrix(0.0666667 0 0 0.0666667 -40.0003 -83)" d="M 8738.67,1974.96 L 8770.52,1831.12 L 8795.13,1864.09 L 8835.87,1865.38 L 8738.67,1974.96 L 8738.67,1974.96 Z " />
<path stroke="none" fill="#000000" transform="matrix(0.0666667 0 0 0.0666667 -40.0003 -83)" d="M 8802.71,1867.94 L 8787.55,1860.23 L 8863.64,1710.8 L 8878.8,1718.51 L 8802.71,1867.94 Z " />
<text x="0" y="0" stroke="none" fill="#000000" transform="matrix(0.0666667 0 0 0.0666667 515.853 86.9991)" font-style="normal" font-weight="normal" font-size="240px" font-family="Arial" >
Cl</text>
<path stroke="none" fill="#000000" transform="matrix(0.0666667 0 0 0.0666667 -40.0003 -83)" d="M 8526.51,2322.31 L 8512.49,2312.68 L 8575.82,2220.54 L 8589.84,2230.17 L 8526.51,2322.31 Z " />
<path stroke="none" fill="#000000" transform="matrix(0.0666667 0 0 0.0666667 -40.0003 -83)" d="M 9051.43,2189.37 L 9045.55,2205.33 L 8978.13,2180.53 L 8987.57,2165.88 L 9051.43,2189.37 L 9051.43,2189.37 Z " />
<path stroke="none" fill="#000000" transform="matrix(0.0666667 0 0 0.0666667 -40.0003 -83)" d="M 8873.91,2142.19 L 8879.78,2126.23 L 8889.43,2129.78 L 8879.99,2144.43 L 8873.91,2142.19 L 8873.91,2142.19 Z " />
<path stroke="none" fill="#000000" transform="matrix(0.0666667 0 0 0.0666667 -40.0003 -83)" d="M 8773.01,2548.9 L 8768.24,2565.23 L 8736.14,2555.86 L 8745.76,2540.95 L 8773.01,2548.9 L 8773.01,2548.9 Z " />
<path stroke="none" fill="#000000" transform="matrix(0.0666667 0 0 0.0666667 -40.0003 -83)" d="M 8599.29,2515.92 L 8604.06,2499.59 L 8643.57,2511.12 L 8633.95,2526.03 L 8599.29,2515.92 L 8599.29,2515.92 Z " />
<path stroke="none" fill="#000000" transform="matrix(0.0666667 0 0 0.0666667 -40.0003 -83)" d="M 8634.77,2634.63 L 8620.48,2625.41 L 8953.83,2108.36 L 8968.13,2117.58 L 8634.77,2634.63 Z " />
<text x="0" y="0" stroke="none" fill="#000000" transform="matrix(0.0666667 0 0 0.0666667 549.39 91.908)" font-style="normal" font-weight="normal" font-size="240px" font-family="Arial" >
2</text>
<text x="0" y="0" stroke="none" fill="#000000" transform="matrix(0.0666667 0 0 0.0666667 487.743 108.524)" font-style="normal" font-weight="normal" font-size="220px" font-family="Arial" >
(pre)catalyst </text>
<text x="0" y="0" stroke="none" fill="#000000" transform="matrix(0.0666667 0 0 0.0666667 572.515 108.524)" font-style="normal" font-weight="bold" font-size="220px" font-family="Arial" >
1</text>
<path stroke="none" fill="#000000" transform="matrix(0.0666667 0 0 0.0666667 -40.0003 -83)" d="M 7537.75,2830.99 L 7523.53,2831.02 L 7523.38,2769.78 L 7537.6,2769.75 L 7537.75,2830.99 Z " />
<path stroke="none" fill="#000000" transform="matrix(0.0666667 0 0 0.0666667 -40.0003 -83)" d="M 7537.46,2708.51 L 7523.24,2708.54 L 7523.09,2647.3 L 7537.31,2647.27 L 7537.46,2708.51 Z " />
<path stroke="none" fill="#000000" transform="matrix(0.0666667 0 0 0.0666667 -40.0003 -83)" d="M 7537.17,2586.03 L 7522.95,2586.06 L 7522.8,2524.82 L 7537.02,2524.79 L 7537.17,2586.03 Z " />
<path stroke="none" fill="#000000" transform="matrix(0.0666667 0 0 0.0666667 -40.0003 -83)" d="M 7536.88,2463.55 L 7522.66,2463.58 L 7522.51,2402.34 L 7536.73,2402.31 L 7536.88,2463.55 Z " />
<path stroke="none" fill="#000000" transform="matrix(0.0666667 0 0 0.0666667 -40.0003 -83)" d="M 7536.59,2341.07 L 7522.37,2341.1 L 7522.22,2279.86 L 7536.44,2279.83 L 7536.59,2341.07 Z " />
<path stroke="none" fill="#000000" transform="matrix(0.0666667 0 0 0.0666667 -40.0003 -83)" d="M 7536.29,2218.59 L 7522.07,2218.62 L 7521.93,2157.38 L 7536.15,2157.35 L 7536.29,2218.59 Z " />
<path stroke="none" fill="#000000" transform="matrix(0.0666667 0 0 0.0666667 -40.0003 -83)" d="M 7536,2096.11 L 7521.78,2096.14 L 7521.64,2034.9 L 7535.86,2034.87 L 7536,2096.11 Z " />
<path stroke="none" fill="#000000" transform="matrix(0.0666667 0 0 0.0666667 -40.0003 -83)" d="M 7535.71,1973.63 L 7521.49,1973.66 L 7521.35,1912.42 L 7535.57,1912.39 L 7535.71,1973.63 Z " />
<path stroke="none" fill="#000000" transform="matrix(0.0666667 0 0 0.0666667 -40.0003 -83)" d="M 7535.42,1851.15 L 7521.2,1851.18 L 7521.05,1789.94 L 7535.27,1789.91 L 7535.42,1851.15 Z " />
<path stroke="none" fill="#000000" transform="matrix(0.0666667 0 0 0.0666667 -40.0003 -83)" d="M 7535.13,1728.66 L 7520.91,1728.7 L 7520.76,1667.46 L 7534.98,1667.42 L 7535.13,1728.66 Z " />
<path stroke="none" fill="#000000" transform="matrix(0.0666667 0 0 0.0666667 -40.0003 -83)" d="M 7534.84,1606.18 L 7520.62,1606.22 L 7520.47,1544.98 L 7534.69,1544.94 L 7534.84,1606.18 Z " />
<path stroke="none" fill="#000000" transform="matrix(0.0666667 0 0 0.0666667 -40.0003 -83)" d="M 7534.55,1483.7 L 7520.33,1483.74 L 7520.18,1422.5 L 7534.4,1422.46 L 7534.55,1483.7 Z " />
<path stroke="none" fill="#000000" transform="matrix(0.0666667 0 0 0.0666667 -40.0003 -83)" d="M 7534.26,1361.22 L 7520.04,1361.26 L 7519.89,1300.02 L 7534.11,1299.98 L 7534.26,1361.22 Z " />
<text x="0" y="0" stroke="none" fill="#000000" transform="matrix(0.0666667 0 0 0.0666667 185.14 31.9333)" font-style="normal" font-weight="normal" font-size="200px" font-family="Arial" >
(pre)catalyst </text>
<text x="0" y="0" stroke="none" fill="#000000" transform="matrix(0.0666667 0 0 0.0666667 262.363 31.9333)" font-style="normal" font-weight="bold" font-size="200px" font-family="Arial" >
1</text>
<path stroke="none" fill="#000000" transform="matrix(0.0666667 0 0 0.0666667 -40.0003 -83)" d="M 7878.26,3072.89 L 7878.3,3087.11 L 7818.82,3087.29 L 7818.78,3073.07 L 7878.26,3072.89 Z " />
<path stroke="none" fill="#000000" transform="matrix(0.0666667 0 0 0.0666667 -40.0003 -83)" d="M 7759.3,3073.24 L 7759.34,3087.46 L 7699.86,3087.64 L 7699.82,3073.42 L 7759.3,3073.24 Z " />
<path stroke="none" fill="#000000" transform="matrix(0.0666667 0 0 0.0666667 -40.0003 -83)" d="M 7640.34,3073.6 L 7640.38,3087.82 L 7580.9,3087.99 L 7580.86,3073.78 L 7640.34,3073.6 Z " />
<path stroke="none" fill="#000000" transform="matrix(0.0666667 0 0 0.0666667 -40.0003 -83)" d="M 7521.38,3073.95 L 7521.42,3088.17 L 7461.94,3088.35 L 7461.9,3074.13 L 7521.38,3073.95 Z " />
<path stroke="none" fill="#000000" transform="matrix(0.0666667 0 0 0.0666667 -40.0003 -83)" d="M 7402.42,3074.31 L 7402.46,3088.53 L 7342.98,3088.7 L 7342.94,3074.48 L 7402.42,3074.31 Z " />
<path stroke="none" fill="#000000" transform="matrix(0.0666667 0 0 0.0666667 -40.0003 -83)" d="M 7283.45,3074.66 L 7283.5,3088.88 L 7224.02,3089.06 L 7223.97,3074.84 L 7283.45,3074.66 Z " />
<path stroke="none" fill="#000000" transform="matrix(0.0666667 0 0 0.0666667 -40.0003 -83)" d="M 7164.49,3075.01 L 7164.54,3089.23 L 7105.06,3089.41 L 7105.01,3075.19 L 7164.49,3075.01 Z " />
<path stroke="none" fill="#000000" transform="matrix(0.0666667 0 0 0.0666667 -40.0003 -83)" d="M 7045.53,3075.37 L 7045.58,3089.59 L 6986.1,3089.76 L 6986.05,3075.55 L 7045.53,3075.37 Z " />
<path stroke="none" fill="#000000" transform="matrix(0.0666667 0 0 0.0666667 -40.0003 -83)" d="M 6926.57,3075.72 L 6926.61,3089.94 L 6867.13,3090.12 L 6867.09,3075.9 L 6926.57,3075.72 Z " />
<path stroke="none" fill="#000000" transform="matrix(0.0666667 0 0 0.0666667 -40.0003 -83)" d="M 6807.61,3076.08 L 6807.65,3090.3 L 6748.17,3090.47 L 6748.13,3076.25 L 6807.61,3076.08 Z " />
<path stroke="none" fill="#000000" transform="matrix(0.0666667 0 0 0.0666667 -40.0003 -83)" d="M 6688.65,3076.43 L 6688.69,3090.65 L 6629.21,3090.83 L 6629.17,3076.61 L 6688.65,3076.43 Z " />
<path stroke="none" fill="#000000" transform="matrix(0.0666667 0 0 0.0666667 -40.0003 -83)" d="M 6569.69,3076.78 L 6569.73,3091 L 6510.25,3091.18 L 6510.21,3076.96 L 6569.69,3076.78 Z " />
<path stroke="none" fill="#000000" transform="matrix(0.0666667 0 0 0.0666667 -40.0003 -83)" d="M 6450.73,3077.14 L 6450.77,3091.36 L 6391.29,3091.53 L 6391.25,3077.31 L 6450.73,3077.14 Z " />
<path stroke="none" fill="#000000" transform="matrix(0.0666667 0 0 0.0666667 -40.0003 -83)" d="M 6331.77,3077.49 L 6331.81,3091.71 L 6272.33,3091.89 L 6272.29,3077.67 L 6331.77,3077.49 Z " />
<path stroke="none" fill="#000000" transform="matrix(0.0666667 0 0 0.0666667 -40.0003 -83)" d="M 6212.81,3077.85 L 6212.85,3092.07 L 6153.37,3092.24 L 6153.33,3078.02 L 6212.81,3077.85 Z " />
<path stroke="none" fill="#000000" transform="matrix(0.0666667 0 0 0.0666667 -40.0003 -83)" d="M 6093.85,3078.2 L 6093.89,3092.42 L 6034.41,3092.6 L 6034.37,3078.38 L 6093.85,3078.2 Z " />
<path stroke="none" fill="#000000" transform="matrix(0.0666667 0 0 0.0666667 -40.0003 -83)" d="M 5974.89,3078.55 L 5974.93,3092.77 L 5915.45,3092.95 L 5915.41,3078.73 L 5974.89,3078.55 Z " />
<path stroke="none" fill="#000000" transform="matrix(0.0666667 0 0 0.0666667 -40.0003 -83)" d="M 5855.93,3078.91 L 5855.97,3093.13 L 5796.49,3093.3 L 5796.45,3079.08 L 5855.93,3078.91 Z " />
<path stroke="none" fill="#000000" transform="matrix(0.0666667 0 0 0.0666667 -40.0003 -83)" d="M 5736.97,3079.26 L 5737.01,3093.48 L 5677.53,3093.66 L 5677.49,3079.44 L 5736.97,3079.26 Z " />
<path stroke="none" fill="#000000" transform="matrix(0.0666667 0 0 0.0666667 -40.0003 -83)" d="M 5618,3079.62 L 5618.05,3093.84 L 5558.57,3094.01 L 5558.52,3079.79 L 5618,3079.62 Z " />
<path stroke="none" fill="#000000" transform="matrix(0.0666667 0 0 0.0666667 -40.0003 -83)" d="M 5499.04,3079.97 L 5499.09,3094.19 L 5439.61,3094.37 L 5439.56,3080.15 L 5499.04,3079.97 Z " />
<path stroke="none" fill="#000000" transform="matrix(0.0666667 0 0 0.0666667 -40.0003 -83)" d="M 5380.08,3080.32 L 5380.13,3094.54 L 5320.65,3094.72 L 5320.6,3080.5 L 5380.08,3080.32 Z " />
<path stroke="none" fill="#000000" transform="matrix(0.0666667 0 0 0.0666667 -40.0003 -83)" d="M 5261.12,3080.68 L 5261.17,3094.9 L 5201.68,3095.07 L 5201.64,3080.85 L 5261.12,3080.68 Z " />
<path stroke="none" fill="#000000" transform="matrix(0.0666667 0 0 0.0666667 -40.0003 -83)" d="M 5142.16,3081.03 L 5142.2,3095.25 L 5082.72,3095.43 L 5082.68,3081.21 L 5142.16,3081.03 Z " />
<path stroke="none" fill="#000000" transform="matrix(0.0666667 0 0 0.0666667 -40.0003 -83)" d="M 5023.2,3081.39 L 5023.24,3095.61 L 4963.76,3095.78 L 4963.72,3081.56 L 5023.2,3081.39 Z " />
<path stroke="none" fill="#000000" transform="matrix(0.0666667 0 0 0.0666667 -40.0003 -83)" d="M 4904.24,3081.74 L 4904.28,3095.96 L 4844.8,3096.14 L 4844.76,3081.92 L 4904.24,3081.74 Z " />
<path stroke="none" fill="#000000" transform="matrix(0.0666667 0 0 0.0666667 -40.0003 -83)" d="M 4785.28,3082.09 L 4785.32,3096.31 L 4725.84,3096.49 L 4725.8,3082.27 L 4785.28,3082.09 Z " />
<path stroke="none" fill="#000000" transform="matrix(0.0666667 0 0 0.0666667 -40.0003 -83)" d="M 4666.32,3082.45 L 4666.36,3096.67 L 4606.88,3096.84 L 4606.84,3082.62 L 4666.32,3082.45 Z " />
<path stroke="none" fill="#000000" transform="matrix(0.0666667 0 0 0.0666667 -40.0003 -83)" d="M 4547.36,3082.8 L 4547.4,3097.02 L 4487.92,3097.2 L 4487.88,3082.98 L 4547.36,3082.8 Z " />
<path stroke="none" fill="#000000" transform="matrix(0.0666667 0 0 0.0666667 -40.0003 -83)" d="M 4428.4,3083.16 L 4428.44,3097.38 L 4368.96,3097.55 L 4368.92,3083.33 L 4428.4,3083.16 Z " />
<path stroke="none" fill="#000000" transform="matrix(0.0666667 0 0 0.0666667 -40.0003 -83)" d="M 4309.44,3083.51 L 4309.48,3097.73 L 4250,3097.91 L 4249.96,3083.69 L 4309.44,3083.51 Z " />
<path stroke="none" fill="#000000" transform="matrix(0.0666667 0 0 0.0666667 -40.0003 -83)" d="M 4190.48,3083.86 L 4190.52,3098.08 L 4131.04,3098.26 L 4131,3084.04 L 4190.48,3083.86 Z " />
<path stroke="none" fill="#000000" transform="matrix(0.0666667 0 0 0.0666667 -40.0003 -83)" d="M 4071.52,3084.22 L 4071.56,3098.44 L 4012.08,3098.61 L 4012.04,3084.39 L 4071.52,3084.22 Z " />
<path stroke="none" fill="#000000" transform="matrix(0.0666667 0 0 0.0666667 -40.0003 -83)" d="M 3952.56,3084.57 L 3952.6,3098.79 L 3893.12,3098.97 L 3893.07,3084.75 L 3952.56,3084.57 Z " />
<path stroke="none" fill="#000000" transform="matrix(0.0666667 0 0 0.0666667 -40.0003 -83)" d="M 3833.59,3084.93 L 3833.64,3099.15 L 3774.16,3099.32 L 3774.11,3085.1 L 3833.59,3084.93 Z " />
<path stroke="none" fill="#000000" transform="matrix(0.0666667 0 0 0.0666667 -40.0003 -83)" d="M 3714.63,3085.28 L 3714.68,3099.5 L 3655.2,3099.68 L 3655.15,3085.46 L 3714.63,3085.28 Z " />
<path stroke="none" fill="#000000" transform="matrix(0.0666667 0 0 0.0666667 -40.0003 -83)" d="M 3595.67,3085.63 L 3595.72,3099.85 L 3536.23,3100.03 L 3536.19,3085.81 L 3595.67,3085.63 Z " />
<path stroke="none" fill="#000000" transform="matrix(0.0666667 0 0 0.0666667 -40.0003 -83)" d="M 3476.71,3085.99 L 3476.75,3100.21 L 3417.27,3100.38 L 3417.23,3086.16 L 3476.71,3085.99 Z " />
<path stroke="none" fill="#000000" transform="matrix(0.0666667 0 0 0.0666667 -40.0003 -83)" d="M 3357.75,3086.34 L 3357.79,3100.56 L 3298.31,3100.74 L 3298.27,3086.52 L 3357.75,3086.34 Z " />
<path stroke="none" fill="#000000" transform="matrix(0.0666667 0 0 0.0666667 -40.0003 -83)" d="M 3238.79,3086.7 L 3238.83,3100.92 L 3179.35,3101.09 L 3179.31,3086.87 L 3238.79,3086.7 Z " />
<path stroke="none" fill="#000000" transform="matrix(0.0666667 0 0 0.0666667 -40.0003 -83)" d="M 3119.83,3087.05 L 3119.87,3101.27 L 3060.39,3101.45 L 3060.35,3087.23 L 3119.83,3087.05 Z " />
<path stroke="none" fill="#000000" transform="matrix(0.0666667 0 0 0.0666667 -40.0003 -83)" d="M 3000.87,3087.4 L 3000.91,3101.62 L 2941.43,3101.8 L 2941.39,3087.58 L 3000.87,3087.4 Z " />
<path stroke="none" fill="#000000" transform="matrix(0.0666667 0 0 0.0666667 -40.0003 -83)" d="M 2881.91,3087.76 L 2881.95,3101.98 L 2822.47,3102.15 L 2822.43,3087.93 L 2881.91,3087.76 Z " />
<path stroke="none" fill="#000000" transform="matrix(0.0666667 0 0 0.0666667 -40.0003 -83)" d="M 2762.95,3088.11 L 2762.99,3102.33 L 2703.51,3102.51 L 2703.47,3088.29 L 2762.95,3088.11 Z " />
<path stroke="none" fill="#000000" transform="matrix(0.0666667 0 0 0.0666667 -40.0003 -83)" d="M 2643.99,3088.47 L 2644.03,3102.69 L 2584.55,3102.86 L 2584.51,3088.64 L 2643.99,3088.47 Z " />
<path stroke="none" fill="#000000" transform="matrix(0.0666667 0 0 0.0666667 -40.0003 -83)" d="M 2525.03,3088.82 L 2525.07,3103.04 L 2465.59,3103.22 L 2465.55,3089 L 2525.03,3088.82 Z " />
<path stroke="none" fill="#000000" transform="matrix(0.0666667 0 0 0.0666667 -40.0003 -83)" d="M 2406.07,3089.17 L 2406.11,3103.39 L 2346.63,3103.57 L 2346.59,3089.35 L 2406.07,3089.17 Z " />
<path stroke="none" fill="#000000" transform="matrix(0.0666667 0 0 0.0666667 -40.0003 -83)" d="M 2287.11,3089.53 L 2287.15,3103.75 L 2227.67,3103.92 L 2227.62,3089.7 L 2287.11,3089.53 Z " />
<path stroke="none" fill="#000000" transform="matrix(0.0666667 0 0 0.0666667 -40.0003 -83)" d="M 2168.14,3089.88 L 2168.19,3104.1 L 2108.71,3104.28 L 2108.66,3090.06 L 2168.14,3089.88 Z " />
<path stroke="none" fill="#000000" transform="matrix(0.0666667 0 0 0.0666667 -40.0003 -83)" d="M 2049.18,3090.24 L 2049.23,3104.45 L 1989.75,3104.63 L 1989.7,3090.41 L 2049.18,3090.24 Z " />
<path stroke="none" fill="#000000" transform="matrix(0.0666667 0 0 0.0666667 -40.0003 -83)" d="M 1930.22,3090.59 L 1930.27,3104.81 L 1870.79,3104.99 L 1870.74,3090.77 L 1930.22,3090.59 Z " />
<path stroke="none" fill="#000000" transform="matrix(0.0666667 0 0 0.0666667 -40.0003 -83)" d="M 1811.26,3090.94 L 1811.3,3105.16 L 1751.82,3105.34 L 1751.78,3091.12 L 1811.26,3090.94 Z " />
<path stroke="none" fill="#000000" transform="matrix(0.0666667 0 0 0.0666667 -40.0003 -83)" d="M 1692.3,3091.3 L 1692.34,3105.52 L 1632.86,3105.69 L 1632.82,3091.47 L 1692.3,3091.3 Z " />
<path stroke="none" fill="#000000" transform="matrix(0.0666667 0 0 0.0666667 -40.0003 -83)" d="M 1573.34,3091.65 L 1573.38,3105.87 L 1513.9,3106.05 L 1513.86,3091.83 L 1573.34,3091.65 Z " />
<path stroke="none" fill="#000000" transform="matrix(0.0666667 0 0 0.0666667 -40.0003 -83)" d="M 1454.38,3092.01 L 1454.42,3106.22 L 1394.94,3106.4 L 1394.9,3092.18 L 1454.38,3092.01 Z " />
<path stroke="none" fill="#000000" transform="matrix(0.0666667 0 0 0.0666667 -40.0003 -83)" d="M 1335.42,3092.36 L 1335.46,3106.58 L 1275.98,3106.76 L 1275.94,3092.54 L 1335.42,3092.36 Z " />
<path stroke="none" fill="#000000" transform="matrix(0.0666667 0 0 0.0666667 -40.0003 -83)" d="M 1216.46,3092.71 L 1216.5,3106.93 L 1157.02,3107.11 L 1156.98,3092.89 L 1216.46,3092.71 Z " />
<text x="0" y="0" stroke="none" fill="#000000" transform="matrix(0.0666667 0 0 0.0666667 384.466 90.3333)" font-style="normal" font-weight="bold" font-size="200px" font-family="Arial" >
1-8</text>
<path stroke="none" fill="#000000" transform="matrix(0.0666667 0 0 0.0666667 -40.0003 -83)" d="M 1282.11,4313.64 L 1270.77,4320.19 L 1259.44,4313.64 L 1259.44,3990.79 L 1282.11,4003.88 L 1282.11,4313.64 Z " />
<path stroke="none" fill="#000000" transform="matrix(0.0666667 0 0 0.0666667 -40.0003 -83)" d="M 1340.23,4286.63 L 1317.55,4286.63 L 1317.55,4030.89 L 1340.23,4030.89 L 1340.23,4286.63 Z " />
<path stroke="none" fill="#000000" transform="matrix(0.0666667 0 0 0.0666667 -40.0003 -83)" d="M 1550.37,4468.52 L 1550.37,4494.7 L 1270.77,4333.28 L 1270.77,4320.19 L 1282.11,4313.64 L 1550.37,4468.52 Z " />
<path stroke="none" fill="#000000" transform="matrix(0.0666667 0 0 0.0666667 -40.0003 -83)" d="M 1818.63,4313.64 L 1841.31,4326.73 L 1550.37,4494.7 L 1550.37,4468.52 L 1818.63,4313.64 Z " />
<path stroke="none" fill="#000000" transform="matrix(0.0666667 0 0 0.0666667 -40.0003 -83)" d="M 1766.19,4276.81 L 1777.52,4296.45 L 1556.04,4424.33 L 1544.7,4404.69 L 1766.19,4276.81 Z " />
<path stroke="none" fill="#000000" transform="matrix(0.0666667 0 0 0.0666667 -40.0003 -83)" d="M 1818.63,4003.88 L 1829.97,3997.33 L 1841.31,4003.88 L 1841.31,4326.73 L 1818.63,4313.64 L 1818.63,4003.88 Z " />
<path stroke="none" fill="#000000" transform="matrix(0.0666667 0 0 0.0666667 -40.0003 -83)" d="M 1550.37,3849 L 1550.37,3822.82 L 1829.97,3984.24 L 1829.97,3997.33 L 1818.63,4003.88 L 1550.37,3849 Z " />
<path stroke="none" fill="#000000" transform="matrix(0.0666667 0 0 0.0666667 -40.0003 -83)" d="M 1544.7,3912.83 L 1556.04,3893.19 L 1777.52,4021.07 L 1766.19,4040.71 L 1544.7,3912.83 Z " />
<path stroke="none" fill="#000000" transform="matrix(0.0666667 0 0 0.0666667 -40.0003 -83)" d="M 1282.11,4003.88 L 1259.44,3990.79 L 1550.37,3822.82 L 1550.37,3849 L 1282.11,4003.88 Z " />
<path stroke="none" fill="#000000" transform="matrix(0.0666667 0 0 0.0666667 -40.0003 -83)" d="M 2098.23,3829.36 L 2109.57,3835.91 L 2109.57,3849 L 1841.31,4003.88 L 1829.97,3997.33 L 1829.97,3984.24 L 2098.23,3829.36 Z " />
<path stroke="none" fill="#000000" transform="matrix(0.0666667 0 0 0.0666667 -40.0003 -83)" d="M 2389.16,3984.24 L 2389.16,4010.43 L 2109.57,3849 L 2109.57,3835.91 L 2120.9,3829.36 L 2389.16,3984.24 Z " />
<path stroke="none" fill="#000000" transform="matrix(0.0666667 0 0 0.0666667 -40.0003 -83)" d="M 2394.83,3920.41 L 2383.49,3940.05 L 2162.01,3812.18 L 2173.35,3792.54 L 2394.83,3920.41 Z " />
<path stroke="none" fill="#000000" transform="matrix(0.0666667 0 0 0.0666667 -40.0003 -83)" d="M 2657.42,3829.36 L 2680.1,3842.46 L 2389.16,4010.43 L 2389.16,3984.24 L 2657.42,3829.36 Z " />
<path stroke="none" fill="#000000" transform="matrix(0.0666667 0 0 0.0666667 -40.0003 -83)" d="M 2657.42,3519.61 L 2680.1,3506.51 L 2680.1,3842.46 L 2657.42,3829.36 L 2657.42,3519.61 Z " />
<path stroke="none" fill="#000000" transform="matrix(0.0666667 0 0 0.0666667 -40.0003 -83)" d="M 2599.31,3546.61 L 2621.98,3546.61 L 2621.98,3802.36 L 2599.31,3802.36 L 2599.31,3546.61 Z " />
<path stroke="none" fill="#000000" transform="matrix(0.0666667 0 0 0.0666667 -40.0003 -83)" d="M 2389.16,3364.73 L 2389.16,3338.54 L 2680.1,3506.51 L 2657.42,3519.61 L 2389.16,3364.73 Z " />
<path stroke="none" fill="#000000" transform="matrix(0.0666667 0 0 0.0666667 -40.0003 -83)" d="M 2120.9,3519.61 L 2098.23,3506.51 L 2389.16,3338.54 L 2389.16,3364.73 L 2120.9,3519.61 Z " />
<path stroke="none" fill="#000000" transform="matrix(0.0666667 0 0 0.0666667 -40.0003 -83)" d="M 2173.35,3556.43 L 2162.01,3536.79 L 2383.49,3408.92 L 2394.83,3428.56 L 2173.35,3556.43 Z " />
<path stroke="none" fill="#000000" transform="matrix(0.0666667 0 0 0.0666667 -40.0003 -83)" d="M 2120.9,3829.36 L 2109.57,3835.91 L 2098.23,3829.36 L 2098.23,3506.51 L 2120.9,3519.61 L 2120.9,3829.36 Z " />
<text x="0" y="0" stroke="none" fill="#000000" transform="matrix(0.0666667 0 0 0.0666667 20.9104 220.989)" font-style="normal" font-weight="bold" font-size="200px" font-family="Arial" >
O</text>
<path stroke="none" fill="#000000" transform="matrix(0.0666667 0 0 0.0666667 -40.0003 -83)" d="M 1091.71,4436.66 L 1080.37,4417.02 L 1259.44,4313.64 L 1270.77,4320.19 L 1270.77,4333.28 L 1091.71,4436.66 Z " />
<path stroke="none" fill="#000000" transform="matrix(0.0666667 0 0 0.0666667 -40.0003 -83)" d="M 3101.54,4339.74 L 3090.2,4346.29 L 3078.87,4339.74 L 3078.87,4016.89 L 3101.54,4029.99 L 3101.54,4339.74 Z " />
<path stroke="none" fill="#000000" transform="matrix(0.0666667 0 0 0.0666667 -40.0003 -83)" d="M 3159.66,4312.74 L 3136.98,4312.74 L 3136.98,4056.99 L 3159.66,4056.99 L 3159.66,4312.74 Z " />
<path stroke="none" fill="#000000" transform="matrix(0.0666667 0 0 0.0666667 -40.0003 -83)" d="M 3369.8,4494.62 L 3369.8,4520.81 L 3090.2,4359.38 L 3090.2,4346.29 L 3101.54,4339.74 L 3369.8,4494.62 Z " />
<path stroke="none" fill="#000000" transform="matrix(0.0666667 0 0 0.0666667 -40.0003 -83)" d="M 3638.06,4339.74 L 3660.74,4352.84 L 3369.8,4520.81 L 3369.8,4494.62 L 3638.06,4339.74 Z " />
<path stroke="none" fill="#000000" transform="matrix(0.0666667 0 0 0.0666667 -40.0003 -83)" d="M 3585.62,4302.92 L 3596.95,4322.56 L 3375.47,4450.43 L 3364.13,4430.79 L 3585.62,4302.92 Z " />
<path stroke="none" fill="#000000" transform="matrix(0.0666667 0 0 0.0666667 -40.0003 -83)" d="M 3638.06,4029.99 L 3649.4,4023.44 L 3660.74,4029.98 L 3660.74,4352.84 L 3638.06,4339.74 L 3638.06,4029.99 Z " />
<path stroke="none" fill="#000000" transform="matrix(0.0666667 0 0 0.0666667 -40.0003 -83)" d="M 3369.8,3875.11 L 3369.8,3848.92 L 3649.4,4010.35 L 3649.4,4023.44 L 3638.06,4029.99 L 3369.8,3875.11 Z " />
<path stroke="none" fill="#000000" transform="matrix(0.0666667 0 0 0.0666667 -40.0003 -83)" d="M 3364.13,3938.94 L 3375.47,3919.3 L 3596.95,4047.17 L 3585.62,4066.81 L 3364.13,3938.94 Z " />
<path stroke="none" fill="#000000" transform="matrix(0.0666667 0 0 0.0666667 -40.0003 -83)" d="M 3101.54,4029.99 L 3078.87,4016.89 L 3369.8,3848.92 L 3369.8,3875.11 L 3101.54,4029.99 Z " />
<path stroke="none" fill="#000000" transform="matrix(0.0666667 0 0 0.0666667 -40.0003 -83)" d="M 3917.66,3855.47 L 3928.99,3862.01 L 3928.99,3875.11 L 3660.74,4029.98 L 3649.4,4023.44 L 3649.4,4010.35 L 3917.66,3855.47 Z " />
<path stroke="none" fill="#000000" transform="matrix(0.0666667 0 0 0.0666667 -40.0003 -83)" d="M 4208.59,4010.35 L 4208.59,4036.53 L 3928.99,3875.11 L 3928.99,3862.01 L 3940.33,3855.47 L 4208.59,4010.35 Z " />
<path stroke="none" fill="#000000" transform="matrix(0.0666667 0 0 0.0666667 -40.0003 -83)" d="M 4214.26,3946.52 L 4202.92,3966.15 L 3981.44,3838.28 L 3992.78,3818.64 L 4214.26,3946.52 Z " />
<path stroke="none" fill="#000000" transform="matrix(0.0666667 0 0 0.0666667 -40.0003 -83)" d="M 4476.85,3855.47 L 4499.53,3868.56 L 4208.59,4036.53 L 4208.59,4010.35 L 4476.85,3855.47 Z " />
<path stroke="none" fill="#000000" transform="matrix(0.0666667 0 0 0.0666667 -40.0003 -83)" d="M 4476.85,3545.71 L 4499.53,3532.62 L 4499.53,3868.56 L 4476.85,3855.47 L 4476.85,3545.71 Z " />
<path stroke="none" fill="#000000" transform="matrix(0.0666667 0 0 0.0666667 -40.0003 -83)" d="M 4418.74,3572.71 L 4441.41,3572.71 L 4441.41,3828.46 L 4418.74,3828.46 L 4418.74,3572.71 Z " />
<path stroke="none" fill="#000000" transform="matrix(0.0666667 0 0 0.0666667 -40.0003 -83)" d="M 4208.59,3390.83 L 4208.59,3364.64 L 4499.53,3532.62 L 4476.85,3545.71 L 4208.59,3390.83 Z " />
<path stroke="none" fill="#000000" transform="matrix(0.0666667 0 0 0.0666667 -40.0003 -83)" d="M 3940.33,3545.71 L 3917.66,3532.62 L 4208.59,3364.64 L 4208.59,3390.83 L 3940.33,3545.71 Z " />
<path stroke="none" fill="#000000" transform="matrix(0.0666667 0 0 0.0666667 -40.0003 -83)" d="M 3992.78,3582.53 L 3981.44,3562.89 L 4202.92,3435.02 L 4214.26,3454.66 L 3992.78,3582.53 Z " />
<path stroke="none" fill="#000000" transform="matrix(0.0666667 0 0 0.0666667 -40.0003 -83)" d="M 3940.33,3855.47 L 3928.99,3862.01 L 3917.66,3855.47 L 3917.66,3532.62 L 3940.33,3545.71 L 3940.33,3855.47 Z " />
<path stroke="none" fill="#000000" transform="matrix(0.0666667 0 0 0.0666667 -40.0003 -83)" d="M 2816.76,4517.26 L 2805.42,4497.62 L 3078.87,4339.74 L 3090.2,4346.29 L 3090.2,4359.38 L 2816.76,4517.26 Z " />
<path stroke="none" fill="#000000" transform="matrix(0.0666667 0 0 0.0666667 -40.0003 -83)" d="M 5236.83,4321.47 L 5225.49,4328.02 L 5214.15,4321.47 L 5214.15,3998.62 L 5236.83,4011.71 L 5236.83,4321.47 Z " />
<path stroke="none" fill="#000000" transform="matrix(0.0666667 0 0 0.0666667 -40.0003 -83)" d="M 5294.94,4294.47 L 5272.26,4294.47 L 5272.26,4038.72 L 5294.94,4038.72 L 5294.94,4294.47 Z " />
<path stroke="none" fill="#000000" transform="matrix(0.0666667 0 0 0.0666667 -40.0003 -83)" d="M 5505.08,4476.35 L 5505.08,4502.53 L 5225.49,4341.11 L 5225.49,4328.02 L 5236.83,4321.47 L 5505.08,4476.35 Z " />
<path stroke="none" fill="#000000" transform="matrix(0.0666667 0 0 0.0666667 -40.0003 -83)" d="M 5773.34,4321.47 L 5796.02,4334.56 L 5505.08,4502.53 L 5505.08,4476.35 L 5773.34,4321.47 Z " />
<path stroke="none" fill="#000000" transform="matrix(0.0666667 0 0 0.0666667 -40.0003 -83)" d="M 5720.9,4284.65 L 5732.24,4304.28 L 5510.75,4432.16 L 5499.42,4412.52 L 5720.9,4284.65 Z " />
<path stroke="none" fill="#000000" transform="matrix(0.0666667 0 0 0.0666667 -40.0003 -83)" d="M 5773.34,4011.71 L 5784.68,4005.17 L 5796.02,4011.71 L 5796.02,4334.56 L 5773.34,4321.47 L 5773.34,4011.71 Z " />
<path stroke="none" fill="#000000" transform="matrix(0.0666667 0 0 0.0666667 -40.0003 -83)" d="M 5505.08,3856.83 L 5505.08,3830.65 L 5784.68,3992.07 L 5784.68,4005.17 L 5773.34,4011.71 L 5505.08,3856.83 Z " />
<path stroke="none" fill="#000000" transform="matrix(0.0666667 0 0 0.0666667 -40.0003 -83)" d="M 5499.42,3920.66 L 5510.75,3901.02 L 5732.24,4028.9 L 5720.9,4048.54 L 5499.42,3920.66 Z " />
<path stroke="none" fill="#000000" transform="matrix(0.0666667 0 0 0.0666667 -40.0003 -83)" d="M 5236.83,4011.71 L 5214.15,3998.62 L 5505.08,3830.65 L 5505.08,3856.83 L 5236.83,4011.71 Z " />
<path stroke="none" fill="#000000" transform="matrix(0.0666667 0 0 0.0666667 -40.0003 -83)" d="M 6052.94,3837.19 L 6064.28,3843.74 L 6064.28,3856.83 L 5796.02,4011.71 L 5784.68,4005.17 L 5784.68,3992.07 L 6052.94,3837.19 Z " />
<path stroke="none" fill="#000000" transform="matrix(0.0666667 0 0 0.0666667 -40.0003 -83)" d="M 6343.88,3992.07 L 6343.88,4018.26 L 6064.28,3856.83 L 6064.28,3843.74 L 6075.62,3837.19 L 6343.88,3992.07 Z " />
<path stroke="none" fill="#000000" transform="matrix(0.0666667 0 0 0.0666667 -40.0003 -83)" d="M 6349.54,3928.24 L 6338.21,3947.88 L 6116.72,3820.01 L 6128.06,3800.37 L 6349.54,3928.24 Z " />
<path stroke="none" fill="#000000" transform="matrix(0.0666667 0 0 0.0666667 -40.0003 -83)" d="M 6612.13,3837.19 L 6634.81,3850.29 L 6343.88,4018.26 L 6343.88,3992.07 L 6612.13,3837.19 Z " />
<path stroke="none" fill="#000000" transform="matrix(0.0666667 0 0 0.0666667 -40.0003 -83)" d="M 6612.13,3527.44 L 6634.81,3514.34 L 6634.81,3850.29 L 6612.13,3837.19 L 6612.13,3527.44 Z " />
<path stroke="none" fill="#000000" transform="matrix(0.0666667 0 0 0.0666667 -40.0003 -83)" d="M 6554.02,3554.44 L 6576.7,3554.44 L 6576.7,3810.19 L 6554.02,3810.19 L 6554.02,3554.44 Z " />
<path stroke="none" fill="#000000" transform="matrix(0.0666667 0 0 0.0666667 -40.0003 -83)" d="M 6343.88,3372.56 L 6343.88,3346.37 L 6634.81,3514.34 L 6612.13,3527.44 L 6343.88,3372.56 Z " />
<path stroke="none" fill="#000000" transform="matrix(0.0666667 0 0 0.0666667 -40.0003 -83)" d="M 6075.62,3527.44 L 6052.94,3514.34 L 6343.88,3346.37 L 6343.88,3372.56 L 6075.62,3527.44 Z " />
<path stroke="none" fill="#000000" transform="matrix(0.0666667 0 0 0.0666667 -40.0003 -83)" d="M 6128.06,3564.26 L 6116.72,3544.62 L 6338.21,3416.75 L 6349.54,3436.39 L 6128.06,3564.26 Z " />
<path stroke="none" fill="#000000" transform="matrix(0.0666667 0 0 0.0666667 -40.0003 -83)" d="M 6075.62,3837.19 L 6064.28,3843.74 L 6052.94,3837.19 L 6052.94,3514.34 L 6075.62,3527.44 L 6075.62,3837.19 Z " />
<text x="0" y="0" stroke="none" fill="#000000" transform="matrix(0.0666667 0 0 0.0666667 275.3 221.511)" font-style="normal" font-weight="bold" font-size="200px" font-family="Arial" >
NC</text>
<path stroke="none" fill="#000000" transform="matrix(0.0666667 0 0 0.0666667 -40.0003 -83)" d="M 5045.26,4445.17 L 5033.92,4425.53 L 5214.15,4321.47 L 5225.49,4328.02 L 5225.49,4341.11 L 5045.26,4445.17 Z " />
<path stroke="none" fill="#000000" transform="matrix(0.0666667 0 0 0.0666667 -40.0003 -83)" d="M 7633.86,4256.21 L 7622.52,4262.76 L 7611.18,4256.21 L 7611.18,3933.36 L 7633.86,3946.45 L 7633.86,4256.21 Z " />
<path stroke="none" fill="#000000" transform="matrix(0.0666667 0 0 0.0666667 -40.0003 -83)" d="M 7691.97,4229.21 L 7669.29,4229.21 L 7669.29,3973.46 L 7691.97,3973.46 L 7691.97,4229.21 Z " />
<path stroke="none" fill="#000000" transform="matrix(0.0666667 0 0 0.0666667 -40.0003 -83)" d="M 7902.11,4411.09 L 7902.11,4437.28 L 7622.52,4275.85 L 7622.52,4262.76 L 7633.86,4256.21 L 7902.11,4411.09 Z " />
<path stroke="none" fill="#000000" transform="matrix(0.0666667 0 0 0.0666667 -40.0003 -83)" d="M 8170.37,4256.21 L 8193.05,4269.3 L 7902.11,4437.28 L 7902.11,4411.09 L 8170.37,4256.21 Z " />
<path stroke="none" fill="#000000" transform="matrix(0.0666667 0 0 0.0666667 -40.0003 -83)" d="M 8117.93,4219.39 L 8129.27,4239.03 L 7907.78,4366.9 L 7896.44,4347.26 L 8117.93,4219.39 Z " />
<path stroke="none" fill="#000000" transform="matrix(0.0666667 0 0 0.0666667 -40.0003 -83)" d="M 8170.37,3946.45 L 8181.71,3939.91 L 8193.05,3946.45 L 8193.05,4269.3 L 8170.37,4256.21 L 8170.37,3946.45 Z " />
<path stroke="none" fill="#000000" transform="matrix(0.0666667 0 0 0.0666667 -40.0003 -83)" d="M 7902.11,3791.57 L 7902.11,3765.39 L 8181.71,3926.81 L 8181.71,3939.91 L 8170.37,3946.45 L 7902.11,3791.57 Z " />
<path stroke="none" fill="#000000" transform="matrix(0.0666667 0 0 0.0666667 -40.0003 -83)" d="M 7896.44,3855.4 L 7907.78,3835.77 L 8129.27,3963.64 L 8117.93,3983.28 L 7896.44,3855.4 Z " />
<path stroke="none" fill="#000000" transform="matrix(0.0666667 0 0 0.0666667 -40.0003 -83)" d="M 7633.86,3946.45 L 7611.18,3933.36 L 7902.11,3765.39 L 7902.11,3791.57 L 7633.86,3946.45 Z " />
<path stroke="none" fill="#000000" transform="matrix(0.0666667 0 0 0.0666667 -40.0003 -83)" d="M 8449.97,3771.93 L 8461.31,3778.48 L 8461.31,3791.57 L 8193.05,3946.45 L 8181.71,3939.91 L 8181.71,3926.81 L 8449.97,3771.93 Z " />
<path stroke="none" fill="#000000" transform="matrix(0.0666667 0 0 0.0666667 -40.0003 -83)" d="M 8740.9,3926.81 L 8740.9,3953 L 8461.31,3791.57 L 8461.31,3778.48 L 8472.65,3771.93 L 8740.9,3926.81 Z " />
<path stroke="none" fill="#000000" transform="matrix(0.0666667 0 0 0.0666667 -40.0003 -83)" d="M 8746.57,3862.98 L 8735.24,3882.62 L 8513.75,3754.75 L 8525.09,3735.11 L 8746.57,3862.98 Z " />
<path stroke="none" fill="#000000" transform="matrix(0.0666667 0 0 0.0666667 -40.0003 -83)" d="M 9009.16,3771.93 L 9031.84,3785.03 L 8740.9,3953 L 8740.9,3926.81 L 9009.16,3771.93 Z " />
<path stroke="none" fill="#000000" transform="matrix(0.0666667 0 0 0.0666667 -40.0003 -83)" d="M 9009.16,3462.18 L 9031.84,3449.08 L 9031.84,3785.03 L 9009.16,3771.93 L 9009.16,3462.18 Z " />
<path stroke="none" fill="#000000" transform="matrix(0.0666667 0 0 0.0666667 -40.0003 -83)" d="M 8951.05,3489.18 L 8973.73,3489.18 L 8973.73,3744.93 L 8951.05,3744.93 L 8951.05,3489.18 Z " />
<path stroke="none" fill="#000000" transform="matrix(0.0666667 0 0 0.0666667 -40.0003 -83)" d="M 8740.9,3307.3 L 8740.9,3281.11 L 9031.84,3449.08 L 9009.16,3462.18 L 8740.9,3307.3 Z " />
<path stroke="none" fill="#000000" transform="matrix(0.0666667 0 0 0.0666667 -40.0003 -83)" d="M 8472.65,3462.18 L 8449.97,3449.08 L 8740.9,3281.11 L 8740.9,3307.3 L 8472.65,3462.18 Z " />
<path stroke="none" fill="#000000" transform="matrix(0.0666667 0 0 0.0666667 -40.0003 -83)" d="M 8525.09,3499 L 8513.75,3479.36 L 8735.24,3351.49 L 8746.57,3371.13 L 8525.09,3499 Z " />
<path stroke="none" fill="#000000" transform="matrix(0.0666667 0 0 0.0666667 -40.0003 -83)" d="M 8472.65,3771.93 L 8461.31,3778.48 L 8449.97,3771.93 L 8449.97,3449.08 L 8472.65,3462.18 L 8472.65,3771.93 Z " />
<path stroke="none" fill="#000000" transform="matrix(0.0666667 0 0 0.0666667 -40.0003 -83)" d="M 7343.4,4437 L 7343.4,4410.81 L 7611.18,4256.21 L 7622.52,4262.76 L 7622.52,4275.85 L 7343.4,4437 Z " />
<path stroke="none" fill="#000000" transform="matrix(0.0666667 0 0 0.0666667 -40.0003 -83)" d="M 7058.17,4272.32 L 7069.5,4252.68 L 7343.4,4410.81 L 7343.4,4437 L 7058.17,4272.32 Z " />
<text x="0" y="0" stroke="none" fill="#000000" transform="matrix(0.0666667 0 0 0.0666667 444.36 238.681)" font-style="normal" font-weight="bold" font-size="200px" font-family="Arial" >
O</text>
<path stroke="none" fill="#000000" transform="matrix(0.0666667 0 0 0.0666667 -40.0003 -83)" d="M 7383.79,4638.13 L 7361.12,4638.13 L 7361.12,4407.13 L 7383.79,4407.13 L 7383.79,4638.13 Z " />
<path stroke="none" fill="#000000" transform="matrix(0.0666667 0 0 0.0666667 -40.0003 -83)" d="M 7325.69,4638.13 L 7303.01,4638.13 L 7303.01,4407.13 L 7325.69,4407.13 L 7325.69,4638.13 Z " />
<path stroke="none" fill="#000000" transform="matrix(0.0666667 0 0 0.0666667 -40.0003 -83)" d="M 1021.08,6114.8 L 998.399,6127.89 L 998.399,5791.94 L 1021.08,5805.04 L 1021.08,6114.8 Z " />
<path stroke="none" fill="#000000" transform="matrix(0.0666667 0 0 0.0666667 -40.0003 -83)" d="M 1079.19,6087.79 L 1056.51,6087.79 L 1056.51,5832.04 L 1079.19,5832.04 L 1079.19,6087.79 Z " />
<path stroke="none" fill="#000000" transform="matrix(0.0666667 0 0 0.0666667 -40.0003 -83)" d="M 1289.33,6269.67 L 1289.33,6295.86 L 998.399,6127.89 L 1021.08,6114.8 L 1289.33,6269.67 Z " />
<path stroke="none" fill="#000000" transform="matrix(0.0666667 0 0 0.0666667 -40.0003 -83)" d="M 1557.59,6114.8 L 1568.93,6121.34 L 1568.93,6134.43 L 1289.33,6295.86 L 1289.33,6269.67 L 1557.59,6114.8 Z " />
<path stroke="none" fill="#000000" transform="matrix(0.0666667 0 0 0.0666667 -40.0003 -83)" d="M 1505.15,6077.97 L 1516.49,6097.61 L 1295,6225.48 L 1283.67,6205.84 L 1505.15,6077.97 Z " />
<path stroke="none" fill="#000000" transform="matrix(0.0666667 0 0 0.0666667 -40.0003 -83)" d="M 1557.59,5805.04 L 1568.93,5798.49 L 1580.27,5805.04 L 1580.27,6114.8 L 1568.93,6121.34 L 1557.59,6114.8 L 1557.59,5805.04 Z " />
<path stroke="none" fill="#000000" transform="matrix(0.0666667 0 0 0.0666667 -40.0003 -83)" d="M 1289.33,5650.16 L 1289.33,5623.97 L 1568.93,5785.4 L 1568.93,5798.49 L 1557.59,5805.04 L 1289.33,5650.16 Z " />
<path stroke="none" fill="#000000" transform="matrix(0.0666667 0 0 0.0666667 -40.0003 -83)" d="M 1283.67,5713.99 L 1295,5694.35 L 1516.49,5822.22 L 1505.15,5841.86 L 1283.67,5713.99 Z " />
<path stroke="none" fill="#000000" transform="matrix(0.0666667 0 0 0.0666667 -40.0003 -83)" d="M 1021.08,5805.04 L 998.399,5791.94 L 1289.33,5623.97 L 1289.33,5650.16 L 1021.08,5805.04 Z " />
<path stroke="none" fill="#000000" transform="matrix(0.0666667 0 0 0.0666667 -40.0003 -83)" d="M 1837.19,5630.52 L 1848.53,5637.07 L 1848.53,5650.16 L 1580.27,5805.04 L 1568.93,5798.49 L 1568.93,5785.4 L 1837.19,5630.52 Z " />
<path stroke="none" fill="#000000" transform="matrix(0.0666667 0 0 0.0666667 -40.0003 -83)" d="M 2128.13,5785.4 L 2128.13,5811.58 L 1848.53,5650.16 L 1848.53,5637.07 L 1859.87,5630.52 L 2128.13,5785.4 Z " />
<path stroke="none" fill="#000000" transform="matrix(0.0666667 0 0 0.0666667 -40.0003 -83)" d="M 2133.79,5721.57 L 2122.46,5741.21 L 1900.97,5613.33 L 1912.31,5593.69 L 2133.79,5721.57 Z " />
<path stroke="none" fill="#000000" transform="matrix(0.0666667 0 0 0.0666667 -40.0003 -83)" d="M 2396.38,5630.52 L 2419.06,5643.61 L 2128.13,5811.58 L 2128.13,5785.4 L 2396.38,5630.52 Z " />
<path stroke="none" fill="#000000" transform="matrix(0.0666667 0 0 0.0666667 -40.0003 -83)" d="M 2396.38,5320.76 L 2419.06,5307.67 L 2419.06,5643.61 L 2396.38,5630.52 L 2396.38,5320.76 Z " />
<path stroke="none" fill="#000000" transform="matrix(0.0666667 0 0 0.0666667 -40.0003 -83)" d="M 2338.27,5347.77 L 2360.95,5347.77 L 2360.95,5603.51 L 2338.27,5603.51 L 2338.27,5347.77 Z " />
<path stroke="none" fill="#000000" transform="matrix(0.0666667 0 0 0.0666667 -40.0003 -83)" d="M 2128.13,5165.88 L 2128.13,5139.7 L 2419.06,5307.67 L 2396.38,5320.76 L 2128.13,5165.88 Z " />
<path stroke="none" fill="#000000" transform="matrix(0.0666667 0 0 0.0666667 -40.0003 -83)" d="M 1859.87,5320.76 L 1837.19,5307.67 L 2128.13,5139.7 L 2128.13,5165.88 L 1859.87,5320.76 Z " />
<path stroke="none" fill="#000000" transform="matrix(0.0666667 0 0 0.0666667 -40.0003 -83)" d="M 1912.31,5357.59 L 1900.97,5337.95 L 2122.46,5210.07 L 2133.79,5229.71 L 1912.31,5357.59 Z " />
<path stroke="none" fill="#000000" transform="matrix(0.0666667 0 0 0.0666667 -40.0003 -83)" d="M 1859.87,5630.52 L 1848.53,5637.07 L 1837.19,5630.52 L 1837.19,5307.67 L 1859.87,5320.76 L 1859.87,5630.52 Z " />
<text x="0" y="0" stroke="none" fill="#000000" transform="matrix(0.0666667 0 0 0.0666667 78.4329 341.083)" font-style="normal" font-weight="bold" font-size="200px" font-family="Arial" >
CHO</text>
<path stroke="none" fill="#000000" transform="matrix(0.0666667 0 0 0.0666667 -40.0003 -83)" d="M 1764.95,6221.42 L 1753.61,6241.06 L 1568.93,6134.43 L 1568.93,6121.34 L 1580.27,6114.8 L 1764.95,6221.42 Z " />
<path stroke="none" fill="#000000" transform="matrix(0.0666667 0 0 0.0666667 -40.0003 -83)" d="M 706.424,4329.74 L 717.762,4310.11 L 903.064,4417.09 L 891.725,4436.73 L 706.424,4329.74 Z " />
<path stroke="none" fill="#000000" transform="matrix(0.0666667 0 0 0.0666667 -40.0003 -83)" d="M 2926.65,6180.06 L 2903.97,6193.15 L 2903.97,5857.2 L 2926.65,5870.3 L 2926.65,6180.06 Z " />
<path stroke="none" fill="#000000" transform="matrix(0.0666667 0 0 0.0666667 -40.0003 -83)" d="M 2984.76,6153.05 L 2962.08,6153.05 L 2962.08,5897.3 L 2984.76,5897.3 L 2984.76,6153.05 Z " />
<path stroke="none" fill="#000000" transform="matrix(0.0666667 0 0 0.0666667 -40.0003 -83)" d="M 3194.91,6334.93 L 3194.91,6361.12 L 2903.97,6193.15 L 2926.65,6180.06 L 3194.91,6334.93 Z " />
<path stroke="none" fill="#000000" transform="matrix(0.0666667 0 0 0.0666667 -40.0003 -83)" d="M 3463.16,6180.06 L 3474.5,6186.6 L 3474.5,6199.69 L 3194.91,6361.12 L 3194.91,6334.93 L 3463.16,6180.06 Z " />
<path stroke="none" fill="#000000" transform="matrix(0.0666667 0 0 0.0666667 -40.0003 -83)" d="M 3410.72,6143.23 L 3422.06,6162.87 L 3200.57,6290.74 L 3189.24,6271.1 L 3410.72,6143.23 Z " />
<path stroke="none" fill="#000000" transform="matrix(0.0666667 0 0 0.0666667 -40.0003 -83)" d="M 3463.16,5870.3 L 3474.5,5863.75 L 3485.84,5870.3 L 3485.84,6180.06 L 3474.5,6186.6 L 3463.16,6180.06 L 3463.16,5870.3 Z " />
<path stroke="none" fill="#000000" transform="matrix(0.0666667 0 0 0.0666667 -40.0003 -83)" d="M 3194.91,5715.42 L 3194.91,5689.23 L 3474.5,5850.66 L 3474.5,5863.75 L 3463.16,5870.3 L 3194.91,5715.42 Z " />
<path stroke="none" fill="#000000" transform="matrix(0.0666667 0 0 0.0666667 -40.0003 -83)" d="M 3189.24,5779.25 L 3200.57,5759.61 L 3422.06,5887.48 L 3410.72,5907.12 L 3189.24,5779.25 Z " />
<path stroke="none" fill="#000000" transform="matrix(0.0666667 0 0 0.0666667 -40.0003 -83)" d="M 2926.65,5870.3 L 2903.97,5857.2 L 3194.91,5689.23 L 3194.91,5715.42 L 2926.65,5870.3 Z " />
<path stroke="none" fill="#000000" transform="matrix(0.0666667 0 0 0.0666667 -40.0003 -83)" d="M 3742.76,5695.78 L 3754.1,5702.33 L 3754.1,5715.42 L 3485.84,5870.3 L 3474.5,5863.75 L 3474.5,5850.66 L 3742.76,5695.78 Z " />
<path stroke="none" fill="#000000" transform="matrix(0.0666667 0 0 0.0666667 -40.0003 -83)" d="M 4033.7,5850.66 L 4033.7,5876.84 L 3754.1,5715.42 L 3754.1,5702.33 L 3765.44,5695.78 L 4033.7,5850.66 Z " />
<path stroke="none" fill="#000000" transform="matrix(0.0666667 0 0 0.0666667 -40.0003 -83)" d="M 4039.37,5786.83 L 4028.03,5806.47 L 3806.54,5678.59 L 3817.88,5658.95 L 4039.37,5786.83 Z " />
<path stroke="none" fill="#000000" transform="matrix(0.0666667 0 0 0.0666667 -40.0003 -83)" d="M 4301.96,5695.78 L 4324.63,5708.87 L 4033.7,5876.84 L 4033.7,5850.66 L 4301.96,5695.78 Z " />
<path stroke="none" fill="#000000" transform="matrix(0.0666667 0 0 0.0666667 -40.0003 -83)" d="M 4301.96,5386.02 L 4324.63,5372.93 L 4324.63,5708.87 L 4301.96,5695.78 L 4301.96,5386.02 Z " />
<path stroke="none" fill="#000000" transform="matrix(0.0666667 0 0 0.0666667 -40.0003 -83)" d="M 4243.84,5413.03 L 4266.52,5413.03 L 4266.52,5668.77 L 4243.84,5668.77 L 4243.84,5413.03 Z " />
<path stroke="none" fill="#000000" transform="matrix(0.0666667 0 0 0.0666667 -40.0003 -83)" d="M 4033.7,5231.14 L 4033.7,5204.96 L 4324.63,5372.93 L 4301.96,5386.02 L 4033.7,5231.14 Z " />
<path stroke="none" fill="#000000" transform="matrix(0.0666667 0 0 0.0666667 -40.0003 -83)" d="M 3765.44,5386.02 L 3742.76,5372.93 L 4033.7,5204.96 L 4033.7,5231.14 L 3765.44,5386.02 Z " />
<path stroke="none" fill="#000000" transform="matrix(0.0666667 0 0 0.0666667 -40.0003 -83)" d="M 3817.88,5422.85 L 3806.54,5403.21 L 4028.03,5275.33 L 4039.37,5294.97 L 3817.88,5422.85 Z " />
<path stroke="none" fill="#000000" transform="matrix(0.0666667 0 0 0.0666667 -40.0003 -83)" d="M 3765.44,5695.78 L 3754.1,5702.33 L 3742.76,5695.78 L 3742.76,5372.93 L 3765.44,5386.02 L 3765.44,5695.78 Z " />
<text x="0" y="0" stroke="none" fill="#000000" transform="matrix(0.0666667 0 0 0.0666667 205.071 345.434)" font-style="normal" font-weight="bold" font-size="200px" font-family="Arial" >
O</text>
<path stroke="none" fill="#000000" transform="matrix(0.0666667 0 0 0.0666667 -40.0003 -83)" d="M 3665.47,6283.77 L 3654.14,6303.4 L 3474.5,6199.69 L 3474.5,6186.6 L 3485.84,6180.06 L 3665.47,6283.77 Z " />
<path stroke="none" fill="#000000" transform="matrix(0.0666667 0 0 0.0666667 -40.0003 -83)" d="M 4027.97,6176.78 L 4039.31,6196.42 L 3854.12,6303.34 L 3842.78,6283.7 L 4027.97,6176.78 Z " />
<path stroke="none" fill="#000000" transform="matrix(0.0666667 0 0 0.0666667 -40.0003 -83)" d="M 5158.51,6114.8 L 5135.84,6127.89 L 5135.84,5791.95 L 5158.51,5805.04 L 5158.51,6114.8 Z " />
<path stroke="none" fill="#000000" transform="matrix(0.0666667 0 0 0.0666667 -40.0003 -83)" d="M 5216.63,6087.79 L 5193.95,6087.79 L 5193.95,5832.04 L 5216.63,5832.04 L 5216.63,6087.79 Z " />
<path stroke="none" fill="#000000" transform="matrix(0.0666667 0 0 0.0666667 -40.0003 -83)" d="M 5426.77,6269.68 L 5426.77,6295.86 L 5135.84,6127.89 L 5158.51,6114.8 L 5426.77,6269.68 Z " />
<path stroke="none" fill="#000000" transform="matrix(0.0666667 0 0 0.0666667 -40.0003 -83)" d="M 5695.03,6114.8 L 5706.37,6121.34 L 5706.37,6134.44 L 5426.77,6295.86 L 5426.77,6269.68 L 5695.03,6114.8 Z " />
<path stroke="none" fill="#000000" transform="matrix(0.0666667 0 0 0.0666667 -40.0003 -83)" d="M 5642.59,6077.97 L 5653.93,6097.61 L 5432.44,6225.48 L 5421.1,6205.84 L 5642.59,6077.97 Z " />
<path stroke="none" fill="#000000" transform="matrix(0.0666667 0 0 0.0666667 -40.0003 -83)" d="M 5695.03,5805.04 L 5706.37,5798.49 L 5717.71,5805.04 L 5717.71,6114.8 L 5706.37,6121.34 L 5695.03,6114.8 L 5695.03,5805.04 Z " />
<path stroke="none" fill="#000000" transform="matrix(0.0666667 0 0 0.0666667 -40.0003 -83)" d="M 5426.77,5650.16 L 5426.77,5637.07 L 5438.11,5630.52 L 5706.37,5785.4 L 5706.37,5798.49 L 5695.03,5805.04 L 5426.77,5650.16 Z " />
<path stroke="none" fill="#000000" transform="matrix(0.0666667 0 0 0.0666667 -40.0003 -83)" d="M 5421.1,5713.99 L 5432.44,5694.35 L 5653.93,5822.22 L 5642.59,5841.86 L 5421.1,5713.99 Z " />
<path stroke="none" fill="#000000" transform="matrix(0.0666667 0 0 0.0666667 -40.0003 -83)" d="M 5158.51,5805.04 L 5135.84,5791.95 L 5415.43,5630.52 L 5426.77,5637.07 L 5426.77,5650.16 L 5158.51,5805.04 Z " />
<path stroke="none" fill="#000000" transform="matrix(0.0666667 0 0 0.0666667 -40.0003 -83)" d="M 5974.63,5630.52 L 5985.97,5637.07 L 5985.97,5650.16 L 5717.71,5805.04 L 5706.37,5798.49 L 5706.37,5785.4 L 5974.63,5630.52 Z " />
<path stroke="none" fill="#000000" transform="matrix(0.0666667 0 0 0.0666667 -40.0003 -83)" d="M 6265.56,5785.4 L 6265.56,5811.58 L 5985.97,5650.16 L 5985.97,5637.07 L 5997.31,5630.52 L 6265.56,5785.4 Z " />
<path stroke="none" fill="#000000" transform="matrix(0.0666667 0 0 0.0666667 -40.0003 -83)" d="M 6271.23,5721.57 L 6259.9,5741.21 L 6038.41,5613.33 L 6049.75,5593.69 L 6271.23,5721.57 Z " />
<path stroke="none" fill="#000000" transform="matrix(0.0666667 0 0 0.0666667 -40.0003 -83)" d="M 6533.82,5630.52 L 6556.5,5643.61 L 6265.56,5811.58 L 6265.56,5785.4 L 6533.82,5630.52 Z " />
<path stroke="none" fill="#000000" transform="matrix(0.0666667 0 0 0.0666667 -40.0003 -83)" d="M 6533.82,5320.76 L 6556.5,5307.67 L 6556.5,5643.61 L 6533.82,5630.52 L 6533.82,5320.76 Z " />
<path stroke="none" fill="#000000" transform="matrix(0.0666667 0 0 0.0666667 -40.0003 -83)" d="M 6475.71,5347.77 L 6498.39,5347.77 L 6498.39,5603.51 L 6475.71,5603.51 L 6475.71,5347.77 Z " />
<path stroke="none" fill="#000000" transform="matrix(0.0666667 0 0 0.0666667 -40.0003 -83)" d="M 6265.56,5165.88 L 6265.56,5139.7 L 6556.5,5307.67 L 6533.82,5320.76 L 6265.56,5165.88 Z " />
<path stroke="none" fill="#000000" transform="matrix(0.0666667 0 0 0.0666667 -40.0003 -83)" d="M 5997.31,5320.76 L 5974.63,5307.67 L 6265.56,5139.7 L 6265.56,5165.88 L 5997.31,5320.76 Z " />
<path stroke="none" fill="#000000" transform="matrix(0.0666667 0 0 0.0666667 -40.0003 -83)" d="M 6049.75,5357.59 L 6038.41,5337.95 L 6259.9,5210.07 L 6271.23,5229.71 L 6049.75,5357.59 Z " />
<path stroke="none" fill="#000000" transform="matrix(0.0666667 0 0 0.0666667 -40.0003 -83)" d="M 5997.31,5630.52 L 5985.97,5637.07 L 5974.63,5630.52 L 5974.63,5307.67 L 5997.31,5320.76 L 5997.31,5630.52 Z " />
<path stroke="none" fill="#000000" transform="matrix(0.0666667 0 0 0.0666667 -40.0003 -83)" d="M 5991.61,6272.93 L 5980.27,6292.57 L 5706.37,6134.44 L 5706.37,6121.34 L 5717.71,6114.8 L 5991.61,6272.93 Z " />
<path stroke="none" fill="#000000" transform="matrix(0.0666667 0 0 0.0666667 -40.0003 -83)" d="M 5415.43,5314.25 L 5438.11,5314.25 L 5438.11,5630.52 L 5426.77,5637.07 L 5415.43,5630.52 L 5415.43,5314.25 Z " />
<path stroke="none" fill="#000000" transform="matrix(0.0666667 0 0 0.0666667 -40.0003 -83)" d="M 7547.01,6140.9 L 7524.33,6153.99 L 7524.33,5831.14 L 7535.67,5824.6 L 7547.01,5831.14 L 7547.01,6140.9 Z " />
<path stroke="none" fill="#000000" transform="matrix(0.0666667 0 0 0.0666667 -40.0003 -83)" d="M 7605.12,6113.89 L 7582.44,6113.89 L 7582.44,5858.15 L 7605.12,5858.15 L 7605.12,6113.89 Z " />
<path stroke="none" fill="#000000" transform="matrix(0.0666667 0 0 0.0666667 -40.0003 -83)" d="M 7815.26,6295.78 L 7815.26,6321.96 L 7524.33,6153.99 L 7547.01,6140.9 L 7815.26,6295.78 Z " />
<path stroke="none" fill="#000000" transform="matrix(0.0666667 0 0 0.0666667 -40.0003 -83)" d="M 8083.52,6140.9 L 8106.2,6153.99 L 7815.26,6321.96 L 7815.26,6295.78 L 8083.52,6140.9 Z " />
<path stroke="none" fill="#000000" transform="matrix(0.0666667 0 0 0.0666667 -40.0003 -83)" d="M 8031.08,6104.08 L 8042.42,6123.71 L 7820.93,6251.59 L 7809.59,6231.95 L 8031.08,6104.08 Z " />
<path stroke="none" fill="#000000" transform="matrix(0.0666667 0 0 0.0666667 -40.0003 -83)" d="M 8083.52,5831.14 L 8094.86,5824.6 L 8106.2,5831.14 L 8106.2,6153.99 L 8083.52,6140.9 L 8083.52,5831.14 Z " />
<path stroke="none" fill="#000000" transform="matrix(0.0666667 0 0 0.0666667 -40.0003 -83)" d="M 7815.26,5676.26 L 7815.26,5650.08 L 8094.86,5811.5 L 8094.86,5824.6 L 8083.52,5831.14 L 7815.26,5676.26 Z " />
<path stroke="none" fill="#000000" transform="matrix(0.0666667 0 0 0.0666667 -40.0003 -83)" d="M 7809.59,5740.09 L 7820.93,5720.45 L 8042.42,5848.33 L 8031.08,5867.97 L 7809.59,5740.09 Z " />
<path stroke="none" fill="#000000" transform="matrix(0.0666667 0 0 0.0666667 -40.0003 -83)" d="M 7547.01,5831.14 L 7535.67,5824.6 L 7535.67,5811.5 L 7815.26,5650.08 L 7815.26,5676.26 L 7547.01,5831.14 Z " />
<path stroke="none" fill="#000000" transform="matrix(0.0666667 0 0 0.0666667 -40.0003 -83)" d="M 8363.12,5656.62 L 8374.46,5663.17 L 8374.46,5676.26 L 8106.2,5831.14 L 8094.86,5824.6 L 8094.86,5811.5 L 8363.12,5656.62 Z " />
<path stroke="none" fill="#000000" transform="matrix(0.0666667 0 0 0.0666667 -40.0003 -83)" d="M 8654.06,5811.5 L 8654.06,5837.69 L 8374.46,5676.26 L 8374.46,5663.17 L 8385.8,5656.62 L 8654.06,5811.5 Z " />
<path stroke="none" fill="#000000" transform="matrix(0.0666667 0 0 0.0666667 -40.0003 -83)" d="M 8659.72,5747.67 L 8648.39,5767.31 L 8426.9,5639.44 L 8438.24,5619.8 L 8659.72,5747.67 Z " />
<path stroke="none" fill="#000000" transform="matrix(0.0666667 0 0 0.0666667 -40.0003 -83)" d="M 8922.31,5656.62 L 8944.99,5669.72 L 8654.06,5837.69 L 8654.06,5811.5 L 8922.31,5656.62 Z " />
<path stroke="none" fill="#000000" transform="matrix(0.0666667 0 0 0.0666667 -40.0003 -83)" d="M 8922.31,5346.87 L 8944.99,5333.77 L 8944.99,5669.72 L 8922.31,5656.62 L 8922.31,5346.87 Z " />
<path stroke="none" fill="#000000" transform="matrix(0.0666667 0 0 0.0666667 -40.0003 -83)" d="M 8864.2,5373.87 L 8886.88,5373.87 L 8886.88,5629.62 L 8864.2,5629.62 L 8864.2,5373.87 Z " />
<path stroke="none" fill="#000000" transform="matrix(0.0666667 0 0 0.0666667 -40.0003 -83)" d="M 8654.06,5191.99 L 8654.06,5165.8 L 8944.99,5333.77 L 8922.31,5346.87 L 8654.06,5191.99 Z " />
<path stroke="none" fill="#000000" transform="matrix(0.0666667 0 0 0.0666667 -40.0003 -83)" d="M 8385.8,5346.87 L 8363.12,5333.77 L 8654.06,5165.8 L 8654.06,5191.99 L 8385.8,5346.87 Z " />
<path stroke="none" fill="#000000" transform="matrix(0.0666667 0 0 0.0666667 -40.0003 -83)" d="M 8438.24,5383.69 L 8426.9,5364.05 L 8648.39,5236.18 L 8659.72,5255.82 L 8438.24,5383.69 Z " />
<path stroke="none" fill="#000000" transform="matrix(0.0666667 0 0 0.0666667 -40.0003 -83)" d="M 8385.8,5656.62 L 8374.46,5663.17 L 8363.12,5656.62 L 8363.12,5333.77 L 8385.8,5346.87 L 8385.8,5656.62 Z " />
<path stroke="none" fill="#000000" transform="matrix(0.0666667 0 0 0.0666667 -40.0003 -83)" d="M 7250.43,5673.01 L 7261.77,5653.37 L 7535.67,5811.5 L 7535.67,5824.6 L 7524.33,5831.14 L 7250.43,5673.01 Z " />
<text x="0" y="0" stroke="none" fill="#000000" transform="matrix(0.0666667 0 0 0.0666667 42.8789 243.639)" font-style="normal" font-weight="bold" font-size="208px" font-family="Arial" >
2</text>
<text x="0" y="0" stroke="none" fill="#000000" transform="matrix(0.0666667 0 0 0.0666667 50.6122 243.639)" font-style="normal" font-weight="normal" font-size="208px" font-family="Arial" >
, </text>
<text x="0" y="0" stroke="none" fill="#000000" transform="matrix(0.0666667 0 0 0.0666667 58.3455 243.639)" font-style="normal" font-weight="normal" font-size="208px" font-family="Arial" >
99% </text>
<text x="0" y="0" stroke="none" fill="#000000" transform="matrix(0.0666667 0 0 0.0666667 90.0122 243.639)" font-style="normal" font-weight="normal" font-size="208px" font-family="Arial" >
 </text>
<text x="0" y="0" stroke="none" fill="#000000" transform="matrix(0.0666667 0 0 0.0666667 93.8789 243.639)" font-style="normal" font-weight="normal" font-size="208px" font-family="Arial" >
 </text>
<text x="0" y="0" stroke="none" fill="#000000" transform="matrix(0.0666667 0 0 0.0666667 97.7455 243.639)" font-style="normal" font-weight="normal" font-size="208px" font-family="Arial" >
 </text>
<text x="0" y="0" stroke="none" fill="#000000" transform="matrix(0.0666667 0 0 0.0666667 101.612 243.639)" font-style="normal" font-weight="normal" font-size="208px" font-family="Arial" >
 </text>
<text x="0" y="0" stroke="none" fill="#000000" transform="matrix(0.0666667 0 0 0.0666667 105.479 243.639)" font-style="normal" font-weight="normal" font-size="208px" font-family="Arial" >
 </text>
<text x="0" y="0" stroke="none" fill="#000000" transform="matrix(0.0666667 0 0 0.0666667 109.346 243.639)" font-style="normal" font-weight="normal" font-size="208px" font-family="Arial" >
 </text>
<text x="0" y="0" stroke="none" fill="#000000" transform="matrix(0.0666667 0 0 0.0666667 113.212 243.639)" font-style="normal" font-weight="normal" font-size="208px" font-family="Arial" >
 </text>
<text x="0" y="0" stroke="none" fill="#000000" transform="matrix(0.0666667 0 0 0.0666667 117.079 243.639)" font-style="normal" font-weight="normal" font-size="208px" font-family="Arial" >
 </text>
<text x="0" y="0" stroke="none" fill="#000000" transform="matrix(0.0666667 0 0 0.0666667 120.946 243.639)" font-style="normal" font-weight="normal" font-size="208px" font-family="Arial" >
 </text>
<text x="0" y="0" stroke="none" fill="#000000" transform="matrix(0.0666667 0 0 0.0666667 124.812 243.639)" font-style="normal" font-weight="normal" font-size="208px" font-family="Arial" >
 </text>
<text x="0" y="0" stroke="none" fill="#000000" transform="matrix(0.0666667 0 0 0.0666667 128.679 243.639)" font-style="normal" font-weight="normal" font-size="208px" font-family="Arial" >
 </text>
<text x="0" y="0" stroke="none" fill="#000000" transform="matrix(0.0666667 0 0 0.0666667 132.546 243.639)" font-style="normal" font-weight="normal" font-size="208px" font-family="Arial" >
 </text>
<text x="0" y="0" stroke="none" fill="#000000" transform="matrix(0.0666667 0 0 0.0666667 136.412 243.639)" font-style="normal" font-weight="normal" font-size="208px" font-family="Arial" >
 </text>
<text x="0" y="0" stroke="none" fill="#000000" transform="matrix(0.0666667 0 0 0.0666667 140.279 243.639)" font-style="normal" font-weight="normal" font-size="208px" font-family="Arial" >
 </text>
<text x="0" y="0" stroke="none" fill="#000000" transform="matrix(0.0666667 0 0 0.0666667 144.146 243.639)" font-style="normal" font-weight="normal" font-size="208px" font-family="Arial" >
 </text>
<text x="0" y="0" stroke="none" fill="#000000" transform="matrix(0.0666667 0 0 0.0666667 148.012 243.639)" font-style="normal" font-weight="normal" font-size="208px" font-family="Arial" >
 </text>
<text x="0" y="0" stroke="none" fill="#000000" transform="matrix(0.0666667 0 0 0.0666667 151.879 243.639)" font-style="normal" font-weight="normal" font-size="208px" font-family="Arial" >
 </text>
<text x="0" y="0" stroke="none" fill="#000000" transform="matrix(0.0666667 0 0 0.0666667 155.746 243.639)" font-style="normal" font-weight="normal" font-size="208px" font-family="Arial" >
 </text>
<text x="0" y="0" stroke="none" fill="#000000" transform="matrix(0.0666667 0 0 0.0666667 159.612 243.639)" font-style="normal" font-weight="normal" font-size="208px" font-family="Arial" >
 </text>
<text x="0" y="0" stroke="none" fill="#000000" transform="matrix(0.0666667 0 0 0.0666667 163.479 243.639)" font-style="normal" font-weight="normal" font-size="208px" font-family="Arial" >
 </text>
<text x="0" y="0" stroke="none" fill="#000000" transform="matrix(0.0666667 0 0 0.0666667 167.346 243.639)" font-style="normal" font-weight="normal" font-size="208px" font-family="Arial" >
 </text>
<text x="0" y="0" stroke="none" fill="#000000" transform="matrix(0.0666667 0 0 0.0666667 171.212 243.639)" font-style="normal" font-weight="normal" font-size="208px" font-family="Arial" >
 </text>
<text x="0" y="0" stroke="none" fill="#000000" transform="matrix(0.0666667 0 0 0.0666667 175.079 243.639)" font-style="normal" font-weight="normal" font-size="208px" font-family="Arial" >
 </text>
<text x="0" y="0" stroke="none" fill="#000000" transform="matrix(0.0666667 0 0 0.0666667 178.946 243.639)" font-style="normal" font-weight="normal" font-size="208px" font-family="Arial" >
 </text>
<text x="0" y="0" stroke="none" fill="#000000" transform="matrix(0.0666667 0 0 0.0666667 182.812 243.639)" font-style="normal" font-weight="normal" font-size="208px" font-family="Arial" >
 </text>
<text x="0" y="0" stroke="none" fill="#000000" transform="matrix(0.0666667 0 0 0.0666667 186.679 243.639)" font-style="normal" font-weight="bold" font-size="208px" font-family="Arial" >
3</text>
<text x="0" y="0" stroke="none" fill="#000000" transform="matrix(0.0666667 0 0 0.0666667 194.412 243.639)" font-style="normal" font-weight="normal" font-size="208px" font-family="Arial" >
, </text>
<text x="0" y="0" stroke="none" fill="#000000" transform="matrix(0.0666667 0 0 0.0666667 202.146 243.639)" font-style="normal" font-weight="normal" font-size="208px" font-family="Arial" >
98% </text>
<text x="0" y="0" stroke="none" fill="#000000" transform="matrix(0.0666667 0 0 0.0666667 233.812 243.639)" font-style="normal" font-weight="normal" font-size="208px" font-family="Arial" >
 </text>
<text x="0" y="0" stroke="none" fill="#000000" transform="matrix(0.0666667 0 0 0.0666667 237.679 243.639)" font-style="normal" font-weight="normal" font-size="208px" font-family="Arial" >
 </text>
<text x="0" y="0" stroke="none" fill="#000000" transform="matrix(0.0666667 0 0 0.0666667 241.546 243.639)" font-style="normal" font-weight="normal" font-size="208px" font-family="Arial" >
 </text>
<text x="0" y="0" stroke="none" fill="#000000" transform="matrix(0.0666667 0 0 0.0666667 245.412 243.639)" font-style="normal" font-weight="normal" font-size="208px" font-family="Arial" >
 </text>
<text x="0" y="0" stroke="none" fill="#000000" transform="matrix(0.0666667 0 0 0.0666667 249.279 243.639)" font-style="normal" font-weight="normal" font-size="208px" font-family="Arial" >
 </text>
<text x="0" y="0" stroke="none" fill="#000000" transform="matrix(0.0666667 0 0 0.0666667 253.146 243.639)" font-style="normal" font-weight="normal" font-size="208px" font-family="Arial" >
 </text>
<text x="0" y="0" stroke="none" fill="#000000" transform="matrix(0.0666667 0 0 0.0666667 257.012 243.639)" font-style="normal" font-weight="normal" font-size="208px" font-family="Arial" >
 </text>
<text x="0" y="0" stroke="none" fill="#000000" transform="matrix(0.0666667 0 0 0.0666667 260.879 243.639)" font-style="normal" font-weight="normal" font-size="208px" font-family="Arial" >
 </text>
<text x="0" y="0" stroke="none" fill="#000000" transform="matrix(0.0666667 0 0 0.0666667 264.746 243.639)" font-style="normal" font-weight="normal" font-size="208px" font-family="Arial" >
 </text>
<text x="0" y="0" stroke="none" fill="#000000" transform="matrix(0.0666667 0 0 0.0666667 268.612 243.639)" font-style="normal" font-weight="normal" font-size="208px" font-family="Arial" >
 </text>
<text x="0" y="0" stroke="none" fill="#000000" transform="matrix(0.0666667 0 0 0.0666667 272.479 243.639)" font-style="normal" font-weight="normal" font-size="208px" font-family="Arial" >
 </text>
<text x="0" y="0" stroke="none" fill="#000000" transform="matrix(0.0666667 0 0 0.0666667 276.346 243.639)" font-style="normal" font-weight="normal" font-size="208px" font-family="Arial" >
 </text>
<text x="0" y="0" stroke="none" fill="#000000" transform="matrix(0.0666667 0 0 0.0666667 280.212 243.639)" font-style="normal" font-weight="normal" font-size="208px" font-family="Arial" >
 </text>
<text x="0" y="0" stroke="none" fill="#000000" transform="matrix(0.0666667 0 0 0.0666667 284.079 243.639)" font-style="normal" font-weight="normal" font-size="208px" font-family="Arial" >
 </text>
<text x="0" y="0" stroke="none" fill="#000000" transform="matrix(0.0666667 0 0 0.0666667 287.946 243.639)" font-style="normal" font-weight="normal" font-size="208px" font-family="Arial" >
 </text>
<text x="0" y="0" stroke="none" fill="#000000" transform="matrix(0.0666667 0 0 0.0666667 291.812 243.639)" font-style="normal" font-weight="normal" font-size="208px" font-family="Arial" >
 </text>
<text x="0" y="0" stroke="none" fill="#000000" transform="matrix(0.0666667 0 0 0.0666667 295.679 243.639)" font-style="normal" font-weight="normal" font-size="208px" font-family="Arial" >
 </text>
<text x="0" y="0" stroke="none" fill="#000000" transform="matrix(0.0666667 0 0 0.0666667 299.546 243.639)" font-style="normal" font-weight="normal" font-size="208px" font-family="Arial" >
 </text>
<text x="0" y="0" stroke="none" fill="#000000" transform="matrix(0.0666667 0 0 0.0666667 303.412 243.639)" font-style="normal" font-weight="normal" font-size="208px" font-family="Arial" >
 </text>
<text x="0" y="0" stroke="none" fill="#000000" transform="matrix(0.0666667 0 0 0.0666667 307.279 243.639)" font-style="normal" font-weight="normal" font-size="208px" font-family="Arial" >
 </text>
<text x="0" y="0" stroke="none" fill="#000000" transform="matrix(0.0666667 0 0 0.0666667 311.146 243.639)" font-style="normal" font-weight="normal" font-size="208px" font-family="Arial" >
 </text>
<text x="0" y="0" stroke="none" fill="#000000" transform="matrix(0.0666667 0 0 0.0666667 315.012 243.639)" font-style="normal" font-weight="normal" font-size="208px" font-family="Arial" >
 </text>
<text x="0" y="0" stroke="none" fill="#000000" transform="matrix(0.0666667 0 0 0.0666667 318.879 243.639)" font-style="normal" font-weight="normal" font-size="208px" font-family="Arial" >
 </text>
<text x="0" y="0" stroke="none" fill="#000000" transform="matrix(0.0666667 0 0 0.0666667 322.746 243.639)" font-style="normal" font-weight="normal" font-size="208px" font-family="Arial" >
 </text>
<text x="0" y="0" stroke="none" fill="#000000" transform="matrix(0.0666667 0 0 0.0666667 326.612 243.639)" font-style="normal" font-weight="bold" font-size="208px" font-family="Arial" >
 </text>
<text x="0" y="0" stroke="none" fill="#000000" transform="matrix(0.0666667 0 0 0.0666667 330.479 243.639)" font-style="normal" font-weight="bold" font-size="208px" font-family="Arial" >
 </text>
<text x="0" y="0" stroke="none" fill="#000000" transform="matrix(0.0666667 0 0 0.0666667 334.346 243.639)" font-style="normal" font-weight="bold" font-size="208px" font-family="Arial" >
 </text>
<text x="0" y="0" stroke="none" fill="#000000" transform="matrix(0.0666667 0 0 0.0666667 338.212 243.639)" font-style="normal" font-weight="bold" font-size="208px" font-family="Arial" >
4</text>
<text x="0" y="0" stroke="none" fill="#000000" transform="matrix(0.0666667 0 0 0.0666667 345.946 243.639)" font-style="normal" font-weight="normal" font-size="208px" font-family="Arial" >
, </text>
<text x="0" y="0" stroke="none" fill="#000000" transform="matrix(0.0666667 0 0 0.0666667 353.679 243.639)" font-style="normal" font-weight="normal" font-size="208px" font-family="Arial" >
99% </text>
<text x="0" y="0" stroke="none" fill="#000000" transform="matrix(0.0666667 0 0 0.0666667 385.346 243.639)" font-style="normal" font-weight="normal" font-size="208px" font-family="Arial" >
 </text>
<text x="0" y="0" stroke="none" fill="#000000" transform="matrix(0.0666667 0 0 0.0666667 389.212 243.639)" font-style="normal" font-weight="normal" font-size="208px" font-family="Arial" >
 </text>
<text x="0" y="0" stroke="none" fill="#000000" transform="matrix(0.0666667 0 0 0.0666667 393.079 243.639)" font-style="normal" font-weight="normal" font-size="208px" font-family="Arial" >
 </text>
<text x="0" y="0" stroke="none" fill="#000000" transform="matrix(0.0666667 0 0 0.0666667 396.946 243.639)" font-style="normal" font-weight="normal" font-size="208px" font-family="Arial" >
 </text>
<text x="0" y="0" stroke="none" fill="#000000" transform="matrix(0.0666667 0 0 0.0666667 400.812 243.639)" font-style="normal" font-weight="normal" font-size="208px" font-family="Arial" >
 </text>
<text x="0" y="0" stroke="none" fill="#000000" transform="matrix(0.0666667 0 0 0.0666667 404.679 243.639)" font-style="normal" font-weight="normal" font-size="208px" font-family="Arial" >
 </text>
<text x="0" y="0" stroke="none" fill="#000000" transform="matrix(0.0666667 0 0 0.0666667 408.546 243.639)" font-style="normal" font-weight="normal" font-size="208px" font-family="Arial" >
 </text>
<text x="0" y="0" stroke="none" fill="#000000" transform="matrix(0.0666667 0 0 0.0666667 412.412 243.639)" font-style="normal" font-weight="normal" font-size="208px" font-family="Arial" >
 </text>
<text x="0" y="0" stroke="none" fill="#000000" transform="matrix(0.0666667 0 0 0.0666667 416.279 243.639)" font-style="normal" font-weight="normal" font-size="208px" font-family="Arial" >
 </text>
<text x="0" y="0" stroke="none" fill="#000000" transform="matrix(0.0666667 0 0 0.0666667 420.146 243.639)" font-style="normal" font-weight="normal" font-size="208px" font-family="Arial" >
 </text>
<text x="0" y="0" stroke="none" fill="#000000" transform="matrix(0.0666667 0 0 0.0666667 424.012 243.639)" font-style="normal" font-weight="normal" font-size="208px" font-family="Arial" >
 </text>
<text x="0" y="0" stroke="none" fill="#000000" transform="matrix(0.0666667 0 0 0.0666667 427.879 243.639)" font-style="normal" font-weight="normal" font-size="208px" font-family="Arial" >
 </text>
<text x="0" y="0" stroke="none" fill="#000000" transform="matrix(0.0666667 0 0 0.0666667 431.746 243.639)" font-style="normal" font-weight="normal" font-size="208px" font-family="Arial" >
 </text>
<text x="0" y="0" stroke="none" fill="#000000" transform="matrix(0.0666667 0 0 0.0666667 435.612 243.639)" font-style="normal" font-weight="normal" font-size="208px" font-family="Arial" >
 </text>
<text x="0" y="0" stroke="none" fill="#000000" transform="matrix(0.0666667 0 0 0.0666667 439.479 243.639)" font-style="normal" font-weight="normal" font-size="208px" font-family="Arial" >
 </text>
<text x="0" y="0" stroke="none" fill="#000000" transform="matrix(0.0666667 0 0 0.0666667 443.346 243.639)" font-style="normal" font-weight="normal" font-size="208px" font-family="Arial" >
 </text>
<text x="0" y="0" stroke="none" fill="#000000" transform="matrix(0.0666667 0 0 0.0666667 447.212 243.639)" font-style="normal" font-weight="normal" font-size="208px" font-family="Arial" >
 </text>
<text x="0" y="0" stroke="none" fill="#000000" transform="matrix(0.0666667 0 0 0.0666667 451.079 243.639)" font-style="normal" font-weight="normal" font-size="208px" font-family="Arial" >
 </text>
<text x="0" y="0" stroke="none" fill="#000000" transform="matrix(0.0666667 0 0 0.0666667 454.946 243.639)" font-style="normal" font-weight="normal" font-size="208px" font-family="Arial" >
 </text>
<text x="0" y="0" stroke="none" fill="#000000" transform="matrix(0.0666667 0 0 0.0666667 458.812 243.639)" font-style="normal" font-weight="normal" font-size="208px" font-family="Arial" >
 </text>
<text x="0" y="0" stroke="none" fill="#000000" transform="matrix(0.0666667 0 0 0.0666667 462.679 243.639)" font-style="normal" font-weight="normal" font-size="208px" font-family="Arial" >
 </text>
<text x="0" y="0" stroke="none" fill="#000000" transform="matrix(0.0666667 0 0 0.0666667 466.546 243.639)" font-style="normal" font-weight="normal" font-size="208px" font-family="Arial" >
 </text>
<text x="0" y="0" stroke="none" fill="#000000" transform="matrix(0.0666667 0 0 0.0666667 470.412 243.639)" font-style="normal" font-weight="normal" font-size="208px" font-family="Arial" >
 </text>
<text x="0" y="0" stroke="none" fill="#000000" transform="matrix(0.0666667 0 0 0.0666667 474.279 243.639)" font-style="normal" font-weight="normal" font-size="208px" font-family="Arial" >
 </text>
<text x="0" y="0" stroke="none" fill="#000000" transform="matrix(0.0666667 0 0 0.0666667 478.146 243.639)" font-style="normal" font-weight="normal" font-size="208px" font-family="Arial" >
 </text>
<text x="0" y="0" stroke="none" fill="#000000" transform="matrix(0.0666667 0 0 0.0666667 482.012 243.639)" font-style="normal" font-weight="normal" font-size="208px" font-family="Arial" >
 </text>
<text x="0" y="0" stroke="none" fill="#000000" transform="matrix(0.0666667 0 0 0.0666667 485.879 243.639)" font-style="normal" font-weight="normal" font-size="208px" font-family="Arial" >
 </text>
<text x="0" y="0" stroke="none" fill="#000000" transform="matrix(0.0666667 0 0 0.0666667 489.746 243.639)" font-style="normal" font-weight="normal" font-size="208px" font-family="Arial" >
 </text>
<text x="0" y="0" stroke="none" fill="#000000" transform="matrix(0.0666667 0 0 0.0666667 493.612 243.639)" font-style="normal" font-weight="bold" font-size="208px" font-family="Arial" >
5</text>
<text x="0" y="0" stroke="none" fill="#000000" transform="matrix(0.0666667 0 0 0.0666667 501.346 243.639)" font-style="normal" font-weight="normal" font-size="208px" font-family="Arial" >
, </text>
<text x="0" y="0" stroke="none" fill="#000000" transform="matrix(0.0666667 0 0 0.0666667 509.079 243.639)" font-style="normal" font-weight="normal" font-size="208px" font-family="Arial" >
99%</text>
<text x="0" y="0" stroke="none" fill="#000000" transform="matrix(0.0666667 0 0 0.0666667 62.8917 375.028)" font-style="normal" font-weight="bold" font-size="208px" font-family="Arial" >
6</text>
<text x="0" y="0" stroke="none" fill="#000000" transform="matrix(0.0666667 0 0 0.0666667 70.625 375.028)" font-style="normal" font-weight="normal" font-size="208px" font-family="Arial" >
, </text>
<text x="0" y="0" stroke="none" fill="#000000" transform="matrix(0.0666667 0 0 0.0666667 78.3584 375.028)" font-style="normal" font-weight="normal" font-size="208px" font-family="Arial" >
99% </text>
<text x="0" y="0" stroke="none" fill="#000000" transform="matrix(0.0666667 0 0 0.0666667 110.025 375.028)" font-style="normal" font-weight="normal" font-size="208px" font-family="Arial" >
 </text>
<text x="0" y="0" stroke="none" fill="#000000" transform="matrix(0.0666667 0 0 0.0666667 113.892 375.028)" font-style="normal" font-weight="normal" font-size="208px" font-family="Arial" >
 </text>
<text x="0" y="0" stroke="none" fill="#000000" transform="matrix(0.0666667 0 0 0.0666667 117.758 375.028)" font-style="normal" font-weight="normal" font-size="208px" font-family="Arial" >
 </text>
<text x="0" y="0" stroke="none" fill="#000000" transform="matrix(0.0666667 0 0 0.0666667 121.625 375.028)" font-style="normal" font-weight="normal" font-size="208px" font-family="Arial" >
 </text>
<text x="0" y="0" stroke="none" fill="#000000" transform="matrix(0.0666667 0 0 0.0666667 125.492 375.028)" font-style="normal" font-weight="normal" font-size="208px" font-family="Arial" >
 </text>
<text x="0" y="0" stroke="none" fill="#000000" transform="matrix(0.0666667 0 0 0.0666667 129.358 375.028)" font-style="normal" font-weight="normal" font-size="208px" font-family="Arial" >
 </text>
<text x="0" y="0" stroke="none" fill="#000000" transform="matrix(0.0666667 0 0 0.0666667 133.225 375.028)" font-style="normal" font-weight="normal" font-size="208px" font-family="Arial" >
 </text>
<text x="0" y="0" stroke="none" fill="#000000" transform="matrix(0.0666667 0 0 0.0666667 137.092 375.028)" font-style="normal" font-weight="normal" font-size="208px" font-family="Arial" >
 </text>
<text x="0" y="0" stroke="none" fill="#000000" transform="matrix(0.0666667 0 0 0.0666667 140.958 375.028)" font-style="normal" font-weight="normal" font-size="208px" font-family="Arial" >
 </text>
<text x="0" y="0" stroke="none" fill="#000000" transform="matrix(0.0666667 0 0 0.0666667 144.825 375.028)" font-style="normal" font-weight="normal" font-size="208px" font-family="Arial" >
 </text>
<text x="0" y="0" stroke="none" fill="#000000" transform="matrix(0.0666667 0 0 0.0666667 148.692 375.028)" font-style="normal" font-weight="normal" font-size="208px" font-family="Arial" >
 </text>
<text x="0" y="0" stroke="none" fill="#000000" transform="matrix(0.0666667 0 0 0.0666667 152.558 375.028)" font-style="normal" font-weight="normal" font-size="208px" font-family="Arial" >
 </text>
<text x="0" y="0" stroke="none" fill="#000000" transform="matrix(0.0666667 0 0 0.0666667 156.425 375.028)" font-style="normal" font-weight="normal" font-size="208px" font-family="Arial" >
 </text>
<text x="0" y="0" stroke="none" fill="#000000" transform="matrix(0.0666667 0 0 0.0666667 160.292 375.028)" font-style="normal" font-weight="normal" font-size="208px" font-family="Arial" >
 </text>
<text x="0" y="0" stroke="none" fill="#000000" transform="matrix(0.0666667 0 0 0.0666667 164.158 375.028)" font-style="normal" font-weight="normal" font-size="208px" font-family="Arial" >
 </text>
<text x="0" y="0" stroke="none" fill="#000000" transform="matrix(0.0666667 0 0 0.0666667 168.025 375.028)" font-style="normal" font-weight="normal" font-size="208px" font-family="Arial" >
 </text>
<text x="0" y="0" stroke="none" fill="#000000" transform="matrix(0.0666667 0 0 0.0666667 171.892 375.028)" font-style="normal" font-weight="normal" font-size="208px" font-family="Arial" >
 </text>
<text x="0" y="0" stroke="none" fill="#000000" transform="matrix(0.0666667 0 0 0.0666667 175.758 375.028)" font-style="normal" font-weight="normal" font-size="208px" font-family="Arial" >
 </text>
<text x="0" y="0" stroke="none" fill="#000000" transform="matrix(0.0666667 0 0 0.0666667 179.625 375.028)" font-style="normal" font-weight="normal" font-size="208px" font-family="Arial" >
 </text>
<text x="0" y="0" stroke="none" fill="#000000" transform="matrix(0.0666667 0 0 0.0666667 183.492 375.028)" font-style="normal" font-weight="normal" font-size="208px" font-family="Arial" >
 </text>
<text x="0" y="0" stroke="none" fill="#000000" transform="matrix(0.0666667 0 0 0.0666667 187.358 375.028)" font-style="normal" font-weight="normal" font-size="208px" font-family="Arial" >
 </text>
<text x="0" y="0" stroke="none" fill="#000000" transform="matrix(0.0666667 0 0 0.0666667 191.225 375.028)" font-style="normal" font-weight="normal" font-size="208px" font-family="Arial" >
 </text>
<text x="0" y="0" stroke="none" fill="#000000" transform="matrix(0.0666667 0 0 0.0666667 195.092 375.028)" font-style="normal" font-weight="normal" font-size="208px" font-family="Arial" >
 </text>
<text x="0" y="0" stroke="none" fill="#000000" transform="matrix(0.0666667 0 0 0.0666667 198.958 375.028)" font-style="normal" font-weight="normal" font-size="208px" font-family="Arial" >
 </text>
<text x="0" y="0" stroke="none" fill="#000000" transform="matrix(0.0666667 0 0 0.0666667 202.825 375.028)" font-style="normal" font-weight="normal" font-size="208px" font-family="Arial" >
 </text>
<text x="0" y="0" stroke="none" fill="#000000" transform="matrix(0.0666667 0 0 0.0666667 206.692 375.028)" font-style="normal" font-weight="bold" font-size="208px" font-family="Arial" >
7</text>
<text x="0" y="0" stroke="none" fill="#000000" transform="matrix(0.0666667 0 0 0.0666667 214.425 375.028)" font-style="normal" font-weight="normal" font-size="208px" font-family="Arial" >
, </text>
<text x="0" y="0" stroke="none" fill="#000000" transform="matrix(0.0666667 0 0 0.0666667 222.158 375.028)" font-style="normal" font-weight="normal" font-size="208px" font-family="Arial" >
80% </text>
<text x="0" y="0" stroke="none" fill="#000000" transform="matrix(0.0666667 0 0 0.0666667 253.825 375.028)" font-style="normal" font-weight="normal" font-size="208px" font-family="Arial" >
 </text>
<text x="0" y="0" stroke="none" fill="#000000" transform="matrix(0.0666667 0 0 0.0666667 257.692 375.028)" font-style="normal" font-weight="normal" font-size="208px" font-family="Arial" >
 </text>
<text x="0" y="0" stroke="none" fill="#000000" transform="matrix(0.0666667 0 0 0.0666667 261.558 375.028)" font-style="normal" font-weight="normal" font-size="208px" font-family="Arial" >
 </text>
<text x="0" y="0" stroke="none" fill="#000000" transform="matrix(0.0666667 0 0 0.0666667 265.425 375.028)" font-style="normal" font-weight="normal" font-size="208px" font-family="Arial" >
 </text>
<text x="0" y="0" stroke="none" fill="#000000" transform="matrix(0.0666667 0 0 0.0666667 269.292 375.028)" font-style="normal" font-weight="normal" font-size="208px" font-family="Arial" >
 </text>
<text x="0" y="0" stroke="none" fill="#000000" transform="matrix(0.0666667 0 0 0.0666667 273.158 375.028)" font-style="normal" font-weight="normal" font-size="208px" font-family="Arial" >
 </text>
<text x="0" y="0" stroke="none" fill="#000000" transform="matrix(0.0666667 0 0 0.0666667 277.025 375.028)" font-style="normal" font-weight="normal" font-size="208px" font-family="Arial" >
 </text>
<text x="0" y="0" stroke="none" fill="#000000" transform="matrix(0.0666667 0 0 0.0666667 280.892 375.028)" font-style="normal" font-weight="normal" font-size="208px" font-family="Arial" >
 </text>
<text x="0" y="0" stroke="none" fill="#000000" transform="matrix(0.0666667 0 0 0.0666667 284.758 375.028)" font-style="normal" font-weight="normal" font-size="208px" font-family="Arial" >
 </text>
<text x="0" y="0" stroke="none" fill="#000000" transform="matrix(0.0666667 0 0 0.0666667 288.625 375.028)" font-style="normal" font-weight="normal" font-size="208px" font-family="Arial" >
 </text>
<text x="0" y="0" stroke="none" fill="#000000" transform="matrix(0.0666667 0 0 0.0666667 292.492 375.028)" font-style="normal" font-weight="normal" font-size="208px" font-family="Arial" >
 </text>
<text x="0" y="0" stroke="none" fill="#000000" transform="matrix(0.0666667 0 0 0.0666667 296.358 375.028)" font-style="normal" font-weight="normal" font-size="208px" font-family="Arial" >
 </text>
<text x="0" y="0" stroke="none" fill="#000000" transform="matrix(0.0666667 0 0 0.0666667 300.225 375.028)" font-style="normal" font-weight="normal" font-size="208px" font-family="Arial" >
 </text>
<text x="0" y="0" stroke="none" fill="#000000" transform="matrix(0.0666667 0 0 0.0666667 304.092 375.028)" font-style="normal" font-weight="normal" font-size="208px" font-family="Arial" >
 </text>
<text x="0" y="0" stroke="none" fill="#000000" transform="matrix(0.0666667 0 0 0.0666667 307.958 375.028)" font-style="normal" font-weight="normal" font-size="208px" font-family="Arial" >
 </text>
<text x="0" y="0" stroke="none" fill="#000000" transform="matrix(0.0666667 0 0 0.0666667 311.825 375.028)" font-style="normal" font-weight="normal" font-size="208px" font-family="Arial" >
 </text>
<text x="0" y="0" stroke="none" fill="#000000" transform="matrix(0.0666667 0 0 0.0666667 315.692 375.028)" font-style="normal" font-weight="normal" font-size="208px" font-family="Arial" >
 </text>
<text x="0" y="0" stroke="none" fill="#000000" transform="matrix(0.0666667 0 0 0.0666667 319.558 375.028)" font-style="normal" font-weight="normal" font-size="208px" font-family="Arial" >
 </text>
<text x="0" y="0" stroke="none" fill="#000000" transform="matrix(0.0666667 0 0 0.0666667 323.425 375.028)" font-style="normal" font-weight="normal" font-size="208px" font-family="Arial" >
 </text>
<text x="0" y="0" stroke="none" fill="#000000" transform="matrix(0.0666667 0 0 0.0666667 327.292 375.028)" font-style="normal" font-weight="normal" font-size="208px" font-family="Arial" >
 </text>
<text x="0" y="0" stroke="none" fill="#000000" transform="matrix(0.0666667 0 0 0.0666667 331.158 375.028)" font-style="normal" font-weight="normal" font-size="208px" font-family="Arial" >
 </text>
<text x="0" y="0" stroke="none" fill="#000000" transform="matrix(0.0666667 0 0 0.0666667 335.025 375.028)" font-style="normal" font-weight="normal" font-size="208px" font-family="Arial" >
 </text>
<text x="0" y="0" stroke="none" fill="#000000" transform="matrix(0.0666667 0 0 0.0666667 338.892 375.028)" font-style="normal" font-weight="normal" font-size="208px" font-family="Arial" >
 </text>
<text x="0" y="0" stroke="none" fill="#000000" transform="matrix(0.0666667 0 0 0.0666667 342.758 375.028)" font-style="normal" font-weight="bold" font-size="208px" font-family="Arial" >
8</text>
<text x="0" y="0" stroke="none" fill="#000000" transform="matrix(0.0666667 0 0 0.0666667 350.492 375.028)" font-style="normal" font-weight="normal" font-size="208px" font-family="Arial" >
, </text>
<text x="0" y="0" stroke="none" fill="#000000" transform="matrix(0.0666667 0 0 0.0666667 358.225 375.028)" font-style="normal" font-weight="normal" font-size="208px" font-family="Arial" >
52% </text>
<text x="0" y="0" stroke="none" fill="#000000" transform="matrix(0.0666667 0 0 0.0666667 389.892 375.028)" font-style="normal" font-weight="normal" font-size="208px" font-family="Arial" >
 </text>
<text x="0" y="0" stroke="none" fill="#000000" transform="matrix(0.0666667 0 0 0.0666667 393.758 375.028)" font-style="normal" font-weight="normal" font-size="208px" font-family="Arial" >
 </text>
<text x="0" y="0" stroke="none" fill="#000000" transform="matrix(0.0666667 0 0 0.0666667 397.625 375.028)" font-style="normal" font-weight="normal" font-size="208px" font-family="Arial" >
 </text>
<text x="0" y="0" stroke="none" fill="#000000" transform="matrix(0.0666667 0 0 0.0666667 401.492 375.028)" font-style="normal" font-weight="normal" font-size="208px" font-family="Arial" >
 </text>
<text x="0" y="0" stroke="none" fill="#000000" transform="matrix(0.0666667 0 0 0.0666667 405.358 375.028)" font-style="normal" font-weight="normal" font-size="208px" font-family="Arial" >
 </text>
<text x="0" y="0" stroke="none" fill="#000000" transform="matrix(0.0666667 0 0 0.0666667 409.225 375.028)" font-style="normal" font-weight="normal" font-size="208px" font-family="Arial" >
 </text>
<text x="0" y="0" stroke="none" fill="#000000" transform="matrix(0.0666667 0 0 0.0666667 413.092 375.028)" font-style="normal" font-weight="normal" font-size="208px" font-family="Arial" >
 </text>
<text x="0" y="0" stroke="none" fill="#000000" transform="matrix(0.0666667 0 0 0.0666667 416.958 375.028)" font-style="normal" font-weight="normal" font-size="208px" font-family="Arial" >
 </text>
<text x="0" y="0" stroke="none" fill="#000000" transform="matrix(0.0666667 0 0 0.0666667 420.825 375.028)" font-style="normal" font-weight="normal" font-size="208px" font-family="Arial" >
 </text>
<text x="0" y="0" stroke="none" fill="#000000" transform="matrix(0.0666667 0 0 0.0666667 424.692 375.028)" font-style="normal" font-weight="normal" font-size="208px" font-family="Arial" >
 </text>
<text x="0" y="0" stroke="none" fill="#000000" transform="matrix(0.0666667 0 0 0.0666667 428.558 375.028)" font-style="normal" font-weight="normal" font-size="208px" font-family="Arial" >
 </text>
<text x="0" y="0" stroke="none" fill="#000000" transform="matrix(0.0666667 0 0 0.0666667 432.425 375.028)" font-style="normal" font-weight="normal" font-size="208px" font-family="Arial" >
 </text>
<text x="0" y="0" stroke="none" fill="#000000" transform="matrix(0.0666667 0 0 0.0666667 436.292 375.028)" font-style="normal" font-weight="normal" font-size="208px" font-family="Arial" >
 </text>
<text x="0" y="0" stroke="none" fill="#000000" transform="matrix(0.0666667 0 0 0.0666667 440.158 375.028)" font-style="normal" font-weight="normal" font-size="208px" font-family="Arial" >
 </text>
<text x="0" y="0" stroke="none" fill="#000000" transform="matrix(0.0666667 0 0 0.0666667 444.025 375.028)" font-style="normal" font-weight="normal" font-size="208px" font-family="Arial" >
 </text>
<text x="0" y="0" stroke="none" fill="#000000" transform="matrix(0.0666667 0 0 0.0666667 447.892 375.028)" font-style="normal" font-weight="normal" font-size="208px" font-family="Arial" >
 </text>
<text x="0" y="0" stroke="none" fill="#000000" transform="matrix(0.0666667 0 0 0.0666667 451.758 375.028)" font-style="normal" font-weight="normal" font-size="208px" font-family="Arial" >
 </text>
<text x="0" y="0" stroke="none" fill="#000000" transform="matrix(0.0666667 0 0 0.0666667 455.625 375.028)" font-style="normal" font-weight="normal" font-size="208px" font-family="Arial" >
 </text>
<text x="0" y="0" stroke="none" fill="#000000" transform="matrix(0.0666667 0 0 0.0666667 459.492 375.028)" font-style="normal" font-weight="normal" font-size="208px" font-family="Arial" >
 </text>
<text x="0" y="0" stroke="none" fill="#000000" transform="matrix(0.0666667 0 0 0.0666667 463.358 375.028)" font-style="normal" font-weight="normal" font-size="208px" font-family="Arial" >
 </text>
<text x="0" y="0" stroke="none" fill="#000000" transform="matrix(0.0666667 0 0 0.0666667 467.225 375.028)" font-style="normal" font-weight="normal" font-size="208px" font-family="Arial" >
 </text>
<text x="0" y="0" stroke="none" fill="#000000" transform="matrix(0.0666667 0 0 0.0666667 471.092 375.028)" font-style="normal" font-weight="normal" font-size="208px" font-family="Arial" >
 </text>
<text x="0" y="0" stroke="none" fill="#000000" transform="matrix(0.0666667 0 0 0.0666667 474.958 375.028)" font-style="normal" font-weight="normal" font-size="208px" font-family="Arial" >
 </text>
<text x="0" y="0" stroke="none" fill="#000000" transform="matrix(0.0666667 0 0 0.0666667 478.825 375.028)" font-style="normal" font-weight="normal" font-size="208px" font-family="Arial" >
 </text>
<text x="0" y="0" stroke="none" fill="#000000" transform="matrix(0.0666667 0 0 0.0666667 482.692 375.028)" font-style="normal" font-weight="bold" font-size="208px" font-family="Arial" >
9</text>
<text x="0" y="0" stroke="none" fill="#000000" transform="matrix(0.0666667 0 0 0.0666667 490.425 375.028)" font-style="normal" font-weight="normal" font-size="208px" font-family="Arial" >
, </text>
<text x="0" y="0" stroke="none" fill="#000000" transform="matrix(0.0666667 0 0 0.0666667 498.158 375.028)" font-style="normal" font-weight="normal" font-size="208px" font-family="Arial" >
98%</text>
</svg>
