<?xml version="1.0" standalone="no" ?>
<!DOCTYPE svg PUBLIC "-//W3C//DTD SVG 1.1//EN" "http://www.w3.org/Graphics/SVG/1.1/DTD/svg11.dtd">
<svg width="451px" height="128px" viewBox="0 0 451 128" style="background-color: #ffffff00" xmlns="http://www.w3.org/2000/svg" xmlns:xlink="http://www.w3.org/1999/xlink" version="1.1" >
<path stroke="none" fill="#000000" transform="matrix(0.0666667 0 0 0.0666667 -105 -336.867)" d="M 2009.63,6680.11 L 2009.93,6709.57 L 1872.74,6632.19 L 1886.54,6610.68 L 2009.63,6680.11 L 2009.63,6680.11 Z " />
<path stroke="none" fill="#000000" transform="matrix(0.0666667 0 0 0.0666667 -105 -336.867)" d="M 1666.85,6516.07 L 1692.21,6501.08 L 1794.05,6558.52 L 1780.24,6580.02 L 1666.85,6516.07 L 1666.85,6516.07 Z " />
<path stroke="none" fill="#000000" transform="matrix(0.0666667 0 0 0.0666667 -105 -336.867)" d="M 2015.25,6604.93 L 2002.72,6627.15 L 1909.66,6574.66 L 1923.47,6553.16 L 2015.25,6604.93 L 2015.25,6604.93 Z " />
<path stroke="none" fill="#000000" transform="matrix(0.0666667 0 0 0.0666667 -105 -336.867)" d="M 1741.11,6479.6 L 1753.65,6457.38 L 1830.98,6500.99 L 1817.17,6522.5 L 1741.11,6479.6 L 1741.11,6479.6 Z " />
<path stroke="none" fill="#000000" transform="matrix(0.0666667 0 0 0.0666667 -105 -336.867)" d="M 2319.71,6130.32 L 2345.08,6115.34 L 2349.04,6509.2 L 2323.38,6494.73 L 2319.71,6130.32 Z " />
<path stroke="none" fill="#000000" transform="matrix(0.0666667 0 0 0.0666667 -105 -336.867)" d="M 2251.79,6163.05 L 2277.3,6162.79 L 2280.33,6463.12 L 2254.82,6463.38 L 2251.79,6163.05 Z " />
<path stroke="none" fill="#000000" transform="matrix(0.0666667 0 0 0.0666667 -105 -336.867)" d="M 2002.29,5951.3 L 2002.15,5936.57 L 2014.83,5929.08 L 2345.08,6115.34 L 2319.71,6130.32 L 2002.29,5951.3 Z " />
<path stroke="none" fill="#000000" transform="matrix(0.0666667 0 0 0.0666667 -105 -336.867)" d="M 1688.54,6136.68 L 1662.89,6122.21 L 1989.32,5929.33 L 2002.15,5936.57 L 2002.29,5951.3 L 1688.54,6136.68 Z " />
<path stroke="none" fill="#000000" transform="matrix(0.0666667 0 0 0.0666667 -105 -336.867)" d="M 1750.84,6179.14 L 1737.87,6157.17 L 1996.45,6004.39 L 2009.43,6026.35 L 1750.84,6179.14 Z " />
<path stroke="none" fill="#000000" transform="matrix(0.0666667 0 0 0.0666667 -105 -336.867)" d="M 1692.21,6501.08 L 1666.85,6516.07 L 1662.89,6122.21 L 1688.54,6136.68 L 1692.21,6501.08 Z " />
<text x="0" y="0" stroke="none" fill="#000000" transform="matrix(0.0666667 0 0 0.0666667 22.9216 39.3956)" font-style="normal" font-weight="bold" font-size="220px" font-family="Arial" >
Br</text>
<path stroke="none" fill="#000000" transform="matrix(0.0666667 0 0 0.0666667 -105 -336.867)" d="M 1986.8,5679.14 L 2012.31,5678.88 L 2014.83,5929.08 L 2002.15,5936.57 L 1989.32,5929.33 L 1986.8,5679.14 Z " />
<text x="0" y="0" stroke="none" fill="#000000" transform="matrix(0.0666667 0 0 0.0666667 64.8611 89.1525)" font-style="normal" font-weight="bold" font-size="220px" font-family="Arial" >
+</text>
<path stroke="none" fill="#000000" transform="matrix(0.0666667 0 0 0.0666667 -105 -336.867)" d="M 6726.95,5878.29 L 6711.82,5853.01 L 7072.44,5847.25 L 7058.12,5872.99 L 6726.95,5878.29 Z " />
<path stroke="none" fill="#000000" transform="matrix(0.0666667 0 0 0.0666667 -105 -336.867)" d="M 6565.95,6167.74 L 6536.5,6168.21 L 6711.82,5853.01 L 6726.95,5878.29 L 6565.95,6167.74 Z " />
<path stroke="none" fill="#000000" transform="matrix(0.0666667 0 0 0.0666667 -105 -336.867)" d="M 6636.01,6173 L 6613.71,6160.6 L 6746.08,5922.63 L 6768.37,5935.03 L 6636.01,6173 Z " />
<path stroke="none" fill="#000000" transform="matrix(0.0666667 0 0 0.0666667 -105 -336.867)" d="M 6736.12,6451.89 L 6721.8,6477.64 L 6653.66,6363.85 L 6676.04,6351.57 L 6736.12,6451.89 L 6736.12,6451.89 Z " />
<path stroke="none" fill="#000000" transform="matrix(0.0666667 0 0 0.0666667 -105 -336.867)" d="M 6536.5,6168.21 L 6565.95,6167.74 L 6621.53,6260.55 L 6599.15,6272.83 L 6536.5,6168.21 L 6536.5,6168.21 Z " />
<path stroke="none" fill="#000000" transform="matrix(0.0666667 0 0 0.0666667 -105 -336.867)" d="M 7067.29,6446.6 L 7082.43,6471.87 L 6721.8,6477.64 L 6736.12,6451.89 L 7067.29,6446.6 Z " />
<path stroke="none" fill="#000000" transform="matrix(0.0666667 0 0 0.0666667 -105 -336.867)" d="M 7036.82,6383.3 L 7037.23,6408.81 L 6764.96,6413.16 L 6764.56,6387.65 L 7036.82,6383.3 Z " />
<path stroke="none" fill="#000000" transform="matrix(0.0666667 0 0 0.0666667 -105 -336.867)" d="M 7228.29,6157.15 L 7243.02,6156.92 L 7250.59,6169.55 L 7082.43,6471.87 L 7067.29,6446.6 L 7228.29,6157.15 Z " />
<path stroke="none" fill="#000000" transform="matrix(0.0666667 0 0 0.0666667 -105 -336.867)" d="M 7058.12,5872.99 L 7072.44,5847.25 L 7250.18,6144.04 L 7243.02,6156.92 L 7228.29,6157.15 L 7058.12,5872.99 Z " />
<path stroke="none" fill="#000000" transform="matrix(0.0666667 0 0 0.0666667 -105 -336.867)" d="M 7018.54,5931.04 L 7040.43,5917.93 L 7180.33,6151.54 L 7158.44,6164.65 L 7018.54,5931.04 Z " />
<path stroke="none" fill="#000000" transform="matrix(0.0666667 0 0 0.0666667 -105 -336.867)" d="M 7581.35,6138.75 L 7588.92,6151.39 L 7581.76,6164.26 L 7250.59,6169.55 L 7243.02,6156.92 L 7250.18,6144.04 L 7581.35,6138.75 Z " />
<path stroke="none" fill="#ff0000" transform="matrix(0.0666667 0 0 0.0666667 -105 -336.867)" d="M 7773.82,6435.31 L 7759.5,6461.05 L 7581.76,6164.26 L 7588.92,6151.39 L 7603.65,6151.15 L 7773.82,6435.31 Z " />
<path stroke="none" fill="#ff0000" transform="matrix(0.0666667 0 0 0.0666667 -105 -336.867)" d="M 7813.4,6377.26 L 7791.51,6390.37 L 7651.61,6156.76 L 7673.5,6143.66 L 7813.4,6377.26 Z " />
<path stroke="none" fill="#ff0000" transform="matrix(0.0666667 0 0 0.0666667 -105 -336.867)" d="M 8104.99,6430.01 L 8120.13,6455.29 L 7759.5,6461.05 L 7773.82,6435.31 L 8104.99,6430.01 Z " />
<path stroke="none" fill="#ff0000" transform="matrix(0.0666667 0 0 0.0666667 -105 -336.867)" d="M 8265.99,6140.56 L 8295.45,6140.09 L 8120.13,6455.29 L 8104.99,6430.01 L 8265.99,6140.56 Z " />
<path stroke="none" fill="#ff0000" transform="matrix(0.0666667 0 0 0.0666667 -105 -336.867)" d="M 8195.94,6135.3 L 8218.23,6147.71 L 8085.87,6385.67 L 8063.57,6373.27 L 8195.94,6135.3 Z " />
<path stroke="none" fill="#ff0000" transform="matrix(0.0666667 0 0 0.0666667 -105 -336.867)" d="M 8095.82,5856.41 L 8110.14,5830.66 L 8295.45,6140.09 L 8265.99,6140.56 L 8095.82,5856.41 Z " />
<path stroke="none" fill="#ff0000" transform="matrix(0.0666667 0 0 0.0666667 -105 -336.867)" d="M 7764.65,5861.7 L 7749.51,5836.43 L 8110.14,5830.66 L 8095.82,5856.41 L 7764.65,5861.7 Z " />
<path stroke="none" fill="#ff0000" transform="matrix(0.0666667 0 0 0.0666667 -105 -336.867)" d="M 7795.12,5925 L 7794.72,5899.49 L 8066.98,5895.14 L 8067.39,5920.65 L 7795.12,5925 Z " />
<path stroke="none" fill="#ff0000" transform="matrix(0.0666667 0 0 0.0666667 -105 -336.867)" d="M 7603.65,6151.15 L 7588.92,6151.39 L 7581.35,6138.75 L 7749.51,5836.43 L 7764.65,5861.7 L 7603.65,6151.15 Z " />
<path stroke="none" fill="#000000" transform="matrix(0.0666667 0 0 0.0666667 -105 -336.867)" d="M 2323.38,6494.73 L 2349.04,6509.2 L 2009.93,6709.57 L 2009.63,6680.11 L 2323.38,6494.73 Z " />
<text x="0" y="0" stroke="none" fill="#000000" transform="matrix(0.0666667 0 0 0.0666667 312.4 100.586)" font-style="normal" font-weight="bold" font-size="220px" font-family="Arial" >
R</text>
<path stroke="none" fill="#000000" transform="matrix(0.0666667 0 0 0.0666667 -105 -336.867)" d="M 6448.66,6430.47 L 6436.39,6408.1 L 6873.83,6167.97 L 6886.1,6190.33 L 6448.66,6430.47 Z " />
<text x="0" y="0" stroke="none" fill="#000000" transform="matrix(0.0666667 0 0 0.0666667 2.90004 122.651)" font-style="normal" font-weight="bold" font-size="220px" font-family="Arial" >
R</text>
<path stroke="none" fill="#000000" transform="matrix(0.0666667 0 0 0.0666667 -105 -336.867)" d="M 1773.85,6711.73 L 1752.38,6697.95 L 1982.91,6338.82 L 2004.38,6352.6 L 1773.85,6711.73 Z " />
<text x="0" y="0" stroke="none" fill="#000000" transform="matrix(0.0666667 0 0 0.0666667 147.292 99.74)" font-style="normal" font-weight="bold" font-size="200px" font-family="Arial" >
0.5 </text>
<text x="0" y="0" stroke="none" fill="#000000" transform="matrix(0.0666667 0 0 0.0666667 169.589 99.74)" font-style="normal" font-weight="bold" font-size="200px" font-family="Arial" >
mol </text>
<text x="0" y="0" stroke="none" fill="#000000" transform="matrix(0.0666667 0 0 0.0666667 197.067 99.74)" font-style="normal" font-weight="bold" font-size="200px" font-family="Arial" >
% </text>
<text x="0" y="0" stroke="none" fill="#000000" transform="matrix(0.0666667 0 0 0.0666667 212.656 99.74)" font-style="normal" font-weight="bold" font-size="200px" font-family="Arial" >
(based </text>
<text x="0" y="0" stroke="none" fill="#000000" transform="matrix(0.0666667 0 0 0.0666667 259.391 99.74)" font-style="normal" font-weight="bold" font-size="200px" font-family="Arial" >
on </text>
<text x="0" y="0" stroke="none" fill="#000000" transform="matrix(0.0666667 0 0 0.0666667 279.413 99.74)" font-style="normal" font-weight="bold" font-size="200px" font-family="Arial" >
Pd)</text>
<text x="0" y="0" stroke="none" fill="#000000" transform="matrix(0.0666667 0 0 0.0666667 171.072 121.197)" font-style="normal" font-weight="bold" font-size="200px" font-family="Arial" >
KF, </text>
<text x="0" y="0" stroke="none" fill="#000000" transform="matrix(0.0666667 0 0 0.0666667 196.312 121.197)" font-style="normal" font-weight="bold" font-size="200px" font-family="Arial" >
MeOH, </text>
<text x="0" y="0" stroke="none" fill="#000000" transform="matrix(0.0666667 0 0 0.0666667 242.356 121.197)" font-style="normal" font-weight="bold" font-size="200px" font-family="Arial" >
20 </text>
<text x="0" y="0" stroke="none" fill="#000000" transform="matrix(0.0666667 0 0 0.0666667 260.92 115.964)" font-style="normal" font-weight="bold" font-size="150px" font-family="Arial" >
o</text>
<text x="0" y="0" stroke="none" fill="#000000" transform="matrix(0.0666667 0 0 0.0666667 267.053 121.197)" font-style="normal" font-weight="bold" font-size="200px" font-family="Arial" >
C</text>
<text x="0" y="0" stroke="none" fill="#000000" transform="matrix(0.0666667 0 0 0.0666667 369.372 119.436)" font-style="normal" font-weight="bold" font-size="220px" font-family="Arial" >
52-99%</text>
<path stroke="none" fill="#000000" transform="matrix(0.0666667 0 0 0.0666667 -105 -336.867)" d="M 5981.73,6271.02 L 3744,6271.02 L 3744,6245.02 L 5981.73,6245.02 Z " />
<path stroke="none" fill="#000000" transform="matrix(0.0666667 0 0 0.0666667 -105 -336.867)" d="M 6203.96,6258.02 C 6203.96,6258.02 5948.84,6322.8 5948.84,6322.8 C 5948.84,6322.8 5980.73,6286.36 5980.73,6258.02 C 5980.73,6229.24 5948.84,6192.24 5948.84,6192.24 C 5948.84,6192.24 6203.96,6258.02 6203.96,6258.02 C 6203.96,6258.02 6203.96,6258.02 6203.96,6258.02 " />
<path stroke="#000000" stroke-width="1" fill="none" transform="matrix(0.0666667 0 0 0.0666667 -105 -336.867)" d="M 6203.96,6258.02 C 6203.96,6258.02 5948.84,6322.8 5948.84,6322.8 C 5948.84,6322.8 5980.73,6286.36 5980.73,6258.02 C 5980.73,6229.24 5948.84,6192.24 5948.84,6192.24 C 5948.84,6192.24 6203.96,6258.02 6203.96,6258.02 C 6203.96,6258.02 6203.96,6258.02 6203.96,6258.02 " />
<path stroke="none" fill="#000000" transform="matrix(0.0666667 0 0 0.0666667 -105 -336.867)" d="M 4349.63,5522.35 L 4324.11,5537.08 L 4324.11,5254.86 L 4349.63,5269.59 L 4349.63,5522.35 Z " />
<path stroke="none" fill="#000000" transform="matrix(0.0666667 0 0 0.0666667 -105 -336.867)" d="M 4413.41,5492.89 L 4387.89,5492.89 L 4387.89,5299.05 L 4413.41,5299.05 L 4413.41,5492.89 Z " />
<path stroke="none" fill="#000000" transform="matrix(0.0666667 0 0 0.0666667 -105 -336.867)" d="M 4568.52,5648.73 L 4568.52,5678.19 L 4324.11,5537.08 L 4349.63,5522.35 L 4568.52,5648.73 Z " />
<path stroke="none" fill="#000000" transform="matrix(0.0666667 0 0 0.0666667 -105 -336.867)" d="M 4787.42,5522.35 L 4800.18,5529.71 L 4800.61,5544.19 L 4568.52,5678.19 L 4568.52,5648.73 L 4787.42,5522.35 Z " />
<path stroke="none" fill="#000000" transform="matrix(0.0666667 0 0 0.0666667 -105 -336.867)" d="M 4730.02,5481.84 L 4742.77,5503.94 L 4574.9,5600.86 L 4562.15,5578.76 L 4730.02,5481.84 Z " />
<path stroke="none" fill="#000000" transform="matrix(0.0666667 0 0 0.0666667 -105 -336.867)" d="M 4787.42,5269.59 L 4800.18,5262.22 L 4812.93,5269.59 L 4812.93,5521.83 L 4800.18,5529.71 L 4787.42,5522.35 L 4787.42,5269.59 Z " />
<path stroke="none" fill="#000000" transform="matrix(0.0666667 0 0 0.0666667 -105 -336.867)" d="M 4568.52,5143.21 L 4568.52,5113.75 L 4800.18,5247.49 L 4800.18,5262.22 L 4787.42,5269.59 L 4568.52,5143.21 Z " />
<path stroke="none" fill="#000000" transform="matrix(0.0666667 0 0 0.0666667 -105 -336.867)" d="M 4562.15,5213.17 L 4574.9,5191.08 L 4742.77,5288 L 4730.02,5310.09 L 4562.15,5213.17 Z " />
<path stroke="none" fill="#000000" transform="matrix(0.0666667 0 0 0.0666667 -105 -336.867)" d="M 4349.63,5269.59 L 4324.11,5254.86 L 4568.52,5113.75 L 4568.52,5143.21 L 4349.63,5269.59 Z " />
<text x="0" y="0" stroke="none" fill="#000000" transform="matrix(0.0666667 0 0 0.0666667 224.566 47.0071)" font-style="normal" font-weight="bold" font-size="220px" font-family="Arial" >
Pd</text>
<path stroke="none" fill="#000000" transform="matrix(0.0666667 0 0 0.0666667 -105 -336.867)" d="M 4922.62,5576.63 L 4911.22,5599.45 L 4800.61,5544.19 L 4800.18,5529.71 L 4812.93,5521.83 L 4922.62,5576.63 Z " />
<path stroke="none" fill="#000000" transform="matrix(0.0666667 0 0 0.0666667 -105 -336.867)" d="M 5046.41,5105.33 L 5046.41,5134.79 L 4812.93,5269.59 L 4800.18,5262.22 L 4800.18,5247.49 L 5046.41,5105.33 Z " />
<text x="0" y="0" stroke="none" fill="#000000" transform="matrix(0.0666667 0 0 0.0666667 242.543 19.7148)" font-style="normal" font-weight="bold" font-size="220px" font-family="Arial" >
NMe</text>
<text x="0" y="0" stroke="none" fill="#000000" transform="matrix(0.0666667 0 0 0.0666667 273.518 22.8481)" font-style="normal" font-weight="bold" font-size="165px" font-family="Arial" >
2</text>
<path stroke="none" fill="#000000" transform="matrix(0.0666667 0 0 0.0666667 -105 -336.867)" d="M 5182.57,5183.94 L 5169.81,5206.03 L 5046.41,5134.79 L 5046.41,5105.33 L 5182.57,5183.94 Z " />
<path stroke="none" fill="#000000" transform="matrix(0.0666667 0 0 0.0666667 -105 -336.867)" d="M 5154.74,5533.07 L 5178.46,5424.53 L 5197.24,5449.6 L 5228.16,5450.81 L 5154.74,5533.07 L 5154.74,5533.07 Z " />
<path stroke="none" fill="#000000" transform="matrix(0.0666667 0 0 0.0666667 -105 -336.867)" d="M 5208.61,5455.38 L 5185.87,5443.81 L 5216.24,5384.18 L 5238.97,5395.76 L 5208.61,5455.38 Z " />
<text x="0" y="0" stroke="none" fill="#000000" transform="matrix(0.0666667 0 0 0.0666667 213.806 68.5971)" font-style="normal" font-weight="bold" font-size="220px" font-family="Arial" >
Cl</text>
<path stroke="none" fill="#000000" transform="matrix(0.0666667 0 0 0.0666667 -105 -336.867)" d="M 4969.3,5861.28 L 4948.28,5846.83 L 4972.26,5811.93 L 4993.29,5826.38 L 4969.3,5861.28 Z " />
<path stroke="none" fill="#000000" transform="matrix(0.0666667 0 0 0.0666667 -105 -336.867)" d="M 5498.7,5773.24 L 5491.88,5797.82 L 5427.09,5779.87 L 5443.7,5758 L 5498.7,5773.24 L 5498.7,5773.24 Z " />
<path stroke="none" fill="#000000" transform="matrix(0.0666667 0 0 0.0666667 -105 -336.867)" d="M 5259.99,5733.56 L 5266.8,5708.98 L 5329.02,5726.22 L 5312.41,5748.09 L 5259.99,5733.56 L 5259.99,5733.56 Z " />
<path stroke="none" fill="#000000" transform="matrix(0.0666667 0 0 0.0666667 -105 -336.867)" d="M 5252.69,6087.13 L 5246.08,6111.77 L 5187.07,6095.95 L 5203.74,6074 L 5252.69,6087.13 L 5252.69,6087.13 Z " />
<path stroke="none" fill="#000000" transform="matrix(0.0666667 0 0 0.0666667 -105 -336.867)" d="M 5035.73,6055.36 L 5042.34,6030.72 L 5088.41,6043.08 L 5071.75,6065.02 L 5035.73,6055.36 L 5035.73,6055.36 Z " />
<path stroke="none" fill="#000000" transform="matrix(0.0666667 0 0 0.0666667 -105 -336.867)" d="M 5105.71,6132.79 L 5085.39,6117.36 L 5416.71,5681.04 L 5437.03,5696.47 L 5105.71,6132.79 Z " />
<text x="0" y="0" stroke="none" fill="#000000" transform="matrix(0.0666667 0 0 0.0666667 249.183 72.9174)" font-style="normal" font-weight="bold" font-size="165px" font-family="Arial" >
2</text>
<path stroke="none" fill="#ff0000" transform="matrix(0.0666667 0 0 0.0666667 -105 -336.867)" d="M 3212.63,6692.11 L 3212.93,6721.57 L 2869.85,6528.07 L 2895.21,6513.08 L 3212.63,6692.11 Z " />
<path stroke="none" fill="#ff0000" transform="matrix(0.0666667 0 0 0.0666667 -105 -336.867)" d="M 3218.25,6616.93 L 3205.72,6639.15 L 2944.11,6491.6 L 2956.65,6469.38 L 3218.25,6616.93 Z " />
<path stroke="none" fill="#ff0000" transform="matrix(0.0666667 0 0 0.0666667 -105 -336.867)" d="M 3522.71,6142.32 L 3548.08,6127.34 L 3552.04,6521.2 L 3526.38,6506.73 L 3522.71,6142.32 Z " />
<path stroke="none" fill="#ff0000" transform="matrix(0.0666667 0 0 0.0666667 -105 -336.867)" d="M 3454.79,6175.05 L 3480.3,6174.79 L 3483.33,6475.12 L 3457.82,6475.38 L 3454.79,6175.05 Z " />
<path stroke="none" fill="#ff0000" transform="matrix(0.0666667 0 0 0.0666667 -105 -336.867)" d="M 3205.29,5963.3 L 3205.15,5948.57 L 3217.83,5941.08 L 3548.08,6127.34 L 3522.71,6142.32 L 3205.29,5963.3 Z " />
<path stroke="none" fill="#ff0000" transform="matrix(0.0666667 0 0 0.0666667 -105 -336.867)" d="M 2891.54,6148.68 L 2865.89,6134.21 L 3192.32,5941.33 L 3205.15,5948.57 L 3205.29,5963.3 L 2891.54,6148.68 Z " />
<path stroke="none" fill="#ff0000" transform="matrix(0.0666667 0 0 0.0666667 -105 -336.867)" d="M 2953.84,6191.14 L 2940.87,6169.17 L 3199.45,6016.39 L 3212.43,6038.35 L 2953.84,6191.14 Z " />
<path stroke="none" fill="#ff0000" transform="matrix(0.0666667 0 0 0.0666667 -105 -336.867)" d="M 2895.21,6513.08 L 2869.85,6528.07 L 2865.89,6134.21 L 2891.54,6148.68 L 2895.21,6513.08 Z " />
<text x="0" y="0" stroke="none" fill="#000000" transform="matrix(0.0666667 0 0 0.0666667 103.122 40.1956)" font-style="normal" font-weight="bold" font-size="220px" font-family="Arial" >
B(OH)</text>
<text x="0" y="0" stroke="none" fill="#000000" transform="matrix(0.0666667 0 0 0.0666667 145.498 43.3289)" font-style="normal" font-weight="bold" font-size="165px" font-family="Arial" >
2</text>
<path stroke="none" fill="#000000" transform="matrix(0.0666667 0 0 0.0666667 -105 -336.867)" d="M 3190.18,5728.63 L 3215.69,5728.38 L 3217.83,5941.08 L 3205.15,5948.57 L 3192.32,5941.33 L 3190.18,5728.63 Z " />
<path stroke="none" fill="#ff0000" transform="matrix(0.0666667 0 0 0.0666667 -105 -336.867)" d="M 3526.38,6506.73 L 3552.04,6521.2 L 3212.93,6721.57 L 3212.63,6692.11 L 3526.38,6506.73 Z " />
</svg>
