<?xml version="1.0" standalone="no" ?>
<!DOCTYPE svg PUBLIC "-//W3C//DTD SVG 1.1//EN" "http://www.w3.org/Graphics/SVG/1.1/DTD/svg11.dtd">
<svg width="602px" height="450px" viewBox="0 0 602 450" style="background-color: #ffffff00" xmlns="http://www.w3.org/2000/svg" xmlns:xlink="http://www.w3.org/1999/xlink" version="1.1" >
<text x="0" y="0" stroke="none" fill="#000000" transform="matrix(0.0833333 0 0 0.0833333 86.4067 13.7917)" font-style="normal" font-weight="normal" font-size="140px" font-family="Arial" >
XHO(R)</text>
<text x="0" y="0" stroke="none" fill="#000000" transform="matrix(0.0833333 0 0 0.0833333 127.956 16.375)" font-style="normal" font-weight="normal" font-size="105px" font-family="Arial" >
m</text>
<text x="0" y="0" stroke="none" fill="#000000" transform="matrix(0.0833333 0 0 0.0833333 135.244 13.7917)" font-style="normal" font-weight="normal" font-size="140px" font-family="Arial" >
H </text>
<text x="0" y="0" stroke="none" fill="#000000" transform="matrix(0.0833333 0 0 0.0833333 146.92 13.7917)" font-style="normal" font-weight="normal" font-size="140px" font-family="Arial" >
+ </text>
<text x="0" y="0" stroke="none" fill="#000000" transform="matrix(0.0833333 0 0 0.0833333 157.003 13.7917)" font-style="normal" font-weight="normal" font-size="140px" font-family="Arial" >
(</text>
<text x="0" y="0" stroke="none" fill="#000000" transform="matrix(0.0833333 0 0 0.0833333 160.92 13.7917)" font-style="normal" font-weight="normal" font-size="140px" font-family="Arial" >
X+1)OCNR&apos;NCO</text>
<text x="0" y="0" stroke="none" fill="#000000" transform="matrix(0.0833333 0 0 0.0833333 326.603 101.557)" font-style="normal" font-weight="normal" font-size="140px" font-family="Arial" >
+</text>
<text x="0" y="0" stroke="none" fill="#0000ff" transform="matrix(0.0833333 0 0 0.0833333 421.745 101.604)" font-style="normal" font-weight="normal" font-size="140px" font-family="Arial" >
SiO</text>
<text x="0" y="0" stroke="none" fill="#0000ff" transform="matrix(0.0833333 0 0 0.0833333 421.079 81.2721)" font-style="normal" font-weight="normal" font-size="140px" font-family="Arial" >
OEt</text>
<path stroke="none" fill="#0000ff" transform="matrix(0.0833333 0 0 0.0833333 -110.175 -117.25)" d="M 6425.05,2408.43 L 6434.04,2408.43 L 6434.04,2501.42 L 6425.05,2501.42 L 6425.05,2408.43 Z " />
<text x="0" y="0" stroke="none" fill="#0000ff" transform="matrix(0.0833333 0 0 0.0833333 421.079 121.936)" font-style="normal" font-weight="normal" font-size="140px" font-family="Arial" >
OEt</text>
<path stroke="none" fill="#0000ff" transform="matrix(0.0833333 0 0 0.0833333 -110.175 -117.25)" d="M 6434.04,2745.4 L 6425.05,2745.4 L 6425.05,2652.42 L 6434.04,2652.42 L 6434.04,2745.4 Z " />
<text x="0" y="0" stroke="none" fill="#0000ff" transform="matrix(0.0833333 0 0 0.0833333 374.12 101.604)" font-style="normal" font-weight="normal" font-size="140px" font-family="Arial" >
(CH</text>
<text x="0" y="0" stroke="none" fill="#0000ff" transform="matrix(0.0833333 0 0 0.0833333 394.887 104.187)" font-style="normal" font-weight="normal" font-size="105px" font-family="Arial" >
2</text>
<text x="0" y="0" stroke="none" fill="#0000ff" transform="matrix(0.0833333 0 0 0.0833333 399.762 101.604)" font-style="normal" font-weight="normal" font-size="140px" font-family="Arial" >
)</text>
<text x="0" y="0" stroke="none" fill="#0000ff" transform="matrix(0.0833333 0 0 0.0833333 403.679 104.187)" font-style="normal" font-weight="normal" font-size="105px" font-family="Arial" >
3</text>
<path stroke="none" fill="#0000ff" transform="matrix(0.0833333 0 0 0.0833333 -110.175 -117.25)" d="M 6244.54,2576.24 L 6244.54,2567.26 L 6365.04,2567.26 L 6365.04,2576.24 L 6244.54,2576.24 Z " />
<text x="0" y="0" stroke="none" fill="#0000ff" transform="matrix(0.0833333 0 0 0.0833333 340.729 101.604)" font-style="normal" font-weight="normal" font-size="140px" font-family="Arial" >
H</text>
<text x="0" y="0" stroke="none" fill="#0000ff" transform="matrix(0.0833333 0 0 0.0833333 349.155 104.187)" font-style="normal" font-weight="normal" font-size="105px" font-family="Arial" >
2</text>
<text x="0" y="0" stroke="none" fill="#0000ff" transform="matrix(0.0833333 0 0 0.0833333 354.03 101.604)" font-style="normal" font-weight="normal" font-size="140px" font-family="Arial" >
N</text>
<path stroke="none" fill="#0000ff" transform="matrix(0.0833333 0 0 0.0833333 -110.175 -117.25)" d="M 5684.85,2576.24 L 5684.85,2567.26 L 5795.54,2567.26 L 5795.54,2576.24 L 5684.85,2576.24 Z " />
<text x="0" y="0" stroke="none" fill="#0000ff" transform="matrix(0.0833333 0 0 0.0833333 453.118 101.604)" font-style="normal" font-weight="normal" font-size="140px" font-family="Arial" >
SiO</text>
<path stroke="none" fill="#0000ff" transform="matrix(0.0833333 0 0 0.0833333 -110.175 -117.25)" d="M 6741.51,2567.26 L 6741.51,2576.24 L 6635.04,2576.24 L 6635.04,2567.26 L 6741.51,2567.26 Z " />
<text x="0" y="0" stroke="none" fill="#0000ff" transform="matrix(0.0833333 0 0 0.0833333 452.118 81.2721)" font-style="normal" font-weight="normal" font-size="140px" font-family="Arial" >
Me</text>
<path stroke="none" fill="#0000ff" transform="matrix(0.0833333 0 0 0.0833333 -110.175 -117.25)" d="M 6801.52,2408.6 L 6810.5,2408.6 L 6810.5,2501.42 L 6801.52,2501.42 L 6801.52,2408.6 Z " />
<text x="0" y="0" stroke="none" fill="#0000ff" transform="matrix(0.0833333 0 0 0.0833333 452.118 121.936)" font-style="normal" font-weight="normal" font-size="140px" font-family="Arial" >
Me</text>
<path stroke="none" fill="#0000ff" transform="matrix(0.0833333 0 0 0.0833333 -110.175 -117.25)" d="M 6810.5,2747.57 L 6801.52,2747.57 L 6801.52,2652.42 L 6810.5,2652.42 L 6810.5,2747.57 Z " />
<text x="0" y="0" stroke="none" fill="#0000ff" transform="matrix(0.0833333 0 0 0.0833333 486.156 101.604)" font-style="normal" font-weight="normal" font-size="140px" font-family="Arial" >
Si</text>
<path stroke="none" fill="#0000ff" transform="matrix(0.0833333 0 0 0.0833333 -110.175 -117.25)" d="M 7137.98,2567.26 L 7137.98,2576.24 L 7011.51,2576.24 L 7011.51,2567.26 L 7137.98,2567.26 Z " />
<text x="0" y="0" stroke="none" fill="#0000ff" transform="matrix(0.0833333 0 0 0.0833333 485.49 81.2721)" font-style="normal" font-weight="normal" font-size="140px" font-family="Arial" >
OEt</text>
<path stroke="none" fill="#0000ff" transform="matrix(0.0833333 0 0 0.0833333 -110.175 -117.25)" d="M 7197.99,2408.43 L 7206.97,2408.43 L 7206.97,2501.42 L 7197.99,2501.42 L 7197.99,2408.43 Z " />
<text x="0" y="0" stroke="none" fill="#0000ff" transform="matrix(0.0833333 0 0 0.0833333 485.49 121.936)" font-style="normal" font-weight="normal" font-size="140px" font-family="Arial" >
OEt</text>
<path stroke="none" fill="#0000ff" transform="matrix(0.0833333 0 0 0.0833333 -110.175 -117.25)" d="M 7206.97,2745.4 L 7197.99,2745.4 L 7197.99,2652.42 L 7206.97,2652.42 L 7206.97,2745.4 Z " />
<text x="0" y="0" stroke="none" fill="#0000ff" transform="matrix(0.0833333 0 0 0.0833333 513.608 101.604)" font-style="normal" font-weight="normal" font-size="140px" font-family="Arial" >
(CH</text>
<text x="0" y="0" stroke="none" fill="#0000ff" transform="matrix(0.0833333 0 0 0.0833333 534.375 104.187)" font-style="normal" font-weight="normal" font-size="105px" font-family="Arial" >
2</text>
<text x="0" y="0" stroke="none" fill="#0000ff" transform="matrix(0.0833333 0 0 0.0833333 539.25 101.604)" font-style="normal" font-weight="normal" font-size="140px" font-family="Arial" >
)</text>
<text x="0" y="0" stroke="none" fill="#0000ff" transform="matrix(0.0833333 0 0 0.0833333 543.167 104.187)" font-style="normal" font-weight="normal" font-size="105px" font-family="Arial" >
3</text>
<path stroke="none" fill="#0000ff" transform="matrix(0.0833333 0 0 0.0833333 -110.175 -117.25)" d="M 7469.39,2567.26 L 7469.39,2576.24 L 7294.98,2576.24 L 7294.98,2567.26 L 7469.39,2567.26 Z " />
<text x="0" y="0" stroke="none" fill="#0000ff" transform="matrix(0.0833333 0 0 0.0833333 560.568 101.562)" font-style="normal" font-weight="normal" font-size="140px" font-family="Arial" >
NH</text>
<text x="0" y="0" stroke="none" fill="#0000ff" transform="matrix(0.0833333 0 0 0.0833333 577.419 104.146)" font-style="normal" font-weight="normal" font-size="105px" font-family="Arial" >
2</text>
<path stroke="none" fill="#0000ff" transform="matrix(0.0833333 0 0 0.0833333 -110.175 -117.25)" d="M 8034.91,2566.87 L 8034.93,2575.86 L 7918.4,2576.06 L 7918.38,2567.08 L 8034.91,2566.87 Z " />
<text x="0" y="0" stroke="none" fill="#008000" transform="matrix(0.0833333 0 0 0.0833333 21.8716 190)" font-style="normal" font-weight="normal" font-size="140px" font-family="Arial" >
{CNHR&apos;NHC[O</text>
<text x="0" y="0" stroke="none" fill="#008000" transform="matrix(0.0833333 0 0 0.0833333 111.827 189.896)" font-style="normal" font-weight="normal" font-size="140px" font-family="Arial" >
(R)</text>
<text x="0" y="0" stroke="none" fill="#008000" transform="matrix(0.0833333 0 0 0.0833333 128.085 192.479)" font-style="normal" font-weight="normal" font-size="105px" font-family="Arial" >
m</text>
<path stroke="none" fill="#008000" transform="matrix(0.0833333 0 0 0.0833333 -110.175 -117.25)" d="M 2647.99,3626.97 L 2648.04,3635.96 L 2531.58,3636.6 L 2531.53,3627.61 L 2647.99,3626.97 Z " />
<text x="0" y="0" stroke="none" fill="#008000" transform="matrix(0.0833333 0 0 0.0833333 149.388 189.948)" font-style="normal" font-weight="normal" font-size="140px" font-family="Arial" >
CNHR&apos;NHC]</text>
<text x="0" y="0" stroke="none" fill="#008000" transform="matrix(0.0833333 0 0 0.0833333 213.865 192.531)" font-style="normal" font-weight="normal" font-size="105px" font-family="Arial" >
x-1</text>
<text x="0" y="0" stroke="none" fill="#008000" transform="matrix(0.0833333 0 0 0.0833333 226.023 189.948)" font-style="normal" font-weight="normal" font-size="140px" font-family="Arial" >
O(R)</text>
<text x="0" y="0" stroke="none" fill="#008000" transform="matrix(0.0833333 0 0 0.0833333 251.365 192.531)" font-style="normal" font-weight="normal" font-size="105px" font-family="Arial" >
m</text>
<path stroke="none" fill="#008000" transform="matrix(0.0833333 0 0 0.0833333 -110.175 -117.25)" d="M 3097.76,3627.25 L 3097.75,3636.24 L 2964.01,3635.99 L 2964.03,3627 L 3097.76,3627.25 Z " />
<text x="0" y="0" stroke="none" fill="#008000" transform="matrix(0.0833333 0 0 0.0833333 272.305 189.896)" font-style="normal" font-weight="normal" font-size="140px" font-family="Arial" >
CNHR&apos;NHCNH</text>
<path stroke="none" fill="#008000" transform="matrix(0.0833333 0 0 0.0833333 -110.175 -117.25)" d="M 4572.75,3626.86 L 4572.76,3635.85 L 4443.76,3636.05 L 4443.75,3627.07 L 4572.75,3626.86 Z " />
<text x="0" y="0" stroke="none" fill="#008000" transform="matrix(0.0833333 0 0 0.0833333 364.543 189.896)" font-style="normal" font-weight="normal" font-size="140px" font-family="Arial" >
(CH</text>
<text x="0" y="0" stroke="none" fill="#008000" transform="matrix(0.0833333 0 0 0.0833333 385.31 192.479)" font-style="normal" font-weight="normal" font-size="105px" font-family="Arial" >
2</text>
<text x="0" y="0" stroke="none" fill="#008000" transform="matrix(0.0833333 0 0 0.0833333 390.185 189.896)" font-style="normal" font-weight="normal" font-size="140px" font-family="Arial" >
)</text>
<text x="0" y="0" stroke="none" fill="#008000" transform="matrix(0.0833333 0 0 0.0833333 394.102 192.479)" font-style="normal" font-weight="normal" font-size="105px" font-family="Arial" >
3</text>
<path stroke="none" fill="#008000" transform="matrix(0.0833333 0 0 0.0833333 -110.175 -117.25)" d="M 5680.62,3626.76 L 5680.62,3635.74 L 5539.75,3635.74 L 5539.75,3626.76 L 5680.62,3626.76 Z " />
<text x="0" y="0" stroke="none" fill="#008000" transform="matrix(0.0833333 0 0 0.0833333 412.95 190)" font-style="normal" font-weight="normal" font-size="140px" font-family="Arial" >
SiO</text>
<path stroke="none" fill="#008000" transform="matrix(0.0833333 0 0 0.0833333 -110.175 -117.25)" d="M 6259.52,3627.74 L 6259.49,3636.72 L 6129.6,3636.17 L 6129.64,3627.19 L 6259.52,3627.74 Z " />
<text x="0" y="0" stroke="none" fill="#008000" transform="matrix(0.0833333 0 0 0.0833333 412.284 169.668)" font-style="normal" font-weight="normal" font-size="140px" font-family="Arial" >
OEt</text>
<path stroke="none" fill="#008000" transform="matrix(0.0833333 0 0 0.0833333 -110.175 -117.25)" d="M 6319.51,3469.18 L 6328.5,3469.18 L 6328.5,3562.17 L 6319.51,3562.17 L 6319.51,3469.18 Z " />
<text x="0" y="0" stroke="none" fill="#008000" transform="matrix(0.0833333 0 0 0.0833333 412.284 210.332)" font-style="normal" font-weight="normal" font-size="140px" font-family="Arial" >
OEt</text>
<path stroke="none" fill="#008000" transform="matrix(0.0833333 0 0 0.0833333 -110.175 -117.25)" d="M 6328.5,3806.15 L 6319.51,3806.15 L 6319.51,3713.17 L 6328.5,3713.17 L 6328.5,3806.15 Z " />
<text x="0" y="0" stroke="none" fill="#008000" transform="matrix(0.0833333 0 0 0.0833333 448.489 190)" font-style="normal" font-weight="normal" font-size="140px" font-family="Arial" >
SiO</text>
<path stroke="none" fill="#008000" transform="matrix(0.0833333 0 0 0.0833333 -110.175 -117.25)" d="M 6685.97,3628.01 L 6685.97,3636.99 L 6529.5,3636.99 L 6529.5,3628.01 L 6685.97,3628.01 Z " />
<text x="0" y="0" stroke="none" fill="#008000" transform="matrix(0.0833333 0 0 0.0833333 447.489 210.332)" font-style="normal" font-weight="normal" font-size="140px" font-family="Arial" >
Me</text>
<path stroke="none" fill="#008000" transform="matrix(0.0833333 0 0 0.0833333 -110.175 -117.25)" d="M 6754.96,3808.32 L 6745.98,3808.32 L 6745.98,3713.17 L 6754.96,3713.17 L 6754.96,3808.32 Z " />
<text x="0" y="0" stroke="none" fill="#008000" transform="matrix(0.0833333 0 0 0.0833333 447.489 169.668)" font-style="normal" font-weight="normal" font-size="140px" font-family="Arial" >
Me</text>
<path stroke="none" fill="#008000" transform="matrix(0.0833333 0 0 0.0833333 -110.175 -117.25)" d="M 6745.98,3469.35 L 6754.96,3469.35 L 6754.96,3562.17 L 6745.98,3562.17 L 6745.98,3469.35 Z " />
<text x="0" y="0" stroke="none" fill="#008000" transform="matrix(0.0833333 0 0 0.0833333 481.82 190)" font-style="normal" font-weight="normal" font-size="140px" font-family="Arial" >
N</text>
<path stroke="none" fill="#008000" transform="matrix(0.0833333 0 0 0.0833333 -110.175 -117.25)" d="M 7089.94,3628.01 L 7089.94,3636.99 L 6955.97,3636.99 L 6955.97,3628.01 L 7089.94,3628.01 Z " />
<text x="0" y="0" stroke="none" fill="#008000" transform="matrix(0.0833333 0 0 0.0833333 481.486 169.668)" font-style="normal" font-weight="normal" font-size="140px" font-family="Arial" >
OEt</text>
<path stroke="none" fill="#008000" transform="matrix(0.0833333 0 0 0.0833333 -110.175 -117.25)" d="M 7149.95,3469.18 L 7158.93,3469.18 L 7158.93,3564.33 L 7149.95,3564.33 L 7149.95,3469.18 Z " />
<text x="0" y="0" stroke="none" fill="#008000" transform="matrix(0.0833333 0 0 0.0833333 481.486 210.332)" font-style="normal" font-weight="normal" font-size="140px" font-family="Arial" >
OEt</text>
<path stroke="none" fill="#008000" transform="matrix(0.0833333 0 0 0.0833333 -110.175 -117.25)" d="M 7158.93,3806.15 L 7149.95,3806.15 L 7149.95,3711.33 L 7158.93,3711.33 L 7158.93,3806.15 Z " />
<text x="0" y="0" stroke="none" fill="#008000" transform="matrix(0.0833333 0 0 0.0833333 509.604 190)" font-style="normal" font-weight="normal" font-size="140px" font-family="Arial" >
(CH</text>
<text x="0" y="0" stroke="none" fill="#008000" transform="matrix(0.0833333 0 0 0.0833333 530.372 192.583)" font-style="normal" font-weight="normal" font-size="105px" font-family="Arial" >
2</text>
<text x="0" y="0" stroke="none" fill="#008000" transform="matrix(0.0833333 0 0 0.0833333 535.247 190)" font-style="normal" font-weight="normal" font-size="140px" font-family="Arial" >
)</text>
<text x="0" y="0" stroke="none" fill="#008000" transform="matrix(0.0833333 0 0 0.0833333 539.163 192.583)" font-style="normal" font-weight="normal" font-size="105px" font-family="Arial" >
3</text>
<path stroke="none" fill="#008000" transform="matrix(0.0833333 0 0 0.0833333 -110.175 -117.25)" d="M 7421.35,3628.01 L 7421.35,3636.99 L 7217.94,3636.99 L 7217.94,3628.01 L 7421.35,3628.01 Z " />
<text x="0" y="0" stroke="none" fill="#008000" transform="matrix(0.0833333 0 0 0.0833333 558.763 189.896)" font-style="normal" font-weight="normal" font-size="140px" font-family="Arial" >
NH}</text>
<text x="0" y="0" stroke="none" fill="#008000" transform="matrix(0.0833333 0 0 0.0833333 579.53 192.479)" font-style="normal" font-weight="normal" font-size="105px" font-family="Arial" >
p</text>
<path stroke="none" fill="#008000" transform="matrix(0.0833333 0 0 0.0833333 -110.175 -117.25)" d="M 8013.24,3627.02 L 8013.27,3636 L 7870.37,3636.58 L 7870.33,3627.6 L 8013.24,3627.02 Z " />
<path stroke="none" fill="#008000" transform="matrix(0.0833333 0 0 0.0833333 -110.175 -117.25)" d="M 8496.95,3626.76 L 8496.95,3635.74 L 8355.25,3635.74 L 8355.25,3626.76 L 8496.95,3626.76 Z " />
<path stroke="none" fill="#008000" transform="matrix(0.0833333 0 0 0.0833333 -110.175 -117.25)" d="M 1364.08,3636.99 L 1364.08,3628.01 L 1563.56,3628.01 L 1563.56,3636.99 L 1364.08,3636.99 Z " />
<text x="0" y="0" stroke="none" fill="#008000" transform="matrix(0.0833333 0 0 0.0833333 25.4593 169.668)" font-style="normal" font-weight="normal" font-size="140px" font-family="Arial" >
O</text>
<path stroke="none" fill="#008000" transform="matrix(0.0833333 0 0 0.0833333 -110.175 -117.25)" d="M 1653.22,3469.18 L 1662.21,3469.18 L 1662.21,3562.17 L 1653.22,3562.17 L 1653.22,3469.18 Z " />
<path stroke="none" fill="#008000" transform="matrix(0.0833333 0 0 0.0833333 -110.175 -117.25)" d="M 1702.02,3469.18 L 1711,3469.18 L 1711,3562.17 L 1702.02,3562.17 L 1702.02,3469.18 Z " />
<text x="0" y="0" stroke="none" fill="#008000" transform="matrix(0.0833333 0 0 0.0833333 78.261 169.668)" font-style="normal" font-weight="normal" font-size="140px" font-family="Arial" >
O</text>
<path stroke="none" fill="#008000" transform="matrix(0.0833333 0 0 0.0833333 -110.175 -117.25)" d="M 2286.84,3469.18 L 2295.83,3469.18 L 2295.83,3562.17 L 2286.84,3562.17 L 2286.84,3469.18 Z " />
<path stroke="none" fill="#008000" transform="matrix(0.0833333 0 0 0.0833333 -110.175 -117.25)" d="M 2335.64,3469.18 L 2344.62,3469.18 L 2344.62,3562.17 L 2335.64,3562.17 L 2335.64,3469.18 Z " />
<text x="0" y="0" stroke="none" fill="#008000" transform="matrix(0.0833333 0 0 0.0833333 149.055 169.616)" font-style="normal" font-weight="normal" font-size="140px" font-family="Arial" >
O</text>
<path stroke="none" fill="#008000" transform="matrix(0.0833333 0 0 0.0833333 -110.175 -117.25)" d="M 3136.38,3468.56 L 3145.37,3468.56 L 3145.38,3561.55 L 3136.4,3561.55 L 3136.38,3468.56 Z " />
<path stroke="none" fill="#008000" transform="matrix(0.0833333 0 0 0.0833333 -110.175 -117.25)" d="M 3185.18,3468.55 L 3194.16,3468.55 L 3194.18,3561.54 L 3185.2,3561.54 L 3185.18,3468.55 Z " />
<text x="0" y="0" stroke="none" fill="#008000" transform="matrix(0.0833333 0 0 0.0833333 201.861 169.616)" font-style="normal" font-weight="normal" font-size="140px" font-family="Arial" >
O</text>
<path stroke="none" fill="#008000" transform="matrix(0.0833333 0 0 0.0833333 -110.175 -117.25)" d="M 3770.04,3468.56 L 3779.02,3468.56 L 3779.02,3561.54 L 3770.04,3561.54 L 3770.04,3468.56 Z " />
<path stroke="none" fill="#008000" transform="matrix(0.0833333 0 0 0.0833333 -110.175 -117.25)" d="M 3818.83,3468.56 L 3827.82,3468.56 L 3827.82,3561.54 L 3818.83,3561.54 L 3818.83,3468.56 Z " />
<text x="0" y="0" stroke="none" fill="#008000" transform="matrix(0.0833333 0 0 0.0833333 271.971 169.564)" font-style="normal" font-weight="normal" font-size="140px" font-family="Arial" >
O</text>
<path stroke="none" fill="#008000" transform="matrix(0.0833333 0 0 0.0833333 -110.175 -117.25)" d="M 4611.36,3467.93 L 4620.35,3467.93 L 4620.35,3560.92 L 4611.36,3560.92 L 4611.36,3467.93 Z " />
<path stroke="none" fill="#008000" transform="matrix(0.0833333 0 0 0.0833333 -110.175 -117.25)" d="M 4660.16,3467.93 L 4669.14,3467.93 L 4669.14,3560.92 L 4660.16,3560.92 L 4660.16,3467.93 Z " />
<text x="0" y="0" stroke="none" fill="#008000" transform="matrix(0.0833333 0 0 0.0833333 324.777 169.564)" font-style="normal" font-weight="normal" font-size="140px" font-family="Arial" >
O</text>
<path stroke="none" fill="#008000" transform="matrix(0.0833333 0 0 0.0833333 -110.175 -117.25)" d="M 5245.04,3467.93 L 5254.02,3467.93 L 5254.02,3560.92 L 5245.04,3560.92 L 5245.04,3467.93 Z " />
<path stroke="none" fill="#008000" transform="matrix(0.0833333 0 0 0.0833333 -110.175 -117.25)" d="M 5293.83,3467.93 L 5302.82,3467.93 L 5302.82,3560.92 L 5293.83,3560.92 L 5293.83,3467.93 Z " />
<text x="0" y="0" stroke="none" fill="#ff0000" transform="matrix(0.0833333 0 0 0.0833333 16.5103 102.083)" font-style="normal" font-weight="normal" font-size="140px" font-family="Arial" >
OCNR&apos;NC[O</text>
<text x="0" y="0" stroke="none" fill="#ff0000" transform="matrix(0.0833333 0 0 0.0833333 61.2158 81.7513)" font-style="normal" font-weight="normal" font-size="140px" font-family="Arial" >
O</text>
<path stroke="none" fill="#ff0000" transform="matrix(0.0833333 0 0 0.0833333 -110.175 -117.25)" d="M 2082.3,2414.18 L 2091.28,2414.18 L 2091.28,2507.17 L 2082.3,2507.17 L 2082.3,2414.18 Z " />
<path stroke="none" fill="#ff0000" transform="matrix(0.0833333 0 0 0.0833333 -110.175 -117.25)" d="M 2131.1,2414.18 L 2140.08,2414.18 L 2140.08,2507.17 L 2131.1,2507.17 L 2131.1,2414.18 Z " />
<text x="0" y="0" stroke="none" fill="#ff0000" transform="matrix(0.0833333 0 0 0.0833333 96.1355 102.083)" font-style="normal" font-weight="normal" font-size="140px" font-family="Arial" >
(R)</text>
<text x="0" y="0" stroke="none" fill="#ff0000" transform="matrix(0.0833333 0 0 0.0833333 112.394 104.667)" font-style="normal" font-weight="normal" font-size="105px" font-family="Arial" >
m</text>
<path stroke="none" fill="#ff0000" transform="matrix(0.0833333 0 0 0.0833333 -110.175 -117.25)" d="M 2459.73,2573.01 L 2459.73,2581.99 L 2327.22,2581.99 L 2327.22,2573.01 L 2459.73,2573.01 Z " />
<text x="0" y="0" stroke="none" fill="#ff0000" transform="matrix(0.0833333 0 0 0.0833333 133.224 102.083)" font-style="normal" font-weight="normal" font-size="140px" font-family="Arial" >
CNHR&apos;NHC]</text>
<text x="0" y="0" stroke="none" fill="#ff0000" transform="matrix(0.0833333 0 0 0.0833333 197.701 104.667)" font-style="normal" font-weight="normal" font-size="105px" font-family="Arial" >
x-1</text>
<text x="0" y="0" stroke="none" fill="#ff0000" transform="matrix(0.0833333 0 0 0.0833333 209.859 102.083)" font-style="normal" font-weight="normal" font-size="140px" font-family="Arial" >
O(R)</text>
<text x="0" y="0" stroke="none" fill="#ff0000" transform="matrix(0.0833333 0 0 0.0833333 235.201 104.667)" font-style="normal" font-weight="normal" font-size="105px" font-family="Arial" >
m</text>
<path stroke="none" fill="#ff0000" transform="matrix(0.0833333 0 0 0.0833333 -110.175 -117.25)" d="M 2903.79,2573.01 L 2903.79,2581.99 L 2775.73,2581.99 L 2775.73,2573.01 L 2903.79,2573.01 Z " />
<text x="0" y="0" stroke="none" fill="#ff0000" transform="matrix(0.0833333 0 0 0.0833333 256.506 101.927)" font-style="normal" font-weight="normal" font-size="140px" font-family="Arial" >
CNHR&apos;NCO</text>
<path stroke="none" fill="#ff0000" transform="matrix(0.0833333 0 0 0.0833333 -110.175 -117.25)" d="M 4383.14,2571.52 L 4383.2,2580.5 L 4249.82,2581.26 L 4249.76,2572.28 L 4383.14,2571.52 Z " />
<text x="0" y="0" stroke="none" fill="#ff0000" transform="matrix(0.0833333 0 0 0.0833333 132.891 81.7513)" font-style="normal" font-weight="normal" font-size="140px" font-family="Arial" >
O</text>
<path stroke="none" fill="#ff0000" transform="matrix(0.0833333 0 0 0.0833333 -110.175 -117.25)" d="M 2942.4,2414.18 L 2951.39,2414.18 L 2951.39,2507.17 L 2942.4,2507.17 L 2942.4,2414.18 Z " />
<path stroke="none" fill="#ff0000" transform="matrix(0.0833333 0 0 0.0833333 -110.175 -117.25)" d="M 2991.2,2414.18 L 3000.18,2414.18 L 3000.18,2507.17 L 2991.2,2507.17 L 2991.2,2414.18 Z " />
<text x="0" y="0" stroke="none" fill="#ff0000" transform="matrix(0.0833333 0 0 0.0833333 185.697 81.7513)" font-style="normal" font-weight="normal" font-size="140px" font-family="Arial" >
O</text>
<path stroke="none" fill="#ff0000" transform="matrix(0.0833333 0 0 0.0833333 -110.175 -117.25)" d="M 3576.08,2414.18 L 3585.06,2414.18 L 3585.06,2507.17 L 3576.08,2507.17 L 3576.08,2414.18 Z " />
<path stroke="none" fill="#ff0000" transform="matrix(0.0833333 0 0 0.0833333 -110.175 -117.25)" d="M 3624.87,2414.18 L 3633.86,2414.18 L 3633.86,2507.17 L 3624.87,2507.17 L 3624.87,2414.18 Z " />
<text x="0" y="0" stroke="none" fill="#ff0000" transform="matrix(0.0833333 0 0 0.0833333 256.172 81.5951)" font-style="normal" font-weight="normal" font-size="140px" font-family="Arial" >
O</text>
<path stroke="none" fill="#ff0000" transform="matrix(0.0833333 0 0 0.0833333 -110.175 -117.25)" d="M 4421.78,2412.31 L 4430.76,2412.31 L 4430.76,2505.29 L 4421.78,2505.29 L 4421.78,2412.31 Z " />
<path stroke="none" fill="#ff0000" transform="matrix(0.0833333 0 0 0.0833333 -110.175 -117.25)" d="M 4470.57,2412.31 L 4479.56,2412.31 L 4479.56,2505.29 L 4470.57,2505.29 L 4470.57,2412.31 Z " />
<path stroke="none" fill="#000000" transform="matrix(0.0833333 0 0 0.0833333 -110.175 -117.25)" d="M 3318.19,2037.39 L 3318.19,1710 L 3327.19,1710 L 3327.19,2037.39 Z " />
<path stroke="none" fill="#000000" transform="matrix(0.0833333 0 0 0.0833333 -110.175 -117.25)" d="M 3322.69,2115 C 3322.69,2115 3298.23,2025.16 3298.23,2025.16 C 3298.23,2025.16 3311.98,2036.39 3322.69,2036.39 C 3332.95,2036.39 3346.15,2025.16 3346.15,2025.16 C 3346.15,2025.16 3322.69,2115 3322.69,2115 C 3322.69,2115 3322.69,2115 3322.69,2115 " />
<path stroke="#000000" stroke-width="1" fill="none" transform="matrix(0.0833333 0 0 0.0833333 -110.175 -117.25)" d="M 3322.69,2115 C 3322.69,2115 3298.23,2025.16 3298.23,2025.16 C 3298.23,2025.16 3311.98,2036.39 3322.69,2036.39 C 3332.95,2036.39 3346.15,2025.16 3346.15,2025.16 C 3346.15,2025.16 3322.69,2115 3322.69,2115 C 3322.69,2115 3322.69,2115 3322.69,2115 " />
<text x="0" y="0" stroke="none" fill="#000000" transform="matrix(0.0833333 0 0 0.0833333 174.111 43.375)" font-style="normal" font-weight="normal" font-size="140px" font-family="Arial" >
Cat</text>
<text x="0" y="0" stroke="none" fill="#000000" transform="matrix(0.0833333 0 0 0.0833333 150.948 43.5208)" font-style="normal" font-weight="bold" font-size="180px" font-family="Times New Roman" >
I</text>
<path stroke="none" fill="#000000" transform="matrix(0.0833333 0 0 0.0833333 -110.175 -117.25)" d="M 5271.48,3129.26 L 5271.48,2801.88 L 5280.48,2801.88 L 5280.48,3129.26 Z " />
<path stroke="none" fill="#000000" transform="matrix(0.0833333 0 0 0.0833333 -110.175 -117.25)" d="M 5275.98,3206.88 C 5275.98,3206.88 5251.52,3117.03 5251.52,3117.03 C 5251.52,3117.03 5265.27,3128.26 5275.98,3128.26 C 5286.24,3128.26 5299.44,3117.03 5299.44,3117.03 C 5299.44,3117.03 5275.98,3206.88 5275.98,3206.88 C 5275.98,3206.88 5275.98,3206.88 5275.98,3206.88 " />
<path stroke="#000000" stroke-width="1" fill="none" transform="matrix(0.0833333 0 0 0.0833333 -110.175 -117.25)" d="M 5275.98,3206.88 C 5275.98,3206.88 5251.52,3117.03 5251.52,3117.03 C 5251.52,3117.03 5265.27,3128.26 5275.98,3128.26 C 5286.24,3128.26 5299.44,3117.03 5299.44,3117.03 C 5299.44,3117.03 5275.98,3206.88 5275.98,3206.88 C 5275.98,3206.88 5275.98,3206.88 5275.98,3206.88 " />
<text x="0" y="0" stroke="none" fill="#000000" transform="matrix(0.0833333 0 0 0.0833333 307.47 133.677)" font-style="normal" font-weight="bold" font-size="180px" font-family="Times New Roman" >
II</text>
<path stroke="none" fill="#000000" transform="matrix(0.0833333 0 0 0.0833333 -110.175 -117.25)" d="M 5271.48,4312.39 L 5271.48,3985 L 5280.48,3985 L 5280.48,4312.39 Z " />
<path stroke="none" fill="#000000" transform="matrix(0.0833333 0 0 0.0833333 -110.175 -117.25)" d="M 5275.98,4390 C 5275.98,4390 5251.52,4300.16 5251.52,4300.16 C 5251.52,4300.16 5265.27,4311.39 5275.98,4311.39 C 5286.24,4311.39 5299.44,4300.16 5299.44,4300.16 C 5299.44,4300.16 5275.98,4390 5275.98,4390 C 5275.98,4390 5275.98,4390 5275.98,4390 " />
<path stroke="#000000" stroke-width="1" fill="none" transform="matrix(0.0833333 0 0 0.0833333 -110.175 -117.25)" d="M 5275.98,4390 C 5275.98,4390 5251.52,4300.16 5251.52,4300.16 C 5251.52,4300.16 5265.27,4311.39 5275.98,4311.39 C 5286.24,4311.39 5299.44,4300.16 5299.44,4300.16 C 5299.44,4300.16 5275.98,4390 5275.98,4390 C 5275.98,4390 5275.98,4390 5275.98,4390 " />
<text x="0" y="0" stroke="none" fill="#000000" transform="matrix(0.0833333 0 0 0.0833333 336.052 226.708)" font-style="normal" font-weight="normal" font-size="140px" font-family="Arial" >
+ </text>
<text x="0" y="0" stroke="none" fill="#000000" transform="matrix(0.0833333 0 0 0.0833333 346.136 226.708)" font-style="normal" font-weight="normal" font-size="140px" font-family="Arial" >
H</text>
<text x="0" y="0" stroke="none" fill="#000000" transform="matrix(0.0833333 0 0 0.0833333 354.561 229.292)" font-style="normal" font-weight="normal" font-size="105px" font-family="Arial" >
2</text>
<text x="0" y="0" stroke="none" fill="#000000" transform="matrix(0.0833333 0 0 0.0833333 359.436 226.708)" font-style="normal" font-weight="normal" font-size="140px" font-family="Arial" >
O</text>
<text x="0" y="0" stroke="none" fill="#000000" transform="matrix(0.0833333 0 0 0.0833333 336.052 240.125)" font-style="normal" font-weight="normal" font-size="140px" font-family="Arial" >
–</text>
<text x="0" y="0" stroke="none" fill="#000000" transform="matrix(0.0833333 0 0 0.0833333 342.552 240.125)" font-style="normal" font-weight="normal" font-size="140px" font-family="Arial" >
 </text>
<text x="0" y="0" stroke="none" fill="#000000" transform="matrix(0.0833333 0 0 0.0833333 345.802 240.125)" font-style="normal" font-weight="normal" font-size="140px" font-family="Arial" >
EtOH</text>
<text x="0" y="0" stroke="none" fill="#000000" transform="matrix(0.0833333 0 0 0.0833333 302.051 233.104)" font-style="normal" font-weight="bold" font-size="180px" font-family="Times New Roman" >
III</text>
<text x="0" y="0" stroke="none" fill="#b71c00" transform="matrix(0.0833333 0 0 0.0833333 21.8716 296.25)" font-style="normal" font-weight="normal" font-size="140px" font-family="Arial" >
{CNHR&apos;NHC[O</text>
<text x="0" y="0" stroke="none" fill="#b71c00" transform="matrix(0.0833333 0 0 0.0833333 111.827 296.146)" font-style="normal" font-weight="normal" font-size="140px" font-family="Arial" >
(R)</text>
<text x="0" y="0" stroke="none" fill="#b71c00" transform="matrix(0.0833333 0 0 0.0833333 128.085 298.729)" font-style="normal" font-weight="normal" font-size="105px" font-family="Arial" >
m</text>
<path stroke="none" fill="#b71c00" transform="matrix(0.0833333 0 0 0.0833333 -110.175 -117.25)" d="M 2647.99,4901.97 L 2648.04,4910.96 L 2531.58,4911.6 L 2531.53,4902.61 L 2647.99,4901.97 Z " />
<text x="0" y="0" stroke="none" fill="#b71c00" transform="matrix(0.0833333 0 0 0.0833333 149.388 296.198)" font-style="normal" font-weight="normal" font-size="140px" font-family="Arial" >
CNHR&apos;NHC]</text>
<text x="0" y="0" stroke="none" fill="#b71c00" transform="matrix(0.0833333 0 0 0.0833333 213.865 298.781)" font-style="normal" font-weight="normal" font-size="105px" font-family="Arial" >
x-1</text>
<text x="0" y="0" stroke="none" fill="#b71c00" transform="matrix(0.0833333 0 0 0.0833333 226.023 296.198)" font-style="normal" font-weight="normal" font-size="140px" font-family="Arial" >
O(R)</text>
<text x="0" y="0" stroke="none" fill="#b71c00" transform="matrix(0.0833333 0 0 0.0833333 251.365 298.781)" font-style="normal" font-weight="normal" font-size="105px" font-family="Arial" >
m</text>
<path stroke="none" fill="#b71c00" transform="matrix(0.0833333 0 0 0.0833333 -110.175 -117.25)" d="M 3097.76,4902.25 L 3097.75,4911.24 L 2964.01,4910.99 L 2964.03,4902 L 3097.76,4902.25 Z " />
<text x="0" y="0" stroke="none" fill="#b71c00" transform="matrix(0.0833333 0 0 0.0833333 272.305 296.146)" font-style="normal" font-weight="normal" font-size="140px" font-family="Arial" >
CNHR&apos;NHCNH</text>
<path stroke="none" fill="#b71c00" transform="matrix(0.0833333 0 0 0.0833333 -110.175 -117.25)" d="M 4572.75,4901.86 L 4572.76,4910.85 L 4443.76,4911.05 L 4443.75,4902.07 L 4572.75,4901.86 Z " />
<text x="0" y="0" stroke="none" fill="#b71c00" transform="matrix(0.0833333 0 0 0.0833333 364.543 296.146)" font-style="normal" font-weight="normal" font-size="140px" font-family="Arial" >
(CH</text>
<text x="0" y="0" stroke="none" fill="#b71c00" transform="matrix(0.0833333 0 0 0.0833333 385.31 298.729)" font-style="normal" font-weight="normal" font-size="105px" font-family="Arial" >
2</text>
<text x="0" y="0" stroke="none" fill="#b71c00" transform="matrix(0.0833333 0 0 0.0833333 390.185 296.146)" font-style="normal" font-weight="normal" font-size="140px" font-family="Arial" >
)</text>
<text x="0" y="0" stroke="none" fill="#b71c00" transform="matrix(0.0833333 0 0 0.0833333 394.102 298.729)" font-style="normal" font-weight="normal" font-size="105px" font-family="Arial" >
3</text>
<path stroke="none" fill="#b71c00" transform="matrix(0.0833333 0 0 0.0833333 -110.175 -117.25)" d="M 5680.62,4901.76 L 5680.62,4910.74 L 5539.75,4910.74 L 5539.75,4901.76 L 5680.62,4901.76 Z " />
<text x="0" y="0" stroke="none" fill="#b71c00" transform="matrix(0.0833333 0 0 0.0833333 412.95 296.25)" font-style="normal" font-weight="normal" font-size="140px" font-family="Arial" >
SiO</text>
<path stroke="none" fill="#b71c00" transform="matrix(0.0833333 0 0 0.0833333 -110.175 -117.25)" d="M 6259.52,4902.74 L 6259.49,4911.72 L 6129.6,4911.17 L 6129.64,4902.19 L 6259.52,4902.74 Z " />
<text x="0" y="0" stroke="none" fill="#b71c00" transform="matrix(0.0833333 0 0 0.0833333 412.284 275.918)" font-style="normal" font-weight="normal" font-size="140px" font-family="Arial" >
O</text>
<path stroke="none" fill="#b71c00" transform="matrix(0.0833333 0 0 0.0833333 -110.175 -117.25)" d="M 6319.51,4744.18 L 6328.5,4744.18 L 6328.5,4837.17 L 6319.51,4837.17 L 6319.51,4744.18 Z " />
<text x="0" y="0" stroke="none" fill="#b71c00" transform="matrix(0.0833333 0 0 0.0833333 412.284 316.582)" font-style="normal" font-weight="normal" font-size="140px" font-family="Arial" >
O</text>
<path stroke="none" fill="#b71c00" transform="matrix(0.0833333 0 0 0.0833333 -110.175 -117.25)" d="M 6328.5,5081.15 L 6319.51,5081.15 L 6319.51,4988.17 L 6328.5,4988.17 L 6328.5,5081.15 Z " />
<text x="0" y="0" stroke="none" fill="#b71c00" transform="matrix(0.0833333 0 0 0.0833333 444.323 296.25)" font-style="normal" font-weight="normal" font-size="140px" font-family="Arial" >
SiO</text>
<path stroke="none" fill="#b71c00" transform="matrix(0.0833333 0 0 0.0833333 -110.175 -117.25)" d="M 6635.97,4903.01 L 6635.97,4911.99 L 6529.5,4911.99 L 6529.5,4903.01 L 6635.97,4903.01 Z " />
<text x="0" y="0" stroke="none" fill="#b71c00" transform="matrix(0.0833333 0 0 0.0833333 443.323 316.582)" font-style="normal" font-weight="normal" font-size="140px" font-family="Arial" >
Me</text>
<path stroke="none" fill="#b71c00" transform="matrix(0.0833333 0 0 0.0833333 -110.175 -117.25)" d="M 6704.96,5083.32 L 6695.98,5083.32 L 6695.98,4988.17 L 6704.96,4988.17 L 6704.96,5083.32 Z " />
<text x="0" y="0" stroke="none" fill="#b71c00" transform="matrix(0.0833333 0 0 0.0833333 443.323 275.918)" font-style="normal" font-weight="normal" font-size="140px" font-family="Arial" >
Me</text>
<path stroke="none" fill="#b71c00" transform="matrix(0.0833333 0 0 0.0833333 -110.175 -117.25)" d="M 6695.98,4744.35 L 6704.96,4744.35 L 6704.96,4837.17 L 6695.98,4837.17 L 6695.98,4744.35 Z " />
<text x="0" y="0" stroke="none" fill="#b71c00" transform="matrix(0.0833333 0 0 0.0833333 477.153 296.25)" font-style="normal" font-weight="normal" font-size="140px" font-family="Arial" >
Si</text>
<path stroke="none" fill="#b71c00" transform="matrix(0.0833333 0 0 0.0833333 -110.175 -117.25)" d="M 7029.94,4903.01 L 7029.94,4911.99 L 6905.97,4911.99 L 6905.97,4903.01 L 7029.94,4903.01 Z " />
<text x="0" y="0" stroke="none" fill="#b71c00" transform="matrix(0.0833333 0 0 0.0833333 476.486 275.918)" font-style="normal" font-weight="normal" font-size="140px" font-family="Arial" >
O</text>
<path stroke="none" fill="#b71c00" transform="matrix(0.0833333 0 0 0.0833333 -110.175 -117.25)" d="M 7089.95,4744.18 L 7098.93,4744.18 L 7098.93,4837.17 L 7089.95,4837.17 L 7089.95,4744.18 Z " />
<text x="0" y="0" stroke="none" fill="#b71c00" transform="matrix(0.0833333 0 0 0.0833333 476.486 316.582)" font-style="normal" font-weight="normal" font-size="140px" font-family="Arial" >
O</text>
<path stroke="none" fill="#b71c00" transform="matrix(0.0833333 0 0 0.0833333 -110.175 -117.25)" d="M 7098.93,5081.15 L 7089.95,5081.15 L 7089.95,4988.17 L 7098.93,4988.17 L 7098.93,5081.15 Z " />
<text x="0" y="0" stroke="none" fill="#b71c00" transform="matrix(0.0833333 0 0 0.0833333 504.604 296.25)" font-style="normal" font-weight="normal" font-size="140px" font-family="Arial" >
(CH</text>
<text x="0" y="0" stroke="none" fill="#b71c00" transform="matrix(0.0833333 0 0 0.0833333 525.372 298.833)" font-style="normal" font-weight="normal" font-size="105px" font-family="Arial" >
2</text>
<text x="0" y="0" stroke="none" fill="#b71c00" transform="matrix(0.0833333 0 0 0.0833333 530.247 296.25)" font-style="normal" font-weight="normal" font-size="140px" font-family="Arial" >
)</text>
<text x="0" y="0" stroke="none" fill="#b71c00" transform="matrix(0.0833333 0 0 0.0833333 534.163 298.833)" font-style="normal" font-weight="normal" font-size="105px" font-family="Arial" >
3</text>
<path stroke="none" fill="#b71c00" transform="matrix(0.0833333 0 0 0.0833333 -110.175 -117.25)" d="M 7361.35,4903.01 L 7361.35,4911.99 L 7186.94,4911.99 L 7186.94,4903.01 L 7361.35,4903.01 Z " />
<text x="0" y="0" stroke="none" fill="#b71c00" transform="matrix(0.0833333 0 0 0.0833333 553.763 296.146)" font-style="normal" font-weight="normal" font-size="140px" font-family="Arial" >
NH}</text>
<text x="0" y="0" stroke="none" fill="#b71c00" transform="matrix(0.0833333 0 0 0.0833333 574.53 298.729)" font-style="normal" font-weight="normal" font-size="105px" font-family="Arial" >
p</text>
<path stroke="none" fill="#b71c00" transform="matrix(0.0833333 0 0 0.0833333 -110.175 -117.25)" d="M 7953.24,4902.02 L 7953.27,4911 L 7810.37,4911.58 L 7810.33,4902.6 L 7953.24,4902.02 Z " />
<path stroke="none" fill="#b71c00" transform="matrix(0.0833333 0 0 0.0833333 -110.175 -117.25)" d="M 8436.95,4901.76 L 8436.95,4910.74 L 8295.25,4910.74 L 8295.25,4901.76 L 8436.95,4901.76 Z " />
<path stroke="none" fill="#b71c00" transform="matrix(0.0833333 0 0 0.0833333 -110.175 -117.25)" d="M 1364.08,4911.99 L 1364.08,4903.01 L 1563.56,4903.01 L 1563.56,4911.99 L 1364.08,4911.99 Z " />
<text x="0" y="0" stroke="none" fill="#b71c00" transform="matrix(0.0833333 0 0 0.0833333 25.4593 275.918)" font-style="normal" font-weight="normal" font-size="140px" font-family="Arial" >
O</text>
<path stroke="none" fill="#b71c00" transform="matrix(0.0833333 0 0 0.0833333 -110.175 -117.25)" d="M 1653.22,4744.18 L 1662.2,4744.18 L 1662.2,4837.17 L 1653.22,4837.17 L 1653.22,4744.18 Z " />
<path stroke="none" fill="#b71c00" transform="matrix(0.0833333 0 0 0.0833333 -110.175 -117.25)" d="M 1702.02,4744.18 L 1711,4744.18 L 1711,4837.17 L 1702.02,4837.17 L 1702.02,4744.18 Z " />
<text x="0" y="0" stroke="none" fill="#b71c00" transform="matrix(0.0833333 0 0 0.0833333 78.261 275.918)" font-style="normal" font-weight="normal" font-size="140px" font-family="Arial" >
O</text>
<path stroke="none" fill="#b71c00" transform="matrix(0.0833333 0 0 0.0833333 -110.175 -117.25)" d="M 2286.84,4744.18 L 2295.83,4744.18 L 2295.83,4837.17 L 2286.84,4837.17 L 2286.84,4744.18 Z " />
<path stroke="none" fill="#b71c00" transform="matrix(0.0833333 0 0 0.0833333 -110.175 -117.25)" d="M 2335.64,4744.18 L 2344.62,4744.18 L 2344.62,4837.17 L 2335.64,4837.17 L 2335.64,4744.18 Z " />
<text x="0" y="0" stroke="none" fill="#b71c00" transform="matrix(0.0833333 0 0 0.0833333 149.055 275.866)" font-style="normal" font-weight="normal" font-size="140px" font-family="Arial" >
O</text>
<path stroke="none" fill="#b71c00" transform="matrix(0.0833333 0 0 0.0833333 -110.175 -117.25)" d="M 3136.38,4743.56 L 3145.37,4743.56 L 3145.38,4836.55 L 3136.4,4836.55 L 3136.38,4743.56 Z " />
<path stroke="none" fill="#b71c00" transform="matrix(0.0833333 0 0 0.0833333 -110.175 -117.25)" d="M 3185.18,4743.55 L 3194.16,4743.55 L 3194.18,4836.54 L 3185.2,4836.54 L 3185.18,4743.55 Z " />
<text x="0" y="0" stroke="none" fill="#b71c00" transform="matrix(0.0833333 0 0 0.0833333 201.861 275.866)" font-style="normal" font-weight="normal" font-size="140px" font-family="Arial" >
O</text>
<path stroke="none" fill="#b71c00" transform="matrix(0.0833333 0 0 0.0833333 -110.175 -117.25)" d="M 3770.04,4743.56 L 3779.02,4743.56 L 3779.02,4836.54 L 3770.04,4836.54 L 3770.04,4743.56 Z " />
<path stroke="none" fill="#b71c00" transform="matrix(0.0833333 0 0 0.0833333 -110.175 -117.25)" d="M 3818.83,4743.56 L 3827.82,4743.56 L 3827.82,4836.54 L 3818.83,4836.54 L 3818.83,4743.56 Z " />
<text x="0" y="0" stroke="none" fill="#b71c00" transform="matrix(0.0833333 0 0 0.0833333 271.971 275.814)" font-style="normal" font-weight="normal" font-size="140px" font-family="Arial" >
O</text>
<path stroke="none" fill="#b71c00" transform="matrix(0.0833333 0 0 0.0833333 -110.175 -117.25)" d="M 4611.36,4742.93 L 4620.35,4742.93 L 4620.35,4835.92 L 4611.36,4835.92 L 4611.36,4742.93 Z " />
<path stroke="none" fill="#b71c00" transform="matrix(0.0833333 0 0 0.0833333 -110.175 -117.25)" d="M 4660.16,4742.93 L 4669.14,4742.93 L 4669.14,4835.92 L 4660.16,4835.92 L 4660.16,4742.93 Z " />
<text x="0" y="0" stroke="none" fill="#b71c00" transform="matrix(0.0833333 0 0 0.0833333 324.777 275.814)" font-style="normal" font-weight="normal" font-size="140px" font-family="Arial" >
O</text>
<path stroke="none" fill="#b71c00" transform="matrix(0.0833333 0 0 0.0833333 -110.175 -117.25)" d="M 5245.04,4742.93 L 5254.02,4742.93 L 5254.02,4835.92 L 5245.04,4835.92 L 5245.04,4742.93 Z " />
<path stroke="none" fill="#b71c00" transform="matrix(0.0833333 0 0 0.0833333 -110.175 -117.25)" d="M 5293.83,4742.93 L 5302.82,4742.93 L 5302.82,4835.92 L 5293.83,4835.92 L 5293.83,4742.93 Z " />
<path stroke="none" fill="#b71c00" transform="matrix(0.0833333 0 0 0.0833333 -110.175 -117.25)" d="M 6328.5,5395.47 L 6319.51,5395.47 L 6319.51,5232.15 L 6328.5,5232.15 L 6328.5,5395.47 Z " />
<path stroke="none" fill="#b71c00" transform="matrix(0.0833333 0 0 0.0833333 -110.175 -117.25)" d="M 7098.93,5395.47 L 7089.95,5395.47 L 7089.95,5232.15 L 7098.93,5232.15 L 7098.93,5395.47 Z " />
<text x="0" y="0" stroke="none" fill="#b71c00" transform="matrix(0.0833333 0 0 0.0833333 412.95 255.586)" font-style="normal" font-weight="normal" font-size="140px" font-family="Arial" >
Si</text>
<path stroke="none" fill="#b71c00" transform="matrix(0.0833333 0 0 0.0833333 -110.175 -117.25)" d="M 6319.51,4500.2 L 6328.5,4500.2 L 6328.5,4593.18 L 6319.51,4593.18 L 6319.51,4500.2 Z " />
<text x="0" y="0" stroke="none" fill="#b71c00" transform="matrix(0.0833333 0 0 0.0833333 477.153 255.586)" font-style="normal" font-weight="normal" font-size="140px" font-family="Arial" >
Si</text>
<path stroke="none" fill="#b71c00" transform="matrix(0.0833333 0 0 0.0833333 -110.175 -117.25)" d="M 7089.95,4500.2 L 7098.93,4500.2 L 7098.93,4593.18 L 7089.95,4593.18 L 7089.95,4500.2 Z " />
<path stroke="none" fill="#b71c00" transform="matrix(0.0833333 0 0 0.0833333 -110.175 -117.25)" d="M 6080.02,4424.02 L 6080.02,4415.04 L 6259.5,4415.04 L 6259.5,4424.02 L 6080.02,4424.02 Z " />
<path stroke="none" fill="#b71c00" transform="matrix(0.0833333 0 0 0.0833333 -110.175 -117.25)" d="M 6319.51,4175.55 L 6328.5,4175.55 L 6328.5,4349.2 L 6319.51,4349.2 L 6319.51,4175.55 Z " />
<path stroke="none" fill="#b71c00" transform="matrix(0.0833333 0 0 0.0833333 -110.175 -117.25)" d="M 6630.42,4415.04 L 6630.42,4424.02 L 6416.5,4424.02 L 6416.5,4415.04 L 6630.42,4415.04 Z " />
<path stroke="none" fill="#b71c00" transform="matrix(0.0833333 0 0 0.0833333 -110.175 -117.25)" d="M 6850.45,4424.02 L 6850.45,4415.04 L 7029.94,4415.04 L 7029.94,4424.02 L 6850.45,4424.02 Z " />
<path stroke="none" fill="#b71c00" transform="matrix(0.0833333 0 0 0.0833333 -110.175 -117.25)" d="M 7089.95,4175.55 L 7098.93,4175.55 L 7098.93,4349.2 L 7089.95,4349.2 L 7089.95,4175.55 Z " />
<path stroke="none" fill="#b71c00" transform="matrix(0.0833333 0 0 0.0833333 -110.175 -117.25)" d="M 7400.85,4415.04 L 7400.85,4424.02 L 7186.94,4424.02 L 7186.94,4415.04 L 7400.85,4415.04 Z " />
<text x="0" y="0" stroke="none" fill="#ff0000" transform="matrix(0.0833333 0 0 0.0833333 161.121 124.292)" font-style="normal" font-weight="bold" font-size="180px" font-family="Arial" >
A</text>
<text x="0" y="0" stroke="none" fill="#008000" transform="matrix(0.0833333 0 0 0.0833333 172.996 212.833)" font-style="normal" font-weight="bold" font-size="180px" font-family="Arial" >
B</text>
<text x="0" y="0" stroke="none" fill="#b71c00" transform="matrix(0.0833333 0 0 0.0833333 175.496 318.042)" font-style="normal" font-weight="bold" font-size="180px" font-family="Arial" >
C</text>
<text x="0" y="0" stroke="none" fill="#000000" transform="matrix(0.0833333 0 0 0.0833333 38.1244 400.258)" font-style="normal" font-weight="normal" font-size="140px" font-family="Arial" >
R </text>
<text x="0" y="0" stroke="none" fill="#000000" transform="matrix(0.0833333 0 0 0.0833333 49.7997 400.258)" font-style="normal" font-weight="normal" font-size="140px" font-family="Arial" >
=</text>
<text x="0" y="0" stroke="none" fill="#000000" transform="matrix(0.0833333 0 0 0.0833333 177.028 400.258)" font-style="normal" font-weight="normal" font-size="140px" font-family="Arial" >
R&apos; </text>
<text x="0" y="0" stroke="none" fill="#000000" transform="matrix(0.0833333 0 0 0.0833333 190.954 400.258)" font-style="normal" font-weight="normal" font-size="140px" font-family="Arial" >
=</text>
<path stroke="none" fill="#000000" transform="matrix(0.0833333 0 0 0.0833333 -110.175 -117.25)" d="M 4017.83,6161.1 L 4020.43,6165.59 L 4017.83,6170.09 L 3776.44,6170.09 L 3776.44,6161.1 L 4017.83,6161.1 Z " />
<path stroke="none" fill="#000000" transform="matrix(0.0833333 0 0 0.0833333 -110.175 -117.25)" d="M 4145.01,6372.4 L 4139.82,6381.38 L 4017.83,6170.09 L 4020.43,6165.59 L 4025.61,6165.59 L 4145.01,6372.4 Z " />
<path stroke="none" fill="#000000" transform="matrix(0.0833333 0 0 0.0833333 -110.175 -117.25)" d="M 4383.81,6372.4 L 4389,6381.38 L 4139.82,6381.38 L 4145.01,6372.4 L 4383.81,6372.4 Z " />
<path stroke="none" fill="#000000" transform="matrix(0.0833333 0 0 0.0833333 -110.175 -117.25)" d="M 4503.21,6165.59 L 4508.39,6165.59 L 4510.99,6170.09 L 4389,6381.38 L 4383.81,6372.4 L 4503.21,6165.59 Z " />
<path stroke="none" fill="#000000" transform="matrix(0.0833333 0 0 0.0833333 -110.175 -117.25)" d="M 4383.81,5958.79 L 4389,5949.8 L 4510.99,6161.1 L 4508.39,6165.59 L 4503.21,6165.59 L 4383.81,5958.79 Z " />
<path stroke="none" fill="#000000" transform="matrix(0.0833333 0 0 0.0833333 -110.175 -117.25)" d="M 4145.01,5958.79 L 4139.82,5949.8 L 4389,5949.8 L 4383.81,5958.79 L 4145.01,5958.79 Z " />
<path stroke="none" fill="#000000" transform="matrix(0.0833333 0 0 0.0833333 -110.175 -117.25)" d="M 4025.61,6165.59 L 4020.43,6165.59 L 4017.83,6161.1 L 4139.82,5949.8 L 4145.01,5958.79 L 4025.61,6165.59 Z " />
<text x="0" y="0" stroke="none" fill="#000000" transform="matrix(0.0833333 0 0 0.0833333 281.648 401.091)" font-style="normal" font-weight="normal" font-size="140px" font-family="Arial" >
CH</text>
<text x="0" y="0" stroke="none" fill="#000000" transform="matrix(0.0833333 0 0 0.0833333 298.499 403.674)" font-style="normal" font-weight="normal" font-size="105px" font-family="Arial" >
2</text>
<path stroke="none" fill="#000000" transform="matrix(0.0833333 0 0 0.0833333 -110.175 -117.25)" d="M 4684.88,6161.1 L 4684.88,6170.09 L 4510.99,6170.09 L 4508.39,6165.59 L 4510.99,6161.1 L 4684.88,6161.1 Z " />
<path stroke="none" fill="#000000" transform="matrix(0.0833333 0 0 0.0833333 -110.175 -117.25)" d="M 5094.92,6161.1 L 5097.52,6165.59 L 5094.92,6170.09 L 4981.88,6170.09 L 4981.88,6161.1 L 5094.92,6161.1 Z " />
<path stroke="none" fill="#000000" transform="matrix(0.0833333 0 0 0.0833333 -110.175 -117.25)" d="M 5222.1,6372.4 L 5216.92,6381.38 L 5094.92,6170.09 L 5097.52,6165.59 L 5102.71,6165.59 L 5222.1,6372.4 Z " />
<path stroke="none" fill="#000000" transform="matrix(0.0833333 0 0 0.0833333 -110.175 -117.25)" d="M 5460.9,6372.4 L 5466.09,6381.38 L 5216.92,6381.38 L 5222.1,6372.4 L 5460.9,6372.4 Z " />
<path stroke="none" fill="#000000" transform="matrix(0.0833333 0 0 0.0833333 -110.175 -117.25)" d="M 5580.3,6165.59 L 5585.49,6165.59 L 5588.08,6170.09 L 5466.09,6381.38 L 5460.9,6372.4 L 5580.3,6165.59 Z " />
<path stroke="none" fill="#000000" transform="matrix(0.0833333 0 0 0.0833333 -110.175 -117.25)" d="M 5460.9,5958.79 L 5466.09,5949.8 L 5588.08,6161.1 L 5585.49,6165.59 L 5580.3,6165.59 L 5460.9,5958.79 Z " />
<path stroke="none" fill="#000000" transform="matrix(0.0833333 0 0 0.0833333 -110.175 -117.25)" d="M 5222.1,5958.79 L 5216.92,5949.8 L 5466.09,5949.8 L 5460.9,5958.79 L 5222.1,5958.79 Z " />
<path stroke="none" fill="#000000" transform="matrix(0.0833333 0 0 0.0833333 -110.175 -117.25)" d="M 5102.71,6165.59 L 5097.52,6165.59 L 5094.92,6161.1 L 5216.92,5949.8 L 5222.1,5958.79 L 5102.71,6165.59 Z " />
<path stroke="none" fill="#000000" transform="matrix(0.0833333 0 0 0.0833333 -110.175 -117.25)" d="M 5829.47,6161.1 L 5829.47,6170.09 L 5588.08,6170.09 L 5585.49,6165.59 L 5588.08,6161.1 L 5829.47,6161.1 Z " />
<text x="0" y="0" stroke="none" fill="#000000" transform="matrix(0.0833333 0 0 0.0833333 267.021 440.346)" font-style="normal" font-weight="normal" font-size="140px" font-family="Arial" >
H</text>
<text x="0" y="0" stroke="none" fill="#000000" transform="matrix(0.0833333 0 0 0.0833333 275.446 442.93)" font-style="normal" font-weight="normal" font-size="105px" font-family="Arial" >
12</text>
<text x="0" y="0" stroke="none" fill="#000000" transform="matrix(0.0833333 0 0 0.0833333 285.196 440.346)" font-style="normal" font-weight="normal" font-size="140px" font-family="Arial" >
–</text>
<text x="0" y="0" stroke="none" fill="#000000" transform="matrix(0.0833333 0 0 0.0833333 291.696 440.346)" font-style="normal" font-weight="normal" font-size="140px" font-family="Arial" >
MDI</text>
<path stroke="none" fill="#000000" transform="matrix(0.0833333 0 0 0.0833333 -110.175 -117.25)" d="M 6257.76,6388.8 L 6253.27,6391.39 L 6248.78,6386.9 L 6248.78,6144.81 L 6257.76,6150 L 6257.76,6388.8 Z " />
<path stroke="none" fill="#000000" transform="matrix(0.0833333 0 0 0.0833333 -110.175 -117.25)" d="M 6464.57,6508.2 L 6464.57,6518.57 L 6254.92,6397.53 L 6253.27,6391.39 L 6257.76,6388.8 L 6464.57,6508.2 Z " />
<path stroke="none" fill="#000000" transform="matrix(0.0833333 0 0 0.0833333 -110.175 -117.25)" d="M 6671.37,6388.8 L 6675.87,6391.39 L 6675.87,6396.58 L 6464.57,6518.57 L 6464.57,6508.2 L 6671.37,6388.8 Z " />
<path stroke="none" fill="#000000" transform="matrix(0.0833333 0 0 0.0833333 -110.175 -117.25)" d="M 6671.37,6150 L 6680.36,6144.81 L 6680.36,6388.8 L 6675.87,6391.39 L 6671.37,6388.8 L 6671.37,6150 Z " />
<path stroke="none" fill="#000000" transform="matrix(0.0833333 0 0 0.0833333 -110.175 -117.25)" d="M 6464.57,6030.6 L 6464.57,6025.41 L 6470.7,6023.77 L 6680.36,6144.81 L 6671.37,6150 L 6464.57,6030.6 Z " />
<path stroke="none" fill="#000000" transform="matrix(0.0833333 0 0 0.0833333 -110.175 -117.25)" d="M 6257.76,6150 L 6248.78,6144.81 L 6458.43,6023.77 L 6464.57,6025.41 L 6464.57,6030.6 L 6257.76,6150 Z " />
<path stroke="none" fill="#000000" transform="matrix(0.0833333 0 0 0.0833333 -110.175 -117.25)" d="M 6135.17,6604.93 L 6127.39,6600.44 L 6245.49,6395.88 L 6253.27,6391.39 L 6254.92,6397.53 L 6135.17,6604.93 Z " />
<path stroke="none" fill="#000000" transform="matrix(0.0833333 0 0 0.0833333 -110.175 -117.25)" d="M 6009.29,6395.88 L 6009.29,6386.9 L 6248.78,6386.9 L 6253.27,6391.39 L 6245.49,6395.88 L 6009.29,6395.88 Z " />
<path stroke="none" fill="#000000" transform="matrix(0.0833333 0 0 0.0833333 -110.175 -117.25)" d="M 6889.41,6509.49 L 6884.92,6517.27 L 6675.87,6396.58 L 6675.87,6391.39 L 6680.36,6388.8 L 6889.41,6509.49 Z " />
<path stroke="none" fill="#000000" transform="matrix(0.0833333 0 0 0.0833333 -110.175 -117.25)" d="M 6338.69,5816.36 L 6346.47,5811.87 L 6464.57,6016.43 L 6464.57,6025.41 L 6458.43,6023.77 L 6338.69,5816.36 Z " />
<path stroke="none" fill="#000000" transform="matrix(0.0833333 0 0 0.0833333 -110.175 -117.25)" d="M 6583.97,5809.63 L 6589.15,5818.61 L 6470.7,6023.77 L 6464.57,6025.41 L 6464.57,6016.43 L 6583.97,5809.63 Z " />
<path stroke="none" fill="#000000" transform="matrix(0.0833333 0 0 0.0833333 -110.175 -117.25)" d="M 6830.55,5809.63 L 6830.55,5818.61 L 6589.15,5818.61 L 6583.97,5809.63 L 6830.55,5809.63 Z " />
<text x="0" y="0" stroke="none" fill="#000000" transform="matrix(0.0833333 0 0 0.0833333 494.994 402.534)" font-style="normal" font-weight="normal" font-size="140px" font-family="Arial" >
X </text>
<text x="0" y="0" stroke="none" fill="#000000" transform="matrix(0.0833333 0 0 0.0833333 506.025 402.534)" font-style="normal" font-weight="normal" font-size="140px" font-family="Arial" >
= </text>
<text x="0" y="0" stroke="none" fill="#000000" transform="matrix(0.0833333 0 0 0.0833333 516.108 402.534)" font-style="normal" font-weight="normal" font-size="140px" font-family="Arial" >
1,2</text>
<text x="0" y="0" stroke="none" fill="#000000" transform="matrix(0.0833333 0 0 0.0833333 416.342 442.75)" font-style="normal" font-weight="normal" font-size="140px" font-family="Arial" >
IPDI</text>
<text x="0" y="0" stroke="none" fill="#b71c00" transform="matrix(0.0833333 0 0 0.0833333 440.092 295.597)" font-style="normal" font-weight="normal" font-size="140px" font-family="Arial" >
( </text>
<text x="0" y="0" stroke="none" fill="#b71c00" transform="matrix(0.0833333 0 0 0.0833333 447.258 295.597)" font-style="normal" font-weight="normal" font-size="140px" font-family="Arial" >
 </text>
<text x="0" y="0" stroke="none" fill="#b71c00" transform="matrix(0.0833333 0 0 0.0833333 450.508 295.597)" font-style="normal" font-weight="normal" font-size="140px" font-family="Arial" >
 </text>
<text x="0" y="0" stroke="none" fill="#b71c00" transform="matrix(0.0833333 0 0 0.0833333 453.758 295.597)" font-style="normal" font-weight="normal" font-size="140px" font-family="Arial" >
 </text>
<text x="0" y="0" stroke="none" fill="#b71c00" transform="matrix(0.0833333 0 0 0.0833333 457.008 295.597)" font-style="normal" font-weight="normal" font-size="140px" font-family="Arial" >
 </text>
<text x="0" y="0" stroke="none" fill="#b71c00" transform="matrix(0.0833333 0 0 0.0833333 460.258 295.597)" font-style="normal" font-weight="normal" font-size="140px" font-family="Arial" >
 </text>
<text x="0" y="0" stroke="none" fill="#b71c00" transform="matrix(0.0833333 0 0 0.0833333 463.508 295.597)" font-style="normal" font-weight="normal" font-size="140px" font-family="Arial" >
)</text>
<text x="0" y="0" stroke="none" fill="#b71c00" transform="matrix(0.0833333 0 0 0.0833333 467.425 298.181)" font-style="normal" font-weight="normal" font-size="105px" font-family="Arial" >
n</text>
<text x="0" y="0" stroke="none" fill="#008000" transform="matrix(0.0833333 0 0 0.0833333 443.992 189.139)" font-style="normal" font-weight="normal" font-size="140px" font-family="Arial" >
( </text>
<text x="0" y="0" stroke="none" fill="#008000" transform="matrix(0.0833333 0 0 0.0833333 451.158 189.139)" font-style="normal" font-weight="normal" font-size="140px" font-family="Arial" >
 </text>
<text x="0" y="0" stroke="none" fill="#008000" transform="matrix(0.0833333 0 0 0.0833333 454.408 189.139)" font-style="normal" font-weight="normal" font-size="140px" font-family="Arial" >
 </text>
<text x="0" y="0" stroke="none" fill="#008000" transform="matrix(0.0833333 0 0 0.0833333 457.658 189.139)" font-style="normal" font-weight="normal" font-size="140px" font-family="Arial" >
 </text>
<text x="0" y="0" stroke="none" fill="#008000" transform="matrix(0.0833333 0 0 0.0833333 460.908 189.139)" font-style="normal" font-weight="normal" font-size="140px" font-family="Arial" >
 </text>
<text x="0" y="0" stroke="none" fill="#008000" transform="matrix(0.0833333 0 0 0.0833333 464.158 189.139)" font-style="normal" font-weight="normal" font-size="140px" font-family="Arial" >
 </text>
<text x="0" y="0" stroke="none" fill="#008000" transform="matrix(0.0833333 0 0 0.0833333 467.408 189.139)" font-style="normal" font-weight="normal" font-size="140px" font-family="Arial" >
)</text>
<text x="0" y="0" stroke="none" fill="#008000" transform="matrix(0.0833333 0 0 0.0833333 471.325 191.722)" font-style="normal" font-weight="normal" font-size="105px" font-family="Arial" >
n</text>
<text x="0" y="0" stroke="none" fill="#0000ff" transform="matrix(0.0833333 0 0 0.0833333 448.992 101.014)" font-style="normal" font-weight="normal" font-size="140px" font-family="Arial" >
( </text>
<text x="0" y="0" stroke="none" fill="#0000ff" transform="matrix(0.0833333 0 0 0.0833333 456.158 101.014)" font-style="normal" font-weight="normal" font-size="140px" font-family="Arial" >
 </text>
<text x="0" y="0" stroke="none" fill="#0000ff" transform="matrix(0.0833333 0 0 0.0833333 459.408 101.014)" font-style="normal" font-weight="normal" font-size="140px" font-family="Arial" >
 </text>
<text x="0" y="0" stroke="none" fill="#0000ff" transform="matrix(0.0833333 0 0 0.0833333 462.658 101.014)" font-style="normal" font-weight="normal" font-size="140px" font-family="Arial" >
 </text>
<text x="0" y="0" stroke="none" fill="#0000ff" transform="matrix(0.0833333 0 0 0.0833333 465.908 101.014)" font-style="normal" font-weight="normal" font-size="140px" font-family="Arial" >
 </text>
<text x="0" y="0" stroke="none" fill="#0000ff" transform="matrix(0.0833333 0 0 0.0833333 469.158 101.014)" font-style="normal" font-weight="normal" font-size="140px" font-family="Arial" >
 </text>
<text x="0" y="0" stroke="none" fill="#0000ff" transform="matrix(0.0833333 0 0 0.0833333 472.408 101.014)" font-style="normal" font-weight="normal" font-size="140px" font-family="Arial" >
)</text>
<text x="0" y="0" stroke="none" fill="#0000ff" transform="matrix(0.0833333 0 0 0.0833333 476.325 103.597)" font-style="normal" font-weight="normal" font-size="105px" font-family="Arial" >
n</text>
<text x="0" y="0" stroke="none" fill="#000000" transform="matrix(0.0833333 0 0 0.0833333 82.175 400.258)" font-style="normal" font-weight="normal" font-size="140px" font-family="Arial" >
(CH</text>
<text x="0" y="0" stroke="none" fill="#000000" transform="matrix(0.0833333 0 0 0.0833333 102.942 402.841)" font-style="normal" font-weight="normal" font-size="105px" font-family="Arial" >
2</text>
<text x="0" y="0" stroke="none" fill="#000000" transform="matrix(0.0833333 0 0 0.0833333 107.817 400.258)" font-style="normal" font-weight="normal" font-size="140px" font-family="Arial" >
)</text>
<text x="0" y="0" stroke="none" fill="#000000" transform="matrix(0.0833333 0 0 0.0833333 111.734 402.841)" font-style="normal" font-weight="normal" font-size="105px" font-family="Arial" >
4</text>
<text x="0" y="0" stroke="none" fill="#000000" transform="matrix(0.0833333 0 0 0.0833333 116.609 400.258)" font-style="normal" font-weight="normal" font-size="140px" font-family="Arial" >
O</text>
<path stroke="none" fill="#000000" transform="matrix(0.0833333 0 0 0.0833333 -110.175 -117.25)" d="M 3019.89,6151.1 L 3019.89,6160.09 L 2848.2,6160.09 L 2848.2,6151.1 L 3019.89,6151.1 Z " />
<path stroke="none" fill="#000000" transform="matrix(0.0833333 0 0 0.0833333 -110.175 -117.25)" d="M 2087.72,6160.09 L 2087.72,6151.1 L 2292.2,6151.1 L 2292.2,6160.09 L 2087.72,6160.09 Z " />
</svg>
