<?xml version="1.0" standalone="no" ?>
<!DOCTYPE svg PUBLIC "-//W3C//DTD SVG 1.1//EN" "http://www.w3.org/Graphics/SVG/1.1/DTD/svg11.dtd">
<svg width="265px" height="126px" viewBox="0 0 265 126" style="background-color: #ffffff00" xmlns="http://www.w3.org/2000/svg" xmlns:xlink="http://www.w3.org/1999/xlink" version="1.1" >
<text x="0" y="0" stroke="none" fill="#000000" transform="matrix(0.0666667 0 0 0.0666667 100.246 49.9019)" font-style="normal" font-weight="normal" font-size="140px" font-family="Arial" >
toluene</text>
<text x="0" y="0" stroke="none" fill="#000000" transform="matrix(0.0666667 0 0 0.0666667 92.7485 29.7112)" font-style="normal" font-weight="normal" font-size="140px" font-family="Arial" >
NaH, </text>
<text x="0" y="0" stroke="none" fill="#000000" transform="matrix(0.0666667 0 0 0.0666667 116.629 29.7112)" font-style="normal" font-weight="normal" font-size="140px" font-family="Arial" >
TiCl4</text>
<path stroke="none" fill="#000000" transform="matrix(0.0666667 0 0 0.0666667 -175 -287)" d="M 3889.08,4851.22 L 4762.04,4851.22 L 4762.04,4860.22 L 3889.08,4860.22 Z " />
<path stroke="none" fill="#000000" transform="matrix(0.0666667 0 0 0.0666667 -175 -287)" d="M 4828.42,4855.72 C 4828.42,4855.72 4738.58,4832.26 4738.58,4832.26 C 4738.58,4832.26 4761.04,4846.93 4761.04,4855.72 C 4761.04,4864.9 4738.58,4880.18 4738.58,4880.18 C 4738.58,4880.18 4828.42,4855.72 4828.42,4855.72 C 4828.42,4855.72 4828.42,4855.72 4828.42,4855.72 " />
<path stroke="#000000" stroke-width="1" fill="none" transform="matrix(0.0666667 0 0 0.0666667 -175 -287)" d="M 4828.42,4855.72 C 4828.42,4855.72 4738.58,4832.26 4738.58,4832.26 C 4738.58,4832.26 4761.04,4846.93 4761.04,4855.72 C 4761.04,4864.9 4738.58,4880.18 4738.58,4880.18 C 4738.58,4880.18 4828.42,4855.72 4828.42,4855.72 C 4828.42,4855.72 4828.42,4855.72 4828.42,4855.72 " />
<path stroke="none" fill="#000000" transform="matrix(0.0666667 0 0 0.0666667 -175 -287)" d="M 2897.9,5021.93 L 2893.08,5021.3 L 2892.12,5013.98 L 3009.71,4810.29 L 3015.07,4810 L 3017.66,4814.49 L 2897.9,5021.93 Z " />
<path stroke="none" fill="#000000" transform="matrix(0.0666667 0 0 0.0666667 -175 -287)" d="M 3256.46,4814.49 L 3261.65,4805.51 L 3382.01,5013.98 L 3381.05,5021.3 L 3376.23,5021.93 L 3256.46,4814.49 Z " />
<path stroke="none" fill="#000000" transform="matrix(0.0666667 0 0 0.0666667 -175 -287)" d="M 3017.66,4814.49 L 3015.07,4810 L 3018,4805.51 L 3261.65,4805.51 L 3256.46,4814.49 L 3017.66,4814.49 Z " />
<text x="0" y="0" stroke="none" fill="#000000" transform="matrix(0.0666667 0 0 0.0666667 18.4481 67.0978)" font-style="normal" font-weight="normal" font-size="140px" font-family="Arial" >
OH</text>
<path stroke="none" fill="#000000" transform="matrix(0.0666667 0 0 0.0666667 -175 -287)" d="M 2942.25,5187.45 L 2933.57,5189.77 L 2890.75,5029.97 L 2893.08,5021.3 L 2897.9,5021.93 L 2942.25,5187.45 Z " />
<text x="0" y="0" stroke="none" fill="#000000" transform="matrix(0.0666667 0 0 0.0666667 35.8194 67.0978)" font-style="normal" font-weight="normal" font-size="140px" font-family="Arial" >
HO</text>
<path stroke="none" fill="#000000" transform="matrix(0.0666667 0 0 0.0666667 -175 -287)" d="M 3340.55,5189.8 L 3331.87,5187.47 L 3376.23,5021.93 L 3381.05,5021.3 L 3383.37,5029.97 L 3340.55,5189.8 Z " />
<text x="0" y="0" stroke="none" fill="#000000" transform="matrix(0.0666667 0 0 0.0666667 58.5377 39.8849)" font-style="normal" font-weight="normal" font-size="140px" font-family="Arial" >
R</text>
<path stroke="none" fill="#000000" transform="matrix(0.0666667 0 0 0.0666667 -175 -287)" d="M 3486.55,4909.44 L 3492.9,4915.79 L 3387.4,5021.3 L 3381.05,5021.3 L 3382.01,5013.98 L 3486.55,4909.44 Z " />
<text x="0" y="0" stroke="none" fill="#000000" transform="matrix(0.0666667 0 0 0.0666667 58.5377 62.888)" font-style="normal" font-weight="normal" font-size="140px" font-family="Arial" >
R</text>
<path stroke="none" fill="#000000" transform="matrix(0.0666667 0 0 0.0666667 -175 -287)" d="M 3498.24,5132.13 L 3491.88,5138.48 L 3383.37,5029.97 L 3381.05,5021.3 L 3387.4,5021.3 L 3498.24,5132.13 Z " />
<text x="0" y="0" stroke="none" fill="#000000" transform="matrix(0.0666667 0 0 0.0666667 3.0034 39.8849)" font-style="normal" font-weight="normal" font-size="140px" font-family="Arial" >
R</text>
<path stroke="none" fill="#000000" transform="matrix(0.0666667 0 0 0.0666667 -175 -287)" d="M 2785.22,4919.79 L 2791.58,4913.44 L 2892.12,5013.98 L 2893.08,5021.3 L 2886.73,5021.3 L 2785.22,4919.79 Z " />
<text x="0" y="0" stroke="none" fill="#000000" transform="matrix(0.0666667 0 0 0.0666667 3.0034 62.888)" font-style="normal" font-weight="normal" font-size="140px" font-family="Arial" >
R</text>
<path stroke="none" fill="#000000" transform="matrix(0.0666667 0 0 0.0666667 -175 -287)" d="M 2775.74,5144.98 L 2769.39,5138.63 L 2886.73,5021.3 L 2893.08,5021.3 L 2890.75,5029.97 L 2775.74,5144.98 Z " />
<text x="0" y="0" stroke="none" fill="#000000" transform="matrix(0.0666667 0 0 0.0666667 14.2383 23.2136)" font-style="normal" font-weight="normal" font-size="140px" font-family="Arial" >
O</text>
<path stroke="none" fill="#000000" transform="matrix(0.0666667 0 0 0.0666667 -175 -287)" d="M 2913.27,4681.72 L 2954.88,4657.69 L 3018,4805.51 L 3015.07,4810 L 3009.71,4810.29 L 2913.27,4681.72 Z " />
<text x="0" y="0" stroke="none" fill="#000000" transform="matrix(0.0666667 0 0 0.0666667 46.7695 23.2136)" font-style="normal" font-weight="normal" font-size="140px" font-family="Arial" >
O</text>
<path stroke="none" fill="#000000" transform="matrix(0.0666667 0 0 0.0666667 -175 -287)" d="M 3319.45,4657.34 L 3361.06,4681.37 L 3355.38,4688.46 L 3316.15,4665.81 L 3319.45,4657.34 Z " />
<path stroke="none" fill="#000000" transform="matrix(0.0666667 0 0 0.0666667 -175 -287)" d="M 3304.97,4694.53 L 3336.1,4712.5 L 3330.41,4719.59 L 3301.67,4703 L 3304.97,4694.53 Z " />
<path stroke="none" fill="#000000" transform="matrix(0.0666667 0 0 0.0666667 -175 -287)" d="M 3290.49,4731.71 L 3311.14,4743.63 L 3305.45,4750.73 L 3287.19,4740.18 L 3290.49,4731.71 Z " />
<path stroke="none" fill="#000000" transform="matrix(0.0666667 0 0 0.0666667 -175 -287)" d="M 3276.01,4768.9 L 3286.17,4774.77 L 3280.49,4781.86 L 3272.71,4777.37 L 3276.01,4768.9 Z " />
<path stroke="none" fill="#000000" transform="matrix(0.0666667 0 0 0.0666667 -175 -287)" d="M 3120.07,4533.23 L 3128.75,4535.56 L 3128.79,4540.2 L 2963.9,4584.38 L 2961.57,4575.7 L 3120.07,4533.23 Z " />
<path stroke="none" fill="#000000" transform="matrix(0.0666667 0 0 0.0666667 -175 -287)" d="M 3128.79,4540.2 L 3128.75,4535.56 L 3137.53,4533.12 L 3312.6,4576.94 L 3310.41,4585.66 L 3128.79,4540.2 Z " />
<path stroke="none" fill="#000000" transform="matrix(0.0666667 0 0 0.0666667 -175 -287)" d="M 2953.05,4366.21 L 2959.4,4359.86 L 3128.75,4529.2 L 3128.75,4535.56 L 3120.07,4533.23 L 2953.05,4366.21 Z " />
<path stroke="none" fill="#000000" transform="matrix(0.0666667 0 0 0.0666667 -175 -287)" d="M 3298.1,4359.86 L 3304.45,4366.21 L 3137.53,4533.12 L 3128.75,4535.56 L 3128.75,4529.2 L 3298.1,4359.86 Z " />
<text x="0" y="0" stroke="none" fill="#0000ff" transform="matrix(0.0666667 0 0 0.0666667 227.039 50.899)" font-style="normal" font-weight="normal" font-size="140px" font-family="Arial" >
O</text>
<text x="0" y="0" stroke="none" fill="#0000ff" transform="matrix(0.0666667 0 0 0.0666667 227.039 34.6333)" font-style="normal" font-weight="normal" font-size="140px" font-family="Arial" >
O</text>
<path stroke="none" fill="#0000ff" transform="matrix(0.0666667 0 0 0.0666667 -175 -287)" d="M 5666.99,5011.39 L 5662.5,5013.98 L 5658.01,5011.07 L 5658.01,4767.41 L 5666.99,4772.59 L 5666.99,5011.39 Z " />
<path stroke="none" fill="#0000ff" transform="matrix(0.0666667 0 0 0.0666667 -175 -287)" d="M 5873.8,5130.79 L 5873.8,5135.98 L 5866.48,5136.94 L 5662.78,5019.33 L 5662.5,5013.98 L 5666.99,5011.39 L 5873.8,5130.79 Z " />
<path stroke="none" fill="#0000ff" transform="matrix(0.0666667 0 0 0.0666667 -175 -287)" d="M 6015.77,5048.82 L 6020.26,5056.6 L 5881.11,5136.94 L 5873.8,5135.98 L 5873.8,5130.79 L 6015.77,5048.82 Z " />
<path stroke="none" fill="#0000ff" transform="matrix(0.0666667 0 0 0.0666667 -175 -287)" d="M 5873.8,4653.19 L 5873.8,4648.01 L 5881.11,4647.04 L 6025.37,4730.33 L 6020.88,4738.11 L 5873.8,4653.19 Z " />
<path stroke="none" fill="#0000ff" transform="matrix(0.0666667 0 0 0.0666667 -175 -287)" d="M 5666.99,4772.59 L 5658.01,4767.41 L 5866.48,4647.04 L 5873.8,4648.01 L 5873.8,4653.19 L 5666.99,4772.59 Z " />
<text x="0" y="0" stroke="none" fill="#0000ff" transform="matrix(0.0666667 0 0 0.0666667 201.718 70.5333)" font-style="normal" font-weight="normal" font-size="140px" font-family="Arial" >
R</text>
<path stroke="none" fill="#0000ff" transform="matrix(0.0666667 0 0 0.0666667 -175 -287)" d="M 5756.46,5259.66 L 5750.11,5253.31 L 5866.48,5136.94 L 5873.8,5135.98 L 5873.8,5142.33 L 5756.46,5259.66 Z " />
<text x="0" y="0" stroke="none" fill="#0000ff" transform="matrix(0.0666667 0 0 0.0666667 224.721 70.5333)" font-style="normal" font-weight="normal" font-size="140px" font-family="Arial" >
R</text>
<path stroke="none" fill="#0000ff" transform="matrix(0.0666667 0 0 0.0666667 -175 -287)" d="M 5990.99,5246.81 L 5984.63,5253.16 L 5873.8,5142.33 L 5873.8,5135.98 L 5881.11,5136.94 L 5990.99,5246.81 Z " />
<text x="0" y="0" stroke="none" fill="#0000ff" transform="matrix(0.0666667 0 0 0.0666667 201.718 14.999)" font-style="normal" font-weight="normal" font-size="140px" font-family="Arial" >
R</text>
<path stroke="none" fill="#0000ff" transform="matrix(0.0666667 0 0 0.0666667 -175 -287)" d="M 5765.94,4546.51 L 5772.29,4540.15 L 5873.8,4641.65 L 5873.8,4648.01 L 5866.48,4647.04 L 5765.94,4546.51 Z " />
<text x="0" y="0" stroke="none" fill="#0000ff" transform="matrix(0.0666667 0 0 0.0666667 224.721 14.999)" font-style="normal" font-weight="normal" font-size="140px" font-family="Arial" >
R</text>
<path stroke="none" fill="#0000ff" transform="matrix(0.0666667 0 0 0.0666667 -175 -287)" d="M 5979.3,4536.15 L 5985.65,4542.51 L 5881.11,4647.04 L 5873.8,4648.01 L 5873.8,4641.65 L 5979.3,4536.15 Z " />
<text x="0" y="0" stroke="none" fill="#0000ff" transform="matrix(0.0666667 0 0 0.0666667 184.78 59.0318)" font-style="normal" font-weight="normal" font-size="140px" font-family="Arial" >
O</text>
<path stroke="none" fill="#0000ff" transform="matrix(0.0666667 0 0 0.0666667 -175 -287)" d="M 5525.42,5120.87 L 5501.39,5079.26 L 5658.01,5011.07 L 5662.5,5013.98 L 5662.78,5019.33 L 5525.42,5120.87 Z " />
<text x="0" y="0" stroke="none" fill="#0000ff" transform="matrix(0.0666667 0 0 0.0666667 184.78 26.5005)" font-style="normal" font-weight="normal" font-size="140px" font-family="Arial" >
O</text>
<path stroke="none" fill="#0000ff" transform="matrix(0.0666667 0 0 0.0666667 -175 -287)" d="M 5506.71,4707.79 L 5530.73,4666.18 L 5537.84,4671.83 L 5515.16,4711.12 L 5506.71,4707.79 Z " />
<path stroke="none" fill="#0000ff" transform="matrix(0.0666667 0 0 0.0666667 -175 -287)" d="M 5544.97,4722.88 L 5562.93,4691.77 L 5570.04,4697.42 L 5553.42,4726.21 L 5544.97,4722.88 Z " />
<path stroke="none" fill="#0000ff" transform="matrix(0.0666667 0 0 0.0666667 -175 -287)" d="M 5583.23,4737.97 L 5595.12,4717.36 L 5602.23,4723.02 L 5591.68,4741.3 L 5583.23,4737.97 Z " />
<path stroke="none" fill="#0000ff" transform="matrix(0.0666667 0 0 0.0666667 -175 -287)" d="M 5621.49,4753.06 L 5627.32,4742.95 L 5634.43,4748.61 L 5629.94,4756.39 L 5621.49,4753.06 Z " />
<path stroke="none" fill="#0000ff" transform="matrix(0.0666667 0 0 0.0666667 -175 -287)" d="M 5392.7,4883.72 L 5388.06,4883.68 L 5385.73,4875 L 5425.55,4726.4 L 5434.23,4728.73 L 5392.7,4883.72 Z " />
<path stroke="none" fill="#0000ff" transform="matrix(0.0666667 0 0 0.0666667 -175 -287)" d="M 5385.62,4892.46 L 5388.06,4883.68 L 5392.7,4883.72 L 5438.39,5066.28 L 5429.67,5068.46 L 5385.62,4892.46 Z " />
<text x="0" y="0" stroke="none" fill="#0000ff" transform="matrix(0.0666667 0 0 0.0666667 169.335 30.7104)" font-style="normal" font-weight="normal" font-size="140px" font-family="Arial" >
R</text>
<path stroke="none" fill="#0000ff" transform="matrix(0.0666667 0 0 0.0666667 -175 -287)" d="M 5280.2,4782.18 L 5286.55,4775.82 L 5385.73,4875 L 5388.06,4883.68 L 5381.7,4883.68 L 5280.2,4782.18 Z " />
<text x="0" y="0" stroke="none" fill="#0000ff" transform="matrix(0.0666667 0 0 0.0666667 169.335 53.7134)" font-style="normal" font-weight="normal" font-size="140px" font-family="Arial" >
R</text>
<path stroke="none" fill="#0000ff" transform="matrix(0.0666667 0 0 0.0666667 -175 -287)" d="M 5270.72,5007.37 L 5264.37,5001.01 L 5381.7,4883.68 L 5388.06,4883.68 L 5385.62,4892.46 L 5270.72,5007.37 Z " />
<text x="0" y="0" stroke="none" fill="#0000ff" transform="matrix(0.0666667 0 0 0.0666667 240.872 42.7661)" font-style="normal" font-weight="normal" font-size="140px" font-family="Arial" >
Ti</text>
<path stroke="none" fill="#0000ff" transform="matrix(0.0666667 0 0 0.0666667 -175 -287)" d="M 6217.56,4841.29 L 6213.07,4849.07 L 6150.36,4812.87 L 6154.85,4805.09 L 6217.56,4841.29 Z " />
<path stroke="none" fill="#0000ff" transform="matrix(0.0666667 0 0 0.0666667 -175 -287)" d="M 6236.66,4921.29 L 6241.16,4929.07 L 6149.54,4981.96 L 6145.05,4974.18 L 6236.66,4921.29 Z " />
<text x="0" y="0" stroke="none" fill="#0000ff" transform="matrix(0.0666667 0 0 0.0666667 252.894 31.2646)" font-style="normal" font-weight="normal" font-size="140px" font-family="Arial" >
Cl</text>
<path stroke="none" fill="#0000ff" transform="matrix(0.0666667 0 0 0.0666667 -175 -287)" d="M 6410.56,4771.47 L 6416.91,4777.82 L 6360.17,4834.56 L 6353.82,4828.21 L 6410.56,4771.47 Z " />
<text x="0" y="0" stroke="none" fill="#0000ff" transform="matrix(0.0666667 0 0 0.0666667 252.894 54.2677)" font-style="normal" font-weight="normal" font-size="140px" font-family="Arial" >
Cl</text>
<path stroke="none" fill="#0000ff" transform="matrix(0.0666667 0 0 0.0666667 -175 -287)" d="M 6423.41,5012.66 L 6417.06,5019.01 L 6359.15,4961.11 L 6365.51,4954.75 L 6423.41,5012.66 Z " />
<text x="0" y="0" stroke="none" fill="#000000" transform="matrix(0.0666667 0 0 0.0666667 3.00339 87.625)" font-style="normal" font-weight="bold" font-size="140px" font-family="Arial" >
1 </text>
<text x="0" y="0" stroke="none" fill="#000000" transform="matrix(0.0666667 0 0 0.0666667 10.8034 87.625)" font-style="normal" font-weight="bold" font-size="140px" font-family="Arial" >
-</text>
<text x="0" y="0" stroke="none" fill="#000000" transform="matrix(0.0666667 0 0 0.0666667 13.9367 87.625)" font-style="normal" font-weight="normal" font-size="140px" font-family="Arial" >
 </text>
<text x="0" y="0" stroke="none" fill="#000000" transform="matrix(0.0666667 0 0 0.0666667 16.5367 87.625)" font-style="normal" font-weight="normal" font-size="140px" font-family="Arial" >
R=Ph,</text>
<text x="0" y="0" stroke="none" fill="#000000" transform="matrix(0.0666667 0 0 0.0666667 3.00339 98.625)" font-style="normal" font-weight="bold" font-size="140px" font-family="Arial" >
2 </text>
<text x="0" y="0" stroke="none" fill="#000000" transform="matrix(0.0666667 0 0 0.0666667 10.8034 98.625)" font-style="normal" font-weight="bold" font-size="140px" font-family="Arial" >
-</text>
<text x="0" y="0" stroke="none" fill="#000000" transform="matrix(0.0666667 0 0 0.0666667 13.9367 98.625)" font-style="normal" font-weight="normal" font-size="140px" font-family="Arial" >
 </text>
<text x="0" y="0" stroke="none" fill="#000000" transform="matrix(0.0666667 0 0 0.0666667 16.5367 98.625)" font-style="normal" font-weight="normal" font-size="140px" font-family="Arial" >
R=</text>
<text x="0" y="0" stroke="none" fill="#000000" transform="matrix(0.0666667 0 0 0.0666667 28.7436 98.625)" font-style="normal" font-weight="normal" font-size="140px" font-family="Arial" >
C</text>
<text x="0" y="0" stroke="none" fill="#000000" transform="matrix(0.0666667 0 0 0.0666667 35.4839 100.692)" font-style="normal" font-weight="normal" font-size="105px" font-family="Arial" >
6</text>
<text x="0" y="0" stroke="none" fill="#000000" transform="matrix(0.0666667 0 0 0.0666667 39.3839 98.625)" font-style="normal" font-weight="normal" font-size="140px" font-family="Arial" >
F</text>
<text x="0" y="0" stroke="none" fill="#000000" transform="matrix(0.0666667 0 0 0.0666667 45.1172 100.692)" font-style="normal" font-weight="normal" font-size="105px" font-family="Arial" >
5,</text>
<text x="0" y="0" stroke="none" fill="#000000" transform="matrix(0.0666667 0 0 0.0666667 3.00339 109.625)" font-style="normal" font-weight="bold" font-size="140px" font-family="Arial" >
3 </text>
<text x="0" y="0" stroke="none" fill="#000000" transform="matrix(0.0666667 0 0 0.0666667 10.8034 109.625)" font-style="normal" font-weight="bold" font-size="140px" font-family="Arial" >
-</text>
<text x="0" y="0" stroke="none" fill="#000000" transform="matrix(0.0666667 0 0 0.0666667 13.9367 109.625)" font-style="normal" font-weight="normal" font-size="140px" font-family="Arial" >
 </text>
<text x="0" y="0" stroke="none" fill="#000000" transform="matrix(0.0666667 0 0 0.0666667 16.5367 109.625)" font-style="normal" font-weight="normal" font-size="140px" font-family="Arial" >
R=</text>
<text x="0" y="0" stroke="none" fill="#000000" transform="matrix(0.0666667 0 0 0.0666667 28.7436 111.692)" font-style="normal" font-weight="normal" font-size="105px" font-family="Arial" >
1</text>
<text x="0" y="0" stroke="none" fill="#000000" transform="matrix(0.0666667 0 0 0.0666667 32.6436 109.625)" font-style="normal" font-weight="normal" font-size="140px" font-family="Arial" >
-Napht,</text>
<text x="0" y="0" stroke="none" fill="#000000" transform="matrix(0.0666667 0 0 0.0666667 3.00339 120.625)" font-style="normal" font-weight="bold" font-size="140px" font-family="Arial" >
4 </text>
<text x="0" y="0" stroke="none" fill="#000000" transform="matrix(0.0666667 0 0 0.0666667 10.8034 120.625)" font-style="normal" font-weight="bold" font-size="140px" font-family="Arial" >
-</text>
<text x="0" y="0" stroke="none" fill="#000000" transform="matrix(0.0666667 0 0 0.0666667 13.9367 120.625)" font-style="normal" font-weight="normal" font-size="140px" font-family="Arial" >
 </text>
<text x="0" y="0" stroke="none" fill="#000000" transform="matrix(0.0666667 0 0 0.0666667 16.5367 120.625)" font-style="normal" font-weight="normal" font-size="140px" font-family="Arial" >
R=</text>
<text x="0" y="0" stroke="none" fill="#000000" transform="matrix(0.0666667 0 0 0.0666667 28.7436 122.692)" font-style="normal" font-weight="normal" font-size="105px" font-family="Arial" >
2</text>
<text x="0" y="0" stroke="none" fill="#000000" transform="matrix(0.0666667 0 0 0.0666667 32.6436 120.625)" font-style="normal" font-weight="normal" font-size="140px" font-family="Arial" >
-Napht</text>
<text x="0" y="0" stroke="none" fill="#000000" transform="matrix(0.0666667 0 0 0.0666667 169.335 87.625)" font-style="normal" font-weight="bold" font-size="140px" font-family="Arial" >
5 </text>
<text x="0" y="0" stroke="none" fill="#000000" transform="matrix(0.0666667 0 0 0.0666667 177.135 87.625)" font-style="normal" font-weight="bold" font-size="140px" font-family="Arial" >
-</text>
<text x="0" y="0" stroke="none" fill="#000000" transform="matrix(0.0666667 0 0 0.0666667 180.269 87.625)" font-style="normal" font-weight="normal" font-size="140px" font-family="Arial" >
 </text>
<text x="0" y="0" stroke="none" fill="#000000" transform="matrix(0.0666667 0 0 0.0666667 182.869 87.625)" font-style="normal" font-weight="normal" font-size="140px" font-family="Arial" >
R=Ph, </text>
<text x="0" y="0" stroke="none" fill="#000000" transform="matrix(0.0666667 0 0 0.0666667 211.701 87.625)" font-style="normal" font-weight="normal" font-size="140px" font-family="Arial" >
62%</text>
<text x="0" y="0" stroke="none" fill="#000000" transform="matrix(0.0666667 0 0 0.0666667 169.335 98.625)" font-style="normal" font-weight="bold" font-size="140px" font-family="Arial" >
6 </text>
<text x="0" y="0" stroke="none" fill="#000000" transform="matrix(0.0666667 0 0 0.0666667 177.135 98.625)" font-style="normal" font-weight="bold" font-size="140px" font-family="Arial" >
-</text>
<text x="0" y="0" stroke="none" fill="#000000" transform="matrix(0.0666667 0 0 0.0666667 180.269 98.625)" font-style="normal" font-weight="normal" font-size="140px" font-family="Arial" >
 </text>
<text x="0" y="0" stroke="none" fill="#000000" transform="matrix(0.0666667 0 0 0.0666667 182.869 98.625)" font-style="normal" font-weight="normal" font-size="140px" font-family="Arial" >
R=C</text>
<text x="0" y="0" stroke="none" fill="#000000" transform="matrix(0.0666667 0 0 0.0666667 201.816 100.692)" font-style="normal" font-weight="normal" font-size="105px" font-family="Arial" >
6</text>
<text x="0" y="0" stroke="none" fill="#000000" transform="matrix(0.0666667 0 0 0.0666667 205.716 98.625)" font-style="normal" font-weight="normal" font-size="140px" font-family="Arial" >
F</text>
<text x="0" y="0" stroke="none" fill="#000000" transform="matrix(0.0666667 0 0 0.0666667 211.449 100.692)" font-style="normal" font-weight="normal" font-size="105px" font-family="Arial" >
5,</text>
<text x="0" y="0" stroke="none" fill="#000000" transform="matrix(0.0666667 0 0 0.0666667 217.299 98.625)" font-style="normal" font-weight="normal" font-size="140px" font-family="Arial" >
 </text>
<text x="0" y="0" stroke="none" fill="#000000" transform="matrix(0.0666667 0 0 0.0666667 219.899 98.625)" font-style="normal" font-weight="normal" font-size="140px" font-family="Arial" >
69%</text>
<text x="0" y="0" stroke="none" fill="#000000" transform="matrix(0.0666667 0 0 0.0666667 169.335 109.625)" font-style="normal" font-weight="bold" font-size="140px" font-family="Arial" >
7 </text>
<text x="0" y="0" stroke="none" fill="#000000" transform="matrix(0.0666667 0 0 0.0666667 177.135 109.625)" font-style="normal" font-weight="bold" font-size="140px" font-family="Arial" >
-</text>
<text x="0" y="0" stroke="none" fill="#000000" transform="matrix(0.0666667 0 0 0.0666667 180.269 109.625)" font-style="normal" font-weight="normal" font-size="140px" font-family="Arial" >
 </text>
<text x="0" y="0" stroke="none" fill="#000000" transform="matrix(0.0666667 0 0 0.0666667 182.869 109.625)" font-style="normal" font-weight="normal" font-size="140px" font-family="Arial" >
R=</text>
<text x="0" y="0" stroke="none" fill="#000000" transform="matrix(0.0666667 0 0 0.0666667 195.075 111.692)" font-style="normal" font-weight="normal" font-size="105px" font-family="Arial" >
1</text>
<text x="0" y="0" stroke="none" fill="#000000" transform="matrix(0.0666667 0 0 0.0666667 198.975 109.625)" font-style="normal" font-weight="normal" font-size="140px" font-family="Arial" >
-Napht, </text>
<text x="0" y="0" stroke="none" fill="#000000" transform="matrix(0.0666667 0 0 0.0666667 232.249 109.625)" font-style="normal" font-weight="normal" font-size="140px" font-family="Arial" >
54%</text>
<text x="0" y="0" stroke="none" fill="#000000" transform="matrix(0.0666667 0 0 0.0666667 169.335 120.625)" font-style="normal" font-weight="bold" font-size="140px" font-family="Arial" >
8 </text>
<text x="0" y="0" stroke="none" fill="#000000" transform="matrix(0.0666667 0 0 0.0666667 177.135 120.625)" font-style="normal" font-weight="bold" font-size="140px" font-family="Arial" >
-</text>
<text x="0" y="0" stroke="none" fill="#000000" transform="matrix(0.0666667 0 0 0.0666667 180.269 120.625)" font-style="normal" font-weight="normal" font-size="140px" font-family="Arial" >
 </text>
<text x="0" y="0" stroke="none" fill="#000000" transform="matrix(0.0666667 0 0 0.0666667 182.869 120.625)" font-style="normal" font-weight="normal" font-size="140px" font-family="Arial" >
R=</text>
<text x="0" y="0" stroke="none" fill="#000000" transform="matrix(0.0666667 0 0 0.0666667 195.075 122.692)" font-style="normal" font-weight="normal" font-size="105px" font-family="Arial" >
2</text>
<text x="0" y="0" stroke="none" fill="#000000" transform="matrix(0.0666667 0 0 0.0666667 198.975 120.625)" font-style="normal" font-weight="normal" font-size="140px" font-family="Arial" >
-Napht, </text>
<text x="0" y="0" stroke="none" fill="#000000" transform="matrix(0.0666667 0 0 0.0666667 232.249 120.625)" font-style="normal" font-weight="normal" font-size="140px" font-family="Arial" >
69%</text>
</svg>
