<?xml version="1.0" standalone="no" ?>
<!DOCTYPE svg PUBLIC "-//W3C//DTD SVG 1.1//EN" "http://www.w3.org/Graphics/SVG/1.1/DTD/svg11.dtd">
<svg width="448px" height="121px" viewBox="0 0 448 121" style="background-color: #ffffff00" xmlns="http://www.w3.org/2000/svg" xmlns:xlink="http://www.w3.org/1999/xlink" version="1.1" >
<text x="0" y="0" stroke="none" fill="#ff0000" transform="matrix(0.0666667 0 0 0.0666667 43.5991 52.1457)" font-style="normal" font-weight="normal" font-size="200px" font-family="Arial" >
O</text>
<text x="0" y="0" stroke="none" fill="#ff0000" transform="matrix(0.0666667 0 0 0.0666667 44.3658 27.642)" font-style="normal" font-weight="normal" font-size="200px" font-family="Arial" >
P</text>
<path stroke="none" fill="#ff0000" transform="matrix(0.0666667 0 0 0.0666667 -77.4003 -322)" d="M 1852.41,5283.8 L 1867.41,5283.8 L 1867.41,5429.02 L 1852.41,5429.02 L 1852.41,5283.8 Z " />
<path stroke="none" fill="#ff0000" transform="matrix(0.0666667 0 0 0.0666667 -77.4003 -322)" d="M 1918.57,5283.8 L 1933.57,5283.8 L 1933.57,5429.02 L 1918.57,5429.02 L 1918.57,5283.8 Z " />
<text x="0" y="0" stroke="none" fill="#ff0000" transform="matrix(0.0666667 0 0 0.0666667 20.9972 40.9222)" font-style="normal" font-weight="normal" font-size="200px" font-family="Arial" >
H</text>
<path stroke="none" fill="#ff0000" transform="matrix(0.0666667 0 0 0.0666667 -77.4003 -322)" d="M 1655.56,5312.37 L 1648.06,5299.38 L 1783.31,5221.29 L 1790.81,5234.28 L 1655.56,5312.37 Z " />
<text x="0" y="0" stroke="none" fill="#000000" transform="matrix(0.0666667 0 0 0.0666667 55.9513 27.642)" font-style="normal" font-weight="normal" font-size="200px" font-family="Arial" >
CH</text>
<text x="0" y="0" stroke="none" fill="#000000" transform="matrix(0.0666667 0 0 0.0666667 75.2091 30.5753)" font-style="normal" font-weight="normal" font-size="150px" font-family="Arial" >
2</text>
<text x="0" y="0" stroke="none" fill="#000000" transform="matrix(0.0666667 0 0 0.0666667 80.7707 27.642)" font-style="normal" font-weight="normal" font-size="200px" font-family="Arial" >
N(CH</text>
<text x="0" y="0" stroke="none" fill="#000000" transform="matrix(0.0666667 0 0 0.0666667 114.124 30.5753)" font-style="normal" font-weight="normal" font-size="150px" font-family="Arial" >
2</text>
<text x="0" y="0" stroke="none" fill="#000000" transform="matrix(0.0666667 0 0 0.0666667 119.686 27.642)" font-style="normal" font-weight="normal" font-size="200px" font-family="Arial" >
)</text>
<text x="0" y="0" stroke="none" fill="#000000" transform="matrix(0.0666667 0 0 0.0666667 124.152 30.5753)" font-style="normal" font-weight="normal" font-size="150px" font-family="Arial" >
n</text>
<text x="0" y="0" stroke="none" fill="#0000ff" transform="matrix(0.0666667 0 0 0.0666667 129.714 27.642)" font-style="normal" font-weight="normal" font-size="200px" font-family="Arial" >
COOR</text>
<text x="0" y="0" stroke="none" fill="#ff0000" transform="matrix(0.0666667 0 0 0.0666667 3.27119 14.1991)" font-style="normal" font-weight="normal" font-size="200px" font-family="Arial" >
NaO</text>
<path stroke="none" fill="#ff0000" transform="matrix(0.0666667 0 0 0.0666667 -77.4003 -322)" d="M 1639.96,5029.2 L 1647.46,5016.21 L 1797.02,5102.56 L 1789.52,5115.55 L 1639.96,5029.2 Z " />
<text x="0" y="0" stroke="none" fill="#000000" transform="matrix(0.0666667 0 0 0.0666667 80.7097 52.841)" font-style="normal" font-weight="normal" font-size="200px" font-family="Arial" >
COOEt</text>
<path stroke="none" fill="#000000" transform="matrix(0.0666667 0 0 0.0666667 -77.4003 -322)" d="M 2451.46,5439.47 L 2436.46,5439.43 L 2436.8,5328.44 L 2451.8,5328.48 L 2451.46,5439.47 Z " />
<text x="0" y="0" stroke="none" fill="#000000" transform="matrix(0.0666667 0 0 0.0666667 183.841 86.2716)" font-style="normal" font-weight="normal" font-size="200px" font-family="Arial" >
 </text>
<text x="0" y="0" stroke="none" fill="#ff0000" transform="matrix(0.0666667 0 0 0.0666667 187.574 86.2716)" font-style="normal" font-weight="normal" font-size="200px" font-family="Arial" >
(EtO)</text>
<text x="0" y="0" stroke="none" fill="#ff0000" transform="matrix(0.0666667 0 0 0.0666667 219.534 89.205)" font-style="normal" font-weight="normal" font-size="150px" font-family="Arial" >
2</text>
<text x="0" y="0" stroke="none" fill="#ff0000" transform="matrix(0.0666667 0 0 0.0666667 225.095 86.2716)" font-style="normal" font-weight="normal" font-size="200px" font-family="Arial" >
P</text>
<text x="0" y="0" stroke="none" fill="#000000" transform="matrix(0.0666667 0 0 0.0666667 233.989 86.2716)" font-style="normal" font-weight="normal" font-size="200px" font-family="Arial" >
CH</text>
<text x="0" y="0" stroke="none" fill="#000000" transform="matrix(0.0666667 0 0 0.0666667 253.247 89.205)" font-style="normal" font-weight="normal" font-size="150px" font-family="Arial" >
2</text>
<text x="0" y="0" stroke="none" fill="#000000" transform="matrix(0.0666667 0 0 0.0666667 258.808 86.2716)" font-style="normal" font-weight="normal" font-size="200px" font-family="Arial" >
N(CH</text>
<text x="0" y="0" stroke="none" fill="#000000" transform="matrix(0.0666667 0 0 0.0666667 292.161 89.205)" font-style="normal" font-weight="normal" font-size="150px" font-family="Arial" >
2</text>
<text x="0" y="0" stroke="none" fill="#000000" transform="matrix(0.0666667 0 0 0.0666667 297.723 86.2716)" font-style="normal" font-weight="normal" font-size="200px" font-family="Arial" >
)</text>
<text x="0" y="0" stroke="none" fill="#000000" transform="matrix(0.0666667 0 0 0.0666667 302.19 89.205)" font-style="normal" font-weight="normal" font-size="150px" font-family="Arial" >
n</text>
<text x="0" y="0" stroke="none" fill="#0000ff" transform="matrix(0.0666667 0 0 0.0666667 307.751 86.2716)" font-style="normal" font-weight="normal" font-size="200px" font-family="Arial" >
COOR</text>
<text x="0" y="0" stroke="none" fill="#ff0000" transform="matrix(0.0666667 0 0 0.0666667 225.591 110.603)" font-style="normal" font-weight="normal" font-size="200px" font-family="Arial" >
O</text>
<path stroke="none" fill="#ff0000" transform="matrix(0.0666667 0 0 0.0666667 -77.4003 -322)" d="M 4654.87,6305.87 L 4639.87,6305.87 L 4639.87,6138.78 L 4654.87,6138.78 L 4654.87,6305.87 Z " />
<path stroke="none" fill="#ff0000" transform="matrix(0.0666667 0 0 0.0666667 -77.4003 -322)" d="M 4605.86,6305.87 L 4590.86,6305.87 L 4590.86,6138.78 L 4605.86,6138.78 L 4605.86,6305.87 Z " />
<text x="0" y="0" stroke="none" fill="#000000" transform="matrix(0.0666667 0 0 0.0666667 258.66 110.832)" font-style="normal" font-weight="normal" font-size="200px" font-family="Arial" >
COOEt</text>
<path stroke="none" fill="#000000" transform="matrix(0.0666667 0 0 0.0666667 -77.4003 -322)" d="M 5120.4,6309.32 L 5105.4,6309.32 L 5105.4,6120.3 L 5120.4,6120.3 L 5120.4,6309.32 Z " />
<text x="0" y="0" stroke="none" fill="#ff0000" transform="matrix(0.0666667 0 0 0.0666667 41.3935 117.928)" font-style="normal" font-weight="normal" font-size="200px" font-family="Arial" >
O</text>
<text x="0" y="0" stroke="none" fill="#ff0000" transform="matrix(0.0666667 0 0 0.0666667 42.1602 91.3249)" font-style="normal" font-weight="normal" font-size="200px" font-family="Arial" >
P</text>
<path stroke="none" fill="#ff0000" transform="matrix(0.0666667 0 0 0.0666667 -77.4003 -322)" d="M 1816.49,6239.04 L 1831.49,6239.04 L 1831.49,6415.75 L 1816.49,6415.75 L 1816.49,6239.04 Z " />
<path stroke="none" fill="#ff0000" transform="matrix(0.0666667 0 0 0.0666667 -77.4003 -322)" d="M 1888.32,6239.04 L 1903.32,6239.04 L 1903.32,6415.75 L 1888.32,6415.75 L 1888.32,6239.04 Z " />
<text x="0" y="0" stroke="none" fill="#ff0000" transform="matrix(0.0666667 0 0 0.0666667 5.37459 104.407)" font-style="normal" font-weight="normal" font-size="200px" font-family="Arial" >
PrO</text>
<path stroke="none" fill="#ff0000" transform="matrix(0.0666667 0 0 0.0666667 -77.4003 -322)" d="M 1616.09,6271.3 L 1608.59,6258.31 L 1750.23,6176.54 L 1757.73,6189.53 L 1616.09,6271.3 Z " />
<text x="0" y="0" stroke="none" fill="#000000" transform="matrix(0.0666667 0 0 0.0666667 54.4653 91.3249)" font-style="normal" font-weight="normal" font-size="200px" font-family="Arial" >
CH</text>
<text x="0" y="0" stroke="none" fill="#000000" transform="matrix(0.0666667 0 0 0.0666667 73.7231 94.2582)" font-style="normal" font-weight="normal" font-size="150px" font-family="Arial" >
2</text>
<text x="0" y="0" stroke="none" fill="#000000" transform="matrix(0.0666667 0 0 0.0666667 79.2846 91.3249)" font-style="normal" font-weight="normal" font-size="200px" font-family="Arial" >
N(CH</text>
<text x="0" y="0" stroke="none" fill="#000000" transform="matrix(0.0666667 0 0 0.0666667 112.638 94.2582)" font-style="normal" font-weight="normal" font-size="150px" font-family="Arial" >
2</text>
<text x="0" y="0" stroke="none" fill="#000000" transform="matrix(0.0666667 0 0 0.0666667 118.2 91.3249)" font-style="normal" font-weight="normal" font-size="200px" font-family="Arial" >
)</text>
<text x="0" y="0" stroke="none" fill="#000000" transform="matrix(0.0666667 0 0 0.0666667 122.666 94.2582)" font-style="normal" font-weight="normal" font-size="150px" font-family="Arial" >
n</text>
<text x="0" y="0" stroke="none" fill="#0000ff" transform="matrix(0.0666667 0 0 0.0666667 128.228 91.3249)" font-style="normal" font-weight="normal" font-size="200px" font-family="Arial" >
COOR</text>
<text x="0" y="0" stroke="none" fill="#ff0000" transform="matrix(0.0666667 0 0 0.0666667 7.64013 77.408)" font-style="normal" font-weight="normal" font-size="200px" font-family="Arial" >
Me</text>
<path stroke="none" fill="#ff0000" transform="matrix(0.0666667 0 0 0.0666667 -77.4003 -322)" d="M 1586.47,5972.66 L 1593.97,5959.67 L 1763.93,6057.8 L 1756.43,6070.79 L 1586.47,5972.66 Z " />
<text x="0" y="0" stroke="none" fill="#000000" transform="matrix(0.0666667 0 0 0.0666667 79.2237 116.586)" font-style="normal" font-weight="normal" font-size="200px" font-family="Arial" >
COOEt</text>
<path stroke="none" fill="#000000" transform="matrix(0.0666667 0 0 0.0666667 -77.4003 -322)" d="M 2429.17,6395.65 L 2414.17,6395.6 L 2414.51,6283.68 L 2429.51,6283.73 L 2429.17,6395.65 Z " />
<text x="0" y="0" stroke="none" fill="#000000" transform="matrix(0.0666667 0 0 0.0666667 184.791 25.7633)" font-style="normal" font-weight="normal" font-size="200px" font-family="Arial" >
 </text>
<text x="0" y="0" stroke="none" fill="#ff0000" transform="matrix(0.0666667 0 0 0.0666667 188.524 25.7633)" font-style="normal" font-weight="normal" font-size="200px" font-family="Arial" >
(</text>
<text x="0" y="0" stroke="none" fill="#ff0000" transform="matrix(0.0666667 0 0 0.0666667 192.991 25.7633)" font-style="normal" font-weight="normal" font-size="200px" font-family="Arial" >
H</text>
<text x="0" y="0" stroke="none" fill="#ff0000" transform="matrix(0.0666667 0 0 0.0666667 202.62 25.7633)" font-style="normal" font-weight="normal" font-size="200px" font-family="Arial" >
O)</text>
<text x="0" y="0" stroke="none" fill="#ff0000" transform="matrix(0.0666667 0 0 0.0666667 217.486 28.6966)" font-style="normal" font-weight="normal" font-size="150px" font-family="Arial" >
2</text>
<text x="0" y="0" stroke="none" fill="#ff0000" transform="matrix(0.0666667 0 0 0.0666667 223.048 25.7633)" font-style="normal" font-weight="normal" font-size="200px" font-family="Arial" >
P</text>
<text x="0" y="0" stroke="none" fill="#000000" transform="matrix(0.0666667 0 0 0.0666667 231.941 25.7633)" font-style="normal" font-weight="normal" font-size="200px" font-family="Arial" >
CH</text>
<text x="0" y="0" stroke="none" fill="#000000" transform="matrix(0.0666667 0 0 0.0666667 251.199 28.6966)" font-style="normal" font-weight="normal" font-size="150px" font-family="Arial" >
2</text>
<text x="0" y="0" stroke="none" fill="#000000" transform="matrix(0.0666667 0 0 0.0666667 256.76 25.7633)" font-style="normal" font-weight="normal" font-size="200px" font-family="Arial" >
N(CH</text>
<text x="0" y="0" stroke="none" fill="#000000" transform="matrix(0.0666667 0 0 0.0666667 290.114 28.6966)" font-style="normal" font-weight="normal" font-size="150px" font-family="Arial" >
2</text>
<text x="0" y="0" stroke="none" fill="#000000" transform="matrix(0.0666667 0 0 0.0666667 295.675 25.7633)" font-style="normal" font-weight="normal" font-size="200px" font-family="Arial" >
)</text>
<text x="0" y="0" stroke="none" fill="#000000" transform="matrix(0.0666667 0 0 0.0666667 300.142 28.6966)" font-style="normal" font-weight="normal" font-size="150px" font-family="Arial" >
n</text>
<text x="0" y="0" stroke="none" fill="#0000ff" transform="matrix(0.0666667 0 0 0.0666667 305.703 25.7633)" font-style="normal" font-weight="normal" font-size="200px" font-family="Arial" >
COOR</text>
<text x="0" y="0" stroke="none" fill="#ff0000" transform="matrix(0.0666667 0 0 0.0666667 224.258 52.1733)" font-style="normal" font-weight="normal" font-size="200px" font-family="Arial" >
O</text>
<path stroke="none" fill="#ff0000" transform="matrix(0.0666667 0 0 0.0666667 -77.4003 -322)" d="M 4636.31,5429.43 L 4621.31,5429.43 L 4621.31,5246.36 L 4636.31,5246.36 L 4636.31,5429.43 Z " />
<path stroke="none" fill="#ff0000" transform="matrix(0.0666667 0 0 0.0666667 -77.4003 -322)" d="M 4584.43,5429.43 L 4569.43,5429.43 L 4569.43,5246.36 L 4584.43,5246.36 L 4584.43,5429.43 Z " />
<text x="0" y="0" stroke="none" fill="#000000" transform="matrix(0.0666667 0 0 0.0666667 257.304 53.128)" font-style="normal" font-weight="normal" font-size="200px" font-family="Arial" >
COOEt</text>
<path stroke="none" fill="#000000" transform="matrix(0.0666667 0 0 0.0666667 -77.4003 -322)" d="M 5100.07,5443.75 L 5085.07,5443.75 L 5085.07,5261.71 L 5100.07,5261.71 L 5100.07,5443.75 Z " />
<text x="0" y="0" stroke="none" fill="#000000" transform="matrix(0.0666667 0 0 0.0666667 381.353 75.0087)" font-style="normal" font-weight="normal" font-size="200px" font-family="Arial" >
O</text>
<text x="0" y="0" stroke="none" fill="#ff0000" transform="matrix(0.0666667 0 0 0.0666667 395.442 56.671)" font-style="normal" font-weight="normal" font-size="200px" font-family="Arial" >
P</text>
<text x="0" y="0" stroke="none" fill="#000000" transform="matrix(0.0666667 0 0 0.0666667 381.353 38.3333)" font-style="normal" font-weight="normal" font-size="200px" font-family="Arial" >
O</text>
<path stroke="none" fill="#000000" transform="matrix(0.0666667 0 0 0.0666667 -77.4003 -322)" d="M 6643.44,5766.62 L 6628.44,5777.51 L 6628.44,5426.62 L 6643.44,5437.51 L 6643.44,5766.62 Z " />
<path stroke="none" fill="#000000" transform="matrix(0.0666667 0 0 0.0666667 -77.4003 -322)" d="M 6860.03,5836.99 L 6855.39,5851.26 L 6628.44,5777.51 L 6643.44,5766.62 L 6860.03,5836.99 Z " />
<path stroke="none" fill="#000000" transform="matrix(0.0666667 0 0 0.0666667 -77.4003 -322)" d="M 7075.42,5704.54 L 7087.56,5713.35 L 7028.06,5795.24 L 7015.93,5786.42 L 7075.42,5704.54 Z " />
<path stroke="none" fill="#000000" transform="matrix(0.0666667 0 0 0.0666667 -77.4003 -322)" d="M 7023.98,5428.79 L 7036.12,5419.98 L 7094.37,5500.16 L 7082.24,5508.97 L 7023.98,5428.79 Z " />
<path stroke="none" fill="#000000" transform="matrix(0.0666667 0 0 0.0666667 -77.4003 -322)" d="M 6643.44,5437.51 L 6628.44,5426.62 L 6850.49,5354.47 L 6855.13,5368.73 L 6643.44,5437.51 Z " />
<text x="0" y="0" stroke="none" fill="#000000" transform="matrix(0.0666667 0 0 0.0666667 407.999 75.0087)" font-style="normal" font-weight="normal" font-size="200px" font-family="Arial" >
O</text>
<text x="0" y="0" stroke="none" fill="#000000" transform="matrix(0.0666667 0 0 0.0666667 407.999 38.3333)" font-style="normal" font-weight="normal" font-size="200px" font-family="Arial" >
O</text>
<path stroke="none" fill="#000000" transform="matrix(0.0666667 0 0 0.0666667 -77.4003 -322)" d="M 7302.31,5786.36 L 7290.18,5795.18 L 7197.31,5667.37 L 7209.45,5658.55 L 7302.31,5786.36 Z " />
<path stroke="none" fill="#000000" transform="matrix(0.0666667 0 0 0.0666667 -77.4003 -322)" d="M 7674.85,5766.62 L 7689.85,5777.51 L 7463.16,5851.17 L 7458.53,5836.9 L 7674.85,5766.62 Z " />
<path stroke="none" fill="#000000" transform="matrix(0.0666667 0 0 0.0666667 -77.4003 -322)" d="M 7674.85,5437.51 L 7689.85,5426.62 L 7689.85,5777.51 L 7674.85,5766.62 L 7674.85,5437.51 Z " />
<path stroke="none" fill="#000000" transform="matrix(0.0666667 0 0 0.0666667 -77.4003 -322)" d="M 7463.47,5368.83 L 7468.11,5354.57 L 7689.85,5426.62 L 7674.85,5437.51 L 7463.47,5368.83 Z " />
<path stroke="none" fill="#000000" transform="matrix(0.0666667 0 0 0.0666667 -77.4003 -322)" d="M 7229.48,5518.01 L 7217.34,5509.2 L 7282.38,5419.68 L 7294.52,5428.5 L 7229.48,5518.01 Z " />
<text x="0" y="0" stroke="none" fill="#000000" transform="matrix(0.0666667 0 0 0.0666667 395.076 96.5723)" font-style="normal" font-weight="normal" font-size="200px" font-family="Arial" >
CH</text>
<text x="0" y="0" stroke="none" fill="#000000" transform="matrix(0.0666667 0 0 0.0666667 414.334 99.5056)" font-style="normal" font-weight="normal" font-size="150px" font-family="Arial" >
2</text>
<text x="0" y="0" stroke="none" fill="#0000ff" transform="matrix(0.0666667 0 0 0.0666667 419.895 96.5723)" font-style="normal" font-weight="normal" font-size="200px" font-family="Arial" >
NR</text>
<text x="0" y="0" stroke="none" fill="#0000ff" transform="matrix(0.0666667 0 0 0.0666667 439.153 99.5056)" font-style="normal" font-weight="normal" font-size="150px" font-family="Arial" >
2</text>
<path stroke="none" fill="#000000" transform="matrix(0.0666667 0 0 0.0666667 -77.4003 -322)" d="M 7166.64,6095.42 L 7151.64,6095.42 L 7151.64,5719.23 L 7166.64,5719.23 L 7166.64,6095.42 Z " />
<text x="0" y="0" stroke="none" fill="#ff0000" transform="matrix(0.0666667 0 0 0.0666667 3.14634 98.1)" font-style="italic" font-weight="normal" font-size="150px" font-family="Arial" >
i</text>
</svg>
