<?xml version="1.0" standalone="no" ?>
<!DOCTYPE svg PUBLIC "-//W3C//DTD SVG 1.1//EN" "http://www.w3.org/Graphics/SVG/1.1/DTD/svg11.dtd">
<svg width="565px" height="126px" viewBox="0 0 565 126" style="background-color: #ffffff00" xmlns="http://www.w3.org/2000/svg" xmlns:xlink="http://www.w3.org/1999/xlink" version="1.1" >
<text x="0" y="0" stroke="none" fill="#000000" transform="matrix(0.0666667 0 0 0.0666667 3.50272 61.3348)" font-style="normal" font-weight="normal" font-size="200px" font-family="Arial" >
 </text>
<text x="0" y="0" stroke="none" fill="#000000" transform="matrix(0.0666667 0 0 0.0666667 7.23605 61.3348)" font-style="normal" font-weight="normal" font-size="200px" font-family="Arial" >
(HO)</text>
<text x="0" y="0" stroke="none" fill="#000000" transform="matrix(0.0666667 0 0 0.0666667 36.1983 64.2681)" font-style="normal" font-weight="normal" font-size="150px" font-family="Arial" >
2</text>
<text x="0" y="0" stroke="none" fill="#000000" transform="matrix(0.0666667 0 0 0.0666667 41.7598 61.3348)" font-style="normal" font-weight="normal" font-size="200px" font-family="Arial" >
PCH</text>
<text x="0" y="0" stroke="none" fill="#000000" transform="matrix(0.0666667 0 0 0.0666667 69.9109 64.2681)" font-style="normal" font-weight="normal" font-size="150px" font-family="Arial" >
2</text>
<text x="0" y="0" stroke="none" fill="#000000" transform="matrix(0.0666667 0 0 0.0666667 75.4724 61.3348)" font-style="normal" font-weight="normal" font-size="200px" font-family="Arial" >
NHCH</text>
<text x="0" y="0" stroke="none" fill="#000000" transform="matrix(0.0666667 0 0 0.0666667 113.988 64.2681)" font-style="normal" font-weight="normal" font-size="150px" font-family="Arial" >
2</text>
<text x="0" y="0" stroke="none" fill="#000000" transform="matrix(0.0666667 0 0 0.0666667 119.55 61.3348)" font-style="normal" font-weight="normal" font-size="200px" font-family="Arial" >
COOH</text>
<text x="0" y="0" stroke="none" fill="#000000" transform="matrix(0.0666667 0 0 0.0666667 40.7216 88.7914)" font-style="normal" font-weight="normal" font-size="200px" font-family="Arial" >
O</text>
<path stroke="none" fill="#000000" transform="matrix(0.0666667 0 0 0.0666667 -37.4003 -118)" d="M 1285.39,2913.7 L 1269.37,2913.7 L 1269.37,2717.75 L 1285.39,2717.75 L 1285.39,2913.7 Z " />
<path stroke="none" fill="#000000" transform="matrix(0.0666667 0 0 0.0666667 -37.4003 -118)" d="M 1230.29,2913.7 L 1214.27,2913.7 L 1214.27,2717.75 L 1230.29,2717.75 L 1230.29,2913.7 Z " />
<text x="0" y="0" stroke="none" fill="#000000" transform="matrix(0.0666667 0 0 0.0666667 75.9091 119.65)" font-style="normal" font-weight="bold" font-size="200px" font-family="Arial" >
A</text>
<text x="0" y="0" stroke="none" fill="#000000" transform="matrix(0.0666667 0 0 0.0666667 279.713 62.2164)" font-style="normal" font-weight="normal" font-size="200px" font-family="Arial" >
NCH</text>
<text x="0" y="0" stroke="none" fill="#000000" transform="matrix(0.0666667 0 0 0.0666667 308.6 65.1498)" font-style="normal" font-weight="normal" font-size="150px" font-family="Arial" >
2</text>
<text x="0" y="0" stroke="none" fill="#000000" transform="matrix(0.0666667 0 0 0.0666667 314.162 62.2164)" font-style="normal" font-weight="normal" font-size="200px" font-family="Arial" >
COOH</text>
<text x="0" y="0" stroke="none" fill="#000000" transform="matrix(0.0666667 0 0 0.0666667 195.702 37.9419)" font-style="normal" font-weight="normal" font-size="200px" font-family="Arial" >
(HO)</text>
<text x="0" y="0" stroke="none" fill="#000000" transform="matrix(0.0666667 0 0 0.0666667 224.665 40.8753)" font-style="normal" font-weight="normal" font-size="150px" font-family="Arial" >
2</text>
<text x="0" y="0" stroke="none" fill="#000000" transform="matrix(0.0666667 0 0 0.0666667 230.226 37.9419)" font-style="normal" font-weight="normal" font-size="200px" font-family="Arial" >
PCH</text>
<text x="0" y="0" stroke="none" fill="#000000" transform="matrix(0.0666667 0 0 0.0666667 258.377 40.8753)" font-style="normal" font-weight="normal" font-size="150px" font-family="Arial" >
2</text>
<path stroke="none" fill="#000000" transform="matrix(0.0666667 0 0 0.0666667 -37.4003 -118)" d="M 4575.14,2383.01 L 4586.46,2371.68 L 4743.05,2528.26 L 4731.72,2539.59 L 4575.14,2383.01 Z " />
<text x="0" y="0" stroke="none" fill="#000000" transform="matrix(0.0666667 0 0 0.0666667 199.086 83.1078)" font-style="normal" font-weight="normal" font-size="200px" font-family="Arial" >
(HO)</text>
<text x="0" y="0" stroke="none" fill="#000000" transform="matrix(0.0666667 0 0 0.0666667 228.048 86.0411)" font-style="normal" font-weight="normal" font-size="150px" font-family="Arial" >
2</text>
<text x="0" y="0" stroke="none" fill="#000000" transform="matrix(0.0666667 0 0 0.0666667 233.609 83.1078)" font-style="normal" font-weight="normal" font-size="200px" font-family="Arial" >
PCH</text>
<text x="0" y="0" stroke="none" fill="#000000" transform="matrix(0.0666667 0 0 0.0666667 261.76 86.0411)" font-style="normal" font-weight="normal" font-size="150px" font-family="Arial" >
2</text>
<path stroke="none" fill="#000000" transform="matrix(0.0666667 0 0 0.0666667 -37.4003 -118)" d="M 4559.88,2905.4 L 4548.55,2894.07 L 4723.22,2719.4 L 4734.55,2730.73 L 4559.88,2905.4 Z " />
<text x="0" y="0" stroke="none" fill="#000000" transform="matrix(0.0666667 0 0 0.0666667 229.814 14.328)" font-style="normal" font-weight="normal" font-size="200px" font-family="Arial" >
O</text>
<path stroke="none" fill="#000000" transform="matrix(0.0666667 0 0 0.0666667 -37.4003 -118)" d="M 4044.52,2031.16 L 4060.54,2031.39 L 4058.77,2153.64 L 4042.76,2153.4 L 4044.52,2031.16 Z " />
<path stroke="none" fill="#000000" transform="matrix(0.0666667 0 0 0.0666667 -37.4003 -118)" d="M 4108.28,2032.08 L 4124.3,2032.31 L 4122.53,2154.56 L 4106.52,2154.32 L 4108.28,2032.08 Z " />
<text x="0" y="0" stroke="none" fill="#000000" transform="matrix(0.0666667 0 0 0.0666667 233.197 109.91)" font-style="normal" font-weight="normal" font-size="200px" font-family="Arial" >
O</text>
<path stroke="none" fill="#000000" transform="matrix(0.0666667 0 0 0.0666667 -37.4003 -118)" d="M 4179.75,3229.94 L 4163.73,3230.14 L 4162.14,3105.07 L 4178.16,3104.86 L 4179.75,3229.94 Z " />
<path stroke="none" fill="#000000" transform="matrix(0.0666667 0 0 0.0666667 -37.4003 -118)" d="M 4107.38,3230.86 L 4091.37,3231.06 L 4089.78,3105.99 L 4105.79,3105.78 L 4107.38,3230.86 Z " />
<text x="0" y="0" stroke="none" fill="#000000" transform="matrix(0.0666667 0 0 0.0666667 291.822 119.65)" font-style="normal" font-weight="bold" font-size="200px" font-family="Arial" >
B</text>
<text x="0" y="0" stroke="none" fill="#000000" transform="matrix(0.0666667 0 0 0.0666667 441.069 86.6802)" font-style="normal" font-weight="normal" font-size="200px" font-family="Arial" >
O</text>
<text x="0" y="0" stroke="none" fill="#000000" transform="matrix(0.0666667 0 0 0.0666667 441.836 62.7879)" font-style="normal" font-weight="normal" font-size="200px" font-family="Arial" >
P</text>
<path stroke="none" fill="#000000" transform="matrix(0.0666667 0 0 0.0666667 -37.4003 -118)" d="M 7214.78,2755.99 L 7230.8,2755.99 L 7230.8,2882.04 L 7214.78,2882.04 L 7214.78,2755.99 Z " />
<path stroke="none" fill="#000000" transform="matrix(0.0666667 0 0 0.0666667 -37.4003 -118)" d="M 7279.29,2755.99 L 7295.31,2755.99 L 7295.31,2882.04 L 7279.29,2882.04 L 7279.29,2755.99 Z " />
<text x="0" y="0" stroke="none" fill="#000000" transform="matrix(0.0666667 0 0 0.0666667 389.006 74.2065)" font-style="normal" font-weight="normal" font-size="200px" font-family="Arial" >
NH</text>
<text x="0" y="0" stroke="none" fill="#000000" transform="matrix(0.0666667 0 0 0.0666667 408.264 77.1398)" font-style="normal" font-weight="normal" font-size="150px" font-family="Arial" >
4</text>
<text x="0" y="0" stroke="none" fill="#000000" transform="matrix(0.0666667 0 0 0.0666667 413.825 74.2065)" font-style="normal" font-weight="normal" font-size="200px" font-family="Arial" >
 </text>
<text x="0" y="0" stroke="none" fill="#000000" transform="matrix(0.0666667 0 0 0.0666667 417.559 74.2065)" font-style="normal" font-weight="normal" font-size="200px" font-family="Arial" >
 </text>
<text x="0" y="0" stroke="none" fill="#000000" transform="matrix(0.0666667 0 0 0.0666667 421.292 74.2065)" font-style="normal" font-weight="normal" font-size="200px" font-family="Arial" >
O</text>
<path stroke="none" fill="#000000" transform="matrix(0.0666667 0 0 0.0666667 -37.4003 -118)" d="M 7059.32,2756.07 L 7051.31,2742.2 L 7140.78,2690.54 L 7148.79,2704.41 L 7059.32,2756.07 Z " />
<text x="0" y="0" stroke="none" fill="#000000" transform="matrix(0.0666667 0 0 0.0666667 452.722 62.7879)" font-style="normal" font-weight="normal" font-size="200px" font-family="Arial" >
CH</text>
<text x="0" y="0" stroke="none" fill="#000000" transform="matrix(0.0666667 0 0 0.0666667 471.979 65.7213)" font-style="normal" font-weight="normal" font-size="150px" font-family="Arial" >
2</text>
<text x="0" y="0" stroke="none" fill="#000000" transform="matrix(0.0666667 0 0 0.0666667 477.541 62.7879)" font-style="normal" font-weight="normal" font-size="200px" font-family="Arial" >
CH</text>
<text x="0" y="0" stroke="none" fill="#000000" transform="matrix(0.0666667 0 0 0.0666667 496.799 65.7213)" font-style="normal" font-weight="normal" font-size="150px" font-family="Arial" >
2</text>
<text x="0" y="0" stroke="none" fill="#000000" transform="matrix(0.0666667 0 0 0.0666667 502.36 62.7879)" font-style="normal" font-weight="normal" font-size="200px" font-family="Arial" >
CHCOOH</text>
<text x="0" y="0" stroke="none" fill="#000000" transform="matrix(0.0666667 0 0 0.0666667 406.906 48.6346)" font-style="normal" font-weight="normal" font-size="200px" font-family="Arial" >
Me</text>
<path stroke="none" fill="#000000" transform="matrix(0.0666667 0 0 0.0666667 -37.4003 -118)" d="M 6979.54,2484 L 6987.54,2470.13 L 7155,2566.81 L 7146.99,2580.68 L 6979.54,2484 Z " />
<path stroke="none" fill="#000000" transform="matrix(0.0666667 0 0 0.0666667 -37.4003 -118)" d="M 6321.99,2658.75 L 6404.67,2658.75 L 6404.67,2671.75 L 6321.99,2671.75 Z " />
<path stroke="none" fill="#000000" transform="matrix(0.0666667 0 0 0.0666667 -37.4003 -118)" d="M 6369.83,2623.91 L 6369.83,2706.59 L 6356.83,2706.59 L 6356.83,2623.91 Z " />
<path stroke="none" fill="#000000" transform="matrix(0.0666667 0 0 0.0666667 -37.4003 -118)" d="M 6812.67,2684.26 L 6895.35,2684.26 L 6895.35,2697.26 L 6812.67,2697.26 Z " />
<text x="0" y="0" stroke="none" fill="#000000" transform="matrix(0.0666667 0 0 0.0666667 450.513 119.583)" font-style="normal" font-weight="bold" font-size="200px" font-family="Arial" >
C</text>
<text x="0" y="0" stroke="none" fill="#000000" transform="matrix(0.0666667 0 0 0.0666667 502.23 91.4969)" font-style="normal" font-weight="normal" font-size="200px" font-family="Arial" >
NH</text>
<text x="0" y="0" stroke="none" fill="#000000" transform="matrix(0.0666667 0 0 0.0666667 521.488 94.4303)" font-style="normal" font-weight="normal" font-size="150px" font-family="Arial" >
2</text>
<path stroke="none" fill="#000000" transform="matrix(0.0666667 0 0 0.0666667 -37.4003 -118)" d="M 8175.01,2956.66 L 8158.99,2956.58 L 8159.78,2800.61 L 8175.79,2800.69 L 8175.01,2956.66 Z " />
</svg>
