<?xml version="1.0" standalone="no" ?>
<!DOCTYPE svg PUBLIC "-//W3C//DTD SVG 1.1//EN" "http://www.w3.org/Graphics/SVG/1.1/DTD/svg11.dtd">
<svg width="857px" height="121px" viewBox="0 0 857 121" style="background-color: #ffffff00" xmlns="http://www.w3.org/2000/svg" xmlns:xlink="http://www.w3.org/1999/xlink" version="1.1" >
<text x="0" y="0" stroke="none" fill="#000000" transform="matrix(0.0666667 0 0 0.0666667 19.6905 73.2554)" font-style="normal" font-weight="normal" font-size="200px" font-family="Arial" >
O</text>
<text x="0" y="0" stroke="none" fill="#000000" transform="matrix(0.0666667 0 0 0.0666667 33.7803 54.9177)" font-style="normal" font-weight="normal" font-size="200px" font-family="Arial" >
P</text>
<text x="0" y="0" stroke="none" fill="#000000" transform="matrix(0.0666667 0 0 0.0666667 19.6905 36.5799)" font-style="normal" font-weight="normal" font-size="200px" font-family="Arial" >
O</text>
<path stroke="none" fill="#000000" transform="matrix(0.0666667 0 0 0.0666667 1.5327 -278)" d="M 34.5074,5080.32 L 19.5074,5091.21 L 19.5074,4740.32 L 34.5074,4751.21 L 34.5074,5080.32 Z " />
<path stroke="none" fill="#000000" transform="matrix(0.0666667 0 0 0.0666667 1.5327 -278)" d="M 251.098,5150.69 L 246.462,5164.96 L 19.5074,5091.21 L 34.5074,5080.32 L 251.098,5150.69 Z " />
<path stroke="none" fill="#000000" transform="matrix(0.0666667 0 0 0.0666667 1.5327 -278)" d="M 466.492,5018.24 L 478.628,5027.05 L 419.133,5108.94 L 406.998,5100.12 L 466.492,5018.24 Z " />
<path stroke="none" fill="#000000" transform="matrix(0.0666667 0 0 0.0666667 1.5327 -278)" d="M 415.053,4742.49 L 427.188,4733.68 L 485.443,4813.86 L 473.308,4822.67 L 415.053,4742.49 Z " />
<path stroke="none" fill="#000000" transform="matrix(0.0666667 0 0 0.0666667 1.5327 -278)" d="M 34.5074,4751.21 L 19.5074,4740.32 L 241.564,4668.17 L 246.199,4682.43 L 34.5074,4751.21 Z " />
<text x="0" y="0" stroke="none" fill="#000000" transform="matrix(0.0666667 0 0 0.0666667 46.3367 73.2554)" font-style="normal" font-weight="normal" font-size="200px" font-family="Arial" >
O</text>
<text x="0" y="0" stroke="none" fill="#000000" transform="matrix(0.0666667 0 0 0.0666667 46.3367 36.5799)" font-style="normal" font-weight="normal" font-size="200px" font-family="Arial" >
O</text>
<path stroke="none" fill="#000000" transform="matrix(0.0666667 0 0 0.0666667 1.5327 -278)" d="M 693.385,5100.06 L 681.249,5108.88 L 588.386,4981.07 L 600.522,4972.25 L 693.385,5100.06 Z " />
<path stroke="none" fill="#000000" transform="matrix(0.0666667 0 0 0.0666667 1.5327 -278)" d="M 1065.92,5080.32 L 1080.92,5091.21 L 854.236,5164.87 L 849.6,5150.6 L 1065.92,5080.32 Z " />
<path stroke="none" fill="#000000" transform="matrix(0.0666667 0 0 0.0666667 1.5327 -278)" d="M 1065.92,4751.21 L 1080.92,4740.32 L 1080.92,5091.21 L 1065.92,5080.32 L 1065.92,4751.21 Z " />
<path stroke="none" fill="#000000" transform="matrix(0.0666667 0 0 0.0666667 1.5327 -278)" d="M 854.544,4682.53 L 859.18,4668.27 L 1080.92,4740.32 L 1065.92,4751.21 L 854.544,4682.53 Z " />
<path stroke="none" fill="#000000" transform="matrix(0.0666667 0 0 0.0666667 1.5327 -278)" d="M 620.551,4831.71 L 608.416,4822.9 L 673.454,4733.38 L 685.589,4742.2 L 620.551,4831.71 Z " />
<text x="0" y="0" stroke="none" fill="#000000" transform="matrix(0.0666667 0 0 0.0666667 33.4136 22.7164)" font-style="normal" font-weight="normal" font-size="200px" font-family="Arial" >
H</text>
<path stroke="none" fill="#000000" transform="matrix(0.0666667 0 0 0.0666667 1.5327 -278)" d="M 542.714,4549.91 L 557.714,4549.91 L 557.714,4812.93 L 542.714,4812.93 L 542.714,4549.91 Z " />
<text x="0" y="0" stroke="none" fill="#000000" transform="matrix(0.0666667 0 0 0.0666667 527.459 68.5554)" font-style="normal" font-weight="normal" font-size="200px" font-family="Arial" >
O</text>
<text x="0" y="0" stroke="none" fill="#000000" transform="matrix(0.0666667 0 0 0.0666667 541.549 50.2177)" font-style="normal" font-weight="normal" font-size="200px" font-family="Arial" >
P</text>
<text x="0" y="0" stroke="none" fill="#000000" transform="matrix(0.0666667 0 0 0.0666667 527.459 31.8799)" font-style="normal" font-weight="normal" font-size="200px" font-family="Arial" >
O</text>
<path stroke="none" fill="#000000" transform="matrix(0.0666667 0 0 0.0666667 1.5327 -278)" d="M 7651.04,5009.82 L 7636.04,5020.71 L 7636.04,4669.82 L 7651.04,4680.71 L 7651.04,5009.82 Z " />
<path stroke="none" fill="#000000" transform="matrix(0.0666667 0 0 0.0666667 1.5327 -278)" d="M 7867.63,5080.19 L 7862.99,5094.46 L 7636.04,5020.71 L 7651.04,5009.82 L 7867.63,5080.19 Z " />
<path stroke="none" fill="#000000" transform="matrix(0.0666667 0 0 0.0666667 1.5327 -278)" d="M 8083.02,4947.74 L 8095.16,4956.55 L 8035.66,5038.44 L 8023.53,5029.62 L 8083.02,4947.74 Z " />
<path stroke="none" fill="#000000" transform="matrix(0.0666667 0 0 0.0666667 1.5327 -278)" d="M 8031.58,4671.99 L 8043.72,4663.18 L 8101.97,4743.36 L 8089.84,4752.17 L 8031.58,4671.99 Z " />
<path stroke="none" fill="#000000" transform="matrix(0.0666667 0 0 0.0666667 1.5327 -278)" d="M 7651.04,4680.71 L 7636.04,4669.82 L 7858.09,4597.67 L 7862.73,4611.93 L 7651.04,4680.71 Z " />
<text x="0" y="0" stroke="none" fill="#000000" transform="matrix(0.0666667 0 0 0.0666667 554.105 68.5554)" font-style="normal" font-weight="normal" font-size="200px" font-family="Arial" >
O</text>
<text x="0" y="0" stroke="none" fill="#000000" transform="matrix(0.0666667 0 0 0.0666667 554.105 31.8799)" font-style="normal" font-weight="normal" font-size="200px" font-family="Arial" >
O</text>
<path stroke="none" fill="#000000" transform="matrix(0.0666667 0 0 0.0666667 1.5327 -278)" d="M 8309.91,5029.56 L 8297.78,5038.38 L 8204.92,4910.57 L 8217.05,4901.75 L 8309.91,5029.56 Z " />
<path stroke="none" fill="#000000" transform="matrix(0.0666667 0 0 0.0666667 1.5327 -278)" d="M 8682.45,5009.82 L 8697.45,5020.71 L 8470.76,5094.37 L 8466.13,5080.1 L 8682.45,5009.82 Z " />
<path stroke="none" fill="#000000" transform="matrix(0.0666667 0 0 0.0666667 1.5327 -278)" d="M 8682.45,4680.71 L 8697.45,4669.82 L 8697.45,5020.71 L 8682.45,5009.82 L 8682.45,4680.71 Z " />
<path stroke="none" fill="#000000" transform="matrix(0.0666667 0 0 0.0666667 1.5327 -278)" d="M 8471.07,4612.03 L 8475.71,4597.77 L 8697.45,4669.82 L 8682.45,4680.71 L 8471.07,4612.03 Z " />
<path stroke="none" fill="#000000" transform="matrix(0.0666667 0 0 0.0666667 1.5327 -278)" d="M 8237.08,4761.21 L 8224.94,4752.4 L 8289.98,4662.88 L 8302.12,4671.7 L 8237.08,4761.21 Z " />
<text x="0" y="0" stroke="none" fill="#000000" transform="matrix(0.0666667 0 0 0.0666667 541.182 90.1189)" font-style="normal" font-weight="normal" font-size="200px" font-family="Arial" >
CH</text>
<text x="0" y="0" stroke="none" fill="#000000" transform="matrix(0.0666667 0 0 0.0666667 560.44 93.0523)" font-style="normal" font-weight="normal" font-size="150px" font-family="Arial" >
2</text>
<text x="0" y="0" stroke="none" fill="#000000" transform="matrix(0.0666667 0 0 0.0666667 566.002 90.1189)" font-style="normal" font-weight="normal" font-size="200px" font-family="Arial" >
NR</text>
<text x="0" y="0" stroke="none" fill="#000000" transform="matrix(0.0666667 0 0 0.0666667 585.259 93.0523)" font-style="normal" font-weight="normal" font-size="150px" font-family="Arial" >
2</text>
<path stroke="none" fill="#000000" transform="matrix(0.0666667 0 0 0.0666667 1.5327 -278)" d="M 8174.24,5338.62 L 8159.24,5338.62 L 8159.24,4962.43 L 8174.24,4962.43 L 8174.24,5338.62 Z " />
<text x="0" y="0" stroke="none" fill="#000000" transform="matrix(0.0666667 0 0 0.0666667 489.032 114.418)" font-style="normal" font-weight="bold" font-size="200px" font-family="Arial" >
11</text>
<text x="0" y="0" stroke="none" fill="#000000" transform="matrix(0.0666667 0 0 0.0666667 503.863 114.418)" font-style="normal" font-weight="normal" font-size="200px" font-family="Arial" >
 </text>
<text x="0" y="0" stroke="none" fill="#000000" transform="matrix(0.0666667 0 0 0.0666667 507.596 114.418)" font-style="normal" font-weight="normal" font-size="200px" font-family="Arial" >
(78%), </text>
<text x="0" y="0" stroke="none" fill="#000000" transform="matrix(0.0666667 0 0 0.0666667 550.694 114.418)" font-style="normal" font-weight="bold" font-size="200px" font-family="Arial" >
12 </text>
<text x="0" y="0" stroke="none" fill="#000000" transform="matrix(0.0666667 0 0 0.0666667 569.258 114.418)" font-style="normal" font-weight="normal" font-size="200px" font-family="Arial" >
(84%)</text>
<text x="0" y="0" stroke="none" fill="#000000" transform="matrix(0.0666667 0 0 0.0666667 774.166 75.501)" font-style="normal" font-weight="normal" font-size="200px" font-family="Arial" >
X </text>
<text x="0" y="0" stroke="none" fill="#000000" transform="matrix(0.0666667 0 0 0.0666667 786.792 75.501)" font-style="normal" font-weight="normal" font-size="200px" font-family="Arial" >
= </text>
<text x="0" y="0" stroke="none" fill="#000000" transform="matrix(0.0666667 0 0 0.0666667 798.325 75.501)" font-style="normal" font-weight="normal" font-size="200px" font-family="Arial" >
EtO, </text>
<text x="0" y="0" stroke="none" fill="#000000" transform="matrix(0.0666667 0 0 0.0666667 828.819 75.501)" font-style="normal" font-weight="normal" font-size="200px" font-family="Arial" >
R</text>
<text x="0" y="0" stroke="none" fill="#000000" transform="matrix(0.0666667 0 0 0.0666667 838.448 78.4344)" font-style="normal" font-weight="normal" font-size="150px" font-family="Arial" >
2</text>
<text x="0" y="0" stroke="none" fill="#000000" transform="matrix(0.0666667 0 0 0.0666667 844.009 75.501)" font-style="normal" font-weight="normal" font-size="200px" font-family="Arial" >
N</text>
<text x="0" y="0" stroke="none" fill="#000000" transform="matrix(0.0666667 0 0 0.0666667 677.634 37.2177)" font-style="normal" font-weight="normal" font-size="200px" font-family="Arial" >
N(Me)CH</text>
<text x="0" y="0" stroke="none" fill="#000000" transform="matrix(0.0666667 0 0 0.0666667 734.003 40.151)" font-style="normal" font-weight="normal" font-size="150px" font-family="Arial" >
2</text>
<text x="0" y="0" stroke="none" fill="#000000" transform="matrix(0.0666667 0 0 0.0666667 739.565 37.2177)" font-style="normal" font-weight="normal" font-size="200px" font-family="Arial" >
COOMe </text>
<text x="0" y="0" stroke="none" fill="#000000" transform="matrix(0.0666667 0 0 0.0666667 792.276 37.2177)" font-style="normal" font-weight="normal" font-size="200px" font-family="Arial" >
(</text>
<text x="0" y="0" stroke="none" fill="#000000" transform="matrix(0.0666667 0 0 0.0666667 796.742 37.2177)" font-style="normal" font-weight="bold" font-size="200px" font-family="Arial" >
11</text>
<text x="0" y="0" stroke="none" fill="#000000" transform="matrix(0.0666667 0 0 0.0666667 811.573 37.2177)" font-style="normal" font-weight="normal" font-size="200px" font-family="Arial" >
),</text>
<text x="0" y="0" stroke="none" fill="#000000" transform="matrix(0.0666667 0 0 0.0666667 640.195 94.3)" font-style="normal" font-weight="normal" font-size="200px" font-family="Arial" >
N</text>
<path stroke="none" fill="#000000" transform="matrix(0.0666667 0 0 0.0666667 1.5327 -278)" d="M 9459.47,4991.12 L 9449.07,4976.12 L 9853.4,4976.12 L 9843.05,4991.12 L 9459.47,4991.12 Z " />
<path stroke="none" fill="#000000" transform="matrix(0.0666667 0 0 0.0666667 1.5327 -278)" d="M 9342.75,5303.35 L 9324.42,5309.55 L 9449.07,4976.12 L 9459.47,4991.12 L 9342.75,5303.35 Z " />
<path stroke="none" fill="#000000" transform="matrix(0.0666667 0 0 0.0666667 1.5327 -278)" d="M 9553.61,5435.85 L 9545.63,5448.55 L 9324.42,5309.55 L 9342.75,5303.35 L 9553.61,5435.85 Z " />
<path stroke="none" fill="#000000" transform="matrix(0.0666667 0 0 0.0666667 1.5327 -278)" d="M 9961.79,5303.36 L 9970.99,5306.45 L 9972.17,5314.57 L 9758.29,5448.67 L 9750.32,5435.96 L 9961.79,5303.36 Z " />
<path stroke="none" fill="#000000" transform="matrix(0.0666667 0 0 0.0666667 1.5327 -278)" d="M 9976.65,5300.24 L 9970.99,5306.45 L 9961.79,5303.36 L 9843.05,4991.12 L 9853.4,4976.12 L 9976.65,5300.24 Z " />
<text x="0" y="0" stroke="none" fill="#000000" transform="matrix(0.0666667 0 0 0.0666667 686.44 87.9372)" font-style="normal" font-weight="normal" font-size="200px" font-family="Arial" >
COOMe</text>
<path stroke="none" fill="#000000" transform="matrix(0.0666667 0 0 0.0666667 1.5327 -278)" d="M 10250.2,5376.62 L 10246.1,5391.07 L 9972.17,5314.57 L 9970.99,5306.45 L 9976.65,5300.24 L 10250.2,5376.62 Z " />
<text x="0" y="0" stroke="none" fill="#000000" transform="matrix(0.0666667 0 0 0.0666667 739.966 75.7344)" font-style="normal" font-weight="normal" font-size="200px" font-family="Arial" >
(</text>
<text x="0" y="0" stroke="none" fill="#000000" transform="matrix(0.0666667 0 0 0.0666667 744.432 75.7344)" font-style="normal" font-weight="bold" font-size="200px" font-family="Arial" >
12</text>
<text x="0" y="0" stroke="none" fill="#000000" transform="matrix(0.0666667 0 0 0.0666667 759.263 75.7344)" font-style="normal" font-weight="normal" font-size="200px" font-family="Arial" >
);</text>
<path stroke="none" fill="#000000" transform="matrix(0.0666667 0 0 0.0666667 1.5327 -278)" d="M 1682.93,4867.5 L 1393.18,4867.5 L 1393.18,4852.5 L 1682.93,4852.5 Z " />
<path stroke="none" fill="#000000" transform="matrix(0.0666667 0 0 0.0666667 1.5327 -278)" d="M 1813.18,4860 C 1813.18,4860 1663.18,4898.5 1663.18,4898.5 C 1663.18,4898.5 1681.93,4876.84 1681.93,4860 C 1681.93,4842.72 1663.18,4820.5 1663.18,4820.5 C 1663.18,4820.5 1813.18,4860 1813.18,4860 C 1813.18,4860 1813.18,4860 1813.18,4860 " />
<path stroke="#000000" stroke-width="1" fill="none" transform="matrix(0.0666667 0 0 0.0666667 1.5327 -278)" d="M 1813.18,4860 C 1813.18,4860 1663.18,4898.5 1663.18,4898.5 C 1663.18,4898.5 1681.93,4876.84 1681.93,4860 C 1681.93,4842.72 1663.18,4820.5 1663.18,4820.5 C 1663.18,4820.5 1813.18,4860 1813.18,4860 C 1813.18,4860 1813.18,4860 1813.18,4860 " />
<path stroke="none" fill="#000000" transform="matrix(0.0666667 0 0 0.0666667 1.5327 -278)" d="M 1344.93,4947 L 1907.68,4947 L 1907.68,4962 L 1344.93,4962 Z " />
<path stroke="none" fill="#000000" transform="matrix(0.0666667 0 0 0.0666667 1.5327 -278)" d="M 1214.68,4954.5 C 1214.68,4954.5 1364.68,4915 1364.68,4915 C 1364.68,4915 1345.93,4937.22 1345.93,4954.5 C 1345.93,4971.34 1364.68,4993 1364.68,4993 C 1364.68,4993 1214.68,4954.5 1214.68,4954.5 C 1214.68,4954.5 1214.68,4954.5 1214.68,4954.5 " />
<path stroke="#000000" stroke-width="1" fill="none" transform="matrix(0.0666667 0 0 0.0666667 1.5327 -278)" d="M 1214.68,4954.5 C 1214.68,4954.5 1364.68,4915 1364.68,4915 C 1364.68,4915 1345.93,4937.22 1345.93,4954.5 C 1345.93,4971.34 1364.68,4993 1364.68,4993 C 1364.68,4993 1214.68,4954.5 1214.68,4954.5 C 1214.68,4954.5 1214.68,4954.5 1214.68,4954.5 " />
<text x="0" y="0" stroke="none" fill="#000000" transform="matrix(0.0666667 0 0 0.0666667 158.069 74.4377)" font-style="normal" font-weight="normal" font-size="200px" font-family="Arial" >
O</text>
<text x="0" y="0" stroke="none" fill="#000000" transform="matrix(0.0666667 0 0 0.0666667 172.159 56.1)" font-style="normal" font-weight="normal" font-size="200px" font-family="Arial" >
POCH</text>
<text x="0" y="0" stroke="none" fill="#000000" transform="matrix(0.0666667 0 0 0.0666667 210.71 59.0333)" font-style="normal" font-weight="normal" font-size="150px" font-family="Arial" >
2</text>
<text x="0" y="0" stroke="none" fill="#000000" transform="matrix(0.0666667 0 0 0.0666667 216.272 56.1)" font-style="normal" font-weight="normal" font-size="200px" font-family="Arial" >
CH</text>
<text x="0" y="0" stroke="none" fill="#000000" transform="matrix(0.0666667 0 0 0.0666667 235.53 59.0333)" font-style="normal" font-weight="normal" font-size="150px" font-family="Arial" >
2</text>
<text x="0" y="0" stroke="none" fill="#000000" transform="matrix(0.0666667 0 0 0.0666667 241.091 56.1)" font-style="normal" font-weight="normal" font-size="200px" font-family="Arial" >
OH</text>
<text x="0" y="0" stroke="none" fill="#000000" transform="matrix(0.0666667 0 0 0.0666667 158.069 37.7623)" font-style="normal" font-weight="normal" font-size="200px" font-family="Arial" >
O</text>
<path stroke="none" fill="#000000" transform="matrix(0.0666667 0 0 0.0666667 1.5327 -278)" d="M 2110.19,5098.05 L 2095.19,5108.95 L 2095.19,4758.05 L 2110.19,4768.95 L 2110.19,5098.05 Z " />
<path stroke="none" fill="#000000" transform="matrix(0.0666667 0 0 0.0666667 1.5327 -278)" d="M 2326.78,5168.43 L 2322.15,5182.69 L 2095.19,5108.95 L 2110.19,5098.05 L 2326.78,5168.43 Z " />
<path stroke="none" fill="#000000" transform="matrix(0.0666667 0 0 0.0666667 1.5327 -278)" d="M 2540.91,5037.72 L 2553.04,5046.53 L 2494.82,5126.68 L 2482.68,5117.86 L 2540.91,5037.72 Z " />
<path stroke="none" fill="#000000" transform="matrix(0.0666667 0 0 0.0666667 1.5327 -278)" d="M 2490.74,4760.23 L 2502.87,4751.41 L 2561.44,4832.03 L 2549.31,4840.84 L 2490.74,4760.23 Z " />
<path stroke="none" fill="#000000" transform="matrix(0.0666667 0 0 0.0666667 1.5327 -278)" d="M 2110.19,4768.95 L 2095.19,4758.05 L 2317.25,4685.9 L 2321.88,4700.17 L 2110.19,4768.95 Z " />
<path stroke="none" fill="#000000" transform="matrix(0.0666667 0 0 0.0666667 1.5327 -278)" d="M 4928.81,4941 L 3976.18,4941 L 3976.18,4926 L 4928.81,4926 Z " />
<path stroke="none" fill="#000000" transform="matrix(0.0666667 0 0 0.0666667 1.5327 -278)" d="M 5059.06,4933.5 C 5059.06,4933.5 4909.06,4972 4909.06,4972 C 4909.06,4972 4927.81,4950.34 4927.81,4933.5 C 4927.81,4916.22 4909.06,4894 4909.06,4894 C 4909.06,4894 5059.06,4933.5 5059.06,4933.5 C 5059.06,4933.5 5059.06,4933.5 5059.06,4933.5 " />
<path stroke="#000000" stroke-width="1" fill="none" transform="matrix(0.0666667 0 0 0.0666667 1.5327 -278)" d="M 5059.06,4933.5 C 5059.06,4933.5 4909.06,4972 4909.06,4972 C 4909.06,4972 4927.81,4950.34 4927.81,4933.5 C 4927.81,4916.22 4909.06,4894 4909.06,4894 C 4909.06,4894 5059.06,4933.5 5059.06,4933.5 C 5059.06,4933.5 5059.06,4933.5 5059.06,4933.5 " />
<text x="0" y="0" stroke="none" fill="#000000" transform="matrix(0.0666667 0 0 0.0666667 268.444 42.8)" font-style="normal" font-weight="normal" font-size="200px" font-family="Arial" >
XCH</text>
<text x="0" y="0" stroke="none" fill="#000000" transform="matrix(0.0666667 0 0 0.0666667 296.595 45.7333)" font-style="normal" font-weight="normal" font-size="150px" font-family="Arial" >
2</text>
<text x="0" y="0" stroke="none" fill="#000000" transform="matrix(0.0666667 0 0 0.0666667 302.157 42.8)" font-style="normal" font-weight="normal" font-size="200px" font-family="Arial" >
NR</text>
<text x="0" y="0" stroke="none" fill="#000000" transform="matrix(0.0666667 0 0 0.0666667 321.415 45.7333)" font-style="normal" font-weight="normal" font-size="150px" font-family="Arial" >
2</text>
<text x="0" y="0" stroke="none" fill="#000000" transform="matrix(0.0666667 0 0 0.0666667 32.9611 111.3)" font-style="normal" font-weight="bold" font-size="200px" font-family="Arial" >
D</text>
<text x="0" y="0" stroke="none" fill="#000000" transform="matrix(0.0666667 0 0 0.0666667 361.203 72.7377)" font-style="normal" font-weight="normal" font-size="200px" font-family="Arial" >
O</text>
<text x="0" y="0" stroke="none" fill="#000000" transform="matrix(0.0666667 0 0 0.0666667 375.292 54.4)" font-style="normal" font-weight="normal" font-size="200px" font-family="Arial" >
POCH</text>
<text x="0" y="0" stroke="none" fill="#000000" transform="matrix(0.0666667 0 0 0.0666667 413.844 57.3333)" font-style="normal" font-weight="normal" font-size="150px" font-family="Arial" >
2</text>
<text x="0" y="0" stroke="none" fill="#000000" transform="matrix(0.0666667 0 0 0.0666667 419.405 54.4)" font-style="normal" font-weight="normal" font-size="200px" font-family="Arial" >
CH</text>
<text x="0" y="0" stroke="none" fill="#000000" transform="matrix(0.0666667 0 0 0.0666667 438.663 57.3333)" font-style="normal" font-weight="normal" font-size="150px" font-family="Arial" >
2</text>
<text x="0" y="0" stroke="none" fill="#000000" transform="matrix(0.0666667 0 0 0.0666667 444.224 54.4)" font-style="normal" font-weight="normal" font-size="200px" font-family="Arial" >
OH</text>
<text x="0" y="0" stroke="none" fill="#000000" transform="matrix(0.0666667 0 0 0.0666667 361.203 36.0623)" font-style="normal" font-weight="normal" font-size="200px" font-family="Arial" >
O</text>
<path stroke="none" fill="#000000" transform="matrix(0.0666667 0 0 0.0666667 1.5327 -278)" d="M 5157.19,5072.55 L 5142.19,5083.45 L 5142.19,4732.55 L 5157.19,4743.45 L 5157.19,5072.55 Z " />
<path stroke="none" fill="#000000" transform="matrix(0.0666667 0 0 0.0666667 1.5327 -278)" d="M 5373.78,5142.93 L 5369.15,5157.19 L 5142.19,5083.45 L 5157.19,5072.55 L 5373.78,5142.93 Z " />
<path stroke="none" fill="#000000" transform="matrix(0.0666667 0 0 0.0666667 1.5327 -278)" d="M 5587.91,5012.22 L 5600.04,5021.03 L 5541.82,5101.18 L 5529.68,5092.36 L 5587.91,5012.22 Z " />
<path stroke="none" fill="#000000" transform="matrix(0.0666667 0 0 0.0666667 1.5327 -278)" d="M 5537.74,4734.73 L 5549.87,4725.91 L 5608.44,4806.53 L 5596.31,4815.34 L 5537.74,4734.73 Z " />
<path stroke="none" fill="#000000" transform="matrix(0.0666667 0 0 0.0666667 1.5327 -278)" d="M 5157.19,4743.45 L 5142.19,4732.55 L 5364.25,4660.4 L 5368.88,4674.67 L 5157.19,4743.45 Z " />
<text x="0" y="0" stroke="none" fill="#000000" transform="matrix(0.0666667 0 0 0.0666667 374.926 80.3226)" font-style="normal" font-weight="normal" font-size="200px" font-family="Arial" >
CH</text>
<text x="0" y="0" stroke="none" fill="#000000" transform="matrix(0.0666667 0 0 0.0666667 394.184 83.2559)" font-style="normal" font-weight="normal" font-size="150px" font-family="Arial" >
2</text>
<text x="0" y="0" stroke="none" fill="#000000" transform="matrix(0.0666667 0 0 0.0666667 399.745 80.3226)" font-style="normal" font-weight="normal" font-size="200px" font-family="Arial" >
NR</text>
<text x="0" y="0" stroke="none" fill="#000000" transform="matrix(0.0666667 0 0 0.0666667 419.003 83.2559)" font-style="normal" font-weight="normal" font-size="150px" font-family="Arial" >
2</text>
<path stroke="none" fill="#000000" transform="matrix(0.0666667 0 0 0.0666667 1.5327 -278)" d="M 5680.4,5191.67 L 5665.4,5191.67 L 5665.4,5027.83 L 5680.4,5027.83 L 5680.4,5191.67 Z " />
<text x="0" y="0" stroke="none" fill="#000000" transform="matrix(0.0666667 0 0 0.0666667 374.461 15.6667)" font-style="normal" font-weight="normal" font-size="200px" font-family="Arial" >
X</text>
<path stroke="none" fill="#000000" transform="matrix(0.0666667 0 0 0.0666667 1.5327 -278)" d="M 5745.68,4225.5 L 5840.68,4225.5 L 5840.68,4237.5 L 5745.68,4237.5 Z " />
<path stroke="none" fill="#000000" transform="matrix(0.0666667 0 0 0.0666667 1.5327 -278)" d="M 5630.18,4713 L 5725.18,4713 L 5725.18,4725 L 5630.18,4725 Z " />
<path stroke="none" fill="#000000" transform="matrix(0.0666667 0 0 0.0666667 1.5327 -278)" d="M 5683.68,4671.5 L 5683.68,4766.5 L 5671.68,4766.5 L 5671.68,4671.5 Z " />
<path stroke="none" fill="#000000" transform="matrix(0.0666667 0 0 0.0666667 1.5327 -278)" d="M 7401.37,4911 L 7041.18,4911 L 7041.18,4896 L 7401.37,4896 Z " />
<path stroke="none" fill="#000000" transform="matrix(0.0666667 0 0 0.0666667 1.5327 -278)" d="M 7531.62,4903.5 C 7531.62,4903.5 7381.62,4942 7381.62,4942 C 7381.62,4942 7400.37,4920.34 7400.37,4903.5 C 7400.37,4886.22 7381.62,4864 7381.62,4864 C 7381.62,4864 7531.62,4903.5 7531.62,4903.5 C 7531.62,4903.5 7531.62,4903.5 7531.62,4903.5 " />
<path stroke="#000000" stroke-width="1" fill="none" transform="matrix(0.0666667 0 0 0.0666667 1.5327 -278)" d="M 7531.62,4903.5 C 7531.62,4903.5 7381.62,4942 7381.62,4942 C 7381.62,4942 7400.37,4920.34 7400.37,4903.5 C 7400.37,4886.22 7381.62,4864 7381.62,4864 C 7381.62,4864 7531.62,4903.5 7531.62,4903.5 C 7531.62,4903.5 7531.62,4903.5 7531.62,4903.5 " />
<text x="0" y="0" stroke="none" fill="#000000" transform="matrix(0.0666667 0 0 0.0666667 457.64 65.5333)" font-style="normal" font-weight="normal" font-size="200px" font-family="Arial" >
 </text>
<text x="0" y="0" stroke="none" fill="#000000" transform="matrix(0.0666667 0 0 0.0666667 461.374 65.5333)" font-style="normal" font-weight="normal" font-size="200px" font-family="Arial" >
 </text>
<text x="0" y="0" stroke="none" fill="#000000" transform="matrix(0.0666667 0 0 0.0666667 465.107 65.5333)" font-style="normal" font-weight="normal" font-size="200px" font-family="Arial" >
 </text>
<text x="0" y="0" stroke="none" fill="#000000" transform="matrix(0.0666667 0 0 0.0666667 468.84 65.5333)" font-style="normal" font-weight="normal" font-size="200px" font-family="Arial" >
- </text>
<text x="0" y="0" stroke="none" fill="#000000" transform="matrix(0.0666667 0 0 0.0666667 477.04 65.5333)" font-style="normal" font-weight="normal" font-size="200px" font-family="Arial" >
HX</text>
<text x="0" y="0" stroke="none" fill="#000000" transform="matrix(0.0666667 0 0 0.0666667 369.849 112.967)" font-style="normal" font-weight="bold" font-size="200px" font-family="Arial" >
F</text>
<text x="0" y="0" stroke="none" fill="#000000" transform="matrix(0.0666667 0 0 0.0666667 630.866 37.8667)" font-style="normal" font-weight="normal" font-size="200px" font-family="Arial" >
NR</text>
<text x="0" y="0" stroke="none" fill="#000000" transform="matrix(0.0666667 0 0 0.0666667 650.124 40.8)" font-style="normal" font-weight="normal" font-size="150px" font-family="Arial" >
2</text>
<text x="0" y="0" stroke="none" fill="#000000" transform="matrix(0.0666667 0 0 0.0666667 655.685 37.8667)" font-style="normal" font-weight="normal" font-size="200px" font-family="Arial" >
 </text>
<text x="0" y="0" stroke="none" fill="#000000" transform="matrix(0.0666667 0 0 0.0666667 659.419 37.8667)" font-style="normal" font-weight="normal" font-size="200px" font-family="Arial" >
=</text>
<text x="0" y="0" stroke="none" fill="#000000" transform="matrix(0.0666667 0 0 0.0666667 160.594 109.49)" font-style="normal" font-weight="bold" font-size="200px" font-family="Arial" >
 </text>
<text x="0" y="0" stroke="none" fill="#000000" transform="matrix(0.0666667 0 0 0.0666667 164.328 109.49)" font-style="normal" font-weight="bold" font-size="200px" font-family="Arial" >
E</text>
</svg>
