<?xml version="1.0" standalone="no" ?>
<!DOCTYPE svg PUBLIC "-//W3C//DTD SVG 1.1//EN" "http://www.w3.org/Graphics/SVG/1.1/DTD/svg11.dtd">
<svg width="791px" height="98px" viewBox="0 0 791 98" style="background-color: #ffffff00" xmlns="http://www.w3.org/2000/svg" xmlns:xlink="http://www.w3.org/1999/xlink" version="1.1" >
<path stroke="none" fill="#000000" transform="matrix(0.0666667 0 0 0.0666667 -23.4 -325.467)" d="M 4788.25,5559.77 L 2260.5,5559.77 L 2260.5,5544.77 L 4788.25,5544.77 Z " />
<path stroke="none" fill="#000000" transform="matrix(0.0666667 0 0 0.0666667 -23.4 -325.467)" d="M 4918.5,5552.27 C 4918.5,5552.27 4768.5,5590.77 4768.5,5590.77 C 4768.5,5590.77 4787.25,5569.12 4787.25,5552.27 C 4787.25,5534.99 4768.5,5512.77 4768.5,5512.77 C 4768.5,5512.77 4918.5,5552.27 4918.5,5552.27 C 4918.5,5552.27 4918.5,5552.27 4918.5,5552.27 " />
<path stroke="#000000" stroke-width="1" fill="none" transform="matrix(0.0666667 0 0 0.0666667 -23.4 -325.467)" d="M 4918.5,5552.27 C 4918.5,5552.27 4768.5,5590.77 4768.5,5590.77 C 4768.5,5590.77 4787.25,5569.12 4787.25,5552.27 C 4787.25,5534.99 4768.5,5512.77 4768.5,5512.77 C 4768.5,5512.77 4918.5,5552.27 4918.5,5552.27 C 4918.5,5552.27 4918.5,5552.27 4918.5,5552.27 " />
<text x="0" y="0" stroke="none" fill="#000000" transform="matrix(0.0666667 0 0 0.0666667 132.192 37.3181)" font-style="normal" font-weight="normal" font-size="200px" font-family="Arial" >
Cl</text>
<text x="0" y="0" stroke="none" fill="#000000" transform="matrix(0.0666667 0 0 0.0666667 144.783 37.3181)" font-style="normal" font-weight="normal" font-size="200px" font-family="Arial" >
CH</text>
<text x="0" y="0" stroke="none" fill="#000000" transform="matrix(0.0666667 0 0 0.0666667 164.041 40.2514)" font-style="normal" font-weight="normal" font-size="150px" font-family="Arial" >
2</text>
<text x="0" y="0" stroke="none" fill="#000000" transform="matrix(0.0666667 0 0 0.0666667 169.602 37.3181)" font-style="normal" font-weight="normal" font-size="200px" font-family="Arial" >
N(CH</text>
<text x="0" y="0" stroke="none" fill="#000000" transform="matrix(0.0666667 0 0 0.0666667 202.955 40.2514)" font-style="normal" font-weight="normal" font-size="150px" font-family="Arial" >
2</text>
<text x="0" y="0" stroke="none" fill="#000000" transform="matrix(0.0666667 0 0 0.0666667 208.517 37.3181)" font-style="normal" font-weight="normal" font-size="200px" font-family="Arial" >
)</text>
<text x="0" y="0" stroke="none" fill="#000000" transform="matrix(0.0666667 0 0 0.0666667 212.984 40.2514)" font-style="normal" font-weight="normal" font-size="150px" font-family="Arial" >
n</text>
<text x="0" y="0" stroke="none" fill="#000000" transform="matrix(0.0666667 0 0 0.0666667 218.545 37.3181)" font-style="normal" font-weight="normal" font-size="200px" font-family="Arial" >
COOR, </text>
<text x="0" y="0" stroke="none" fill="#000000" transform="matrix(0.0666667 0 0 0.0666667 266.07 37.3181)" font-style="normal" font-weight="normal" font-size="200px" font-family="Arial" >
Et</text>
<text x="0" y="0" stroke="none" fill="#000000" transform="matrix(0.0666667 0 0 0.0666667 278.696 40.2514)" font-style="normal" font-weight="normal" font-size="150px" font-family="Arial" >
3</text>
<text x="0" y="0" stroke="none" fill="#000000" transform="matrix(0.0666667 0 0 0.0666667 284.258 37.3181)" font-style="normal" font-weight="normal" font-size="200px" font-family="Arial" >
N</text>
<text x="0" y="0" stroke="none" fill="#000000" transform="matrix(0.0666667 0 0 0.0666667 169.483 14.1475)" font-style="normal" font-weight="normal" font-size="200px" font-family="Arial" >
COOEt</text>
<path stroke="none" fill="#000000" transform="matrix(0.0666667 0 0 0.0666667 -23.4 -325.467)" d="M 2958.44,5136.09 L 2973.44,5136 L 2974.16,5260.73 L 2959.16,5260.82 L 2958.44,5136.09 Z " />
<path stroke="none" fill="#000000" transform="matrix(0.0666667 0 0 0.0666667 -23.4 -325.467)" d="M 3377.83,5730.77 A 16.6667,16.6667 0 1 0 3411.17,5730.77A 16.6667,16.6667 0 1 0 3377.83,5730.77Z " />
<text x="0" y="0" stroke="none" fill="#000000" transform="matrix(0.0666667 0 0 0.0666667 44.9667 49.9181)" font-style="normal" font-weight="normal" font-size="200px" font-family="Arial" >
(Me</text>
<text x="0" y="0" stroke="none" fill="#000000" transform="matrix(0.0666667 0 0 0.0666667 67.982 52.8515)" font-style="normal" font-weight="normal" font-size="150px" font-family="Arial" >
3</text>
<text x="0" y="0" stroke="none" fill="#000000" transform="matrix(0.0666667 0 0 0.0666667 73.5436 49.9181)" font-style="normal" font-weight="normal" font-size="200px" font-family="Arial" >
SiO)</text>
<text x="0" y="0" stroke="none" fill="#000000" transform="matrix(0.0666667 0 0 0.0666667 100.266 52.8515)" font-style="normal" font-weight="normal" font-size="150px" font-family="Arial" >
2</text>
<text x="0" y="0" stroke="none" fill="#000000" transform="matrix(0.0666667 0 0 0.0666667 105.827 49.9181)" font-style="normal" font-weight="normal" font-size="200px" font-family="Arial" >
PH</text>
<text x="0" y="0" stroke="none" fill="#000000" transform="matrix(0.0666667 0 0 0.0666667 310 50.1848)" font-style="normal" font-weight="normal" font-size="200px" font-family="Arial" >
(</text>
<text x="0" y="0" stroke="none" fill="#000000" transform="matrix(0.0666667 0 0 0.0666667 314.467 50.1848)" font-style="normal" font-weight="normal" font-size="200px" font-family="Arial" >
Me</text>
<text x="0" y="0" stroke="none" fill="#000000" transform="matrix(0.0666667 0 0 0.0666667 333.015 53.1181)" font-style="normal" font-weight="normal" font-size="150px" font-family="Arial" >
3</text>
<text x="0" y="0" stroke="none" fill="#000000" transform="matrix(0.0666667 0 0 0.0666667 338.577 50.1848)" font-style="normal" font-weight="normal" font-size="200px" font-family="Arial" >
SiO)</text>
<text x="0" y="0" stroke="none" fill="#000000" transform="matrix(0.0666667 0 0 0.0666667 365.299 53.1181)" font-style="normal" font-weight="normal" font-size="150px" font-family="Arial" >
2</text>
<text x="0" y="0" stroke="none" fill="#000000" transform="matrix(0.0666667 0 0 0.0666667 370.861 50.1848)" font-style="normal" font-weight="normal" font-size="200px" font-family="Arial" >
PCH</text>
<text x="0" y="0" stroke="none" fill="#000000" transform="matrix(0.0666667 0 0 0.0666667 399.012 53.1181)" font-style="normal" font-weight="normal" font-size="150px" font-family="Arial" >
2</text>
<text x="0" y="0" stroke="none" fill="#000000" transform="matrix(0.0666667 0 0 0.0666667 404.573 50.1848)" font-style="normal" font-weight="normal" font-size="200px" font-family="Arial" >
N(CH</text>
<text x="0" y="0" stroke="none" fill="#000000" transform="matrix(0.0666667 0 0 0.0666667 437.926 53.1181)" font-style="normal" font-weight="normal" font-size="150px" font-family="Arial" >
2</text>
<text x="0" y="0" stroke="none" fill="#000000" transform="matrix(0.0666667 0 0 0.0666667 443.488 50.1848)" font-style="normal" font-weight="normal" font-size="200px" font-family="Arial" >
)</text>
<text x="0" y="0" stroke="none" fill="#000000" transform="matrix(0.0666667 0 0 0.0666667 447.955 53.1181)" font-style="normal" font-weight="normal" font-size="150px" font-family="Arial" >
n</text>
<text x="0" y="0" stroke="none" fill="#000000" transform="matrix(0.0666667 0 0 0.0666667 453.516 50.1848)" font-style="normal" font-weight="normal" font-size="200px" font-family="Arial" >
COOR</text>
<text x="0" y="0" stroke="none" fill="#000000" transform="matrix(0.0666667 0 0 0.0666667 405.3 73.5848)" font-style="normal" font-weight="normal" font-size="200px" font-family="Arial" >
COOEt</text>
<path stroke="none" fill="#000000" transform="matrix(0.0666667 0 0 0.0666667 -23.4 -325.467)" d="M 6510,5802.61 L 6495,5802.61 L 6495,5655.77 L 6510,5655.77 L 6510,5802.61 Z " />
<text x="0" y="0" stroke="none" fill="#000000" transform="matrix(0.0666667 0 0 0.0666667 375.9 91.2848)" font-style="normal" font-weight="bold" font-size="200px" font-family="Arial" >
1a-e</text>
<text x="0" y="0" stroke="none" fill="#000000" transform="matrix(0.0666667 0 0 0.0666667 402.613 91.2848)" font-style="normal" font-weight="normal" font-size="200px" font-family="Arial" >
 </text>
<text x="0" y="0" stroke="none" fill="#000000" transform="matrix(0.0666667 0 0 0.0666667 406.346 91.2848)" font-style="normal" font-weight="normal" font-size="200px" font-family="Arial" >
(73-78%)</text>
<text x="0" y="0" stroke="none" fill="#000000" transform="matrix(0.0666667 0 0 0.0666667 653.992 90.9505)" font-style="normal" font-weight="bold" font-size="200px" font-family="Arial" >
2a-e</text>
<text x="0" y="0" stroke="none" fill="#000000" transform="matrix(0.0666667 0 0 0.0666667 680.704 90.9505)" font-style="normal" font-weight="normal" font-size="200px" font-family="Arial" >
 </text>
<text x="0" y="0" stroke="none" fill="#000000" transform="matrix(0.0666667 0 0 0.0666667 684.438 90.9505)" font-style="normal" font-weight="normal" font-size="200px" font-family="Arial" >
(95-97%)</text>
<path stroke="none" fill="#000000" transform="matrix(0.0666667 0 0 0.0666667 -23.4 -325.467)" d="M 9393.25,5563.76 L 7880.19,5563.76 L 7880.19,5548.76 L 9393.25,5548.76 Z " />
<path stroke="none" fill="#000000" transform="matrix(0.0666667 0 0 0.0666667 -23.4 -325.467)" d="M 9523.5,5556.26 C 9523.5,5556.26 9373.5,5594.76 9373.5,5594.76 C 9373.5,5594.76 9392.25,5573.1 9392.25,5556.26 C 9392.25,5538.98 9373.5,5516.76 9373.5,5516.76 C 9373.5,5516.76 9523.5,5556.26 9523.5,5556.26 C 9523.5,5556.26 9523.5,5556.26 9523.5,5556.26 " />
<path stroke="#000000" stroke-width="1" fill="none" transform="matrix(0.0666667 0 0 0.0666667 -23.4 -325.467)" d="M 9523.5,5556.26 C 9523.5,5556.26 9373.5,5594.76 9373.5,5594.76 C 9373.5,5594.76 9392.25,5573.1 9392.25,5556.26 C 9392.25,5538.98 9373.5,5516.76 9373.5,5516.76 C 9373.5,5516.76 9523.5,5556.26 9523.5,5556.26 C 9523.5,5556.26 9523.5,5556.26 9523.5,5556.26 " />
<text x="0" y="0" stroke="none" fill="#000000" transform="matrix(0.0666667 0 0 0.0666667 502.946 39.5505)" font-style="normal" font-weight="normal" font-size="200px" font-family="Arial" >
 </text>
<text x="0" y="0" stroke="none" fill="#000000" transform="matrix(0.0666667 0 0 0.0666667 506.679 39.5505)" font-style="normal" font-weight="normal" font-size="200px" font-family="Arial" >
MeONa, </text>
<text x="0" y="0" stroke="none" fill="#000000" transform="matrix(0.0666667 0 0 0.0666667 560.139 39.5505)" font-style="normal" font-weight="normal" font-size="200px" font-family="Arial" >
MeOH</text>
<text x="0" y="0" stroke="none" fill="#000000" transform="matrix(0.0666667 0 0 0.0666667 510.2 59.7171)" font-style="normal" font-weight="normal" font-size="200px" font-family="Arial" >
- </text>
<text x="0" y="0" stroke="none" fill="#000000" transform="matrix(0.0666667 0 0 0.0666667 518.4 59.7171)" font-style="normal" font-weight="normal" font-size="200px" font-family="Arial" >
2 </text>
<text x="0" y="0" stroke="none" fill="#000000" transform="matrix(0.0666667 0 0 0.0666667 529.549 59.7171)" font-style="normal" font-weight="normal" font-size="200px" font-family="Arial" >
Me</text>
<text x="0" y="0" stroke="none" fill="#000000" transform="matrix(0.0666667 0 0 0.0666667 548.097 62.6505)" font-style="normal" font-weight="normal" font-size="150px" font-family="Arial" >
3</text>
<text x="0" y="0" stroke="none" fill="#000000" transform="matrix(0.0666667 0 0 0.0666667 553.659 59.7171)" font-style="normal" font-weight="normal" font-size="200px" font-family="Arial" >
SiOMe</text>
<text x="0" y="0" stroke="none" fill="#000000" transform="matrix(0.0666667 0 0 0.0666667 661.839 71.359)" font-style="normal" font-weight="normal" font-size="200px" font-family="Arial" >
O</text>
<text x="0" y="0" stroke="none" fill="#000000" transform="matrix(0.0666667 0 0 0.0666667 662.606 46.8553)" font-style="normal" font-weight="normal" font-size="200px" font-family="Arial" >
P</text>
<path stroke="none" fill="#000000" transform="matrix(0.0666667 0 0 0.0666667 -23.4 -325.467)" d="M 10316,5624 L 10331,5624 L 10331,5769.22 L 10316,5769.22 L 10316,5624 Z " />
<path stroke="none" fill="#000000" transform="matrix(0.0666667 0 0 0.0666667 -23.4 -325.467)" d="M 10382.2,5624 L 10397.2,5624 L 10397.2,5769.22 L 10382.2,5769.22 L 10382.2,5624 Z " />
<text x="0" y="0" stroke="none" fill="#000000" transform="matrix(0.0666667 0 0 0.0666667 639.238 60.1355)" font-style="normal" font-weight="normal" font-size="200px" font-family="Arial" >
H</text>
<path stroke="none" fill="#000000" transform="matrix(0.0666667 0 0 0.0666667 -23.4 -325.467)" d="M 10119.2,5652.57 L 10111.7,5639.58 L 10246.9,5561.49 L 10254.4,5574.48 L 10119.2,5652.57 Z " />
<text x="0" y="0" stroke="none" fill="#000000" transform="matrix(0.0666667 0 0 0.0666667 674.192 46.8553)" font-style="normal" font-weight="normal" font-size="200px" font-family="Arial" >
CH</text>
<text x="0" y="0" stroke="none" fill="#000000" transform="matrix(0.0666667 0 0 0.0666667 693.449 49.7887)" font-style="normal" font-weight="normal" font-size="150px" font-family="Arial" >
2</text>
<text x="0" y="0" stroke="none" fill="#000000" transform="matrix(0.0666667 0 0 0.0666667 699.011 46.8553)" font-style="normal" font-weight="normal" font-size="200px" font-family="Arial" >
N(CH</text>
<text x="0" y="0" stroke="none" fill="#000000" transform="matrix(0.0666667 0 0 0.0666667 732.364 49.7887)" font-style="normal" font-weight="normal" font-size="150px" font-family="Arial" >
2</text>
<text x="0" y="0" stroke="none" fill="#000000" transform="matrix(0.0666667 0 0 0.0666667 737.926 46.8553)" font-style="normal" font-weight="normal" font-size="200px" font-family="Arial" >
)</text>
<text x="0" y="0" stroke="none" fill="#000000" transform="matrix(0.0666667 0 0 0.0666667 742.393 49.7887)" font-style="normal" font-weight="normal" font-size="150px" font-family="Arial" >
n</text>
<text x="0" y="0" stroke="none" fill="#000000" transform="matrix(0.0666667 0 0 0.0666667 747.954 46.8553)" font-style="normal" font-weight="normal" font-size="200px" font-family="Arial" >
COOR</text>
<text x="0" y="0" stroke="none" fill="#000000" transform="matrix(0.0666667 0 0 0.0666667 621.512 33.4125)" font-style="normal" font-weight="normal" font-size="200px" font-family="Arial" >
NaO</text>
<path stroke="none" fill="#000000" transform="matrix(0.0666667 0 0 0.0666667 -23.4 -325.467)" d="M 10103.6,5369.4 L 10111.1,5356.41 L 10260.6,5442.76 L 10253.1,5455.75 L 10103.6,5369.4 Z " />
<text x="0" y="0" stroke="none" fill="#000000" transform="matrix(0.0666667 0 0 0.0666667 698.95 72.0544)" font-style="normal" font-weight="normal" font-size="200px" font-family="Arial" >
COOEt</text>
<path stroke="none" fill="#000000" transform="matrix(0.0666667 0 0 0.0666667 -23.4 -325.467)" d="M 10915.1,5779.67 L 10900.1,5779.63 L 10900.4,5668.64 L 10915.4,5668.68 L 10915.1,5779.67 Z " />
<text x="0" y="0" stroke="none" fill="#000000" transform="matrix(0.0666667 0 0 0.0666667 3.06248 86.6191)" font-style="normal" font-weight="normal" font-size="200px" font-family="Arial" >
n </text>
<text x="0" y="0" stroke="none" fill="#000000" transform="matrix(0.0666667 0 0 0.0666667 14.2112 86.6191)" font-style="normal" font-weight="normal" font-size="200px" font-family="Arial" >
= </text>
<text x="0" y="0" stroke="none" fill="#000000" transform="matrix(0.0666667 0 0 0.0666667 25.7445 86.6191)" font-style="normal" font-weight="normal" font-size="200px" font-family="Arial" >
1 </text>
<text x="0" y="0" stroke="none" fill="#000000" transform="matrix(0.0666667 0 0 0.0666667 36.8932 86.6191)" font-style="normal" font-weight="normal" font-size="200px" font-family="Arial" >
(</text>
<text x="0" y="0" stroke="none" fill="#000000" transform="matrix(0.0666667 0 0 0.0666667 41.3599 86.6191)" font-style="normal" font-weight="bold" font-size="200px" font-family="Arial" >
a,b</text>
<text x="0" y="0" stroke="none" fill="#000000" transform="matrix(0.0666667 0 0 0.0666667 60.6531 86.6191)" font-style="normal" font-weight="normal" font-size="200px" font-family="Arial" >
), </text>
<text x="0" y="0" stroke="none" fill="#000000" transform="matrix(0.0666667 0 0 0.0666667 72.5864 86.6191)" font-style="normal" font-weight="normal" font-size="200px" font-family="Arial" >
n </text>
<text x="0" y="0" stroke="none" fill="#000000" transform="matrix(0.0666667 0 0 0.0666667 83.7351 86.6191)" font-style="normal" font-weight="normal" font-size="200px" font-family="Arial" >
= </text>
<text x="0" y="0" stroke="none" fill="#000000" transform="matrix(0.0666667 0 0 0.0666667 95.2685 86.6191)" font-style="normal" font-weight="normal" font-size="200px" font-family="Arial" >
2 </text>
<text x="0" y="0" stroke="none" fill="#000000" transform="matrix(0.0666667 0 0 0.0666667 106.417 86.6191)" font-style="normal" font-weight="bold" font-size="200px" font-family="Arial" >
(c,d</text>
<text x="0" y="0" stroke="none" fill="#000000" transform="matrix(0.0666667 0 0 0.0666667 130.177 86.6191)" font-style="normal" font-weight="normal" font-size="200px" font-family="Arial" >
), </text>
<text x="0" y="0" stroke="none" fill="#000000" transform="matrix(0.0666667 0 0 0.0666667 142.11 86.6191)" font-style="normal" font-weight="normal" font-size="200px" font-family="Arial" >
3 </text>
<text x="0" y="0" stroke="none" fill="#000000" transform="matrix(0.0666667 0 0 0.0666667 153.259 86.6191)" font-style="normal" font-weight="normal" font-size="200px" font-family="Arial" >
(</text>
<text x="0" y="0" stroke="none" fill="#000000" transform="matrix(0.0666667 0 0 0.0666667 157.726 86.6191)" font-style="normal" font-weight="bold" font-size="200px" font-family="Arial" >
e</text>
<text x="0" y="0" stroke="none" fill="#000000" transform="matrix(0.0666667 0 0 0.0666667 165.141 86.6191)" font-style="normal" font-weight="normal" font-size="200px" font-family="Arial" >
); </text>
<text x="0" y="0" stroke="none" fill="#000000" transform="matrix(0.0666667 0 0 0.0666667 177.074 86.6191)" font-style="normal" font-weight="normal" font-size="200px" font-family="Arial" >
R= </text>
<text x="0" y="0" stroke="none" fill="#000000" transform="matrix(0.0666667 0 0 0.0666667 198.237 86.6191)" font-style="normal" font-weight="normal" font-size="200px" font-family="Arial" >
Me </text>
<text x="0" y="0" stroke="none" fill="#000000" transform="matrix(0.0666667 0 0 0.0666667 220.519 86.6191)" font-style="normal" font-weight="normal" font-size="200px" font-family="Arial" >
(</text>
<text x="0" y="0" stroke="none" fill="#000000" transform="matrix(0.0666667 0 0 0.0666667 224.985 86.6191)" font-style="normal" font-weight="bold" font-size="200px" font-family="Arial" >
a,c,e</text>
<text x="0" y="0" stroke="none" fill="#000000" transform="matrix(0.0666667 0 0 0.0666667 254.698 86.6191)" font-style="normal" font-weight="normal" font-size="200px" font-family="Arial" >
), </text>
<text x="0" y="0" stroke="none" fill="#000000" transform="matrix(0.0666667 0 0 0.0666667 266.631 86.6191)" font-style="normal" font-weight="normal" font-size="200px" font-family="Arial" >
Et </text>
<text x="0" y="0" stroke="none" fill="#000000" transform="matrix(0.0666667 0 0 0.0666667 282.991 86.6191)" font-style="normal" font-weight="normal" font-size="200px" font-family="Arial" >
(</text>
<text x="0" y="0" stroke="none" fill="#000000" transform="matrix(0.0666667 0 0 0.0666667 287.458 86.6191)" font-style="normal" font-weight="bold" font-size="200px" font-family="Arial" >
b,d</text>
<text x="0" y="0" stroke="none" fill="#000000" transform="matrix(0.0666667 0 0 0.0666667 307.48 86.6191)" font-style="normal" font-weight="normal" font-size="200px" font-family="Arial" >
)</text>
<text x="0" y="0" stroke="none" fill="#000000" transform="matrix(0.0666667 0 0 0.0666667 161.6 61.4848)" font-style="normal" font-weight="normal" font-size="200px" font-family="Arial" >
- </text>
<text x="0" y="0" stroke="none" fill="#000000" transform="matrix(0.0666667 0 0 0.0666667 169.8 61.4848)" font-style="normal" font-weight="normal" font-size="200px" font-family="Arial" >
Et</text>
<text x="0" y="0" stroke="none" fill="#000000" transform="matrix(0.0666667 0 0 0.0666667 182.427 64.4181)" font-style="normal" font-weight="normal" font-size="150px" font-family="Arial" >
3</text>
<text x="0" y="0" stroke="none" fill="#000000" transform="matrix(0.0666667 0 0 0.0666667 187.988 61.4848)" font-style="normal" font-weight="normal" font-size="200px" font-family="Arial" >
N </text>
<text x="0" y="0" stroke="none" fill="#000000" transform="matrix(0.0666667 0 0 0.0666667 201.35 61.4848)" font-style="normal" font-weight="normal" font-size="200px" font-family="Arial" >
 </text>
<text x="0" y="0" stroke="none" fill="#000000" transform="matrix(0.0666667 0 0 0.0666667 205.084 61.4848)" font-style="normal" font-weight="normal" font-size="200px" font-family="Arial" >
 </text>
<text x="0" y="0" stroke="none" fill="#000000" transform="matrix(0.0666667 0 0 0.0666667 208.817 61.4848)" font-style="normal" font-weight="normal" font-size="200px" font-family="Arial" >
HCl</text>
</svg>
