<?xml version="1.0" standalone="no" ?>
<!DOCTYPE svg PUBLIC "-//W3C//DTD SVG 1.1//EN" "http://www.w3.org/Graphics/SVG/1.1/DTD/svg11.dtd">
<svg width="1268px" height="490px" viewBox="0 0 1268 490" style="background-color: #ffffff00" xmlns="http://www.w3.org/2000/svg" xmlns:xlink="http://www.w3.org/1999/xlink" version="1.1" >
<text x="0" y="0" stroke="none" fill="#808080" transform="matrix(0.0666667 0 0 0.0666667 856.248 351.427)" font-style="normal" font-weight="bold" font-size="480px" font-family="Arial" >
6a</text>
<text x="0" y="0" stroke="none" fill="#000000" transform="matrix(0.0666667 0 0 0.0666667 891.848 351.427)" font-style="normal" font-weight="normal" font-size="480px" font-family="Arial" >
: </text>
<text x="0" y="0" stroke="none" fill="#0000ff" transform="matrix(0.0666667 0 0 0.0666667 909.629 351.427)" font-style="normal" font-weight="normal" font-size="480px" font-family="Arial" >
R</text>
<text x="0" y="0" stroke="none" fill="#0000ff" transform="matrix(0.0666667 0 0 0.0666667 932.762 338.827)" font-style="normal" font-weight="normal" font-size="360px" font-family="Arial" >
1</text>
<text x="0" y="0" stroke="none" fill="#0000ff" transform="matrix(0.0666667 0 0 0.0666667 946.11 351.427)" font-style="normal" font-weight="normal" font-size="480px" font-family="Arial" >
, </text>
<text x="0" y="0" stroke="none" fill="#0000ff" transform="matrix(0.0666667 0 0 0.0666667 963.891 351.427)" font-style="normal" font-weight="normal" font-size="480px" font-family="Arial" >
R</text>
<text x="0" y="0" stroke="none" fill="#0000ff" transform="matrix(0.0666667 0 0 0.0666667 987.025 338.827)" font-style="normal" font-weight="normal" font-size="360px" font-family="Arial" >
2</text>
<text x="0" y="0" stroke="none" fill="#0000ff" transform="matrix(0.0666667 0 0 0.0666667 1000.37 351.427)" font-style="normal" font-weight="normal" font-size="480px" font-family="Arial" >
 </text>
<text x="0" y="0" stroke="none" fill="#000000" transform="matrix(0.0666667 0 0 0.0666667 1009.26 351.427)" font-style="normal" font-weight="normal" font-size="480px" font-family="Arial" >
=</text>
<text x="0" y="0" stroke="none" fill="#0000ff" transform="matrix(0.0666667 0 0 0.0666667 1027.95 351.427)" font-style="normal" font-weight="normal" font-size="480px" font-family="Arial" >
 </text>
<text x="0" y="0" stroke="none" fill="#0000ff" transform="matrix(0.0666667 0 0 0.0666667 1036.84 351.427)" font-style="normal" font-weight="normal" font-size="480px" font-family="Arial" >
Ph</text>
<text x="0" y="0" stroke="none" fill="#808080" transform="matrix(0.0666667 0 0 0.0666667 856.248 396.727)" font-style="normal" font-weight="bold" font-size="480px" font-family="Arial" >
6b</text>
<text x="0" y="0" stroke="none" fill="#000000" transform="matrix(0.0666667 0 0 0.0666667 893.595 396.727)" font-style="normal" font-weight="normal" font-size="480px" font-family="Arial" >
: </text>
<text x="0" y="0" stroke="none" fill="#0000ff" transform="matrix(0.0666667 0 0 0.0666667 911.376 396.727)" font-style="normal" font-weight="normal" font-size="480px" font-family="Arial" >
R</text>
<text x="0" y="0" stroke="none" fill="#0000ff" transform="matrix(0.0666667 0 0 0.0666667 934.509 384.127)" font-style="normal" font-weight="normal" font-size="360px" font-family="Arial" >
1</text>
<text x="0" y="0" stroke="none" fill="#0000ff" transform="matrix(0.0666667 0 0 0.0666667 947.857 396.727)" font-style="normal" font-weight="normal" font-size="480px" font-family="Arial" >
, </text>
<text x="0" y="0" stroke="none" fill="#0000ff" transform="matrix(0.0666667 0 0 0.0666667 965.638 396.727)" font-style="normal" font-weight="normal" font-size="480px" font-family="Arial" >
R</text>
<text x="0" y="0" stroke="none" fill="#0000ff" transform="matrix(0.0666667 0 0 0.0666667 988.772 384.127)" font-style="normal" font-weight="normal" font-size="360px" font-family="Arial" >
2</text>
<text x="0" y="0" stroke="none" fill="#0000ff" transform="matrix(0.0666667 0 0 0.0666667 1002.12 396.727)" font-style="normal" font-weight="normal" font-size="480px" font-family="Arial" >
 </text>
<text x="0" y="0" stroke="none" fill="#000000" transform="matrix(0.0666667 0 0 0.0666667 1011.01 396.727)" font-style="normal" font-weight="normal" font-size="480px" font-family="Arial" >
=</text>
<text x="0" y="0" stroke="none" fill="#0000ff" transform="matrix(0.0666667 0 0 0.0666667 1029.7 396.727)" font-style="normal" font-weight="normal" font-size="480px" font-family="Arial" >
 </text>
<text x="0" y="0" stroke="none" fill="#0000ff" transform="matrix(0.0666667 0 0 0.0666667 1038.59 396.727)" font-style="normal" font-weight="normal" font-size="480px" font-family="Arial" >
Et</text>
<text x="0" y="0" stroke="none" fill="#808080" transform="matrix(0.0666667 0 0 0.0666667 856.248 436.427)" font-style="normal" font-weight="bold" font-size="480px" font-family="Arial" >
6c</text>
<text x="0" y="0" stroke="none" fill="#000000" transform="matrix(0.0666667 0 0 0.0666667 891.848 436.427)" font-style="normal" font-weight="normal" font-size="480px" font-family="Arial" >
: </text>
<text x="0" y="0" stroke="none" fill="#0000ff" transform="matrix(0.0666667 0 0 0.0666667 909.629 436.427)" font-style="normal" font-weight="normal" font-size="480px" font-family="Arial" >
R</text>
<text x="0" y="0" stroke="none" fill="#0000ff" transform="matrix(0.0666667 0 0 0.0666667 932.762 423.827)" font-style="normal" font-weight="normal" font-size="360px" font-family="Arial" >
1</text>
<text x="0" y="0" stroke="none" fill="#000000" transform="matrix(0.0666667 0 0 0.0666667 946.11 436.427)" font-style="normal" font-weight="normal" font-size="480px" font-family="Arial" >
 </text>
<text x="0" y="0" stroke="none" fill="#000000" transform="matrix(0.0666667 0 0 0.0666667 955.001 436.427)" font-style="normal" font-weight="normal" font-size="480px" font-family="Arial" >
= </text>
<text x="0" y="0" stroke="none" fill="#0000ff" transform="matrix(0.0666667 0 0 0.0666667 982.579 423.827)" font-style="normal" font-weight="normal" font-size="360px" font-family="Arial" >
t</text>
<text x="0" y="0" stroke="none" fill="#0000ff" transform="matrix(0.0666667 0 0 0.0666667 989.247 436.427)" font-style="normal" font-weight="normal" font-size="480px" font-family="Arial" >
Bu</text>
<text x="0" y="0" stroke="none" fill="#000000" transform="matrix(0.0666667 0 0 0.0666667 1028.39 436.427)" font-style="normal" font-weight="normal" font-size="480px" font-family="Arial" >
, </text>
<text x="0" y="0" stroke="none" fill="#0000ff" transform="matrix(0.0666667 0 0 0.0666667 1046.17 436.427)" font-style="normal" font-weight="normal" font-size="480px" font-family="Arial" >
R</text>
<text x="0" y="0" stroke="none" fill="#0000ff" transform="matrix(0.0666667 0 0 0.0666667 1069.31 423.827)" font-style="normal" font-weight="normal" font-size="360px" font-family="Arial" >
2</text>
<text x="0" y="0" stroke="none" fill="#000000" transform="matrix(0.0666667 0 0 0.0666667 1082.65 436.427)" font-style="normal" font-weight="normal" font-size="480px" font-family="Arial" >
 </text>
<text x="0" y="0" stroke="none" fill="#000000" transform="matrix(0.0666667 0 0 0.0666667 1091.54 436.427)" font-style="normal" font-weight="normal" font-size="480px" font-family="Arial" >
= </text>
<text x="0" y="0" stroke="none" fill="#0000ff" transform="matrix(0.0666667 0 0 0.0666667 1119.12 436.427)" font-style="normal" font-weight="normal" font-size="480px" font-family="Arial" >
Tol</text>
<text x="0" y="0" stroke="none" fill="#000000" transform="matrix(0.0666667 0 0 0.0666667 980.248 300.427)" font-style="normal" font-weight="normal" font-size="480px" font-family="Arial" >
Overall </text>
<text x="0" y="0" stroke="none" fill="#000000" transform="matrix(0.0666667 0 0 0.0666667 1090.56 300.427)" font-style="normal" font-weight="normal" font-size="480px" font-family="Arial" >
yield </text>
<text x="0" y="0" stroke="none" fill="#000000" transform="matrix(0.0666667 0 0 0.0666667 1165.32 300.427)" font-style="normal" font-weight="normal" font-size="480px" font-family="Arial" >
of </text>
<text x="0" y="0" stroke="none" fill="#808080" transform="matrix(0.0666667 0 0 0.0666667 1200.9 300.427)" font-style="normal" font-weight="bold" font-size="480px" font-family="Arial" >
6</text>
<text x="0" y="0" stroke="none" fill="#000000" transform="matrix(0.0666667 0 0 0.0666667 1218.7 300.427)" font-style="normal" font-weight="normal" font-size="480px" font-family="Arial" >
, </text>
<text x="0" y="0" stroke="none" fill="#000000" transform="matrix(0.0666667 0 0 0.0666667 1236.48 300.427)" font-style="normal" font-weight="normal" font-size="480px" font-family="Arial" >
%</text>
<path stroke="none" fill="#000000" transform="matrix(0.0666667 0 0 0.0666667 -88.934 -387.867)" d="M 20290.1,10484.1 L 20290.1,10503.9 L 14197.6,10493.3 L 14197.7,10473.5 L 20290.1,10484.1 Z " />
<text x="0" y="0" stroke="none" fill="#000000" transform="matrix(0.0666667 0 0 0.0666667 1226.25 349.427)" font-style="normal" font-weight="normal" font-size="480px" font-family="Arial" >
85</text>
<text x="0" y="0" stroke="none" fill="#000000" transform="matrix(0.0666667 0 0 0.0666667 1227.25 396.427)" font-style="normal" font-weight="normal" font-size="480px" font-family="Arial" >
82</text>
<text x="0" y="0" stroke="none" fill="#000000" transform="matrix(0.0666667 0 0 0.0666667 1226.65 439.994)" font-style="normal" font-weight="normal" font-size="480px" font-family="Arial" >
79</text>
<path stroke="none" fill="#000000" transform="matrix(0.0666667 0 0 0.0666667 -88.934 -387.867)" d="M 3288.27,7133.04 L 3316.74,7149.2 L 3321.03,7732.63 L 3306.92,7740.92 L 3292.69,7732.84 L 3288.27,7133.04 Z " />
<path stroke="none" fill="#000000" transform="matrix(0.0666667 0 0 0.0666667 -88.934 -387.867)" d="M 3360.61,7182.25 L 3388.96,7182.04 L 3392.76,7698.73 L 3364.42,7698.94 L 3360.61,7182.25 Z " />
<path stroke="none" fill="#000000" transform="matrix(0.0666667 0 0 0.0666667 -88.934 -387.867)" d="M 3819.62,6821.04 L 3819.86,6853.77 L 3316.74,7149.2 L 3288.27,7133.04 L 3819.62,6821.04 Z " />
<path stroke="none" fill="#000000" transform="matrix(0.0666667 0 0 0.0666667 -88.934 -387.867)" d="M 4341.26,7117.11 L 4341.38,7133.48 L 4327.27,7141.76 L 3819.86,6853.77 L 3819.62,6821.04 L 4341.26,7117.11 Z " />
<path stroke="none" fill="#000000" transform="matrix(0.0666667 0 0 0.0666667 -88.934 -387.867)" d="M 4276.71,7163.24 L 4262.71,7187.89 L 3813.35,6932.84 L 3827.34,6908.19 L 4276.71,7163.24 Z " />
<path stroke="none" fill="#000000" transform="matrix(0.0666667 0 0 0.0666667 -88.934 -387.867)" d="M 4359.91,7724.98 L 4345.79,7733.27 L 4331.56,7725.19 L 4327.27,7141.76 L 4341.38,7133.48 L 4355.61,7141.56 L 4359.91,7724.98 Z " />
<path stroke="none" fill="#000000" transform="matrix(0.0666667 0 0 0.0666667 -88.934 -387.867)" d="M 3828.68,8053.36 L 3828.44,8020.63 L 4331.56,7725.19 L 4345.79,7733.27 L 4345.91,7749.64 L 3828.68,8053.36 Z " />
<path stroke="none" fill="#000000" transform="matrix(0.0666667 0 0 0.0666667 -88.934 -387.867)" d="M 3835.13,7966.1 L 3820.78,7941.66 L 4266.34,7680.02 L 4280.69,7704.47 L 3835.13,7966.1 Z " />
<path stroke="none" fill="#000000" transform="matrix(0.0666667 0 0 0.0666667 -88.934 -387.867)" d="M 3307.04,7757.28 L 3306.92,7740.92 L 3321.03,7732.63 L 3828.44,8020.63 L 3828.68,8053.36 L 3307.04,7757.28 Z " />
<text x="0" y="0" stroke="none" fill="#000000" transform="matrix(0.0666667 0 0 0.0666667 257.316 99.7888)" font-style="normal" font-weight="normal" font-size="480px" font-family="Arial" >
O</text>
<path stroke="none" fill="#000000" transform="matrix(0.0666667 0 0 0.0666667 -88.934 -387.867)" d="M 4858.49,6813.39 L 4858.73,6846.12 L 4355.61,7141.56 L 4341.38,7133.48 L 4341.26,7117.11 L 4858.49,6813.39 Z " />
<path stroke="none" fill="#000000" transform="matrix(0.0666667 0 0 0.0666667 -88.934 -387.867)" d="M 5211.33,7013.66 L 5197.34,7038.31 L 4858.73,6846.12 L 4858.49,6813.39 L 5211.33,7013.66 Z " />
<path stroke="none" fill="#000000" transform="matrix(0.0666667 0 0 0.0666667 -88.934 -387.867)" d="M 5398.78,7717.34 L 5384.67,7725.63 L 5370.44,7717.55 L 5367.81,7360.18 L 5396.15,7359.97 L 5398.78,7717.34 Z " />
<path stroke="none" fill="#0000ff" transform="matrix(0.0666667 0 0 0.0666667 -88.934 -387.867)" d="M 4881.67,8037.43 L 4867.44,8029.35 L 4867.32,8012.98 L 5370.44,7717.55 L 5384.67,7725.63 L 5384.79,7741.99 L 4881.67,8037.43 Z " />
<path stroke="none" fill="#0000ff" transform="matrix(0.0666667 0 0 0.0666667 -88.934 -387.867)" d="M 4874,7958.46 L 4859.65,7934.02 L 5305.21,7672.38 L 5319.56,7696.82 L 4874,7958.46 Z " />
<path stroke="none" fill="#000000" transform="matrix(0.0666667 0 0 0.0666667 -88.934 -387.867)" d="M 4345.91,7749.64 L 4345.79,7733.27 L 4359.91,7724.98 L 4867.32,8012.98 L 4867.44,8029.35 L 4853.33,8037.63 L 4345.91,7749.64 Z " />
<text x="0" y="0" stroke="none" fill="#0000ff" transform="matrix(0.0666667 0 0 0.0666667 224.29 200.009)" font-style="normal" font-weight="normal" font-size="480px" font-family="Arial" >
R</text>
<text x="0" y="0" stroke="none" fill="#0000ff" transform="matrix(0.0666667 0 0 0.0666667 247.423 187.409)" font-style="normal" font-weight="normal" font-size="360px" font-family="Arial" >
2</text>
<path stroke="none" fill="#0000ff" transform="matrix(0.0666667 0 0 0.0666667 -88.934 -387.867)" d="M 4883.99,8351.97 L 4855.64,8352.17 L 4853.33,8037.63 L 4867.44,8029.35 L 4881.67,8037.43 L 4883.99,8351.97 Z " />
<text x="0" y="0" stroke="none" fill="#0000ff" transform="matrix(0.0666667 0 0 0.0666667 293.254 159.513)" font-style="normal" font-weight="normal" font-size="480px" font-family="Arial" >
R</text>
<text x="0" y="0" stroke="none" fill="#0000ff" transform="matrix(0.0666667 0 0 0.0666667 316.387 146.913)" font-style="normal" font-weight="normal" font-size="360px" font-family="Arial" >
1</text>
<path stroke="none" fill="#0000ff" transform="matrix(0.0666667 0 0 0.0666667 -88.934 -387.867)" d="M 5716.22,7897.51 L 5702.23,7922.16 L 5384.79,7741.99 L 5384.67,7725.63 L 5398.78,7717.34 L 5716.22,7897.51 Z " />
<text x="0" y="0" stroke="none" fill="#000000" transform="matrix(0.0666667 0 0 0.0666667 222.246 40.0642)" font-style="normal" font-weight="normal" font-size="480px" font-family="Arial" >
O</text>
<path stroke="none" fill="#000000" transform="matrix(0.0666667 0 0 0.0666667 -88.934 -387.867)" d="M 4805.76,6464.57 L 4834.11,6464.36 L 4836.95,6850.7 L 4808.6,6850.9 L 4805.76,6464.57 Z " />
<path stroke="none" fill="#000000" transform="matrix(0.0666667 0 0 0.0666667 -88.934 -387.867)" d="M 4877.74,6464.04 L 4906.08,6463.83 L 4908.92,6850.17 L 4880.58,6850.37 L 4877.74,6464.04 Z " />
<path stroke="none" fill="#000000" transform="matrix(0.0666667 0 0 0.0666667 -88.934 -387.867)" d="M 2789.81,8061 L 2789.57,8028.27 L 3292.69,7732.84 L 3306.92,7740.92 L 3307.04,7757.28 L 2789.81,8061 Z " />
<text x="0" y="0" stroke="none" fill="#000000" transform="matrix(0.0666667 0 0 0.0666667 3.57731 141.304)" font-style="normal" font-weight="normal" font-size="480px" font-family="Arial" >
PGO</text>
<path stroke="none" fill="#000000" transform="matrix(0.0666667 0 0 0.0666667 -88.934 -387.867)" d="M 2452.42,7869.5 L 2466.41,7844.85 L 2789.57,8028.27 L 2789.81,8061 L 2452.42,7869.5 Z " />
<text x="0" y="0" stroke="none" fill="#000000" transform="matrix(0.0666667 0 0 0.0666667 84.9062 201.029)" font-style="normal" font-weight="normal" font-size="480px" font-family="Arial" >
O</text>
<path stroke="none" fill="#000000" transform="matrix(0.0666667 0 0 0.0666667 -88.934 -387.867)" d="M 2842.78,8442.82 L 2814.44,8443.03 L 2811.35,8023.7 L 2839.7,8023.49 L 2842.78,8442.82 Z " />
<path stroke="none" fill="#000000" transform="matrix(0.0666667 0 0 0.0666667 -88.934 -387.867)" d="M 2770.81,8443.35 L 2742.46,8443.56 L 2739.38,8024.23 L 2767.72,8024.02 L 2770.81,8443.35 Z " />
<path stroke="none" fill="#000000" transform="matrix(0.0666667 0 0 0.0666667 -88.934 -387.867)" d="M 8067.51,7555.21 L 6470.13,7555.21 L 6470.13,7535.21 L 8067.51,7535.21 Z " />
<path stroke="none" fill="#000000" transform="matrix(0.0666667 0 0 0.0666667 -88.934 -387.867)" d="M 8240.13,7545.21 C 8240.13,7545.21 8041.71,7595.82 8041.71,7595.82 C 8041.71,7595.82 8066.51,7567.35 8066.51,7545.21 C 8066.51,7522.64 8041.71,7493.61 8041.71,7493.61 C 8041.71,7493.61 8240.13,7545.21 8240.13,7545.21 C 8240.13,7545.21 8240.13,7545.21 8240.13,7545.21 " />
<path stroke="#000000" stroke-width="1" fill="none" transform="matrix(0.0666667 0 0 0.0666667 -88.934 -387.867)" d="M 8240.13,7545.21 C 8240.13,7545.21 8041.71,7595.82 8041.71,7595.82 C 8041.71,7595.82 8066.51,7567.35 8066.51,7545.21 C 8066.51,7522.64 8041.71,7493.61 8041.71,7493.61 C 8041.71,7493.61 8240.13,7545.21 8240.13,7545.21 C 8240.13,7545.21 8240.13,7545.21 8240.13,7545.21 " />
<text x="0" y="0" stroke="none" fill="#000000" transform="matrix(0.0666667 0 0 0.0666667 374.574 100.681)" font-style="normal" font-weight="normal" font-size="360px" font-family="Arial" >
KOH</text>
<text x="0" y="0" stroke="none" fill="#000000" transform="matrix(0.0666667 0 0 0.0666667 393.408 171.148)" font-style="normal" font-weight="normal" font-size="360px" font-family="Arial" >
rt</text>
<text x="0" y="0" stroke="none" fill="#000000" transform="matrix(0.0666667 0 0 0.0666667 372.742 143.214)" font-style="normal" font-weight="normal" font-size="360px" font-family="Arial" >
EtOH</text>
<path stroke="none" fill="#000000" transform="matrix(0.0666667 0 0 0.0666667 -88.934 -387.867)" d="M 9540.75,12192.6 L 9512.41,12192.8 L 9509.32,11773.4 L 9537.67,11773.2 L 9540.75,12192.6 Z " />
<path stroke="none" fill="#000000" transform="matrix(0.0666667 0 0 0.0666667 -88.934 -387.867)" d="M 9468.78,12193.1 L 9440.43,12193.3 L 9437.35,11774 L 9465.69,11773.8 L 9468.78,12193.1 Z " />
<text x="0" y="0" stroke="none" fill="#000000" transform="matrix(0.0666667 0 0 0.0666667 531.438 451.011)" font-style="normal" font-weight="normal" font-size="480px" font-family="Arial" >
O</text>
<path stroke="none" fill="#000000" transform="matrix(0.0666667 0 0 0.0666667 -88.934 -387.867)" d="M 9150.15,11619.1 L 9164.14,11594.4 L 9487.54,11778 L 9487.78,11810.7 L 9150.15,11619.1 Z " />
<text x="0" y="0" stroke="none" fill="#000000" transform="matrix(0.0666667 0 0 0.0666667 473.21 391.286)" font-style="normal" font-weight="normal" font-size="480px" font-family="Arial" >
HO</text>
<path stroke="none" fill="#000000" transform="matrix(0.0666667 0 0 0.0666667 -88.934 -387.867)" d="M 9487.78,11810.7 L 9487.54,11778 L 9990.66,11482.6 L 10004.9,11490.7 L 10005,11507 L 9487.78,11810.7 Z " />
<path stroke="none" fill="#000000" transform="matrix(0.0666667 0 0 0.0666667 -88.934 -387.867)" d="M 11503.7,10214.3 L 11532.1,10214.1 L 11534.9,10600.4 L 11506.6,10600.6 L 11503.7,10214.3 Z " />
<path stroke="none" fill="#000000" transform="matrix(0.0666667 0 0 0.0666667 -88.934 -387.867)" d="M 11575.7,10213.8 L 11604.1,10213.6 L 11606.9,10599.9 L 11578.6,10600.1 L 11575.7,10213.8 Z " />
<text x="0" y="0" stroke="none" fill="#000000" transform="matrix(0.0666667 0 0 0.0666667 668.777 290.047)" font-style="normal" font-weight="normal" font-size="480px" font-family="Arial" >
O</text>
<path stroke="none" fill="#0000ff" transform="matrix(0.0666667 0 0 0.0666667 -88.934 -387.867)" d="M 12414.2,11647.2 L 12400.2,11671.9 L 12082.8,11491.7 L 12082.6,11475.4 L 12096.8,11467.1 L 12414.2,11647.2 Z " />
<text x="0" y="0" stroke="none" fill="#0000ff" transform="matrix(0.0666667 0 0 0.0666667 739.785 409.496)" font-style="normal" font-weight="normal" font-size="480px" font-family="Arial" >
R</text>
<text x="0" y="0" stroke="none" fill="#0000ff" transform="matrix(0.0666667 0 0 0.0666667 762.918 396.896)" font-style="normal" font-weight="normal" font-size="360px" font-family="Arial" >
1</text>
<path stroke="none" fill="#0000ff" transform="matrix(0.0666667 0 0 0.0666667 -88.934 -387.867)" d="M 11582,12101.7 L 11553.6,12101.9 L 11551.3,11787.4 L 11565.4,11779.1 L 11579.6,11787.2 L 11582,12101.7 Z " />
<text x="0" y="0" stroke="none" fill="#0000ff" transform="matrix(0.0666667 0 0 0.0666667 670.821 449.992)" font-style="normal" font-weight="normal" font-size="480px" font-family="Arial" >
R</text>
<text x="0" y="0" stroke="none" fill="#0000ff" transform="matrix(0.0666667 0 0 0.0666667 693.954 437.392)" font-style="normal" font-weight="normal" font-size="360px" font-family="Arial" >
2</text>
<path stroke="none" fill="#000000" transform="matrix(0.0666667 0 0 0.0666667 -88.934 -387.867)" d="M 11043.9,11499.4 L 11043.8,11483 L 11057.9,11474.7 L 11565.3,11762.7 L 11565.4,11779.1 L 11551.3,11787.4 L 11043.9,11499.4 Z " />
<path stroke="none" fill="#0000ff" transform="matrix(0.0666667 0 0 0.0666667 -88.934 -387.867)" d="M 11579.6,11787.2 L 11565.4,11779.1 L 11565.3,11762.7 L 12068.4,11467.3 L 12082.6,11475.4 L 12082.8,11491.7 L 11579.6,11787.2 Z " />
<path stroke="none" fill="#0000ff" transform="matrix(0.0666667 0 0 0.0666667 -88.934 -387.867)" d="M 11572,11708.2 L 11557.6,11683.8 L 12003.2,11422.1 L 12017.5,11446.6 L 11572,11708.2 Z " />
<path stroke="none" fill="#000000" transform="matrix(0.0666667 0 0 0.0666667 -88.934 -387.867)" d="M 12096.8,11467.1 L 12082.6,11475.4 L 12068.4,11467.3 L 12065.8,11109.9 L 12094.1,11109.7 L 12096.8,11467.1 Z " />
<path stroke="none" fill="#000000" transform="matrix(0.0666667 0 0 0.0666667 -88.934 -387.867)" d="M 11909.3,10763.4 L 11895.3,10788 L 11556.7,10595.9 L 11556.5,10563.1 L 11909.3,10763.4 Z " />
<path stroke="none" fill="#000000" transform="matrix(0.0666667 0 0 0.0666667 -88.934 -387.867)" d="M 11556.5,10563.1 L 11556.7,10595.9 L 11053.6,10891.3 L 11039.4,10883.2 L 11039.2,10866.8 L 11556.5,10563.1 Z " />
<text x="0" y="0" stroke="none" fill="#000000" transform="matrix(0.0666667 0 0 0.0666667 703.848 349.771)" font-style="normal" font-weight="normal" font-size="480px" font-family="Arial" >
O</text>
<path stroke="none" fill="#000000" transform="matrix(0.0666667 0 0 0.0666667 -88.934 -387.867)" d="M 10005,11507 L 10004.9,11490.7 L 10019,11482.4 L 10526.4,11770.4 L 10526.7,11803.1 L 10005,11507 Z " />
<path stroke="none" fill="#000000" transform="matrix(0.0666667 0 0 0.0666667 -88.934 -387.867)" d="M 10526.7,11803.1 L 10526.4,11770.4 L 11029.5,11474.9 L 11043.8,11483 L 11043.9,11499.4 L 10526.7,11803.1 Z " />
<path stroke="none" fill="#000000" transform="matrix(0.0666667 0 0 0.0666667 -88.934 -387.867)" d="M 10533.1,11715.8 L 10518.7,11691.4 L 10964.3,11429.8 L 10978.7,11454.2 L 10533.1,11715.8 Z " />
<path stroke="none" fill="#000000" transform="matrix(0.0666667 0 0 0.0666667 -88.934 -387.867)" d="M 11057.9,11474.7 L 11043.8,11483 L 11029.5,11474.9 L 11025.2,10891.5 L 11039.4,10883.2 L 11053.6,10891.3 L 11057.9,11474.7 Z " />
<path stroke="none" fill="#000000" transform="matrix(0.0666667 0 0 0.0666667 -88.934 -387.867)" d="M 11039.2,10866.8 L 11039.4,10883.2 L 11025.2,10891.5 L 10517.8,10603.5 L 10517.6,10570.8 L 11039.2,10866.8 Z " />
<path stroke="none" fill="#000000" transform="matrix(0.0666667 0 0 0.0666667 -88.934 -387.867)" d="M 10974.7,10913 L 10960.7,10937.6 L 10511.3,10682.6 L 10525.3,10657.9 L 10974.7,10913 Z " />
<path stroke="none" fill="#000000" transform="matrix(0.0666667 0 0 0.0666667 -88.934 -387.867)" d="M 10517.6,10570.8 L 10517.8,10603.5 L 10014.7,10898.9 L 9986.25,10882.8 L 10517.6,10570.8 Z " />
<path stroke="none" fill="#000000" transform="matrix(0.0666667 0 0 0.0666667 -88.934 -387.867)" d="M 9986.25,10882.8 L 10014.7,10898.9 L 10019,11482.4 L 10004.9,11490.7 L 9990.66,11482.6 L 9986.25,10882.8 Z " />
<path stroke="none" fill="#000000" transform="matrix(0.0666667 0 0 0.0666667 -88.934 -387.867)" d="M 10058.6,10932 L 10086.9,10931.8 L 10090.7,11448.5 L 10062.4,11448.7 L 10058.6,10932 Z " />
<path stroke="none" fill="#000000" transform="matrix(0.0666667 0 0 0.0666667 -88.934 -387.867)" d="M 15305.2,7525.21 L 13707.8,7525.21 L 13707.8,7505.21 L 15305.2,7505.21 Z " />
<path stroke="none" fill="#000000" transform="matrix(0.0666667 0 0 0.0666667 -88.934 -387.867)" d="M 15477.8,7515.21 C 15477.8,7515.21 15279.4,7565.82 15279.4,7565.82 C 15279.4,7565.82 15304.2,7537.35 15304.2,7515.21 C 15304.2,7492.64 15279.4,7463.61 15279.4,7463.61 C 15279.4,7463.61 15477.8,7515.21 15477.8,7515.21 C 15477.8,7515.21 15477.8,7515.21 15477.8,7515.21 " />
<path stroke="#000000" stroke-width="1" fill="none" transform="matrix(0.0666667 0 0 0.0666667 -88.934 -387.867)" d="M 15477.8,7515.21 C 15477.8,7515.21 15279.4,7565.82 15279.4,7565.82 C 15279.4,7565.82 15304.2,7537.35 15304.2,7515.21 C 15304.2,7492.64 15279.4,7463.61 15279.4,7463.61 C 15279.4,7463.61 15477.8,7515.21 15477.8,7515.21 C 15477.8,7515.21 15477.8,7515.21 15477.8,7515.21 " />
<text x="0" y="0" stroke="none" fill="#000000" transform="matrix(0.0666667 0 0 0.0666667 857.084 98.6808)" font-style="normal" font-weight="normal" font-size="360px" font-family="Arial" >
KOH</text>
<text x="0" y="0" stroke="none" fill="#000000" transform="matrix(0.0666667 0 0 0.0666667 861.918 170.148)" font-style="normal" font-weight="normal" font-size="360px" font-family="Arial" >
80</text>
<text x="0" y="0" stroke="none" fill="#000000" transform="matrix(0.0666667 0 0 0.0666667 888.614 160.681)" font-style="normal" font-weight="normal" font-size="270px" font-family="Arial" >
o</text>
<text x="0" y="0" stroke="none" fill="#000000" transform="matrix(0.0666667 0 0 0.0666667 898.625 170.148)" font-style="normal" font-weight="normal" font-size="360px" font-family="Arial" >
C</text>
<text x="0" y="0" stroke="none" fill="#000000" transform="matrix(0.0666667 0 0 0.0666667 855.252 141.214)" font-style="normal" font-weight="normal" font-size="360px" font-family="Arial" >
EtOH</text>
<path stroke="none" fill="#000000" transform="matrix(0.0666667 0 0 0.0666667 -88.934 -387.867)" d="M 10095.8,8442.56 L 10067.4,8442.76 L 10064.3,8023.43 L 10092.7,8023.23 L 10095.8,8442.56 Z " />
<path stroke="none" fill="#000000" transform="matrix(0.0666667 0 0 0.0666667 -88.934 -387.867)" d="M 10023.8,8443.09 L 9995.43,8443.29 L 9992.35,8023.96 L 10020.7,8023.75 L 10023.8,8443.09 Z " />
<text x="0" y="0" stroke="none" fill="#000000" transform="matrix(0.0666667 0 0 0.0666667 568.438 201.011)" font-style="normal" font-weight="normal" font-size="480px" font-family="Arial" >
O</text>
<path stroke="none" fill="#000000" transform="matrix(0.0666667 0 0 0.0666667 -88.934 -387.867)" d="M 9705.39,7869.24 L 9719.38,7844.59 L 10042.5,8028.01 L 10042.8,8060.74 L 9705.39,7869.24 Z " />
<text x="0" y="0" stroke="none" fill="#000000" transform="matrix(0.0666667 0 0 0.0666667 487.109 141.286)" font-style="normal" font-weight="normal" font-size="480px" font-family="Arial" >
PGO</text>
<path stroke="none" fill="#000000" transform="matrix(0.0666667 0 0 0.0666667 -88.934 -387.867)" d="M 10042.8,8060.74 L 10042.5,8028.01 L 10545.7,7732.57 L 10559.9,7740.65 L 10560,7757.02 L 10042.8,8060.74 Z " />
<path stroke="none" fill="#000000" transform="matrix(0.0666667 0 0 0.0666667 -88.934 -387.867)" d="M 11897.1,6317.37 L 11924.8,6311.52 L 12005.6,6694.34 L 11977.8,6700.19 L 11897.1,6317.37 Z " />
<path stroke="none" fill="#000000" transform="matrix(0.0666667 0 0 0.0666667 -88.934 -387.867)" d="M 11967.5,6302.51 L 11995.3,6296.66 L 12075,6674.47 L 12047.2,6680.32 L 11967.5,6302.51 Z " />
<text x="0" y="0" stroke="none" fill="#000000" transform="matrix(0.0666667 0 0 0.0666667 691.819 29.9064)" font-style="normal" font-weight="normal" font-size="480px" font-family="Arial" >
O</text>
<path stroke="none" fill="#0000ff" transform="matrix(0.0666667 0 0 0.0666667 -88.934 -387.867)" d="M 12904.7,8215.33 L 12883,8233.59 L 12660.3,7969.21 L 12671.5,7938.43 L 12904.7,8215.33 Z " />
<text x="0" y="0" stroke="none" fill="#0000ff" transform="matrix(0.0666667 0 0 0.0666667 769.654 185.572)" font-style="normal" font-weight="normal" font-size="480px" font-family="Arial" >
R</text>
<text x="0" y="0" stroke="none" fill="#0000ff" transform="matrix(0.0666667 0 0 0.0666667 792.788 172.972)" font-style="normal" font-weight="normal" font-size="360px" font-family="Arial" >
1</text>
<path stroke="none" fill="#0000ff" transform="matrix(0.0666667 0 0 0.0666667 -88.934 -387.867)" d="M 11954.9,8433.76 L 11928.2,8424.12 L 12058.3,8064.58 L 12075.4,8059.08 L 12086,8071.6 L 11954.9,8433.76 Z " />
<text x="0" y="0" stroke="none" fill="#0000ff" transform="matrix(0.0666667 0 0 0.0666667 690.906 199.607)" font-style="normal" font-weight="normal" font-size="480px" font-family="Arial" >
R</text>
<text x="0" y="0" stroke="none" fill="#0000ff" transform="matrix(0.0666667 0 0 0.0666667 714.04 187.007)" font-style="normal" font-weight="normal" font-size="360px" font-family="Arial" >
2</text>
<path stroke="none" fill="#000000" transform="matrix(0.0666667 0 0 0.0666667 -88.934 -387.867)" d="M 11598.2,7749.78 L 11598.8,7733.01 L 11612.9,7725.49 L 12078.6,8044.11 L 12075.4,8059.08 L 12058.3,8064.58 L 11598.2,7749.78 Z " />
<path stroke="none" fill="#0000ff" transform="matrix(0.0666667 0 0 0.0666667 -88.934 -387.867)" d="M 12086,8071.6 L 12075.4,8059.08 L 12078.6,8044.11 L 12671.5,7938.43 L 12660.3,7969.21 L 12086,8071.6 Z " />
<path stroke="none" fill="#000000" transform="matrix(0.0666667 0 0 0.0666667 -88.934 -387.867)" d="M 12404.7,6774.73 L 12395.9,6801.68 L 12025.9,6680.81 L 12017.3,6648.18 L 12404.7,6774.73 Z " />
<path stroke="none" fill="#000000" transform="matrix(0.0666667 0 0 0.0666667 -88.934 -387.867)" d="M 12017.3,6648.18 L 12025.9,6680.81 L 11608.6,7138.66 L 11594.4,7133.21 L 11591.5,7115.3 L 12017.3,6648.18 Z " />
<text x="0" y="0" stroke="none" fill="#000000" transform="matrix(0.0666667 0 0 0.0666667 738.083 81.4488)" font-style="normal" font-weight="normal" font-size="480px" font-family="Arial" >
OH</text>
<path stroke="none" fill="#000000" transform="matrix(0.0666667 0 0 0.0666667 -88.934 -387.867)" d="M 10560,7757.02 L 10559.9,7740.65 L 10574,7732.36 L 11081.4,8020.36 L 11081.7,8053.09 L 10560,7757.02 Z " />
<path stroke="none" fill="#000000" transform="matrix(0.0666667 0 0 0.0666667 -88.934 -387.867)" d="M 11081.7,8053.09 L 11081.4,8020.36 L 11584.5,7724.93 L 11598.8,7733.01 L 11598.2,7749.78 L 11081.7,8053.09 Z " />
<path stroke="none" fill="#000000" transform="matrix(0.0666667 0 0 0.0666667 -88.934 -387.867)" d="M 11088.1,7965.84 L 11073.7,7941.4 L 11519.3,7679.76 L 11533.7,7704.2 L 11088.1,7965.84 Z " />
<path stroke="none" fill="#000000" transform="matrix(0.0666667 0 0 0.0666667 -88.934 -387.867)" d="M 11612.9,7725.49 L 11598.8,7733.01 L 11584.5,7724.93 L 11580.2,7141.5 L 11594.4,7133.21 L 11608.6,7138.66 L 11612.9,7725.49 Z " />
<path stroke="none" fill="#000000" transform="matrix(0.0666667 0 0 0.0666667 -88.934 -387.867)" d="M 11591.5,7115.3 L 11594.4,7133.21 L 11580.2,7141.5 L 11072.8,6853.5 L 11072.6,6820.77 L 11591.5,7115.3 Z " />
<path stroke="none" fill="#000000" transform="matrix(0.0666667 0 0 0.0666667 -88.934 -387.867)" d="M 11529.7,7162.97 L 11515.7,7187.62 L 11066.3,6932.57 L 11080.3,6907.92 L 11529.7,7162.97 Z " />
<path stroke="none" fill="#000000" transform="matrix(0.0666667 0 0 0.0666667 -88.934 -387.867)" d="M 11072.6,6820.77 L 11072.8,6853.5 L 10569.7,7148.94 L 10541.2,7132.78 L 11072.6,6820.77 Z " />
<path stroke="none" fill="#000000" transform="matrix(0.0666667 0 0 0.0666667 -88.934 -387.867)" d="M 10541.2,7132.78 L 10569.7,7148.94 L 10574,7732.36 L 10559.9,7740.65 L 10545.7,7732.57 L 10541.2,7132.78 Z " />
<path stroke="none" fill="#000000" transform="matrix(0.0666667 0 0 0.0666667 -88.934 -387.867)" d="M 10613.6,7181.99 L 10641.9,7181.78 L 10645.7,7698.46 L 10617.4,7698.67 L 10613.6,7181.99 Z " />
<text x="0" y="0" stroke="none" fill="#000000" transform="matrix(0.0666667 0 0 0.0666667 756.633 117.387)" font-style="normal" font-weight="normal" font-size="480px" font-family="Arial" >
O</text>
<path stroke="none" fill="#000000" transform="matrix(0.0666667 0 0 0.0666667 -88.934 -387.867)" d="M 12743.5,7592 L 12770.2,7601.64 L 12638.3,7965.94 L 12611.7,7956.29 L 12743.5,7592 Z " />
<path stroke="none" fill="#000000" transform="matrix(0.0666667 0 0 0.0666667 -88.934 -387.867)" d="M 12811.2,7616.49 L 12837.8,7626.13 L 12706,7990.43 L 12679.4,7980.78 L 12811.2,7616.49 Z " />
<path stroke="none" fill="#000000" transform="matrix(0.0666667 0 0 0.0666667 -88.934 -387.867)" d="M 19558.9,7599.87 L 19585.5,7609.52 L 19453.7,7973.81 L 19427.1,7964.17 L 19558.9,7599.87 Z " />
<path stroke="none" fill="#000000" transform="matrix(0.0666667 0 0 0.0666667 -88.934 -387.867)" d="M 19626.6,7624.36 L 19653.2,7634.01 L 19521.4,7998.3 L 19494.7,7988.66 L 19626.6,7624.36 Z " />
<text x="0" y="0" stroke="none" fill="#000000" transform="matrix(0.0666667 0 0 0.0666667 1210.99 117.912)" font-style="normal" font-weight="normal" font-size="480px" font-family="Arial" >
O</text>
<path stroke="none" fill="#000000" transform="matrix(0.0666667 0 0 0.0666667 -88.934 -387.867)" d="M 17356.6,7140.65 L 17385.1,7156.81 L 17389.4,7740.24 L 17375.3,7748.53 L 17361,7740.45 L 17356.6,7140.65 Z " />
<path stroke="none" fill="#000000" transform="matrix(0.0666667 0 0 0.0666667 -88.934 -387.867)" d="M 17429,7189.86 L 17457.3,7189.65 L 17461.1,7706.34 L 17432.8,7706.55 L 17429,7189.86 Z " />
<path stroke="none" fill="#000000" transform="matrix(0.0666667 0 0 0.0666667 -88.934 -387.867)" d="M 17888,6828.65 L 17888.2,6861.38 L 17385.1,7156.81 L 17356.6,7140.65 L 17888,6828.65 Z " />
<path stroke="none" fill="#000000" transform="matrix(0.0666667 0 0 0.0666667 -88.934 -387.867)" d="M 18406.9,7123.17 L 18409.7,7141.09 L 18395.6,7149.38 L 17888.2,6861.38 L 17888,6828.65 L 18406.9,7123.17 Z " />
<path stroke="none" fill="#000000" transform="matrix(0.0666667 0 0 0.0666667 -88.934 -387.867)" d="M 18345.1,7170.85 L 18331.1,7195.5 L 17881.7,6940.45 L 17895.7,6915.8 L 18345.1,7170.85 Z " />
<path stroke="none" fill="#000000" transform="matrix(0.0666667 0 0 0.0666667 -88.934 -387.867)" d="M 18428.3,7733.37 L 18414.2,7740.88 L 18399.9,7732.8 L 18395.6,7149.38 L 18409.7,7141.09 L 18424,7146.53 L 18428.3,7733.37 Z " />
<path stroke="none" fill="#000000" transform="matrix(0.0666667 0 0 0.0666667 -88.934 -387.867)" d="M 17897,8060.97 L 17896.8,8028.24 L 18399.9,7732.8 L 18414.2,7740.88 L 18413.6,7757.66 L 17897,8060.97 Z " />
<path stroke="none" fill="#000000" transform="matrix(0.0666667 0 0 0.0666667 -88.934 -387.867)" d="M 17903.5,7973.71 L 17889.1,7949.27 L 18334.7,7687.64 L 18349.1,7712.08 L 17903.5,7973.71 Z " />
<path stroke="none" fill="#000000" transform="matrix(0.0666667 0 0 0.0666667 -88.934 -387.867)" d="M 17375.4,7764.89 L 17375.3,7748.53 L 17389.4,7740.24 L 17896.8,8028.24 L 17897,8060.97 L 17375.4,7764.89 Z " />
<text x="0" y="0" stroke="none" fill="#000000" transform="matrix(0.0666667 0 0 0.0666667 1192.44 81.9739)" font-style="normal" font-weight="normal" font-size="480px" font-family="Arial" >
OH</text>
<path stroke="none" fill="#000000" transform="matrix(0.0666667 0 0 0.0666667 -88.934 -387.867)" d="M 18832.7,6656.05 L 18841.3,6688.68 L 18424,7146.53 L 18409.7,7141.09 L 18406.9,7123.17 L 18832.7,6656.05 Z " />
<path stroke="none" fill="#000000" transform="matrix(0.0666667 0 0 0.0666667 -88.934 -387.867)" d="M 19220.1,6782.61 L 19211.3,6809.55 L 18841.3,6688.68 L 18832.7,6656.05 L 19220.1,6782.61 Z " />
<path stroke="none" fill="#0000ff" transform="matrix(0.0666667 0 0 0.0666667 -88.934 -387.867)" d="M 18901.3,8079.48 L 18890.8,8066.96 L 18894,8051.99 L 19486.9,7946.31 L 19475.7,7977.09 L 18901.3,8079.48 Z " />
<path stroke="none" fill="#000000" transform="matrix(0.0666667 0 0 0.0666667 -88.934 -387.867)" d="M 18413.6,7757.66 L 18414.2,7740.88 L 18428.3,7733.37 L 18894,8051.99 L 18890.8,8066.96 L 18873.7,8072.46 L 18413.6,7757.66 Z " />
<text x="0" y="0" stroke="none" fill="#0000ff" transform="matrix(0.0666667 0 0 0.0666667 1145.27 200.132)" font-style="normal" font-weight="normal" font-size="480px" font-family="Arial" >
R</text>
<text x="0" y="0" stroke="none" fill="#0000ff" transform="matrix(0.0666667 0 0 0.0666667 1168.4 187.532)" font-style="normal" font-weight="normal" font-size="360px" font-family="Arial" >
2</text>
<path stroke="none" fill="#0000ff" transform="matrix(0.0666667 0 0 0.0666667 -88.934 -387.867)" d="M 18770.3,8441.64 L 18743.6,8431.99 L 18873.7,8072.46 L 18890.8,8066.96 L 18901.3,8079.48 L 18770.3,8441.64 Z " />
<text x="0" y="0" stroke="none" fill="#0000ff" transform="matrix(0.0666667 0 0 0.0666667 1224.01 186.097)" font-style="normal" font-weight="normal" font-size="480px" font-family="Arial" >
R</text>
<text x="0" y="0" stroke="none" fill="#0000ff" transform="matrix(0.0666667 0 0 0.0666667 1247.15 173.497)" font-style="normal" font-weight="normal" font-size="360px" font-family="Arial" >
1</text>
<path stroke="none" fill="#0000ff" transform="matrix(0.0666667 0 0 0.0666667 -88.934 -387.867)" d="M 19720.1,8223.2 L 19698.4,8241.46 L 19475.7,7977.09 L 19486.9,7946.31 L 19720.1,8223.2 Z " />
<text x="0" y="0" stroke="none" fill="#000000" transform="matrix(0.0666667 0 0 0.0666667 1146.18 30.4314)" font-style="normal" font-weight="normal" font-size="480px" font-family="Arial" >
O</text>
<path stroke="none" fill="#000000" transform="matrix(0.0666667 0 0 0.0666667 -88.934 -387.867)" d="M 18712.5,6325.24 L 18740.2,6319.39 L 18821,6702.21 L 18793.2,6708.06 L 18712.5,6325.24 Z " />
<path stroke="none" fill="#000000" transform="matrix(0.0666667 0 0 0.0666667 -88.934 -387.867)" d="M 18782.9,6310.39 L 18810.7,6304.54 L 18890.3,6682.35 L 18862.6,6688.2 L 18782.9,6310.39 Z " />
<path stroke="none" fill="#000000" transform="matrix(0.0666667 0 0 0.0666667 -88.934 -387.867)" d="M 16858.2,8068.61 L 16857.9,8035.88 L 17361,7740.45 L 17375.3,7748.53 L 17375.4,7764.89 L 16858.2,8068.61 Z " />
<text x="0" y="0" stroke="none" fill="#000000" transform="matrix(0.0666667 0 0 0.0666667 964.569 141.811)" font-style="normal" font-weight="normal" font-size="480px" font-family="Arial" >
HO</text>
<path stroke="none" fill="#000000" transform="matrix(0.0666667 0 0 0.0666667 -88.934 -387.867)" d="M 16520.5,7876.98 L 16534.5,7852.33 L 16857.9,8035.88 L 16858.2,8068.61 L 16520.5,7876.98 Z " />
<text x="0" y="0" stroke="none" fill="#000000" transform="matrix(0.0666667 0 0 0.0666667 1022.8 201.536)" font-style="normal" font-weight="normal" font-size="480px" font-family="Arial" >
O</text>
<path stroke="none" fill="#000000" transform="matrix(0.0666667 0 0 0.0666667 -88.934 -387.867)" d="M 16911.1,8450.43 L 16882.8,8450.64 L 16879.7,8031.31 L 16908.1,8031.1 L 16911.1,8450.43 Z " />
<path stroke="none" fill="#000000" transform="matrix(0.0666667 0 0 0.0666667 -88.934 -387.867)" d="M 16839.2,8450.96 L 16810.8,8451.17 L 16807.7,8031.84 L 16836.1,8031.63 L 16839.2,8450.96 Z " />
<path stroke="none" fill="#000000" transform="matrix(0.0666667 0 0 0.0666667 -88.934 -387.867)" d="M 3092.72,12237.6 L 3064.37,12237.8 L 3061.29,11818.4 L 3089.63,11818.2 L 3092.72,12237.6 Z " />
<path stroke="none" fill="#000000" transform="matrix(0.0666667 0 0 0.0666667 -88.934 -387.867)" d="M 3020.74,12238.1 L 2992.4,12238.3 L 2989.31,11819 L 3017.66,11818.8 L 3020.74,12238.1 Z " />
<text x="0" y="0" stroke="none" fill="#000000" transform="matrix(0.0666667 0 0 0.0666667 101.569 454.011)" font-style="normal" font-weight="normal" font-size="480px" font-family="Arial" >
O</text>
<path stroke="none" fill="#000000" transform="matrix(0.0666667 0 0 0.0666667 -88.934 -387.867)" d="M 2702.11,11664.1 L 2716.1,11639.4 L 3039.5,11823 L 3039.74,11855.7 L 2702.11,11664.1 Z " />
<text x="0" y="0" stroke="none" fill="#000000" transform="matrix(0.0666667 0 0 0.0666667 43.3407 394.286)" font-style="normal" font-weight="normal" font-size="480px" font-family="Arial" >
HO</text>
<path stroke="none" fill="#000000" transform="matrix(0.0666667 0 0 0.0666667 -88.934 -387.867)" d="M 3039.74,11855.7 L 3039.5,11823 L 3542.62,11527.6 L 3556.85,11535.7 L 3556.97,11552 L 3039.74,11855.7 Z " />
<path stroke="none" fill="#000000" transform="matrix(0.0666667 0 0 0.0666667 -88.934 -387.867)" d="M 4894.06,10112.4 L 4921.8,10106.5 L 5002.55,10489.3 L 4974.81,10495.2 L 4894.06,10112.4 Z " />
<path stroke="none" fill="#000000" transform="matrix(0.0666667 0 0 0.0666667 -88.934 -387.867)" d="M 4964.49,10097.5 L 4992.23,10091.7 L 5071.92,10469.5 L 5044.18,10475.3 L 4964.49,10097.5 Z " />
<text x="0" y="0" stroke="none" fill="#000000" transform="matrix(0.0666667 0 0 0.0666667 224.949 282.906)" font-style="normal" font-weight="normal" font-size="480px" font-family="Arial" >
O</text>
<path stroke="none" fill="#0000ff" transform="matrix(0.0666667 0 0 0.0666667 -88.934 -387.867)" d="M 5901.67,12010.3 L 5879.99,12028.6 L 5657.31,11764.2 L 5668.44,11733.4 L 5901.67,12010.3 Z " />
<text x="0" y="0" stroke="none" fill="#0000ff" transform="matrix(0.0666667 0 0 0.0666667 302.785 438.572)" font-style="normal" font-weight="normal" font-size="480px" font-family="Arial" >
R</text>
<text x="0" y="0" stroke="none" fill="#0000ff" transform="matrix(0.0666667 0 0 0.0666667 325.918 425.972)" font-style="normal" font-weight="normal" font-size="360px" font-family="Arial" >
1</text>
<path stroke="none" fill="#0000ff" transform="matrix(0.0666667 0 0 0.0666667 -88.934 -387.867)" d="M 4951.87,12228.8 L 4925.21,12219.1 L 5055.31,11859.6 L 5072.37,11854.1 L 5082.92,11866.6 L 4951.87,12228.8 Z " />
<text x="0" y="0" stroke="none" fill="#0000ff" transform="matrix(0.0666667 0 0 0.0666667 224.037 452.607)" font-style="normal" font-weight="normal" font-size="480px" font-family="Arial" >
R</text>
<text x="0" y="0" stroke="none" fill="#0000ff" transform="matrix(0.0666667 0 0 0.0666667 247.17 440.007)" font-style="normal" font-weight="normal" font-size="360px" font-family="Arial" >
2</text>
<path stroke="none" fill="#000000" transform="matrix(0.0666667 0 0 0.0666667 -88.934 -387.867)" d="M 4595.15,11544.8 L 4595.73,11528 L 4609.85,11520.5 L 5075.59,11839.1 L 5072.37,11854.1 L 5055.31,11859.6 L 4595.15,11544.8 Z " />
<path stroke="none" fill="#0000ff" transform="matrix(0.0666667 0 0 0.0666667 -88.934 -387.867)" d="M 5082.92,11866.6 L 5072.37,11854.1 L 5075.59,11839.1 L 5668.44,11733.4 L 5657.31,11764.2 L 5082.92,11866.6 Z " />
<path stroke="none" fill="#000000" transform="matrix(0.0666667 0 0 0.0666667 -88.934 -387.867)" d="M 5401.69,10569.7 L 5392.88,10596.7 L 5022.85,10475.8 L 5014.24,10443.2 L 5401.69,10569.7 Z " />
<path stroke="none" fill="#000000" transform="matrix(0.0666667 0 0 0.0666667 -88.934 -387.867)" d="M 5014.24,10443.2 L 5022.85,10475.8 L 4605.53,10933.7 L 4591.32,10928.2 L 4588.47,10910.3 L 5014.24,10443.2 Z " />
<text x="0" y="0" stroke="none" fill="#000000" transform="matrix(0.0666667 0 0 0.0666667 271.213 334.449)" font-style="normal" font-weight="normal" font-size="480px" font-family="Arial" >
OH</text>
<path stroke="none" fill="#000000" transform="matrix(0.0666667 0 0 0.0666667 -88.934 -387.867)" d="M 3556.97,11552 L 3556.85,11535.7 L 3570.97,11527.4 L 4078.38,11815.4 L 4078.62,11848.1 L 3556.97,11552 Z " />
<path stroke="none" fill="#000000" transform="matrix(0.0666667 0 0 0.0666667 -88.934 -387.867)" d="M 4078.62,11848.1 L 4078.38,11815.4 L 4581.5,11519.9 L 4595.73,11528 L 4595.15,11544.8 L 4078.62,11848.1 Z " />
<path stroke="none" fill="#000000" transform="matrix(0.0666667 0 0 0.0666667 -88.934 -387.867)" d="M 4085.06,11760.8 L 4070.71,11736.4 L 4516.27,11474.8 L 4530.62,11499.2 L 4085.06,11760.8 Z " />
<path stroke="none" fill="#000000" transform="matrix(0.0666667 0 0 0.0666667 -88.934 -387.867)" d="M 4609.85,11520.5 L 4595.73,11528 L 4581.5,11519.9 L 4577.2,10936.5 L 4591.32,10928.2 L 4605.53,10933.7 L 4609.85,11520.5 Z " />
<path stroke="none" fill="#000000" transform="matrix(0.0666667 0 0 0.0666667 -88.934 -387.867)" d="M 4588.47,10910.3 L 4591.32,10928.2 L 4577.2,10936.5 L 4069.79,10648.5 L 4069.55,10615.8 L 4588.47,10910.3 Z " />
<path stroke="none" fill="#000000" transform="matrix(0.0666667 0 0 0.0666667 -88.934 -387.867)" d="M 4526.64,10958 L 4512.65,10982.6 L 4063.29,10727.6 L 4077.28,10702.9 L 4526.64,10958 Z " />
<path stroke="none" fill="#000000" transform="matrix(0.0666667 0 0 0.0666667 -88.934 -387.867)" d="M 4069.55,10615.8 L 4069.79,10648.5 L 3566.67,10943.9 L 3538.21,10927.8 L 4069.55,10615.8 Z " />
<path stroke="none" fill="#000000" transform="matrix(0.0666667 0 0 0.0666667 -88.934 -387.867)" d="M 3538.21,10927.8 L 3566.67,10943.9 L 3570.97,11527.4 L 3556.85,11535.7 L 3542.62,11527.6 L 3538.21,10927.8 Z " />
<path stroke="none" fill="#000000" transform="matrix(0.0666667 0 0 0.0666667 -88.934 -387.867)" d="M 3610.55,10977 L 3638.9,10976.8 L 3642.7,11493.5 L 3614.35,11493.7 L 3610.55,10977 Z " />
<text x="0" y="0" stroke="none" fill="#000000" transform="matrix(0.0666667 0 0 0.0666667 289.764 370.387)" font-style="normal" font-weight="normal" font-size="480px" font-family="Arial" >
O</text>
<path stroke="none" fill="#000000" transform="matrix(0.0666667 0 0 0.0666667 -88.934 -387.867)" d="M 5740.46,11387 L 5767.11,11396.6 L 5635.29,11760.9 L 5608.64,11751.3 L 5740.46,11387 Z " />
<path stroke="none" fill="#000000" transform="matrix(0.0666667 0 0 0.0666667 -88.934 -387.867)" d="M 5808.14,11411.5 L 5834.8,11421.1 L 5702.97,11785.4 L 5676.32,11775.8 L 5808.14,11411.5 Z " />
<path stroke="none" fill="#000000" transform="matrix(0.0666667 0 0 0.0666667 -88.934 -387.867)" d="M 8060.17,11185.2 L 6462.79,11185.2 L 6462.79,11165.2 L 8060.17,11165.2 Z " />
<path stroke="none" fill="#000000" transform="matrix(0.0666667 0 0 0.0666667 -88.934 -387.867)" d="M 8232.79,11175.2 C 8232.79,11175.2 8034.36,11225.8 8034.36,11225.8 C 8034.36,11225.8 8059.17,11197.4 8059.17,11175.2 C 8059.17,11152.6 8034.36,11123.6 8034.36,11123.6 C 8034.36,11123.6 8232.79,11175.2 8232.79,11175.2 C 8232.79,11175.2 8232.79,11175.2 8232.79,11175.2 " />
<path stroke="#000000" stroke-width="1" fill="none" transform="matrix(0.0666667 0 0 0.0666667 -88.934 -387.867)" d="M 8232.79,11175.2 C 8232.79,11175.2 8034.36,11225.8 8034.36,11225.8 C 8034.36,11225.8 8059.17,11197.4 8059.17,11175.2 C 8059.17,11152.6 8034.36,11123.6 8034.36,11123.6 C 8034.36,11123.6 8232.79,11175.2 8232.79,11175.2 C 8232.79,11175.2 8232.79,11175.2 8232.79,11175.2 " />
<text x="0" y="0" stroke="none" fill="#000000" transform="matrix(0.0666667 0 0 0.0666667 370.755 346.681)" font-style="normal" font-weight="normal" font-size="360px" font-family="Arial" >
TsOH</text>
<text x="0" y="0" stroke="none" fill="#000000" transform="matrix(0.0666667 0 0 0.0666667 369.918 415.148)" font-style="normal" font-weight="normal" font-size="360px" font-family="Arial" >
110</text>
<text x="0" y="0" stroke="none" fill="#000000" transform="matrix(0.0666667 0 0 0.0666667 409.961 405.681)" font-style="normal" font-weight="normal" font-size="270px" font-family="Arial" >
o</text>
<text x="0" y="0" stroke="none" fill="#000000" transform="matrix(0.0666667 0 0 0.0666667 419.972 415.148)" font-style="normal" font-weight="normal" font-size="360px" font-family="Arial" >
C</text>
<text x="0" y="0" stroke="none" fill="#000000" transform="matrix(0.0666667 0 0 0.0666667 366.918 385.214)" font-style="normal" font-weight="normal" font-size="360px" font-family="Arial" >
toluene</text>
<text x="0" y="0" stroke="none" fill="#808080" transform="matrix(0.0666667 0 0 0.0666667 143.181 226.427)" font-style="normal" font-weight="normal" font-size="480px" font-family="Arial" >
3a-с</text>
<text x="0" y="0" stroke="none" fill="#808080" transform="matrix(0.0666667 0 0 0.0666667 1082.18 232.427)" font-style="normal" font-weight="normal" font-size="480px" font-family="Arial" >
5a-с</text>
<text x="0" y="0" stroke="none" fill="#808080" transform="matrix(0.0666667 0 0 0.0666667 160.181 478.56)" font-style="normal" font-weight="normal" font-size="480px" font-family="Arial" >
5a-с</text>
<text x="0" y="0" stroke="none" fill="#808080" transform="matrix(0.0666667 0 0 0.0666667 607.181 476.56)" font-style="normal" font-weight="normal" font-size="480px" font-family="Arial" >
6a-с</text>
<text x="0" y="0" stroke="none" fill="#000000" transform="matrix(0.0666667 0 0 0.0666667 326.666 207.133)" font-style="normal" font-weight="normal" font-size="360px" font-family="Arial" >
PG </text>
<text x="0" y="0" stroke="none" fill="#000000" transform="matrix(0.0666667 0 0 0.0666667 368.01 207.133)" font-style="normal" font-weight="normal" font-size="360px" font-family="Arial" >
= </text>
<text x="0" y="0" stroke="none" fill="#000000" transform="matrix(0.0666667 0 0 0.0666667 388.693 207.133)" font-style="normal" font-weight="normal" font-size="360px" font-family="Arial" >
Me </text>
<text x="0" y="0" stroke="none" fill="#000000" transform="matrix(0.0666667 0 0 0.0666667 428.709 207.133)" font-style="normal" font-weight="normal" font-size="360px" font-family="Arial" >
or </text>
<text x="0" y="0" stroke="none" fill="#000000" transform="matrix(0.0666667 0 0 0.0666667 456.725 207.133)" font-style="normal" font-weight="normal" font-size="360px" font-family="Arial" >
Et</text>
</svg>
