<?xml version="1.0" standalone="no" ?>
<!DOCTYPE svg PUBLIC "-//W3C//DTD SVG 1.1//EN" "http://www.w3.org/Graphics/SVG/1.1/DTD/svg11.dtd">
<svg width="219px" height="110px" viewBox="0 0 219 110" style="background-color: #ffffff00" xmlns="http://www.w3.org/2000/svg" xmlns:xlink="http://www.w3.org/1999/xlink" version="1.1" >
<path stroke="none" fill="#000000" transform="matrix(0.0666667 0 0 0.0666667 -290 -322.867)" d="M 4748.05,5420.81 L 4748.08,5413.88 L 4754.1,5410.44 L 4883.32,5485.78 L 4897.38,5500.92 L 4891.36,5504.36 L 4748.05,5420.81 Z " />
<path stroke="none" fill="#000000" transform="matrix(0.0666667 0 0 0.0666667 -290 -322.867)" d="M 4604.04,5503.15 L 4592.07,5496.17 L 4742.1,5410.39 L 4748.08,5413.88 L 4748.05,5420.81 L 4604.04,5503.15 Z " />
<path stroke="none" fill="#000000" transform="matrix(0.0666667 0 0 0.0666667 -290 -322.867)" d="M 4632.07,5522.96 L 4626.11,5512.54 L 4744.95,5444.59 L 4750.91,5455.01 L 4632.07,5522.96 Z " />
<path stroke="none" fill="#000000" transform="matrix(0.0666667 0 0 0.0666667 -290 -322.867)" d="M 4603.35,5669.03 L 4597.33,5672.47 L 4591.42,5652.67 L 4592.07,5496.17 L 4604.04,5503.15 L 4603.35,5669.03 Z " />
<path stroke="none" fill="#000000" transform="matrix(0.0666667 0 0 0.0666667 -290 -322.867)" d="M 4746.66,5752.58 L 4746.63,5759.51 L 4740.61,5762.95 L 4611.4,5687.61 L 4597.33,5672.47 L 4603.35,5669.03 L 4746.66,5752.58 Z " />
<path stroke="none" fill="#000000" transform="matrix(0.0666667 0 0 0.0666667 -290 -322.867)" d="M 4749.8,5718.4 L 4743.76,5728.77 L 4625.49,5659.83 L 4631.54,5649.46 L 4749.8,5718.4 Z " />
<path stroke="none" fill="#000000" transform="matrix(0.0666667 0 0 0.0666667 -290 -322.867)" d="M 4890.67,5670.24 L 4902.64,5677.22 L 4752.61,5763 L 4746.63,5759.51 L 4746.66,5752.58 L 4890.67,5670.24 Z " />
<path stroke="none" fill="#000000" transform="matrix(0.0666667 0 0 0.0666667 -290 -322.867)" d="M 4902.64,5677.22 L 4890.67,5670.24 L 4891.36,5504.36 L 4897.38,5500.92 L 4903.29,5520.72 L 4902.64,5677.22 Z " />
<path stroke="none" fill="#000000" transform="matrix(0.0666667 0 0 0.0666667 -290 -322.867)" d="M 4871.62,5655.67 L 4859.62,5655.61 L 4860.2,5518.72 L 4872.2,5518.77 L 4871.62,5655.67 Z " />
<text x="0" y="0" stroke="none" fill="#000000" transform="matrix(0.0666667 0 0 0.0666667 22.9869 30.4382)" font-style="normal" font-weight="normal" font-size="150px" font-family="Arial" >
COOH</text>
<path stroke="none" fill="#000000" transform="matrix(0.0666667 0 0 0.0666667 -290 -322.867)" d="M 4742.42,5333.13 L 4754.42,5333.18 L 4754.1,5410.44 L 4748.08,5413.88 L 4742.1,5410.39 L 4742.42,5333.13 Z " />
<text x="0" y="0" stroke="none" fill="#000000" transform="matrix(0.0666667 0 0 0.0666667 42.893 42.0428)" font-style="normal" font-weight="normal" font-size="150px" font-family="Arial" >
H</text>
<path stroke="none" fill="#ff0000" transform="matrix(0.0666667 0 0 0.0666667 -290 -322.867)" d="M 4954.1,5445.3 L 4974.08,5480.25 L 4903.29,5520.72 L 4897.38,5500.92 L 4883.32,5485.78 L 4954.1,5445.3 Z " />
<path stroke="none" fill="#0000ff" transform="matrix(0.0666667 0 0 0.0666667 -290 -322.867)" d="M 6043.94,5188.2 L 6043.9,5200.2 L 5870.61,5199.72 L 5870.65,5187.72 L 6043.94,5188.2 Z " />
<path stroke="none" fill="#0000ff" transform="matrix(0.0666667 0 0 0.0666667 -290 -322.867)" d="M 6043.85,5219.39 L 6043.82,5231.39 L 5870.53,5230.91 L 5870.56,5218.91 L 6043.85,5219.39 Z " />
<path stroke="none" fill="#0000ff" transform="matrix(0.0666667 0 0 0.0666667 -290 -322.867)" d="M 6043.76,5250.58 L 6043.73,5262.58 L 5870.44,5262.1 L 5870.47,5250.1 L 6043.76,5250.58 Z " />
<text x="0" y="0" stroke="none" fill="#0000ff" transform="matrix(0.0666667 0 0 0.0666667 86.157 29.3286)" font-style="normal" font-weight="normal" font-size="150px" font-family="Arial" >
R</text>
<text x="0" y="0" stroke="none" fill="#0000ff" transform="matrix(0.0666667 0 0 0.0666667 93.3787 25.4286)" font-style="normal" font-weight="normal" font-size="112.5px" font-family="Arial" >
1</text>
<path stroke="none" fill="#0000ff" transform="matrix(0.0666667 0 0 0.0666667 -290 -322.867)" d="M 5824.09,5230.78 L 5824.12,5218.78 L 5870.56,5218.91 L 5870.53,5230.91 L 5824.09,5230.78 Z " />
<text x="0" y="0" stroke="none" fill="#0000ff" transform="matrix(0.0666667 0 0 0.0666667 120.875 29.4247)" font-style="normal" font-weight="normal" font-size="150px" font-family="Arial" >
R</text>
<text x="0" y="0" stroke="none" fill="#0000ff" transform="matrix(0.0666667 0 0 0.0666667 128.096 25.5247)" font-style="normal" font-weight="normal" font-size="112.5px" font-family="Arial" >
2</text>
<path stroke="none" fill="#0000ff" transform="matrix(0.0666667 0 0 0.0666667 -290 -322.867)" d="M 6143.39,5219.67 L 6143.36,5231.67 L 6043.82,5231.39 L 6043.85,5219.39 L 6143.39,5219.67 Z " />
<path stroke="none" fill="#000000" transform="matrix(0.0666667 0 0 0.0666667 -290 -322.867)" d="M 7214.84,5741.17 L 7218.33,5747.16 L 7214.87,5753.17 L 7048.68,5753.79 L 7045.1,5747.8 L 7048.54,5741.79 L 7214.84,5741.17 Z " />
<path stroke="none" fill="#000000" transform="matrix(0.0666667 0 0 0.0666667 -290 -322.867)" d="M 7297.61,5596.86 L 7311.47,5596.81 L 7225.25,5747.15 L 7218.33,5747.16 L 7214.84,5741.17 L 7297.61,5596.86 Z " />
<path stroke="none" fill="#000000" transform="matrix(0.0666667 0 0 0.0666667 -290 -322.867)" d="M 7263.31,5593.97 L 7273.72,5599.94 L 7205.42,5719.02 L 7195.01,5713.05 L 7263.31,5593.97 Z " />
<path stroke="none" fill="#000000" transform="matrix(0.0666667 0 0 0.0666667 -290 -322.867)" d="M 7213.78,5452.86 L 7217.22,5446.85 L 7224.15,5446.82 L 7311.47,5596.81 L 7297.61,5596.86 L 7213.78,5452.86 Z " />
<path stroke="none" fill="#000000" transform="matrix(0.0666667 0 0 0.0666667 -290 -322.867)" d="M 7047.48,5453.47 L 7043.99,5447.48 L 7047.44,5441.47 L 7213.73,5440.86 L 7217.22,5446.85 L 7213.78,5452.86 L 7047.48,5453.47 Z " />
<path stroke="none" fill="#000000" transform="matrix(0.0666667 0 0 0.0666667 -290 -322.867)" d="M 7062.13,5484.6 L 7062.09,5472.6 L 7199.31,5472.09 L 7199.35,5484.09 L 7062.13,5484.6 Z " />
<path stroke="none" fill="#000000" transform="matrix(0.0666667 0 0 0.0666667 -290 -322.867)" d="M 6964.71,5598.09 L 6950.85,5598.14 L 7037.07,5447.51 L 7043.99,5447.48 L 7047.48,5453.47 L 6964.71,5598.09 Z " />
<path stroke="none" fill="#000000" transform="matrix(0.0666667 0 0 0.0666667 -290 -322.867)" d="M 6950.85,5598.14 L 6964.71,5598.09 L 7048.54,5741.79 L 7045.1,5747.8 L 7038.22,5747.91 L 6950.85,5598.14 Z " />
<path stroke="none" fill="#000000" transform="matrix(0.0666667 0 0 0.0666667 -290 -322.867)" d="M 6988.63,5600.99 L 6998.99,5594.94 L 7068.16,5713.52 L 7057.8,5719.56 L 6988.63,5600.99 Z " />
<text x="0" y="0" stroke="none" fill="#000000" transform="matrix(0.0666667 0 0 0.0666667 187.542 84.5102)" font-style="normal" font-weight="normal" font-size="150px" font-family="Arial" >
O</text>
<path stroke="none" fill="#000000" transform="matrix(0.0666667 0 0 0.0666667 -290 -322.867)" d="M 7139.36,6046.46 L 7139.41,6058.46 L 7051.89,6058.78 L 7048.41,6052.79 L 7051.85,6046.78 L 7139.36,6046.46 Z " />
<path stroke="none" fill="#000000" transform="matrix(0.0666667 0 0 0.0666667 -290 -322.867)" d="M 7300.92,5901.84 L 7314.77,5901.81 L 7267.67,5983.94 L 7257.26,5977.97 L 7300.92,5901.84 Z " />
<path stroke="none" fill="#0000ff" transform="matrix(0.0666667 0 0 0.0666667 -290 -322.867)" d="M 6957.65,5909.12 L 6961.09,5903.11 L 6967.97,5903 L 7051.85,6046.78 L 7048.41,6052.79 L 7041.48,6052.82 L 6957.65,5909.12 Z " />
<path stroke="none" fill="#0000ff" transform="matrix(0.0666667 0 0 0.0666667 -290 -322.867)" d="M 6991.68,5905.55 L 7002.05,5899.51 L 7071.47,6018.51 L 7061.1,6024.56 L 6991.68,5905.55 Z " />
<path stroke="none" fill="#000000" transform="matrix(0.0666667 0 0 0.0666667 -290 -322.867)" d="M 7314.77,5901.81 L 7300.92,5901.84 L 7214.87,5753.17 L 7218.33,5747.16 L 7225.25,5747.15 L 7314.77,5901.81 Z " />
<path stroke="none" fill="#000000" transform="matrix(0.0666667 0 0 0.0666667 -290 -322.867)" d="M 6967.97,5903 L 6961.09,5903.11 L 6957.51,5897.12 L 7038.22,5747.91 L 7045.1,5747.8 L 7048.68,5753.79 L 6967.97,5903 Z " />
<text x="0" y="0" stroke="none" fill="#0000ff" transform="matrix(0.0666667 0 0 0.0666667 170.495 94.579)" font-style="normal" font-weight="normal" font-size="150px" font-family="Arial" >
R</text>
<text x="0" y="0" stroke="none" fill="#0000ff" transform="matrix(0.0666667 0 0 0.0666667 177.716 90.679)" font-style="normal" font-weight="normal" font-size="112.5px" font-family="Arial" >
1</text>
<path stroke="none" fill="#0000ff" transform="matrix(0.0666667 0 0 0.0666667 -290 -322.867)" d="M 7035.78,6086.94 L 7025.36,6080.97 L 7043.2,6049.81 L 7048.41,6052.79 L 7053.62,6055.77 L 7035.78,6086.94 Z " />
<text x="0" y="0" stroke="none" fill="#0000ff" transform="matrix(0.0666667 0 0 0.0666667 158.86 74.6164)" font-style="normal" font-weight="normal" font-size="150px" font-family="Arial" >
R</text>
<text x="0" y="0" stroke="none" fill="#0000ff" transform="matrix(0.0666667 0 0 0.0666667 166.082 70.7164)" font-style="normal" font-weight="normal" font-size="112.5px" font-family="Arial" >
2</text>
<path stroke="none" fill="#0000ff" transform="matrix(0.0666667 0 0 0.0666667 -290 -322.867)" d="M 6928.68,5909.23 L 6928.63,5897.23 L 6961.07,5897.11 L 6961.09,5903.11 L 6961.11,5909.11 L 6928.68,5909.23 Z " />
<text x="0" y="0" stroke="none" fill="#000000" transform="matrix(0.0666667 0 0 0.0666667 204.842 74.4459)" font-style="normal" font-weight="normal" font-size="150px" font-family="Arial" >
O</text>
<path stroke="none" fill="#000000" transform="matrix(0.0666667 0 0 0.0666667 -290 -322.867)" d="M 7398.81,5879.9 L 7398.85,5891.9 L 7298.86,5892.27 L 7298.81,5880.27 L 7398.81,5879.9 Z " />
<path stroke="none" fill="#000000" transform="matrix(0.0666667 0 0 0.0666667 -290 -322.867)" d="M 7398.92,5911.09 L 7398.97,5923.09 L 7298.9,5923.46 L 7298.86,5911.46 L 7398.92,5911.09 Z " />
<text x="0" y="0" stroke="none" fill="#000000" transform="matrix(0.0666667 0 0 0.0666667 22.7932 76.5212)" font-style="normal" font-weight="normal" font-size="150px" font-family="Arial" >
COOH</text>
<path stroke="none" fill="#000000" transform="matrix(0.0666667 0 0 0.0666667 -290 -322.867)" d="M 4752.25,5850.93 L 4740.25,5850.88 L 4740.61,5762.95 L 4746.63,5759.51 L 4752.61,5763 L 4752.25,5850.93 Z " />
<text x="0" y="0" stroke="none" fill="#000000" transform="matrix(0.0666667 0 0 0.0666667 2.85226 64.9365)" font-style="normal" font-weight="normal" font-size="150px" font-family="Arial" >
H</text>
<path stroke="none" fill="#ff0000" transform="matrix(0.0666667 0 0 0.0666667 -290 -322.867)" d="M 4536.39,5730.5 L 4516.41,5695.56 L 4591.42,5652.67 L 4597.33,5672.47 L 4611.4,5687.61 L 4536.39,5730.5 Z " />
<text x="0" y="0" stroke="none" fill="#000000" transform="matrix(0.0666667 0 0 0.0666667 175.626 24.1969)" font-style="normal" font-weight="normal" font-size="150px" font-family="Arial" >
O</text>
<path stroke="none" fill="#000000" transform="matrix(0.0666667 0 0 0.0666667 -290 -322.867)" d="M 7296.35,5296.54 L 7303.28,5296.51 L 7306.76,5302.5 L 7224.15,5446.82 L 7217.22,5446.85 L 7213.73,5440.86 L 7296.35,5296.54 Z " />
<path stroke="none" fill="#008040" transform="matrix(0.0666667 0 0 0.0666667 -290 -322.867)" d="M 7212.67,5152.83 L 7216.11,5146.81 L 7223.04,5146.79 L 7306.72,5290.5 L 7303.28,5296.51 L 7296.35,5296.54 L 7212.67,5152.83 Z " />
<path stroke="none" fill="#008040" transform="matrix(0.0666667 0 0 0.0666667 -290 -322.867)" d="M 7193.04,5181.08 L 7203.41,5175.04 L 7272.46,5293.62 L 7262.09,5299.66 L 7193.04,5181.08 Z " />
<path stroke="none" fill="#000000" transform="matrix(0.0666667 0 0 0.0666667 -290 -322.867)" d="M 7125.16,5153.15 L 7125.11,5141.15 L 7212.62,5140.83 L 7216.11,5146.81 L 7212.67,5152.83 L 7125.16,5153.15 Z " />
<path stroke="none" fill="#000000" transform="matrix(0.0666667 0 0 0.0666667 -290 -322.867)" d="M 6963.76,5297.76 L 6949.9,5297.81 L 6992.13,5224.05 L 7002.54,5230.01 L 6963.76,5297.76 Z " />
<path stroke="none" fill="#000000" transform="matrix(0.0666667 0 0 0.0666667 -290 -322.867)" d="M 7047.44,5441.47 L 7043.99,5447.48 L 7037.07,5447.51 L 6949.9,5297.81 L 6963.76,5297.76 L 7047.44,5441.47 Z " />
<text x="0" y="0" stroke="none" fill="#000000" transform="matrix(0.0666667 0 0 0.0666667 158.327 34.2619)" font-style="normal" font-weight="normal" font-size="150px" font-family="Arial" >
O</text>
<path stroke="none" fill="#000000" transform="matrix(0.0666667 0 0 0.0666667 -290 -322.867)" d="M 6865.74,5319.73 L 6865.7,5307.73 L 6965.88,5307.36 L 6965.92,5319.36 L 6865.74,5319.73 Z " />
<path stroke="none" fill="#000000" transform="matrix(0.0666667 0 0 0.0666667 -290 -322.867)" d="M 6865.63,5288.52 L 6865.58,5276.52 L 6965.76,5276.15 L 6965.8,5288.15 L 6865.63,5288.52 Z " />
<text x="0" y="0" stroke="none" fill="#008040" transform="matrix(0.0666667 0 0 0.0666667 193.217 14.121)" font-style="normal" font-weight="normal" font-size="150px" font-family="Arial" >
R</text>
<text x="0" y="0" stroke="none" fill="#008040" transform="matrix(0.0666667 0 0 0.0666667 200.439 10.221)" font-style="normal" font-weight="normal" font-size="112.5px" font-family="Arial" >
3</text>
<path stroke="none" fill="#008040" transform="matrix(0.0666667 0 0 0.0666667 -290 -322.867)" d="M 7245.91,5082.68 L 7256.32,5088.64 L 7223.04,5146.79 L 7216.11,5146.81 L 7212.62,5140.83 L 7245.91,5082.68 Z " />
<text x="0" y="0" stroke="none" fill="#008040" transform="matrix(0.0666667 0 0 0.0666667 204.846 34.0914)" font-style="normal" font-weight="normal" font-size="150px" font-family="Arial" >
R</text>
<text x="0" y="0" stroke="none" fill="#008040" transform="matrix(0.0666667 0 0 0.0666667 212.067 30.1914)" font-style="normal" font-weight="normal" font-size="112.5px" font-family="Arial" >
4</text>
<path stroke="none" fill="#008040" transform="matrix(0.0666667 0 0 0.0666667 -290 -322.867)" d="M 7402.92,5290.14 L 7402.96,5302.14 L 7306.76,5302.5 L 7303.28,5296.51 L 7306.72,5290.5 L 7402.92,5290.14 Z " />
<path stroke="none" fill="#008040" transform="matrix(0.0666667 0 0 0.0666667 -290 -322.867)" d="M 6043.94,5403.34 L 6043.9,5415.34 L 5870.61,5414.86 L 5870.65,5402.86 L 6043.94,5403.34 Z " />
<path stroke="none" fill="#008040" transform="matrix(0.0666667 0 0 0.0666667 -290 -322.867)" d="M 6043.85,5434.54 L 6043.82,5446.54 L 5870.53,5446.06 L 5870.56,5434.06 L 6043.85,5434.54 Z " />
<path stroke="none" fill="#008040" transform="matrix(0.0666667 0 0 0.0666667 -290 -322.867)" d="M 6043.76,5465.73 L 6043.73,5477.73 L 5870.44,5477.25 L 5870.47,5465.25 L 6043.76,5465.73 Z " />
<text x="0" y="0" stroke="none" fill="#008040" transform="matrix(0.0666667 0 0 0.0666667 86.157 43.6716)" font-style="normal" font-weight="normal" font-size="150px" font-family="Arial" >
R</text>
<text x="0" y="0" stroke="none" fill="#008040" transform="matrix(0.0666667 0 0 0.0666667 93.3787 39.7716)" font-style="normal" font-weight="normal" font-size="112.5px" font-family="Arial" >
3</text>
<path stroke="none" fill="#008040" transform="matrix(0.0666667 0 0 0.0666667 -290 -322.867)" d="M 5839.09,5445.97 L 5839.12,5433.97 L 5870.56,5434.06 L 5870.53,5446.06 L 5839.09,5445.97 Z " />
<text x="0" y="0" stroke="none" fill="#008040" transform="matrix(0.0666667 0 0 0.0666667 120.875 43.7679)" font-style="normal" font-weight="normal" font-size="150px" font-family="Arial" >
R</text>
<text x="0" y="0" stroke="none" fill="#008040" transform="matrix(0.0666667 0 0 0.0666667 128.096 39.8679)" font-style="normal" font-weight="normal" font-size="112.5px" font-family="Arial" >
4</text>
<path stroke="none" fill="#008040" transform="matrix(0.0666667 0 0 0.0666667 -290 -322.867)" d="M 6143.39,5434.81 L 6143.36,5446.81 L 6043.82,5446.54 L 6043.85,5434.54 L 6143.39,5434.81 Z " />
<text x="0" y="0" stroke="none" fill="#800000" transform="matrix(0.0666667 0 0 0.0666667 98.1382 14.0932)" font-style="normal" font-weight="normal" font-size="150px" font-family="Arial" >
[Rh]</text>
<text x="0" y="0" stroke="none" fill="#000000" transform="matrix(0.0666667 0 0 0.0666667 93.1916 100.129)" font-style="normal" font-weight="normal" font-size="160px" font-family="Arial" >
step-by-step</text>
<text x="0" y="0" stroke="none" fill="#000000" transform="matrix(0.0666667 0 0 0.0666667 92.1916 70.6295)" font-style="normal" font-weight="normal" font-size="160px" font-family="Arial" >
one-pot</text>
<path stroke="none" fill="#ff0000" transform="matrix(0.0666667 0 0 0.0666667 -290 -322.867)" d="M 5305.81,5782.62 C 5328.44,5759.54 5351.02,5736.46 5373.48,5713.32 C 5400.11,5739.16 5425.95,5765.9 5452.08,5792.31 C 5478.65,5767.2 5504.21,5741.02 5530.39,5715.51 C 5554.09,5737.75 5576.84,5761.01 5600.48,5783.24 C 5574.87,5808.52 5549.31,5833.8 5523.8,5859.19 C 5520.88,5860.99 5522.28,5863.98 5524.48,5865.72 C 5548.97,5890.61 5573.52,5915.32 5598.01,5940.21 C 5575.49,5963.57 5552.52,5986.49 5530.11,6010.02 C 5504.32,5984.35 5479.04,5958.11 5453.09,5932.61 C 5450.84,5930.07 5448.25,5933.96 5446.5,5935.14 C 5422.13,5959.46 5397.63,5983.62 5373.09,6007.71 C 5350.06,5985.08 5327.03,5962.45 5303.67,5940.15 C 5329.34,5913.35 5356.25,5887.68 5382.6,5861.5 C 5357.89,5834.36 5330.92,5809.37 5305.81,5782.62 C 5305.81,5782.62 5305.81,5782.62 5305.81,5782.62 " />
<path stroke="#ff0000" stroke-width="1" fill="none" transform="matrix(0.0666667 0 0 0.0666667 -290 -322.867)" d="M 5305.81,5782.62 C 5328.44,5759.54 5351.02,5736.46 5373.48,5713.32 C 5400.11,5739.16 5425.95,5765.9 5452.08,5792.31 C 5478.65,5767.2 5504.21,5741.02 5530.39,5715.51 C 5554.09,5737.75 5576.84,5761.01 5600.48,5783.24 C 5574.87,5808.52 5549.31,5833.8 5523.8,5859.19 C 5520.88,5860.99 5522.28,5863.98 5524.48,5865.72 C 5548.97,5890.61 5573.52,5915.32 5598.01,5940.21 C 5575.49,5963.57 5552.52,5986.49 5530.11,6010.02 C 5504.32,5984.35 5479.04,5958.11 5453.09,5932.61 C 5450.84,5930.07 5448.25,5933.96 5446.5,5935.14 C 5422.13,5959.46 5397.63,5983.62 5373.09,6007.71 C 5350.06,5985.08 5327.03,5962.45 5303.67,5940.15 C 5329.34,5913.35 5356.25,5887.68 5382.6,5861.5 C 5357.89,5834.36 5330.92,5809.37 5305.81,5782.62 C 5305.81,5782.62 5305.81,5782.62 5305.81,5782.62 " />
<path stroke="none" fill="#ff0000" transform="matrix(0.0666667 0 0 0.0666667 -290 -322.867)" d="M 5305.81,5782.62 C 5330.92,5809.37 5357.89,5834.36 5382.6,5861.5 C 5356.25,5887.68 5329.34,5913.35 5303.67,5940.15 C 5327.03,5962.45 5350.06,5985.08 5373.09,6007.71 C 5397.63,5983.62 5422.13,5959.46 5446.5,5935.14 C 5448.25,5933.96 5450.84,5930.07 5453.09,5932.61 C 5479.04,5958.11 5504.32,5984.35 5530.11,6010.02 C 5552.52,5986.49 5575.49,5963.57 5598.01,5940.21 C 5573.52,5915.32 5548.97,5890.61 5524.48,5865.72 C 5522.28,5863.98 5520.88,5860.99 5523.8,5859.19 C 5549.31,5833.8 5574.87,5808.52 5600.48,5783.24 C 5576.84,5761.01 5554.09,5737.75 5530.39,5715.51 C 5504.21,5741.02 5478.65,5767.2 5452.08,5792.31 C 5425.95,5765.9 5400.11,5739.16 5373.48,5713.32 C 5351.02,5736.46 5328.44,5759.54 5305.81,5782.62 C 5305.81,5782.62 5305.81,5782.62 5305.81,5782.62 " />
<path stroke="#ff0000" stroke-width="1" fill="none" transform="matrix(0.0666667 0 0 0.0666667 -290 -322.867)" d="M 5305.81,5782.62 C 5330.92,5809.37 5357.89,5834.36 5382.6,5861.5 C 5356.25,5887.68 5329.34,5913.35 5303.67,5940.15 C 5327.03,5962.45 5350.06,5985.08 5373.09,6007.71 C 5397.63,5983.62 5422.13,5959.46 5446.5,5935.14 C 5448.25,5933.96 5450.84,5930.07 5453.09,5932.61 C 5479.04,5958.11 5504.32,5984.35 5530.11,6010.02 C 5552.52,5986.49 5575.49,5963.57 5598.01,5940.21 C 5573.52,5915.32 5548.97,5890.61 5524.48,5865.72 C 5522.28,5863.98 5520.88,5860.99 5523.8,5859.19 C 5549.31,5833.8 5574.87,5808.52 5600.48,5783.24 C 5576.84,5761.01 5554.09,5737.75 5530.39,5715.51 C 5504.21,5741.02 5478.65,5767.2 5452.08,5792.31 C 5425.95,5765.9 5400.11,5739.16 5373.48,5713.32 C 5351.02,5736.46 5328.44,5759.54 5305.81,5782.62 C 5305.81,5782.62 5305.81,5782.62 5305.81,5782.62 " />
<path stroke="none" fill="#008080" transform="matrix(0.0666667 0 0 0.0666667 -290 -322.867)" d="M 5431.72,6334.97 C 5473.35,6239.45 5522.79,6134.97 5615.58,6080.07 C 5610.32,6124.05 5603.05,6170.56 5621.08,6212.73 C 5596.02,6223.42 5575.99,6242.56 5557.5,6262.01 C 5510.79,6313.52 5469.05,6370.14 5437.14,6432.03 C 5397.78,6382.37 5355.65,6330.32 5296.72,6303.37 C 5326.97,6282.84 5356.57,6261.05 5387.9,6242.29 C 5402.47,6273.16 5415.04,6305.29 5431.72,6334.97 C 5431.72,6334.97 5431.72,6334.97 5431.72,6334.97 " />
<path stroke="#008080" stroke-width="1" fill="none" transform="matrix(0.0666667 0 0 0.0666667 -290 -322.867)" d="M 5431.72,6334.97 C 5473.35,6239.45 5522.79,6134.97 5615.58,6080.07 C 5610.32,6124.05 5603.05,6170.56 5621.08,6212.73 C 5596.02,6223.42 5575.99,6242.56 5557.5,6262.01 C 5510.79,6313.52 5469.05,6370.14 5437.14,6432.03 C 5397.78,6382.37 5355.65,6330.32 5296.72,6303.37 C 5326.97,6282.84 5356.57,6261.05 5387.9,6242.29 C 5402.47,6273.16 5415.04,6305.29 5431.72,6334.97 C 5431.72,6334.97 5431.72,6334.97 5431.72,6334.97 " />
<path stroke="none" fill="#000000" transform="matrix(0.0666667 0 0 0.0666667 -290 -322.867)" d="M 6526,5593.5 L 5265,5593.5 L 5265,5581.5 L 6526,5581.5 Z " />
<path stroke="none" fill="#000000" transform="matrix(0.0666667 0 0 0.0666667 -290 -322.867)" d="M 6630,5587.5 C 6630,5587.5 6510,5618.5 6510,5618.5 C 6510,5618.5 6525,5601.06 6525,5587.5 C 6525,5573.5 6510,5555.5 6510,5555.5 C 6510,5555.5 6630,5587.5 6630,5587.5 C 6630,5587.5 6630,5587.5 6630,5587.5 " />
<path stroke="#000000" stroke-width="1" fill="none" transform="matrix(0.0666667 0 0 0.0666667 -290 -322.867)" d="M 6630,5587.5 C 6630,5587.5 6510,5618.5 6510,5618.5 C 6510,5618.5 6525,5601.06 6525,5587.5 C 6525,5573.5 6510,5555.5 6510,5555.5 C 6510,5555.5 6630,5587.5 6630,5587.5 C 6630,5587.5 6630,5587.5 6630,5587.5 " />
</svg>
