<?xml version="1.0" standalone="no" ?>
<!DOCTYPE svg PUBLIC "-//W3C//DTD SVG 1.1//EN" "http://www.w3.org/Graphics/SVG/1.1/DTD/svg11.dtd">
<svg width="304px" height="51px" viewBox="0 0 304 51" style="background-color: #ffffff00" xmlns="http://www.w3.org/2000/svg" xmlns:xlink="http://www.w3.org/1999/xlink" version="1.1" >
<text x="0" y="0" stroke="none" fill="#000000" transform="matrix(0.0666667 0 0 0.0666667 3.15441 25.5792)" font-style="normal" font-weight="normal" font-size="140px" font-family="Arial" >
MFI</text>
<text x="0" y="0" stroke="none" fill="#000000" transform="matrix(0.0666667 0 0 0.0666667 261.15 25.5792)" font-style="normal" font-weight="normal" font-size="140px" font-family="Arial" >
CuPt/MFI</text>
<text x="0" y="0" stroke="none" fill="#000000" transform="matrix(0.0666667 0 0 0.0666667 61.852 14.8458)" font-style="normal" font-weight="normal" font-size="140px" font-family="Arial" >
1. </text>
<text x="0" y="0" stroke="none" fill="#000000" transform="matrix(0.0666667 0 0 0.0666667 72.252 14.8458)" font-style="normal" font-weight="normal" font-size="140px" font-family="Arial" >
Impregnation </text>
<text x="0" y="0" stroke="none" fill="#000000" transform="matrix(0.0666667 0 0 0.0666667 129.459 14.8458)" font-style="normal" font-weight="normal" font-size="140px" font-family="Arial" >
(NaCl),</text>
<text x="0" y="0" stroke="none" fill="#000000" transform="matrix(0.0666667 0 0 0.0666667 61.852 29.8458)" font-style="normal" font-weight="normal" font-size="140px" font-family="Arial" >
 </text>
<text x="0" y="0" stroke="none" fill="#000000" transform="matrix(0.0666667 0 0 0.0666667 64.452 29.8458)" font-style="normal" font-weight="normal" font-size="140px" font-family="Arial" >
 </text>
<text x="0" y="0" stroke="none" fill="#000000" transform="matrix(0.0666667 0 0 0.0666667 67.052 29.8458)" font-style="normal" font-weight="normal" font-size="140px" font-family="Arial" >
 </text>
<text x="0" y="0" stroke="none" fill="#000000" transform="matrix(0.0666667 0 0 0.0666667 69.652 29.8458)" font-style="normal" font-weight="normal" font-size="140px" font-family="Arial" >
 </text>
<text x="0" y="0" stroke="none" fill="#000000" transform="matrix(0.0666667 0 0 0.0666667 72.252 29.8458)" font-style="normal" font-weight="normal" font-size="140px" font-family="Arial" >
Water </text>
<text x="0" y="0" stroke="none" fill="#000000" transform="matrix(0.0666667 0 0 0.0666667 99.7946 29.8458)" font-style="normal" font-weight="normal" font-size="140px" font-family="Arial" >
washing</text>
<text x="0" y="0" stroke="none" fill="#000000" transform="matrix(0.0666667 0 0 0.0666667 61.852 44.8458)" font-style="normal" font-weight="normal" font-size="140px" font-family="Arial" >
2. </text>
<text x="0" y="0" stroke="none" fill="#000000" transform="matrix(0.0666667 0 0 0.0666667 72.252 44.8458)" font-style="normal" font-weight="normal" font-size="140px" font-family="Arial" >
Impregnation </text>
<text x="0" y="0" stroke="none" fill="#000000" transform="matrix(0.0666667 0 0 0.0666667 129.459 44.8458)" font-style="normal" font-weight="normal" font-size="140px" font-family="Arial" >
(H</text>
<text x="0" y="0" stroke="none" fill="#000000" transform="matrix(0.0666667 0 0 0.0666667 139.333 46.9125)" font-style="normal" font-weight="normal" font-size="105px" font-family="Arial" >
2</text>
<text x="0" y="0" stroke="none" fill="#000000" transform="matrix(0.0666667 0 0 0.0666667 143.233 44.8458)" font-style="normal" font-weight="normal" font-size="140px" font-family="Arial" >
PtCl</text>
<text x="0" y="0" stroke="none" fill="#000000" transform="matrix(0.0666667 0 0 0.0666667 160.872 46.9125)" font-style="normal" font-weight="normal" font-size="105px" font-family="Arial" >
6</text>
<text x="0" y="0" stroke="none" fill="#000000" transform="matrix(0.0666667 0 0 0.0666667 164.772 44.8458)" font-style="normal" font-weight="normal" font-size="140px" font-family="Arial" >
 </text>
<text x="0" y="0" stroke="none" fill="#000000" transform="matrix(0.0666667 0 0 0.0666667 167.372 44.8458)" font-style="normal" font-weight="normal" font-size="140px" font-family="Arial" >
+ </text>
<text x="0" y="0" stroke="none" fill="#000000" transform="matrix(0.0666667 0 0 0.0666667 175.438 44.8458)" font-style="normal" font-weight="normal" font-size="140px" font-family="Arial" >
Cu(NO</text>
<text x="0" y="0" stroke="none" fill="#000000" transform="matrix(0.0666667 0 0 0.0666667 204.519 46.9125)" font-style="normal" font-weight="normal" font-size="105px" font-family="Arial" >
3</text>
<text x="0" y="0" stroke="none" fill="#000000" transform="matrix(0.0666667 0 0 0.0666667 208.419 44.8458)" font-style="normal" font-weight="normal" font-size="140px" font-family="Arial" >
)</text>
<text x="0" y="0" stroke="none" fill="#000000" transform="matrix(0.0666667 0 0 0.0666667 211.552 46.9125)" font-style="normal" font-weight="normal" font-size="105px" font-family="Arial" >
2</text>
<text x="0" y="0" stroke="none" fill="#000000" transform="matrix(0.0666667 0 0 0.0666667 215.452 44.8458)" font-style="normal" font-weight="normal" font-size="140px" font-family="Arial" >
)</text>
<path stroke="none" fill="#000000" transform="matrix(0.0666667 0 0 0.0666667 -15.1003 -360.733)" d="M 935.565,5759.69 L 656.928,5759.69 L 656.928,5750.69 L 935.565,5750.69 Z " />
<path stroke="none" fill="#000000" transform="matrix(0.0666667 0 0 0.0666667 -15.1003 -360.733)" d="M 1013.18,5755.19 C 1013.18,5755.19 923.334,5778.65 923.334,5778.65 C 923.334,5778.65 934.565,5765.45 934.565,5755.19 C 934.565,5744.49 923.334,5730.73 923.334,5730.73 C 923.334,5730.73 1013.18,5755.19 1013.18,5755.19 C 1013.18,5755.19 1013.18,5755.19 1013.18,5755.19 " />
<path stroke="#000000" stroke-width="1" fill="none" transform="matrix(0.0666667 0 0 0.0666667 -15.1003 -360.733)" d="M 1013.18,5755.19 C 1013.18,5755.19 923.334,5778.65 923.334,5778.65 C 923.334,5778.65 934.565,5765.45 934.565,5755.19 C 934.565,5744.49 923.334,5730.73 923.334,5730.73 C 923.334,5730.73 1013.18,5755.19 1013.18,5755.19 C 1013.18,5755.19 1013.18,5755.19 1013.18,5755.19 " />
<path stroke="none" fill="#000000" transform="matrix(0.0666667 0 0 0.0666667 -15.1003 -360.733)" d="M 3925.03,5759.69 L 3646.39,5759.69 L 3646.39,5750.69 L 3925.03,5750.69 Z " />
<path stroke="none" fill="#000000" transform="matrix(0.0666667 0 0 0.0666667 -15.1003 -360.733)" d="M 4002.64,5755.19 C 4002.64,5755.19 3912.8,5778.65 3912.8,5778.65 C 3912.8,5778.65 3924.03,5765.45 3924.03,5755.19 C 3924.03,5744.49 3912.8,5730.73 3912.8,5730.73 C 3912.8,5730.73 4002.64,5755.19 4002.64,5755.19 C 4002.64,5755.19 4002.64,5755.19 4002.64,5755.19 " />
<path stroke="#000000" stroke-width="1" fill="none" transform="matrix(0.0666667 0 0 0.0666667 -15.1003 -360.733)" d="M 4002.64,5755.19 C 4002.64,5755.19 3912.8,5778.65 3912.8,5778.65 C 3912.8,5778.65 3924.03,5765.45 3924.03,5755.19 C 3924.03,5744.49 3912.8,5730.73 3912.8,5730.73 C 3912.8,5730.73 4002.64,5755.19 4002.64,5755.19 C 4002.64,5755.19 4002.64,5755.19 4002.64,5755.19 " />
</svg>
