<?xml version="1.0" standalone="no" ?>
<!DOCTYPE svg PUBLIC "-//W3C//DTD SVG 1.1//EN" "http://www.w3.org/Graphics/SVG/1.1/DTD/svg11.dtd">
<svg width="429px" height="128px" viewBox="0 0 429 128" style="background-color: #ffffff00" xmlns="http://www.w3.org/2000/svg" xmlns:xlink="http://www.w3.org/1999/xlink" version="1.1" >
<text x="0" y="0" stroke="none" fill="#000000" transform="matrix(0.0833333 0 0 0.0833333 190.422 85.9931)" font-style="normal" font-weight="normal" font-size="140px" font-family="Arial" >
O</text>
<text x="0" y="0" stroke="none" fill="#000000" transform="matrix(0.0833333 0 0 0.0833333 199.506 88.5764)" font-style="normal" font-weight="normal" font-size="105px" font-family="Arial" >
2</text>
<text x="0" y="0" stroke="none" fill="#000000" transform="matrix(0.0833333 0 0 0.0833333 204.381 85.9931)" font-style="normal" font-weight="normal" font-size="140px" font-family="Arial" >
N</text>
<path stroke="none" fill="#000000" transform="matrix(0.0833333 0 0 0.0833333 -221.675 -180)" d="M 5404.66,3132.92 L 5407.25,3137.42 L 5404.66,3141.91 L 5227.17,3141.91 L 5227.17,3132.92 L 5404.66,3132.92 Z " />
<path stroke="none" fill="#000000" transform="matrix(0.0833333 0 0 0.0833333 -221.675 -180)" d="M 5531.84,3344.22 L 5526.65,3353.21 L 5404.66,3141.91 L 5407.25,3137.42 L 5412.44,3137.42 L 5531.84,3344.22 Z " />
<path stroke="none" fill="#000000" transform="matrix(0.0833333 0 0 0.0833333 -221.675 -180)" d="M 5561.31,3297.67 L 5553.53,3302.16 L 5459.71,3139.66 L 5467.49,3135.17 L 5561.31,3297.67 Z " />
<path stroke="none" fill="#000000" transform="matrix(0.0833333 0 0 0.0833333 -221.675 -180)" d="M 5770.64,3344.22 L 5773.23,3348.71 L 5770.64,3353.21 L 5526.65,3353.21 L 5531.84,3344.22 L 5770.64,3344.22 Z " />
<path stroke="none" fill="#000000" transform="matrix(0.0833333 0 0 0.0833333 -221.675 -180)" d="M 5890.04,3137.42 L 5895.22,3137.42 L 5897.82,3141.91 L 5778.42,3348.71 L 5773.23,3348.71 L 5770.64,3344.22 L 5890.04,3137.42 Z " />
<path stroke="none" fill="#000000" transform="matrix(0.0833333 0 0 0.0833333 -221.675 -180)" d="M 5834.99,3135.17 L 5842.77,3139.66 L 5748.95,3302.16 L 5741.17,3297.67 L 5834.99,3135.17 Z " />
<path stroke="none" fill="#000000" transform="matrix(0.0833333 0 0 0.0833333 -221.675 -180)" d="M 5770.64,2930.61 L 5773.23,2926.12 L 5778.42,2926.12 L 5897.82,3132.92 L 5895.22,3137.42 L 5890.04,3137.42 L 5770.64,2930.61 Z " />
<path stroke="none" fill="#000000" transform="matrix(0.0833333 0 0 0.0833333 -221.675 -180)" d="M 5531.84,2930.61 L 5526.65,2921.63 L 5770.64,2921.63 L 5773.23,2926.12 L 5770.64,2930.61 L 5531.84,2930.61 Z " />
<path stroke="none" fill="#000000" transform="matrix(0.0833333 0 0 0.0833333 -221.675 -180)" d="M 5557.42,2979.41 L 5557.42,2970.42 L 5745.06,2970.42 L 5745.06,2979.41 L 5557.42,2979.41 Z " />
<path stroke="none" fill="#000000" transform="matrix(0.0833333 0 0 0.0833333 -221.675 -180)" d="M 5412.44,3137.42 L 5407.25,3137.42 L 5404.66,3132.92 L 5526.65,2921.63 L 5531.84,2930.61 L 5412.44,3137.42 Z " />
<text x="0" y="0" stroke="none" fill="#000000" transform="matrix(0.0833333 0 0 0.0833333 265.385 50.777)" font-style="normal" font-weight="normal" font-size="140px" font-family="Arial" >
CN</text>
<path stroke="none" fill="#000000" transform="matrix(0.0833333 0 0 0.0833333 -221.675 -180)" d="M 5851.02,2782.4 L 5858.8,2786.9 L 5778.42,2926.12 L 5773.23,2926.12 L 5770.64,2921.63 L 5851.02,2782.4 Z " />
<text x="0" y="0" stroke="none" fill="#000000" transform="matrix(0.0833333 0 0 0.0833333 285.717 85.9931)" font-style="normal" font-weight="normal" font-size="140px" font-family="Arial" >
N</text>
<path stroke="none" fill="#000000" transform="matrix(0.0833333 0 0 0.0833333 -221.675 -180)" d="M 6074.71,3132.92 L 6074.71,3141.91 L 5897.82,3141.91 L 5895.22,3137.42 L 5897.82,3132.92 L 6074.71,3132.92 Z " />
<text x="0" y="0" stroke="none" fill="#000000" transform="matrix(0.0833333 0 0 0.0833333 265.385 121.209)" font-style="normal" font-weight="normal" font-size="140px" font-family="Arial" >
CN</text>
<path stroke="none" fill="#000000" transform="matrix(0.0833333 0 0 0.0833333 -221.675 -180)" d="M 5864.46,3497.74 L 5856.68,3502.23 L 5770.64,3353.21 L 5773.23,3348.71 L 5778.42,3348.71 L 5864.46,3497.74 Z " />
<text x="0" y="0" stroke="none" fill="#000000" transform="matrix(0.0833333 0 0 0.0833333 295.883 68.385)" font-style="normal" font-weight="normal" font-size="140px" font-family="Arial" >
N</text>
<path stroke="none" fill="#000000" transform="matrix(0.0833333 0 0 0.0833333 -221.675 -180)" d="M 6190.49,2990.8 L 6198.28,2995.3 L 6162.79,3056.77 L 6155,3052.27 L 6190.49,2990.8 Z " />
<path stroke="none" fill="#000000" transform="matrix(0.0833333 0 0 0.0833333 -221.675 -180)" d="M 6232.75,3015.2 L 6240.53,3019.7 L 6205.04,3081.17 L 6197.26,3076.67 L 6232.75,3015.2 Z " />
<path stroke="none" fill="#000000" transform="matrix(0.0833333 0 0 0.0833333 -221.675 -180)" d="M 6502.59,2921.63 L 6505.18,2926.12 L 6502.59,2930.61 L 6324.7,2930.61 L 6324.7,2921.63 L 6502.59,2921.63 Z " />
<path stroke="none" fill="#000000" transform="matrix(0.0833333 0 0 0.0833333 -221.675 -180)" d="M 6629.77,3132.92 L 6627.18,3137.42 L 6621.99,3137.42 L 6502.59,2930.61 L 6505.18,2926.12 L 6510.37,2926.12 L 6629.77,3132.92 Z " />
<path stroke="none" fill="#000000" transform="matrix(0.0833333 0 0 0.0833333 -221.675 -180)" d="M 6659.24,3086.37 L 6651.46,3090.87 L 6557.64,2928.37 L 6565.42,2923.87 L 6659.24,3086.37 Z " />
<path stroke="none" fill="#000000" transform="matrix(0.0833333 0 0 0.0833333 -221.675 -180)" d="M 6868.57,3132.92 L 6873.75,3141.91 L 6629.77,3141.91 L 6627.18,3137.42 L 6629.77,3132.92 L 6868.57,3132.92 Z " />
<path stroke="none" fill="#000000" transform="matrix(0.0833333 0 0 0.0833333 -221.675 -180)" d="M 6987.97,2926.12 L 6993.15,2926.12 L 6995.75,2930.61 L 6873.75,3141.91 L 6868.57,3132.92 L 6987.97,2926.12 Z " />
<path stroke="none" fill="#000000" transform="matrix(0.0833333 0 0 0.0833333 -221.675 -180)" d="M 6932.92,2923.87 L 6940.7,2928.37 L 6846.88,3090.87 L 6839.1,3086.37 L 6932.92,2923.87 Z " />
<path stroke="none" fill="#000000" transform="matrix(0.0833333 0 0 0.0833333 -221.675 -180)" d="M 6868.57,2719.32 L 6873.75,2710.33 L 6995.75,2921.63 L 6993.15,2926.12 L 6987.97,2926.12 L 6868.57,2719.32 Z " />
<path stroke="none" fill="#000000" transform="matrix(0.0833333 0 0 0.0833333 -221.675 -180)" d="M 6629.77,2719.32 L 6624.58,2710.33 L 6873.75,2710.33 L 6868.57,2719.32 L 6629.77,2719.32 Z " />
<path stroke="none" fill="#000000" transform="matrix(0.0833333 0 0 0.0833333 -221.675 -180)" d="M 6655.35,2768.11 L 6655.35,2759.13 L 6842.99,2759.13 L 6842.99,2768.11 L 6655.35,2768.11 Z " />
<path stroke="none" fill="#000000" transform="matrix(0.0833333 0 0 0.0833333 -221.675 -180)" d="M 6510.37,2926.12 L 6505.18,2926.12 L 6502.59,2921.63 L 6624.58,2710.33 L 6629.77,2719.32 L 6510.37,2926.12 Z " />
<text x="0" y="0" stroke="none" fill="#000000" transform="matrix(0.0833333 0 0 0.0833333 316.215 103.601)" font-style="normal" font-weight="normal" font-size="140px" font-family="Arial" >
N</text>
<path stroke="none" fill="#000000" transform="matrix(0.0833333 0 0 0.0833333 -221.675 -180)" d="M 6549.89,3280.26 L 6542.11,3275.77 L 6621.99,3137.42 L 6627.18,3137.42 L 6629.77,3141.91 L 6549.89,3280.26 Z " />
<text x="0" y="0" stroke="none" fill="#000000" transform="matrix(0.0833333 0 0 0.0833333 377.211 68.385)" font-style="normal" font-weight="normal" font-size="140px" font-family="Arial" >
N(C</text>
<text x="0" y="0" stroke="none" fill="#000000" transform="matrix(0.0833333 0 0 0.0833333 397.979 70.9683)" font-style="normal" font-weight="normal" font-size="105px" font-family="Arial" >
2</text>
<text x="0" y="0" stroke="none" fill="#000000" transform="matrix(0.0833333 0 0 0.0833333 402.854 68.385)" font-style="normal" font-weight="normal" font-size="140px" font-family="Arial" >
H</text>
<text x="0" y="0" stroke="none" fill="#000000" transform="matrix(0.0833333 0 0 0.0833333 411.279 70.9683)" font-style="normal" font-weight="normal" font-size="105px" font-family="Arial" >
5</text>
<text x="0" y="0" stroke="none" fill="#000000" transform="matrix(0.0833333 0 0 0.0833333 416.154 68.385)" font-style="normal" font-weight="normal" font-size="140px" font-family="Arial" >
)</text>
<text x="0" y="0" stroke="none" fill="#000000" transform="matrix(0.0833333 0 0 0.0833333 420.071 70.9683)" font-style="normal" font-weight="normal" font-size="105px" font-family="Arial" >
2</text>
<path stroke="none" fill="#000000" transform="matrix(0.0833333 0 0 0.0833333 -221.675 -180)" d="M 7172.64,2921.63 L 7172.64,2930.61 L 6995.75,2930.61 L 6993.15,2926.12 L 6995.75,2921.63 L 7172.64,2921.63 Z " />
<text x="0" y="0" stroke="none" fill="#000000" transform="matrix(0.0833333 0 0 0.0833333 295.883 103.601)" font-style="normal" font-weight="normal" font-size="140px" font-family="Arial" >
H</text>
<path stroke="none" fill="#000000" transform="matrix(0.0833333 0 0 0.0833333 -221.675 -180)" d="M 6324.7,3353.21 L 6324.7,3344.22 L 6440.68,3344.22 L 6440.68,3353.21 L 6324.7,3353.21 Z " />
<text x="0" y="0" stroke="none" fill="#000000" transform="matrix(0.0833333 0 0 0.0833333 326.381 121.209)" font-style="normal" font-weight="normal" font-size="140px" font-family="Arial" >
COCH</text>
<text x="0" y="0" stroke="none" fill="#000000" transform="matrix(0.0833333 0 0 0.0833333 360.741 123.792)" font-style="normal" font-weight="normal" font-size="105px" font-family="Arial" >
3</text>
<path stroke="none" fill="#000000" transform="matrix(0.0833333 0 0 0.0833333 -221.675 -180)" d="M 6596.41,3497.74 L 6588.63,3502.23 L 6546.73,3429.66 L 6554.51,3425.16 L 6596.41,3497.74 Z " />
<text x="0" y="0" stroke="none" fill="#000000" transform="matrix(0.0833333 0 0 0.0833333 119.98 51.3742)" font-style="normal" font-weight="normal" font-size="140px" font-family="Arial" >
C</text>
<text x="0" y="0" stroke="none" fill="#000000" transform="matrix(0.0833333 0 0 0.0833333 139.978 51.3742)" font-style="normal" font-weight="normal" font-size="140px" font-family="Arial" >
O</text>
<path stroke="none" fill="#000000" transform="matrix(0.0833333 0 0 0.0833333 -221.675 -180)" d="M 4321.84,2693.1 L 4321.84,2702.08 L 4219.86,2702.08 L 4219.86,2693.1 L 4321.84,2693.1 Z " />
<path stroke="none" fill="#000000" transform="matrix(0.0833333 0 0 0.0833333 -221.675 -180)" d="M 4321.84,2741.9 L 4321.84,2750.88 L 4219.86,2750.88 L 4219.86,2741.9 L 4321.84,2741.9 Z " />
<text x="0" y="0" stroke="none" fill="#000000" transform="matrix(0.0833333 0 0 0.0833333 119.646 71.7062)" font-style="normal" font-weight="normal" font-size="140px" font-family="Arial" >
O</text>
<path stroke="none" fill="#000000" transform="matrix(0.0833333 0 0 0.0833333 -221.675 -180)" d="M 4154.85,2895.64 L 4145.86,2895.64 L 4145.86,2804.49 L 4154.85,2804.49 L 4154.85,2895.64 Z " />
<text x="0" y="0" stroke="none" fill="#000000" transform="matrix(0.0833333 0 0 0.0833333 86.3386 51.3742)" font-style="normal" font-weight="normal" font-size="140px" font-family="Arial" >
H</text>
<text x="0" y="0" stroke="none" fill="#000000" transform="matrix(0.0833333 0 0 0.0833333 94.7639 53.9575)" font-style="normal" font-weight="normal" font-size="105px" font-family="Arial" >
3</text>
<text x="0" y="0" stroke="none" fill="#000000" transform="matrix(0.0833333 0 0 0.0833333 99.6389 51.3742)" font-style="normal" font-weight="normal" font-size="140px" font-family="Arial" >
C</text>
<path stroke="none" fill="#000000" transform="matrix(0.0833333 0 0 0.0833333 -221.675 -180)" d="M 3976.16,2726.48 L 3976.16,2717.5 L 4082.86,2717.5 L 4082.86,2726.48 L 3976.16,2726.48 Z " />
<text x="0" y="0" stroke="none" fill="#000000" transform="matrix(0.0833333 0 0 0.0833333 119.98 92.0382)" font-style="normal" font-weight="normal" font-size="140px" font-family="Arial" >
CH</text>
<path stroke="none" fill="#000000" transform="matrix(0.0833333 0 0 0.0833333 -221.675 -180)" d="M 4154.85,3139.63 L 4145.86,3139.63 L 4145.86,3046.64 L 4154.85,3046.64 L 4154.85,3139.63 Z " />
<text x="0" y="0" stroke="none" fill="#000000" transform="matrix(0.0833333 0 0 0.0833333 85.3803 92.0382)" font-style="normal" font-weight="normal" font-size="140px" font-family="Arial" >
CH</text>
<text x="0" y="0" stroke="none" fill="#000000" transform="matrix(0.0833333 0 0 0.0833333 102.231 94.6216)" font-style="normal" font-weight="normal" font-size="105px" font-family="Arial" >
2</text>
<path stroke="none" fill="#000000" transform="matrix(0.0833333 0 0 0.0833333 -221.675 -180)" d="M 3964.66,3214.45 L 3964.66,3205.47 L 4082.86,3205.47 L 4082.86,3214.45 L 3964.66,3214.45 Z " />
<path stroke="none" fill="#000000" transform="matrix(0.0833333 0 0 0.0833333 -221.675 -180)" d="M 4495.49,3205.47 L 4495.49,3214.45 L 4314.86,3214.45 L 4314.86,3205.47 L 4495.49,3205.47 Z " />
<text x="0" y="0" stroke="none" fill="#000000" transform="matrix(0.0833333 0 0 0.0833333 54.6187 92.0382)" font-style="normal" font-weight="normal" font-size="140px" font-family="Arial" >
CH</text>
<path stroke="none" fill="#000000" transform="matrix(0.0833333 0 0 0.0833333 -221.675 -180)" d="M 3530.52,3214.45 L 3530.52,3205.47 L 3667.66,3205.47 L 3667.66,3214.45 L 3530.52,3214.45 Z " />
<path stroke="none" fill="#000000" transform="matrix(0.0833333 0 0 0.0833333 -221.675 -180)" d="M 3361.58,2965.97 L 3370.57,2965.97 L 3370.57,3139.63 L 3361.58,3139.63 L 3361.58,2965.97 Z " />
<text x="0" y="0" stroke="none" fill="#000000" transform="matrix(0.0833333 0 0 0.0833333 20.0237 92.0382)" font-style="normal" font-weight="normal" font-size="140px" font-family="Arial" >
CH</text>
<text x="0" y="0" stroke="none" fill="#000000" transform="matrix(0.0833333 0 0 0.0833333 36.8743 94.6216)" font-style="normal" font-weight="normal" font-size="105px" font-family="Arial" >
2</text>
<path stroke="none" fill="#000000" transform="matrix(0.0833333 0 0 0.0833333 -221.675 -180)" d="M 3180.38,3214.45 L 3180.38,3205.47 L 3298.52,3205.47 L 3298.52,3214.45 L 3180.38,3214.45 Z " />
<path stroke="none" fill="#000000" transform="matrix(0.0833333 0 0 0.0833333 -221.675 -180)" d="M 2706.95,3214.45 L 2706.95,3205.47 L 2883.38,3205.47 L 2883.38,3214.45 L 2706.95,3214.45 Z " />
<path stroke="#000000" stroke-width="9" fill="none" transform="matrix(0.0833333 0 0 0.0833333 -221.675 -180)" d="M 3533.22,3115.49 L 3547.86,3115.49 " />
<path stroke="#000000" stroke-width="9" fill="none" transform="matrix(0.0833333 0 0 0.0833333 -221.675 -180)" d="M 3547.86,3115.49 L 3547.86,3310.49 " />
<path stroke="#000000" stroke-width="9" fill="none" transform="matrix(0.0833333 0 0 0.0833333 -221.675 -180)" d="M 3547.86,3310.49 L 3533.22,3310.49 " />
<text x="0" y="0" stroke="none" fill="#000000" transform="matrix(0.0833333 0 0 0.0833333 74.7833 99.5555)" font-style="normal" font-weight="normal" font-size="105px" font-family="Arial" >
m</text>
<path stroke="#000000" stroke-width="9" fill="none" transform="matrix(0.0833333 0 0 0.0833333 -221.675 -180)" d="M 2833.49,3310.49 L 2818.86,3310.49 " />
<path stroke="#000000" stroke-width="9" fill="none" transform="matrix(0.0833333 0 0 0.0833333 -221.675 -180)" d="M 2818.86,3310.49 L 2818.86,3115.49 " />
<path stroke="#000000" stroke-width="9" fill="none" transform="matrix(0.0833333 0 0 0.0833333 -221.675 -180)" d="M 2818.86,3115.49 L 2833.49,3115.49 " />
<path stroke="#000000" stroke-width="9" fill="none" transform="matrix(0.0833333 0 0 0.0833333 -221.675 -180)" d="M 4354.13,3109.49 L 4369.85,3109.49 " />
<path stroke="#000000" stroke-width="9" fill="none" transform="matrix(0.0833333 0 0 0.0833333 -221.675 -180)" d="M 4369.85,3109.49 L 4369.85,3319.49 " />
<path stroke="#000000" stroke-width="9" fill="none" transform="matrix(0.0833333 0 0 0.0833333 -221.675 -180)" d="M 4369.85,3319.49 L 4354.13,3319.49 " />
<text x="0" y="0" stroke="none" fill="#000000" transform="matrix(0.0833333 0 0 0.0833333 145.105 99.3464)" font-style="normal" font-weight="normal" font-size="105px" font-family="Arial" >
n</text>
<path stroke="#000000" stroke-width="9" fill="none" transform="matrix(0.0833333 0 0 0.0833333 -221.675 -180)" d="M 3671.58,3319.49 L 3655.85,3319.49 " />
<path stroke="#000000" stroke-width="9" fill="none" transform="matrix(0.0833333 0 0 0.0833333 -221.675 -180)" d="M 3655.85,3319.49 L 3655.85,3109.49 " />
<path stroke="#000000" stroke-width="9" fill="none" transform="matrix(0.0833333 0 0 0.0833333 -221.675 -180)" d="M 3655.85,3109.49 L 3671.58,3109.49 " />
<text x="0" y="0" stroke="none" fill="#000000" transform="matrix(0.0833333 0 0 0.0833333 75.1769 14.8742)" font-style="italic" font-weight="bold" font-size="140px" font-family="Arial" >
a</text>
<text x="0" y="0" stroke="none" fill="#000000" transform="matrix(0.0833333 0 0 0.0833333 304.101 14.8742)" font-style="italic" font-weight="bold" font-size="140px" font-family="Arial" >
b</text>
</svg>
