<?xml version="1.0" standalone="no" ?>
<!DOCTYPE svg PUBLIC "-//W3C//DTD SVG 1.1//EN" "http://www.w3.org/Graphics/SVG/1.1/DTD/svg11.dtd">
<svg width="354px" height="178px" viewBox="0 0 354 178" style="background-color: #ffffff00" xmlns="http://www.w3.org/2000/svg" xmlns:xlink="http://www.w3.org/1999/xlink" version="1.1" >
<path stroke="none" fill="#00ff00" transform="matrix(0.0666667 0 0 0.0666667 1.46635 1)" d="M 3947.8,1003.35 A 200.671,200.671 0 1 0 4349.14,1003.35A 200.671,200.671 0 1 0 3947.8,1003.35Z " />
<path stroke="none" fill="#0fff0f" transform="matrix(0.0666667 0 0 0.0666667 1.46635 1)" d="M 3950.13,1000.22 A 195.202,195.202 0 1 0 4340.53,1000.22A 195.202,195.202 0 1 0 3950.13,1000.22Z " />
<path stroke="none" fill="#1eff1e" transform="matrix(0.0666667 0 0 0.0666667 1.46635 1)" d="M 3952.46,997.083 A 189.733,189.733 0 1 0 4331.93,997.083A 189.733,189.733 0 1 0 3952.46,997.083Z " />
<path stroke="none" fill="#2dff2d" transform="matrix(0.0666667 0 0 0.0666667 1.46635 1)" d="M 3954.8,993.947 A 184.265,184.265 0 1 0 4323.33,993.947A 184.265,184.265 0 1 0 3954.8,993.947Z " />
<path stroke="none" fill="#3bff3b" transform="matrix(0.0666667 0 0 0.0666667 1.46635 1)" d="M 3957.13,990.812 A 178.796,178.796 0 1 0 4314.72,990.812A 178.796,178.796 0 1 0 3957.13,990.812Z " />
<path stroke="none" fill="#49ff49" transform="matrix(0.0666667 0 0 0.0666667 1.46635 1)" d="M 3959.46,987.676 A 173.327,173.327 0 1 0 4306.12,987.676A 173.327,173.327 0 1 0 3959.46,987.676Z " />
<path stroke="none" fill="#56ff56" transform="matrix(0.0666667 0 0 0.0666667 1.46635 1)" d="M 3961.8,984.541 A 167.858,167.858 0 1 0 4297.51,984.541A 167.858,167.858 0 1 0 3961.8,984.541Z " />
<path stroke="none" fill="#63ff63" transform="matrix(0.0666667 0 0 0.0666667 1.46635 1)" d="M 3964.13,981.405 A 162.39,162.39 0 1 0 4288.91,981.405A 162.39,162.39 0 1 0 3964.13,981.405Z " />
<path stroke="none" fill="#6fff6f" transform="matrix(0.0666667 0 0 0.0666667 1.46635 1)" d="M 3966.46,978.27 A 156.921,156.921 0 1 0 4280.31,978.27A 156.921,156.921 0 1 0 3966.46,978.27Z " />
<path stroke="none" fill="#7bff7b" transform="matrix(0.0666667 0 0 0.0666667 1.46635 1)" d="M 3968.8,975.134 A 151.452,151.452 0 1 0 4271.7,975.134A 151.452,151.452 0 1 0 3968.8,975.134Z " />
<path stroke="none" fill="#86ff86" transform="matrix(0.0666667 0 0 0.0666667 1.46635 1)" d="M 3971.13,971.999 A 145.983,145.983 0 1 0 4263.1,971.999A 145.983,145.983 0 1 0 3971.13,971.999Z " />
<path stroke="none" fill="#91ff91" transform="matrix(0.0666667 0 0 0.0666667 1.46635 1)" d="M 3973.46,968.863 A 140.515,140.515 0 1 0 4254.49,968.863A 140.515,140.515 0 1 0 3973.46,968.863Z " />
<path stroke="none" fill="#9bff9b" transform="matrix(0.0666667 0 0 0.0666667 1.46635 1)" d="M 3975.8,965.728 A 135.046,135.046 0 1 0 4245.89,965.728A 135.046,135.046 0 1 0 3975.8,965.728Z " />
<path stroke="none" fill="#a5ffa5" transform="matrix(0.0666667 0 0 0.0666667 1.46635 1)" d="M 3978.13,962.592 A 129.577,129.577 0 1 0 4237.28,962.592A 129.577,129.577 0 1 0 3978.13,962.592Z " />
<path stroke="none" fill="#aeffae" transform="matrix(0.0666667 0 0 0.0666667 1.46635 1)" d="M 3980.46,959.457 A 124.108,124.108 0 1 0 4228.68,959.457A 124.108,124.108 0 1 0 3980.46,959.457Z " />
<path stroke="none" fill="#b7ffb7" transform="matrix(0.0666667 0 0 0.0666667 1.46635 1)" d="M 3982.8,956.321 A 118.64,118.64 0 1 0 4220.08,956.321A 118.64,118.64 0 1 0 3982.8,956.321Z " />
<path stroke="none" fill="#bfffbf" transform="matrix(0.0666667 0 0 0.0666667 1.46635 1)" d="M 3985.13,953.186 A 113.171,113.171 0 1 0 4211.47,953.186A 113.171,113.171 0 1 0 3985.13,953.186Z " />
<path stroke="none" fill="#c6ffc6" transform="matrix(0.0666667 0 0 0.0666667 1.46635 1)" d="M 3987.46,950.05 A 107.702,107.702 0 1 0 4202.87,950.05A 107.702,107.702 0 1 0 3987.46,950.05Z " />
<path stroke="none" fill="#ceffce" transform="matrix(0.0666667 0 0 0.0666667 1.46635 1)" d="M 3989.8,946.915 A 102.233,102.233 0 1 0 4194.26,946.915A 102.233,102.233 0 1 0 3989.8,946.915Z " />
<path stroke="none" fill="#d4ffd4" transform="matrix(0.0666667 0 0 0.0666667 1.46635 1)" d="M 3992.13,943.779 A 96.7646,96.7646 0 1 0 4185.66,943.779A 96.7646,96.7646 0 1 0 3992.13,943.779Z " />
<path stroke="none" fill="#dbffdb" transform="matrix(0.0666667 0 0 0.0666667 1.46635 1)" d="M 3994.46,940.644 A 91.2959,91.2959 0 1 0 4177.05,940.644A 91.2959,91.2959 0 1 0 3994.46,940.644Z " />
<path stroke="none" fill="#e0ffe0" transform="matrix(0.0666667 0 0 0.0666667 1.46635 1)" d="M 3996.8,937.508 A 85.8271,85.8271 0 1 0 4168.45,937.508A 85.8271,85.8271 0 1 0 3996.8,937.508Z " />
<path stroke="none" fill="#e6ffe6" transform="matrix(0.0666667 0 0 0.0666667 1.46635 1)" d="M 3999.13,934.373 A 80.3584,80.3584 0 1 0 4159.85,934.373A 80.3584,80.3584 0 1 0 3999.13,934.373Z " />
<path stroke="none" fill="#eaffea" transform="matrix(0.0666667 0 0 0.0666667 1.46635 1)" d="M 4001.46,931.237 A 74.8896,74.8896 0 1 0 4151.24,931.237A 74.8896,74.8896 0 1 0 4001.46,931.237Z " />
<path stroke="none" fill="#efffef" transform="matrix(0.0666667 0 0 0.0666667 1.46635 1)" d="M 4003.8,928.102 A 69.4209,69.4209 0 1 0 4142.64,928.102A 69.4209,69.4209 0 1 0 4003.8,928.102Z " />
<path stroke="none" fill="#f2fff2" transform="matrix(0.0666667 0 0 0.0666667 1.46635 1)" d="M 4006.13,924.967 A 63.9521,63.9521 0 1 0 4134.03,924.967A 63.9521,63.9521 0 1 0 4006.13,924.967Z " />
<path stroke="none" fill="#f6fff6" transform="matrix(0.0666667 0 0 0.0666667 1.46635 1)" d="M 4008.46,921.831 A 58.4834,58.4834 0 1 0 4125.43,921.831A 58.4834,58.4834 0 1 0 4008.46,921.831Z " />
<path stroke="none" fill="#f8fff8" transform="matrix(0.0666667 0 0 0.0666667 1.46635 1)" d="M 4010.8,918.696 A 53.0146,53.0146 0 1 0 4116.82,918.696A 53.0146,53.0146 0 1 0 4010.8,918.696Z " />
<path stroke="none" fill="#fbfffb" transform="matrix(0.0666667 0 0 0.0666667 1.46635 1)" d="M 4013.13,915.56 A 47.5459,47.5459 0 1 0 4108.22,915.56A 47.5459,47.5459 0 1 0 4013.13,915.56Z " />
<path stroke="none" fill="#fcfffc" transform="matrix(0.0666667 0 0 0.0666667 1.46635 1)" d="M 4015.46,912.425 A 42.0771,42.0771 0 1 0 4099.62,912.425A 42.0771,42.0771 0 1 0 4015.46,912.425Z " />
<path stroke="none" fill="#fefffe" transform="matrix(0.0666667 0 0 0.0666667 1.46635 1)" d="M 4017.8,909.289 A 36.6084,36.6084 0 1 0 4091.01,909.289A 36.6084,36.6084 0 1 0 4017.8,909.289Z " />
<path stroke="none" fill="#fefffe" transform="matrix(0.0666667 0 0 0.0666667 1.46635 1)" d="M 4020.13,906.154 A 31.1396,31.1396 0 1 0 4082.41,906.154A 31.1396,31.1396 0 1 0 4020.13,906.154Z " />
<path stroke="#00ff00" stroke-width="12" fill="none" transform="matrix(0.0666667 0 0 0.0666667 1.46635 1)" d="M 3947.8,1003.35 A 200.671,200.671 0 1 0 4349.14,1003.35A 200.671,200.671 0 1 0 3947.8,1003.35Z " />
<path stroke="none" fill="#00ff00" transform="matrix(0.0666667 0 0 0.0666667 1.46635 1)" d="M 880.8,1010.31 A 200.671,200.671 0 1 0 1282.14,1010.31A 200.671,200.671 0 1 0 880.8,1010.31Z " />
<path stroke="none" fill="#0fff0f" transform="matrix(0.0666667 0 0 0.0666667 1.46635 1)" d="M 883.133,1007.17 A 195.202,195.202 0 1 0 1273.54,1007.17A 195.202,195.202 0 1 0 883.133,1007.17Z " />
<path stroke="none" fill="#1eff1e" transform="matrix(0.0666667 0 0 0.0666667 1.46635 1)" d="M 885.466,1004.04 A 189.733,189.733 0 1 0 1264.93,1004.04A 189.733,189.733 0 1 0 885.466,1004.04Z " />
<path stroke="none" fill="#2dff2d" transform="matrix(0.0666667 0 0 0.0666667 1.46635 1)" d="M 887.8,1000.9 A 184.265,184.265 0 1 0 1256.33,1000.9A 184.265,184.265 0 1 0 887.8,1000.9Z " />
<path stroke="none" fill="#3bff3b" transform="matrix(0.0666667 0 0 0.0666667 1.46635 1)" d="M 890.133,997.765 A 178.796,178.796 0 1 0 1247.72,997.765A 178.796,178.796 0 1 0 890.133,997.765Z " />
<path stroke="none" fill="#49ff49" transform="matrix(0.0666667 0 0 0.0666667 1.46635 1)" d="M 892.466,994.63 A 173.327,173.327 0 1 0 1239.12,994.63A 173.327,173.327 0 1 0 892.466,994.63Z " />
<path stroke="none" fill="#56ff56" transform="matrix(0.0666667 0 0 0.0666667 1.46635 1)" d="M 894.799,991.494 A 167.858,167.858 0 1 0 1230.52,991.494A 167.858,167.858 0 1 0 894.799,991.494Z " />
<path stroke="none" fill="#63ff63" transform="matrix(0.0666667 0 0 0.0666667 1.46635 1)" d="M 897.133,988.359 A 162.39,162.39 0 1 0 1221.91,988.359A 162.39,162.39 0 1 0 897.133,988.359Z " />
<path stroke="none" fill="#6fff6f" transform="matrix(0.0666667 0 0 0.0666667 1.46635 1)" d="M 899.466,985.223 A 156.921,156.921 0 1 0 1213.31,985.223A 156.921,156.921 0 1 0 899.466,985.223Z " />
<path stroke="none" fill="#7bff7b" transform="matrix(0.0666667 0 0 0.0666667 1.46635 1)" d="M 901.799,982.088 A 151.452,151.452 0 1 0 1204.7,982.088A 151.452,151.452 0 1 0 901.799,982.088Z " />
<path stroke="none" fill="#86ff86" transform="matrix(0.0666667 0 0 0.0666667 1.46635 1)" d="M 904.132,978.952 A 145.983,145.983 0 1 0 1196.1,978.952A 145.983,145.983 0 1 0 904.132,978.952Z " />
<path stroke="none" fill="#91ff91" transform="matrix(0.0666667 0 0 0.0666667 1.46635 1)" d="M 906.466,975.817 A 140.515,140.515 0 1 0 1187.49,975.817A 140.515,140.515 0 1 0 906.466,975.817Z " />
<path stroke="none" fill="#9bff9b" transform="matrix(0.0666667 0 0 0.0666667 1.46635 1)" d="M 908.799,972.682 A 135.046,135.046 0 1 0 1178.89,972.682A 135.046,135.046 0 1 0 908.799,972.682Z " />
<path stroke="none" fill="#a5ffa5" transform="matrix(0.0666667 0 0 0.0666667 1.46635 1)" d="M 911.132,969.546 A 129.577,129.577 0 1 0 1170.29,969.546A 129.577,129.577 0 1 0 911.132,969.546Z " />
<path stroke="none" fill="#aeffae" transform="matrix(0.0666667 0 0 0.0666667 1.46635 1)" d="M 913.465,966.411 A 124.108,124.108 0 1 0 1161.68,966.411A 124.108,124.108 0 1 0 913.465,966.411Z " />
<path stroke="none" fill="#b7ffb7" transform="matrix(0.0666667 0 0 0.0666667 1.46635 1)" d="M 915.799,963.275 A 118.64,118.64 0 1 0 1153.08,963.275A 118.64,118.64 0 1 0 915.799,963.275Z " />
<path stroke="none" fill="#bfffbf" transform="matrix(0.0666667 0 0 0.0666667 1.46635 1)" d="M 918.132,960.14 A 113.171,113.171 0 1 0 1144.47,960.14A 113.171,113.171 0 1 0 918.132,960.14Z " />
<path stroke="none" fill="#c6ffc6" transform="matrix(0.0666667 0 0 0.0666667 1.46635 1)" d="M 920.465,957.004 A 107.702,107.702 0 1 0 1135.87,957.004A 107.702,107.702 0 1 0 920.465,957.004Z " />
<path stroke="none" fill="#ceffce" transform="matrix(0.0666667 0 0 0.0666667 1.46635 1)" d="M 922.799,953.869 A 102.233,102.233 0 1 0 1127.27,953.869A 102.233,102.233 0 1 0 922.799,953.869Z " />
<path stroke="none" fill="#d4ffd4" transform="matrix(0.0666667 0 0 0.0666667 1.46635 1)" d="M 925.132,950.733 A 96.7646,96.7646 0 1 0 1118.66,950.733A 96.7646,96.7646 0 1 0 925.132,950.733Z " />
<path stroke="none" fill="#dbffdb" transform="matrix(0.0666667 0 0 0.0666667 1.46635 1)" d="M 927.465,947.598 A 91.2959,91.2959 0 1 0 1110.06,947.598A 91.2959,91.2959 0 1 0 927.465,947.598Z " />
<path stroke="none" fill="#e0ffe0" transform="matrix(0.0666667 0 0 0.0666667 1.46635 1)" d="M 929.798,944.462 A 85.8271,85.8271 0 1 0 1101.45,944.462A 85.8271,85.8271 0 1 0 929.798,944.462Z " />
<path stroke="none" fill="#e6ffe6" transform="matrix(0.0666667 0 0 0.0666667 1.46635 1)" d="M 932.132,941.327 A 80.3584,80.3584 0 1 0 1092.85,941.327A 80.3584,80.3584 0 1 0 932.132,941.327Z " />
<path stroke="none" fill="#eaffea" transform="matrix(0.0666667 0 0 0.0666667 1.46635 1)" d="M 934.465,938.191 A 74.8896,74.8896 0 1 0 1084.24,938.191A 74.8896,74.8896 0 1 0 934.465,938.191Z " />
<path stroke="none" fill="#efffef" transform="matrix(0.0666667 0 0 0.0666667 1.46635 1)" d="M 936.798,935.056 A 69.4209,69.4209 0 1 0 1075.64,935.056A 69.4209,69.4209 0 1 0 936.798,935.056Z " />
<path stroke="none" fill="#f2fff2" transform="matrix(0.0666667 0 0 0.0666667 1.46635 1)" d="M 939.131,931.92 A 63.9521,63.9521 0 1 0 1067.04,931.92A 63.9521,63.9521 0 1 0 939.131,931.92Z " />
<path stroke="none" fill="#f6fff6" transform="matrix(0.0666667 0 0 0.0666667 1.46635 1)" d="M 941.465,928.785 A 58.4834,58.4834 0 1 0 1058.43,928.785A 58.4834,58.4834 0 1 0 941.465,928.785Z " />
<path stroke="none" fill="#f8fff8" transform="matrix(0.0666667 0 0 0.0666667 1.46635 1)" d="M 943.798,925.649 A 53.0146,53.0146 0 1 0 1049.83,925.649A 53.0146,53.0146 0 1 0 943.798,925.649Z " />
<path stroke="none" fill="#fbfffb" transform="matrix(0.0666667 0 0 0.0666667 1.46635 1)" d="M 946.131,922.514 A 47.5459,47.5459 0 1 0 1041.22,922.514A 47.5459,47.5459 0 1 0 946.131,922.514Z " />
<path stroke="none" fill="#fcfffc" transform="matrix(0.0666667 0 0 0.0666667 1.46635 1)" d="M 948.465,919.378 A 42.0771,42.0771 0 1 0 1032.62,919.378A 42.0771,42.0771 0 1 0 948.465,919.378Z " />
<path stroke="none" fill="#fefffe" transform="matrix(0.0666667 0 0 0.0666667 1.46635 1)" d="M 950.798,916.243 A 36.6084,36.6084 0 1 0 1024.01,916.243A 36.6084,36.6084 0 1 0 950.798,916.243Z " />
<path stroke="none" fill="#fefffe" transform="matrix(0.0666667 0 0 0.0666667 1.46635 1)" d="M 953.131,913.107 A 31.1396,31.1396 0 1 0 1015.41,913.107A 31.1396,31.1396 0 1 0 953.131,913.107Z " />
<path stroke="#00ff00" stroke-width="12" fill="none" transform="matrix(0.0666667 0 0 0.0666667 1.46635 1)" d="M 880.8,1010.31 A 200.671,200.671 0 1 0 1282.14,1010.31A 200.671,200.671 0 1 0 880.8,1010.31Z " />
<text x="0" y="0" stroke="none" fill="#000000" transform="matrix(0.0666667 0 0 0.0666667 69.1756 51.1529)" font-style="normal" font-weight="normal" font-size="180px" font-family="Arial" >
N</text>
<path stroke="none" fill="#000000" transform="matrix(0.0666667 0 0 0.0666667 1.46635 1)" d="M 909.385,577.38 L 903.385,580.869 L 897.385,577.38 L 897.385,375.531 L 909.385,382.507 L 909.385,577.38 Z " />
<path stroke="none" fill="#000000" transform="matrix(0.0666667 0 0 0.0666667 1.46635 1)" d="M 945.718,559.746 L 933.718,559.746 L 933.718,400.141 L 945.718,400.141 L 945.718,559.746 Z " />
<path stroke="none" fill="#000000" transform="matrix(0.0666667 0 0 0.0666667 1.46635 1)" d="M 992.848,624.903 L 986.911,635.331 L 903.385,587.773 L 903.385,580.869 L 909.385,577.38 L 992.848,624.903 Z " />
<path stroke="none" fill="#000000" transform="matrix(0.0666667 0 0 0.0666667 1.46635 1)" d="M 1251.89,577.38 L 1257.89,580.869 L 1257.89,587.773 L 1173.61,635.761 L 1167.67,625.333 L 1251.89,577.38 Z " />
<path stroke="none" fill="#000000" transform="matrix(0.0666667 0 0 0.0666667 1.46635 1)" d="M 1218.21,554.31 L 1224.15,564.738 L 1155.45,603.855 L 1149.51,593.427 L 1218.21,554.31 Z " />
<path stroke="none" fill="#000000" transform="matrix(0.0666667 0 0 0.0666667 1.46635 1)" d="M 1251.89,382.507 L 1263.89,375.531 L 1263.89,577.38 L 1257.89,580.869 L 1251.89,577.38 L 1251.89,382.507 Z " />
<path stroke="none" fill="#000000" transform="matrix(0.0666667 0 0 0.0666667 1.46635 1)" d="M 1080.64,284.998 L 1080.64,271.19 L 1263.89,375.531 L 1251.89,382.507 L 1080.64,284.998 Z " />
<path stroke="none" fill="#000000" transform="matrix(0.0666667 0 0 0.0666667 1.46635 1)" d="M 1077.67,325.557 L 1083.61,315.129 L 1224.15,395.149 L 1218.21,405.577 L 1077.67,325.557 Z " />
<path stroke="none" fill="#000000" transform="matrix(0.0666667 0 0 0.0666667 1.46635 1)" d="M 909.385,382.507 L 897.385,375.531 L 1080.64,271.19 L 1080.64,284.998 L 909.385,382.507 Z " />
<path stroke="none" fill="#000000" transform="matrix(0.0666667 0 0 0.0666667 1.46635 1)" d="M 732.098,685.3 L 720.163,678.287 L 897.385,577.38 L 903.385,580.869 L 903.385,587.773 L 732.098,685.3 Z " />
<text x="0" y="0" stroke="none" fill="#000000" transform="matrix(0.0666667 0 0 0.0666667 45.4267 63.4493)" font-style="normal" font-weight="normal" font-size="180px" font-family="Arial" >
N</text>
<path stroke="none" fill="#000000" transform="matrix(0.0666667 0 0 0.0666667 1.46635 1)" d="M 731.236,777.469 L 719.236,777.357 L 720.163,678.287 L 732.098,685.3 L 731.236,777.469 Z " />
<path stroke="none" fill="#000000" transform="matrix(0.0666667 0 0 0.0666667 1.46635 1)" d="M 1441.15,678.309 L 1429.14,685.279 L 1257.89,587.773 L 1257.89,580.869 L 1263.89,577.38 L 1441.15,678.309 Z " />
<text x="0" y="0" stroke="none" fill="#000000" transform="matrix(0.0666667 0 0 0.0666667 92.7903 63.4493)" font-style="normal" font-weight="normal" font-size="180px" font-family="Arial" >
N</text>
<path stroke="none" fill="#000000" transform="matrix(0.0666667 0 0 0.0666667 1.46635 1)" d="M 1441,777.416 L 1429,777.397 L 1429.14,685.279 L 1441.15,678.309 L 1441,777.416 Z " />
<path stroke="none" fill="#000000" transform="matrix(0.0666667 0 0 0.0666667 1.46635 1)" d="M 586.386,1010.78 L 572.968,1007.16 L 636.473,944.53 L 644.899,953.074 L 586.386,1010.78 Z " />
<path stroke="none" fill="#000000" transform="matrix(0.0666667 0 0 0.0666667 1.46635 1)" d="M 1586.3,1007.16 L 1572.88,1010.78 L 1513.86,952.574 L 1522.28,944.03 L 1586.3,1007.16 Z " />
<path stroke="none" fill="#000000" transform="matrix(0.0666667 0 0 0.0666667 1.46635 1)" d="M 637.465,1198.77 L 627.702,1208.61 L 572.968,1007.16 L 586.386,1010.78 L 637.465,1198.77 Z " />
<path stroke="none" fill="#000000" transform="matrix(0.0666667 0 0 0.0666667 1.46635 1)" d="M 1531.56,1208.61 L 1521.8,1198.77 L 1572.88,1010.78 L 1586.3,1007.16 L 1531.56,1208.61 Z " />
<text x="0" y="0" stroke="none" fill="#000000" transform="matrix(0.0666667 0 0 0.0666667 52.4683 89.4242)" font-style="normal" font-weight="normal" font-size="180px" font-family="Arial" >
N</text>
<path stroke="none" fill="#000000" transform="matrix(0.0666667 0 0 0.0666667 1.46635 1)" d="M 740.15,1225.91 L 737.085,1237.51 L 627.702,1208.61 L 637.465,1198.77 L 740.15,1225.91 Z " />
<text x="0" y="0" stroke="none" fill="#000000" transform="matrix(0.0666667 0 0 0.0666667 85.7487 89.4242)" font-style="normal" font-weight="normal" font-size="180px" font-family="Arial" >
N</text>
<path stroke="none" fill="#000000" transform="matrix(0.0666667 0 0 0.0666667 1.46635 1)" d="M 1421.25,1237.76 L 1418.18,1226.15 L 1521.8,1198.77 L 1531.56,1208.61 L 1421.25,1237.76 Z " />
<path stroke="none" fill="#000000" transform="matrix(0.0666667 0 0 0.0666667 1.46635 1)" d="M 929.971,1435.51 L 922.677,1447.51 L 878.718,1362.76 L 889.37,1357.23 L 929.971,1435.51 Z " />
<path stroke="none" fill="#000000" transform="matrix(0.0666667 0 0 0.0666667 1.46635 1)" d="M 1244.2,1447.51 L 1236.64,1435.51 L 1273.2,1359.09 L 1284.02,1364.27 L 1244.2,1447.51 Z " />
<path stroke="none" fill="#000000" transform="matrix(0.0666667 0 0 0.0666667 1.46635 1)" d="M 1236.64,1435.51 L 1244.2,1447.51 L 922.677,1447.51 L 929.971,1435.51 L 1236.64,1435.51 Z " />
<path stroke="none" fill="#000000" transform="matrix(0.0666667 0 0 0.0666667 1.46635 1)" d="M 1624.46,782.478 L 1622.66,796.17 L 1529.5,834.143 L 1524.97,823.031 L 1624.46,782.478 Z " />
<path stroke="none" fill="#000000" transform="matrix(0.0666667 0 0 0.0666667 1.46635 1)" d="M 1466.97,1409.21 L 1453.28,1411.61 L 1400.83,1349.68 L 1409.99,1341.92 L 1466.97,1409.21 Z " />
<path stroke="none" fill="#000000" transform="matrix(0.0666667 0 0 0.0666667 1.46635 1)" d="M 704.128,1418.91 L 699.195,1406 L 750.202,1343.78 L 759.483,1351.38 L 704.128,1418.91 Z " />
<path stroke="none" fill="#000000" transform="matrix(0.0666667 0 0 0.0666667 1.46635 1)" d="M 530.623,792.539 L 541.636,784.11 L 633.507,822.13 L 628.919,833.218 L 530.623,792.539 Z " />
<path stroke="none" fill="#000000" transform="matrix(0.0666667 0 0 0.0666667 1.46635 1)" d="M 1786.35,905.181 L 1785.45,912.027 L 1779.04,914.696 L 1622.66,796.17 L 1624.46,782.478 L 1786.35,905.181 Z " />
<path stroke="none" fill="#000000" transform="matrix(0.0666667 0 0 0.0666667 1.46635 1)" d="M 1396.71,1598.27 L 1389.86,1599.47 L 1385.44,1594.14 L 1453.28,1411.61 L 1466.97,1409.21 L 1396.71,1598.27 Z " />
<path stroke="none" fill="#000000" transform="matrix(0.0666667 0 0 0.0666667 1.46635 1)" d="M 502.437,1387.57 L 499.97,1381.11 L 504.305,1375.71 L 699.195,1406 L 704.128,1418.91 L 502.437,1387.57 Z " />
<path stroke="none" fill="#000000" transform="matrix(0.0666667 0 0 0.0666667 1.46635 1)" d="M 504.906,592.781 L 510.413,588.567 L 516.81,591.27 L 541.636,784.11 L 530.623,792.539 L 504.906,592.781 Z " />
<text x="0" y="0" stroke="none" fill="#000000" transform="matrix(0.0666667 0 0 0.0666667 114.372 79.8419)" font-style="normal" font-weight="normal" font-size="180px" font-family="Arial" >
N</text>
<path stroke="none" fill="#000000" transform="matrix(0.0666667 0 0 0.0666667 1.46635 1)" d="M 1776.28,1025.39 L 1764.39,1023.79 L 1779.04,914.696 L 1785.45,912.027 L 1790.93,916.271 L 1776.28,1025.39 Z " />
<path stroke="none" fill="#000000" transform="matrix(0.0666667 0 0 0.0666667 1.46635 1)" d="M 1812.3,1030.22 L 1800.41,1028.63 L 1812.72,936.934 L 1824.61,938.531 L 1812.3,1030.22 Z " />
<path stroke="none" fill="#000000" transform="matrix(0.0666667 0 0 0.0666667 1.46635 1)" d="M 1921.76,1228.28 L 1919.96,1241.98 L 1845.99,1185.91 L 1853.24,1176.35 L 1921.76,1228.28 Z " />
<path stroke="none" fill="#000000" transform="matrix(0.0666667 0 0 0.0666667 1.46635 1)" d="M 2104.53,1153.79 L 2115.5,1162.27 L 1919.96,1241.98 L 1921.76,1228.28 L 2104.53,1153.79 Z " />
<path stroke="none" fill="#000000" transform="matrix(0.0666667 0 0 0.0666667 1.46635 1)" d="M 2074.15,1126.47 L 2078.68,1137.58 L 1928.64,1198.73 L 1924.12,1187.62 L 2074.15,1126.47 Z " />
<path stroke="none" fill="#000000" transform="matrix(0.0666667 0 0 0.0666667 1.46635 1)" d="M 2130.48,960.596 L 2143.3,955.259 L 2115.5,1162.27 L 2104.53,1153.79 L 2130.48,960.596 Z " />
<path stroke="none" fill="#000000" transform="matrix(0.0666667 0 0 0.0666667 1.46635 1)" d="M 1973.7,841.772 L 1975.51,828.08 L 2143.3,955.259 L 2130.48,960.596 L 1973.7,841.772 Z " />
<path stroke="none" fill="#000000" transform="matrix(0.0666667 0 0 0.0666667 1.46635 1)" d="M 1965.48,881.531 L 1972.73,871.968 L 2101.34,969.448 L 2094.09,979.011 L 1965.48,881.531 Z " />
<path stroke="none" fill="#000000" transform="matrix(0.0666667 0 0 0.0666667 1.46635 1)" d="M 1790.93,916.271 L 1785.45,912.027 L 1786.35,905.181 L 1975.51,828.08 L 1973.7,841.772 L 1790.93,916.271 Z " />
<text x="0" y="0" stroke="none" fill="#000000" transform="matrix(0.0666667 0 0 0.0666667 76.3473 114.638)" font-style="normal" font-weight="normal" font-size="180px" font-family="Arial" >
N</text>
<path stroke="none" fill="#000000" transform="matrix(0.0666667 0 0 0.0666667 1.46635 1)" d="M 1269.34,1626.24 L 1267.31,1614.41 L 1385.44,1594.14 L 1389.86,1599.47 L 1387.5,1605.96 L 1269.34,1626.24 Z " />
<path stroke="none" fill="#000000" transform="matrix(0.0666667 0 0 0.0666667 1.46635 1)" d="M 1275.57,1662.53 L 1273.54,1650.71 L 1374.34,1633.41 L 1376.37,1645.24 L 1275.57,1662.53 Z " />
<path stroke="none" fill="#000000" transform="matrix(0.0666667 0 0 0.0666667 1.46635 1)" d="M 1124.62,1822.39 L 1110.93,1824.79 L 1142.34,1740.28 L 1153.59,1744.46 L 1124.62,1822.39 Z " />
<path stroke="none" fill="#000000" transform="matrix(0.0666667 0 0 0.0666667 1.46635 1)" d="M 1251.35,1972.02 L 1246.62,1985 L 1110.93,1824.79 L 1124.62,1822.39 L 1251.35,1972.02 Z " />
<path stroke="none" fill="#000000" transform="matrix(0.0666667 0 0 0.0666667 1.46635 1)" d="M 1267.96,1935.08 L 1258.8,1942.84 L 1154.9,1820.16 L 1164.06,1812.41 L 1267.96,1935.08 Z " />
<path stroke="none" fill="#000000" transform="matrix(0.0666667 0 0 0.0666667 1.46635 1)" d="M 1446.21,1938.58 L 1455.05,1949.24 L 1246.62,1985 L 1251.35,1972.02 L 1446.21,1938.58 Z " />
<path stroke="none" fill="#000000" transform="matrix(0.0666667 0 0 0.0666667 1.46635 1)" d="M 1514.22,1755.59 L 1527.91,1753.19 L 1455.05,1949.24 L 1446.21,1938.58 L 1514.22,1755.59 Z " />
<path stroke="none" fill="#000000" transform="matrix(0.0666667 0 0 0.0666667 1.46635 1)" d="M 1473.91,1759.57 L 1485.16,1763.75 L 1429.44,1913.67 L 1418.2,1909.49 L 1473.91,1759.57 Z " />
<path stroke="none" fill="#000000" transform="matrix(0.0666667 0 0 0.0666667 1.46635 1)" d="M 1387.5,1605.96 L 1389.86,1599.47 L 1396.71,1598.27 L 1527.91,1753.19 L 1514.22,1755.59 L 1387.5,1605.96 Z " />
<text x="0" y="0" stroke="none" fill="#000000" transform="matrix(0.0666667 0 0 0.0666667 25.5642 85.2152)" font-style="normal" font-weight="normal" font-size="180px" font-family="Arial" >
N</text>
<path stroke="none" fill="#000000" transform="matrix(0.0666667 0 0 0.0666667 1.46635 1)" d="M 462.876,1302.55 L 474.055,1298.19 L 504.305,1375.71 L 499.97,1381.11 L 493.105,1380.02 L 462.876,1302.55 Z " />
<path stroke="none" fill="#000000" transform="matrix(0.0666667 0 0 0.0666667 1.46635 1)" d="M 428.967,1315.78 L 440.146,1311.42 L 463.911,1372.32 L 452.731,1376.68 L 428.967,1315.78 Z " />
<path stroke="none" fill="#000000" transform="matrix(0.0666667 0 0 0.0666667 1.46635 1)" d="M 226.754,1167.77 L 221.821,1154.86 L 345.972,1174.15 L 344.129,1186 L 226.754,1167.77 Z " />
<path stroke="none" fill="#000000" transform="matrix(0.0666667 0 0 0.0666667 1.46635 1)" d="M 102.474,1319.37 L 88.7431,1317.19 L 221.821,1154.86 L 226.754,1167.77 L 102.474,1319.37 Z " />
<path stroke="none" fill="#000000" transform="matrix(0.0666667 0 0 0.0666667 1.46635 1)" d="M 142.054,1328.72 L 132.774,1321.11 L 234.667,1196.81 L 243.947,1204.42 L 142.054,1328.72 Z " />
<path stroke="none" fill="#000000" transform="matrix(0.0666667 0 0 0.0666667 1.46635 1)" d="M 173.445,1501.27 L 164.777,1512.06 L 88.7431,1317.19 L 102.474,1319.37 L 173.445,1501.27 Z " />
<path stroke="none" fill="#000000" transform="matrix(0.0666667 0 0 0.0666667 1.46635 1)" d="M 368.825,1531.62 L 373.758,1544.54 L 164.777,1512.06 L 173.445,1501.27 L 368.825,1531.62 Z " />
<path stroke="none" fill="#000000" transform="matrix(0.0666667 0 0 0.0666667 1.46635 1)" d="M 357.073,1492.53 L 355.23,1504.38 L 194.794,1479.46 L 196.636,1467.6 L 357.073,1492.53 Z " />
<path stroke="none" fill="#000000" transform="matrix(0.0666667 0 0 0.0666667 1.46635 1)" d="M 493.105,1380.02 L 499.97,1381.11 L 502.437,1387.57 L 373.758,1544.54 L 368.825,1531.62 L 493.105,1380.02 Z " />
<text x="0" y="0" stroke="none" fill="#000000" transform="matrix(0.0666667 0 0 0.0666667 42.0241 36.7952)" font-style="normal" font-weight="normal" font-size="180px" font-family="Arial" >
N</text>
<path stroke="none" fill="#000000" transform="matrix(0.0666667 0 0 0.0666667 1.46635 1)" d="M 577.833,530.535 L 585.03,540.137 L 516.81,591.27 L 510.413,588.567 L 509.549,581.716 L 577.833,530.535 Z " />
<path stroke="none" fill="#000000" transform="matrix(0.0666667 0 0 0.0666667 1.46635 1)" d="M 555.848,501.204 L 563.045,510.806 L 508.735,551.513 L 501.538,541.911 L 555.848,501.204 Z " />
<path stroke="none" fill="#000000" transform="matrix(0.0666667 0 0 0.0666667 1.46635 1)" d="M 642.08,270.402 L 653.094,261.973 L 668.033,378.018 L 656.132,379.55 L 642.08,270.402 Z " />
<path stroke="none" fill="#000000" transform="matrix(0.0666667 0 0 0.0666667 1.46635 1)" d="M 459.72,194.933 L 457.992,181.232 L 653.094,261.973 L 642.08,270.402 L 459.72,194.933 Z " />
<path stroke="none" fill="#000000" transform="matrix(0.0666667 0 0 0.0666667 1.46635 1)" d="M 461.854,235.606 L 466.443,224.519 L 616.137,286.468 L 611.548,297.556 L 461.854,235.606 Z " />
<path stroke="none" fill="#000000" transform="matrix(0.0666667 0 0 0.0666667 1.46635 1)" d="M 302.3,312.924 L 289.505,307.517 L 457.992,181.232 L 459.72,194.933 L 302.3,312.924 Z " />
<path stroke="none" fill="#000000" transform="matrix(0.0666667 0 0 0.0666667 1.46635 1)" d="M 327.188,506.248 L 316.174,514.677 L 289.505,307.517 L 302.3,312.924 L 327.188,506.248 Z " />
<path stroke="none" fill="#000000" transform="matrix(0.0666667 0 0 0.0666667 1.46635 1)" d="M 360.987,484.17 L 349.085,485.702 L 328.7,327.359 L 340.602,325.827 L 360.987,484.17 Z " />
<path stroke="none" fill="#000000" transform="matrix(0.0666667 0 0 0.0666667 1.46635 1)" d="M 509.549,581.716 L 510.413,588.567 L 504.906,592.781 L 316.174,514.677 L 327.188,506.248 L 509.549,581.716 Z " />
<text x="0" y="0" stroke="none" fill="#000000" transform="matrix(0.0666667 0 0 0.0666667 62.6644 73.4538)" font-style="normal" font-weight="normal" font-size="180px" font-family="Arial" >
Pb</text>
<text x="0" y="0" stroke="none" fill="#000000" transform="matrix(0.0666667 0 0 0.0666667 77.3421 68.7538)" font-style="normal" font-weight="normal" font-size="135px" font-family="Arial" >
2+</text>
<text x="0" y="0" stroke="none" fill="#000000" transform="matrix(0.0666667 0 0 0.0666667 273.021 44.3407)" font-style="normal" font-weight="normal" font-size="180px" font-family="Arial" >
N</text>
<path stroke="none" fill="#000000" transform="matrix(0.0666667 0 0 0.0666667 1.46635 1)" d="M 3961.4,474.075 L 3955.45,477.628 L 3949.4,474.254 L 3946.28,264.894 L 3958.39,271.642 L 3961.4,474.075 Z " />
<path stroke="none" fill="#000000" transform="matrix(0.0666667 0 0 0.0666667 1.46635 1)" d="M 3998.81,455.221 L 3986.81,455.399 L 3984.34,289.554 L 3996.34,289.375 L 3998.81,455.221 Z " />
<path stroke="none" fill="#000000" transform="matrix(0.0666667 0 0 0.0666667 1.46635 1)" d="M 4050.22,523.608 L 4044.38,534.089 L 3955.55,484.556 L 3955.45,477.628 L 3961.4,474.075 L 4050.22,523.608 Z " />
<path stroke="none" fill="#000000" transform="matrix(0.0666667 0 0 0.0666667 1.46635 1)" d="M 4312.03,468.855 L 4318.08,472.23 L 4318.18,479.157 L 4230.74,531.39 L 4224.59,521.088 L 4312.03,468.855 Z " />
<path stroke="none" fill="#000000" transform="matrix(0.0666667 0 0 0.0666667 1.46635 1)" d="M 4276.99,445.882 L 4283.14,456.184 L 4211.41,499.034 L 4205.26,488.732 L 4276.99,445.882 Z " />
<path stroke="none" fill="#000000" transform="matrix(0.0666667 0 0 0.0666667 1.46635 1)" d="M 4309.01,266.422 L 4320.91,259.316 L 4324.02,468.677 L 4318.08,472.23 L 4312.03,468.855 L 4309.01,266.422 Z " />
<path stroke="none" fill="#000000" transform="matrix(0.0666667 0 0 0.0666667 1.46635 1)" d="M 4132.19,167.815 L 4131.98,153.961 L 4320.91,259.316 L 4309.01,266.422 L 4132.19,167.815 Z " />
<path stroke="none" fill="#000000" transform="matrix(0.0666667 0 0 0.0666667 1.46635 1)" d="M 4129.81,209.643 L 4135.66,199.163 L 4280.52,279.948 L 4274.68,290.428 L 4129.81,209.643 Z " />
<path stroke="none" fill="#000000" transform="matrix(0.0666667 0 0 0.0666667 1.46635 1)" d="M 3958.39,271.642 L 3946.28,264.894 L 4131.98,153.961 L 4132.19,167.815 L 3958.39,271.642 Z " />
<path stroke="none" fill="#000000" transform="matrix(0.0666667 0 0 0.0666667 1.46635 1)" d="M 3781.72,588.402 L 3769.68,581.615 L 3949.4,474.254 L 3955.45,477.628 L 3955.55,484.556 L 3781.72,588.402 Z " />
<text x="0" y="0" stroke="none" fill="#000000" transform="matrix(0.0666667 0 0 0.0666667 248.918 57.4564)" font-style="normal" font-weight="normal" font-size="180px" font-family="Arial" >
N</text>
<path stroke="none" fill="#000000" transform="matrix(0.0666667 0 0 0.0666667 1.46635 1)" d="M 3782.28,687.481 L 3770.28,687.549 L 3769.68,581.615 L 3781.72,588.402 L 3782.28,687.481 Z " />
<path stroke="none" fill="#000000" transform="matrix(0.0666667 0 0 0.0666667 1.46635 1)" d="M 4506.9,570.661 L 4494.99,577.761 L 4318.18,479.157 L 4318.08,472.23 L 4324.02,468.677 L 4506.9,570.661 Z " />
<text x="0" y="0" stroke="none" fill="#000000" transform="matrix(0.0666667 0 0 0.0666667 297.366 56.7351)" font-style="normal" font-weight="normal" font-size="180px" font-family="Arial" >
N</text>
<path stroke="none" fill="#000000" transform="matrix(0.0666667 0 0 0.0666667 1.46635 1)" d="M 4508.31,676.626 L 4496.32,676.786 L 4494.99,577.761 L 4506.9,570.661 L 4508.31,676.626 Z " />
<path stroke="none" fill="#000000" transform="matrix(0.0666667 0 0 0.0666667 1.46635 1)" d="M 3613.21,868.849 L 3601.1,861.647 L 3677.2,821.76 L 3682.77,832.389 L 3613.21,868.849 Z " />
<path stroke="none" fill="#000000" transform="matrix(0.0666667 0 0 0.0666667 1.46635 1)" d="M 4668.76,854.777 L 4656.86,861.737 L 4595.99,826.305 L 4602.03,815.934 L 4668.76,854.777 Z " />
<path stroke="none" fill="#000000" transform="matrix(0.0666667 0 0 0.0666667 1.46635 1)" d="M 3616.47,1088.33 L 3604.58,1095.78 L 3601.1,861.647 L 3613.21,868.849 L 3616.47,1088.33 Z " />
<path stroke="none" fill="#000000" transform="matrix(0.0666667 0 0 0.0666667 1.46635 1)" d="M 4671.85,1061.95 L 4659.75,1055.84 L 4656.86,861.737 L 4668.76,854.777 L 4671.85,1061.95 Z " />
<text x="0" y="0" stroke="none" fill="#000000" transform="matrix(0.0666667 0 0 0.0666667 249.544 84.3947)" font-style="normal" font-weight="normal" font-size="180px" font-family="Arial" >
N</text>
<path stroke="none" fill="#000000" transform="matrix(0.0666667 0 0 0.0666667 1.46635 1)" d="M 3696.76,1128.72 L 3691.36,1139.44 L 3604.58,1095.78 L 3616.47,1088.33 L 3696.76,1128.72 Z " />
<text x="0" y="0" stroke="none" fill="#000000" transform="matrix(0.0666667 0 0 0.0666667 298.698 83.0812)" font-style="normal" font-weight="normal" font-size="180px" font-family="Arial" >
N</text>
<path stroke="none" fill="#000000" transform="matrix(0.0666667 0 0 0.0666667 1.46635 1)" d="M 4612.96,1104.08 L 4605.97,1094.32 L 4659.75,1055.84 L 4671.85,1061.95 L 4612.96,1104.08 Z " />
<path stroke="none" fill="#000000" transform="matrix(0.0666667 0 0 0.0666667 1.46635 1)" d="M 3743.71,1375.77 L 3730.18,1380.45 L 3753.18,1288.05 L 3764.83,1290.95 L 3743.71,1375.77 Z " />
<path stroke="none" fill="#000000" transform="matrix(0.0666667 0 0 0.0666667 1.46635 1)" d="M 4563.4,1368.22 L 4550.48,1363.58 L 4533.85,1261.61 L 4545.69,1259.68 L 4563.4,1368.22 Z " />
<path stroke="none" fill="#000000" transform="matrix(0.0666667 0 0 0.0666667 1.46635 1)" d="M 3940.29,1528.62 L 3938.75,1542.62 L 3730.18,1380.45 L 3743.71,1375.77 L 3940.29,1528.62 Z " />
<text x="0" y="0" stroke="none" fill="#000000" transform="matrix(0.0666667 0 0 0.0666667 274.238 101.229)" font-style="normal" font-weight="normal" font-size="180px" font-family="Arial" >
N</text>
<path stroke="none" fill="#000000" transform="matrix(0.0666667 0 0 0.0666667 1.46635 1)" d="M 4058.22,1472.83 L 4063.35,1483.68 L 3938.75,1542.62 L 3940.29,1528.62 L 4058.22,1472.83 Z " />
<path stroke="none" fill="#000000" transform="matrix(0.0666667 0 0 0.0666667 1.46635 1)" d="M 4381.97,1527.24 L 4379.54,1513.41 L 4550.48,1363.58 L 4563.4,1368.22 L 4381.97,1527.24 Z " />
<path stroke="none" fill="#000000" transform="matrix(0.0666667 0 0 0.0666667 1.46635 1)" d="M 4247.98,1475.01 L 4252.33,1463.83 L 4379.54,1513.41 L 4381.97,1527.24 L 4247.98,1475.01 Z " />
<path stroke="none" fill="#000000" transform="matrix(0.0666667 0 0 0.0666667 1.46635 1)" d="M 4682.46,664.959 L 4694.17,672.371 L 4597.22,723.18 L 4591.65,712.552 L 4682.46,664.959 Z " />
<path stroke="none" fill="#000000" transform="matrix(0.0666667 0 0 0.0666667 1.46635 1)" d="M 4690.7,463.397 L 4696.84,460.181 L 4702.69,463.887 L 4694.17,672.371 L 4682.46,664.959 L 4690.7,463.397 Z " />
<path stroke="none" fill="#000000" transform="matrix(0.0666667 0 0 0.0666667 1.46635 1)" d="M 4715.24,1233.96 L 4717.03,1247.7 L 4615.03,1205.29 L 4619.64,1194.21 L 4715.24,1233.96 Z " />
<path stroke="none" fill="#000000" transform="matrix(0.0666667 0 0 0.0666667 1.46635 1)" d="M 4875.45,1111.37 L 4881.85,1114.03 L 4882.74,1120.9 L 4717.03,1247.7 L 4715.24,1233.96 L 4875.45,1111.37 Z " />
<path stroke="none" fill="#000000" transform="matrix(0.0666667 0 0 0.0666667 1.46635 1)" d="M 4154.19,1638.21 L 4141.92,1644.64 L 4146.41,1534.72 L 4158.4,1535.21 L 4154.19,1638.21 Z " />
<path stroke="none" fill="#000000" transform="matrix(0.0666667 0 0 0.0666667 1.46635 1)" d="M 4324.63,1746.12 L 4324.34,1753.05 L 4318.21,1756.26 L 4141.92,1644.64 L 4154.19,1638.21 L 4324.63,1746.12 Z " />
<path stroke="none" fill="#000000" transform="matrix(0.0666667 0 0 0.0666667 1.46635 1)" d="M 3607.2,1280.99 L 3595.49,1273.58 L 3686.58,1225.83 L 3692.15,1236.46 L 3607.2,1280.99 Z " />
<path stroke="none" fill="#000000" transform="matrix(0.0666667 0 0 0.0666667 1.46635 1)" d="M 3598.96,1482.55 L 3592.83,1485.77 L 3586.97,1482.06 L 3595.49,1273.58 L 3607.2,1280.99 L 3598.96,1482.55 Z " />
<path stroke="none" fill="#000000" transform="matrix(0.0666667 0 0 0.0666667 1.46635 1)" d="M 3600.21,671.647 L 3600.77,657.802 L 3690.86,714.844 L 3684.44,724.982 L 3600.21,671.647 Z " />
<path stroke="none" fill="#000000" transform="matrix(0.0666667 0 0 0.0666667 1.46635 1)" d="M 3421.53,765.292 L 3415.68,761.585 L 3415.96,754.663 L 3600.77,657.802 L 3600.21,671.647 L 3421.53,765.292 Z " />
<text x="0" y="0" stroke="none" fill="#000000" transform="matrix(0.0666667 0 0 0.0666667 298.462 28.9114)" font-style="normal" font-weight="normal" font-size="180px" font-family="Arial" >
N</text>
<path stroke="none" fill="#000000" transform="matrix(0.0666667 0 0 0.0666667 1.46635 1)" d="M 4876.44,359.277 L 4888.15,366.689 L 4702.69,463.887 L 4696.84,460.181 L 4697.12,453.259 L 4876.44,359.277 Z " />
<path stroke="none" fill="#000000" transform="matrix(0.0666667 0 0 0.0666667 1.46635 1)" d="M 4842.74,334.388 L 4848.31,345.016 L 4701.4,422.012 L 4695.83,411.384 L 4842.74,334.388 Z " />
<path stroke="none" fill="#000000" transform="matrix(0.0666667 0 0 0.0666667 1.46635 1)" d="M 4884.71,156.988 L 4896.98,150.556 L 4888.15,366.689 L 4876.44,359.277 L 4884.71,156.988 Z " />
<path stroke="none" fill="#000000" transform="matrix(0.0666667 0 0 0.0666667 1.46635 1)" d="M 4713.66,48.6844 L 4714.22,34.8398 L 4896.98,150.556 L 4884.71,156.988 L 4713.66,48.6844 Z " />
<path stroke="none" fill="#000000" transform="matrix(0.0666667 0 0 0.0666667 1.46635 1)" d="M 4708.95,90.3146 L 4715.37,80.1761 L 4855.51,168.905 L 4849.09,179.044 L 4708.95,90.3146 Z " />
<path stroke="none" fill="#000000" transform="matrix(0.0666667 0 0 0.0666667 1.46635 1)" d="M 4534.34,142.667 L 4522.63,135.255 L 4714.22,34.8398 L 4713.66,48.6844 L 4534.34,142.667 Z " />
<path stroke="none" fill="#000000" transform="matrix(0.0666667 0 0 0.0666667 1.46635 1)" d="M 4529.55,259.704 L 4517.56,259.214 L 4522.63,135.255 L 4534.34,142.667 L 4529.55,259.704 Z " />
<path stroke="none" fill="#000000" transform="matrix(0.0666667 0 0 0.0666667 1.46635 1)" d="M 4567.21,261.243 L 4555.22,260.753 L 4559.26,161.997 L 4571.25,162.487 L 4567.21,261.243 Z " />
<path stroke="none" fill="#000000" transform="matrix(0.0666667 0 0 0.0666667 1.46635 1)" d="M 4697.12,453.259 L 4696.84,460.181 L 4690.7,463.397 L 4611.16,413.036 L 4617.58,402.898 L 4697.12,453.259 Z " />
<text x="0" y="0" stroke="none" fill="#000000" transform="matrix(0.0666667 0 0 0.0666667 320.786 66.1267)" font-style="normal" font-weight="normal" font-size="180px" font-family="Arial" >
N</text>
<path stroke="none" fill="#000000" transform="matrix(0.0666667 0 0 0.0666667 1.46635 1)" d="M 5074.29,1187.55 L 5076.08,1201.29 L 4882.74,1120.9 L 4881.85,1114.03 L 4887.35,1109.82 L 5074.29,1187.55 Z " />
<path stroke="none" fill="#000000" transform="matrix(0.0666667 0 0 0.0666667 1.46635 1)" d="M 5071.87,1145.73 L 5067.26,1156.81 L 4914.11,1093.12 L 4918.72,1082.04 L 5071.87,1145.73 Z " />
<path stroke="none" fill="#000000" transform="matrix(0.0666667 0 0 0.0666667 1.46635 1)" d="M 5235.08,1064.52 L 5247.87,1069.84 L 5076.08,1201.29 L 5074.29,1187.55 L 5235.08,1064.52 Z " />
<path stroke="none" fill="#000000" transform="matrix(0.0666667 0 0 0.0666667 1.46635 1)" d="M 5208.92,863.761 L 5219.93,855.341 L 5247.87,1069.84 L 5235.08,1064.52 L 5208.92,863.761 Z " />
<path stroke="none" fill="#000000" transform="matrix(0.0666667 0 0 0.0666667 1.46635 1)" d="M 5173.91,886.772 L 5185.81,885.222 L 5207.24,1049.7 L 5195.34,1051.25 L 5173.91,886.772 Z " />
<path stroke="none" fill="#000000" transform="matrix(0.0666667 0 0 0.0666667 1.46635 1)" d="M 5021.98,786.031 L 5020.19,772.291 L 5219.93,855.341 L 5208.92,863.761 L 5021.98,786.031 Z " />
<path stroke="none" fill="#000000" transform="matrix(0.0666667 0 0 0.0666667 1.46635 1)" d="M 4942.83,846.602 L 4935.53,837.072 L 5020.19,772.291 L 5021.98,786.031 L 4942.83,846.602 Z " />
<path stroke="none" fill="#000000" transform="matrix(0.0666667 0 0 0.0666667 1.46635 1)" d="M 4965.73,876.534 L 4958.44,867.004 L 5023.07,817.551 L 5030.36,827.081 L 4965.73,876.534 Z " />
<path stroke="none" fill="#000000" transform="matrix(0.0666667 0 0 0.0666667 1.46635 1)" d="M 4887.35,1109.82 L 4881.85,1114.03 L 4875.45,1111.37 L 4861.97,1007.9 L 4873.87,1006.35 L 4887.35,1109.82 Z " />
<text x="0" y="0" stroke="none" fill="#000000" transform="matrix(0.0666667 0 0 0.0666667 297.786 116.09)" font-style="normal" font-weight="normal" font-size="180px" font-family="Arial" >
N</text>
<path stroke="none" fill="#000000" transform="matrix(0.0666667 0 0 0.0666667 1.46635 1)" d="M 4321.93,1959.04 L 4309.66,1965.47 L 4318.21,1756.26 L 4324.34,1753.05 L 4330.2,1756.75 L 4321.93,1959.04 Z " />
<path stroke="none" fill="#000000" transform="matrix(0.0666667 0 0 0.0666667 1.46635 1)" d="M 4360.33,1942.3 L 4348.34,1941.81 L 4355.12,1776.08 L 4367.11,1776.57 L 4360.33,1942.3 Z " />
<path stroke="none" fill="#000000" transform="matrix(0.0666667 0 0 0.0666667 1.46635 1)" d="M 4492.98,2067.34 L 4492.41,2081.19 L 4309.66,1965.47 L 4321.93,1959.04 L 4492.98,2067.34 Z " />
<path stroke="none" fill="#000000" transform="matrix(0.0666667 0 0 0.0666667 1.46635 1)" d="M 4672.3,1973.36 L 4684.01,1980.77 L 4492.41,2081.19 L 4492.98,2067.34 L 4672.3,1973.36 Z " />
<path stroke="none" fill="#000000" transform="matrix(0.0666667 0 0 0.0666667 1.46635 1)" d="M 4638.6,1948.47 L 4644.17,1959.1 L 4497.26,2036.1 L 4491.69,2025.47 L 4638.6,1948.47 Z " />
<path stroke="none" fill="#000000" transform="matrix(0.0666667 0 0 0.0666667 1.46635 1)" d="M 4680.57,1771.07 L 4692.84,1764.64 L 4684.01,1980.77 L 4672.3,1973.36 L 4680.57,1771.07 Z " />
<path stroke="none" fill="#000000" transform="matrix(0.0666667 0 0 0.0666667 1.46635 1)" d="M 4601.03,1720.71 L 4607.45,1710.57 L 4692.84,1764.64 L 4680.57,1771.07 L 4601.03,1720.71 Z " />
<path stroke="none" fill="#000000" transform="matrix(0.0666667 0 0 0.0666667 1.46635 1)" d="M 4580.87,1752.56 L 4587.29,1742.42 L 4651.37,1782.99 L 4644.95,1793.13 L 4580.87,1752.56 Z " />
<path stroke="none" fill="#000000" transform="matrix(0.0666667 0 0 0.0666667 1.46635 1)" d="M 4330.2,1756.75 L 4324.34,1753.05 L 4324.63,1746.12 L 4410.22,1701.26 L 4415.79,1711.89 L 4330.2,1756.75 Z " />
<text x="0" y="0" stroke="none" fill="#000000" transform="matrix(0.0666667 0 0 0.0666667 248.448 112.218)" font-style="normal" font-weight="normal" font-size="180px" font-family="Arial" >
N</text>
<path stroke="none" fill="#000000" transform="matrix(0.0666667 0 0 0.0666667 1.46635 1)" d="M 3413.22,1586.67 L 3401.52,1579.26 L 3586.97,1482.06 L 3592.83,1485.77 L 3592.54,1492.69 L 3413.22,1586.67 Z " />
<path stroke="none" fill="#000000" transform="matrix(0.0666667 0 0 0.0666667 1.46635 1)" d="M 3446.92,1611.56 L 3441.35,1600.93 L 3588.26,1523.93 L 3593.83,1534.56 L 3446.92,1611.56 Z " />
<path stroke="none" fill="#000000" transform="matrix(0.0666667 0 0 0.0666667 1.46635 1)" d="M 3404.95,1788.96 L 3392.68,1795.39 L 3401.52,1579.26 L 3413.22,1586.67 L 3404.95,1788.96 Z " />
<path stroke="none" fill="#000000" transform="matrix(0.0666667 0 0 0.0666667 1.46635 1)" d="M 3576.01,1897.26 L 3575.44,1911.11 L 3392.68,1795.39 L 3404.95,1788.96 L 3576.01,1897.26 Z " />
<path stroke="none" fill="#000000" transform="matrix(0.0666667 0 0 0.0666667 1.46635 1)" d="M 3580.71,1855.63 L 3574.29,1865.77 L 3434.15,1777.04 L 3440.57,1766.9 L 3580.71,1855.63 Z " />
<path stroke="none" fill="#000000" transform="matrix(0.0666667 0 0 0.0666667 1.46635 1)" d="M 3755.33,1803.28 L 3767.03,1810.69 L 3575.44,1911.11 L 3576.01,1897.26 L 3755.33,1803.28 Z " />
<path stroke="none" fill="#000000" transform="matrix(0.0666667 0 0 0.0666667 1.46635 1)" d="M 3759.57,1699.55 L 3771.56,1700.04 L 3767.03,1810.69 L 3755.33,1803.28 L 3759.57,1699.55 Z " />
<path stroke="none" fill="#000000" transform="matrix(0.0666667 0 0 0.0666667 1.46635 1)" d="M 3721.91,1698.01 L 3733.9,1698.5 L 3730.4,1783.95 L 3718.41,1783.46 L 3721.91,1698.01 Z " />
<path stroke="none" fill="#000000" transform="matrix(0.0666667 0 0 0.0666667 1.46635 1)" d="M 3592.54,1492.69 L 3592.83,1485.77 L 3598.96,1482.55 L 3683.81,1536.27 L 3677.39,1546.41 L 3592.54,1492.69 Z " />
<text x="0" y="0" stroke="none" fill="#000000" transform="matrix(0.0666667 0 0 0.0666667 224.275 70.4197)" font-style="normal" font-weight="normal" font-size="180px" font-family="Arial" >
N</text>
<path stroke="none" fill="#000000" transform="matrix(0.0666667 0 0 0.0666667 1.46635 1)" d="M 3238.49,656.497 L 3239.05,642.653 L 3415.96,754.663 L 3415.68,761.585 L 3409.54,764.802 L 3238.49,656.497 Z " />
<path stroke="none" fill="#000000" transform="matrix(0.0666667 0 0 0.0666667 1.46635 1)" d="M 3233.78,698.127 L 3240.2,687.989 L 3380.34,776.719 L 3373.92,786.857 L 3233.78,698.127 Z " />
<path stroke="none" fill="#000000" transform="matrix(0.0666667 0 0 0.0666667 1.46635 1)" d="M 3059.17,750.48 L 3047.46,743.068 L 3239.05,642.653 L 3238.49,656.497 L 3059.17,750.48 Z " />
<path stroke="none" fill="#000000" transform="matrix(0.0666667 0 0 0.0666667 1.46635 1)" d="M 3050.9,952.767 L 3038.63,959.2 L 3047.46,743.068 L 3059.17,750.48 L 3050.9,952.767 Z " />
<path stroke="none" fill="#000000" transform="matrix(0.0666667 0 0 0.0666667 1.46635 1)" d="M 3089.3,936.026 L 3077.31,935.536 L 3084.09,769.81 L 3096.08,770.3 L 3089.3,936.026 Z " />
<path stroke="none" fill="#000000" transform="matrix(0.0666667 0 0 0.0666667 1.46635 1)" d="M 3221.95,1061.07 L 3221.38,1074.92 L 3038.63,959.2 L 3050.9,952.767 L 3221.95,1061.07 Z " />
<path stroke="none" fill="#000000" transform="matrix(0.0666667 0 0 0.0666667 1.46635 1)" d="M 3307.55,1016.21 L 3313.12,1026.84 L 3221.38,1074.92 L 3221.95,1061.07 L 3307.55,1016.21 Z " />
<path stroke="none" fill="#000000" transform="matrix(0.0666667 0 0 0.0666667 1.46635 1)" d="M 3290.05,982.828 L 3295.62,993.456 L 3226.23,1029.82 L 3220.66,1019.2 L 3290.05,982.828 Z " />
<path stroke="none" fill="#000000" transform="matrix(0.0666667 0 0 0.0666667 1.46635 1)" d="M 3409.54,764.802 L 3415.68,761.585 L 3421.53,765.292 L 3416.75,882.329 L 3404.76,881.839 L 3409.54,764.802 Z " />
<text x="0" y="0" stroke="none" fill="#000000" transform="matrix(0.0666667 0 0 0.0666667 266.431 73.2902)" font-style="normal" font-weight="normal" font-size="180px" font-family="Arial" >
Pb</text>
<text x="0" y="0" stroke="none" fill="#000000" transform="matrix(0.0666667 0 0 0.0666667 281.109 68.5902)" font-style="normal" font-weight="normal" font-size="135px" font-family="Arial" >
2+</text>
<text x="0" y="0" stroke="none" fill="#000000" transform="matrix(0.0666667 0 0 0.0666667 238.945 155.333)" font-style="normal" font-weight="bold" font-size="180px" font-family="Arial" >
PAPPy</text>
<text x="0" y="0" stroke="none" fill="#000000" transform="matrix(0.0666667 0 0 0.0666667 278.297 155.333)" font-style="normal" font-weight="normal" font-size="180px" font-family="Arial" >
 </text>
<text x="0" y="0" stroke="none" fill="#000000" transform="matrix(0.0666667 0 0 0.0666667 281.631 155.333)" font-style="normal" font-weight="normal" font-size="180px" font-family="Arial" >
+ </text>
<text x="0" y="0" stroke="none" fill="#000000" transform="matrix(0.0666667 0 0 0.0666667 291.973 155.333)" font-style="normal" font-weight="normal" font-size="180px" font-family="Arial" >
Pb</text>
<text x="0" y="0" stroke="none" fill="#000000" transform="matrix(0.0666667 0 0 0.0666667 306.651 150.633)" font-style="normal" font-weight="normal" font-size="135px" font-family="Arial" >
2+</text>
<text x="0" y="0" stroke="none" fill="#000000" transform="matrix(0.0666667 0 0 0.0666667 32.7063 156.133)" font-style="normal" font-weight="bold" font-size="180px" font-family="Arial" >
PATPy </text>
<text x="0" y="0" stroke="none" fill="#000000" transform="matrix(0.0666667 0 0 0.0666667 74.722 156.133)" font-style="normal" font-weight="normal" font-size="180px" font-family="Arial" >
+ </text>
<text x="0" y="0" stroke="none" fill="#000000" transform="matrix(0.0666667 0 0 0.0666667 85.0638 156.133)" font-style="normal" font-weight="normal" font-size="180px" font-family="Arial" >
Pb</text>
<text x="0" y="0" stroke="none" fill="#000000" transform="matrix(0.0666667 0 0 0.0666667 99.7415 151.433)" font-style="normal" font-weight="normal" font-size="135px" font-family="Arial" >
2+</text>
<text x="0" y="0" stroke="none" fill="#000000" transform="matrix(0.0666667 0 0 0.0666667 3.46633 171.8)" font-style="normal" font-weight="normal" font-size="180px" font-family="Arial" >
rigid </text>
<text x="0" y="0" stroke="none" fill="#000000" transform="matrix(0.0666667 0 0 0.0666667 29.4813 171.8)" font-style="normal" font-weight="normal" font-size="180px" font-family="Arial" >
asymmetric </text>
<text x="0" y="0" stroke="none" fill="#000000" transform="matrix(0.0666667 0 0 0.0666667 94.1636 171.8)" font-style="normal" font-weight="normal" font-size="180px" font-family="Arial" >
complex</text>
<text x="0" y="0" stroke="none" fill="#000000" transform="matrix(0.0666667 0 0 0.0666667 202.266 171.4)" font-style="normal" font-weight="normal" font-size="180px" font-family="Arial" >
several </text>
<text x="0" y="0" stroke="none" fill="#000000" transform="matrix(0.0666667 0 0 0.0666667 244.288 171.4)" font-style="normal" font-weight="normal" font-size="180px" font-family="Arial" >
different </text>
<text x="0" y="0" stroke="none" fill="#000000" transform="matrix(0.0666667 0 0 0.0666667 290.986 171.4)" font-style="normal" font-weight="normal" font-size="180px" font-family="Arial" >
conformers</text>
</svg>
