<svg width="1532" height="1345" xmlns="http://www.w3.org/2000/svg" xmlns:xlink="http://www.w3.org/1999/xlink" overflow="hidden"><defs><clipPath id="clip0"><rect x="0" y="0" width="1532" height="1345"/></clipPath><clipPath id="clip1"><rect x="0" y="0" width="1531" height="613"/></clipPath><linearGradient x1="769.719" y1="167.062" x2="769.719" y2="571.938" gradientUnits="userSpaceOnUse" spreadMethod="reflect" id="stroke2"><stop offset="0" stop-color="#DAE3F3"/><stop offset="0.08" stop-color="#DAE3F3"/><stop offset="0.18" stop-color="#2F5395"/><stop offset="0.268" stop-color="#DAE3F3"/><stop offset="1" stop-color="#DAE3F3"/></linearGradient><clipPath id="clip3"><rect x="232" y="170" width="1074" height="401"/></clipPath><clipPath id="clip4"><rect x="232" y="170" width="1074" height="401"/></clipPath><clipPath id="clip5"><rect x="232" y="170" width="1074" height="401"/></clipPath><clipPath id="clip6"><rect x="232" y="170" width="1074" height="401"/></clipPath><clipPath id="clip7"><rect x="232" y="170" width="1074" height="401"/></clipPath><clipPath id="clip8"><rect x="0" y="0" width="1531" height="613"/></clipPath><clipPath id="clip9"><rect x="0" y="0" width="1531" height="613"/></clipPath><clipPath id="clip10"><rect x="0" y="0" width="1531" height="613"/></clipPath><clipPath id="clip11"><rect x="0" y="0" width="1531" height="613"/></clipPath><clipPath id="clip12"><rect x="0" y="0" width="1531" height="613"/></clipPath><clipPath id="clip13"><rect x="0" y="0" width="1531" height="613"/></clipPath><clipPath id="clip14"><rect x="0" y="0" width="1531" height="613"/></clipPath><clipPath id="clip15"><rect x="0" y="0" width="1531" height="613"/></clipPath><clipPath id="clip16"><rect x="0" y="0" width="1531" height="613"/></clipPath><clipPath id="clip17"><rect x="0" y="0" width="1531" height="613"/></clipPath><clipPath id="clip18"><rect x="0" y="0" width="1531" height="613"/></clipPath><clipPath id="clip19"><rect x="0" y="0" width="1531" height="613"/></clipPath><clipPath id="clip20"><rect x="0" y="0" width="1531" height="613"/></clipPath><clipPath id="clip21"><rect x="0" y="0" width="1531" height="613"/></clipPath><clipPath id="clip22"><rect x="0" y="0" width="1531" height="613"/></clipPath><clipPath id="clip23"><rect x="0" y="0" width="1531" height="613"/></clipPath><clipPath id="clip24"><rect x="0" y="0" width="1531" height="613"/></clipPath><clipPath id="clip25"><rect x="0" y="0" width="1531" height="612"/></clipPath><linearGradient x1="769.719" y1="167.062" x2="769.719" y2="571.938" gradientUnits="userSpaceOnUse" spreadMethod="reflect" id="stroke26"><stop offset="0" stop-color="#DAE3F3"/><stop offset="0.08" stop-color="#DAE3F3"/><stop offset="0.18" stop-color="#2F5395"/><stop offset="0.268" stop-color="#DAE3F3"/><stop offset="1" stop-color="#DAE3F3"/></linearGradient><clipPath id="clip27"><rect x="232" y="170" width="1074" height="401"/></clipPath><clipPath id="clip28"><rect x="232" y="170" width="1074" height="401"/></clipPath><clipPath id="clip29"><rect x="232" y="170" width="1074" height="401"/></clipPath><clipPath id="clip30"><rect x="232" y="170" width="1074" height="401"/></clipPath><clipPath id="clip31"><rect x="232" y="170" width="1074" height="401"/></clipPath><clipPath id="clip32"><rect x="0" y="0" width="1531" height="612"/></clipPath><clipPath id="clip33"><rect x="0" y="0" width="1531" height="612"/></clipPath><clipPath id="clip34"><rect x="0" y="0" width="1531" height="612"/></clipPath><clipPath id="clip35"><rect x="0" y="0" width="1531" height="612"/></clipPath><clipPath id="clip36"><rect x="0" y="0" width="1531" height="612"/></clipPath><clipPath id="clip37"><rect x="0" y="0" width="1531" height="612"/></clipPath><clipPath id="clip38"><rect x="0" y="0" width="1531" height="612"/></clipPath><clipPath id="clip39"><rect x="0" y="0" width="1531" height="612"/></clipPath><clipPath id="clip40"><rect x="0" y="0" width="1531" height="612"/></clipPath><clipPath id="clip41"><rect x="0" y="0" width="1531" height="612"/></clipPath><clipPath id="clip42"><rect x="0" y="0" width="1531" height="612"/></clipPath><clipPath id="clip43"><rect x="0" y="0" width="1531" height="612"/></clipPath><clipPath id="clip44"><rect x="0" y="0" width="1531" height="612"/></clipPath><clipPath id="clip45"><rect x="0" y="0" width="1531" height="612"/></clipPath><clipPath id="clip46"><rect x="0" y="0" width="1531" height="612"/></clipPath><clipPath id="clip47"><rect x="0" y="0" width="1531" height="612"/></clipPath><clipPath id="clip48"><rect x="0" y="0" width="1531" height="612"/></clipPath><clipPath id="clip49"><rect x="0" y="605" width="1531" height="739"/></clipPath><linearGradient x1="765.719" y1="686.063" x2="765.719" y2="1109.94" gradientUnits="userSpaceOnUse" spreadMethod="reflect" id="stroke50"><stop offset="0" stop-color="#DAE3F3"/><stop offset="0.03" stop-color="#DAE3F3"/><stop offset="0.16" stop-color="#2F5395"/><stop offset="0.28" stop-color="#DAE3F3"/><stop offset="1" stop-color="#DAE3F3"/></linearGradient><clipPath id="clip51"><rect x="224" y="689" width="1082" height="420"/></clipPath><clipPath id="clip52"><rect x="224" y="689" width="1082" height="420"/></clipPath><clipPath id="clip53"><rect x="224" y="689" width="1082" height="420"/></clipPath><clipPath id="clip54"><rect x="224" y="689" width="1082" height="420"/></clipPath><clipPath id="clip55"><rect x="224" y="689" width="1082" height="420"/></clipPath><clipPath id="clip56"><rect x="0" y="605" width="1531" height="739"/></clipPath><clipPath id="clip57"><rect x="0" y="605" width="1531" height="739"/></clipPath><clipPath id="clip58"><rect x="0" y="605" width="1531" height="739"/></clipPath><clipPath id="clip59"><rect x="0" y="605" width="1531" height="739"/></clipPath><clipPath id="clip60"><rect x="0" y="605" width="1531" height="739"/></clipPath><clipPath id="clip61"><rect x="0" y="605" width="1531" height="739"/></clipPath><clipPath id="clip62"><rect x="0" y="605" width="1531" height="739"/></clipPath><clipPath id="clip63"><rect x="0" y="605" width="1531" height="739"/></clipPath><clipPath id="clip64"><rect x="0" y="605" width="1531" height="739"/></clipPath><clipPath id="clip65"><rect x="0" y="605" width="1531" height="739"/></clipPath><clipPath id="clip66"><rect x="0" y="605" width="1531" height="739"/></clipPath><clipPath id="clip67"><rect x="0" y="605" width="1531" height="739"/></clipPath><clipPath id="clip68"><rect x="0" y="605" width="1531" height="739"/></clipPath><clipPath id="clip69"><rect x="0" y="605" width="1531" height="739"/></clipPath><clipPath id="clip70"><rect x="0" y="605" width="1531" height="739"/></clipPath><clipPath id="clip71"><rect x="0" y="605" width="1531" height="739"/></clipPath><clipPath id="clip72"><rect x="0" y="605" width="1531" height="739"/></clipPath><clipPath id="clip73"><rect x="0" y="605" width="1531" height="739"/></clipPath><clipPath id="clip74"><rect x="0" y="605" width="1531" height="739"/></clipPath><clipPath id="clip75"><rect x="0" y="605" width="1531" height="739"/></clipPath><clipPath id="clip76"><rect x="0" y="605" width="1531" height="739"/></clipPath><clipPath id="clip77"><rect x="0" y="605" width="1531" height="739"/></clipPath><clipPath id="clip78"><rect x="0" y="605" width="1531" height="739"/></clipPath><clipPath id="clip79"><rect x="0" y="605" width="1531" height="739"/></clipPath><clipPath id="clip80"><rect x="0" y="605" width="1531" height="739"/></clipPath><clipPath id="clip81"><rect x="0" y="605" width="1531" height="739"/></clipPath><clipPath id="clip82"><rect x="0" y="605" width="1531" height="739"/></clipPath><clipPath id="clip83"><rect x="0" y="605" width="1531" height="739"/></clipPath><clipPath id="clip84"><rect x="0" y="605" width="1531" height="739"/></clipPath><clipPath id="clip85"><rect x="0" y="605" width="1531" height="739"/></clipPath></defs><g clip-path="url(#clip0)"><rect x="0" y="0" width="1532" height="613" fill="#FFFFFF"/><g clip-path="url(#clip1)"><path d="M232.5 568.5 1303.5 568.5M232.5 435.514 1303.5 435.514M232.5 369.512 1303.5 369.512M232.5 303.51 1303.5 303.51M232.5 237.508 1303.5 237.508M232.5 170.5 1303.5 170.5" stroke="url(#stroke2)" stroke-width="6.875" stroke-linejoin="round" stroke-miterlimit="10" fill="none"/></g><g clip-path="url(#clip3)"><path d="M253.008 324.011 280.009 324.011 280.009 502.016 253.008 502.016ZM431.014 324.011 459.015 324.011 459.015 502.016 431.014 502.016ZM610.02 317.01 637.021 317.01 637.021 502.016 610.02 502.016ZM789.026 324.011 816.027 324.011 816.027 502.016 789.026 502.016ZM967.032 324.011 994.033 324.011 994.033 502.016 967.032 502.016ZM1146.04 324.011 1173.04 324.011 1173.04 502.016 1146.04 502.016Z" stroke="#000000" stroke-width="2.29167" stroke-linejoin="round" stroke-miterlimit="10" fill="#D7B0FA"/></g><g clip-path="url(#clip4)"><path d="M280.009 218.007 308.01 218.007 308.01 502.016 280.009 502.016ZM459.015 221.007 486.016 221.007 486.016 502.016 459.015 502.016ZM637.021 228.007 665.022 228.007 665.022 502.016 637.021 502.016ZM816.027 254.008 843.028 254.008 843.028 502.016 816.027 502.016ZM994.033 231.008 1022.03 231.008 1022.03 502.016 994.033 502.016ZM1173.04 224.007 1200.04 224.007 1200.04 502.016 1173.04 502.016Z" stroke="#000000" stroke-width="2.29167" stroke-linejoin="round" stroke-miterlimit="10" fill="#7282FA"/></g><g clip-path="url(#clip5)"><path d="M308.01 311.01 335.011 311.01 335.011 502.016 308.01 502.016ZM486.016 313.01 514.017 313.01 514.017 502.016 486.016 502.016ZM665.022 311.01 692.023 311.01 692.023 502.016 665.022 502.016ZM843.028 335.011 871.029 335.011 871.029 502.016 843.028 502.016ZM1022.03 319.01 1049.03 319.01 1049.03 502.016 1022.03 502.016ZM1200.04 315.01 1228.04 315.01 1228.04 502.016 1200.04 502.016Z" stroke="#000000" stroke-width="2.29167" stroke-linejoin="round" stroke-miterlimit="10" fill="#FCAB8E"/></g><g clip-path="url(#clip6)"><path d="M335.011 332.011 363.012 332.011 363.012 502.016 335.011 502.016ZM514.017 321.011 541.018 321.011 541.018 502.016 514.017 502.016ZM692.023 317.01 720.024 317.01 720.024 502.016 692.023 502.016ZM871.029 322.011 898.029 322.011 898.029 502.016 871.029 502.016ZM1049.03 327.011 1077.04 327.011 1077.04 502.016 1049.03 502.016ZM1228.04 318.01 1255.04 318.01 1255.04 502.016 1228.04 502.016Z" stroke="#000000" stroke-width="2.29167" stroke-linejoin="round" stroke-miterlimit="10" fill="#1FC381"/></g><g clip-path="url(#clip7)"><path d="M363.012 523.017 390.013 523.017 390.013 502.016 363.012 502.016ZM541.018 510.017 569.019 510.017 569.019 502.016 541.018 502.016ZM720.024 508.017 747.025 508.017 747.025 502.016 720.024 502.016ZM898.029 489.016 926.03 489.016 926.03 502.016 898.029 502.016ZM1077.04 510.017 1104.04 510.017 1104.04 502.016 1077.04 502.016ZM1255.04 505.017 1283.04 505.017 1283.04 502.016 1255.04 502.016Z" stroke="#000000" stroke-width="2.29167" stroke-linejoin="round" stroke-miterlimit="10" fill="#EE0886"/></g><g clip-path="url(#clip8)"><path d="M232.5 501.5 1303.5 501.5" stroke="#D9D9D9" stroke-width="3.4375" stroke-linejoin="round" stroke-miterlimit="10" fill="none" fill-rule="evenodd"/></g><g clip-path="url(#clip9)"><text fill="#595959" font-family="Roboto,Roboto_MSFontService,Arial" font-weight="400" font-size="41" transform="translate(136.805 580)">-25</text></g><g clip-path="url(#clip10)"><text fill="#595959" font-family="Roboto,Roboto_MSFontService,Arial" font-weight="400" font-size="41" transform="translate(171.364 514)">0</text></g><g clip-path="url(#clip11)"><text fill="#595959" font-family="Roboto,Roboto_MSFontService,Arial" font-weight="400" font-size="41" transform="translate(148.195 448)">25</text></g><g clip-path="url(#clip12)"><text fill="#595959" font-family="Roboto,Roboto_MSFontService,Arial" font-weight="400" font-size="41" transform="translate(148.195 382)">50</text></g><g clip-path="url(#clip13)"><text fill="#595959" font-family="Roboto,Roboto_MSFontService,Arial" font-weight="400" font-size="41" transform="translate(148.195 316)">75</text></g><g clip-path="url(#clip14)"><text fill="#595959" font-family="Roboto,Roboto_MSFontService,Arial" font-weight="400" font-size="41" transform="translate(125.026 249)">100</text></g><g clip-path="url(#clip15)"><text fill="#595959" font-family="Roboto,Roboto_MSFontService,Arial" font-weight="400" font-size="41" transform="translate(125.026 183)">125</text></g><g clip-path="url(#clip16)"><text fill="#595959" font-family="Roboto Black,Roboto Black_MSFontService,Arial" font-weight="900" font-size="46" transform="translate(296.172 575)">2a</text></g><g clip-path="url(#clip17)"><text fill="#595959" font-family="Roboto Black,Roboto Black_MSFontService,Arial" font-weight="900" font-size="46" transform="translate(473.966 575)">2b</text></g><g clip-path="url(#clip18)"><text fill="#595959" font-family="Roboto Black,Roboto Black_MSFontService,Arial" font-weight="900" font-size="46" transform="translate(653.491 575)">2c</text></g><g clip-path="url(#clip19)"><text fill="#595959" font-family="Roboto Black,Roboto Black_MSFontService,Arial" font-weight="900" font-size="46" transform="translate(831.754 575)">4a</text></g><g clip-path="url(#clip20)"><text fill="#595959" font-family="Roboto Black,Roboto Black_MSFontService,Arial" font-weight="900" font-size="46" transform="translate(1009.55 575)">4b</text></g><g clip-path="url(#clip21)"><text fill="#595959" font-family="Roboto Black,Roboto Black_MSFontService,Arial" font-weight="900" font-size="46" transform="translate(1189.07 575)">4c</text></g><g clip-path="url(#clip22)"><text fill="#595959" font-family="Roboto,Roboto_MSFontService,Arial" font-weight="400" font-size="41" transform="matrix(6.12323e-17 -1 1 6.12323e-17 51.2803 497)">%, percentage</text></g><g clip-path="url(#clip23)"><text fill="#595959" font-family="Roboto,Roboto_MSFontService,Arial" font-weight="400" font-size="41" transform="matrix(6.12323e-17 -1 1 6.12323e-17 101.28 514)">to water control</text></g><g clip-path="url(#clip24)"><text fill="#595959" font-family="Roboto Medium,Roboto Medium_MSFontService,Arial" font-weight="500" font-size="55" transform="translate(671.341 138)">Roots</text></g><rect x="0" y="0" width="1532" height="613" fill="#FFFFFF"/><g clip-path="url(#clip25)"><path d="M232.5 568.5 1303.5 568.5M232.5 435.514 1303.5 435.514M232.5 369.512 1303.5 369.512M232.5 303.51 1303.5 303.51M232.5 237.508 1303.5 237.508M232.5 170.5 1303.5 170.5" stroke="url(#stroke26)" stroke-width="6.875" stroke-linejoin="round" stroke-miterlimit="10" fill="none"/></g><g clip-path="url(#clip27)"><path d="M253.008 324.011 280.009 324.011 280.009 502.016 253.008 502.016ZM431.014 324.011 459.015 324.011 459.015 502.016 431.014 502.016ZM610.02 317.01 637.021 317.01 637.021 502.016 610.02 502.016ZM788.026 324.011 816.027 324.011 816.027 502.016 788.026 502.016ZM967.032 324.011 994.033 324.011 994.033 502.016 967.032 502.016ZM1146.04 324.011 1173.04 324.011 1173.04 502.016 1146.04 502.016Z" stroke="#000000" stroke-width="2.29167" stroke-linejoin="round" stroke-miterlimit="10" fill="#D7B0FA"/></g><g clip-path="url(#clip28)"><path d="M280.009 218.007 308.01 218.007 308.01 502.016 280.009 502.016ZM459.015 221.007 486.016 221.007 486.016 502.016 459.015 502.016ZM637.021 228.007 665.022 228.007 665.022 502.016 637.021 502.016ZM816.027 254.008 843.028 254.008 843.028 502.016 816.027 502.016ZM994.033 231.008 1022.03 231.008 1022.03 502.016 994.033 502.016ZM1173.04 224.007 1200.04 224.007 1200.04 502.016 1173.04 502.016Z" stroke="#000000" stroke-width="2.29167" stroke-linejoin="round" stroke-miterlimit="10" fill="#7282FA"/></g><g clip-path="url(#clip29)"><path d="M308.01 311.01 335.011 311.01 335.011 502.016 308.01 502.016ZM486.016 313.01 514.017 313.01 514.017 502.016 486.016 502.016ZM665.022 311.01 692.023 311.01 692.023 502.016 665.022 502.016ZM843.028 335.011 871.029 335.011 871.029 502.016 843.028 502.016ZM1022.03 319.01 1049.03 319.01 1049.03 502.016 1022.03 502.016ZM1200.04 315.01 1228.04 315.01 1228.04 502.016 1200.04 502.016Z" stroke="#000000" stroke-width="2.29167" stroke-linejoin="round" stroke-miterlimit="10" fill="#FCAB8E"/></g><g clip-path="url(#clip30)"><path d="M335.011 332.011 363.012 332.011 363.012 502.016 335.011 502.016ZM514.017 321.011 541.018 321.011 541.018 502.016 514.017 502.016ZM692.023 317.01 720.024 317.01 720.024 502.016 692.023 502.016ZM871.029 322.011 898.029 322.011 898.029 502.016 871.029 502.016ZM1049.03 327.011 1077.04 327.011 1077.04 502.016 1049.03 502.016ZM1228.04 318.01 1255.04 318.01 1255.04 502.016 1228.04 502.016Z" stroke="#000000" stroke-width="2.29167" stroke-linejoin="round" stroke-miterlimit="10" fill="#1FC381"/></g><g clip-path="url(#clip31)"><path d="M363.012 523.017 390.013 523.017 390.013 502.016 363.012 502.016ZM541.018 510.017 569.019 510.017 569.019 502.016 541.018 502.016ZM720.024 508.017 747.025 508.017 747.025 502.016 720.024 502.016ZM898.029 489.016 926.03 489.016 926.03 502.016 898.029 502.016ZM1077.04 510.017 1104.04 510.017 1104.04 502.016 1077.04 502.016ZM1255.04 505.017 1283.04 505.017 1283.04 502.016 1255.04 502.016Z" stroke="#000000" stroke-width="2.29167" stroke-linejoin="round" stroke-miterlimit="10" fill="#EE0886"/></g><g clip-path="url(#clip32)"><path d="M232.5 501.5 1303.5 501.5" stroke="#D9D9D9" stroke-width="3.4375" stroke-linejoin="round" stroke-miterlimit="10" fill="none" fill-rule="evenodd"/></g><g clip-path="url(#clip33)"><text fill="#595959" font-family="Roboto,Roboto_MSFontService,Arial" font-weight="400" font-size="41" transform="translate(136.799 580)">-25</text></g><g clip-path="url(#clip34)"><text fill="#595959" font-family="Roboto,Roboto_MSFontService,Arial" font-weight="400" font-size="41" transform="translate(171.358 514)">0</text></g><g clip-path="url(#clip35)"><text fill="#595959" font-family="Roboto,Roboto_MSFontService,Arial" font-weight="400" font-size="41" transform="translate(148.189 448)">25</text></g><g clip-path="url(#clip36)"><text fill="#595959" font-family="Roboto,Roboto_MSFontService,Arial" font-weight="400" font-size="41" transform="translate(148.189 382)">50</text></g><g clip-path="url(#clip37)"><text fill="#595959" font-family="Roboto,Roboto_MSFontService,Arial" font-weight="400" font-size="41" transform="translate(148.189 316)">75</text></g><g clip-path="url(#clip38)"><text fill="#595959" font-family="Roboto,Roboto_MSFontService,Arial" font-weight="400" font-size="41" transform="translate(125.02 249)">100</text></g><g clip-path="url(#clip39)"><text fill="#595959" font-family="Roboto,Roboto_MSFontService,Arial" font-weight="400" font-size="41" transform="translate(125.02 183)">125</text></g><g clip-path="url(#clip40)"><text fill="#595959" font-family="Roboto Black,Roboto Black_MSFontService,Arial" font-weight="900" font-size="46" transform="translate(296.163 575)">2a</text></g><g clip-path="url(#clip41)"><text fill="#595959" font-family="Roboto Black,Roboto Black_MSFontService,Arial" font-weight="900" font-size="46" transform="translate(473.953 575)">2b</text></g><g clip-path="url(#clip42)"><text fill="#595959" font-family="Roboto Black,Roboto Black_MSFontService,Arial" font-weight="900" font-size="46" transform="translate(653.472 575)">2c</text></g><g clip-path="url(#clip43)"><text fill="#595959" font-family="Roboto Black,Roboto Black_MSFontService,Arial" font-weight="900" font-size="46" transform="translate(831.732 575)">4a</text></g><g clip-path="url(#clip44)"><text fill="#595959" font-family="Roboto Black,Roboto Black_MSFontService,Arial" font-weight="900" font-size="46" transform="translate(1009.52 575)">4b</text></g><g clip-path="url(#clip45)"><text fill="#595959" font-family="Roboto Black,Roboto Black_MSFontService,Arial" font-weight="900" font-size="46" transform="translate(1189.04 575)">4c</text></g><g clip-path="url(#clip46)"><text fill="#595959" font-family="Roboto,Roboto_MSFontService,Arial" font-weight="400" font-size="41" transform="matrix(6.12323e-17 -1 1 6.12323e-17 51.2741 497)">%, percentage</text></g><g clip-path="url(#clip47)"><text fill="#595959" font-family="Roboto,Roboto_MSFontService,Arial" font-weight="400" font-size="41" transform="matrix(6.12323e-17 -1 1 6.12323e-17 101.274 514)">to water control</text></g><g clip-path="url(#clip48)"><text fill="#595959" font-family="Roboto Medium,Roboto Medium_MSFontService,Arial" font-weight="500" font-size="55" transform="translate(671.323 138)">Roots</text></g><rect x="0" y="606" width="1531" height="739" fill="#FFFFFF"/><g clip-path="url(#clip49)"><path d="M224.5 1106.5 1303.5 1106.5M224.5 987.533 1303.5 987.533M224.5 927.531 1303.5 927.531M224.5 868.529 1303.5 868.529M224.5 808.527 1303.5 808.527M224.5 749.525 1303.5 749.525M224.5 689.5 1303.5 689.5" stroke="url(#stroke50)" stroke-width="6.875" stroke-linejoin="round" stroke-miterlimit="10" fill="none"/></g><g clip-path="url(#clip51)"><path d="M246.008 833.027 273.009 833.027 273.009 1047.03 246.008 1047.03ZM425.014 833.027 453.015 833.027 453.015 1047.03 425.014 1047.03ZM605.02 832.027 633.021 832.027 633.021 1047.03 605.02 1047.03ZM785.026 833.027 813.027 833.027 813.027 1047.03 785.026 1047.03ZM965.032 833.027 992.033 833.027 992.033 1047.03 965.032 1047.03ZM1144.04 833.027 1172.04 833.027 1172.04 1047.03 1144.04 1047.03Z" stroke="#000000" stroke-width="2.29167" stroke-linejoin="round" stroke-miterlimit="10" fill="#D7B0FA"/></g><g clip-path="url(#clip52)"><path d="M273.009 741.024 301.01 741.024 301.01 1047.03 273.009 1047.03ZM453.015 722.024 481.016 722.024 481.016 1047.03 453.015 1047.03ZM633.021 786.026 660.022 786.026 660.022 1047.03 633.021 1047.03ZM813.027 797.026 840.028 797.026 840.028 1047.03 813.027 1047.03ZM992.033 766.025 1020.03 766.025 1020.03 1047.03 992.033 1047.03ZM1172.04 739.024 1200.04 739.024 1200.04 1047.03 1172.04 1047.03Z" stroke="#000000" stroke-width="2.29167" stroke-linejoin="round" stroke-miterlimit="10" fill="#7282FA"/></g><g clip-path="url(#clip53)"><path d="M301.01 827.027 329.011 827.027 329.011 1047.03 301.01 1047.03ZM481.016 814.027 508.017 814.027 508.017 1047.03 481.016 1047.03ZM660.022 859.028 688.023 859.028 688.023 1047.03 660.022 1047.03ZM840.028 867.028 868.029 867.028 868.029 1047.03 840.028 1047.03ZM1020.03 845.028 1048.03 845.028 1048.03 1047.03 1020.03 1047.03ZM1200.04 826.027 1227.04 826.027 1227.04 1047.03 1200.04 1047.03Z" stroke="#000000" stroke-width="2.29167" stroke-linejoin="round" stroke-miterlimit="10" fill="#FCAB8E"/></g><g clip-path="url(#clip54)"><path d="M329.011 835.027 356.012 835.027 356.012 1047.03 329.011 1047.03ZM508.017 815.027 536.018 815.027 536.018 1047.03 508.017 1047.03ZM688.023 849.028 716.023 849.028 716.023 1047.03 688.023 1047.03ZM868.029 857.028 895.029 857.028 895.029 1047.03 868.029 1047.03ZM1048.03 853.028 1075.04 853.028 1075.04 1047.03 1048.03 1047.03ZM1227.04 827.027 1255.04 827.027 1255.04 1047.03 1227.04 1047.03Z" stroke="#000000" stroke-width="2.29167" stroke-linejoin="round" stroke-miterlimit="10" fill="#1FC381"/></g><g clip-path="url(#clip55)"><path d="M356.012 1054.03 384.013 1054.03 384.013 1047.03 356.012 1047.03ZM536.018 1048.03 564.018 1048.03 564.018 1047.03 536.018 1047.03ZM716.023 1037.03 743.024 1037.03 743.024 1047.03 716.023 1047.03ZM895.029 1036.03 923.03 1036.03 923.03 1047.03 895.029 1047.03ZM1075.04 1054.03 1103.04 1054.03 1103.04 1047.03 1075.04 1047.03ZM1255.04 1047.03 1283.04 1047.03 1283.04 1048.03 1255.04 1048.03Z" stroke="#000000" stroke-width="2.29167" stroke-linejoin="round" stroke-miterlimit="10" fill="#EE0886"/></g><g clip-path="url(#clip56)"><path d="M224.5 1046.5 1303.5 1046.5" stroke="#D9D9D9" stroke-width="3.4375" stroke-linejoin="round" stroke-miterlimit="10" fill="none" fill-rule="evenodd"/></g><g clip-path="url(#clip57)"><text fill="#595959" font-family="Roboto,Roboto_MSFontService,Arial" font-weight="400" font-size="41" transform="translate(129.299 1119)">-20</text></g><g clip-path="url(#clip58)"><text fill="#595959" font-family="Roboto,Roboto_MSFontService,Arial" font-weight="400" font-size="41" transform="translate(163.858 1059)">0</text></g><g clip-path="url(#clip59)"><text fill="#595959" font-family="Roboto,Roboto_MSFontService,Arial" font-weight="400" font-size="41" transform="translate(140.689 999)">20</text></g><g clip-path="url(#clip60)"><text fill="#595959" font-family="Roboto,Roboto_MSFontService,Arial" font-weight="400" font-size="41" transform="translate(140.689 940)">40</text></g><g clip-path="url(#clip61)"><text fill="#595959" font-family="Roboto,Roboto_MSFontService,Arial" font-weight="400" font-size="41" transform="translate(140.689 880)">60</text></g><g clip-path="url(#clip62)"><text fill="#595959" font-family="Roboto,Roboto_MSFontService,Arial" font-weight="400" font-size="41" transform="translate(140.689 821)">80</text></g><g clip-path="url(#clip63)"><text fill="#595959" font-family="Roboto,Roboto_MSFontService,Arial" font-weight="400" font-size="41" transform="translate(117.52 761)">100</text></g><g clip-path="url(#clip64)"><text fill="#595959" font-family="Roboto,Roboto_MSFontService,Arial" font-weight="400" font-size="41" transform="translate(117.52 702)">120</text></g><g clip-path="url(#clip65)"><text fill="#595959" font-family="Roboto Black,Roboto Black_MSFontService,Arial" font-weight="900" font-size="46" transform="translate(289.288 1120)">2a</text></g><g clip-path="url(#clip66)"><text fill="#595959" font-family="Roboto Black,Roboto Black_MSFontService,Arial" font-weight="900" font-size="46" transform="translate(468.325 1120)">2b</text></g><g clip-path="url(#clip67)"><text fill="#595959" font-family="Roboto Black,Roboto Black_MSFontService,Arial" font-weight="900" font-size="46" transform="translate(649.093 1120)">2c</text></g><g clip-path="url(#clip68)"><text fill="#595959" font-family="Roboto Black,Roboto Black_MSFontService,Arial" font-weight="900" font-size="46" transform="translate(828.601 1120)">4a</text></g><g clip-path="url(#clip69)"><text fill="#595959" font-family="Roboto Black,Roboto Black_MSFontService,Arial" font-weight="900" font-size="46" transform="translate(1007.64 1120)">4b</text></g><g clip-path="url(#clip70)"><text fill="#595959" font-family="Roboto Black,Roboto Black_MSFontService,Arial" font-weight="900" font-size="46" transform="translate(1188.41 1120)">4c</text></g><g clip-path="url(#clip71)"><text fill="#595959" font-family="Roboto,Roboto_MSFontService,Arial" font-weight="400" font-size="41" transform="matrix(6.12323e-17 -1 1 6.12323e-17 46.03 1025)">%, percentage</text></g><g clip-path="url(#clip72)"><text fill="#595959" font-family="Roboto,Roboto_MSFontService,Arial" font-weight="400" font-size="41" transform="matrix(6.12323e-17 -1 1 6.12323e-17 96.03 1043)">to water control</text></g><g clip-path="url(#clip73)"><text fill="#595959" font-family="Roboto Medium,Roboto Medium_MSFontService,Arial" font-weight="500" font-size="55" transform="translate(655.324 664)">Sprouts</text></g><g clip-path="url(#clip74)"><rect x="167" y="1178" width="22" height="22" stroke="#000000" stroke-width="2.29167" stroke-linejoin="round" stroke-miterlimit="10" fill="#D7B0FA"/></g><g clip-path="url(#clip75)"><text fill="#595959" font-family="Roboto Medium,Roboto Medium_MSFontService,Arial" font-weight="500" font-size="41" transform="translate(198.221 1201)">Zinger SP</text></g><g clip-path="url(#clip76)"><rect x="411" y="1178" width="22" height="22" stroke="#000000" stroke-width="2.29167" stroke-linejoin="round" stroke-miterlimit="10" fill="#7282FA"/></g><g clip-path="url(#clip77)"><text fill="#595959" font-family="Roboto Medium,Roboto Medium_MSFontService,Arial" font-weight="500" font-size="41" transform="translate(442.656 1201)">Compound</text></g><g clip-path="url(#clip78)"><rect x="678" y="1178" width="22" height="22" stroke="#000000" stroke-width="2.29167" stroke-linejoin="round" stroke-miterlimit="10" fill="#FCAB8E"/></g><g clip-path="url(#clip79)"><text fill="#595959" font-family="Roboto Medium,Roboto Medium_MSFontService,Arial" font-weight="500" font-size="41" transform="translate(709.39 1201)">Ecalc</text></g><g clip-path="url(#clip80)"><rect x="842" y="1178" width="22" height="22" stroke="#000000" stroke-width="2.29167" stroke-linejoin="round" stroke-miterlimit="10" fill="#1FC381"/></g><g clip-path="url(#clip81)"><text fill="#595959" font-family="Roboto Medium,Roboto Medium_MSFontService,Arial" font-weight="500" font-size="41" transform="translate(873.341 1201)">Eexp</text></g><g clip-path="url(#clip82)"><rect x="996" y="1178" width="22" height="22" stroke="#000000" stroke-width="2.29167" stroke-linejoin="round" stroke-miterlimit="10" fill="#EE0886"/></g><g clip-path="url(#clip83)"><text fill="#595959" font-family="Roboto Medium,Roboto Medium_MSFontService,Arial" font-weight="500" font-size="41" transform="translate(1027.35 1201)">Eexp</text></g><g clip-path="url(#clip84)"><text fill="#595959" font-family="Roboto Medium,Roboto Medium_MSFontService,Arial" font-weight="500" font-size="41" transform="translate(1127.03 1201)">–</text></g><g clip-path="url(#clip85)"><text fill="#595959" font-family="Roboto Medium,Roboto Medium_MSFontService,Arial" font-weight="500" font-size="41" transform="translate(1163.91 1201)">Ecalc, %</text></g></g></svg>