<?xml version="1.0" standalone="no" ?>
<!DOCTYPE svg PUBLIC "-//W3C//DTD SVG 1.1//EN" "http://www.w3.org/Graphics/SVG/1.1/DTD/svg11.dtd">
<svg width="517px" height="298px" viewBox="0 0 517 298" style="background-color: #ffffff00" xmlns="http://www.w3.org/2000/svg" xmlns:xlink="http://www.w3.org/1999/xlink" version="1.1" >
<text x="0" y="0" stroke="none" fill="#000000" transform="matrix(0.0833333 0 0 0.0833333 137.494 147.18)" font-style="normal" font-weight="normal" font-size="200px" font-family="Times New Roman" >
N</text>
<text x="0" y="0" stroke="none" fill="#000000" transform="matrix(0.0833333 0 0 0.0833333 166.953 147.18)" font-style="normal" font-weight="normal" font-size="200px" font-family="Times New Roman" >
C</text>
<text x="0" y="0" stroke="none" fill="#000000" transform="matrix(0.0833333 0 0 0.0833333 190.631 125.21)" font-style="normal" font-weight="normal" font-size="200px" font-family="Times New Roman" >
Et</text>
<text x="0" y="0" stroke="none" fill="#000000" transform="matrix(0.0833333 0 0 0.0833333 190.244 166.18)" font-style="normal" font-weight="normal" font-size="200px" font-family="Times New Roman" >
OH</text>
<path stroke="none" fill="#000000" transform="matrix(0.0833333 0 0 0.0833333 -67.175 -212.25)" d="M 2200.57,4609.22 L 2188.59,4604.65 L 2186.65,4589.18 L 2429.78,4324.88 L 2447.3,4341 L 2200.57,4609.22 Z " />
<path stroke="none" fill="#000000" transform="matrix(0.0833333 0 0 0.0833333 -67.175 -212.25)" d="M 1929.19,3740.37 L 1950.06,3752.26 L 1924.51,3764.18 L 1735.91,3764.32 L 1749,3740.5 L 1929.19,3740.37 L 1929.19,3740.37 Z " />
<path stroke="none" fill="#000000" transform="matrix(0.0833333 0 0 0.0833333 -67.175 -212.25)" d="M 1522.3,3764.48 L 1508.21,3740.68 L 1649.33,3740.58 L 1636.23,3764.4 L 1522.3,3764.48 L 1522.3,3764.48 Z " />
<path stroke="none" fill="#000000" transform="matrix(0.0833333 0 0 0.0833333 -67.175 -212.25)" d="M 1213.1,3764.71 L 1187.11,3752.83 L 1207.65,3740.91 L 1406.8,3740.76 L 1420.89,3764.56 L 1213.1,3764.71 L 1213.1,3764.71 Z " />
<path stroke="none" fill="#000000" transform="matrix(0.0833333 0 0 0.0833333 -67.175 -212.25)" d="M 1003.26,3130.89 L 950.086,3147.19 L 938.018,3140.32 L 1561.43,2789.04 L 1561.47,2802.68 L 1515.79,2842.09 L 1003.26,3130.89 Z " />
<path stroke="none" fill="#000000" transform="matrix(0.0833333 0 0 0.0833333 -67.175 -212.25)" d="M 1609.2,2842.79 L 1561.47,2802.68 L 1561.43,2789.04 L 2193.33,3139.82 L 2181.53,3146.89 L 2127.68,3130.62 L 1609.2,2842.79 Z " />
<path stroke="none" fill="#000000" transform="matrix(0.0833333 0 0 0.0833333 -67.175 -212.25)" d="M 2170.59,3208.84 L 2181.53,3146.89 L 2193.33,3139.82 L 2204.22,3838.54 L 2192.39,3843.01 L 2179.55,3783.39 L 2170.59,3208.84 Z " />
<path stroke="none" fill="#000000" transform="matrix(0.0833333 0 0 0.0833333 -67.175 -212.25)" d="M 2127.55,3866.73 L 2192.39,3843.01 L 2189.77,3858.28 L 1624.6,4184.88 L 1612.13,4176.76 L 1612.11,4168.6 L 1611.74,4168.6 L 1626.22,4156.45 L 2127.55,3866.73 L 2127.55,3866.73 Z " />
<path stroke="none" fill="#000000" transform="matrix(0.0833333 0 0 0.0833333 -67.175 -212.25)" d="M 1518.37,4154.86 L 1535.16,4168.77 L 1524.81,4168.8 L 1524.82,4177.02 L 1517.49,4181.87 L 954.621,3855.71 L 966.368,3848.76 L 1029.15,3871.38 L 1518.37,4154.86 L 1518.37,4154.86 Z " />
<path stroke="none" fill="#000000" transform="matrix(0.0833333 0 0 0.0833333 -67.175 -212.25)" d="M 976.895,3789.22 L 966.368,3848.76 L 954.621,3855.71 L 938.018,3140.32 L 950.086,3147.19 L 963.552,3214.26 L 976.895,3789.22 Z " />
<path stroke="none" fill="#000000" transform="matrix(0.0833333 0 0 0.0833333 -67.175 -212.25)" d="M 1549.66,2837.29 L 1561.47,2802.68 L 1573.47,2836.47 L 1574.16,3086.1 L 1562.28,3097.09 L 1550.35,3086.12 L 1549.66,2837.29 Z " />
<path stroke="none" fill="#000000" transform="matrix(0.0833333 0 0 0.0833333 -67.175 -212.25)" d="M 2127.68,3130.62 L 2181.53,3146.89 L 2143.19,3155.75 L 1886.26,3135.09 L 1865.61,3109.54 L 2127.68,3130.62 L 2127.68,3130.62 Z " />
<path stroke="none" fill="#000000" transform="matrix(0.0833333 0 0 0.0833333 -67.175 -212.25)" d="M 1584.23,3110.8 L 1562.28,3097.09 L 1574.16,3086.1 L 1745.55,3099.88 L 1766.2,3125.43 L 1584.23,3110.8 L 1584.23,3110.8 Z " />
<path stroke="none" fill="#000000" transform="matrix(0.0833333 0 0 0.0833333 -67.175 -212.25)" d="M 989.035,3155.95 L 950.086,3147.19 L 1003.26,3130.89 L 1268.1,3109.22 L 1248.28,3134.73 L 989.035,3155.95 L 989.035,3155.95 Z " />
<path stroke="none" fill="#000000" transform="matrix(0.0833333 0 0 0.0833333 -67.175 -212.25)" d="M 1550.35,3086.12 L 1562.28,3097.09 L 1540.72,3110.8 L 1366.33,3125.07 L 1386.15,3099.56 L 1550.35,3086.12 L 1550.35,3086.12 Z " />
<path stroke="none" fill="#000000" transform="matrix(0.0833333 0 0 0.0833333 -67.175 -212.25)" d="M 1171.84,3746.48 L 1187.11,3752.83 L 1183.82,3767.24 L 1007.94,3843.67 L 966.368,3848.76 L 987.899,3826.42 L 1171.84,3746.48 Z " />
<path stroke="none" fill="#000000" transform="matrix(0.0833333 0 0 0.0833333 -67.175 -212.25)" d="M 2170.33,3822.04 L 2192.39,3843.01 L 2147.59,3838.95 L 1953.77,3766.36 L 1950.06,3752.26 L 1965.47,3745.31 L 2170.33,3822.04 Z " />
<path stroke="none" fill="#000000" transform="matrix(0.0833333 0 0 0.0833333 -67.175 -212.25)" d="M 1965.47,3745.31 L 1950.06,3752.26 L 1947.75,3724.97 L 2016.21,3545.92 L 2029.75,3577.19 L 1965.47,3745.31 L 1965.47,3745.31 Z " />
<path stroke="none" fill="#000000" transform="matrix(0.0833333 0 0 0.0833333 -67.175 -212.25)" d="M 2158.22,3174.52 L 2181.53,3146.89 L 2170.59,3208.84 L 2074.37,3460.5 L 2060.83,3429.23 L 2158.22,3174.52 L 2158.22,3174.52 Z " />
<path stroke="none" fill="#000000" transform="matrix(0.0833333 0 0 0.0833333 -67.175 -212.25)" d="M 963.552,3214.26 L 950.086,3147.19 L 973.561,3174.5 L 1078.5,3442.64 L 1065.71,3475.3 L 963.552,3214.26 L 963.552,3214.26 Z " />
<path stroke="none" fill="#000000" transform="matrix(0.0833333 0 0 0.0833333 -67.175 -212.25)" d="M 1189.13,3725.32 L 1187.11,3752.83 L 1171.84,3746.48 L 1112.58,3595.06 L 1125.37,3562.4 L 1189.13,3725.32 L 1189.13,3725.32 Z " />
<path stroke="none" fill="#000000" transform="matrix(0.0833333 0 0 0.0833333 -67.175 -212.25)" d="M 1570.92,4146.52 L 1568.35,4148.22 L 1565.77,4146.54 L 1563.54,4149.97 L 1570.46,3962.32 L 1582.74,3952.31 L 1594.29,3962.33 L 1587.3,4151.76 L 1585.45,4149.19 L 1578.03,4154.53 L 1574.85,4152.45 L 1570.92,4146.52 L 1570.92,4146.52 Z " />
<path stroke="none" fill="#000000" transform="matrix(0.0833333 0 0 0.0833333 -67.175 -212.25)" d="M 1518.37,4154.86 L 1347.67,3957.08 L 1384.46,3963.26 L 1548.24,4153.02 L 1537.41,4168.69 L 1537.3,4168.77 L 1535.16,4168.77 L 1518.37,4154.86 L 1518.37,4154.86 Z " />
<path stroke="none" fill="#000000" transform="matrix(0.0833333 0 0 0.0833333 -67.175 -212.25)" d="M 1183.82,3767.24 L 1187.11,3752.83 L 1213.1,3764.71 L 1295.09,3859.72 L 1258.31,3853.54 L 1183.82,3767.24 L 1183.82,3767.24 Z " />
<path stroke="none" fill="#000000" transform="matrix(0.0833333 0 0 0.0833333 -67.175 -212.25)" d="M 1924.51,3764.18 L 1950.06,3752.26 L 1953.77,3766.36 L 1879.55,3854.75 L 1842.95,3861.31 L 1924.51,3764.18 L 1924.51,3764.18 Z " />
<path stroke="none" fill="#000000" transform="matrix(0.0833333 0 0 0.0833333 -67.175 -212.25)" d="M 1626.22,4156.45 L 1611.74,4168.6 L 1599.66,4168.63 L 1599.21,4168.34 L 1592.72,4159.31 L 1755.27,3965.73 L 1791.87,3959.17 L 1626.22,4156.45 L 1626.22,4156.45 Z " />
<path stroke="none" fill="#000000" transform="matrix(0.0833333 0 0 0.0833333 -67.175 -212.25)" d="M 1947.75,3724.97 L 1950.06,3752.26 L 1929.19,3740.37 L 1835.81,3582.6 L 1849.14,3558.36 L 1947.75,3724.97 L 1947.75,3724.97 Z " />
<path stroke="none" fill="#000000" transform="matrix(0.0833333 0 0 0.0833333 -67.175 -212.25)" d="M 1684.89,3327.6 L 1712.54,3327.58 L 1797.48,3471.09 L 1784.16,3495.33 L 1684.89,3327.6 L 1684.89,3327.6 Z " />
<path stroke="none" fill="#000000" transform="matrix(0.0833333 0 0 0.0833333 -67.175 -212.25)" d="M 1562.46,3120.76 L 1562.28,3097.09 L 1584.23,3110.8 L 1660.89,3240.31 L 1633.23,3240.33 L 1562.46,3120.76 L 1562.46,3120.76 Z " />
<path stroke="none" fill="#000000" transform="matrix(0.0833333 0 0 0.0833333 -67.175 -212.25)" d="M 1207.65,3740.91 L 1187.11,3752.83 L 1189.13,3725.32 L 1291.63,3546.17 L 1305.58,3569.74 L 1207.65,3740.91 L 1207.65,3740.91 Z " />
<path stroke="none" fill="#000000" transform="matrix(0.0833333 0 0 0.0833333 -67.175 -212.25)" d="M 1540.72,3110.8 L 1562.28,3097.09 L 1562.46,3120.76 L 1493.98,3240.43 L 1466.54,3240.45 L 1540.72,3110.8 L 1540.72,3110.8 Z " />
<path stroke="none" fill="#000000" transform="matrix(0.0833333 0 0 0.0833333 -67.175 -212.25)" d="M 1355.45,3482.58 L 1341.5,3459.01 L 1416.57,3327.8 L 1444.01,3327.78 L 1355.45,3482.58 L 1355.45,3482.58 Z " />
<path stroke="none" fill="#000000" transform="matrix(0.0833333 0 0 0.0833333 -67.175 -212.25)" d="M 2143.19,3155.75 L 2181.53,3146.89 L 2158.22,3174.52 L 1965.39,3288.66 L 1950.29,3283.76 L 1953.08,3268.27 L 2143.19,3155.75 Z " />
<path stroke="none" fill="#000000" transform="matrix(0.0833333 0 0 0.0833333 -67.175 -212.25)" d="M 2179.55,3783.39 L 2192.39,3843.01 L 2170.33,3822.04 L 1949.02,3310.79 L 1950.29,3283.76 L 1965.39,3288.66 L 2179.55,3783.39 Z " />
<path stroke="none" fill="#000000" transform="matrix(0.0833333 0 0 0.0833333 -67.175 -212.25)" d="M 1573.47,2836.47 L 1561.47,2802.68 L 1609.2,2842.79 L 1953.08,3268.27 L 1950.29,3283.76 L 1925.38,3271.87 L 1573.47,2836.47 Z " />
<path stroke="none" fill="#000000" transform="matrix(0.0833333 0 0 0.0833333 -67.175 -212.25)" d="M 973.561,3174.5 L 950.086,3147.19 L 989.035,3155.95 L 1184.34,3268.81 L 1187.37,3284.31 L 1172.55,3289.5 L 973.561,3174.5 Z " />
<path stroke="none" fill="#000000" transform="matrix(0.0833333 0 0 0.0833333 -67.175 -212.25)" d="M 1515.79,2842.09 L 1561.47,2802.68 L 1549.66,2837.29 L 1211.7,3272.39 L 1187.37,3284.31 L 1184.34,3268.81 L 1515.79,2842.09 Z " />
<path stroke="none" fill="#000000" transform="matrix(0.0833333 0 0 0.0833333 -67.175 -212.25)" d="M 987.899,3826.42 L 966.368,3848.76 L 976.895,3789.22 L 1172.55,3289.5 L 1187.37,3284.31 L 1189.56,3311.38 L 987.899,3826.42 Z " />
<path stroke="none" fill="#000000" transform="matrix(0.0833333 0 0 0.0833333 -67.175 -212.25)" d="M 1925.38,3271.87 L 1950.29,3283.76 L 1930.15,3295.68 L 1208.24,3296.2 L 1187.37,3284.31 L 1211.7,3272.39 L 1925.38,3271.87 Z " />
<path stroke="none" fill="#000000" transform="matrix(0.0833333 0 0 0.0833333 -67.175 -212.25)" d="M 1605.19,3936.19 L 1582.74,3952.31 L 1582.36,3928.29 L 1930.15,3295.68 L 1950.29,3283.76 L 1949.02,3310.79 L 1605.19,3936.19 Z " />
<path stroke="none" fill="#000000" transform="matrix(0.0833333 0 0 0.0833333 -67.175 -212.25)" d="M 1582.36,3928.29 L 1582.74,3952.31 L 1559.45,3936.32 L 1189.56,3311.38 L 1187.37,3284.31 L 1208.24,3296.2 L 1582.36,3928.29 Z " />
<path stroke="none" fill="#000000" transform="matrix(0.0833333 0 0 0.0833333 -67.175 -212.25)" d="M 1594.29,3962.33 L 1582.74,3952.31 L 1605.19,3936.19 L 2147.59,3838.95 L 2192.39,3843.01 L 2127.55,3866.73 L 1594.29,3962.33 Z " />
<path stroke="none" fill="#000000" transform="matrix(0.0833333 0 0 0.0833333 -67.175 -212.25)" d="M 1559.45,3936.32 L 1582.74,3952.31 L 1570.46,3962.32 L 1029.15,3871.38 L 966.368,3848.76 L 1007.94,3843.67 L 1559.45,3936.32 Z " />
<path stroke="none" fill="#000000" transform="matrix(0.0833333 0 0 0.0833333 -67.175 -212.25)" d="M 1936.25,5198.13 L 1957.12,5210.02 L 1931.56,5221.94 L 1742.96,5222.09 L 1756.06,5198.26 L 1936.25,5198.13 L 1936.25,5198.13 Z " />
<path stroke="none" fill="#000000" transform="matrix(0.0833333 0 0 0.0833333 -67.175 -212.25)" d="M 1220.15,5222.48 L 1194.17,5210.59 L 1214.71,5198.67 L 1413.86,5198.52 L 1427.95,5222.32 L 1220.15,5222.48 L 1220.15,5222.48 Z " />
<path stroke="none" fill="#000000" transform="matrix(0.0833333 0 0 0.0833333 -67.175 -212.25)" d="M 1656.39,5198.34 L 1643.29,5222.16 L 1529.36,5222.25 L 1515.27,5198.44 L 1656.39,5198.34 L 1656.39,5198.34 Z " />
<path stroke="none" fill="#000000" transform="matrix(0.0833333 0 0 0.0833333 -67.175 -212.25)" d="M 1002.37,4589.3 L 957.146,4604.95 L 945.091,4598.65 L 1568.48,4186.2 L 1568.53,4200.44 L 1523.73,4244.36 L 1002.37,4589.3 Z " />
<path stroke="none" fill="#000000" transform="matrix(0.0833333 0 0 0.0833333 -67.175 -212.25)" d="M 1615.32,4245.16 L 1568.53,4200.44 L 1568.48,4186.2 L 2186.65,4589.18 L 2188.59,4604.65 L 2142.82,4589.03 L 1615.32,4245.16 Z " />
<path stroke="none" fill="#000000" transform="matrix(0.0833333 0 0 0.0833333 -67.175 -212.25)" d="M 2177.65,4666.6 L 2188.59,4604.65 L 2200.57,4609.22 L 2211.46,5307.59 L 2199.45,5300.78 L 2186.61,5241.15 L 2177.65,4666.6 Z " />
<path stroke="none" fill="#000000" transform="matrix(0.0833333 0 0 0.0833333 -67.175 -212.25)" d="M 2134.61,5324.5 L 2199.45,5300.78 L 2211.46,5307.59 L 1580.64,5672.13 L 1580.65,5658.37 L 1633.28,5614.21 L 2134.61,5324.5 Z " />
<path stroke="none" fill="#000000" transform="matrix(0.0833333 0 0 0.0833333 -67.175 -212.25)" d="M 1525.43,5612.62 L 1580.65,5658.37 L 1580.64,5672.13 L 961.68,5313.48 L 973.427,5306.52 L 1036.21,5329.14 L 1525.43,5612.62 Z " />
<path stroke="none" fill="#000000" transform="matrix(0.0833333 0 0 0.0833333 -67.175 -212.25)" d="M 983.954,5246.98 L 973.427,5306.52 L 961.68,5313.48 L 945.091,4598.65 L 957.146,4604.95 L 970.611,4672.02 L 983.954,5246.98 Z " />
<path stroke="none" fill="#000000" transform="matrix(0.0833333 0 0 0.0833333 -67.175 -212.25)" d="M 1556.71,4238.5 L 1568.53,4200.44 L 1580.52,4237.53 L 1581.22,4543.86 L 1569.34,4554.85 L 1557.41,4543.88 L 1556.71,4238.5 Z " />
<path stroke="none" fill="#000000" transform="matrix(0.0833333 0 0 0.0833333 -67.175 -212.25)" d="M 2142.82,4589.03 L 2188.59,4604.65 L 2150.25,4613.51 L 1904.94,4593.78 L 1886.72,4568.43 L 2142.82,4589.03 L 2142.82,4589.03 Z " />
<path stroke="none" fill="#000000" transform="matrix(0.0833333 0 0 0.0833333 -67.175 -212.25)" d="M 1591.29,4568.56 L 1569.34,4554.85 L 1581.22,4543.86 L 1772.62,4559.25 L 1790.84,4584.61 L 1591.29,4568.56 L 1591.29,4568.56 Z " />
<path stroke="none" fill="#000000" transform="matrix(0.0833333 0 0 0.0833333 -67.175 -212.25)" d="M 996.094,4613.71 L 957.146,4604.95 L 1002.37,4589.3 L 1261.54,4568.09 L 1244.05,4593.41 L 996.094,4613.71 L 996.094,4613.71 Z " />
<path stroke="none" fill="#000000" transform="matrix(0.0833333 0 0 0.0833333 -67.175 -212.25)" d="M 1557.41,4543.88 L 1569.34,4554.85 L 1547.78,4568.56 L 1356.52,4584.21 L 1374.01,4558.89 L 1557.41,4543.88 L 1557.41,4543.88 Z " />
<path stroke="none" fill="#000000" transform="matrix(0.0833333 0 0 0.0833333 -67.175 -212.25)" d="M 1178.9,5204.24 L 1194.17,5210.59 L 1190.88,5225 L 1015,5301.44 L 973.427,5306.52 L 994.958,5284.18 L 1178.9,5204.24 Z " />
<path stroke="none" fill="#000000" transform="matrix(0.0833333 0 0 0.0833333 -67.175 -212.25)" d="M 2177.39,5279.81 L 2199.45,5300.78 L 2154.65,5296.71 L 1960.83,5224.12 L 1957.12,5210.02 L 1972.52,5203.08 L 2177.39,5279.81 Z " />
<path stroke="none" fill="#000000" transform="matrix(0.0833333 0 0 0.0833333 -67.175 -212.25)" d="M 1972.52,5203.08 L 1957.12,5210.02 L 1954.81,5182.74 L 2023.27,5003.69 L 2036.81,5034.95 L 1972.52,5203.08 L 1972.52,5203.08 Z " />
<path stroke="none" fill="#000000" transform="matrix(0.0833333 0 0 0.0833333 -67.175 -212.25)" d="M 2165.28,4632.29 L 2188.59,4604.65 L 2177.65,4666.6 L 2081.43,4918.26 L 2067.89,4886.99 L 2165.28,4632.29 L 2165.28,4632.29 Z " />
<path stroke="none" fill="#000000" transform="matrix(0.0833333 0 0 0.0833333 -67.175 -212.25)" d="M 970.611,4672.02 L 957.146,4604.95 L 980.621,4632.27 L 1085.56,4900.4 L 1072.77,4933.06 L 970.611,4672.02 L 970.611,4672.02 Z " />
<path stroke="none" fill="#000000" transform="matrix(0.0833333 0 0 0.0833333 -67.175 -212.25)" d="M 1196.19,5183.09 L 1194.17,5210.59 L 1178.9,5204.24 L 1119.64,5052.82 L 1132.43,5020.16 L 1196.19,5183.09 L 1196.19,5183.09 Z " />
<path stroke="none" fill="#000000" transform="matrix(0.0833333 0 0 0.0833333 -67.175 -212.25)" d="M 1593.82,5624.17 L 1580.65,5658.37 L 1569.86,5627.66 L 1577.52,5420.08 L 1589.8,5410.07 L 1601.34,5420.1 L 1593.82,5624.17 Z " />
<path stroke="none" fill="#000000" transform="matrix(0.0833333 0 0 0.0833333 -67.175 -212.25)" d="M 1569.86,5627.66 L 1580.65,5658.37 L 1525.43,5612.62 L 1354.73,5414.84 L 1391.52,5421.02 L 1569.86,5627.66 L 1569.86,5627.66 Z " />
<path stroke="none" fill="#000000" transform="matrix(0.0833333 0 0 0.0833333 -67.175 -212.25)" d="M 1190.88,5225 L 1194.17,5210.59 L 1220.15,5222.48 L 1302.15,5317.48 L 1265.37,5311.3 L 1190.88,5225 L 1190.88,5225 Z " />
<path stroke="none" fill="#000000" transform="matrix(0.0833333 0 0 0.0833333 -67.175 -212.25)" d="M 1931.56,5221.94 L 1957.12,5210.02 L 1960.83,5224.12 L 1886.61,5312.51 L 1850.01,5319.07 L 1931.56,5221.94 L 1931.56,5221.94 Z " />
<path stroke="none" fill="#000000" transform="matrix(0.0833333 0 0 0.0833333 -67.175 -212.25)" d="M 1633.28,5614.21 L 1580.65,5658.37 L 1593.82,5624.17 L 1762.33,5423.49 L 1798.93,5416.93 L 1633.28,5614.21 L 1633.28,5614.21 Z " />
<path stroke="none" fill="#000000" transform="matrix(0.0833333 0 0 0.0833333 -67.175 -212.25)" d="M 1954.81,5182.74 L 1957.12,5210.02 L 1936.25,5198.13 L 1842.87,5040.36 L 1856.2,5016.12 L 1954.81,5182.74 L 1954.81,5182.74 Z " />
<path stroke="none" fill="#000000" transform="matrix(0.0833333 0 0 0.0833333 -67.175 -212.25)" d="M 1569.52,4578.52 L 1569.34,4554.85 L 1591.29,4568.56 L 1667.95,4698.08 L 1640.29,4698.1 L 1569.52,4578.52 L 1569.52,4578.52 Z " />
<path stroke="none" fill="#000000" transform="matrix(0.0833333 0 0 0.0833333 -67.175 -212.25)" d="M 1804.54,4928.86 L 1791.22,4953.09 L 1691.94,4785.36 L 1719.6,4785.34 L 1804.54,4928.86 L 1804.54,4928.86 Z " />
<path stroke="none" fill="#000000" transform="matrix(0.0833333 0 0 0.0833333 -67.175 -212.25)" d="M 1214.71,5198.67 L 1194.17,5210.59 L 1196.19,5183.09 L 1298.69,5003.93 L 1312.64,5027.5 L 1214.71,5198.67 L 1214.71,5198.67 Z " />
<path stroke="none" fill="#000000" transform="matrix(0.0833333 0 0 0.0833333 -67.175 -212.25)" d="M 1547.78,4568.56 L 1569.34,4554.85 L 1569.52,4578.52 L 1501.04,4698.2 L 1473.6,4698.22 L 1547.78,4568.56 L 1547.78,4568.56 Z " />
<path stroke="none" fill="#000000" transform="matrix(0.0833333 0 0 0.0833333 -67.175 -212.25)" d="M 1362.5,4940.34 L 1348.56,4916.77 L 1423.63,4785.56 L 1451.07,4785.54 L 1362.5,4940.34 L 1362.5,4940.34 Z " />
<path stroke="none" fill="#000000" transform="matrix(0.0833333 0 0 0.0833333 -67.175 -212.25)" d="M 2150.25,4613.51 L 2188.59,4604.65 L 2165.28,4632.29 L 1972.44,4746.42 L 1957.35,4741.52 L 1960.66,4725.73 L 2150.25,4613.51 Z " />
<path stroke="none" fill="#000000" transform="matrix(0.0833333 0 0 0.0833333 -67.175 -212.25)" d="M 2186.61,5241.15 L 2199.45,5300.78 L 2177.39,5279.81 L 1956.08,4768.55 L 1957.35,4741.52 L 1972.44,4746.42 L 2186.61,5241.15 Z " />
<path stroke="none" fill="#000000" transform="matrix(0.0833333 0 0 0.0833333 -67.175 -212.25)" d="M 1580.52,4237.53 L 1568.53,4200.44 L 1615.32,4245.16 L 1960.66,4725.73 L 1957.35,4741.52 L 1934.15,4729.63 L 1580.52,4237.53 Z " />
<path stroke="none" fill="#000000" transform="matrix(0.0833333 0 0 0.0833333 -67.175 -212.25)" d="M 980.621,4632.27 L 957.146,4604.95 L 996.094,4613.71 L 1190.87,4726.27 L 1194.43,4742.07 L 1179.61,4747.26 L 980.621,4632.27 Z " />
<path stroke="none" fill="#000000" transform="matrix(0.0833333 0 0 0.0833333 -67.175 -212.25)" d="M 1523.73,4244.36 L 1568.53,4200.44 L 1556.71,4238.5 L 1217.13,4730.15 L 1194.43,4742.07 L 1190.87,4726.27 L 1523.73,4244.36 Z " />
<path stroke="none" fill="#000000" transform="matrix(0.0833333 0 0 0.0833333 -67.175 -212.25)" d="M 994.958,5284.18 L 973.427,5306.52 L 983.954,5246.98 L 1179.61,4747.26 L 1194.43,4742.07 L 1196.61,4769.14 L 994.958,5284.18 Z " />
<path stroke="none" fill="#000000" transform="matrix(0.0833333 0 0 0.0833333 -67.175 -212.25)" d="M 1934.15,4729.63 L 1957.35,4741.52 L 1937.21,4753.44 L 1215.3,4753.96 L 1194.43,4742.07 L 1217.13,4730.15 L 1934.15,4729.63 Z " />
<path stroke="none" fill="#000000" transform="matrix(0.0833333 0 0 0.0833333 -67.175 -212.25)" d="M 1612.25,5393.95 L 1589.8,5410.07 L 1589.42,5386.05 L 1937.21,4753.44 L 1957.35,4741.52 L 1956.08,4768.55 L 1612.25,5393.95 Z " />
<path stroke="none" fill="#000000" transform="matrix(0.0833333 0 0 0.0833333 -67.175 -212.25)" d="M 1589.42,5386.05 L 1589.8,5410.07 L 1566.5,5394.08 L 1196.61,4769.14 L 1194.43,4742.07 L 1215.3,4753.96 L 1589.42,5386.05 Z " />
<path stroke="none" fill="#000000" transform="matrix(0.0833333 0 0 0.0833333 -67.175 -212.25)" d="M 1601.34,5420.1 L 1589.8,5410.07 L 1612.25,5393.95 L 2154.65,5296.71 L 2199.45,5300.78 L 2134.61,5324.5 L 1601.34,5420.1 Z " />
<path stroke="none" fill="#000000" transform="matrix(0.0833333 0 0 0.0833333 -67.175 -212.25)" d="M 1566.5,5394.08 L 1589.8,5410.07 L 1577.52,5420.08 L 1036.21,5329.14 L 973.427,5306.52 L 1015,5301.44 L 1566.5,5394.08 Z " />
<path stroke="none" fill="#000000" transform="matrix(0.0833333 0 0 0.0833333 -67.175 -212.25)" d="M 2458.31,4135.78 L 2440.21,4151.25 L 2189.77,3858.28 L 2192.39,3843.01 L 2204.22,3838.54 L 2458.31,4135.78 Z " />
<path stroke="none" fill="#000000" transform="matrix(0.0833333 0 0 0.0833333 -67.175 -212.25)" d="M 2785.78,4223.76 L 2785.78,4247.57 L 2628.78,4247.57 L 2628.78,4223.76 L 2785.78,4223.76 Z " />
<path stroke="none" fill="#000000" transform="matrix(0.0833333 0 0 0.0833333 -67.175 -212.25)" d="M 2785.78,4161.12 L 2785.78,4184.93 L 2628.78,4184.93 L 2628.78,4161.12 L 2785.78,4161.12 Z " />
<path stroke="none" fill="#000000" transform="matrix(0.0833333 0 0 0.0833333 -67.175 -212.25)" d="M 3056.19,4048.81 L 3072.56,4066.1 L 2964.96,4167.91 L 2948.59,4150.61 L 3056.19,4048.81 Z " />
<path stroke="none" fill="#000000" transform="matrix(0.0833333 0 0 0.0833333 -67.175 -212.25)" d="M 3095.99,4396.38 L 3081.12,4414.98 L 2952.59,4312.16 L 2967.47,4293.56 L 3095.99,4396.38 Z " />
<path stroke="#000000" stroke-width="19" fill="none" transform="matrix(0.0833333 0 0 0.0833333 -67.175 -212.25)" d="M 2447.06,4051.47 A 76.5243,76.5243 0 1 0 2600.11,4051.47A 76.5243,76.5243 0 1 0 2447.06,4051.47Z " />
<path stroke="none" fill="#000000" transform="matrix(0.0833333 0 0 0.0833333 -67.175 -212.25)" d="M 2478.01,4041.64 L 2568.49,4041.64 L 2568.49,4060.64 L 2478.01,4060.64 Z " />
<path stroke="none" fill="#000000" transform="matrix(0.0833333 0 0 0.0833333 -67.175 -212.25)" d="M 2532.75,4005.9 L 2532.75,4096.38 L 2513.75,4096.38 L 2513.75,4005.9 Z " />
<path stroke="none" fill="#ffffff" transform="matrix(0.0833333 0 0 0.0833333 -67.175 -212.25)" d="M 1486.81,5405.75 A 85.7914,85.7914 0 1 0 1658.39,5405.75A 85.7914,85.7914 0 1 0 1486.81,5405.75Z " />
<path stroke="#000000" stroke-width="24" fill="none" transform="matrix(0.0833333 0 0 0.0833333 -67.175 -212.25)" d="M 1486.81,5405.75 A 85.7914,85.7914 0 1 0 1658.39,5405.75A 85.7914,85.7914 0 1 0 1486.81,5405.75Z " />
<path stroke="none" fill="#ffffff" transform="matrix(0.0833333 0 0 0.0833333 -67.175 -212.25)" d="M 1871.56,4741.52 A 85.7914,85.7914 0 1 0 2043.14,4741.52A 85.7914,85.7914 0 1 0 1871.56,4741.52Z " />
<path stroke="#000000" stroke-width="24" fill="none" transform="matrix(0.0833333 0 0 0.0833333 -67.175 -212.25)" d="M 1871.56,4741.52 A 85.7914,85.7914 0 1 0 2043.14,4741.52A 85.7914,85.7914 0 1 0 1871.56,4741.52Z " />
<path stroke="none" fill="#ffffff" transform="matrix(0.0833333 0 0 0.0833333 -67.175 -212.25)" d="M 1481.65,4587.52 A 85.7899,85.7899 0 1 0 1653.23,4587.52A 85.7899,85.7899 0 1 0 1481.65,4587.52Z " />
<path stroke="#000000" stroke-width="24" fill="none" transform="matrix(0.0833333 0 0 0.0833333 -67.175 -212.25)" d="M 1481.65,4587.52 A 85.7899,85.7899 0 1 0 1653.23,4587.52A 85.7899,85.7899 0 1 0 1481.65,4587.52Z " />
<path stroke="none" fill="#ffffff" transform="matrix(0.0833333 0 0 0.0833333 -67.175 -212.25)" d="M 1845.56,5199.88 A 85.7904,85.7904 0 1 0 2017.14,5199.88A 85.7904,85.7904 0 1 0 1845.56,5199.88Z " />
<path stroke="#000000" stroke-width="24" fill="none" transform="matrix(0.0833333 0 0 0.0833333 -67.175 -212.25)" d="M 1845.56,5199.88 A 85.7904,85.7904 0 1 0 2017.14,5199.88A 85.7904,85.7904 0 1 0 1845.56,5199.88Z " />
<path stroke="none" fill="#ffffff" transform="matrix(0.0833333 0 0 0.0833333 -67.175 -212.25)" d="M 1104.53,5218.5 A 85.7903,85.7903 0 1 0 1276.11,5218.5A 85.7903,85.7903 0 1 0 1104.53,5218.5Z " />
<path stroke="#000000" stroke-width="24" fill="none" transform="matrix(0.0833333 0 0 0.0833333 -67.175 -212.25)" d="M 1104.53,5218.5 A 85.7903,85.7903 0 1 0 1276.11,5218.5A 85.7903,85.7903 0 1 0 1104.53,5218.5Z " />
<path stroke="none" fill="#ffffff" transform="matrix(0.0833333 0 0 0.0833333 -67.175 -212.25)" d="M 1502.76,3943.9 A 85.7911,85.7911 0 1 0 1674.34,3943.9A 85.7911,85.7911 0 1 0 1502.76,3943.9Z " />
<path stroke="#000000" stroke-width="24" fill="none" transform="matrix(0.0833333 0 0 0.0833333 -67.175 -212.25)" d="M 1502.76,3943.9 A 85.7911,85.7911 0 1 0 1674.34,3943.9A 85.7911,85.7911 0 1 0 1502.76,3943.9Z " />
<path stroke="none" fill="#ffffff" transform="matrix(0.0833333 0 0 0.0833333 -67.175 -212.25)" d="M 1850.69,3287.14 A 85.7909,85.7909 0 1 0 2022.28,3287.14A 85.7909,85.7909 0 1 0 1850.69,3287.14Z " />
<path stroke="#000000" stroke-width="24" fill="none" transform="matrix(0.0833333 0 0 0.0833333 -67.175 -212.25)" d="M 1850.69,3287.14 A 85.7909,85.7909 0 1 0 2022.28,3287.14A 85.7909,85.7909 0 1 0 1850.69,3287.14Z " />
<path stroke="none" fill="#ffffff" transform="matrix(0.0833333 0 0 0.0833333 -67.175 -212.25)" d="M 1108.08,3287.71 A 85.7907,85.7907 0 1 0 1279.67,3287.71A 85.7907,85.7907 0 1 0 1108.08,3287.71Z " />
<path stroke="#000000" stroke-width="24" fill="none" transform="matrix(0.0833333 0 0 0.0833333 -67.175 -212.25)" d="M 1108.08,3287.71 A 85.7907,85.7907 0 1 0 1279.67,3287.71A 85.7907,85.7907 0 1 0 1108.08,3287.71Z " />
<path stroke="none" fill="#ffffff" transform="matrix(0.0833333 0 0 0.0833333 -67.175 -212.25)" d="M 1468.5,3105.41 A 85.7908,85.7908 0 1 0 1640.08,3105.41A 85.7908,85.7908 0 1 0 1468.5,3105.41Z " />
<path stroke="#000000" stroke-width="24" fill="none" transform="matrix(0.0833333 0 0 0.0833333 -67.175 -212.25)" d="M 1468.5,3105.41 A 85.7908,85.7908 0 1 0 1640.08,3105.41A 85.7908,85.7908 0 1 0 1468.5,3105.41Z " />
<path stroke="none" fill="#ffffff" transform="matrix(0.0833333 0 0 0.0833333 -67.175 -212.25)" d="M 1838.5,3742.12 A 85.7906,85.7906 0 1 0 2010.08,3742.12A 85.7906,85.7906 0 1 0 1838.5,3742.12Z " />
<path stroke="#000000" stroke-width="24" fill="none" transform="matrix(0.0833333 0 0 0.0833333 -67.175 -212.25)" d="M 1838.5,3742.12 A 85.7906,85.7906 0 1 0 2010.08,3742.12A 85.7906,85.7906 0 1 0 1838.5,3742.12Z " />
<path stroke="#000000" stroke-width="24" fill="none" transform="matrix(0.0833333 0 0 0.0833333 -67.175 -212.25)" d="M 1353.54,3189.61 " />
<text x="0" y="0" stroke="none" fill="#000000" transform="matrix(0.0833333 0 0 0.0833333 483.333 143.926)" font-style="normal" font-weight="normal" font-size="200px" font-family="Times New Roman" >
NH</text>
<text x="0" y="0" stroke="none" fill="#000000" transform="matrix(0.0833333 0 0 0.0833333 507.405 147.676)" font-style="normal" font-weight="normal" font-size="150px" font-family="Times New Roman" >
2</text>
<path stroke="none" fill="#000000" transform="matrix(0.0833333 0 0 0.0833333 -67.175 -212.25)" d="M 6460.57,4570.17 L 6448.59,4565.61 L 6446.65,4550.13 L 6690.61,4284.94 L 6708.13,4301.06 L 6460.57,4570.17 Z " />
<path stroke="none" fill="#000000" transform="matrix(0.0833333 0 0 0.0833333 -67.175 -212.25)" d="M 6189.19,3701.32 L 6210.06,3713.21 L 6184.51,3725.14 L 5995.91,3725.28 L 6009,3701.46 L 6189.19,3701.32 L 6189.19,3701.32 Z " />
<path stroke="none" fill="#000000" transform="matrix(0.0833333 0 0 0.0833333 -67.175 -212.25)" d="M 5782.3,3725.44 L 5768.21,3701.64 L 5909.33,3701.53 L 5896.23,3725.35 L 5782.3,3725.44 L 5782.3,3725.44 Z " />
<path stroke="none" fill="#000000" transform="matrix(0.0833333 0 0 0.0833333 -67.175 -212.25)" d="M 5473.1,3725.67 L 5447.11,3713.78 L 5467.65,3701.86 L 5666.8,3701.71 L 5680.89,3725.51 L 5473.1,3725.67 L 5473.1,3725.67 Z " />
<path stroke="none" fill="#000000" transform="matrix(0.0833333 0 0 0.0833333 -67.175 -212.25)" d="M 5263.26,3091.85 L 5210.09,3108.14 L 5198.02,3101.28 L 5821.43,2750 L 5821.47,2763.64 L 5775.79,2803.05 L 5263.26,3091.85 Z " />
<path stroke="none" fill="#000000" transform="matrix(0.0833333 0 0 0.0833333 -67.175 -212.25)" d="M 5869.2,2803.75 L 5821.47,2763.64 L 5821.43,2750 L 6453.33,3100.78 L 6441.53,3107.85 L 6387.68,3091.57 L 5869.2,2803.75 Z " />
<path stroke="none" fill="#000000" transform="matrix(0.0833333 0 0 0.0833333 -67.175 -212.25)" d="M 6430.59,3169.8 L 6441.53,3107.85 L 6453.33,3100.78 L 6464.22,3799.49 L 6452.39,3803.97 L 6439.55,3744.35 L 6430.59,3169.8 Z " />
<path stroke="none" fill="#000000" transform="matrix(0.0833333 0 0 0.0833333 -67.175 -212.25)" d="M 6387.55,3827.69 L 6452.39,3803.97 L 6449.77,3819.23 L 5884.6,4145.84 L 5872.13,4137.71 L 5872.11,4129.55 L 5871.74,4129.55 L 5886.22,4117.4 L 6387.55,3827.69 L 6387.55,3827.69 Z " />
<path stroke="none" fill="#000000" transform="matrix(0.0833333 0 0 0.0833333 -67.175 -212.25)" d="M 5778.37,4115.81 L 5795.16,4129.73 L 5784.81,4129.75 L 5784.82,4137.97 L 5777.49,4142.82 L 5214.62,3816.67 L 5226.37,3809.72 L 5289.15,3832.33 L 5778.37,4115.81 L 5778.37,4115.81 Z " />
<path stroke="none" fill="#000000" transform="matrix(0.0833333 0 0 0.0833333 -67.175 -212.25)" d="M 5236.89,3750.17 L 5226.37,3809.72 L 5214.62,3816.67 L 5198.02,3101.28 L 5210.09,3108.14 L 5223.55,3175.22 L 5236.89,3750.17 Z " />
<path stroke="none" fill="#000000" transform="matrix(0.0833333 0 0 0.0833333 -67.175 -212.25)" d="M 5809.66,2798.25 L 5821.47,2763.64 L 5833.47,2797.42 L 5834.16,3047.05 L 5822.28,3058.04 L 5810.35,3047.07 L 5809.66,2798.25 Z " />
<path stroke="none" fill="#000000" transform="matrix(0.0833333 0 0 0.0833333 -67.175 -212.25)" d="M 6387.68,3091.57 L 6441.53,3107.85 L 6403.19,3116.71 L 6146.26,3096.04 L 6125.61,3070.49 L 6387.68,3091.57 L 6387.68,3091.57 Z " />
<path stroke="none" fill="#000000" transform="matrix(0.0833333 0 0 0.0833333 -67.175 -212.25)" d="M 5844.23,3071.75 L 5822.28,3058.04 L 5834.16,3047.05 L 6005.55,3060.84 L 6026.2,3086.39 L 5844.23,3071.75 L 5844.23,3071.75 Z " />
<path stroke="none" fill="#000000" transform="matrix(0.0833333 0 0 0.0833333 -67.175 -212.25)" d="M 5249.04,3116.9 L 5210.09,3108.14 L 5263.26,3091.85 L 5528.1,3070.17 L 5508.28,3095.68 L 5249.04,3116.9 L 5249.04,3116.9 Z " />
<path stroke="none" fill="#000000" transform="matrix(0.0833333 0 0 0.0833333 -67.175 -212.25)" d="M 5810.35,3047.07 L 5822.28,3058.04 L 5800.72,3071.75 L 5626.33,3086.02 L 5646.15,3060.51 L 5810.35,3047.07 L 5810.35,3047.07 Z " />
<path stroke="none" fill="#000000" transform="matrix(0.0833333 0 0 0.0833333 -67.175 -212.25)" d="M 5431.84,3707.44 L 5447.11,3713.78 L 5443.82,3728.19 L 5267.94,3804.63 L 5226.37,3809.72 L 5247.9,3787.38 L 5431.84,3707.44 Z " />
<path stroke="none" fill="#000000" transform="matrix(0.0833333 0 0 0.0833333 -67.175 -212.25)" d="M 6430.33,3783 L 6452.39,3803.97 L 6407.59,3799.91 L 6213.77,3727.31 L 6210.06,3713.21 L 6225.47,3706.27 L 6430.33,3783 Z " />
<path stroke="none" fill="#000000" transform="matrix(0.0833333 0 0 0.0833333 -67.175 -212.25)" d="M 6225.47,3706.27 L 6210.06,3713.21 L 6207.75,3685.93 L 6276.21,3506.88 L 6289.75,3538.15 L 6225.47,3706.27 L 6225.47,3706.27 Z " />
<path stroke="none" fill="#000000" transform="matrix(0.0833333 0 0 0.0833333 -67.175 -212.25)" d="M 6418.22,3135.48 L 6441.53,3107.85 L 6430.59,3169.8 L 6334.37,3421.45 L 6320.83,3390.18 L 6418.22,3135.48 L 6418.22,3135.48 Z " />
<path stroke="none" fill="#000000" transform="matrix(0.0833333 0 0 0.0833333 -67.175 -212.25)" d="M 5223.55,3175.22 L 5210.09,3108.14 L 5233.56,3135.46 L 5338.5,3403.59 L 5325.71,3436.25 L 5223.55,3175.22 L 5223.55,3175.22 Z " />
<path stroke="none" fill="#000000" transform="matrix(0.0833333 0 0 0.0833333 -67.175 -212.25)" d="M 5449.13,3686.28 L 5447.11,3713.78 L 5431.84,3707.44 L 5372.58,3556.01 L 5385.37,3523.35 L 5449.13,3686.28 L 5449.13,3686.28 Z " />
<path stroke="none" fill="#000000" transform="matrix(0.0833333 0 0 0.0833333 -67.175 -212.25)" d="M 5830.46,3923.27 L 5842.74,3913.26 L 5854.29,3923.29 L 5847.3,4112.71 L 5845.45,4110.14 L 5838.03,4115.48 L 5834.85,4113.41 L 5830.92,4107.48 L 5828.35,4109.17 L 5825.77,4107.49 L 5823.54,4110.92 L 5830.46,3923.27 L 5830.46,3923.27 Z " />
<path stroke="none" fill="#000000" transform="matrix(0.0833333 0 0 0.0833333 -67.175 -212.25)" d="M 5778.37,4115.81 L 5607.67,3918.04 L 5644.46,3924.22 L 5808.24,4113.97 L 5797.41,4129.65 L 5797.3,4129.72 L 5795.16,4129.73 L 5778.37,4115.81 L 5778.37,4115.81 Z " />
<path stroke="none" fill="#000000" transform="matrix(0.0833333 0 0 0.0833333 -67.175 -212.25)" d="M 5443.82,3728.19 L 5447.11,3713.78 L 5473.1,3725.67 L 5555.09,3820.67 L 5518.31,3814.49 L 5443.82,3728.19 L 5443.82,3728.19 Z " />
<path stroke="none" fill="#000000" transform="matrix(0.0833333 0 0 0.0833333 -67.175 -212.25)" d="M 6184.51,3725.14 L 6210.06,3713.21 L 6213.77,3727.31 L 6139.55,3815.7 L 6102.95,3822.27 L 6184.51,3725.14 L 6184.51,3725.14 Z " />
<path stroke="none" fill="#000000" transform="matrix(0.0833333 0 0 0.0833333 -67.175 -212.25)" d="M 5886.22,4117.4 L 5871.74,4129.55 L 5859.66,4129.58 L 5859.21,4129.29 L 5852.72,4120.26 L 6015.27,3926.68 L 6051.87,3920.12 L 5886.22,4117.4 L 5886.22,4117.4 Z " />
<path stroke="none" fill="#000000" transform="matrix(0.0833333 0 0 0.0833333 -67.175 -212.25)" d="M 6207.75,3685.93 L 6210.06,3713.21 L 6189.19,3701.32 L 6095.81,3543.55 L 6109.14,3519.32 L 6207.75,3685.93 L 6207.75,3685.93 Z " />
<path stroke="none" fill="#000000" transform="matrix(0.0833333 0 0 0.0833333 -67.175 -212.25)" d="M 5944.89,3288.56 L 5972.54,3288.54 L 6057.48,3432.05 L 6044.16,3456.28 L 5944.89,3288.56 L 5944.89,3288.56 Z " />
<path stroke="none" fill="#000000" transform="matrix(0.0833333 0 0 0.0833333 -67.175 -212.25)" d="M 5822.46,3081.71 L 5822.28,3058.04 L 5844.23,3071.75 L 5920.89,3201.27 L 5893.23,3201.29 L 5822.46,3081.71 L 5822.46,3081.71 Z " />
<path stroke="none" fill="#000000" transform="matrix(0.0833333 0 0 0.0833333 -67.175 -212.25)" d="M 5467.65,3701.86 L 5447.11,3713.78 L 5449.13,3686.28 L 5551.63,3507.12 L 5565.58,3530.69 L 5467.65,3701.86 L 5467.65,3701.86 Z " />
<path stroke="none" fill="#000000" transform="matrix(0.0833333 0 0 0.0833333 -67.175 -212.25)" d="M 5800.72,3071.75 L 5822.28,3058.04 L 5822.46,3081.71 L 5753.98,3201.39 L 5726.54,3201.41 L 5800.72,3071.75 L 5800.72,3071.75 Z " />
<path stroke="none" fill="#000000" transform="matrix(0.0833333 0 0 0.0833333 -67.175 -212.25)" d="M 5615.45,3443.53 L 5601.5,3419.97 L 5676.57,3288.75 L 5704.01,3288.73 L 5615.45,3443.53 L 5615.45,3443.53 Z " />
<path stroke="none" fill="#000000" transform="matrix(0.0833333 0 0 0.0833333 -67.175 -212.25)" d="M 6403.19,3116.71 L 6441.53,3107.85 L 6418.22,3135.48 L 6225.39,3249.61 L 6210.29,3244.71 L 6213.08,3229.23 L 6403.19,3116.71 Z " />
<path stroke="none" fill="#000000" transform="matrix(0.0833333 0 0 0.0833333 -67.175 -212.25)" d="M 6439.55,3744.35 L 6452.39,3803.97 L 6430.33,3783 L 6209.02,3271.74 L 6210.29,3244.71 L 6225.39,3249.61 L 6439.55,3744.35 Z " />
<path stroke="none" fill="#000000" transform="matrix(0.0833333 0 0 0.0833333 -67.175 -212.25)" d="M 5833.47,2797.42 L 5821.47,2763.64 L 5869.2,2803.75 L 6213.08,3229.23 L 6210.29,3244.71 L 6185.38,3232.83 L 5833.47,2797.42 Z " />
<path stroke="none" fill="#000000" transform="matrix(0.0833333 0 0 0.0833333 -67.175 -212.25)" d="M 5233.56,3135.46 L 5210.09,3108.14 L 5249.04,3116.9 L 5444.34,3229.76 L 5447.37,3245.26 L 5432.55,3250.45 L 5233.56,3135.46 Z " />
<path stroke="none" fill="#000000" transform="matrix(0.0833333 0 0 0.0833333 -67.175 -212.25)" d="M 5775.79,2803.05 L 5821.47,2763.64 L 5809.66,2798.25 L 5471.7,3233.34 L 5447.37,3245.26 L 5444.34,3229.76 L 5775.79,2803.05 Z " />
<path stroke="none" fill="#000000" transform="matrix(0.0833333 0 0 0.0833333 -67.175 -212.25)" d="M 5247.9,3787.38 L 5226.37,3809.72 L 5236.89,3750.17 L 5432.55,3250.45 L 5447.37,3245.26 L 5449.56,3272.33 L 5247.9,3787.38 Z " />
<path stroke="none" fill="#000000" transform="matrix(0.0833333 0 0 0.0833333 -67.175 -212.25)" d="M 6185.38,3232.83 L 6210.29,3244.71 L 6190.15,3256.63 L 5468.24,3257.15 L 5447.37,3245.26 L 5471.7,3233.34 L 6185.38,3232.83 Z " />
<path stroke="none" fill="#000000" transform="matrix(0.0833333 0 0 0.0833333 -67.175 -212.25)" d="M 5865.19,3897.14 L 5842.74,3913.26 L 5842.36,3889.24 L 6190.15,3256.63 L 6210.29,3244.71 L 6209.02,3271.74 L 5865.19,3897.14 Z " />
<path stroke="none" fill="#000000" transform="matrix(0.0833333 0 0 0.0833333 -67.175 -212.25)" d="M 5842.36,3889.24 L 5842.74,3913.26 L 5819.45,3897.28 L 5449.56,3272.33 L 5447.37,3245.26 L 5468.24,3257.15 L 5842.36,3889.24 Z " />
<path stroke="none" fill="#000000" transform="matrix(0.0833333 0 0 0.0833333 -67.175 -212.25)" d="M 5854.29,3923.29 L 5842.74,3913.26 L 5865.19,3897.14 L 6407.59,3799.91 L 6452.39,3803.97 L 6387.55,3827.69 L 5854.29,3923.29 Z " />
<path stroke="none" fill="#000000" transform="matrix(0.0833333 0 0 0.0833333 -67.175 -212.25)" d="M 5819.45,3897.28 L 5842.74,3913.26 L 5830.46,3923.27 L 5289.15,3832.33 L 5226.37,3809.72 L 5267.94,3804.63 L 5819.45,3897.28 Z " />
<path stroke="none" fill="#000000" transform="matrix(0.0833333 0 0 0.0833333 -67.175 -212.25)" d="M 6196.25,5159.08 L 6217.12,5170.97 L 6191.56,5182.9 L 6002.96,5183.04 L 6016.06,5159.22 L 6196.25,5159.08 L 6196.25,5159.08 Z " />
<path stroke="none" fill="#000000" transform="matrix(0.0833333 0 0 0.0833333 -67.175 -212.25)" d="M 5480.15,5183.43 L 5454.17,5171.55 L 5474.71,5159.62 L 5673.86,5159.48 L 5687.95,5183.28 L 5480.15,5183.43 L 5480.15,5183.43 Z " />
<path stroke="none" fill="#000000" transform="matrix(0.0833333 0 0 0.0833333 -67.175 -212.25)" d="M 5916.39,5159.29 L 5903.29,5183.11 L 5789.36,5183.2 L 5775.27,5159.4 L 5916.39,5159.29 L 5916.39,5159.29 Z " />
<path stroke="none" fill="#000000" transform="matrix(0.0833333 0 0 0.0833333 -67.175 -212.25)" d="M 5262.37,4550.26 L 5217.15,4565.9 L 5205.09,4559.61 L 5828.48,4147.16 L 5828.53,4161.4 L 5783.73,4205.32 L 5262.37,4550.26 Z " />
<path stroke="none" fill="#000000" transform="matrix(0.0833333 0 0 0.0833333 -67.175 -212.25)" d="M 5875.32,4206.12 L 5828.53,4161.4 L 5828.48,4147.16 L 6446.65,4550.13 L 6448.59,4565.61 L 6402.82,4549.98 L 5875.32,4206.12 Z " />
<path stroke="none" fill="#000000" transform="matrix(0.0833333 0 0 0.0833333 -67.175 -212.25)" d="M 6437.65,4627.56 L 6448.59,4565.61 L 6460.57,4570.17 L 6471.46,5268.54 L 6459.45,5261.73 L 6446.61,5202.11 L 6437.65,4627.56 Z " />
<path stroke="none" fill="#000000" transform="matrix(0.0833333 0 0 0.0833333 -67.175 -212.25)" d="M 6394.61,5285.45 L 6459.45,5261.73 L 6471.46,5268.54 L 5840.64,5633.08 L 5840.65,5619.33 L 5893.28,5575.16 L 6394.61,5285.45 Z " />
<path stroke="none" fill="#000000" transform="matrix(0.0833333 0 0 0.0833333 -67.175 -212.25)" d="M 5785.43,5573.57 L 5840.65,5619.33 L 5840.64,5633.08 L 5221.68,5274.43 L 5233.43,5267.48 L 5296.21,5290.1 L 5785.43,5573.57 Z " />
<path stroke="none" fill="#000000" transform="matrix(0.0833333 0 0 0.0833333 -67.175 -212.25)" d="M 5243.95,5207.94 L 5233.43,5267.48 L 5221.68,5274.43 L 5205.09,4559.61 L 5217.15,4565.9 L 5230.61,4632.98 L 5243.95,5207.94 Z " />
<path stroke="none" fill="#000000" transform="matrix(0.0833333 0 0 0.0833333 -67.175 -212.25)" d="M 5816.71,4199.46 L 5828.53,4161.4 L 5840.52,4198.49 L 5841.22,4504.81 L 5829.34,4515.8 L 5817.41,4504.83 L 5816.71,4199.46 Z " />
<path stroke="none" fill="#000000" transform="matrix(0.0833333 0 0 0.0833333 -67.175 -212.25)" d="M 6402.82,4549.98 L 6448.59,4565.61 L 6410.25,4574.47 L 6164.94,4554.74 L 6146.72,4529.39 L 6402.82,4549.98 L 6402.82,4549.98 Z " />
<path stroke="none" fill="#000000" transform="matrix(0.0833333 0 0 0.0833333 -67.175 -212.25)" d="M 5851.29,4529.51 L 5829.34,4515.8 L 5841.22,4504.81 L 6032.62,4520.21 L 6050.84,4545.56 L 5851.29,4529.51 L 5851.29,4529.51 Z " />
<path stroke="none" fill="#000000" transform="matrix(0.0833333 0 0 0.0833333 -67.175 -212.25)" d="M 5256.09,4574.66 L 5217.15,4565.9 L 5262.37,4550.26 L 5521.54,4529.05 L 5504.05,4554.37 L 5256.09,4574.66 L 5256.09,4574.66 Z " />
<path stroke="none" fill="#000000" transform="matrix(0.0833333 0 0 0.0833333 -67.175 -212.25)" d="M 5817.41,4504.83 L 5829.34,4515.8 L 5807.78,4529.51 L 5616.52,4545.17 L 5634.01,4519.84 L 5817.41,4504.83 L 5817.41,4504.83 Z " />
<path stroke="none" fill="#000000" transform="matrix(0.0833333 0 0 0.0833333 -67.175 -212.25)" d="M 5438.9,5165.2 L 5454.17,5171.55 L 5450.88,5185.96 L 5275,5262.39 L 5233.43,5267.48 L 5254.96,5245.14 L 5438.9,5165.2 Z " />
<path stroke="none" fill="#000000" transform="matrix(0.0833333 0 0 0.0833333 -67.175 -212.25)" d="M 6437.39,5240.76 L 6459.45,5261.73 L 6414.65,5257.67 L 6220.83,5185.08 L 6217.12,5170.97 L 6232.52,5164.03 L 6437.39,5240.76 Z " />
<path stroke="none" fill="#000000" transform="matrix(0.0833333 0 0 0.0833333 -67.175 -212.25)" d="M 6232.52,5164.03 L 6217.12,5170.97 L 6214.81,5143.69 L 6283.27,4964.64 L 6296.81,4995.91 L 6232.52,5164.03 L 6232.52,5164.03 Z " />
<path stroke="none" fill="#000000" transform="matrix(0.0833333 0 0 0.0833333 -67.175 -212.25)" d="M 6425.28,4593.24 L 6448.59,4565.61 L 6437.65,4627.56 L 6341.43,4879.21 L 6327.89,4847.94 L 6425.28,4593.24 L 6425.28,4593.24 Z " />
<path stroke="none" fill="#000000" transform="matrix(0.0833333 0 0 0.0833333 -67.175 -212.25)" d="M 5230.61,4632.98 L 5217.15,4565.9 L 5240.62,4593.22 L 5345.56,4861.35 L 5332.77,4894.01 L 5230.61,4632.98 L 5230.61,4632.98 Z " />
<path stroke="none" fill="#000000" transform="matrix(0.0833333 0 0 0.0833333 -67.175 -212.25)" d="M 5456.19,5144.04 L 5454.17,5171.55 L 5438.9,5165.2 L 5379.64,5013.77 L 5392.43,4981.11 L 5456.19,5144.04 L 5456.19,5144.04 Z " />
<path stroke="none" fill="#000000" transform="matrix(0.0833333 0 0 0.0833333 -67.175 -212.25)" d="M 5853.82,5585.12 L 5840.65,5619.33 L 5829.86,5588.62 L 5837.52,5381.03 L 5849.8,5371.02 L 5861.34,5381.05 L 5853.82,5585.12 Z " />
<path stroke="none" fill="#000000" transform="matrix(0.0833333 0 0 0.0833333 -67.175 -212.25)" d="M 5829.86,5588.62 L 5840.65,5619.33 L 5785.43,5573.57 L 5614.73,5375.8 L 5651.52,5381.98 L 5829.86,5588.62 L 5829.86,5588.62 Z " />
<path stroke="none" fill="#000000" transform="matrix(0.0833333 0 0 0.0833333 -67.175 -212.25)" d="M 5450.88,5185.96 L 5454.17,5171.55 L 5480.15,5183.43 L 5562.15,5278.44 L 5525.37,5272.26 L 5450.88,5185.96 L 5450.88,5185.96 Z " />
<path stroke="none" fill="#000000" transform="matrix(0.0833333 0 0 0.0833333 -67.175 -212.25)" d="M 6191.56,5182.9 L 6217.12,5170.97 L 6220.83,5185.08 L 6146.61,5273.47 L 6110.01,5280.03 L 6191.56,5182.9 L 6191.56,5182.9 Z " />
<path stroke="none" fill="#000000" transform="matrix(0.0833333 0 0 0.0833333 -67.175 -212.25)" d="M 5893.28,5575.16 L 5840.65,5619.33 L 5853.82,5585.12 L 6022.33,5384.44 L 6058.93,5377.88 L 5893.28,5575.16 L 5893.28,5575.16 Z " />
<path stroke="none" fill="#000000" transform="matrix(0.0833333 0 0 0.0833333 -67.175 -212.25)" d="M 6214.81,5143.69 L 6217.12,5170.97 L 6196.25,5159.08 L 6102.87,5001.32 L 6116.2,4977.08 L 6214.81,5143.69 L 6214.81,5143.69 Z " />
<path stroke="none" fill="#000000" transform="matrix(0.0833333 0 0 0.0833333 -67.175 -212.25)" d="M 5829.52,4539.47 L 5829.34,4515.8 L 5851.29,4529.51 L 5927.95,4659.03 L 5900.29,4659.05 L 5829.52,4539.47 L 5829.52,4539.47 Z " />
<path stroke="none" fill="#000000" transform="matrix(0.0833333 0 0 0.0833333 -67.175 -212.25)" d="M 6064.54,4889.81 L 6051.22,4914.05 L 5951.94,4746.32 L 5979.6,4746.3 L 6064.54,4889.81 L 6064.54,4889.81 Z " />
<path stroke="none" fill="#000000" transform="matrix(0.0833333 0 0 0.0833333 -67.175 -212.25)" d="M 5474.71,5159.62 L 5454.17,5171.55 L 5456.19,5144.04 L 5558.69,4964.89 L 5572.64,4988.45 L 5474.71,5159.62 L 5474.71,5159.62 Z " />
<path stroke="none" fill="#000000" transform="matrix(0.0833333 0 0 0.0833333 -67.175 -212.25)" d="M 5807.78,4529.51 L 5829.34,4515.8 L 5829.52,4539.47 L 5761.04,4659.15 L 5733.6,4659.17 L 5807.78,4529.51 L 5807.78,4529.51 Z " />
<path stroke="none" fill="#000000" transform="matrix(0.0833333 0 0 0.0833333 -67.175 -212.25)" d="M 5622.5,4901.3 L 5608.56,4877.73 L 5683.63,4746.51 L 5711.07,4746.49 L 5622.5,4901.3 L 5622.5,4901.3 Z " />
<path stroke="none" fill="#000000" transform="matrix(0.0833333 0 0 0.0833333 -67.175 -212.25)" d="M 6410.25,4574.47 L 6448.59,4565.61 L 6425.28,4593.24 L 6232.44,4707.37 L 6217.35,4702.47 L 6220.66,4686.68 L 6410.25,4574.47 Z " />
<path stroke="none" fill="#000000" transform="matrix(0.0833333 0 0 0.0833333 -67.175 -212.25)" d="M 6446.61,5202.11 L 6459.45,5261.73 L 6437.39,5240.76 L 6216.08,4729.5 L 6217.35,4702.47 L 6232.44,4707.37 L 6446.61,5202.11 Z " />
<path stroke="none" fill="#000000" transform="matrix(0.0833333 0 0 0.0833333 -67.175 -212.25)" d="M 5840.52,4198.49 L 5828.53,4161.4 L 5875.32,4206.12 L 6220.66,4686.68 L 6217.35,4702.47 L 6194.15,4690.59 L 5840.52,4198.49 Z " />
<path stroke="none" fill="#000000" transform="matrix(0.0833333 0 0 0.0833333 -67.175 -212.25)" d="M 5240.62,4593.22 L 5217.15,4565.9 L 5256.09,4574.66 L 5450.87,4687.22 L 5454.43,4703.03 L 5439.61,4708.21 L 5240.62,4593.22 Z " />
<path stroke="none" fill="#000000" transform="matrix(0.0833333 0 0 0.0833333 -67.175 -212.25)" d="M 5783.73,4205.32 L 5828.53,4161.4 L 5816.71,4199.46 L 5477.13,4691.1 L 5454.43,4703.03 L 5450.87,4687.22 L 5783.73,4205.32 Z " />
<path stroke="none" fill="#000000" transform="matrix(0.0833333 0 0 0.0833333 -67.175 -212.25)" d="M 5254.96,5245.14 L 5233.43,5267.48 L 5243.95,5207.94 L 5439.61,4708.21 L 5454.43,4703.03 L 5456.61,4730.1 L 5254.96,5245.14 Z " />
<path stroke="none" fill="#000000" transform="matrix(0.0833333 0 0 0.0833333 -67.175 -212.25)" d="M 6194.15,4690.59 L 6217.35,4702.47 L 6197.21,4714.39 L 5475.3,4714.92 L 5454.43,4703.03 L 5477.13,4691.1 L 6194.15,4690.59 Z " />
<path stroke="none" fill="#000000" transform="matrix(0.0833333 0 0 0.0833333 -67.175 -212.25)" d="M 5872.25,5354.91 L 5849.8,5371.02 L 5849.42,5347.01 L 6197.21,4714.39 L 6217.35,4702.47 L 6216.08,4729.5 L 5872.25,5354.91 Z " />
<path stroke="none" fill="#000000" transform="matrix(0.0833333 0 0 0.0833333 -67.175 -212.25)" d="M 5849.42,5347.01 L 5849.8,5371.02 L 5826.5,5355.04 L 5456.61,4730.1 L 5454.43,4703.03 L 5475.3,4714.92 L 5849.42,5347.01 Z " />
<path stroke="none" fill="#000000" transform="matrix(0.0833333 0 0 0.0833333 -67.175 -212.25)" d="M 5861.34,5381.05 L 5849.8,5371.02 L 5872.25,5354.91 L 6414.65,5257.67 L 6459.45,5261.73 L 6394.61,5285.45 L 5861.34,5381.05 Z " />
<path stroke="none" fill="#000000" transform="matrix(0.0833333 0 0 0.0833333 -67.175 -212.25)" d="M 5826.5,5355.04 L 5849.8,5371.02 L 5837.52,5381.03 L 5296.21,5290.1 L 5233.43,5267.48 L 5275,5262.39 L 5826.5,5355.04 Z " />
<path stroke="none" fill="#000000" transform="matrix(0.0833333 0 0 0.0833333 -67.175 -212.25)" d="M 6712.43,4089.85 L 6694.33,4105.32 L 6449.77,3819.23 L 6452.39,3803.97 L 6464.22,3799.49 L 6712.43,4089.85 Z " />
<path stroke="#000000" stroke-width="19" fill="none" transform="matrix(0.0833333 0 0 0.0833333 -67.175 -212.25)" d="M 6742.12,4036.47 A 76.5243,76.5243 0 1 0 6895.17,4036.47A 76.5243,76.5243 0 1 0 6742.12,4036.47Z " />
<path stroke="none" fill="#000000" transform="matrix(0.0833333 0 0 0.0833333 -67.175 -212.25)" d="M 6773.08,4026.64 L 6863.55,4026.64 L 6863.55,4045.64 L 6773.08,4045.64 Z " />
<path stroke="none" fill="#000000" transform="matrix(0.0833333 0 0 0.0833333 -67.175 -212.25)" d="M 6827.81,3990.9 L 6827.81,4081.38 L 6808.81,4081.38 L 6808.81,3990.9 Z " />
<path stroke="none" fill="#ffffff" transform="matrix(0.0833333 0 0 0.0833333 -67.175 -212.25)" d="M 1485.78,5632.43 A 85.7904,85.7904 0 1 0 1657.36,5632.43A 85.7904,85.7904 0 1 0 1485.78,5632.43Z " />
<path stroke="#000000" stroke-width="24" fill="none" transform="matrix(0.0833333 0 0 0.0833333 -67.175 -212.25)" d="M 1485.78,5632.43 A 85.7904,85.7904 0 1 0 1657.36,5632.43A 85.7904,85.7904 0 1 0 1485.78,5632.43Z " />
<path stroke="none" fill="#ffffff" transform="matrix(0.0833333 0 0 0.0833333 -67.175 -212.25)" d="M 894.976,5274.17 A 85.7911,85.7911 0 1 0 1066.56,5274.17A 85.7911,85.7911 0 1 0 894.976,5274.17Z " />
<path stroke="#000000" stroke-width="24" fill="none" transform="matrix(0.0833333 0 0 0.0833333 -67.175 -212.25)" d="M 894.976,5274.17 A 85.7911,85.7911 0 1 0 1066.56,5274.17A 85.7911,85.7911 0 1 0 894.976,5274.17Z " />
<path stroke="none" fill="#ffffff" transform="matrix(0.0833333 0 0 0.0833333 -67.175 -212.25)" d="M 2096.67,5251.65 A 85.7904,85.7904 0 1 0 2268.26,5251.65A 85.7904,85.7904 0 1 0 2096.67,5251.65Z " />
<path stroke="#000000" stroke-width="24" fill="none" transform="matrix(0.0833333 0 0 0.0833333 -67.175 -212.25)" d="M 2096.67,5251.65 A 85.7904,85.7904 0 1 0 2268.26,5251.65A 85.7904,85.7904 0 1 0 2096.67,5251.65Z " />
<path stroke="none" fill="#ffffff" transform="matrix(0.0833333 0 0 0.0833333 -67.175 -212.25)" d="M 1403.66,4272.44 A 164.87,164.87 0 1 0 1733.4,4272.44A 164.87,164.87 0 1 0 1403.66,4272.44Z " />
<path stroke="#000000" stroke-width="24" fill="none" transform="matrix(0.0833333 0 0 0.0833333 -67.175 -212.25)" d="M 1403.66,4272.44 A 164.87,164.87 0 1 0 1733.4,4272.44A 164.87,164.87 0 1 0 1403.66,4272.44Z " />
<path stroke="none" fill="#ffffff" transform="matrix(0.0833333 0 0 0.0833333 -67.175 -212.25)" d="M 2089.35,3163.47 A 85.7912,85.7912 0 1 0 2260.94,3163.47A 85.7912,85.7912 0 1 0 2089.35,3163.47Z " />
<path stroke="#000000" stroke-width="24" fill="none" transform="matrix(0.0833333 0 0 0.0833333 -67.175 -212.25)" d="M 2089.35,3163.47 A 85.7912,85.7912 0 1 0 2260.94,3163.47A 85.7912,85.7912 0 1 0 2089.35,3163.47Z " />
<path stroke="none" fill="#ffffff" transform="matrix(0.0833333 0 0 0.0833333 -67.175 -212.25)" d="M 5746.81,5366.71 A 85.7914,85.7914 0 1 0 5918.39,5366.71A 85.7914,85.7914 0 1 0 5746.81,5366.71Z " />
<path stroke="#000000" stroke-width="24" fill="none" transform="matrix(0.0833333 0 0 0.0833333 -67.175 -212.25)" d="M 5746.81,5366.71 A 85.7914,85.7914 0 1 0 5918.39,5366.71A 85.7914,85.7914 0 1 0 5746.81,5366.71Z " />
<path stroke="none" fill="#ffffff" transform="matrix(0.0833333 0 0 0.0833333 -67.175 -212.25)" d="M 6131.56,4702.47 A 85.7914,85.7914 0 1 0 6303.14,4702.47A 85.7914,85.7914 0 1 0 6131.56,4702.47Z " />
<path stroke="#000000" stroke-width="24" fill="none" transform="matrix(0.0833333 0 0 0.0833333 -67.175 -212.25)" d="M 6131.56,4702.47 A 85.7914,85.7914 0 1 0 6303.14,4702.47A 85.7914,85.7914 0 1 0 6131.56,4702.47Z " />
<path stroke="none" fill="#ffffff" transform="matrix(0.0833333 0 0 0.0833333 -67.175 -212.25)" d="M 5741.65,4548.48 A 85.7899,85.7899 0 1 0 5913.23,4548.48A 85.7899,85.7899 0 1 0 5741.65,4548.48Z " />
<path stroke="#000000" stroke-width="24" fill="none" transform="matrix(0.0833333 0 0 0.0833333 -67.175 -212.25)" d="M 5741.65,4548.48 A 85.7899,85.7899 0 1 0 5913.23,4548.48A 85.7899,85.7899 0 1 0 5741.65,4548.48Z " />
<path stroke="none" fill="#ffffff" transform="matrix(0.0833333 0 0 0.0833333 -67.175 -212.25)" d="M 6105.56,5160.84 A 85.7904,85.7904 0 1 0 6277.14,5160.84A 85.7904,85.7904 0 1 0 6105.56,5160.84Z " />
<path stroke="#000000" stroke-width="24" fill="none" transform="matrix(0.0833333 0 0 0.0833333 -67.175 -212.25)" d="M 6105.56,5160.84 A 85.7904,85.7904 0 1 0 6277.14,5160.84A 85.7904,85.7904 0 1 0 6105.56,5160.84Z " />
<path stroke="none" fill="#ffffff" transform="matrix(0.0833333 0 0 0.0833333 -67.175 -212.25)" d="M 5364.53,5179.46 A 85.7903,85.7903 0 1 0 5536.11,5179.46A 85.7903,85.7903 0 1 0 5364.53,5179.46Z " />
<path stroke="#000000" stroke-width="24" fill="none" transform="matrix(0.0833333 0 0 0.0833333 -67.175 -212.25)" d="M 5364.53,5179.46 A 85.7903,85.7903 0 1 0 5536.11,5179.46A 85.7903,85.7903 0 1 0 5364.53,5179.46Z " />
<path stroke="none" fill="#ffffff" transform="matrix(0.0833333 0 0 0.0833333 -67.175 -212.25)" d="M 5762.76,3904.86 A 85.7911,85.7911 0 1 0 5934.34,3904.86A 85.7911,85.7911 0 1 0 5762.76,3904.86Z " />
<path stroke="#000000" stroke-width="24" fill="none" transform="matrix(0.0833333 0 0 0.0833333 -67.175 -212.25)" d="M 5762.76,3904.86 A 85.7911,85.7911 0 1 0 5934.34,3904.86A 85.7911,85.7911 0 1 0 5762.76,3904.86Z " />
<path stroke="none" fill="#ffffff" transform="matrix(0.0833333 0 0 0.0833333 -67.175 -212.25)" d="M 5659.64,4265.2 A 164.87,164.87 0 1 0 5989.38,4265.2A 164.87,164.87 0 1 0 5659.64,4265.2Z " />
<path stroke="#000000" stroke-width="24" fill="none" transform="matrix(0.0833333 0 0 0.0833333 -67.175 -212.25)" d="M 5659.64,4265.2 A 164.87,164.87 0 1 0 5989.38,4265.2A 164.87,164.87 0 1 0 5659.64,4265.2Z " />
<path stroke="none" fill="#ffffff" transform="matrix(0.0833333 0 0 0.0833333 -67.175 -212.25)" d="M 6110.69,3248.1 A 85.7909,85.7909 0 1 0 6282.28,3248.1A 85.7909,85.7909 0 1 0 6110.69,3248.1Z " />
<path stroke="#000000" stroke-width="24" fill="none" transform="matrix(0.0833333 0 0 0.0833333 -67.175 -212.25)" d="M 6110.69,3248.1 A 85.7909,85.7909 0 1 0 6282.28,3248.1A 85.7909,85.7909 0 1 0 6110.69,3248.1Z " />
<path stroke="none" fill="#ffffff" transform="matrix(0.0833333 0 0 0.0833333 -67.175 -212.25)" d="M 5368.08,3248.66 A 85.7907,85.7907 0 1 0 5539.67,3248.66A 85.7907,85.7907 0 1 0 5368.08,3248.66Z " />
<path stroke="#000000" stroke-width="24" fill="none" transform="matrix(0.0833333 0 0 0.0833333 -67.175 -212.25)" d="M 5368.08,3248.66 A 85.7907,85.7907 0 1 0 5539.67,3248.66A 85.7907,85.7907 0 1 0 5368.08,3248.66Z " />
<path stroke="none" fill="#ffffff" transform="matrix(0.0833333 0 0 0.0833333 -67.175 -212.25)" d="M 5728.5,3066.36 A 85.7908,85.7908 0 1 0 5900.08,3066.36A 85.7908,85.7908 0 1 0 5728.5,3066.36Z " />
<path stroke="#000000" stroke-width="24" fill="none" transform="matrix(0.0833333 0 0 0.0833333 -67.175 -212.25)" d="M 5728.5,3066.36 A 85.7908,85.7908 0 1 0 5900.08,3066.36A 85.7908,85.7908 0 1 0 5728.5,3066.36Z " />
<path stroke="none" fill="#ffffff" transform="matrix(0.0833333 0 0 0.0833333 -67.175 -212.25)" d="M 6098.5,3703.08 A 85.7906,85.7906 0 1 0 6270.08,3703.08A 85.7906,85.7906 0 1 0 6098.5,3703.08Z " />
<path stroke="#000000" stroke-width="24" fill="none" transform="matrix(0.0833333 0 0 0.0833333 -67.175 -212.25)" d="M 6098.5,3703.08 A 85.7906,85.7906 0 1 0 6270.08,3703.08A 85.7906,85.7906 0 1 0 6098.5,3703.08Z " />
<path stroke="#000000" stroke-width="24" fill="none" transform="matrix(0.0833333 0 0 0.0833333 -67.175 -212.25)" d="M 5613.54,3150.57 " />
<text x="0" y="0" stroke="none" fill="#ff8000" transform="matrix(0.0833333 0 0 0.0833333 408.222 147.991)" font-style="normal" font-weight="bold" font-size="200px" font-family="Times New Roman" >
Co</text>
<path stroke="none" fill="#ffffff" transform="matrix(0.0833333 0 0 0.0833333 -67.175 -212.25)" d="M 5745.78,5635.23 A 85.7904,85.7904 0 1 0 5917.36,5635.23A 85.7904,85.7904 0 1 0 5745.78,5635.23Z " />
<path stroke="#000000" stroke-width="24" fill="none" transform="matrix(0.0833333 0 0 0.0833333 -67.175 -212.25)" d="M 5745.78,5635.23 A 85.7904,85.7904 0 1 0 5917.36,5635.23A 85.7904,85.7904 0 1 0 5745.78,5635.23Z " />
<text x="0" y="0" stroke="none" fill="#000000" transform="matrix(0.0833333 0 0 0.0833333 270.133 125.292)" font-style="normal" font-weight="bold" font-size="200px" font-family="Times New Roman" >
Et</text>
<text x="0" y="0" stroke="none" fill="#000000" transform="matrix(0.0833333 0 0 0.0833333 286.833 128.875)" font-style="normal" font-weight="bold" font-size="150px" font-family="Times New Roman" >
3</text>
<text x="0" y="0" stroke="none" fill="#000000" transform="matrix(0.0833333 0 0 0.0833333 293.083 125.292)" font-style="normal" font-weight="bold" font-size="200px" font-family="Times New Roman" >
N</text>
<path stroke="none" fill="#000000" transform="matrix(0.0833333 0 0 0.0833333 -67.175 -212.25)" d="M 2360.6,2598.09 L 2336.79,2621.91 L 2060.7,2621.91 L 2060.7,2598.09 L 2360.6,2598.09 Z " />
<path stroke="none" fill="#000000" transform="matrix(0.0833333 0 0 0.0833333 -67.175 -212.25)" d="M 2360.6,2898 L 2336.79,2898 L 2336.79,2621.91 L 2360.6,2598.09 L 2360.6,2898 Z " />
<path stroke="#000000" stroke-width="19" fill="none" transform="matrix(0.0833333 0 0 0.0833333 -67.175 -212.25)" d="M 2404.51,2715.33 A 76.5243,76.5243 0 1 0 2557.56,2715.33A 76.5243,76.5243 0 1 0 2404.51,2715.33Z " />
<path stroke="none" fill="#000000" transform="matrix(0.0833333 0 0 0.0833333 -67.175 -212.25)" d="M 2435.46,2705.5 L 2525.94,2705.5 L 2525.94,2724.5 L 2435.46,2724.5 Z " />
<path stroke="none" fill="#000000" transform="matrix(0.0833333 0 0 0.0833333 -67.175 -212.25)" d="M 6590.6,2598.09 L 6566.79,2621.91 L 6290.7,2621.91 L 6290.7,2598.09 L 6590.6,2598.09 Z " />
<path stroke="none" fill="#000000" transform="matrix(0.0833333 0 0 0.0833333 -67.175 -212.25)" d="M 6590.6,2898 L 6566.79,2898 L 6566.79,2621.91 L 6590.6,2598.09 L 6590.6,2898 Z " />
<path stroke="#000000" stroke-width="19" fill="none" transform="matrix(0.0833333 0 0 0.0833333 -67.175 -212.25)" d="M 6634.51,2715.33 A 76.5243,76.5243 0 1 0 6787.56,2715.33A 76.5243,76.5243 0 1 0 6634.51,2715.33Z " />
<path stroke="none" fill="#000000" transform="matrix(0.0833333 0 0 0.0833333 -67.175 -212.25)" d="M 6665.46,2705.5 L 6755.94,2705.5 L 6755.94,2724.5 L 6665.46,2724.5 Z " />
<text x="0" y="0" stroke="none" fill="#000000" transform="matrix(0.0833333 0 0 0.0833333 414.275 288)" font-style="normal" font-weight="bold" font-size="200px" font-family="Times New Roman" >
2</text>
<text x="0" y="0" stroke="none" fill="#000000" transform="matrix(0.0833333 0 0 0.0833333 59.775 289.95)" font-style="normal" font-weight="bold" font-size="200px" font-family="Times New Roman" >
1</text>
<text x="0" y="0" stroke="none" fill="#000000" transform="matrix(0.0833333 0 0 0.0833333 242.05 157.75)" font-style="normal" font-weight="bold" font-size="200px" font-family="Times New Roman" >
wet </text>
<text x="0" y="0" stroke="none" fill="#000000" transform="matrix(0.0833333 0 0 0.0833333 271.253 157.75)" font-style="normal" font-weight="bold" font-size="200px" font-family="Times New Roman" >
acetone</text>
<path stroke="none" fill="#000000" transform="matrix(0.0833333 0 0 0.0833333 -67.175 -212.25)" d="M 1081.45,3722.74 A 98.7924,98.7924 0 1 0 1279.04,3722.74A 98.7924,98.7924 0 1 0 1081.45,3722.74Z " />
<path stroke="none" fill="#000000" transform="matrix(0.0833333 0 0 0.0833333 -67.175 -212.25)" d="M 865.513,3801.23 A 98.7924,98.7924 0 1 0 1063.1,3801.23A 98.7924,98.7924 0 1 0 865.513,3801.23Z " />
<path stroke="none" fill="#000000" transform="matrix(0.0833333 0 0 0.0833333 -67.175 -212.25)" d="M 858.353,4568.71 A 98.7924,98.7924 0 1 0 1055.94,4568.71A 98.7924,98.7924 0 1 0 858.353,4568.71Z " />
<path stroke="none" fill="#000000" transform="matrix(0.0833333 0 0 0.0833333 -67.175 -212.25)" d="M 1095.63,4705.83 A 98.793,98.793 0 1 0 1293.22,4705.83A 98.793,98.793 0 1 0 1095.63,4705.83Z " />
<path stroke="none" fill="#000000" transform="matrix(0.0833333 0 0 0.0833333 -67.175 -212.25)" d="M 2054.5,3793.35 A 113.118,113.118 0 1 0 2280.74,3793.35A 113.118,113.118 0 1 0 2054.5,3793.35Z " />
<path stroke="none" fill="#0f0f0f" transform="matrix(0.0833333 0 0 0.0833333 -67.175 -212.25)" d="M 2055.82,3791.58 A 110.028,110.028 0 1 0 2275.88,3791.58A 110.028,110.028 0 1 0 2055.82,3791.58Z " />
<path stroke="none" fill="#1e1e1e" transform="matrix(0.0833333 0 0 0.0833333 -67.175 -212.25)" d="M 2057.15,3789.81 A 106.938,106.938 0 1 0 2271.02,3789.81A 106.938,106.938 0 1 0 2057.15,3789.81Z " />
<path stroke="none" fill="#2d2d2d" transform="matrix(0.0833333 0 0 0.0833333 -67.175 -212.25)" d="M 2058.47,3788.04 A 103.848,103.848 0 1 0 2266.17,3788.04A 103.848,103.848 0 1 0 2058.47,3788.04Z " />
<path stroke="none" fill="#3b3b3b" transform="matrix(0.0833333 0 0 0.0833333 -67.175 -212.25)" d="M 2059.79,3786.28 A 100.759,100.759 0 1 0 2261.31,3786.28A 100.759,100.759 0 1 0 2059.79,3786.28Z " />
<path stroke="none" fill="#494949" transform="matrix(0.0833333 0 0 0.0833333 -67.175 -212.25)" d="M 2061.11,3784.51 A 97.6688,97.6688 0 1 0 2256.45,3784.51A 97.6688,97.6688 0 1 0 2061.11,3784.51Z " />
<path stroke="none" fill="#565656" transform="matrix(0.0833333 0 0 0.0833333 -67.175 -212.25)" d="M 2062.44,3782.74 A 94.5789,94.5789 0 1 0 2251.59,3782.74A 94.5789,94.5789 0 1 0 2062.44,3782.74Z " />
<path stroke="none" fill="#636363" transform="matrix(0.0833333 0 0 0.0833333 -67.175 -212.25)" d="M 2063.76,3780.97 A 91.4891,91.4891 0 1 0 2246.74,3780.97A 91.4891,91.4891 0 1 0 2063.76,3780.97Z " />
<path stroke="none" fill="#6f6f6f" transform="matrix(0.0833333 0 0 0.0833333 -67.175 -212.25)" d="M 2065.08,3779.21 A 88.3992,88.3992 0 1 0 2241.88,3779.21A 88.3992,88.3992 0 1 0 2065.08,3779.21Z " />
<path stroke="none" fill="#7b7b7b" transform="matrix(0.0833333 0 0 0.0833333 -67.175 -212.25)" d="M 2066.4,3777.44 A 85.3094,85.3094 0 1 0 2237.02,3777.44A 85.3094,85.3094 0 1 0 2066.4,3777.44Z " />
<path stroke="none" fill="#868686" transform="matrix(0.0833333 0 0 0.0833333 -67.175 -212.25)" d="M 2067.73,3775.67 A 82.2195,82.2195 0 1 0 2232.16,3775.67A 82.2195,82.2195 0 1 0 2067.73,3775.67Z " />
<path stroke="none" fill="#919191" transform="matrix(0.0833333 0 0 0.0833333 -67.175 -212.25)" d="M 2069.05,3773.9 A 79.1297,79.1297 0 1 0 2227.31,3773.9A 79.1297,79.1297 0 1 0 2069.05,3773.9Z " />
<path stroke="none" fill="#9b9b9b" transform="matrix(0.0833333 0 0 0.0833333 -67.175 -212.25)" d="M 2070.37,3772.14 A 76.0399,76.0399 0 1 0 2222.45,3772.14A 76.0399,76.0399 0 1 0 2070.37,3772.14Z " />
<path stroke="none" fill="#a5a5a5" transform="matrix(0.0833333 0 0 0.0833333 -67.175 -212.25)" d="M 2071.69,3770.37 A 72.95,72.95 0 1 0 2217.59,3770.37A 72.95,72.95 0 1 0 2071.69,3770.37Z " />
<path stroke="none" fill="#aeaeae" transform="matrix(0.0833333 0 0 0.0833333 -67.175 -212.25)" d="M 2073.01,3768.6 A 69.8602,69.8602 0 1 0 2212.74,3768.6A 69.8602,69.8602 0 1 0 2073.01,3768.6Z " />
<path stroke="none" fill="#b7b7b7" transform="matrix(0.0833333 0 0 0.0833333 -67.175 -212.25)" d="M 2074.34,3766.83 A 66.7703,66.7703 0 1 0 2207.88,3766.83A 66.7703,66.7703 0 1 0 2074.34,3766.83Z " />
<path stroke="none" fill="#bfbfbf" transform="matrix(0.0833333 0 0 0.0833333 -67.175 -212.25)" d="M 2075.66,3765.07 A 63.6805,63.6805 0 1 0 2203.02,3765.07A 63.6805,63.6805 0 1 0 2075.66,3765.07Z " />
<path stroke="none" fill="#c6c6c6" transform="matrix(0.0833333 0 0 0.0833333 -67.175 -212.25)" d="M 2076.98,3763.3 A 60.5906,60.5906 0 1 0 2198.16,3763.3A 60.5906,60.5906 0 1 0 2076.98,3763.3Z " />
<path stroke="none" fill="#cecece" transform="matrix(0.0833333 0 0 0.0833333 -67.175 -212.25)" d="M 2078.3,3761.53 A 57.5008,57.5008 0 1 0 2193.31,3761.53A 57.5008,57.5008 0 1 0 2078.3,3761.53Z " />
<path stroke="none" fill="#d4d4d4" transform="matrix(0.0833333 0 0 0.0833333 -67.175 -212.25)" d="M 2079.63,3759.76 A 54.4109,54.4109 0 1 0 2188.45,3759.76A 54.4109,54.4109 0 1 0 2079.63,3759.76Z " />
<path stroke="none" fill="#dbdbdb" transform="matrix(0.0833333 0 0 0.0833333 -67.175 -212.25)" d="M 2080.95,3758 A 51.3211,51.3211 0 1 0 2183.59,3758A 51.3211,51.3211 0 1 0 2080.95,3758Z " />
<path stroke="none" fill="#e0e0e0" transform="matrix(0.0833333 0 0 0.0833333 -67.175 -212.25)" d="M 2082.27,3756.23 A 48.2313,48.2313 0 1 0 2178.73,3756.23A 48.2313,48.2313 0 1 0 2082.27,3756.23Z " />
<path stroke="none" fill="#e6e6e6" transform="matrix(0.0833333 0 0 0.0833333 -67.175 -212.25)" d="M 2083.59,3754.46 A 45.1414,45.1414 0 1 0 2173.88,3754.46A 45.1414,45.1414 0 1 0 2083.59,3754.46Z " />
<path stroke="none" fill="#eaeaea" transform="matrix(0.0833333 0 0 0.0833333 -67.175 -212.25)" d="M 2084.92,3752.7 A 42.0516,42.0516 0 1 0 2169.02,3752.7A 42.0516,42.0516 0 1 0 2084.92,3752.7Z " />
<path stroke="none" fill="#efefef" transform="matrix(0.0833333 0 0 0.0833333 -67.175 -212.25)" d="M 2086.24,3750.93 A 38.9617,38.9617 0 1 0 2164.16,3750.93A 38.9617,38.9617 0 1 0 2086.24,3750.93Z " />
<path stroke="none" fill="#f2f2f2" transform="matrix(0.0833333 0 0 0.0833333 -67.175 -212.25)" d="M 2087.56,3749.16 A 35.8719,35.8719 0 1 0 2159.3,3749.16A 35.8719,35.8719 0 1 0 2087.56,3749.16Z " />
<path stroke="none" fill="#f6f6f6" transform="matrix(0.0833333 0 0 0.0833333 -67.175 -212.25)" d="M 2088.88,3747.39 A 32.782,32.782 0 1 0 2154.45,3747.39A 32.782,32.782 0 1 0 2088.88,3747.39Z " />
<path stroke="none" fill="#f8f8f8" transform="matrix(0.0833333 0 0 0.0833333 -67.175 -212.25)" d="M 2090.21,3745.63 A 29.6922,29.6922 0 1 0 2149.59,3745.63A 29.6922,29.6922 0 1 0 2090.21,3745.63Z " />
<path stroke="none" fill="#fbfbfb" transform="matrix(0.0833333 0 0 0.0833333 -67.175 -212.25)" d="M 2091.53,3743.86 A 26.6024,26.6024 0 1 0 2144.73,3743.86A 26.6024,26.6024 0 1 0 2091.53,3743.86Z " />
<path stroke="none" fill="#fcfcfc" transform="matrix(0.0833333 0 0 0.0833333 -67.175 -212.25)" d="M 2092.85,3742.09 A 23.5125,23.5125 0 1 0 2139.88,3742.09A 23.5125,23.5125 0 1 0 2092.85,3742.09Z " />
<path stroke="none" fill="#fefefe" transform="matrix(0.0833333 0 0 0.0833333 -67.175 -212.25)" d="M 2094.17,3740.32 A 20.4227,20.4227 0 1 0 2135.02,3740.32A 20.4227,20.4227 0 1 0 2094.17,3740.32Z " />
<path stroke="none" fill="#fefefe" transform="matrix(0.0833333 0 0 0.0833333 -67.175 -212.25)" d="M 2095.5,3738.56 A 17.3328,17.3328 0 1 0 2130.16,3738.56A 17.3328,17.3328 0 1 0 2095.5,3738.56Z " />
<path stroke="#000000" stroke-width="24" fill="none" transform="matrix(0.0833333 0 0 0.0833333 -67.175 -212.25)" d="M 2054.5,3793.35 A 113.118,113.118 0 1 0 2280.74,3793.35A 113.118,113.118 0 1 0 2054.5,3793.35Z " />
<path stroke="none" fill="#000000" transform="matrix(0.0833333 0 0 0.0833333 -67.175 -212.25)" d="M 2075.47,4568.41 A 113.118,113.118 0 1 0 2301.71,4568.41A 113.118,113.118 0 1 0 2075.47,4568.41Z " />
<path stroke="none" fill="#0f0f0f" transform="matrix(0.0833333 0 0 0.0833333 -67.175 -212.25)" d="M 2076.79,4566.65 A 110.028,110.028 0 1 0 2296.85,4566.65A 110.028,110.028 0 1 0 2076.79,4566.65Z " />
<path stroke="none" fill="#1e1e1e" transform="matrix(0.0833333 0 0 0.0833333 -67.175 -212.25)" d="M 2078.11,4564.88 A 106.938,106.938 0 1 0 2291.99,4564.88A 106.938,106.938 0 1 0 2078.11,4564.88Z " />
<path stroke="none" fill="#2d2d2d" transform="matrix(0.0833333 0 0 0.0833333 -67.175 -212.25)" d="M 2079.44,4563.11 A 103.848,103.848 0 1 0 2287.13,4563.11A 103.848,103.848 0 1 0 2079.44,4563.11Z " />
<path stroke="none" fill="#3b3b3b" transform="matrix(0.0833333 0 0 0.0833333 -67.175 -212.25)" d="M 2080.76,4561.34 A 100.759,100.759 0 1 0 2282.28,4561.34A 100.759,100.759 0 1 0 2080.76,4561.34Z " />
<path stroke="none" fill="#494949" transform="matrix(0.0833333 0 0 0.0833333 -67.175 -212.25)" d="M 2082.08,4559.58 A 97.6688,97.6688 0 1 0 2277.42,4559.58A 97.6688,97.6688 0 1 0 2082.08,4559.58Z " />
<path stroke="none" fill="#565656" transform="matrix(0.0833333 0 0 0.0833333 -67.175 -212.25)" d="M 2083.4,4557.81 A 94.5789,94.5789 0 1 0 2272.56,4557.81A 94.5789,94.5789 0 1 0 2083.4,4557.81Z " />
<path stroke="none" fill="#636363" transform="matrix(0.0833333 0 0 0.0833333 -67.175 -212.25)" d="M 2084.73,4556.04 A 91.4891,91.4891 0 1 0 2267.7,4556.04A 91.4891,91.4891 0 1 0 2084.73,4556.04Z " />
<path stroke="none" fill="#6f6f6f" transform="matrix(0.0833333 0 0 0.0833333 -67.175 -212.25)" d="M 2086.05,4554.27 A 88.3992,88.3992 0 1 0 2262.85,4554.27A 88.3992,88.3992 0 1 0 2086.05,4554.27Z " />
<path stroke="none" fill="#7b7b7b" transform="matrix(0.0833333 0 0 0.0833333 -67.175 -212.25)" d="M 2087.37,4552.51 A 85.3094,85.3094 0 1 0 2257.99,4552.51A 85.3094,85.3094 0 1 0 2087.37,4552.51Z " />
<path stroke="none" fill="#868686" transform="matrix(0.0833333 0 0 0.0833333 -67.175 -212.25)" d="M 2088.69,4550.74 A 82.2195,82.2195 0 1 0 2253.13,4550.74A 82.2195,82.2195 0 1 0 2088.69,4550.74Z " />
<path stroke="none" fill="#919191" transform="matrix(0.0833333 0 0 0.0833333 -67.175 -212.25)" d="M 2090.02,4548.97 A 79.1297,79.1297 0 1 0 2248.28,4548.97A 79.1297,79.1297 0 1 0 2090.02,4548.97Z " />
<path stroke="none" fill="#9b9b9b" transform="matrix(0.0833333 0 0 0.0833333 -67.175 -212.25)" d="M 2091.34,4547.2 A 76.0399,76.0399 0 1 0 2243.42,4547.2A 76.0399,76.0399 0 1 0 2091.34,4547.2Z " />
<path stroke="none" fill="#a5a5a5" transform="matrix(0.0833333 0 0 0.0833333 -67.175 -212.25)" d="M 2092.66,4545.44 A 72.95,72.95 0 1 0 2238.56,4545.44A 72.95,72.95 0 1 0 2092.66,4545.44Z " />
<path stroke="none" fill="#aeaeae" transform="matrix(0.0833333 0 0 0.0833333 -67.175 -212.25)" d="M 2093.98,4543.67 A 69.8602,69.8602 0 1 0 2233.7,4543.67A 69.8602,69.8602 0 1 0 2093.98,4543.67Z " />
<path stroke="none" fill="#b7b7b7" transform="matrix(0.0833333 0 0 0.0833333 -67.175 -212.25)" d="M 2095.31,4541.9 A 66.7703,66.7703 0 1 0 2228.85,4541.9A 66.7703,66.7703 0 1 0 2095.31,4541.9Z " />
<path stroke="none" fill="#bfbfbf" transform="matrix(0.0833333 0 0 0.0833333 -67.175 -212.25)" d="M 2096.63,4540.13 A 63.6805,63.6805 0 1 0 2223.99,4540.13A 63.6805,63.6805 0 1 0 2096.63,4540.13Z " />
<path stroke="none" fill="#c6c6c6" transform="matrix(0.0833333 0 0 0.0833333 -67.175 -212.25)" d="M 2097.95,4538.37 A 60.5906,60.5906 0 1 0 2219.13,4538.37A 60.5906,60.5906 0 1 0 2097.95,4538.37Z " />
<path stroke="none" fill="#cecece" transform="matrix(0.0833333 0 0 0.0833333 -67.175 -212.25)" d="M 2099.27,4536.6 A 57.5008,57.5008 0 1 0 2214.27,4536.6A 57.5008,57.5008 0 1 0 2099.27,4536.6Z " />
<path stroke="none" fill="#d4d4d4" transform="matrix(0.0833333 0 0 0.0833333 -67.175 -212.25)" d="M 2100.6,4534.83 A 54.4109,54.4109 0 1 0 2209.42,4534.83A 54.4109,54.4109 0 1 0 2100.6,4534.83Z " />
<path stroke="none" fill="#dbdbdb" transform="matrix(0.0833333 0 0 0.0833333 -67.175 -212.25)" d="M 2101.92,4533.06 A 51.3211,51.3211 0 1 0 2204.56,4533.06A 51.3211,51.3211 0 1 0 2101.92,4533.06Z " />
<path stroke="none" fill="#e0e0e0" transform="matrix(0.0833333 0 0 0.0833333 -67.175 -212.25)" d="M 2103.24,4531.3 A 48.2313,48.2313 0 1 0 2199.7,4531.3A 48.2313,48.2313 0 1 0 2103.24,4531.3Z " />
<path stroke="none" fill="#e6e6e6" transform="matrix(0.0833333 0 0 0.0833333 -67.175 -212.25)" d="M 2104.56,4529.53 A 45.1414,45.1414 0 1 0 2194.85,4529.53A 45.1414,45.1414 0 1 0 2104.56,4529.53Z " />
<path stroke="none" fill="#eaeaea" transform="matrix(0.0833333 0 0 0.0833333 -67.175 -212.25)" d="M 2105.88,4527.76 A 42.0516,42.0516 0 1 0 2189.99,4527.76A 42.0516,42.0516 0 1 0 2105.88,4527.76Z " />
<path stroke="none" fill="#efefef" transform="matrix(0.0833333 0 0 0.0833333 -67.175 -212.25)" d="M 2107.21,4525.99 A 38.9617,38.9617 0 1 0 2185.13,4525.99A 38.9617,38.9617 0 1 0 2107.21,4525.99Z " />
<path stroke="none" fill="#f2f2f2" transform="matrix(0.0833333 0 0 0.0833333 -67.175 -212.25)" d="M 2108.53,4524.23 A 35.8719,35.8719 0 1 0 2180.27,4524.23A 35.8719,35.8719 0 1 0 2108.53,4524.23Z " />
<path stroke="none" fill="#f6f6f6" transform="matrix(0.0833333 0 0 0.0833333 -67.175 -212.25)" d="M 2109.85,4522.46 A 32.782,32.782 0 1 0 2175.42,4522.46A 32.782,32.782 0 1 0 2109.85,4522.46Z " />
<path stroke="none" fill="#f8f8f8" transform="matrix(0.0833333 0 0 0.0833333 -67.175 -212.25)" d="M 2111.17,4520.69 A 29.6922,29.6922 0 1 0 2170.56,4520.69A 29.6922,29.6922 0 1 0 2111.17,4520.69Z " />
<path stroke="none" fill="#fbfbfb" transform="matrix(0.0833333 0 0 0.0833333 -67.175 -212.25)" d="M 2112.5,4518.92 A 26.6024,26.6024 0 1 0 2165.7,4518.92A 26.6024,26.6024 0 1 0 2112.5,4518.92Z " />
<path stroke="none" fill="#fcfcfc" transform="matrix(0.0833333 0 0 0.0833333 -67.175 -212.25)" d="M 2113.82,4517.16 A 23.5125,23.5125 0 1 0 2160.84,4517.16A 23.5125,23.5125 0 1 0 2113.82,4517.16Z " />
<path stroke="none" fill="#fefefe" transform="matrix(0.0833333 0 0 0.0833333 -67.175 -212.25)" d="M 2115.14,4515.39 A 20.4227,20.4227 0 1 0 2155.99,4515.39A 20.4227,20.4227 0 1 0 2115.14,4515.39Z " />
<path stroke="none" fill="#fefefe" transform="matrix(0.0833333 0 0 0.0833333 -67.175 -212.25)" d="M 2116.46,4513.62 A 17.3328,17.3328 0 1 0 2151.13,4513.62A 17.3328,17.3328 0 1 0 2116.46,4513.62Z " />
<path stroke="#000000" stroke-width="24" fill="none" transform="matrix(0.0833333 0 0 0.0833333 -67.175 -212.25)" d="M 2075.47,4568.41 A 113.118,113.118 0 1 0 2301.71,4568.41A 113.118,113.118 0 1 0 2075.47,4568.41Z " />
<path stroke="none" fill="#000000" transform="matrix(0.0833333 0 0 0.0833333 -67.175 -212.25)" d="M 5341.45,3722.74 A 98.7924,98.7924 0 1 0 5539.04,3722.74A 98.7924,98.7924 0 1 0 5341.45,3722.74Z " />
<path stroke="none" fill="#000000" transform="matrix(0.0833333 0 0 0.0833333 -67.175 -212.25)" d="M 5125.51,3801.23 A 98.7924,98.7924 0 1 0 5323.1,3801.23A 98.7924,98.7924 0 1 0 5125.51,3801.23Z " />
<path stroke="none" fill="#000000" transform="matrix(0.0833333 0 0 0.0833333 -67.175 -212.25)" d="M 5118.35,4568.71 A 98.7924,98.7924 0 1 0 5315.94,4568.71A 98.7924,98.7924 0 1 0 5118.35,4568.71Z " />
<path stroke="none" fill="#000000" transform="matrix(0.0833333 0 0 0.0833333 -67.175 -212.25)" d="M 5355.63,4705.83 A 98.793,98.793 0 1 0 5553.22,4705.83A 98.793,98.793 0 1 0 5355.63,4705.83Z " />
<path stroke="none" fill="#000000" transform="matrix(0.0833333 0 0 0.0833333 -67.175 -212.25)" d="M 6314.5,3793.35 A 113.118,113.118 0 1 0 6540.74,3793.35A 113.118,113.118 0 1 0 6314.5,3793.35Z " />
<path stroke="none" fill="#0f0f0f" transform="matrix(0.0833333 0 0 0.0833333 -67.175 -212.25)" d="M 6315.82,3791.58 A 110.028,110.028 0 1 0 6535.88,3791.58A 110.028,110.028 0 1 0 6315.82,3791.58Z " />
<path stroke="none" fill="#1e1e1e" transform="matrix(0.0833333 0 0 0.0833333 -67.175 -212.25)" d="M 6317.15,3789.81 A 106.938,106.938 0 1 0 6531.02,3789.81A 106.938,106.938 0 1 0 6317.15,3789.81Z " />
<path stroke="none" fill="#2d2d2d" transform="matrix(0.0833333 0 0 0.0833333 -67.175 -212.25)" d="M 6318.47,3788.04 A 103.848,103.848 0 1 0 6526.17,3788.04A 103.848,103.848 0 1 0 6318.47,3788.04Z " />
<path stroke="none" fill="#3b3b3b" transform="matrix(0.0833333 0 0 0.0833333 -67.175 -212.25)" d="M 6319.79,3786.28 A 100.759,100.759 0 1 0 6521.31,3786.28A 100.759,100.759 0 1 0 6319.79,3786.28Z " />
<path stroke="none" fill="#494949" transform="matrix(0.0833333 0 0 0.0833333 -67.175 -212.25)" d="M 6321.11,3784.51 A 97.6688,97.6688 0 1 0 6516.45,3784.51A 97.6688,97.6688 0 1 0 6321.11,3784.51Z " />
<path stroke="none" fill="#565656" transform="matrix(0.0833333 0 0 0.0833333 -67.175 -212.25)" d="M 6322.44,3782.74 A 94.5789,94.5789 0 1 0 6511.59,3782.74A 94.5789,94.5789 0 1 0 6322.44,3782.74Z " />
<path stroke="none" fill="#636363" transform="matrix(0.0833333 0 0 0.0833333 -67.175 -212.25)" d="M 6323.76,3780.97 A 91.4891,91.4891 0 1 0 6506.74,3780.97A 91.4891,91.4891 0 1 0 6323.76,3780.97Z " />
<path stroke="none" fill="#6f6f6f" transform="matrix(0.0833333 0 0 0.0833333 -67.175 -212.25)" d="M 6325.08,3779.21 A 88.3992,88.3992 0 1 0 6501.88,3779.21A 88.3992,88.3992 0 1 0 6325.08,3779.21Z " />
<path stroke="none" fill="#7b7b7b" transform="matrix(0.0833333 0 0 0.0833333 -67.175 -212.25)" d="M 6326.4,3777.44 A 85.3094,85.3094 0 1 0 6497.02,3777.44A 85.3094,85.3094 0 1 0 6326.4,3777.44Z " />
<path stroke="none" fill="#868686" transform="matrix(0.0833333 0 0 0.0833333 -67.175 -212.25)" d="M 6327.73,3775.67 A 82.2195,82.2195 0 1 0 6492.16,3775.67A 82.2195,82.2195 0 1 0 6327.73,3775.67Z " />
<path stroke="none" fill="#919191" transform="matrix(0.0833333 0 0 0.0833333 -67.175 -212.25)" d="M 6329.05,3773.9 A 79.1297,79.1297 0 1 0 6487.31,3773.9A 79.1297,79.1297 0 1 0 6329.05,3773.9Z " />
<path stroke="none" fill="#9b9b9b" transform="matrix(0.0833333 0 0 0.0833333 -67.175 -212.25)" d="M 6330.37,3772.14 A 76.0399,76.0399 0 1 0 6482.45,3772.14A 76.0399,76.0399 0 1 0 6330.37,3772.14Z " />
<path stroke="none" fill="#a5a5a5" transform="matrix(0.0833333 0 0 0.0833333 -67.175 -212.25)" d="M 6331.69,3770.37 A 72.95,72.95 0 1 0 6477.59,3770.37A 72.95,72.95 0 1 0 6331.69,3770.37Z " />
<path stroke="none" fill="#aeaeae" transform="matrix(0.0833333 0 0 0.0833333 -67.175 -212.25)" d="M 6333.01,3768.6 A 69.8602,69.8602 0 1 0 6472.74,3768.6A 69.8602,69.8602 0 1 0 6333.01,3768.6Z " />
<path stroke="none" fill="#b7b7b7" transform="matrix(0.0833333 0 0 0.0833333 -67.175 -212.25)" d="M 6334.34,3766.83 A 66.7703,66.7703 0 1 0 6467.88,3766.83A 66.7703,66.7703 0 1 0 6334.34,3766.83Z " />
<path stroke="none" fill="#bfbfbf" transform="matrix(0.0833333 0 0 0.0833333 -67.175 -212.25)" d="M 6335.66,3765.07 A 63.6805,63.6805 0 1 0 6463.02,3765.07A 63.6805,63.6805 0 1 0 6335.66,3765.07Z " />
<path stroke="none" fill="#c6c6c6" transform="matrix(0.0833333 0 0 0.0833333 -67.175 -212.25)" d="M 6336.98,3763.3 A 60.5906,60.5906 0 1 0 6458.16,3763.3A 60.5906,60.5906 0 1 0 6336.98,3763.3Z " />
<path stroke="none" fill="#cecece" transform="matrix(0.0833333 0 0 0.0833333 -67.175 -212.25)" d="M 6338.3,3761.53 A 57.5008,57.5008 0 1 0 6453.31,3761.53A 57.5008,57.5008 0 1 0 6338.3,3761.53Z " />
<path stroke="none" fill="#d4d4d4" transform="matrix(0.0833333 0 0 0.0833333 -67.175 -212.25)" d="M 6339.63,3759.76 A 54.4109,54.4109 0 1 0 6448.45,3759.76A 54.4109,54.4109 0 1 0 6339.63,3759.76Z " />
<path stroke="none" fill="#dbdbdb" transform="matrix(0.0833333 0 0 0.0833333 -67.175 -212.25)" d="M 6340.95,3758 A 51.3211,51.3211 0 1 0 6443.59,3758A 51.3211,51.3211 0 1 0 6340.95,3758Z " />
<path stroke="none" fill="#e0e0e0" transform="matrix(0.0833333 0 0 0.0833333 -67.175 -212.25)" d="M 6342.27,3756.23 A 48.2313,48.2313 0 1 0 6438.73,3756.23A 48.2313,48.2313 0 1 0 6342.27,3756.23Z " />
<path stroke="none" fill="#e6e6e6" transform="matrix(0.0833333 0 0 0.0833333 -67.175 -212.25)" d="M 6343.59,3754.46 A 45.1414,45.1414 0 1 0 6433.88,3754.46A 45.1414,45.1414 0 1 0 6343.59,3754.46Z " />
<path stroke="none" fill="#eaeaea" transform="matrix(0.0833333 0 0 0.0833333 -67.175 -212.25)" d="M 6344.92,3752.7 A 42.0516,42.0516 0 1 0 6429.02,3752.7A 42.0516,42.0516 0 1 0 6344.92,3752.7Z " />
<path stroke="none" fill="#efefef" transform="matrix(0.0833333 0 0 0.0833333 -67.175 -212.25)" d="M 6346.24,3750.93 A 38.9617,38.9617 0 1 0 6424.16,3750.93A 38.9617,38.9617 0 1 0 6346.24,3750.93Z " />
<path stroke="none" fill="#f2f2f2" transform="matrix(0.0833333 0 0 0.0833333 -67.175 -212.25)" d="M 6347.56,3749.16 A 35.8719,35.8719 0 1 0 6419.3,3749.16A 35.8719,35.8719 0 1 0 6347.56,3749.16Z " />
<path stroke="none" fill="#f6f6f6" transform="matrix(0.0833333 0 0 0.0833333 -67.175 -212.25)" d="M 6348.88,3747.39 A 32.782,32.782 0 1 0 6414.45,3747.39A 32.782,32.782 0 1 0 6348.88,3747.39Z " />
<path stroke="none" fill="#f8f8f8" transform="matrix(0.0833333 0 0 0.0833333 -67.175 -212.25)" d="M 6350.21,3745.63 A 29.6922,29.6922 0 1 0 6409.59,3745.63A 29.6922,29.6922 0 1 0 6350.21,3745.63Z " />
<path stroke="none" fill="#fbfbfb" transform="matrix(0.0833333 0 0 0.0833333 -67.175 -212.25)" d="M 6351.53,3743.86 A 26.6024,26.6024 0 1 0 6404.73,3743.86A 26.6024,26.6024 0 1 0 6351.53,3743.86Z " />
<path stroke="none" fill="#fcfcfc" transform="matrix(0.0833333 0 0 0.0833333 -67.175 -212.25)" d="M 6352.85,3742.09 A 23.5125,23.5125 0 1 0 6399.88,3742.09A 23.5125,23.5125 0 1 0 6352.85,3742.09Z " />
<path stroke="none" fill="#fefefe" transform="matrix(0.0833333 0 0 0.0833333 -67.175 -212.25)" d="M 6354.17,3740.32 A 20.4227,20.4227 0 1 0 6395.02,3740.32A 20.4227,20.4227 0 1 0 6354.17,3740.32Z " />
<path stroke="none" fill="#fefefe" transform="matrix(0.0833333 0 0 0.0833333 -67.175 -212.25)" d="M 6355.5,3738.56 A 17.3328,17.3328 0 1 0 6390.16,3738.56A 17.3328,17.3328 0 1 0 6355.5,3738.56Z " />
<path stroke="#000000" stroke-width="24" fill="none" transform="matrix(0.0833333 0 0 0.0833333 -67.175 -212.25)" d="M 6314.5,3793.35 A 113.118,113.118 0 1 0 6540.74,3793.35A 113.118,113.118 0 1 0 6314.5,3793.35Z " />
<path stroke="none" fill="#000000" transform="matrix(0.0833333 0 0 0.0833333 -67.175 -212.25)" d="M 6335.47,4568.41 A 113.118,113.118 0 1 0 6561.71,4568.41A 113.118,113.118 0 1 0 6335.47,4568.41Z " />
<path stroke="none" fill="#0f0f0f" transform="matrix(0.0833333 0 0 0.0833333 -67.175 -212.25)" d="M 6336.79,4566.65 A 110.028,110.028 0 1 0 6556.85,4566.65A 110.028,110.028 0 1 0 6336.79,4566.65Z " />
<path stroke="none" fill="#1e1e1e" transform="matrix(0.0833333 0 0 0.0833333 -67.175 -212.25)" d="M 6338.11,4564.88 A 106.938,106.938 0 1 0 6551.99,4564.88A 106.938,106.938 0 1 0 6338.11,4564.88Z " />
<path stroke="none" fill="#2d2d2d" transform="matrix(0.0833333 0 0 0.0833333 -67.175 -212.25)" d="M 6339.44,4563.11 A 103.848,103.848 0 1 0 6547.13,4563.11A 103.848,103.848 0 1 0 6339.44,4563.11Z " />
<path stroke="none" fill="#3b3b3b" transform="matrix(0.0833333 0 0 0.0833333 -67.175 -212.25)" d="M 6340.76,4561.34 A 100.759,100.759 0 1 0 6542.28,4561.34A 100.759,100.759 0 1 0 6340.76,4561.34Z " />
<path stroke="none" fill="#494949" transform="matrix(0.0833333 0 0 0.0833333 -67.175 -212.25)" d="M 6342.08,4559.58 A 97.6688,97.6688 0 1 0 6537.42,4559.58A 97.6688,97.6688 0 1 0 6342.08,4559.58Z " />
<path stroke="none" fill="#565656" transform="matrix(0.0833333 0 0 0.0833333 -67.175 -212.25)" d="M 6343.4,4557.81 A 94.5789,94.5789 0 1 0 6532.56,4557.81A 94.5789,94.5789 0 1 0 6343.4,4557.81Z " />
<path stroke="none" fill="#636363" transform="matrix(0.0833333 0 0 0.0833333 -67.175 -212.25)" d="M 6344.73,4556.04 A 91.4891,91.4891 0 1 0 6527.7,4556.04A 91.4891,91.4891 0 1 0 6344.73,4556.04Z " />
<path stroke="none" fill="#6f6f6f" transform="matrix(0.0833333 0 0 0.0833333 -67.175 -212.25)" d="M 6346.05,4554.27 A 88.3992,88.3992 0 1 0 6522.85,4554.27A 88.3992,88.3992 0 1 0 6346.05,4554.27Z " />
<path stroke="none" fill="#7b7b7b" transform="matrix(0.0833333 0 0 0.0833333 -67.175 -212.25)" d="M 6347.37,4552.51 A 85.3094,85.3094 0 1 0 6517.99,4552.51A 85.3094,85.3094 0 1 0 6347.37,4552.51Z " />
<path stroke="none" fill="#868686" transform="matrix(0.0833333 0 0 0.0833333 -67.175 -212.25)" d="M 6348.69,4550.74 A 82.2195,82.2195 0 1 0 6513.13,4550.74A 82.2195,82.2195 0 1 0 6348.69,4550.74Z " />
<path stroke="none" fill="#919191" transform="matrix(0.0833333 0 0 0.0833333 -67.175 -212.25)" d="M 6350.02,4548.97 A 79.1297,79.1297 0 1 0 6508.28,4548.97A 79.1297,79.1297 0 1 0 6350.02,4548.97Z " />
<path stroke="none" fill="#9b9b9b" transform="matrix(0.0833333 0 0 0.0833333 -67.175 -212.25)" d="M 6351.34,4547.2 A 76.0399,76.0399 0 1 0 6503.42,4547.2A 76.0399,76.0399 0 1 0 6351.34,4547.2Z " />
<path stroke="none" fill="#a5a5a5" transform="matrix(0.0833333 0 0 0.0833333 -67.175 -212.25)" d="M 6352.66,4545.44 A 72.95,72.95 0 1 0 6498.56,4545.44A 72.95,72.95 0 1 0 6352.66,4545.44Z " />
<path stroke="none" fill="#aeaeae" transform="matrix(0.0833333 0 0 0.0833333 -67.175 -212.25)" d="M 6353.98,4543.67 A 69.8602,69.8602 0 1 0 6493.7,4543.67A 69.8602,69.8602 0 1 0 6353.98,4543.67Z " />
<path stroke="none" fill="#b7b7b7" transform="matrix(0.0833333 0 0 0.0833333 -67.175 -212.25)" d="M 6355.31,4541.9 A 66.7703,66.7703 0 1 0 6488.85,4541.9A 66.7703,66.7703 0 1 0 6355.31,4541.9Z " />
<path stroke="none" fill="#bfbfbf" transform="matrix(0.0833333 0 0 0.0833333 -67.175 -212.25)" d="M 6356.63,4540.13 A 63.6805,63.6805 0 1 0 6483.99,4540.13A 63.6805,63.6805 0 1 0 6356.63,4540.13Z " />
<path stroke="none" fill="#c6c6c6" transform="matrix(0.0833333 0 0 0.0833333 -67.175 -212.25)" d="M 6357.95,4538.37 A 60.5906,60.5906 0 1 0 6479.13,4538.37A 60.5906,60.5906 0 1 0 6357.95,4538.37Z " />
<path stroke="none" fill="#cecece" transform="matrix(0.0833333 0 0 0.0833333 -67.175 -212.25)" d="M 6359.27,4536.6 A 57.5008,57.5008 0 1 0 6474.27,4536.6A 57.5008,57.5008 0 1 0 6359.27,4536.6Z " />
<path stroke="none" fill="#d4d4d4" transform="matrix(0.0833333 0 0 0.0833333 -67.175 -212.25)" d="M 6360.6,4534.83 A 54.4109,54.4109 0 1 0 6469.42,4534.83A 54.4109,54.4109 0 1 0 6360.6,4534.83Z " />
<path stroke="none" fill="#dbdbdb" transform="matrix(0.0833333 0 0 0.0833333 -67.175 -212.25)" d="M 6361.92,4533.06 A 51.3211,51.3211 0 1 0 6464.56,4533.06A 51.3211,51.3211 0 1 0 6361.92,4533.06Z " />
<path stroke="none" fill="#e0e0e0" transform="matrix(0.0833333 0 0 0.0833333 -67.175 -212.25)" d="M 6363.24,4531.3 A 48.2313,48.2313 0 1 0 6459.7,4531.3A 48.2313,48.2313 0 1 0 6363.24,4531.3Z " />
<path stroke="none" fill="#e6e6e6" transform="matrix(0.0833333 0 0 0.0833333 -67.175 -212.25)" d="M 6364.56,4529.53 A 45.1414,45.1414 0 1 0 6454.85,4529.53A 45.1414,45.1414 0 1 0 6364.56,4529.53Z " />
<path stroke="none" fill="#eaeaea" transform="matrix(0.0833333 0 0 0.0833333 -67.175 -212.25)" d="M 6365.88,4527.76 A 42.0516,42.0516 0 1 0 6449.99,4527.76A 42.0516,42.0516 0 1 0 6365.88,4527.76Z " />
<path stroke="none" fill="#efefef" transform="matrix(0.0833333 0 0 0.0833333 -67.175 -212.25)" d="M 6367.21,4525.99 A 38.9617,38.9617 0 1 0 6445.13,4525.99A 38.9617,38.9617 0 1 0 6367.21,4525.99Z " />
<path stroke="none" fill="#f2f2f2" transform="matrix(0.0833333 0 0 0.0833333 -67.175 -212.25)" d="M 6368.53,4524.23 A 35.8719,35.8719 0 1 0 6440.27,4524.23A 35.8719,35.8719 0 1 0 6368.53,4524.23Z " />
<path stroke="none" fill="#f6f6f6" transform="matrix(0.0833333 0 0 0.0833333 -67.175 -212.25)" d="M 6369.85,4522.46 A 32.782,32.782 0 1 0 6435.42,4522.46A 32.782,32.782 0 1 0 6369.85,4522.46Z " />
<path stroke="none" fill="#f8f8f8" transform="matrix(0.0833333 0 0 0.0833333 -67.175 -212.25)" d="M 6371.17,4520.69 A 29.6922,29.6922 0 1 0 6430.56,4520.69A 29.6922,29.6922 0 1 0 6371.17,4520.69Z " />
<path stroke="none" fill="#fbfbfb" transform="matrix(0.0833333 0 0 0.0833333 -67.175 -212.25)" d="M 6372.5,4518.92 A 26.6024,26.6024 0 1 0 6425.7,4518.92A 26.6024,26.6024 0 1 0 6372.5,4518.92Z " />
<path stroke="none" fill="#fcfcfc" transform="matrix(0.0833333 0 0 0.0833333 -67.175 -212.25)" d="M 6373.82,4517.16 A 23.5125,23.5125 0 1 0 6420.84,4517.16A 23.5125,23.5125 0 1 0 6373.82,4517.16Z " />
<path stroke="none" fill="#fefefe" transform="matrix(0.0833333 0 0 0.0833333 -67.175 -212.25)" d="M 6375.14,4515.39 A 20.4227,20.4227 0 1 0 6415.99,4515.39A 20.4227,20.4227 0 1 0 6375.14,4515.39Z " />
<path stroke="none" fill="#fefefe" transform="matrix(0.0833333 0 0 0.0833333 -67.175 -212.25)" d="M 6376.46,4513.62 A 17.3328,17.3328 0 1 0 6411.13,4513.62A 17.3328,17.3328 0 1 0 6376.46,4513.62Z " />
<path stroke="#000000" stroke-width="24" fill="none" transform="matrix(0.0833333 0 0 0.0833333 -67.175 -212.25)" d="M 6335.47,4568.41 A 113.118,113.118 0 1 0 6561.71,4568.41A 113.118,113.118 0 1 0 6335.47,4568.41Z " />
<path stroke="none" fill="#000000" transform="matrix(0.0833333 0 0 0.0833333 -67.175 -212.25)" d="M 4853.57,4190.37 L 3582.57,4190.37 L 3582.57,4166.37 L 4853.57,4166.37 Z " />
<path stroke="none" fill="#000000" transform="matrix(0.0833333 0 0 0.0833333 -67.175 -212.25)" d="M 5060.91,4178.37 C 5060.91,4178.37 4822.81,4238.9 4822.81,4238.9 C 4822.81,4238.9 4852.57,4204.85 4852.57,4178.37 C 4852.57,4151.45 4822.81,4116.84 4822.81,4116.84 C 4822.81,4116.84 5060.91,4178.37 5060.91,4178.37 C 5060.91,4178.37 5060.91,4178.37 5060.91,4178.37 " />
<path stroke="#000000" stroke-width="1" fill="none" transform="matrix(0.0833333 0 0 0.0833333 -67.175 -212.25)" d="M 5060.91,4178.37 C 5060.91,4178.37 4822.81,4238.9 4822.81,4238.9 C 4822.81,4238.9 4852.57,4204.85 4852.57,4178.37 C 4852.57,4151.45 4822.81,4116.84 4822.81,4116.84 C 4822.81,4116.84 5060.91,4178.37 5060.91,4178.37 C 5060.91,4178.37 5060.91,4178.37 5060.91,4178.37 " />
<path stroke="none" fill="#ffffff" transform="matrix(0.0833333 0 0 0.0833333 -67.175 -212.25)" d="M 5135.48,3152.02 A 85.7906,85.7906 0 1 0 5307.06,3152.02A 85.7906,85.7906 0 1 0 5135.48,3152.02Z " />
<path stroke="#000000" stroke-width="24" fill="none" transform="matrix(0.0833333 0 0 0.0833333 -67.175 -212.25)" d="M 5135.48,3152.02 A 85.7906,85.7906 0 1 0 5307.06,3152.02A 85.7906,85.7906 0 1 0 5135.48,3152.02Z " />
<path stroke="none" fill="#ffffff" transform="matrix(0.0833333 0 0 0.0833333 -67.175 -212.25)" d="M 5734.75,2816.01 A 85.7904,85.7904 0 1 0 5906.33,2816.01A 85.7904,85.7904 0 1 0 5734.75,2816.01Z " />
<path stroke="#000000" stroke-width="24" fill="none" transform="matrix(0.0833333 0 0 0.0833333 -67.175 -212.25)" d="M 5734.75,2816.01 A 85.7904,85.7904 0 1 0 5906.33,2816.01A 85.7904,85.7904 0 1 0 5734.75,2816.01Z " />
<path stroke="none" fill="#ffffff" transform="matrix(0.0833333 0 0 0.0833333 -67.175 -212.25)" d="M 6329.35,3152.52 A 85.7912,85.7912 0 1 0 6500.94,3152.52A 85.7912,85.7912 0 1 0 6329.35,3152.52Z " />
<path stroke="#000000" stroke-width="24" fill="none" transform="matrix(0.0833333 0 0 0.0833333 -67.175 -212.25)" d="M 6329.35,3152.52 A 85.7912,85.7912 0 1 0 6500.94,3152.52A 85.7912,85.7912 0 1 0 6329.35,3152.52Z " />
<path stroke="none" fill="#ffffff" transform="matrix(0.0833333 0 0 0.0833333 -67.175 -212.25)" d="M 6356.67,5254.46 A 85.7904,85.7904 0 1 0 6528.26,5254.46A 85.7904,85.7904 0 1 0 6356.67,5254.46Z " />
<path stroke="#000000" stroke-width="24" fill="none" transform="matrix(0.0833333 0 0 0.0833333 -67.175 -212.25)" d="M 6356.67,5254.46 A 85.7904,85.7904 0 1 0 6528.26,5254.46A 85.7904,85.7904 0 1 0 6356.67,5254.46Z " />
<path stroke="none" fill="#ffffff" transform="matrix(0.0833333 0 0 0.0833333 -67.175 -212.25)" d="M 5154.98,5313.21 A 85.7911,85.7911 0 1 0 5326.56,5313.21A 85.7911,85.7911 0 1 0 5154.98,5313.21Z " />
<path stroke="#000000" stroke-width="24" fill="none" transform="matrix(0.0833333 0 0 0.0833333 -67.175 -212.25)" d="M 5154.98,5313.21 A 85.7911,85.7911 0 1 0 5326.56,5313.21A 85.7911,85.7911 0 1 0 5154.98,5313.21Z " />
<path stroke="none" fill="#ffffff" transform="matrix(0.0833333 0 0 0.0833333 -67.175 -212.25)" d="M 880.478,3160.78 A 85.7906,85.7906 0 1 0 1052.06,3160.78A 85.7906,85.7906 0 1 0 880.478,3160.78Z " />
<path stroke="#000000" stroke-width="24" fill="none" transform="matrix(0.0833333 0 0 0.0833333 -67.175 -212.25)" d="M 880.478,3160.78 A 85.7906,85.7906 0 1 0 1052.06,3160.78A 85.7906,85.7906 0 1 0 880.478,3160.78Z " />
<path stroke="none" fill="#ffffff" transform="matrix(0.0833333 0 0 0.0833333 -67.175 -212.25)" d="M 1474.75,2809.77 A 85.7904,85.7904 0 1 0 1646.33,2809.77A 85.7904,85.7904 0 1 0 1474.75,2809.77Z " />
<path stroke="#000000" stroke-width="24" fill="none" transform="matrix(0.0833333 0 0 0.0833333 -67.175 -212.25)" d="M 1474.75,2809.77 A 85.7904,85.7904 0 1 0 1646.33,2809.77A 85.7904,85.7904 0 1 0 1474.75,2809.77Z " />
<text x="0" y="0" stroke="none" fill="#ff8000" transform="matrix(0.0833333 0 0 0.0833333 53.2218 149.491)" font-style="normal" font-weight="bold" font-size="200px" font-family="Times New Roman" >
Co</text>
</svg>
