<?xml version="1.0" standalone="no" ?>
<!DOCTYPE svg PUBLIC "-//W3C//DTD SVG 1.1//EN" "http://www.w3.org/Graphics/SVG/1.1/DTD/svg11.dtd">
<svg width="622px" height="293px" viewBox="0 0 622 293" style="background-color: #ffffff00" xmlns="http://www.w3.org/2000/svg" xmlns:xlink="http://www.w3.org/1999/xlink" version="1.1" >
<path stroke="none" fill="#000000" transform="matrix(0.0833333 0 0 0.0833333 -140.092 -202)" d="M 5464.57,4589.25 L 5452.59,4584.68 L 5450.65,4569.21 L 5694.77,4303.83 L 5712.3,4319.95 L 5464.57,4589.25 Z " />
<path stroke="none" fill="#000000" transform="matrix(0.0833333 0 0 0.0833333 -140.092 -202)" d="M 5193.19,3720.4 L 5214.06,3732.28 L 5188.51,3744.21 L 4999.91,3744.35 L 5013,3720.53 L 5193.19,3720.4 L 5193.19,3720.4 Z " />
<path stroke="none" fill="#000000" transform="matrix(0.0833333 0 0 0.0833333 -140.092 -202)" d="M 4477.1,3744.74 L 4451.11,3732.86 L 4471.65,3720.94 L 4670.8,3720.79 L 4684.89,3744.59 L 4477.1,3744.74 L 4477.1,3744.74 Z " />
<path stroke="none" fill="#000000" transform="matrix(0.0833333 0 0 0.0833333 -140.092 -202)" d="M 4913.33,3720.6 L 4900.23,3744.43 L 4786.3,3744.51 L 4772.21,3720.71 L 4913.33,3720.6 L 4913.33,3720.6 Z " />
<path stroke="none" fill="#000000" transform="matrix(0.0833333 0 0 0.0833333 -140.092 -202)" d="M 4267.26,3110.92 L 4214.09,3127.21 L 4202.02,3120.35 L 4825.43,2769.07 L 4825.47,2782.71 L 4779.79,2822.12 L 4267.26,3110.92 Z " />
<path stroke="none" fill="#000000" transform="matrix(0.0833333 0 0 0.0833333 -140.092 -202)" d="M 4873.2,2822.82 L 4825.47,2782.71 L 4825.43,2769.07 L 5457.33,3119.85 L 5445.53,3126.92 L 5391.68,3110.65 L 4873.2,2822.82 Z " />
<path stroke="none" fill="#000000" transform="matrix(0.0833333 0 0 0.0833333 -140.092 -202)" d="M 5434.59,3188.87 L 5445.53,3126.92 L 5457.33,3119.85 L 5468.22,3818.57 L 5456.39,3823.04 L 5443.55,3763.42 L 5434.59,3188.87 Z " />
<path stroke="none" fill="#000000" transform="matrix(0.0833333 0 0 0.0833333 -140.092 -202)" d="M 5391.55,3846.76 L 5456.39,3823.04 L 5453.77,3838.3 L 4888.6,4164.91 L 4876.13,4156.78 L 4876.11,4148.62 L 4875.74,4148.63 L 4890.22,4136.47 L 5391.55,3846.76 L 5391.55,3846.76 Z " />
<path stroke="none" fill="#000000" transform="matrix(0.0833333 0 0 0.0833333 -140.092 -202)" d="M 4782.37,4134.88 L 4799.16,4148.8 L 4788.81,4148.82 L 4788.82,4157.05 L 4781.49,4161.9 L 4218.62,3835.74 L 4230.37,3828.79 L 4293.15,3851.41 L 4782.37,4134.88 L 4782.37,4134.88 Z " />
<path stroke="none" fill="#000000" transform="matrix(0.0833333 0 0 0.0833333 -140.092 -202)" d="M 4240.89,3769.25 L 4230.37,3828.79 L 4218.62,3835.74 L 4202.02,3120.35 L 4214.09,3127.21 L 4227.55,3194.29 L 4240.89,3769.25 Z " />
<path stroke="none" fill="#000000" transform="matrix(0.0833333 0 0 0.0833333 -140.092 -202)" d="M 4813.66,2817.32 L 4825.47,2782.71 L 4837.47,2816.49 L 4838.16,3066.12 L 4826.28,3077.11 L 4814.35,3066.15 L 4813.66,2817.32 Z " />
<path stroke="none" fill="#000000" transform="matrix(0.0833333 0 0 0.0833333 -140.092 -202)" d="M 5391.68,3110.65 L 5445.53,3126.92 L 5407.19,3135.78 L 5150.26,3115.12 L 5129.61,3089.57 L 5391.68,3110.65 L 5391.68,3110.65 Z " />
<path stroke="none" fill="#000000" transform="matrix(0.0833333 0 0 0.0833333 -140.092 -202)" d="M 4848.23,3090.82 L 4826.28,3077.11 L 4838.16,3066.12 L 5009.55,3079.91 L 5030.2,3105.46 L 4848.23,3090.82 L 4848.23,3090.82 Z " />
<path stroke="none" fill="#000000" transform="matrix(0.0833333 0 0 0.0833333 -140.092 -202)" d="M 4253.04,3135.97 L 4214.09,3127.21 L 4267.26,3110.92 L 4532.1,3089.24 L 4512.28,3114.76 L 4253.04,3135.97 L 4253.04,3135.97 Z " />
<path stroke="none" fill="#000000" transform="matrix(0.0833333 0 0 0.0833333 -140.092 -202)" d="M 4814.35,3066.15 L 4826.28,3077.11 L 4804.72,3090.82 L 4630.33,3105.09 L 4650.15,3079.58 L 4814.35,3066.15 L 4814.35,3066.15 Z " />
<path stroke="none" fill="#000000" transform="matrix(0.0833333 0 0 0.0833333 -140.092 -202)" d="M 4435.84,3726.51 L 4451.11,3732.86 L 4447.82,3747.27 L 4271.94,3823.7 L 4230.37,3828.79 L 4251.9,3806.45 L 4435.84,3726.51 Z " />
<path stroke="none" fill="#000000" transform="matrix(0.0833333 0 0 0.0833333 -140.092 -202)" d="M 5434.33,3802.07 L 5456.39,3823.04 L 5411.59,3818.98 L 5217.77,3746.39 L 5214.06,3732.28 L 5229.47,3725.34 L 5434.33,3802.07 Z " />
<path stroke="none" fill="#000000" transform="matrix(0.0833333 0 0 0.0833333 -140.092 -202)" d="M 5229.47,3725.34 L 5214.06,3732.28 L 5211.75,3705 L 5280.21,3525.95 L 5293.75,3557.22 L 5229.47,3725.34 L 5229.47,3725.34 Z " />
<path stroke="none" fill="#000000" transform="matrix(0.0833333 0 0 0.0833333 -140.092 -202)" d="M 5422.22,3154.55 L 5445.53,3126.92 L 5434.59,3188.87 L 5338.37,3440.52 L 5324.83,3409.25 L 5422.22,3154.55 L 5422.22,3154.55 Z " />
<path stroke="none" fill="#000000" transform="matrix(0.0833333 0 0 0.0833333 -140.092 -202)" d="M 4227.55,3194.29 L 4214.09,3127.21 L 4237.56,3154.53 L 4342.5,3422.66 L 4329.71,3455.32 L 4227.55,3194.29 L 4227.55,3194.29 Z " />
<path stroke="none" fill="#000000" transform="matrix(0.0833333 0 0 0.0833333 -140.092 -202)" d="M 4453.13,3705.35 L 4451.11,3732.86 L 4435.84,3726.51 L 4376.58,3575.08 L 4389.37,3542.42 L 4453.13,3705.35 L 4453.13,3705.35 Z " />
<path stroke="none" fill="#000000" transform="matrix(0.0833333 0 0 0.0833333 -140.092 -202)" d="M 4834.46,3942.34 L 4846.74,3932.33 L 4858.29,3942.36 L 4851.3,4131.79 L 4849.45,4129.22 L 4842.03,4134.55 L 4838.85,4132.48 L 4834.92,4126.55 L 4832.35,4128.25 L 4829.77,4126.57 L 4827.54,4129.99 L 4834.46,3942.34 L 4834.46,3942.34 Z " />
<path stroke="none" fill="#000000" transform="matrix(0.0833333 0 0 0.0833333 -140.092 -202)" d="M 4782.37,4134.88 L 4611.67,3937.11 L 4648.46,3943.29 L 4812.24,4133.05 L 4801.41,4148.72 L 4801.3,4148.8 L 4799.16,4148.8 L 4782.37,4134.88 L 4782.37,4134.88 Z " />
<path stroke="none" fill="#000000" transform="matrix(0.0833333 0 0 0.0833333 -140.092 -202)" d="M 4447.82,3747.27 L 4451.11,3732.86 L 4477.1,3744.74 L 4559.09,3839.75 L 4522.31,3833.57 L 4447.82,3747.27 L 4447.82,3747.27 Z " />
<path stroke="none" fill="#000000" transform="matrix(0.0833333 0 0 0.0833333 -140.092 -202)" d="M 5188.51,3744.21 L 5214.06,3732.28 L 5217.77,3746.39 L 5143.55,3834.78 L 5106.95,3841.34 L 5188.51,3744.21 L 5188.51,3744.21 Z " />
<path stroke="none" fill="#000000" transform="matrix(0.0833333 0 0 0.0833333 -140.092 -202)" d="M 4890.22,4136.47 L 4875.74,4148.63 L 4863.66,4148.65 L 4863.21,4148.36 L 4856.72,4139.33 L 5019.27,3945.75 L 5055.87,3939.19 L 4890.22,4136.47 L 4890.22,4136.47 Z " />
<path stroke="none" fill="#000000" transform="matrix(0.0833333 0 0 0.0833333 -140.092 -202)" d="M 5211.75,3705 L 5214.06,3732.28 L 5193.19,3720.4 L 5099.81,3562.63 L 5113.14,3538.39 L 5211.75,3705 L 5211.75,3705 Z " />
<path stroke="none" fill="#000000" transform="matrix(0.0833333 0 0 0.0833333 -140.092 -202)" d="M 4948.89,3307.63 L 4976.54,3307.61 L 5061.48,3451.12 L 5048.16,3475.36 L 4948.89,3307.63 L 4948.89,3307.63 Z " />
<path stroke="none" fill="#000000" transform="matrix(0.0833333 0 0 0.0833333 -140.092 -202)" d="M 4826.46,3100.78 L 4826.28,3077.11 L 4848.23,3090.82 L 4924.89,3220.34 L 4897.23,3220.36 L 4826.46,3100.78 L 4826.46,3100.78 Z " />
<path stroke="none" fill="#000000" transform="matrix(0.0833333 0 0 0.0833333 -140.092 -202)" d="M 4471.65,3720.94 L 4451.11,3732.86 L 4453.13,3705.35 L 4555.63,3526.2 L 4569.58,3549.76 L 4471.65,3720.94 L 4471.65,3720.94 Z " />
<path stroke="none" fill="#000000" transform="matrix(0.0833333 0 0 0.0833333 -140.092 -202)" d="M 4680.57,3307.82 L 4708.01,3307.8 L 4619.45,3462.61 L 4605.5,3439.04 L 4680.57,3307.82 L 4680.57,3307.82 Z " />
<path stroke="none" fill="#000000" transform="matrix(0.0833333 0 0 0.0833333 -140.092 -202)" d="M 4804.72,3090.82 L 4826.28,3077.11 L 4826.46,3100.78 L 4757.98,3220.46 L 4730.54,3220.48 L 4804.72,3090.82 L 4804.72,3090.82 Z " />
<path stroke="none" fill="#000000" transform="matrix(0.0833333 0 0 0.0833333 -140.092 -202)" d="M 5407.19,3135.78 L 5445.53,3126.92 L 5422.22,3154.55 L 5229.39,3268.69 L 5214.29,3263.78 L 5217.08,3248.3 L 5407.19,3135.78 Z " />
<path stroke="none" fill="#000000" transform="matrix(0.0833333 0 0 0.0833333 -140.092 -202)" d="M 5443.55,3763.42 L 5456.39,3823.04 L 5434.33,3802.07 L 5213.02,3290.81 L 5214.29,3263.78 L 5229.39,3268.69 L 5443.55,3763.42 Z " />
<path stroke="none" fill="#000000" transform="matrix(0.0833333 0 0 0.0833333 -140.092 -202)" d="M 4837.47,2816.49 L 4825.47,2782.71 L 4873.2,2822.82 L 5217.08,3248.3 L 5214.29,3263.78 L 5189.38,3251.9 L 4837.47,2816.49 Z " />
<path stroke="none" fill="#000000" transform="matrix(0.0833333 0 0 0.0833333 -140.092 -202)" d="M 4237.56,3154.53 L 4214.09,3127.21 L 4253.04,3135.97 L 4448.34,3248.83 L 4451.37,3264.34 L 4436.55,3269.52 L 4237.56,3154.53 Z " />
<path stroke="none" fill="#000000" transform="matrix(0.0833333 0 0 0.0833333 -140.092 -202)" d="M 4779.79,2822.12 L 4825.47,2782.71 L 4813.66,2817.32 L 4475.7,3252.41 L 4451.37,3264.34 L 4448.34,3248.83 L 4779.79,2822.12 Z " />
<path stroke="none" fill="#000000" transform="matrix(0.0833333 0 0 0.0833333 -140.092 -202)" d="M 4251.9,3806.45 L 4230.37,3828.79 L 4240.89,3769.25 L 4436.55,3269.52 L 4451.37,3264.34 L 4453.56,3291.41 L 4251.9,3806.45 Z " />
<path stroke="none" fill="#000000" transform="matrix(0.0833333 0 0 0.0833333 -140.092 -202)" d="M 5189.38,3251.9 L 5214.29,3263.78 L 5194.15,3275.7 L 4472.24,3276.23 L 4451.37,3264.34 L 4475.7,3252.41 L 5189.38,3251.9 Z " />
<path stroke="none" fill="#000000" transform="matrix(0.0833333 0 0 0.0833333 -140.092 -202)" d="M 4869.19,3916.22 L 4846.74,3932.33 L 4846.36,3908.32 L 5194.15,3275.7 L 5214.29,3263.78 L 5213.02,3290.81 L 4869.19,3916.22 Z " />
<path stroke="none" fill="#000000" transform="matrix(0.0833333 0 0 0.0833333 -140.092 -202)" d="M 4846.36,3908.32 L 4846.74,3932.33 L 4823.45,3916.35 L 4453.56,3291.41 L 4451.37,3264.34 L 4472.24,3276.23 L 4846.36,3908.32 Z " />
<path stroke="none" fill="#000000" transform="matrix(0.0833333 0 0 0.0833333 -140.092 -202)" d="M 4858.29,3942.36 L 4846.74,3932.33 L 4869.19,3916.22 L 5411.59,3818.98 L 5456.39,3823.04 L 5391.55,3846.76 L 4858.29,3942.36 Z " />
<path stroke="none" fill="#000000" transform="matrix(0.0833333 0 0 0.0833333 -140.092 -202)" d="M 4823.45,3916.35 L 4846.74,3932.33 L 4834.46,3942.34 L 4293.15,3851.41 L 4230.37,3828.79 L 4271.94,3823.7 L 4823.45,3916.35 Z " />
<path stroke="none" fill="#000000" transform="matrix(0.0833333 0 0 0.0833333 -140.092 -202)" d="M 5200.25,5178.16 L 5221.12,5190.05 L 5195.56,5201.97 L 5006.96,5202.11 L 5020.06,5178.29 L 5200.25,5178.16 L 5200.25,5178.16 Z " />
<path stroke="none" fill="#000000" transform="matrix(0.0833333 0 0 0.0833333 -140.092 -202)" d="M 4484.15,5202.5 L 4458.17,5190.62 L 4478.71,5178.7 L 4677.86,5178.55 L 4691.95,5202.35 L 4484.15,5202.5 L 4484.15,5202.5 Z " />
<path stroke="none" fill="#000000" transform="matrix(0.0833333 0 0 0.0833333 -140.092 -202)" d="M 4920.39,5178.37 L 4907.29,5202.19 L 4793.36,5202.27 L 4779.27,5178.47 L 4920.39,5178.37 L 4920.39,5178.37 Z " />
<path stroke="none" fill="#000000" transform="matrix(0.0833333 0 0 0.0833333 -140.092 -202)" d="M 4266.37,4569.33 L 4221.15,4584.98 L 4209.09,4578.68 L 4832.48,4166.23 L 4832.53,4180.47 L 4787.73,4224.39 L 4266.37,4569.33 Z " />
<path stroke="none" fill="#000000" transform="matrix(0.0833333 0 0 0.0833333 -140.092 -202)" d="M 4879.32,4225.19 L 4832.53,4180.47 L 4832.48,4166.23 L 5450.65,4569.21 L 5452.59,4584.68 L 5406.82,4569.06 L 4879.32,4225.19 Z " />
<path stroke="none" fill="#000000" transform="matrix(0.0833333 0 0 0.0833333 -140.092 -202)" d="M 5441.65,4646.63 L 5452.59,4584.68 L 5464.57,4589.25 L 5475.46,5287.61 L 5463.45,5280.8 L 5450.61,5221.18 L 5441.65,4646.63 Z " />
<path stroke="none" fill="#000000" transform="matrix(0.0833333 0 0 0.0833333 -140.092 -202)" d="M 5398.61,5304.52 L 5463.45,5280.8 L 5475.46,5287.61 L 4844.64,5652.16 L 4844.65,5638.4 L 4897.28,5594.24 L 5398.61,5304.52 Z " />
<path stroke="none" fill="#000000" transform="matrix(0.0833333 0 0 0.0833333 -140.092 -202)" d="M 4789.43,5592.65 L 4844.65,5638.4 L 4844.64,5652.16 L 4225.68,5293.5 L 4237.43,5286.55 L 4300.21,5309.17 L 4789.43,5592.65 Z " />
<path stroke="none" fill="#000000" transform="matrix(0.0833333 0 0 0.0833333 -140.092 -202)" d="M 4247.95,5227.01 L 4237.43,5286.55 L 4225.68,5293.5 L 4209.09,4578.68 L 4221.15,4584.98 L 4234.61,4652.05 L 4247.95,5227.01 Z " />
<path stroke="none" fill="#000000" transform="matrix(0.0833333 0 0 0.0833333 -140.092 -202)" d="M 4820.71,4218.53 L 4832.53,4180.47 L 4844.52,4217.56 L 4845.22,4523.89 L 4833.34,4534.88 L 4821.41,4523.91 L 4820.71,4218.53 Z " />
<path stroke="none" fill="#000000" transform="matrix(0.0833333 0 0 0.0833333 -140.092 -202)" d="M 5406.82,4569.06 L 5452.59,4584.68 L 5414.25,4593.54 L 5168.94,4573.81 L 5150.72,4548.46 L 5406.82,4569.06 L 5406.82,4569.06 Z " />
<path stroke="none" fill="#000000" transform="matrix(0.0833333 0 0 0.0833333 -140.092 -202)" d="M 4855.29,4548.58 L 4833.34,4534.88 L 4845.22,4523.89 L 5036.62,4539.28 L 5054.84,4564.63 L 4855.29,4548.58 L 4855.29,4548.58 Z " />
<path stroke="none" fill="#000000" transform="matrix(0.0833333 0 0 0.0833333 -140.092 -202)" d="M 4260.09,4593.73 L 4221.15,4584.98 L 4266.37,4569.33 L 4525.54,4548.12 L 4508.05,4573.44 L 4260.09,4593.73 L 4260.09,4593.73 Z " />
<path stroke="none" fill="#000000" transform="matrix(0.0833333 0 0 0.0833333 -140.092 -202)" d="M 4821.41,4523.91 L 4833.34,4534.88 L 4811.78,4548.59 L 4620.52,4564.24 L 4638.01,4538.92 L 4821.41,4523.91 L 4821.41,4523.91 Z " />
<path stroke="none" fill="#000000" transform="matrix(0.0833333 0 0 0.0833333 -140.092 -202)" d="M 4442.9,5184.27 L 4458.17,5190.62 L 4454.88,5205.03 L 4279,5281.46 L 4237.43,5286.55 L 4258.96,5264.21 L 4442.9,5184.27 Z " />
<path stroke="none" fill="#000000" transform="matrix(0.0833333 0 0 0.0833333 -140.092 -202)" d="M 5441.39,5259.83 L 5463.45,5280.8 L 5418.65,5276.74 L 5224.83,5204.15 L 5221.12,5190.05 L 5236.52,5183.1 L 5441.39,5259.83 Z " />
<path stroke="none" fill="#000000" transform="matrix(0.0833333 0 0 0.0833333 -140.092 -202)" d="M 5236.52,5183.1 L 5221.12,5190.05 L 5218.81,5162.76 L 5287.27,4983.71 L 5300.81,5014.98 L 5236.52,5183.1 L 5236.52,5183.1 Z " />
<path stroke="none" fill="#000000" transform="matrix(0.0833333 0 0 0.0833333 -140.092 -202)" d="M 5429.28,4612.31 L 5452.59,4584.68 L 5441.65,4646.63 L 5345.43,4898.29 L 5331.89,4867.02 L 5429.28,4612.31 L 5429.28,4612.31 Z " />
<path stroke="none" fill="#000000" transform="matrix(0.0833333 0 0 0.0833333 -140.092 -202)" d="M 4234.61,4652.05 L 4221.15,4584.98 L 4244.62,4612.29 L 4349.56,4880.43 L 4336.77,4913.09 L 4234.61,4652.05 L 4234.61,4652.05 Z " />
<path stroke="none" fill="#000000" transform="matrix(0.0833333 0 0 0.0833333 -140.092 -202)" d="M 4460.19,5163.11 L 4458.17,5190.62 L 4442.9,5184.27 L 4383.64,5032.85 L 4396.43,5000.19 L 4460.19,5163.11 L 4460.19,5163.11 Z " />
<path stroke="none" fill="#000000" transform="matrix(0.0833333 0 0 0.0833333 -140.092 -202)" d="M 4857.82,5604.2 L 4844.65,5638.4 L 4833.86,5607.69 L 4841.52,5400.11 L 4853.8,5390.1 L 4865.34,5400.12 L 4857.82,5604.2 Z " />
<path stroke="none" fill="#000000" transform="matrix(0.0833333 0 0 0.0833333 -140.092 -202)" d="M 4833.86,5607.69 L 4844.65,5638.4 L 4789.43,5592.65 L 4618.73,5394.87 L 4655.52,5401.05 L 4833.86,5607.69 L 4833.86,5607.69 Z " />
<path stroke="none" fill="#000000" transform="matrix(0.0833333 0 0 0.0833333 -140.092 -202)" d="M 4454.88,5205.03 L 4458.17,5190.62 L 4484.15,5202.5 L 4566.15,5297.51 L 4529.37,5291.33 L 4454.88,5205.03 L 4454.88,5205.03 Z " />
<path stroke="none" fill="#000000" transform="matrix(0.0833333 0 0 0.0833333 -140.092 -202)" d="M 5195.56,5201.97 L 5221.12,5190.05 L 5224.83,5204.15 L 5150.61,5292.54 L 5114.01,5299.1 L 5195.56,5201.97 L 5195.56,5201.97 Z " />
<path stroke="none" fill="#000000" transform="matrix(0.0833333 0 0 0.0833333 -140.092 -202)" d="M 4897.28,5594.24 L 4844.65,5638.4 L 4857.82,5604.2 L 5026.33,5403.52 L 5062.93,5396.95 L 4897.28,5594.24 L 4897.28,5594.24 Z " />
<path stroke="none" fill="#000000" transform="matrix(0.0833333 0 0 0.0833333 -140.092 -202)" d="M 5218.81,5162.76 L 5221.12,5190.05 L 5200.25,5178.16 L 5106.87,5020.39 L 5120.2,4996.15 L 5218.81,5162.76 L 5218.81,5162.76 Z " />
<path stroke="none" fill="#000000" transform="matrix(0.0833333 0 0 0.0833333 -140.092 -202)" d="M 4833.52,4558.54 L 4833.34,4534.88 L 4855.29,4548.58 L 4931.95,4678.1 L 4904.29,4678.12 L 4833.52,4558.54 L 4833.52,4558.54 Z " />
<path stroke="none" fill="#000000" transform="matrix(0.0833333 0 0 0.0833333 -140.092 -202)" d="M 5068.54,4908.88 L 5055.22,4933.12 L 4955.94,4765.39 L 4983.6,4765.37 L 5068.54,4908.88 L 5068.54,4908.88 Z " />
<path stroke="none" fill="#000000" transform="matrix(0.0833333 0 0 0.0833333 -140.092 -202)" d="M 4478.71,5178.7 L 4458.17,5190.62 L 4460.19,5163.11 L 4562.69,4983.96 L 4576.64,5007.53 L 4478.71,5178.7 L 4478.71,5178.7 Z " />
<path stroke="none" fill="#000000" transform="matrix(0.0833333 0 0 0.0833333 -140.092 -202)" d="M 4811.78,4548.59 L 4833.34,4534.88 L 4833.52,4558.54 L 4765.04,4678.22 L 4737.6,4678.24 L 4811.78,4548.59 L 4811.78,4548.59 Z " />
<path stroke="none" fill="#000000" transform="matrix(0.0833333 0 0 0.0833333 -140.092 -202)" d="M 4626.5,4920.37 L 4612.56,4896.8 L 4687.63,4765.59 L 4715.07,4765.57 L 4626.5,4920.37 L 4626.5,4920.37 Z " />
<path stroke="none" fill="#000000" transform="matrix(0.0833333 0 0 0.0833333 -140.092 -202)" d="M 5414.25,4593.54 L 5452.59,4584.68 L 5429.28,4612.31 L 5236.44,4726.45 L 5221.35,4721.55 L 5224.66,4705.75 L 5414.25,4593.54 Z " />
<path stroke="none" fill="#000000" transform="matrix(0.0833333 0 0 0.0833333 -140.092 -202)" d="M 5450.61,5221.18 L 5463.45,5280.8 L 5441.39,5259.83 L 5220.08,4748.57 L 5221.35,4721.55 L 5236.44,4726.45 L 5450.61,5221.18 Z " />
<path stroke="none" fill="#000000" transform="matrix(0.0833333 0 0 0.0833333 -140.092 -202)" d="M 4844.52,4217.56 L 4832.53,4180.47 L 4879.32,4225.19 L 5224.66,4705.75 L 5221.35,4721.55 L 5198.15,4709.66 L 4844.52,4217.56 Z " />
<path stroke="none" fill="#000000" transform="matrix(0.0833333 0 0 0.0833333 -140.092 -202)" d="M 4244.62,4612.29 L 4221.15,4584.98 L 4260.09,4593.73 L 4454.87,4706.3 L 4458.43,4722.1 L 4443.61,4727.29 L 4244.62,4612.29 Z " />
<path stroke="none" fill="#000000" transform="matrix(0.0833333 0 0 0.0833333 -140.092 -202)" d="M 4787.73,4224.39 L 4832.53,4180.47 L 4820.71,4218.53 L 4481.13,4710.18 L 4458.43,4722.1 L 4454.87,4706.3 L 4787.73,4224.39 Z " />
<path stroke="none" fill="#000000" transform="matrix(0.0833333 0 0 0.0833333 -140.092 -202)" d="M 4258.96,5264.21 L 4237.43,5286.55 L 4247.95,5227.01 L 4443.61,4727.29 L 4458.43,4722.1 L 4460.61,4749.17 L 4258.96,5264.21 Z " />
<path stroke="none" fill="#000000" transform="matrix(0.0833333 0 0 0.0833333 -140.092 -202)" d="M 5198.15,4709.66 L 5221.35,4721.55 L 5201.21,4733.47 L 4479.3,4733.99 L 4458.43,4722.1 L 4481.13,4710.18 L 5198.15,4709.66 Z " />
<path stroke="none" fill="#000000" transform="matrix(0.0833333 0 0 0.0833333 -140.092 -202)" d="M 4876.25,5373.98 L 4853.8,5390.1 L 4853.42,5366.08 L 5201.21,4733.47 L 5221.35,4721.55 L 5220.08,4748.57 L 4876.25,5373.98 Z " />
<path stroke="none" fill="#000000" transform="matrix(0.0833333 0 0 0.0833333 -140.092 -202)" d="M 4853.42,5366.08 L 4853.8,5390.1 L 4830.5,5374.11 L 4460.61,4749.17 L 4458.43,4722.1 L 4479.3,4733.99 L 4853.42,5366.08 Z " />
<path stroke="none" fill="#000000" transform="matrix(0.0833333 0 0 0.0833333 -140.092 -202)" d="M 4865.34,5400.12 L 4853.8,5390.1 L 4876.25,5373.98 L 5418.65,5276.74 L 5463.45,5280.8 L 5398.61,5304.52 L 4865.34,5400.12 Z " />
<path stroke="none" fill="#000000" transform="matrix(0.0833333 0 0 0.0833333 -140.092 -202)" d="M 4830.5,5374.11 L 4853.8,5390.1 L 4841.52,5400.11 L 4300.21,5309.17 L 4237.43,5286.55 L 4279,5281.46 L 4830.5,5374.11 Z " />
<path stroke="none" fill="#ffffff" transform="matrix(0.0833333 0 0 0.0833333 -140.092 -202)" d="M 4750.81,5385.78 A 85.7914,85.7914 0 1 0 4922.39,5385.78A 85.7914,85.7914 0 1 0 4750.81,5385.78Z " />
<path stroke="#000000" stroke-width="24" fill="none" transform="matrix(0.0833333 0 0 0.0833333 -140.092 -202)" d="M 4750.81,5385.78 A 85.7914,85.7914 0 1 0 4922.39,5385.78A 85.7914,85.7914 0 1 0 4750.81,5385.78Z " />
<path stroke="none" fill="#ffffff" transform="matrix(0.0833333 0 0 0.0833333 -140.092 -202)" d="M 4749.78,5654.3 A 85.7904,85.7904 0 1 0 4921.36,5654.3A 85.7904,85.7904 0 1 0 4749.78,5654.3Z " />
<path stroke="#000000" stroke-width="24" fill="none" transform="matrix(0.0833333 0 0 0.0833333 -140.092 -202)" d="M 4749.78,5654.3 A 85.7904,85.7904 0 1 0 4921.36,5654.3A 85.7904,85.7904 0 1 0 4749.78,5654.3Z " />
<path stroke="none" fill="#ffffff" transform="matrix(0.0833333 0 0 0.0833333 -140.092 -202)" d="M 5135.56,4721.55 A 85.7914,85.7914 0 1 0 5307.14,4721.55A 85.7914,85.7914 0 1 0 5135.56,4721.55Z " />
<path stroke="#000000" stroke-width="24" fill="none" transform="matrix(0.0833333 0 0 0.0833333 -140.092 -202)" d="M 5135.56,4721.55 A 85.7914,85.7914 0 1 0 5307.14,4721.55A 85.7914,85.7914 0 1 0 5135.56,4721.55Z " />
<path stroke="none" fill="#ffffff" transform="matrix(0.0833333 0 0 0.0833333 -140.092 -202)" d="M 4158.98,5332.28 A 85.7911,85.7911 0 1 0 4330.56,5332.28A 85.7911,85.7911 0 1 0 4158.98,5332.28Z " />
<path stroke="#000000" stroke-width="24" fill="none" transform="matrix(0.0833333 0 0 0.0833333 -140.092 -202)" d="M 4158.98,5332.28 A 85.7911,85.7911 0 1 0 4330.56,5332.28A 85.7911,85.7911 0 1 0 4158.98,5332.28Z " />
<path stroke="none" fill="#ffffff" transform="matrix(0.0833333 0 0 0.0833333 -140.092 -202)" d="M 5360.67,5273.53 A 85.7904,85.7904 0 1 0 5532.26,5273.53A 85.7904,85.7904 0 1 0 5360.67,5273.53Z " />
<path stroke="#000000" stroke-width="24" fill="none" transform="matrix(0.0833333 0 0 0.0833333 -140.092 -202)" d="M 5360.67,5273.53 A 85.7904,85.7904 0 1 0 5532.26,5273.53A 85.7904,85.7904 0 1 0 5360.67,5273.53Z " />
<path stroke="none" fill="#ffffff" transform="matrix(0.0833333 0 0 0.0833333 -140.092 -202)" d="M 4745.65,4567.55 A 85.7899,85.7899 0 1 0 4917.23,4567.55A 85.7899,85.7899 0 1 0 4745.65,4567.55Z " />
<path stroke="#000000" stroke-width="24" fill="none" transform="matrix(0.0833333 0 0 0.0833333 -140.092 -202)" d="M 4745.65,4567.55 A 85.7899,85.7899 0 1 0 4917.23,4567.55A 85.7899,85.7899 0 1 0 4745.65,4567.55Z " />
<path stroke="none" fill="#ffffff" transform="matrix(0.0833333 0 0 0.0833333 -140.092 -202)" d="M 5109.56,5179.91 A 85.7904,85.7904 0 1 0 5281.14,5179.91A 85.7904,85.7904 0 1 0 5109.56,5179.91Z " />
<path stroke="#000000" stroke-width="24" fill="none" transform="matrix(0.0833333 0 0 0.0833333 -140.092 -202)" d="M 5109.56,5179.91 A 85.7904,85.7904 0 1 0 5281.14,5179.91A 85.7904,85.7904 0 1 0 5109.56,5179.91Z " />
<path stroke="none" fill="#ffffff" transform="matrix(0.0833333 0 0 0.0833333 -140.092 -202)" d="M 4368.53,5198.53 A 85.7903,85.7903 0 1 0 4540.11,5198.53A 85.7903,85.7903 0 1 0 4368.53,5198.53Z " />
<path stroke="#000000" stroke-width="24" fill="none" transform="matrix(0.0833333 0 0 0.0833333 -140.092 -202)" d="M 4368.53,5198.53 A 85.7903,85.7903 0 1 0 4540.11,5198.53A 85.7903,85.7903 0 1 0 4368.53,5198.53Z " />
<path stroke="none" fill="#ffffff" transform="matrix(0.0833333 0 0 0.0833333 -140.092 -202)" d="M 4766.76,3923.93 A 85.7911,85.7911 0 1 0 4938.34,3923.93A 85.7911,85.7911 0 1 0 4766.76,3923.93Z " />
<path stroke="#000000" stroke-width="24" fill="none" transform="matrix(0.0833333 0 0 0.0833333 -140.092 -202)" d="M 4766.76,3923.93 A 85.7911,85.7911 0 1 0 4938.34,3923.93A 85.7911,85.7911 0 1 0 4766.76,3923.93Z " />
<path stroke="none" fill="#ffffff" transform="matrix(0.0833333 0 0 0.0833333 -140.092 -202)" d="M 4663.64,4284.27 A 164.87,164.87 0 1 0 4993.38,4284.27A 164.87,164.87 0 1 0 4663.64,4284.27Z " />
<path stroke="#000000" stroke-width="24" fill="none" transform="matrix(0.0833333 0 0 0.0833333 -140.092 -202)" d="M 4663.64,4284.27 A 164.87,164.87 0 1 0 4993.38,4284.27A 164.87,164.87 0 1 0 4663.64,4284.27Z " />
<path stroke="none" fill="#ffffff" transform="matrix(0.0833333 0 0 0.0833333 -140.092 -202)" d="M 5114.69,3267.17 A 85.7909,85.7909 0 1 0 5286.28,3267.17A 85.7909,85.7909 0 1 0 5114.69,3267.17Z " />
<path stroke="#000000" stroke-width="24" fill="none" transform="matrix(0.0833333 0 0 0.0833333 -140.092 -202)" d="M 5114.69,3267.17 A 85.7909,85.7909 0 1 0 5286.28,3267.17A 85.7909,85.7909 0 1 0 5114.69,3267.17Z " />
<path stroke="none" fill="#ffffff" transform="matrix(0.0833333 0 0 0.0833333 -140.092 -202)" d="M 4372.08,3267.73 A 85.7907,85.7907 0 1 0 4543.67,3267.73A 85.7907,85.7907 0 1 0 4372.08,3267.73Z " />
<path stroke="#000000" stroke-width="24" fill="none" transform="matrix(0.0833333 0 0 0.0833333 -140.092 -202)" d="M 4372.08,3267.73 A 85.7907,85.7907 0 1 0 4543.67,3267.73A 85.7907,85.7907 0 1 0 4372.08,3267.73Z " />
<path stroke="none" fill="#ffffff" transform="matrix(0.0833333 0 0 0.0833333 -140.092 -202)" d="M 4738.75,2835.08 A 85.7904,85.7904 0 1 0 4910.33,2835.08A 85.7904,85.7904 0 1 0 4738.75,2835.08Z " />
<path stroke="#000000" stroke-width="24" fill="none" transform="matrix(0.0833333 0 0 0.0833333 -140.092 -202)" d="M 4738.75,2835.08 A 85.7904,85.7904 0 1 0 4910.33,2835.08A 85.7904,85.7904 0 1 0 4738.75,2835.08Z " />
<path stroke="none" fill="#ffffff" transform="matrix(0.0833333 0 0 0.0833333 -140.092 -202)" d="M 4139.48,3171.09 A 85.7906,85.7906 0 1 0 4311.06,3171.09A 85.7906,85.7906 0 1 0 4139.48,3171.09Z " />
<path stroke="#000000" stroke-width="24" fill="none" transform="matrix(0.0833333 0 0 0.0833333 -140.092 -202)" d="M 4139.48,3171.09 A 85.7906,85.7906 0 1 0 4311.06,3171.09A 85.7906,85.7906 0 1 0 4139.48,3171.09Z " />
<path stroke="none" fill="#ffffff" transform="matrix(0.0833333 0 0 0.0833333 -140.092 -202)" d="M 5333.35,3171.59 A 85.7912,85.7912 0 1 0 5504.94,3171.59A 85.7912,85.7912 0 1 0 5333.35,3171.59Z " />
<path stroke="#000000" stroke-width="24" fill="none" transform="matrix(0.0833333 0 0 0.0833333 -140.092 -202)" d="M 5333.35,3171.59 A 85.7912,85.7912 0 1 0 5504.94,3171.59A 85.7912,85.7912 0 1 0 5333.35,3171.59Z " />
<path stroke="none" fill="#000000" transform="matrix(0.0833333 0 0 0.0833333 -140.092 -202)" d="M 4345.45,3741.81 A 98.7924,98.7924 0 1 0 4543.04,3741.81A 98.7924,98.7924 0 1 0 4345.45,3741.81Z " />
<path stroke="none" fill="#000000" transform="matrix(0.0833333 0 0 0.0833333 -140.092 -202)" d="M 4129.51,3820.3 A 98.7924,98.7924 0 1 0 4327.1,3820.3A 98.7924,98.7924 0 1 0 4129.51,3820.3Z " />
<path stroke="none" fill="#000000" transform="matrix(0.0833333 0 0 0.0833333 -140.092 -202)" d="M 4122.35,4587.78 A 98.7924,98.7924 0 1 0 4319.94,4587.78A 98.7924,98.7924 0 1 0 4122.35,4587.78Z " />
<path stroke="#000000" stroke-width="24" fill="none" transform="matrix(0.0833333 0 0 0.0833333 -140.092 -202)" d="M 4617.54,3169.64 " />
<path stroke="none" fill="#ffffff" transform="matrix(0.0833333 0 0 0.0833333 -140.092 -202)" d="M 4732.5,3085.44 A 85.7908,85.7908 0 1 0 4904.08,3085.44A 85.7908,85.7908 0 1 0 4732.5,3085.44Z " />
<path stroke="#000000" stroke-width="24" fill="none" transform="matrix(0.0833333 0 0 0.0833333 -140.092 -202)" d="M 4732.5,3085.44 A 85.7908,85.7908 0 1 0 4904.08,3085.44A 85.7908,85.7908 0 1 0 4732.5,3085.44Z " />
<path stroke="none" fill="#ffffff" transform="matrix(0.0833333 0 0 0.0833333 -140.092 -202)" d="M 5102.5,3722.15 A 85.7906,85.7906 0 1 0 5274.08,3722.15A 85.7906,85.7906 0 1 0 5102.5,3722.15Z " />
<path stroke="#000000" stroke-width="24" fill="none" transform="matrix(0.0833333 0 0 0.0833333 -140.092 -202)" d="M 5102.5,3722.15 A 85.7906,85.7906 0 1 0 5274.08,3722.15A 85.7906,85.7906 0 1 0 5102.5,3722.15Z " />
<path stroke="none" fill="#000000" transform="matrix(0.0833333 0 0 0.0833333 -140.092 -202)" d="M 4359.63,4724.9 A 98.793,98.793 0 1 0 4557.22,4724.9A 98.793,98.793 0 1 0 4359.63,4724.9Z " />
<text x="0" y="0" stroke="none" fill="#ff8000" transform="matrix(0.0833333 0 0 0.0833333 252.305 160.83)" font-style="normal" font-weight="bold" font-size="200px" font-family="Times New Roman" >
Co</text>
<text x="0" y="0" stroke="none" fill="#000000" transform="matrix(0.0833333 0 0 0.0833333 327.416 155.766)" font-style="normal" font-weight="normal" font-size="200px" font-family="Times New Roman" >
NH</text>
<text x="0" y="0" stroke="none" fill="#000000" transform="matrix(0.0833333 0 0 0.0833333 351.489 159.516)" font-style="normal" font-weight="normal" font-size="150px" font-family="Times New Roman" >
2</text>
<path stroke="none" fill="#000000" transform="matrix(0.0833333 0 0 0.0833333 -140.092 -202)" d="M 5716.26,4108.73 L 5698.16,4124.2 L 5453.77,3838.3 L 5456.39,3823.04 L 5468.22,3818.57 L 5716.26,4108.73 Z " />
<path stroke="none" fill="#000000" transform="matrix(0.0833333 0 0 0.0833333 -140.092 -202)" d="M 5318.5,3812.42 A 113.118,113.118 0 1 0 5544.74,3812.42A 113.118,113.118 0 1 0 5318.5,3812.42Z " />
<path stroke="none" fill="#0f0f0f" transform="matrix(0.0833333 0 0 0.0833333 -140.092 -202)" d="M 5319.82,3810.65 A 110.028,110.028 0 1 0 5539.88,3810.65A 110.028,110.028 0 1 0 5319.82,3810.65Z " />
<path stroke="none" fill="#1e1e1e" transform="matrix(0.0833333 0 0 0.0833333 -140.092 -202)" d="M 5321.15,3808.88 A 106.938,106.938 0 1 0 5535.02,3808.88A 106.938,106.938 0 1 0 5321.15,3808.88Z " />
<path stroke="none" fill="#2d2d2d" transform="matrix(0.0833333 0 0 0.0833333 -140.092 -202)" d="M 5322.47,3807.12 A 103.848,103.848 0 1 0 5530.17,3807.12A 103.848,103.848 0 1 0 5322.47,3807.12Z " />
<path stroke="none" fill="#3b3b3b" transform="matrix(0.0833333 0 0 0.0833333 -140.092 -202)" d="M 5323.79,3805.35 A 100.759,100.759 0 1 0 5525.31,3805.35A 100.759,100.759 0 1 0 5323.79,3805.35Z " />
<path stroke="none" fill="#494949" transform="matrix(0.0833333 0 0 0.0833333 -140.092 -202)" d="M 5325.11,3803.58 A 97.6688,97.6688 0 1 0 5520.45,3803.58A 97.6688,97.6688 0 1 0 5325.11,3803.58Z " />
<path stroke="none" fill="#565656" transform="matrix(0.0833333 0 0 0.0833333 -140.092 -202)" d="M 5326.44,3801.81 A 94.5789,94.5789 0 1 0 5515.59,3801.81A 94.5789,94.5789 0 1 0 5326.44,3801.81Z " />
<path stroke="none" fill="#636363" transform="matrix(0.0833333 0 0 0.0833333 -140.092 -202)" d="M 5327.76,3800.05 A 91.4891,91.4891 0 1 0 5510.74,3800.05A 91.4891,91.4891 0 1 0 5327.76,3800.05Z " />
<path stroke="none" fill="#6f6f6f" transform="matrix(0.0833333 0 0 0.0833333 -140.092 -202)" d="M 5329.08,3798.28 A 88.3992,88.3992 0 1 0 5505.88,3798.28A 88.3992,88.3992 0 1 0 5329.08,3798.28Z " />
<path stroke="none" fill="#7b7b7b" transform="matrix(0.0833333 0 0 0.0833333 -140.092 -202)" d="M 5330.4,3796.51 A 85.3094,85.3094 0 1 0 5501.02,3796.51A 85.3094,85.3094 0 1 0 5330.4,3796.51Z " />
<path stroke="none" fill="#868686" transform="matrix(0.0833333 0 0 0.0833333 -140.092 -202)" d="M 5331.73,3794.74 A 82.2195,82.2195 0 1 0 5496.16,3794.74A 82.2195,82.2195 0 1 0 5331.73,3794.74Z " />
<path stroke="none" fill="#919191" transform="matrix(0.0833333 0 0 0.0833333 -140.092 -202)" d="M 5333.05,3792.98 A 79.1297,79.1297 0 1 0 5491.31,3792.98A 79.1297,79.1297 0 1 0 5333.05,3792.98Z " />
<path stroke="none" fill="#9b9b9b" transform="matrix(0.0833333 0 0 0.0833333 -140.092 -202)" d="M 5334.37,3791.21 A 76.0399,76.0399 0 1 0 5486.45,3791.21A 76.0399,76.0399 0 1 0 5334.37,3791.21Z " />
<path stroke="none" fill="#a5a5a5" transform="matrix(0.0833333 0 0 0.0833333 -140.092 -202)" d="M 5335.69,3789.44 A 72.95,72.95 0 1 0 5481.59,3789.44A 72.95,72.95 0 1 0 5335.69,3789.44Z " />
<path stroke="none" fill="#aeaeae" transform="matrix(0.0833333 0 0 0.0833333 -140.092 -202)" d="M 5337.01,3787.67 A 69.8602,69.8602 0 1 0 5476.74,3787.67A 69.8602,69.8602 0 1 0 5337.01,3787.67Z " />
<path stroke="none" fill="#b7b7b7" transform="matrix(0.0833333 0 0 0.0833333 -140.092 -202)" d="M 5338.34,3785.91 A 66.7703,66.7703 0 1 0 5471.88,3785.91A 66.7703,66.7703 0 1 0 5338.34,3785.91Z " />
<path stroke="none" fill="#bfbfbf" transform="matrix(0.0833333 0 0 0.0833333 -140.092 -202)" d="M 5339.66,3784.14 A 63.6805,63.6805 0 1 0 5467.02,3784.14A 63.6805,63.6805 0 1 0 5339.66,3784.14Z " />
<path stroke="none" fill="#c6c6c6" transform="matrix(0.0833333 0 0 0.0833333 -140.092 -202)" d="M 5340.98,3782.37 A 60.5906,60.5906 0 1 0 5462.16,3782.37A 60.5906,60.5906 0 1 0 5340.98,3782.37Z " />
<path stroke="none" fill="#cecece" transform="matrix(0.0833333 0 0 0.0833333 -140.092 -202)" d="M 5342.3,3780.6 A 57.5008,57.5008 0 1 0 5457.31,3780.6A 57.5008,57.5008 0 1 0 5342.3,3780.6Z " />
<path stroke="none" fill="#d4d4d4" transform="matrix(0.0833333 0 0 0.0833333 -140.092 -202)" d="M 5343.63,3778.84 A 54.4109,54.4109 0 1 0 5452.45,3778.84A 54.4109,54.4109 0 1 0 5343.63,3778.84Z " />
<path stroke="none" fill="#dbdbdb" transform="matrix(0.0833333 0 0 0.0833333 -140.092 -202)" d="M 5344.95,3777.07 A 51.3211,51.3211 0 1 0 5447.59,3777.07A 51.3211,51.3211 0 1 0 5344.95,3777.07Z " />
<path stroke="none" fill="#e0e0e0" transform="matrix(0.0833333 0 0 0.0833333 -140.092 -202)" d="M 5346.27,3775.3 A 48.2313,48.2313 0 1 0 5442.73,3775.3A 48.2313,48.2313 0 1 0 5346.27,3775.3Z " />
<path stroke="none" fill="#e6e6e6" transform="matrix(0.0833333 0 0 0.0833333 -140.092 -202)" d="M 5347.59,3773.53 A 45.1414,45.1414 0 1 0 5437.88,3773.53A 45.1414,45.1414 0 1 0 5347.59,3773.53Z " />
<path stroke="none" fill="#eaeaea" transform="matrix(0.0833333 0 0 0.0833333 -140.092 -202)" d="M 5348.92,3771.77 A 42.0516,42.0516 0 1 0 5433.02,3771.77A 42.0516,42.0516 0 1 0 5348.92,3771.77Z " />
<path stroke="none" fill="#efefef" transform="matrix(0.0833333 0 0 0.0833333 -140.092 -202)" d="M 5350.24,3770 A 38.9617,38.9617 0 1 0 5428.16,3770A 38.9617,38.9617 0 1 0 5350.24,3770Z " />
<path stroke="none" fill="#f2f2f2" transform="matrix(0.0833333 0 0 0.0833333 -140.092 -202)" d="M 5351.56,3768.23 A 35.8719,35.8719 0 1 0 5423.3,3768.23A 35.8719,35.8719 0 1 0 5351.56,3768.23Z " />
<path stroke="none" fill="#f6f6f6" transform="matrix(0.0833333 0 0 0.0833333 -140.092 -202)" d="M 5352.88,3766.46 A 32.782,32.782 0 1 0 5418.45,3766.46A 32.782,32.782 0 1 0 5352.88,3766.46Z " />
<path stroke="none" fill="#f8f8f8" transform="matrix(0.0833333 0 0 0.0833333 -140.092 -202)" d="M 5354.21,3764.7 A 29.6922,29.6922 0 1 0 5413.59,3764.7A 29.6922,29.6922 0 1 0 5354.21,3764.7Z " />
<path stroke="none" fill="#fbfbfb" transform="matrix(0.0833333 0 0 0.0833333 -140.092 -202)" d="M 5355.53,3762.93 A 26.6024,26.6024 0 1 0 5408.73,3762.93A 26.6024,26.6024 0 1 0 5355.53,3762.93Z " />
<path stroke="none" fill="#fcfcfc" transform="matrix(0.0833333 0 0 0.0833333 -140.092 -202)" d="M 5356.85,3761.16 A 23.5125,23.5125 0 1 0 5403.88,3761.16A 23.5125,23.5125 0 1 0 5356.85,3761.16Z " />
<path stroke="none" fill="#fefefe" transform="matrix(0.0833333 0 0 0.0833333 -140.092 -202)" d="M 5358.17,3759.4 A 20.4227,20.4227 0 1 0 5399.02,3759.4A 20.4227,20.4227 0 1 0 5358.17,3759.4Z " />
<path stroke="none" fill="#fefefe" transform="matrix(0.0833333 0 0 0.0833333 -140.092 -202)" d="M 5359.5,3757.63 A 17.3328,17.3328 0 1 0 5394.16,3757.63A 17.3328,17.3328 0 1 0 5359.5,3757.63Z " />
<path stroke="#000000" stroke-width="24" fill="none" transform="matrix(0.0833333 0 0 0.0833333 -140.092 -202)" d="M 5318.5,3812.42 A 113.118,113.118 0 1 0 5544.74,3812.42A 113.118,113.118 0 1 0 5318.5,3812.42Z " />
<path stroke="none" fill="#000000" transform="matrix(0.0833333 0 0 0.0833333 -140.092 -202)" d="M 5339.47,4587.49 A 113.118,113.118 0 1 0 5565.71,4587.49A 113.118,113.118 0 1 0 5339.47,4587.49Z " />
<path stroke="none" fill="#0f0f0f" transform="matrix(0.0833333 0 0 0.0833333 -140.092 -202)" d="M 5340.79,4585.72 A 110.028,110.028 0 1 0 5560.85,4585.72A 110.028,110.028 0 1 0 5340.79,4585.72Z " />
<path stroke="none" fill="#1e1e1e" transform="matrix(0.0833333 0 0 0.0833333 -140.092 -202)" d="M 5342.11,4583.95 A 106.938,106.938 0 1 0 5555.99,4583.95A 106.938,106.938 0 1 0 5342.11,4583.95Z " />
<path stroke="none" fill="#2d2d2d" transform="matrix(0.0833333 0 0 0.0833333 -140.092 -202)" d="M 5343.44,4582.18 A 103.848,103.848 0 1 0 5551.13,4582.18A 103.848,103.848 0 1 0 5343.44,4582.18Z " />
<path stroke="none" fill="#3b3b3b" transform="matrix(0.0833333 0 0 0.0833333 -140.092 -202)" d="M 5344.76,4580.42 A 100.759,100.759 0 1 0 5546.28,4580.42A 100.759,100.759 0 1 0 5344.76,4580.42Z " />
<path stroke="none" fill="#494949" transform="matrix(0.0833333 0 0 0.0833333 -140.092 -202)" d="M 5346.08,4578.65 A 97.6688,97.6688 0 1 0 5541.42,4578.65A 97.6688,97.6688 0 1 0 5346.08,4578.65Z " />
<path stroke="none" fill="#565656" transform="matrix(0.0833333 0 0 0.0833333 -140.092 -202)" d="M 5347.4,4576.88 A 94.5789,94.5789 0 1 0 5536.56,4576.88A 94.5789,94.5789 0 1 0 5347.4,4576.88Z " />
<path stroke="none" fill="#636363" transform="matrix(0.0833333 0 0 0.0833333 -140.092 -202)" d="M 5348.73,4575.11 A 91.4891,91.4891 0 1 0 5531.7,4575.11A 91.4891,91.4891 0 1 0 5348.73,4575.11Z " />
<path stroke="none" fill="#6f6f6f" transform="matrix(0.0833333 0 0 0.0833333 -140.092 -202)" d="M 5350.05,4573.35 A 88.3992,88.3992 0 1 0 5526.85,4573.35A 88.3992,88.3992 0 1 0 5350.05,4573.35Z " />
<path stroke="none" fill="#7b7b7b" transform="matrix(0.0833333 0 0 0.0833333 -140.092 -202)" d="M 5351.37,4571.58 A 85.3094,85.3094 0 1 0 5521.99,4571.58A 85.3094,85.3094 0 1 0 5351.37,4571.58Z " />
<path stroke="none" fill="#868686" transform="matrix(0.0833333 0 0 0.0833333 -140.092 -202)" d="M 5352.69,4569.81 A 82.2195,82.2195 0 1 0 5517.13,4569.81A 82.2195,82.2195 0 1 0 5352.69,4569.81Z " />
<path stroke="none" fill="#919191" transform="matrix(0.0833333 0 0 0.0833333 -140.092 -202)" d="M 5354.02,4568.04 A 79.1297,79.1297 0 1 0 5512.28,4568.04A 79.1297,79.1297 0 1 0 5354.02,4568.04Z " />
<path stroke="none" fill="#9b9b9b" transform="matrix(0.0833333 0 0 0.0833333 -140.092 -202)" d="M 5355.34,4566.28 A 76.0399,76.0399 0 1 0 5507.42,4566.28A 76.0399,76.0399 0 1 0 5355.34,4566.28Z " />
<path stroke="none" fill="#a5a5a5" transform="matrix(0.0833333 0 0 0.0833333 -140.092 -202)" d="M 5356.66,4564.51 A 72.95,72.95 0 1 0 5502.56,4564.51A 72.95,72.95 0 1 0 5356.66,4564.51Z " />
<path stroke="none" fill="#aeaeae" transform="matrix(0.0833333 0 0 0.0833333 -140.092 -202)" d="M 5357.98,4562.74 A 69.8602,69.8602 0 1 0 5497.7,4562.74A 69.8602,69.8602 0 1 0 5357.98,4562.74Z " />
<path stroke="none" fill="#b7b7b7" transform="matrix(0.0833333 0 0 0.0833333 -140.092 -202)" d="M 5359.31,4560.97 A 66.7703,66.7703 0 1 0 5492.85,4560.97A 66.7703,66.7703 0 1 0 5359.31,4560.97Z " />
<path stroke="none" fill="#bfbfbf" transform="matrix(0.0833333 0 0 0.0833333 -140.092 -202)" d="M 5360.63,4559.21 A 63.6805,63.6805 0 1 0 5487.99,4559.21A 63.6805,63.6805 0 1 0 5360.63,4559.21Z " />
<path stroke="none" fill="#c6c6c6" transform="matrix(0.0833333 0 0 0.0833333 -140.092 -202)" d="M 5361.95,4557.44 A 60.5906,60.5906 0 1 0 5483.13,4557.44A 60.5906,60.5906 0 1 0 5361.95,4557.44Z " />
<path stroke="none" fill="#cecece" transform="matrix(0.0833333 0 0 0.0833333 -140.092 -202)" d="M 5363.27,4555.67 A 57.5008,57.5008 0 1 0 5478.27,4555.67A 57.5008,57.5008 0 1 0 5363.27,4555.67Z " />
<path stroke="none" fill="#d4d4d4" transform="matrix(0.0833333 0 0 0.0833333 -140.092 -202)" d="M 5364.6,4553.9 A 54.4109,54.4109 0 1 0 5473.42,4553.9A 54.4109,54.4109 0 1 0 5364.6,4553.9Z " />
<path stroke="none" fill="#dbdbdb" transform="matrix(0.0833333 0 0 0.0833333 -140.092 -202)" d="M 5365.92,4552.14 A 51.3211,51.3211 0 1 0 5468.56,4552.14A 51.3211,51.3211 0 1 0 5365.92,4552.14Z " />
<path stroke="none" fill="#e0e0e0" transform="matrix(0.0833333 0 0 0.0833333 -140.092 -202)" d="M 5367.24,4550.37 A 48.2313,48.2313 0 1 0 5463.7,4550.37A 48.2313,48.2313 0 1 0 5367.24,4550.37Z " />
<path stroke="none" fill="#e6e6e6" transform="matrix(0.0833333 0 0 0.0833333 -140.092 -202)" d="M 5368.56,4548.6 A 45.1414,45.1414 0 1 0 5458.85,4548.6A 45.1414,45.1414 0 1 0 5368.56,4548.6Z " />
<path stroke="none" fill="#eaeaea" transform="matrix(0.0833333 0 0 0.0833333 -140.092 -202)" d="M 5369.88,4546.83 A 42.0516,42.0516 0 1 0 5453.99,4546.83A 42.0516,42.0516 0 1 0 5369.88,4546.83Z " />
<path stroke="none" fill="#efefef" transform="matrix(0.0833333 0 0 0.0833333 -140.092 -202)" d="M 5371.21,4545.07 A 38.9617,38.9617 0 1 0 5449.13,4545.07A 38.9617,38.9617 0 1 0 5371.21,4545.07Z " />
<path stroke="none" fill="#f2f2f2" transform="matrix(0.0833333 0 0 0.0833333 -140.092 -202)" d="M 5372.53,4543.3 A 35.8719,35.8719 0 1 0 5444.27,4543.3A 35.8719,35.8719 0 1 0 5372.53,4543.3Z " />
<path stroke="none" fill="#f6f6f6" transform="matrix(0.0833333 0 0 0.0833333 -140.092 -202)" d="M 5373.85,4541.53 A 32.782,32.782 0 1 0 5439.42,4541.53A 32.782,32.782 0 1 0 5373.85,4541.53Z " />
<path stroke="none" fill="#f8f8f8" transform="matrix(0.0833333 0 0 0.0833333 -140.092 -202)" d="M 5375.17,4539.76 A 29.6922,29.6922 0 1 0 5434.56,4539.76A 29.6922,29.6922 0 1 0 5375.17,4539.76Z " />
<path stroke="none" fill="#fbfbfb" transform="matrix(0.0833333 0 0 0.0833333 -140.092 -202)" d="M 5376.5,4538 A 26.6024,26.6024 0 1 0 5429.7,4538A 26.6024,26.6024 0 1 0 5376.5,4538Z " />
<path stroke="none" fill="#fcfcfc" transform="matrix(0.0833333 0 0 0.0833333 -140.092 -202)" d="M 5377.82,4536.23 A 23.5125,23.5125 0 1 0 5424.84,4536.23A 23.5125,23.5125 0 1 0 5377.82,4536.23Z " />
<path stroke="none" fill="#fefefe" transform="matrix(0.0833333 0 0 0.0833333 -140.092 -202)" d="M 5379.14,4534.46 A 20.4227,20.4227 0 1 0 5419.99,4534.46A 20.4227,20.4227 0 1 0 5379.14,4534.46Z " />
<path stroke="none" fill="#fefefe" transform="matrix(0.0833333 0 0 0.0833333 -140.092 -202)" d="M 5380.46,4532.69 A 17.3328,17.3328 0 1 0 5415.13,4532.69A 17.3328,17.3328 0 1 0 5380.46,4532.69Z " />
<path stroke="#000000" stroke-width="24" fill="none" transform="matrix(0.0833333 0 0 0.0833333 -140.092 -202)" d="M 5339.47,4587.49 A 113.118,113.118 0 1 0 5565.71,4587.49A 113.118,113.118 0 1 0 5339.47,4587.49Z " />
<path stroke="none" fill="#000000" transform="matrix(0.0833333 0 0 0.0833333 -140.092 -202)" d="M 5594.6,2617.17 L 5570.79,2640.98 L 5294.7,2640.98 L 5294.7,2617.17 L 5594.6,2617.17 Z " />
<path stroke="none" fill="#000000" transform="matrix(0.0833333 0 0 0.0833333 -140.092 -202)" d="M 5594.6,2917.07 L 5570.79,2917.07 L 5570.79,2640.98 L 5594.6,2617.17 L 5594.6,2917.07 Z " />
<path stroke="#000000" stroke-width="19" fill="none" transform="matrix(0.0833333 0 0 0.0833333 -140.092 -202)" d="M 5638.51,2734.41 A 76.5243,76.5243 0 1 0 5791.56,2734.41A 76.5243,76.5243 0 1 0 5638.51,2734.41Z " />
<path stroke="none" fill="#000000" transform="matrix(0.0833333 0 0 0.0833333 -140.092 -202)" d="M 5669.46,2724.57 L 5759.94,2724.57 L 5759.94,2743.57 L 5669.46,2743.57 Z " />
<path stroke="#000000" stroke-width="19" fill="none" transform="matrix(0.0833333 0 0 0.0833333 -140.092 -202)" d="M 5405.12,4235.54 A 76.5243,76.5243 0 1 0 5558.17,4235.54A 76.5243,76.5243 0 1 0 5405.12,4235.54Z " />
<path stroke="none" fill="#000000" transform="matrix(0.0833333 0 0 0.0833333 -140.092 -202)" d="M 5436.08,4225.71 L 5526.55,4225.71 L 5526.55,4244.71 L 5436.08,4244.71 Z " />
<path stroke="none" fill="#000000" transform="matrix(0.0833333 0 0 0.0833333 -140.092 -202)" d="M 5490.81,4189.97 L 5490.81,4280.45 L 5471.81,4280.45 L 5471.81,4189.97 Z " />
<path stroke="none" fill="#ffffff" transform="matrix(0.0833333 0 0 0.0833333 -140.092 -202)" d="M 2502.47,4227.99 C 2522.31,4272.15 2578.16,4293.48 2627.12,4275.58 C 2676.09,4257.69 2699.73,4207.32 2679.89,4163.15 C 2660.05,4118.99 2604.2,4097.66 2555.24,4115.56 C 2506.27,4133.45 2482.63,4183.82 2502.47,4227.99 " />
<path stroke="#ffffff" stroke-width="1" fill="none" transform="matrix(0.0833333 0 0 0.0833333 -140.092 -202)" d="M 2502.47,4227.99 C 2522.31,4272.15 2578.16,4293.48 2627.12,4275.58 C 2676.09,4257.69 2699.73,4207.32 2679.89,4163.15 C 2660.05,4118.99 2604.2,4097.66 2555.24,4115.56 C 2506.27,4133.45 2482.63,4183.82 2502.47,4227.99 " />
<path stroke="#000000" stroke-width="24" fill="none" transform="matrix(0.0833333 0 0 0.0833333 -140.092 -202)" d="M 2502.47,4227.99 C 2522.31,4272.15 2578.16,4293.48 2627.12,4275.58 C 2676.09,4257.69 2699.73,4207.32 2679.89,4163.15 C 2660.05,4118.99 2604.2,4097.66 2555.24,4115.56 C 2506.27,4133.45 2482.63,4183.82 2502.47,4227.99 " />
<path stroke="none" fill="#000000" transform="matrix(0.0833333 0 0 0.0833333 -140.092 -202)" d="M 1843.97,4183.78 A 110.226,99.4135 0 1 0 2064.42,4183.78A 110.226,99.4135 0 1 0 1843.97,4183.78Z " />
<path stroke="#000000" stroke-width="24" fill="none" transform="matrix(0.0833333 0 0 0.0833333 -140.092 -202)" d="M 1843.97,4183.78 A 110.226,99.4135 0 1 0 2064.42,4183.78A 110.226,99.4135 0 1 0 1843.97,4183.78Z " />
<path stroke="none" fill="#000000" transform="matrix(0.0833333 0 0 0.0833333 -140.092 -202)" d="M 3098.15,4201.11 A 126.208,113.829 0 1 0 3350.56,4201.11A 126.208,113.829 0 1 0 3098.15,4201.11Z " />
<path stroke="none" fill="#0f0f0f" transform="matrix(0.0833333 0 0 0.0833333 -140.092 -202)" d="M 3099.62,4199.33 A 122.763,110.721 0 1 0 3345.15,4199.33A 122.763,110.721 0 1 0 3099.62,4199.33Z " />
<path stroke="none" fill="#1e1e1e" transform="matrix(0.0833333 0 0 0.0833333 -140.092 -202)" d="M 3101.09,4197.56 A 119.318,107.614 0 1 0 3339.73,4197.56A 119.318,107.614 0 1 0 3101.09,4197.56Z " />
<path stroke="none" fill="#2d2d2d" transform="matrix(0.0833333 0 0 0.0833333 -140.092 -202)" d="M 3102.57,4195.78 A 115.872,104.507 0 1 0 3334.31,4195.78A 115.872,104.507 0 1 0 3102.57,4195.78Z " />
<path stroke="none" fill="#3b3b3b" transform="matrix(0.0833333 0 0 0.0833333 -140.092 -202)" d="M 3104.04,4194 A 112.427,101.399 0 1 0 3328.89,4194A 112.427,101.399 0 1 0 3104.04,4194Z " />
<path stroke="none" fill="#494949" transform="matrix(0.0833333 0 0 0.0833333 -140.092 -202)" d="M 3105.51,4192.22 A 108.982,98.2919 0 1 0 3323.48,4192.22A 108.982,98.2919 0 1 0 3105.51,4192.22Z " />
<path stroke="none" fill="#565656" transform="matrix(0.0833333 0 0 0.0833333 -140.092 -202)" d="M 3106.99,4190.44 A 105.536,95.1845 0 1 0 3318.06,4190.44A 105.536,95.1845 0 1 0 3106.99,4190.44Z " />
<path stroke="none" fill="#636363" transform="matrix(0.0833333 0 0 0.0833333 -140.092 -202)" d="M 3108.46,4188.66 A 102.091,92.0771 0 1 0 3312.64,4188.66A 102.091,92.0771 0 1 0 3108.46,4188.66Z " />
<path stroke="none" fill="#6f6f6f" transform="matrix(0.0833333 0 0 0.0833333 -140.092 -202)" d="M 3109.93,4186.88 A 98.6457,88.9698 0 1 0 3307.22,4186.88A 98.6457,88.9698 0 1 0 3109.93,4186.88Z " />
<path stroke="none" fill="#7b7b7b" transform="matrix(0.0833333 0 0 0.0833333 -140.092 -202)" d="M 3111.41,4185.11 A 95.2004,85.8624 0 1 0 3301.81,4185.11A 95.2004,85.8624 0 1 0 3111.41,4185.11Z " />
<path stroke="none" fill="#868686" transform="matrix(0.0833333 0 0 0.0833333 -140.092 -202)" d="M 3112.88,4183.33 A 91.7551,82.755 0 1 0 3296.39,4183.33A 91.7551,82.755 0 1 0 3112.88,4183.33Z " />
<path stroke="none" fill="#919191" transform="matrix(0.0833333 0 0 0.0833333 -140.092 -202)" d="M 3114.35,4181.55 A 88.3098,79.6477 0 1 0 3290.97,4181.55A 88.3098,79.6477 0 1 0 3114.35,4181.55Z " />
<path stroke="none" fill="#9b9b9b" transform="matrix(0.0833333 0 0 0.0833333 -140.092 -202)" d="M 3115.83,4179.77 A 84.8644,76.5403 0 1 0 3285.55,4179.77A 84.8644,76.5403 0 1 0 3115.83,4179.77Z " />
<path stroke="none" fill="#a5a5a5" transform="matrix(0.0833333 0 0 0.0833333 -140.092 -202)" d="M 3117.3,4177.99 A 81.4191,73.4329 0 1 0 3280.14,4177.99A 81.4191,73.4329 0 1 0 3117.3,4177.99Z " />
<path stroke="none" fill="#aeaeae" transform="matrix(0.0833333 0 0 0.0833333 -140.092 -202)" d="M 3118.77,4176.21 A 77.9738,70.3256 0 1 0 3274.72,4176.21A 77.9738,70.3256 0 1 0 3118.77,4176.21Z " />
<path stroke="none" fill="#b7b7b7" transform="matrix(0.0833333 0 0 0.0833333 -140.092 -202)" d="M 3120.25,4174.43 A 74.5285,67.2182 0 1 0 3269.3,4174.43A 74.5285,67.2182 0 1 0 3120.25,4174.43Z " />
<path stroke="none" fill="#bfbfbf" transform="matrix(0.0833333 0 0 0.0833333 -140.092 -202)" d="M 3121.72,4172.66 A 71.0832,64.1108 0 1 0 3263.89,4172.66A 71.0832,64.1108 0 1 0 3121.72,4172.66Z " />
<path stroke="none" fill="#c6c6c6" transform="matrix(0.0833333 0 0 0.0833333 -140.092 -202)" d="M 3123.19,4170.88 A 67.6379,61.0034 0 1 0 3258.47,4170.88A 67.6379,61.0034 0 1 0 3123.19,4170.88Z " />
<path stroke="none" fill="#cecece" transform="matrix(0.0833333 0 0 0.0833333 -140.092 -202)" d="M 3124.67,4169.1 A 64.1926,57.8961 0 1 0 3253.05,4169.1A 64.1926,57.8961 0 1 0 3124.67,4169.1Z " />
<path stroke="none" fill="#d4d4d4" transform="matrix(0.0833333 0 0 0.0833333 -140.092 -202)" d="M 3126.14,4167.32 A 60.7473,54.7887 0 1 0 3247.63,4167.32A 60.7473,54.7887 0 1 0 3126.14,4167.32Z " />
<path stroke="none" fill="#dbdbdb" transform="matrix(0.0833333 0 0 0.0833333 -140.092 -202)" d="M 3127.61,4165.54 A 57.3019,51.6813 0 1 0 3242.22,4165.54A 57.3019,51.6813 0 1 0 3127.61,4165.54Z " />
<path stroke="none" fill="#e0e0e0" transform="matrix(0.0833333 0 0 0.0833333 -140.092 -202)" d="M 3129.09,4163.76 A 53.8566,48.574 0 1 0 3236.8,4163.76A 53.8566,48.574 0 1 0 3129.09,4163.76Z " />
<path stroke="none" fill="#e6e6e6" transform="matrix(0.0833333 0 0 0.0833333 -140.092 -202)" d="M 3130.56,4161.98 A 50.4113,45.4666 0 1 0 3231.38,4161.98A 50.4113,45.4666 0 1 0 3130.56,4161.98Z " />
<path stroke="none" fill="#eaeaea" transform="matrix(0.0833333 0 0 0.0833333 -140.092 -202)" d="M 3132.03,4160.21 A 46.966,42.3592 0 1 0 3225.96,4160.21A 46.966,42.3592 0 1 0 3132.03,4160.21Z " />
<path stroke="none" fill="#efefef" transform="matrix(0.0833333 0 0 0.0833333 -140.092 -202)" d="M 3133.51,4158.43 A 43.5207,39.2519 0 1 0 3220.55,4158.43A 43.5207,39.2519 0 1 0 3133.51,4158.43Z " />
<path stroke="none" fill="#f2f2f2" transform="matrix(0.0833333 0 0 0.0833333 -140.092 -202)" d="M 3134.98,4156.65 A 40.0754,36.1445 0 1 0 3215.13,4156.65A 40.0754,36.1445 0 1 0 3134.98,4156.65Z " />
<path stroke="none" fill="#f6f6f6" transform="matrix(0.0833333 0 0 0.0833333 -140.092 -202)" d="M 3136.45,4154.87 A 36.6301,33.0371 0 1 0 3209.71,4154.87A 36.6301,33.0371 0 1 0 3136.45,4154.87Z " />
<path stroke="none" fill="#f8f8f8" transform="matrix(0.0833333 0 0 0.0833333 -140.092 -202)" d="M 3137.93,4153.09 A 33.1848,29.9297 0 1 0 3204.3,4153.09A 33.1848,29.9297 0 1 0 3137.93,4153.09Z " />
<path stroke="none" fill="#fbfbfb" transform="matrix(0.0833333 0 0 0.0833333 -140.092 -202)" d="M 3139.4,4151.31 A 29.7394,26.8224 0 1 0 3198.88,4151.31A 29.7394,26.8224 0 1 0 3139.4,4151.31Z " />
<path stroke="none" fill="#fcfcfc" transform="matrix(0.0833333 0 0 0.0833333 -140.092 -202)" d="M 3140.87,4149.53 A 26.2941,23.715 0 1 0 3193.46,4149.53A 26.2941,23.715 0 1 0 3140.87,4149.53Z " />
<path stroke="none" fill="#fefefe" transform="matrix(0.0833333 0 0 0.0833333 -140.092 -202)" d="M 3142.35,4147.76 A 22.8488,20.6076 0 1 0 3188.04,4147.76A 22.8488,20.6076 0 1 0 3142.35,4147.76Z " />
<path stroke="none" fill="#fefefe" transform="matrix(0.0833333 0 0 0.0833333 -140.092 -202)" d="M 3143.82,4145.98 A 19.4035,17.5003 0 1 0 3182.63,4145.98A 19.4035,17.5003 0 1 0 3143.82,4145.98Z " />
<path stroke="#000000" stroke-width="24" fill="none" transform="matrix(0.0833333 0 0 0.0833333 -140.092 -202)" d="M 3098.15,4201.11 A 126.208,113.829 0 1 0 3350.56,4201.11A 126.208,113.829 0 1 0 3098.15,4201.11Z " />
<text x="0" y="0" stroke="none" fill="#000000" transform="matrix(0.0833333 0 0 0.0833333 34.9377 152.951)" font-style="normal" font-weight="normal" font-size="200px" font-family="Times New Roman" >
CH</text>
<text x="0" y="0" stroke="none" fill="#000000" transform="matrix(0.0833333 0 0 0.0833333 87.4186 152.301)" font-style="normal" font-weight="normal" font-size="200px" font-family="Times New Roman" >
BH</text>
<text x="0" y="0" stroke="none" fill="#000000" transform="matrix(0.0833333 0 0 0.0833333 143.249 152.951)" font-style="normal" font-weight="normal" font-size="200px" font-family="Times New Roman" >
B</text>
<path stroke="#000000" stroke-width="24" fill="none" transform="matrix(0.0833333 0 0 0.0833333 -140.092 -202)" d="M 1744.69,4294.46 C 1744.69,4294.46 1744.69,4085.94 1744.69,4085.94 C 1744.69,4007.09 1808.7,3943.08 1887.56,3943.08 C 1887.56,3943.08 3499.68,3943.08 3499.68,3943.08 C 3578.54,3943.08 3642.54,4007.09 3642.54,4085.94 C 3642.54,4085.94 3642.54,4294.46 3642.54,4294.46 C 3642.54,4373.31 3578.54,4437.32 3499.68,4437.32 C 3499.68,4437.32 1887.56,4437.32 1887.56,4437.32 C 1808.7,4437.32 1744.69,4373.31 1744.69,4294.46 " />
<text x="0" y="0" stroke="none" fill="#000080" transform="matrix(0.0833333 0 0 0.0833333 439.598 81.905)" font-style="normal" font-weight="bold" font-size="280px" font-family="Times New Roman" >
NMR</text>
<text x="0" y="0" stroke="none" fill="#000080" transform="matrix(0.0833333 0 0 0.0833333 521.508 27.2799)" font-style="normal" font-weight="bold" font-size="210px" font-family="Times New Roman" >
1</text>
<text x="0" y="0" stroke="none" fill="#000080" transform="matrix(0.0833333 0 0 0.0833333 530.258 36.4049)" font-style="normal" font-weight="bold" font-size="280px" font-family="Times New Roman" >
H</text>
<text x="0" y="0" stroke="none" fill="#000080" transform="matrix(0.0833333 0 0 0.0833333 521.508 60.6966)" font-style="normal" font-weight="bold" font-size="210px" font-family="Times New Roman" >
11</text>
<text x="0" y="0" stroke="none" fill="#000080" transform="matrix(0.0833333 0 0 0.0833333 539.008 69.8216)" font-style="normal" font-weight="bold" font-size="280px" font-family="Times New Roman" >
B</text>
<text x="0" y="0" stroke="none" fill="#000080" transform="matrix(0.0833333 0 0 0.0833333 521.508 94.1133)" font-style="normal" font-weight="bold" font-size="210px" font-family="Times New Roman" >
11</text>
<text x="0" y="0" stroke="none" fill="#000080" transform="matrix(0.0833333 0 0 0.0833333 539.008 103.238)" font-style="normal" font-weight="bold" font-size="280px" font-family="Times New Roman" >
B{</text>
<text x="0" y="0" stroke="none" fill="#000080" transform="matrix(0.0833333 0 0 0.0833333 563.786 94.1133)" font-style="normal" font-weight="bold" font-size="210px" font-family="Times New Roman" >
1</text>
<text x="0" y="0" stroke="none" fill="#000080" transform="matrix(0.0833333 0 0 0.0833333 572.536 103.238)" font-style="normal" font-weight="bold" font-size="280px" font-family="Times New Roman" >
H}</text>
<text x="0" y="0" stroke="none" fill="#000080" transform="matrix(0.0833333 0 0 0.0833333 521.508 127.53)" font-style="normal" font-weight="bold" font-size="210px" font-family="Times New Roman" >
13</text>
<text x="0" y="0" stroke="none" fill="#000080" transform="matrix(0.0833333 0 0 0.0833333 539.008 136.655)" font-style="normal" font-weight="bold" font-size="280px" font-family="Times New Roman" >
C</text>
<text x="0" y="0" stroke="none" fill="#008000" transform="matrix(0.0833333 0 0 0.0833333 503.541 171.905)" font-style="normal" font-weight="bold" font-size="280px" font-family="Times New Roman" >
IR</text>
<text x="0" y="0" stroke="none" fill="#b94639" transform="matrix(0.0833333 0 0 0.0833333 499.658 225.738)" font-style="normal" font-weight="bold" font-size="280px" font-family="Times New Roman" >
UV</text>
<text x="0" y="0" stroke="none" fill="#808080" transform="matrix(0.0833333 0 0 0.0833333 481.488 279.572)" font-style="normal" font-weight="bold" font-size="280px" font-family="Times New Roman" >
HRMS</text>
<path stroke="#000080" stroke-width="24" fill="none" transform="matrix(0.0833333 0 0 0.0833333 -140.092 -202)" d="M 7911.91,2608.86 C 7854.11,2608.86 7807.2,2655.77 7807.2,2713.57 C 7807.2,2713.57 7807.2,3230.15 7807.2,3230.15 C 7807.2,3287.95 7760.29,3334.86 7702.49,3334.86 C 7760.29,3334.86 7807.2,3381.77 7807.2,3439.57 C 7807.2,3439.57 7807.2,3956.15 7807.2,3956.15 C 7807.2,4013.95 7854.11,4060.86 7911.91,4060.86 " />
<path stroke="#000000" stroke-width="24" fill="none" transform="matrix(0.0833333 0 0 0.0833333 -140.092 -202)" d="M 6748.69,5743.69 C 6748.69,5743.69 6748.69,2625.47 6748.69,2625.47 C 6748.69,2546.61 6812.7,2482.61 6891.56,2482.61 C 6891.56,2482.61 8947.78,2482.61 8947.78,2482.61 C 9026.63,2482.61 9090.64,2546.61 9090.64,2625.47 C 9090.64,2625.47 9090.64,5743.69 9090.64,5743.69 C 9090.64,5822.55 9026.63,5886.56 8947.78,5886.56 C 8947.78,5886.56 6891.56,5886.56 6891.56,5886.56 C 6812.7,5886.56 6748.69,5822.55 6748.69,5743.69 " />
</svg>
