<?xml version="1.0" standalone="no" ?>
<!DOCTYPE svg PUBLIC "-//W3C//DTD SVG 1.1//EN" "http://www.w3.org/Graphics/SVG/1.1/DTD/svg11.dtd">
<svg width="303px" height="172px" viewBox="0 0 303 172" style="background-color: #ffffff00" xmlns="http://www.w3.org/2000/svg" xmlns:xlink="http://www.w3.org/1999/xlink" version="1.1" >
<path stroke="none" fill="#000000" transform="matrix(0.0666667 0 0 0.0666667 -75.0003 -115)" d="M 2276.85,2337.67 L 2282.3,2345.17 L 2276.33,2352.67 L 1948.26,2352.67 L 1942.3,2345.17 L 1947.75,2337.67 L 2276.85,2337.67 Z " />
<text x="0" y="0" stroke="none" fill="#ff0000" transform="matrix(0.0666667 0 0 0.0666667 60.053 82.4917)" font-style="normal" font-weight="normal" font-size="240px" font-family="Arial" >
N</text>
<path stroke="none" fill="#ff0000" transform="matrix(0.0666667 0 0 0.0666667 -75.0003 -115)" d="M 1873.26,2685.43 L 1801.97,2652.18 L 1934.31,2344.84 L 1942.3,2345.17 L 1948.26,2352.67 L 1873.26,2685.43 Z " />
<path stroke="none" fill="#ff0000" transform="matrix(0.0666667 0 0 0.0666667 -75.0003 -115)" d="M 2004.27,2780.61 L 1995.45,2792.75 L 1801.97,2652.18 L 1873.26,2685.43 L 2004.27,2780.61 Z " />
<path stroke="none" fill="#ff0000" transform="matrix(0.0666667 0 0 0.0666667 -75.0003 -115)" d="M 2351.34,2685.43 L 2422.63,2652.18 L 2228.5,2793.22 L 2219.68,2781.09 L 2351.34,2685.43 Z " />
<path stroke="none" fill="#ff0000" transform="matrix(0.0666667 0 0 0.0666667 -75.0003 -115)" d="M 2276.33,2352.67 L 2282.3,2345.17 L 2290.29,2344.84 L 2422.63,2652.18 L 2351.34,2685.43 L 2276.33,2352.67 Z " />
<text x="0" y="0" stroke="none" fill="#ff0000" transform="matrix(0.0666667 0 0 0.0666667 99.4813 76.1729)" font-style="normal" font-weight="normal" font-size="240px" font-family="Arial" >
O</text>
<path stroke="none" fill="#ff0000" transform="matrix(0.0666667 0 0 0.0666667 -75.0003 -115)" d="M 2608.21,2700.22 L 2603.57,2714.49 L 2373.36,2639.69 L 2377.99,2625.42 L 2608.21,2700.22 Z " />
<path stroke="none" fill="#ff0000" transform="matrix(0.0666667 0 0 0.0666667 -75.0003 -115)" d="M 2589.3,2758.43 L 2584.66,2772.69 L 2354.45,2697.89 L 2359.08,2683.63 L 2589.3,2758.43 Z " />
<text x="0" y="0" stroke="none" fill="#ff0000" transform="matrix(0.0666667 0 0 0.0666667 19.6913 76.1729)" font-style="normal" font-weight="normal" font-size="240px" font-family="Arial" >
O</text>
<path stroke="none" fill="#ff0000" transform="matrix(0.0666667 0 0 0.0666667 -75.0003 -115)" d="M 1640.26,2772.59 L 1635.62,2758.33 L 1865.52,2683.63 L 1870.15,2697.89 L 1640.26,2772.59 Z " />
<path stroke="none" fill="#ff0000" transform="matrix(0.0666667 0 0 0.0666667 -75.0003 -115)" d="M 1621.34,2714.39 L 1616.71,2700.12 L 1846.6,2625.42 L 1851.24,2639.69 L 1621.34,2714.39 Z " />
<path stroke="none" fill="#ff0000" transform="matrix(0.0666667 0 0 0.0666667 -75.0003 -115)" d="M 1224.47,3774.1 L 1216.8,3788.47 L 1209.25,3792.71 L 1213.38,3444.07 L 1228.27,3452.91 L 1224.47,3774.1 Z " />
<path stroke="none" fill="#ff0000" transform="matrix(0.0666667 0 0 0.0666667 -75.0003 -115)" d="M 1509.32,3953.28 L 1509.22,3961.94 L 1498.95,3964.56 L 1209.25,3792.71 L 1216.8,3788.47 L 1233.07,3789.4 L 1509.32,3953.28 Z " />
<path stroke="none" fill="#ff0000" transform="matrix(0.0666667 0 0 0.0666667 -75.0003 -115)" d="M 1789.38,3795.97 L 1805.66,3795.43 L 1813.11,3799.85 L 1519.43,3964.8 L 1509.22,3961.94 L 1509.32,3953.28 L 1789.38,3795.97 Z " />
<path stroke="none" fill="#ff0000" transform="matrix(0.0666667 0 0 0.0666667 -75.0003 -115)" d="M 1802.13,3459.7 L 1809.68,3455.45 L 1817.12,3460.31 L 1813.11,3799.85 L 1805.66,3795.43 L 1798.33,3780.88 L 1802.13,3459.7 Z " />
<path stroke="none" fill="#ff0000" transform="matrix(0.0666667 0 0 0.0666667 -75.0003 -115)" d="M 1517.16,3290.64 L 1517.36,3273.33 L 1809.4,3446.57 L 1809.68,3455.45 L 1802.13,3459.7 L 1517.16,3290.64 Z " />
<path stroke="none" fill="#ff0000" transform="matrix(0.0666667 0 0 0.0666667 -75.0003 -115)" d="M 1228.27,3452.91 L 1213.38,3444.07 L 1517.36,3273.33 L 1517.16,3290.64 L 1228.27,3452.91 Z " />
<path stroke="none" fill="#ff0000" transform="matrix(0.0666667 0 0 0.0666667 -75.0003 -115)" d="M 1513.8,3574.36 L 1512.74,3664.73 L 1233.07,3789.4 L 1216.8,3788.47 L 1224.47,3774.1 L 1513.8,3574.36 Z " />
<path stroke="none" fill="#ff0000" transform="matrix(0.0666667 0 0 0.0666667 -75.0003 -115)" d="M 1798.33,3780.88 L 1805.66,3795.43 L 1789.38,3795.97 L 1512.74,3664.73 L 1513.8,3574.36 L 1798.33,3780.88 Z " />
<path stroke="none" fill="#ff0000" transform="matrix(0.0666667 0 0 0.0666667 -75.0003 -115)" d="M 1342.2,4258.18 L 1329.3,4250.53 L 1498.95,3964.56 L 1509.22,3961.94 L 1509.05,3976.94 L 1342.2,4258.18 Z " />
<path stroke="none" fill="#ff0000" transform="matrix(0.0666667 0 0 0.0666667 -75.0003 -115)" d="M 1682.27,4254.7 L 1669.19,4262.05 L 1509.05,3976.94 L 1509.22,3961.94 L 1519.43,3964.8 L 1682.27,4254.7 Z " />
<path stroke="none" fill="#ff0000" transform="matrix(0.0666667 0 0 0.0666667 -75.0003 -115)" d="M 2099.24,3246.48 L 2113.04,3328.4 L 1817.12,3460.31 L 1809.68,3455.45 L 1809.4,3446.57 L 2099.24,3246.48 Z " />
<path stroke="none" fill="#ff0000" transform="matrix(0.0666667 0 0 0.0666667 -75.0003 -115)" d="M 2113.04,3328.4 L 2099.24,3246.48 L 2102.84,3001.74 L 2117.84,3001.96 L 2113.04,3328.4 Z " />
<path stroke="none" fill="#000000" transform="matrix(0.0666667 0 0 0.0666667 -75.0003 -115)" d="M 2378.39,2025.17 L 2387.37,2021.81 L 2393.38,2027.56 L 2290.29,2344.84 L 2282.3,2345.17 L 2276.85,2337.67 L 2378.39,2025.17 Z " />
<path stroke="none" fill="#000000" transform="matrix(0.0666667 0 0 0.0666667 -75.0003 -115)" d="M 2112.3,1867.15 L 2112.3,1770.24 L 2388.9,2013.22 L 2387.37,2021.81 L 2378.39,2025.17 L 2112.3,1867.15 Z " />
<path stroke="none" fill="#000000" transform="matrix(0.0666667 0 0 0.0666667 -75.0003 -115)" d="M 1846.21,2025.17 L 1837.23,2021.81 L 1835.53,2013.37 L 2112.3,1770.24 L 2112.3,1867.15 L 1846.21,2025.17 Z " />
<path stroke="none" fill="#000000" transform="matrix(0.0666667 0 0 0.0666667 -75.0003 -115)" d="M 1947.75,2337.67 L 1942.3,2345.17 L 1934.31,2344.84 L 1831.28,2027.76 L 1837.23,2021.81 L 1846.21,2025.17 L 1947.75,2337.67 Z " />
<path stroke="none" fill="#000000" transform="matrix(0.0666667 0 0 0.0666667 -75.0003 -115)" d="M 2709.36,1892.44 L 2712.09,1907.44 L 2393.38,2027.56 L 2387.37,2021.81 L 2388.9,2013.22 L 2709.36,1892.44 Z " />
<path stroke="none" fill="#000000" transform="matrix(0.0666667 0 0 0.0666667 -75.0003 -115)" d="M 1512.69,1924.24 L 1515.06,1909.24 L 1835.53,2013.37 L 1837.23,2021.81 L 1831.28,2027.76 L 1512.69,1924.24 Z " />
<path stroke="none" fill="#000000" transform="matrix(0.0666667 0 0 0.0666667 -75.0003 -115)" d="M 3050.72,1892.44 L 3050.72,1907.44 L 2712.09,1907.44 L 2709.36,1892.44 L 3050.72,1892.44 Z " />
<path stroke="none" fill="#000000" transform="matrix(0.0666667 0 0 0.0666667 -75.0003 -115)" d="M 3050.72,1953.64 L 3050.72,1968.64 L 2721.87,1968.64 L 2721.87,1953.64 L 3050.72,1953.64 Z " />
<path stroke="none" fill="#000000" transform="matrix(0.0666667 0 0 0.0666667 -75.0003 -115)" d="M 1173.87,1924.24 L 1173.87,1909.24 L 1515.06,1909.24 L 1512.69,1924.24 L 1173.87,1924.24 Z " />
<path stroke="none" fill="#000000" transform="matrix(0.0666667 0 0 0.0666667 -75.0003 -115)" d="M 1173.87,1985.44 L 1173.87,1970.44 L 1504.18,1970.44 L 1504.18,1985.44 L 1173.87,1985.44 Z " />
<path stroke="#000000" stroke-width="15" fill="none" transform="matrix(0.0666667 0 0 0.0666667 -75.0003 -115)" d="M 2888.01,1802.4 L 2911,1802.4 " />
<path stroke="#000000" stroke-width="15" fill="none" transform="matrix(0.0666667 0 0 0.0666667 -75.0003 -115)" d="M 2911,1802.4 L 2911,2113.2 " />
<path stroke="#000000" stroke-width="15" fill="none" transform="matrix(0.0666667 0 0 0.0666667 -75.0003 -115)" d="M 2911,2113.2 L 2888.01,2113.2 " />
<path stroke="#000000" stroke-width="15" fill="none" transform="matrix(0.0666667 0 0 0.0666667 -75.0003 -115)" d="M 1354.79,2113.2 L 1331.8,2113.2 " />
<path stroke="#000000" stroke-width="15" fill="none" transform="matrix(0.0666667 0 0 0.0666667 -75.0003 -115)" d="M 1331.8,2113.2 L 1331.8,1802.4 " />
<path stroke="#000000" stroke-width="15" fill="none" transform="matrix(0.0666667 0 0 0.0666667 -75.0003 -115)" d="M 1331.8,1802.4 L 1354.79,1802.4 " />
<text x="0" y="0" stroke="none" fill="#000000" transform="matrix(0.0666667 0 0 0.0666667 121.306 29.8)" font-style="normal" font-weight="normal" font-size="160px" font-family="Arial" >
n</text>
<text x="0" y="0" stroke="none" fill="#000000" transform="matrix(0.0666667 0 0 0.0666667 157.845 56.2)" font-style="normal" font-weight="normal" font-size="240px" font-family="Arial" >
P(CO</text>
<text x="0" y="0" stroke="none" fill="#000000" transform="matrix(0.0666667 0 0 0.0666667 197.871 59.6667)" font-style="normal" font-weight="normal" font-size="180px" font-family="Arial" >
2</text>
<text x="0" y="0" stroke="none" fill="#000000" transform="matrix(0.0666667 0 0 0.0666667 204.545 56.2)" font-style="normal" font-weight="normal" font-size="240px" font-family="Arial" >
) </text>
<text x="0" y="0" stroke="none" fill="#000000" transform="matrix(0.0666667 0 0 0.0666667 214.345 56.2)" font-style="normal" font-weight="normal" font-size="240px" font-family="Arial" >
= </text>
<text x="0" y="0" stroke="none" fill="#000000" transform="matrix(0.0666667 0 0 0.0666667 228.156 56.2)" font-style="normal" font-weight="normal" font-size="240px" font-family="Arial" >
6.7 </text>
<text x="0" y="0" stroke="none" fill="#000000" transform="matrix(0.0666667 0 0 0.0666667 254.886 56.2)" font-style="normal" font-weight="normal" font-size="240px" font-family="Arial" >
Barrer</text>
<text x="0" y="0" stroke="none" fill="#000000" transform="matrix(0.0666667 0 0 0.0666667 166.805 75.8667)" font-style="normal" font-weight="normal" font-size="240px" font-family="Symbol" >
a</text>
<text x="0" y="0" stroke="none" fill="#000000" transform="matrix(0.0666667 0 0 0.0666667 176.899 75.8667)" font-style="normal" font-weight="normal" font-size="240px" font-family="Arial" >
(C</text>
<text x="0" y="0" stroke="none" fill="#000000" transform="matrix(0.0666667 0 0 0.0666667 193.787 75.8667)" font-style="normal" font-weight="normal" font-size="240px" font-family="Arial" >
O</text>
<text x="0" y="0" stroke="none" fill="#000000" transform="matrix(0.0666667 0 0 0.0666667 206.253 79.3333)" font-style="normal" font-weight="normal" font-size="180px" font-family="Arial" >
2</text>
<text x="0" y="0" stroke="none" fill="#000000" transform="matrix(0.0666667 0 0 0.0666667 212.927 75.8667)" font-style="normal" font-weight="normal" font-size="240px" font-family="Arial" >
/N</text>
<text x="0" y="0" stroke="none" fill="#000000" transform="matrix(0.0666667 0 0 0.0666667 228.948 79.3333)" font-style="normal" font-weight="normal" font-size="180px" font-family="Arial" >
2</text>
<text x="0" y="0" stroke="none" fill="#000000" transform="matrix(0.0666667 0 0 0.0666667 235.622 75.8667)" font-style="normal" font-weight="normal" font-size="240px" font-family="Arial" >
) </text>
<text x="0" y="0" stroke="none" fill="#000000" transform="matrix(0.0666667 0 0 0.0666667 245.422 75.8667)" font-style="normal" font-weight="normal" font-size="240px" font-family="Arial" >
= </text>
<text x="0" y="0" stroke="none" fill="#000000" transform="matrix(0.0666667 0 0 0.0666667 259.233 75.8667)" font-style="normal" font-weight="normal" font-size="240px" font-family="Arial" >
27.9</text>
<text x="0" y="0" stroke="none" fill="#000000" transform="matrix(0.0666667 0 0 0.0666667 161.027 95.5333)" font-style="normal" font-weight="normal" font-size="240px" font-family="Symbol" >
a</text>
<text x="0" y="0" stroke="none" fill="#000000" transform="matrix(0.0666667 0 0 0.0666667 171.121 95.5333)" font-style="normal" font-weight="normal" font-size="240px" font-family="Arial" >
(CO</text>
<text x="0" y="0" stroke="none" fill="#000000" transform="matrix(0.0666667 0 0 0.0666667 200.476 99)" font-style="normal" font-weight="normal" font-size="180px" font-family="Arial" >
2</text>
<text x="0" y="0" stroke="none" fill="#000000" transform="matrix(0.0666667 0 0 0.0666667 207.15 95.5333)" font-style="normal" font-weight="normal" font-size="240px" font-family="Arial" >
/CH</text>
<text x="0" y="0" stroke="none" fill="#000000" transform="matrix(0.0666667 0 0 0.0666667 234.726 99)" font-style="normal" font-weight="normal" font-size="180px" font-family="Arial" >
4</text>
<text x="0" y="0" stroke="none" fill="#000000" transform="matrix(0.0666667 0 0 0.0666667 241.4 95.5333)" font-style="normal" font-weight="normal" font-size="240px" font-family="Arial" >
) </text>
<text x="0" y="0" stroke="none" fill="#000000" transform="matrix(0.0666667 0 0 0.0666667 251.2 95.5333)" font-style="normal" font-weight="normal" font-size="240px" font-family="Arial" >
= </text>
<text x="0" y="0" stroke="none" fill="#000000" transform="matrix(0.0666667 0 0 0.0666667 265.01 95.5333)" font-style="normal" font-weight="normal" font-size="240px" font-family="Arial" >
16.8</text>
</svg>
