<?xml version="1.0" standalone="no" ?>
<!DOCTYPE svg PUBLIC "-//W3C//DTD SVG 1.1//EN" "http://www.w3.org/Graphics/SVG/1.1/DTD/svg11.dtd">
<svg width="389px" height="172px" viewBox="0 0 389 172" style="background-color: #ffffff00" xmlns="http://www.w3.org/2000/svg" xmlns:xlink="http://www.w3.org/1999/xlink" version="1.1" >
<path stroke="none" fill="#000000" transform="matrix(0.0666667 0 0 0.0666667 -75.0003 -115)" d="M 2276.85,2337.67 L 2282.3,2345.17 L 2276.33,2352.67 L 1948.26,2352.67 L 1942.3,2345.17 L 1947.75,2337.67 L 2276.85,2337.67 Z " />
<text x="0" y="0" stroke="none" fill="#000000" transform="matrix(0.0666667 0 0 0.0666667 60.053 82.4917)" font-style="normal" font-weight="normal" font-size="240px" font-family="Arial" >
N</text>
<path stroke="none" fill="#000000" transform="matrix(0.0666667 0 0 0.0666667 -75.0003 -115)" d="M 1873.26,2685.43 L 1801.97,2652.18 L 1934.31,2344.84 L 1942.3,2345.17 L 1948.26,2352.67 L 1873.26,2685.43 Z " />
<path stroke="none" fill="#000000" transform="matrix(0.0666667 0 0 0.0666667 -75.0003 -115)" d="M 2004.27,2780.61 L 1995.45,2792.75 L 1801.97,2652.18 L 1873.26,2685.43 L 2004.27,2780.61 Z " />
<path stroke="none" fill="#000000" transform="matrix(0.0666667 0 0 0.0666667 -75.0003 -115)" d="M 2351.34,2685.43 L 2422.63,2652.18 L 2228.5,2793.22 L 2219.68,2781.09 L 2351.34,2685.43 Z " />
<path stroke="none" fill="#000000" transform="matrix(0.0666667 0 0 0.0666667 -75.0003 -115)" d="M 2276.33,2352.67 L 2282.3,2345.17 L 2290.29,2344.84 L 2422.63,2652.18 L 2351.34,2685.43 L 2276.33,2352.67 Z " />
<text x="0" y="0" stroke="none" fill="#000000" transform="matrix(0.0666667 0 0 0.0666667 99.4813 76.1729)" font-style="normal" font-weight="normal" font-size="240px" font-family="Arial" >
O</text>
<path stroke="none" fill="#000000" transform="matrix(0.0666667 0 0 0.0666667 -75.0003 -115)" d="M 2608.21,2700.22 L 2603.57,2714.49 L 2373.36,2639.69 L 2377.99,2625.42 L 2608.21,2700.22 Z " />
<path stroke="none" fill="#000000" transform="matrix(0.0666667 0 0 0.0666667 -75.0003 -115)" d="M 2589.3,2758.43 L 2584.66,2772.69 L 2354.45,2697.89 L 2359.08,2683.63 L 2589.3,2758.43 Z " />
<text x="0" y="0" stroke="none" fill="#000000" transform="matrix(0.0666667 0 0 0.0666667 19.6913 76.1729)" font-style="normal" font-weight="normal" font-size="240px" font-family="Arial" >
O</text>
<path stroke="none" fill="#000000" transform="matrix(0.0666667 0 0 0.0666667 -75.0003 -115)" d="M 1640.26,2772.59 L 1635.62,2758.33 L 1865.52,2683.63 L 1870.15,2697.89 L 1640.26,2772.59 Z " />
<path stroke="none" fill="#000000" transform="matrix(0.0666667 0 0 0.0666667 -75.0003 -115)" d="M 1621.34,2714.39 L 1616.71,2700.12 L 1846.6,2625.42 L 1851.24,2639.69 L 1621.34,2714.39 Z " />
<path stroke="none" fill="#000000" transform="matrix(0.0666667 0 0 0.0666667 -75.0003 -115)" d="M 1224.47,3774.1 L 1216.8,3788.47 L 1209.25,3792.71 L 1213.38,3444.07 L 1228.27,3452.91 L 1224.47,3774.1 Z " />
<path stroke="none" fill="#000000" transform="matrix(0.0666667 0 0 0.0666667 -75.0003 -115)" d="M 1509.32,3953.28 L 1509.22,3961.94 L 1498.95,3964.56 L 1209.25,3792.71 L 1216.8,3788.47 L 1233.07,3789.4 L 1509.32,3953.28 Z " />
<path stroke="none" fill="#000000" transform="matrix(0.0666667 0 0 0.0666667 -75.0003 -115)" d="M 1789.38,3795.97 L 1805.66,3795.43 L 1813.11,3799.85 L 1519.43,3964.8 L 1509.22,3961.94 L 1509.32,3953.28 L 1789.38,3795.97 Z " />
<path stroke="none" fill="#000000" transform="matrix(0.0666667 0 0 0.0666667 -75.0003 -115)" d="M 1802.13,3459.7 L 1809.68,3455.45 L 1817.12,3460.31 L 1813.11,3799.85 L 1805.66,3795.43 L 1798.33,3780.88 L 1802.13,3459.7 Z " />
<path stroke="none" fill="#000000" transform="matrix(0.0666667 0 0 0.0666667 -75.0003 -115)" d="M 1517.16,3290.64 L 1517.36,3273.33 L 1809.4,3446.57 L 1809.68,3455.45 L 1802.13,3459.7 L 1517.16,3290.64 Z " />
<path stroke="none" fill="#000000" transform="matrix(0.0666667 0 0 0.0666667 -75.0003 -115)" d="M 1228.27,3452.91 L 1213.38,3444.07 L 1517.36,3273.33 L 1517.16,3290.64 L 1228.27,3452.91 Z " />
<path stroke="none" fill="#000000" transform="matrix(0.0666667 0 0 0.0666667 -75.0003 -115)" d="M 1513.8,3574.36 L 1512.74,3664.73 L 1233.07,3789.4 L 1216.8,3788.47 L 1224.47,3774.1 L 1513.8,3574.36 Z " />
<path stroke="none" fill="#000000" transform="matrix(0.0666667 0 0 0.0666667 -75.0003 -115)" d="M 1798.33,3780.88 L 1805.66,3795.43 L 1789.38,3795.97 L 1512.74,3664.73 L 1513.8,3574.36 L 1798.33,3780.88 Z " />
<path stroke="none" fill="#000000" transform="matrix(0.0666667 0 0 0.0666667 -75.0003 -115)" d="M 1342.2,4258.18 L 1329.3,4250.53 L 1498.95,3964.56 L 1509.22,3961.94 L 1509.05,3976.94 L 1342.2,4258.18 Z " />
<path stroke="none" fill="#000000" transform="matrix(0.0666667 0 0 0.0666667 -75.0003 -115)" d="M 1682.27,4254.7 L 1669.19,4262.05 L 1509.05,3976.94 L 1509.22,3961.94 L 1519.43,3964.8 L 1682.27,4254.7 Z " />
<path stroke="none" fill="#000000" transform="matrix(0.0666667 0 0 0.0666667 -75.0003 -115)" d="M 2099.24,3246.48 L 2113.04,3328.4 L 1817.12,3460.31 L 1809.68,3455.45 L 1809.4,3446.57 L 2099.24,3246.48 Z " />
<path stroke="none" fill="#000000" transform="matrix(0.0666667 0 0 0.0666667 -75.0003 -115)" d="M 2113.04,3328.4 L 2099.24,3246.48 L 2102.84,3001.74 L 2117.84,3001.96 L 2113.04,3328.4 Z " />
<path stroke="none" fill="#000000" transform="matrix(0.0666667 0 0 0.0666667 -75.0003 -115)" d="M 2378.39,2025.17 L 2387.37,2021.81 L 2393.38,2027.56 L 2290.29,2344.84 L 2282.3,2345.17 L 2276.85,2337.67 L 2378.39,2025.17 Z " />
<path stroke="none" fill="#000000" transform="matrix(0.0666667 0 0 0.0666667 -75.0003 -115)" d="M 2112.3,1867.15 L 2112.3,1770.24 L 2388.9,2013.22 L 2387.37,2021.81 L 2378.39,2025.17 L 2112.3,1867.15 Z " />
<path stroke="none" fill="#000000" transform="matrix(0.0666667 0 0 0.0666667 -75.0003 -115)" d="M 1846.21,2025.17 L 1837.23,2021.81 L 1835.53,2013.37 L 2112.3,1770.24 L 2112.3,1867.15 L 1846.21,2025.17 Z " />
<path stroke="none" fill="#000000" transform="matrix(0.0666667 0 0 0.0666667 -75.0003 -115)" d="M 1947.75,2337.67 L 1942.3,2345.17 L 1934.31,2344.84 L 1831.28,2027.76 L 1837.23,2021.81 L 1846.21,2025.17 L 1947.75,2337.67 Z " />
<path stroke="none" fill="#000000" transform="matrix(0.0666667 0 0 0.0666667 -75.0003 -115)" d="M 2709.36,1892.44 L 2712.09,1907.44 L 2393.38,2027.56 L 2387.37,2021.81 L 2388.9,2013.22 L 2709.36,1892.44 Z " />
<path stroke="none" fill="#000000" transform="matrix(0.0666667 0 0 0.0666667 -75.0003 -115)" d="M 1512.69,1924.24 L 1515.06,1909.24 L 1835.53,2013.37 L 1837.23,2021.81 L 1831.28,2027.76 L 1512.69,1924.24 Z " />
<path stroke="none" fill="#000000" transform="matrix(0.0666667 0 0 0.0666667 -75.0003 -115)" d="M 3050.72,1892.44 L 3050.72,1907.44 L 2712.09,1907.44 L 2709.36,1892.44 L 3050.72,1892.44 Z " />
<path stroke="none" fill="#000000" transform="matrix(0.0666667 0 0 0.0666667 -75.0003 -115)" d="M 3050.72,1953.64 L 3050.72,1968.64 L 2721.87,1968.64 L 2721.87,1953.64 L 3050.72,1953.64 Z " />
<path stroke="none" fill="#000000" transform="matrix(0.0666667 0 0 0.0666667 -75.0003 -115)" d="M 1173.87,1924.24 L 1173.87,1909.24 L 1515.06,1909.24 L 1512.69,1924.24 L 1173.87,1924.24 Z " />
<path stroke="none" fill="#000000" transform="matrix(0.0666667 0 0 0.0666667 -75.0003 -115)" d="M 1173.87,1985.44 L 1173.87,1970.44 L 1504.18,1970.44 L 1504.18,1985.44 L 1173.87,1985.44 Z " />
<path stroke="#000000" stroke-width="15" fill="none" transform="matrix(0.0666667 0 0 0.0666667 -75.0003 -115)" d="M 2888.01,1802.4 L 2911,1802.4 " />
<path stroke="#000000" stroke-width="15" fill="none" transform="matrix(0.0666667 0 0 0.0666667 -75.0003 -115)" d="M 2911,1802.4 L 2911,2113.2 " />
<path stroke="#000000" stroke-width="15" fill="none" transform="matrix(0.0666667 0 0 0.0666667 -75.0003 -115)" d="M 2911,2113.2 L 2888.01,2113.2 " />
<path stroke="#000000" stroke-width="15" fill="none" transform="matrix(0.0666667 0 0 0.0666667 -75.0003 -115)" d="M 1354.79,2113.2 L 1331.8,2113.2 " />
<path stroke="#000000" stroke-width="15" fill="none" transform="matrix(0.0666667 0 0 0.0666667 -75.0003 -115)" d="M 1331.8,2113.2 L 1331.8,1802.4 " />
<path stroke="#000000" stroke-width="15" fill="none" transform="matrix(0.0666667 0 0 0.0666667 -75.0003 -115)" d="M 1331.8,1802.4 L 1354.79,1802.4 " />
<text x="0" y="0" stroke="none" fill="#000000" transform="matrix(0.0666667 0 0 0.0666667 121.306 29.8)" font-style="normal" font-weight="normal" font-size="160px" font-family="Arial" >
n</text>
<text x="0" y="0" stroke="none" fill="#000000" transform="matrix(0.0666667 0 0 0.0666667 134.2 74.6)" font-style="normal" font-weight="bold" font-size="240px" font-family="Arial" >
PNBpin</text>
<path stroke="none" fill="#000000" transform="matrix(0.0666667 0 0 0.0666667 -75.0003 -115)" d="M 6140.85,2817.67 L 6151.75,2832.67 L 5800.85,2832.67 L 5811.75,2817.67 L 6140.85,2817.67 Z " />
<path stroke="none" fill="#000000" transform="matrix(0.0666667 0 0 0.0666667 -75.0003 -115)" d="M 6242.39,2505.16 L 6251.36,2501.81 L 6257.38,2507.56 L 6151.75,2832.67 L 6140.85,2817.67 L 6242.39,2505.16 Z " />
<path stroke="none" fill="#000000" transform="matrix(0.0666667 0 0 0.0666667 -75.0003 -115)" d="M 5976.3,2347.15 L 5976.3,2250.24 L 6252.9,2493.22 L 6251.36,2501.81 L 6242.39,2505.16 L 5976.3,2347.15 Z " />
<path stroke="none" fill="#000000" transform="matrix(0.0666667 0 0 0.0666667 -75.0003 -115)" d="M 5710.21,2505.16 L 5701.23,2501.81 L 5699.53,2493.37 L 5976.3,2250.24 L 5976.3,2347.15 L 5710.21,2505.16 Z " />
<path stroke="none" fill="#000000" transform="matrix(0.0666667 0 0 0.0666667 -75.0003 -115)" d="M 5811.75,2817.67 L 5800.85,2832.67 L 5695.28,2507.76 L 5701.23,2501.81 L 5710.21,2505.16 L 5811.75,2817.67 Z " />
<path stroke="none" fill="#000000" transform="matrix(0.0666667 0 0 0.0666667 -75.0003 -115)" d="M 6573.36,2372.44 L 6576.09,2387.44 L 6257.38,2507.56 L 6251.36,2501.81 L 6252.9,2493.22 L 6573.36,2372.44 Z " />
<path stroke="none" fill="#000000" transform="matrix(0.0666667 0 0 0.0666667 -75.0003 -115)" d="M 5376.69,2404.24 L 5379.06,2389.24 L 5699.53,2493.37 L 5701.23,2501.81 L 5695.28,2507.76 L 5376.69,2404.24 Z " />
<path stroke="none" fill="#000000" transform="matrix(0.0666667 0 0 0.0666667 -75.0003 -115)" d="M 6914.72,2372.44 L 6914.72,2387.44 L 6576.09,2387.44 L 6573.36,2372.44 L 6914.72,2372.44 Z " />
<path stroke="none" fill="#000000" transform="matrix(0.0666667 0 0 0.0666667 -75.0003 -115)" d="M 6914.72,2433.64 L 6914.72,2448.64 L 6585.87,2448.64 L 6585.87,2433.64 L 6914.72,2433.64 Z " />
<path stroke="none" fill="#000000" transform="matrix(0.0666667 0 0 0.0666667 -75.0003 -115)" d="M 5037.87,2404.24 L 5037.87,2389.24 L 5379.06,2389.24 L 5376.69,2404.24 L 5037.87,2404.24 Z " />
<path stroke="none" fill="#000000" transform="matrix(0.0666667 0 0 0.0666667 -75.0003 -115)" d="M 5037.87,2465.44 L 5037.87,2450.44 L 5368.18,2450.44 L 5368.18,2465.44 L 5037.87,2465.44 Z " />
<path stroke="#000000" stroke-width="15" fill="none" transform="matrix(0.0666667 0 0 0.0666667 -75.0003 -115)" d="M 6752.01,2282.4 L 6775,2282.4 " />
<path stroke="#000000" stroke-width="15" fill="none" transform="matrix(0.0666667 0 0 0.0666667 -75.0003 -115)" d="M 6775,2282.4 L 6775,2593.2 " />
<path stroke="#000000" stroke-width="15" fill="none" transform="matrix(0.0666667 0 0 0.0666667 -75.0003 -115)" d="M 6775,2593.2 L 6752.01,2593.2 " />
<path stroke="#000000" stroke-width="15" fill="none" transform="matrix(0.0666667 0 0 0.0666667 -75.0003 -115)" d="M 5218.79,2593.2 L 5195.8,2593.2 " />
<path stroke="#000000" stroke-width="15" fill="none" transform="matrix(0.0666667 0 0 0.0666667 -75.0003 -115)" d="M 5195.8,2593.2 L 5195.8,2282.4 " />
<path stroke="#000000" stroke-width="15" fill="none" transform="matrix(0.0666667 0 0 0.0666667 -75.0003 -115)" d="M 5195.8,2282.4 L 5218.79,2282.4 " />
<text x="0" y="0" stroke="none" fill="#000000" transform="matrix(0.0666667 0 0 0.0666667 378.906 61.8)" font-style="normal" font-weight="normal" font-size="160px" font-family="Arial" >
n</text>
<text x="0" y="0" stroke="none" fill="#000000" transform="matrix(0.0666667 0 0 0.0666667 308.6 106.6)" font-style="normal" font-weight="bold" font-size="240px" font-family="Arial" >
PNB</text>
</svg>
