<?xml version="1.0" standalone="no" ?>
<!DOCTYPE svg PUBLIC "-//W3C//DTD SVG 1.1//EN" "http://www.w3.org/Graphics/SVG/1.1/DTD/svg11.dtd">
<svg width="263px" height="143px" viewBox="0 0 263 143" style="background-color: #ffffff00" xmlns="http://www.w3.org/2000/svg" xmlns:xlink="http://www.w3.org/1999/xlink" version="1.1" >
<path stroke="none" fill="#0000ff" transform="matrix(0.0833333 0 0 0.0833333 -97.0917 -500)" d="M 2359.1,7208.27 L 2350.12,7213.46 L 2350.12,6964.28 L 2359.1,6969.47 L 2359.1,7208.27 Z " />
<path stroke="none" fill="#0000ff" transform="matrix(0.0833333 0 0 0.0833333 -97.0917 -500)" d="M 2565.9,7327.67 L 2565.9,7338.04 L 2350.12,7213.46 L 2359.1,7208.27 L 2565.9,7327.67 Z " />
<path stroke="none" fill="#0000ff" transform="matrix(0.0833333 0 0 0.0833333 -97.0917 -500)" d="M 2772.71,7208.27 L 2777.2,7210.86 L 2778.4,7215.35 L 2565.9,7338.04 L 2565.9,7327.67 L 2772.71,7208.27 Z " />
<path stroke="none" fill="#0000ff" transform="matrix(0.0833333 0 0 0.0833333 -97.0917 -500)" d="M 2772.71,6969.47 L 2777.2,6966.88 L 2781.69,6971.37 L 2781.69,7206.37 L 2777.2,7210.86 L 2772.71,7208.27 L 2772.71,6969.47 Z " />
<path stroke="none" fill="#0000ff" transform="matrix(0.0833333 0 0 0.0833333 -97.0917 -500)" d="M 2565.9,6850.07 L 2565.9,6839.7 L 2778.4,6962.39 L 2777.2,6966.88 L 2772.71,6969.47 L 2565.9,6850.07 Z " />
<path stroke="none" fill="#0000ff" transform="matrix(0.0833333 0 0 0.0833333 -97.0917 -500)" d="M 2359.1,6969.47 L 2350.12,6964.28 L 2565.9,6839.7 L 2565.9,6850.07 L 2359.1,6969.47 Z " />
<path stroke="none" fill="#0000ff" transform="matrix(0.0833333 0 0 0.0833333 -97.0917 -500)" d="M 3016.69,7206.37 L 3021.19,7210.86 L 3019.32,7215.35 L 2778.4,7215.35 L 2777.2,7210.86 L 2781.69,7206.37 L 3016.69,7206.37 Z " />
<path stroke="none" fill="#0000ff" transform="matrix(0.0833333 0 0 0.0833333 -97.0917 -500)" d="M 3016.69,6971.37 L 3021.19,6966.88 L 3025.68,6968.74 L 3025.68,7209 L 3021.19,7210.86 L 3016.69,7206.37 L 3016.69,6971.37 Z " />
<path stroke="none" fill="#0000ff" transform="matrix(0.0833333 0 0 0.0833333 -97.0917 -500)" d="M 2967.9,7015.68 L 2976.88,7015.68 L 2976.88,7162.07 L 2967.9,7162.07 L 2967.9,7015.68 Z " />
<path stroke="none" fill="#0000ff" transform="matrix(0.0833333 0 0 0.0833333 -97.0917 -500)" d="M 2781.69,6971.37 L 2777.2,6966.88 L 2778.4,6962.39 L 3019.32,6962.39 L 3021.19,6966.88 L 3016.69,6971.37 L 2781.69,6971.37 Z " />
<text x="0" y="0" stroke="none" fill="#0000ff" transform="matrix(0.0833333 0 0 0.0833333 164.842 119.824)" font-style="normal" font-weight="normal" font-size="140px" font-family="Arial" >
Cl</text>
<path stroke="none" fill="#0000ff" transform="matrix(0.0833333 0 0 0.0833333 -97.0917 -500)" d="M 3148.29,7331.62 L 3141.94,7337.97 L 3019.32,7215.35 L 3021.19,7210.86 L 3025.68,7209 L 3148.29,7331.62 Z " />
<text x="0" y="0" stroke="none" fill="#0000ff" transform="matrix(0.0833333 0 0 0.0833333 164.842 70.738)" font-style="normal" font-weight="normal" font-size="140px" font-family="Arial" >
COCOOCH(CF</text>
<text x="0" y="0" stroke="none" fill="#0000ff" transform="matrix(0.0833333 0 0 0.0833333 245.302 73.3213)" font-style="normal" font-weight="normal" font-size="105px" font-family="Arial" >
3</text>
<text x="0" y="0" stroke="none" fill="#0000ff" transform="matrix(0.0833333 0 0 0.0833333 250.177 70.738)" font-style="normal" font-weight="normal" font-size="140px" font-family="Arial" >
)</text>
<text x="0" y="0" stroke="none" fill="#0000ff" transform="matrix(0.0833333 0 0 0.0833333 254.094 73.3213)" font-style="normal" font-weight="normal" font-size="105px" font-family="Arial" >
2</text>
<path stroke="none" fill="#0000ff" transform="matrix(0.0833333 0 0 0.0833333 -97.0917 -500)" d="M 3135.27,6846.44 L 3141.62,6852.79 L 3025.68,6968.74 L 3021.19,6966.88 L 3019.32,6962.39 L 3135.27,6846.44 Z " />
<path stroke="none" fill="#000000" transform="matrix(0.0833333 0 0 0.0833333 -97.0917 -500)" d="M 2114.1,7094.62 L 1205.6,7094.62 L 1205.6,7085.62 L 2114.1,7085.62 Z " />
<path stroke="none" fill="#000000" transform="matrix(0.0833333 0 0 0.0833333 -97.0917 -500)" d="M 2200.6,7090.12 C 2200.6,7090.12 2100.61,7113.85 2100.61,7113.85 C 2100.61,7113.85 2113.1,7100.5 2113.1,7090.12 C 2113.1,7079.3 2100.61,7065.39 2100.61,7065.39 C 2100.61,7065.39 2200.6,7090.12 2200.6,7090.12 C 2200.6,7090.12 2200.6,7090.12 2200.6,7090.12 " />
<path stroke="#000000" stroke-width="1" fill="none" transform="matrix(0.0833333 0 0 0.0833333 -97.0917 -500)" d="M 2200.6,7090.12 C 2200.6,7090.12 2100.61,7113.85 2100.61,7113.85 C 2100.61,7113.85 2113.1,7100.5 2113.1,7090.12 C 2113.1,7079.3 2100.61,7065.39 2100.61,7065.39 C 2100.61,7065.39 2200.6,7090.12 2200.6,7090.12 C 2200.6,7090.12 2200.6,7090.12 2200.6,7090.12 " />
<text x="0" y="0" stroke="none" fill="#000000" transform="matrix(0.0833333 0 0 0.0833333 65.1174 27.9217)" font-style="normal" font-weight="normal" font-size="140px" font-family="Arial" >
Cl</text>
<path stroke="none" fill="#000000" transform="matrix(0.0833333 0 0 0.0833333 -97.0917 -500)" d="M 2307.15,6276.07 L 2307.15,6285.05 L 2093.51,6285.05 L 2093.51,6276.07 L 2307.15,6276.07 Z " />
<path stroke="none" fill="#000000" transform="matrix(0.0833333 0 0 0.0833333 -97.0917 -500)" d="M 2551.13,6227.27 L 2551.13,6236.26 L 2307.15,6236.26 L 2307.15,6227.27 L 2551.13,6227.27 Z " />
<path stroke="none" fill="#000000" transform="matrix(0.0833333 0 0 0.0833333 -97.0917 -500)" d="M 2551.13,6276.07 L 2551.13,6285.05 L 2307.15,6285.05 L 2307.15,6276.07 L 2551.13,6276.07 Z " />
<path stroke="none" fill="#000000" transform="matrix(0.0833333 0 0 0.0833333 -97.0917 -500)" d="M 2551.13,6324.86 L 2551.13,6333.85 L 2307.15,6333.85 L 2307.15,6324.86 L 2551.13,6324.86 Z " />
<text x="0" y="0" stroke="none" fill="#000000" transform="matrix(0.0833333 0 0 0.0833333 131.626 27.9217)" font-style="normal" font-weight="normal" font-size="140px" font-family="Arial" >
COCOOCH(CF</text>
<text x="0" y="0" stroke="none" fill="#000000" transform="matrix(0.0833333 0 0 0.0833333 212.086 30.505)" font-style="normal" font-weight="normal" font-size="105px" font-family="Arial" >
3</text>
<text x="0" y="0" stroke="none" fill="#000000" transform="matrix(0.0833333 0 0 0.0833333 216.961 27.9217)" font-style="normal" font-weight="normal" font-size="140px" font-family="Arial" >
)</text>
<text x="0" y="0" stroke="none" fill="#000000" transform="matrix(0.0833333 0 0 0.0833333 220.878 30.505)" font-style="normal" font-weight="normal" font-size="105px" font-family="Arial" >
2</text>
<path stroke="none" fill="#000000" transform="matrix(0.0833333 0 0 0.0833333 -97.0917 -500)" d="M 2727.62,6276.07 L 2727.62,6285.05 L 2551.13,6285.05 L 2551.13,6276.07 L 2727.62,6276.07 Z " />
<path stroke="none" fill="#000000" transform="matrix(0.0833333 0 0 0.0833333 -97.0917 -500)" d="M 1214.59,6409.96 L 1205.6,6415.15 L 1205.6,6165.97 L 1214.59,6171.16 L 1214.59,6409.96 Z " />
<path stroke="none" fill="#000000" transform="matrix(0.0833333 0 0 0.0833333 -97.0917 -500)" d="M 1421.39,6529.36 L 1421.39,6539.73 L 1205.6,6415.15 L 1214.59,6409.96 L 1421.39,6529.36 Z " />
<path stroke="none" fill="#000000" transform="matrix(0.0833333 0 0 0.0833333 -97.0917 -500)" d="M 1628.2,6409.96 L 1637.18,6415.15 L 1421.39,6539.73 L 1421.39,6529.36 L 1628.2,6409.96 Z " />
<path stroke="none" fill="#000000" transform="matrix(0.0833333 0 0 0.0833333 -97.0917 -500)" d="M 1628.2,6171.16 L 1637.18,6165.97 L 1637.18,6415.15 L 1628.2,6409.96 L 1628.2,6171.16 Z " />
<path stroke="none" fill="#000000" transform="matrix(0.0833333 0 0 0.0833333 -97.0917 -500)" d="M 1579.4,6196.74 L 1588.39,6196.74 L 1588.39,6384.38 L 1579.4,6384.38 L 1579.4,6196.74 Z " />
<path stroke="none" fill="#000000" transform="matrix(0.0833333 0 0 0.0833333 -97.0917 -500)" d="M 1421.39,6051.76 L 1421.39,6041.39 L 1637.18,6165.97 L 1628.2,6171.16 L 1421.39,6051.76 Z " />
<path stroke="none" fill="#000000" transform="matrix(0.0833333 0 0 0.0833333 -97.0917 -500)" d="M 1214.59,6171.16 L 1205.6,6165.97 L 1421.39,6041.39 L 1421.39,6051.76 L 1214.59,6171.16 Z " />
<text x="0" y="0" stroke="none" fill="#000000" transform="matrix(0.0833333 0 0 0.0833333 15.4379 106.927)" font-style="normal" font-weight="normal" font-size="140px" font-family="Arial" >
20 </text>
<text x="0" y="0" stroke="none" fill="#000000" transform="matrix(0.0833333 0 0 0.0833333 31.6879 102.385)" font-style="normal" font-weight="normal" font-size="105px" font-family="Arial" >
o</text>
<text x="0" y="0" stroke="none" fill="#000000" transform="matrix(0.0833333 0 0 0.0833333 36.5542 106.927)" font-style="normal" font-weight="normal" font-size="140px" font-family="Arial" >
C, </text>
<text x="0" y="0" stroke="none" fill="#000000" transform="matrix(0.0833333 0 0 0.0833333 51.4795 106.927)" font-style="normal" font-weight="normal" font-size="140px" font-family="Arial" >
24 </text>
<text x="0" y="0" stroke="none" fill="#000000" transform="matrix(0.0833333 0 0 0.0833333 67.7295 106.927)" font-style="normal" font-weight="normal" font-size="140px" font-family="Arial" >
h</text>
<text x="0" y="0" stroke="none" fill="#0000ff" transform="matrix(0.0833333 0 0 0.0833333 123.084 136.562)" font-style="normal" font-weight="normal" font-size="140px" font-family="Arial" >
88 </text>
<text x="0" y="0" stroke="none" fill="#0000ff" transform="matrix(0.0833333 0 0 0.0833333 139.334 136.562)" font-style="normal" font-weight="normal" font-size="140px" font-family="Arial" >
%</text>
<text x="0" y="0" stroke="none" fill="#000000" transform="matrix(0.0833333 0 0 0.0833333 48.8121 27.9217)" font-style="normal" font-weight="normal" font-size="140px" font-family="Arial" >
+</text>
<text x="0" y="0" stroke="none" fill="#000000" transform="matrix(0.0833333 0 0 0.0833333 9.10814 85.0517)" font-style="normal" font-weight="normal" font-size="140px" font-family="Arial" >
(CF</text>
<text x="0" y="0" stroke="none" fill="#000000" transform="matrix(0.0833333 0 0 0.0833333 28.6168 87.6351)" font-style="normal" font-weight="normal" font-size="105px" font-family="Arial" >
3</text>
<text x="0" y="0" stroke="none" fill="#000000" transform="matrix(0.0833333 0 0 0.0833333 33.4918 85.0517)" font-style="normal" font-weight="normal" font-size="140px" font-family="Arial" >
)</text>
<text x="0" y="0" stroke="none" fill="#000000" transform="matrix(0.0833333 0 0 0.0833333 37.4084 87.6351)" font-style="normal" font-weight="normal" font-size="105px" font-family="Arial" >
2</text>
<text x="0" y="0" stroke="none" fill="#000000" transform="matrix(0.0833333 0 0 0.0833333 42.2834 85.0517)" font-style="normal" font-weight="normal" font-size="140px" font-family="Arial" >
CH-OH</text>
</svg>
