<?xml version="1.0" standalone="no" ?>
<!DOCTYPE svg PUBLIC "-//W3C//DTD SVG 1.1//EN" "http://www.w3.org/Graphics/SVG/1.1/DTD/svg11.dtd">
<svg width="619px" height="210px" viewBox="0 0 619 210" style="background-color: #ffffff00" xmlns="http://www.w3.org/2000/svg" xmlns:xlink="http://www.w3.org/1999/xlink" version="1.1" >
<path stroke="none" fill="#000000" transform="matrix(0.0666667 0 0 0.0666667 -7.10032 -214)" d="M 7235.09,4078.49 L 7218.9,4061.03 L 7256.63,4026.04 L 7272.82,4043.51 L 7235.09,4078.49 L 7235.09,4078.49 Z " />
<path stroke="none" fill="#000000" transform="matrix(0.0666667 0 0 0.0666667 -7.10032 -214)" d="M 7310.55,4008.52 L 7294.36,3991.06 L 7332.09,3956.08 L 7348.28,3973.54 L 7310.55,4008.52 L 7310.55,4008.52 Z " />
<path stroke="none" fill="#000000" transform="matrix(0.0666667 0 0 0.0666667 -7.10032 -214)" d="M 7386.01,3938.56 L 7369.83,3921.1 L 7407.56,3886.12 L 7423.74,3903.58 L 7386.01,3938.56 L 7386.01,3938.56 Z " />
<path stroke="none" fill="#000000" transform="matrix(0.0666667 0 0 0.0666667 -7.10032 -214)" d="M 7461.48,3868.6 L 7445.29,3851.14 L 7483.02,3816.16 L 7499.21,3833.62 L 7461.48,3868.6 L 7461.48,3868.6 Z " />
<path stroke="none" fill="#000000" transform="matrix(0.0666667 0 0 0.0666667 -7.10032 -214)" d="M 7536.94,3798.64 L 7520.75,3781.18 L 7555.19,3749.24 L 7572.28,3765.87 L 7536.94,3798.64 L 7536.94,3798.64 Z " />
<path stroke="none" fill="#000000" transform="matrix(0.0666667 0 0 0.0666667 -7.10032 -214)" d="M 7633.94,3676.23 L 7650.13,3693.69 L 7636.38,3706.44 L 7619.3,3689.81 L 7633.94,3676.23 L 7633.94,3676.23 Z " />
<path stroke="none" fill="#000000" transform="matrix(0.0666667 0 0 0.0666667 -7.10032 -214)" d="M 7687.86,3658.71 L 7671.67,3641.25 L 7694.43,3620.16 L 7694.29,3652.75 L 7687.86,3658.71 L 7687.86,3658.71 Z " />
<path stroke="none" fill="#000000" transform="matrix(0.0666667 0 0 0.0666667 -7.10032 -214)" d="M 6973.08,4029.28 L 6958.3,4047.95 L 6921.51,4018.82 L 6936.29,4000.16 L 6973.08,4029.28 L 6973.08,4029.28 Z " />
<path stroke="none" fill="#000000" transform="matrix(0.0666667 0 0 0.0666667 -7.10032 -214)" d="M 6899.51,3971.03 L 6884.73,3989.7 L 6847.95,3960.58 L 6862.73,3941.91 L 6899.51,3971.03 L 6899.51,3971.03 Z " />
<path stroke="none" fill="#000000" transform="matrix(0.0666667 0 0 0.0666667 -7.10032 -214)" d="M 6825.94,3912.78 L 6811.16,3931.45 L 6774.38,3902.33 L 6789.16,3883.66 L 6825.94,3912.78 L 6825.94,3912.78 Z " />
<path stroke="none" fill="#000000" transform="matrix(0.0666667 0 0 0.0666667 -7.10032 -214)" d="M 6752.38,3854.54 L 6737.6,3873.2 L 6700.81,3844.08 L 6715.59,3825.41 L 6752.38,3854.54 L 6752.38,3854.54 Z " />
<path stroke="none" fill="#000000" transform="matrix(0.0666667 0 0 0.0666667 -7.10032 -214)" d="M 6678.81,3796.29 L 6664.03,3814.95 L 6627.24,3785.83 L 6628.91,3783.72 L 6645.25,3769.71 L 6678.81,3796.29 L 6678.81,3796.29 Z " />
<path stroke="none" fill="#000000" transform="matrix(0.0666667 0 0 0.0666667 -7.10032 -214)" d="M 6553.68,3727.58 L 6568.46,3708.91 L 6575.51,3714.5 L 6557.1,3730.29 L 6553.68,3727.58 L 6553.68,3727.58 Z " />
<path stroke="none" fill="#000000" transform="matrix(0.0666667 0 0 0.0666667 -7.10032 -214)" d="M 6531.67,3679.79 L 6516.89,3698.46 L 6505.41,3689.37 L 6505.7,3659.23 L 6531.67,3679.79 L 6531.67,3679.79 Z " />
<text x="0" y="0" stroke="none" fill="#000000" transform="matrix(0.0666667 0 0 0.0666667 86.8621 96.6148)" font-style="normal" font-weight="normal" font-size="280px" font-family="Times New Roman" >
H</text>
<path stroke="none" fill="#000000" transform="matrix(0.0666667 0 0 0.0666667 -7.10032 -214)" d="M 709.047,5659.22 L 683.488,5647.29 L 704.36,5635.4 L 935.794,5635.57 L 948.889,5659.39 L 709.047,5659.22 L 709.047,5659.22 Z " />
<path stroke="none" fill="#000000" transform="matrix(0.0666667 0 0 0.0666667 -7.10032 -214)" d="M 1577.76,5636.05 L 1598.3,5647.98 L 1572.31,5659.86 L 1309.3,5659.66 L 1323.38,5635.86 L 1577.76,5636.05 L 1577.76,5636.05 Z " />
<path stroke="none" fill="#000000" transform="matrix(0.0666667 0 0 0.0666667 -7.10032 -214)" d="M 1048.56,5659.47 L 1035.46,5635.65 L 1221.98,5635.79 L 1207.89,5659.59 L 1048.56,5659.47 L 1048.56,5659.47 Z " />
<path stroke="none" fill="#000000" transform="matrix(0.0666667 0 0 0.0666667 -7.10032 -214)" d="M 1894.52,4916.97 L 1882.5,4921.79 L 1851.15,4907.28 L 1626.05,4682.17 L 1642.89,4665.34 L 1894.52,4916.97 Z " />
<path stroke="none" fill="#000000" transform="matrix(0.0666667 0 0 0.0666667 -7.10032 -214)" d="M 394.219,4910.43 L 405.954,4921.43 L 416.895,4983.38 L 405.772,5696.49 L 392.935,5756.11 L 380.922,5762.92 L 394.219,4910.43 Z " />
<path stroke="none" fill="#000000" transform="matrix(0.0666667 0 0 0.0666667 -7.10032 -214)" d="M 380.922,5762.92 L 392.935,5756.11 L 457.774,5779.83 L 1082.27,6140.72 L 1134.9,6184.88 L 1134.91,6198.64 L 380.922,5762.92 Z " />
<path stroke="none" fill="#000000" transform="matrix(0.0666667 0 0 0.0666667 -7.10032 -214)" d="M 1134.91,6198.64 L 1134.9,6184.88 L 1190.12,6139.13 L 1800.2,5785.62 L 1862.98,5763 L 1874.73,5769.95 L 1134.91,6198.64 Z " />
<path stroke="none" fill="#000000" transform="matrix(0.0666667 0 0 0.0666667 -7.10032 -214)" d="M 1874.73,5769.95 L 1862.98,5763 L 1852.45,5703.46 L 1869.04,4988.86 L 1882.5,4921.79 L 1894.52,4916.97 L 1874.73,5769.95 Z " />
<path stroke="none" fill="#000000" transform="matrix(0.0666667 0 0 0.0666667 -7.10032 -214)" d="M 444.297,4930.29 L 405.954,4921.43 L 394.219,4910.43 L 1148.46,4849.77 L 1148.45,4861.71 L 1126.51,4875.42 L 444.297,4930.29 Z " />
<path stroke="none" fill="#000000" transform="matrix(0.0666667 0 0 0.0666667 -7.10032 -214)" d="M 1851.15,4907.28 L 1882.5,4921.79 L 1843.55,4930.55 L 1170.01,4875.42 L 1148.45,4861.71 L 1148.46,4849.77 L 1851.15,4907.28 Z " />
<path stroke="none" fill="#000000" transform="matrix(0.0666667 0 0 0.0666667 -7.10032 -214)" d="M 1601.59,5662.39 L 1598.3,5647.98 L 1613.57,5641.63 L 1841.45,5740.66 L 1862.98,5763 L 1821.4,5757.91 L 1601.59,5662.39 Z " />
<path stroke="none" fill="#000000" transform="matrix(0.0666667 0 0 0.0666667 -7.10032 -214)" d="M 437.731,5752.05 L 392.935,5756.11 L 414.987,5735.14 L 668.087,5640.35 L 683.488,5647.29 L 679.783,5661.39 L 437.731,5752.05 Z " />
<path stroke="none" fill="#000000" transform="matrix(0.0666667 0 0 0.0666667 -7.10032 -214)" d="M 685.802,5620.01 L 683.488,5647.29 L 668.087,5640.35 L 584.852,5422.66 L 598.388,5391.39 L 685.802,5620.01 L 685.802,5620.01 Z " />
<path stroke="none" fill="#000000" transform="matrix(0.0666667 0 0 0.0666667 -7.10032 -214)" d="M 416.895,4983.38 L 405.954,4921.43 L 429.265,4949.07 L 553.769,5274.69 L 540.233,5305.96 L 416.895,4983.38 L 416.895,4983.38 Z " />
<path stroke="none" fill="#000000" transform="matrix(0.0666667 0 0 0.0666667 -7.10032 -214)" d="M 1859.03,4949.1 L 1882.5,4921.79 L 1869.04,4988.86 L 1737.93,5323.87 L 1725.14,5291.21 L 1859.03,4949.1 L 1859.03,4949.1 Z " />
<path stroke="none" fill="#000000" transform="matrix(0.0666667 0 0 0.0666667 -7.10032 -214)" d="M 1613.57,5641.63 L 1598.3,5647.98 L 1596.28,5620.47 L 1678.27,5410.97 L 1691.06,5443.63 L 1613.57,5641.63 L 1613.57,5641.63 Z " />
<path stroke="none" fill="#000000" transform="matrix(0.0666667 0 0 0.0666667 -7.10032 -214)" d="M 1145.68,6154.17 L 1134.9,6184.88 L 1121.73,6150.68 L 1112.38,5897.18 L 1123.92,5887.16 L 1136.2,5897.17 L 1145.68,6154.17 Z " />
<path stroke="none" fill="#000000" transform="matrix(0.0666667 0 0 0.0666667 -7.10032 -214)" d="M 1190.12,6139.13 L 1134.9,6184.88 L 1145.68,6154.17 L 1374.23,5889.37 L 1411.01,5883.19 L 1190.12,6139.13 L 1190.12,6139.13 Z " />
<path stroke="none" fill="#000000" transform="matrix(0.0666667 0 0 0.0666667 -7.10032 -214)" d="M 1572.31,5659.86 L 1598.3,5647.98 L 1601.59,5662.39 L 1500.38,5779.65 L 1463.59,5785.83 L 1572.31,5659.86 L 1572.31,5659.86 Z " />
<path stroke="none" fill="#000000" transform="matrix(0.0666667 0 0 0.0666667 -7.10032 -214)" d="M 679.783,5661.39 L 683.488,5647.29 L 709.047,5659.22 L 817.008,5787.79 L 780.407,5781.23 L 679.783,5661.39 L 679.783,5661.39 Z " />
<path stroke="none" fill="#000000" transform="matrix(0.0666667 0 0 0.0666667 -7.10032 -214)" d="M 1121.73,6150.68 L 1134.9,6184.88 L 1082.27,6140.72 L 868.084,5885.64 L 904.686,5892.2 L 1121.73,6150.68 L 1121.73,6150.68 Z " />
<path stroke="none" fill="#000000" transform="matrix(0.0666667 0 0 0.0666667 -7.10032 -214)" d="M 704.36,5635.4 L 683.488,5647.29 L 685.802,5620.01 L 810.971,5408.53 L 824.296,5432.77 L 704.36,5635.4 L 704.36,5635.4 Z " />
<path stroke="none" fill="#000000" transform="matrix(0.0666667 0 0 0.0666667 -7.10032 -214)" d="M 1126.51,4875.42 L 1148.45,4861.71 L 1148.28,4885.38 L 1055.49,5042.16 L 1027.83,5042.14 L 1126.51,4875.42 L 1126.51,4875.42 Z " />
<path stroke="none" fill="#000000" transform="matrix(0.0666667 0 0 0.0666667 -7.10032 -214)" d="M 875.948,5345.5 L 862.624,5321.26 L 976.179,5129.41 L 1003.84,5129.43 L 875.948,5345.5 L 875.948,5345.5 Z " />
<path stroke="none" fill="#000000" transform="matrix(0.0666667 0 0 0.0666667 -7.10032 -214)" d="M 1596.28,5620.47 L 1598.3,5647.98 L 1577.76,5636.05 L 1452.68,5417.42 L 1466.62,5393.85 L 1596.28,5620.47 L 1596.28,5620.47 Z " />
<path stroke="none" fill="#000000" transform="matrix(0.0666667 0 0 0.0666667 -7.10032 -214)" d="M 1148.28,4885.38 L 1148.45,4861.71 L 1170.01,4875.42 L 1265.49,5042.31 L 1238.05,5042.29 L 1148.28,4885.38 L 1148.28,4885.38 Z " />
<path stroke="none" fill="#000000" transform="matrix(0.0666667 0 0 0.0666667 -7.10032 -214)" d="M 1416.76,5306.7 L 1402.81,5330.26 L 1288.02,5129.63 L 1315.47,5129.65 L 1416.76,5306.7 L 1416.76,5306.7 Z " />
<path stroke="none" fill="#000000" transform="matrix(0.0666667 0 0 0.0666667 -7.10032 -214)" d="M 429.265,4949.07 L 405.954,4921.43 L 444.297,4930.29 L 686.48,5073.64 L 683.217,5085.54 L 668.122,5090.44 L 429.265,4949.07 Z " />
<path stroke="none" fill="#000000" transform="matrix(0.0666667 0 0 0.0666667 -7.10032 -214)" d="M 414.987,5735.14 L 392.935,5756.11 L 405.772,5696.49 L 668.122,5090.44 L 683.217,5085.54 L 684.49,5112.57 L 414.987,5735.14 Z " />
<path stroke="none" fill="#000000" transform="matrix(0.0666667 0 0 0.0666667 -7.10032 -214)" d="M 1843.55,4930.55 L 1882.5,4921.79 L 1859.03,4949.1 L 1612.81,5091.39 L 1597.99,5086.2 L 1594.8,5074.3 L 1843.55,4930.55 Z " />
<path stroke="none" fill="#000000" transform="matrix(0.0666667 0 0 0.0666667 -7.10032 -214)" d="M 1852.45,5703.46 L 1862.98,5763 L 1841.45,5740.66 L 1595.8,5113.27 L 1597.99,5086.2 L 1612.81,5091.39 L 1852.45,5703.46 Z " />
<path stroke="none" fill="#000000" transform="matrix(0.0666667 0 0 0.0666667 -7.10032 -214)" d="M 703.356,5097.46 L 683.217,5085.54 L 686.48,5073.64 L 1594.8,5074.3 L 1597.99,5086.2 L 1577.12,5098.09 L 703.356,5097.46 Z " />
<path stroke="none" fill="#000000" transform="matrix(0.0666667 0 0 0.0666667 -7.10032 -214)" d="M 1124.3,5863.14 L 1123.92,5887.16 L 1101.47,5871.04 L 684.49,5112.57 L 683.217,5085.54 L 703.356,5097.46 L 1124.3,5863.14 Z " />
<path stroke="none" fill="#000000" transform="matrix(0.0666667 0 0 0.0666667 -7.10032 -214)" d="M 1147.22,5871.17 L 1123.92,5887.16 L 1124.3,5863.14 L 1577.12,5098.09 L 1597.99,5086.2 L 1595.8,5113.27 L 1147.22,5871.17 Z " />
<path stroke="none" fill="#000000" transform="matrix(0.0666667 0 0 0.0666667 -7.10032 -214)" d="M 1101.47,5871.04 L 1123.92,5887.16 L 1112.38,5897.18 L 457.774,5779.83 L 392.935,5756.11 L 437.731,5752.05 L 1101.47,5871.04 Z " />
<path stroke="none" fill="#000000" transform="matrix(0.0666667 0 0 0.0666667 -7.10032 -214)" d="M 1136.2,5897.17 L 1123.92,5887.16 L 1147.22,5871.17 L 1821.4,5757.91 L 1862.98,5763 L 1800.2,5785.62 L 1136.2,5897.17 Z " />
<path stroke="none" fill="#ffffff" transform="matrix(0.0666667 0 0 0.0666667 -7.10032 -214)" d="M 1041.68,5881.98 A 102.867,102.867 0 1 0 1247.42,5881.98A 102.867,102.867 0 1 0 1041.68,5881.98Z " />
<path stroke="#000000" stroke-width="24" fill="none" transform="matrix(0.0666667 0 0 0.0666667 -7.10032 -214)" d="M 1041.68,5881.98 A 102.867,102.867 0 1 0 1247.42,5881.98A 102.867,102.867 0 1 0 1041.68,5881.98Z " />
<path stroke="none" fill="#ffffff" transform="matrix(0.0666667 0 0 0.0666667 -7.10032 -214)" d="M 1487.32,5090.28 A 102.867,102.867 0 1 0 1693.06,5090.28A 102.867,102.867 0 1 0 1487.32,5090.28Z " />
<path stroke="#000000" stroke-width="24" fill="none" transform="matrix(0.0666667 0 0 0.0666667 -7.10032 -214)" d="M 1487.32,5090.28 A 102.867,102.867 0 1 0 1693.06,5090.28A 102.867,102.867 0 1 0 1487.32,5090.28Z " />
<path stroke="none" fill="#ffffff" transform="matrix(0.0666667 0 0 0.0666667 -7.10032 -214)" d="M 1055.17,4881.69 A 102.867,102.867 0 1 0 1260.91,4881.69A 102.867,102.867 0 1 0 1055.17,4881.69Z " />
<path stroke="#000000" stroke-width="24" fill="none" transform="matrix(0.0666667 0 0 0.0666667 -7.10032 -214)" d="M 1055.17,4881.69 A 102.867,102.867 0 1 0 1260.91,4881.69A 102.867,102.867 0 1 0 1055.17,4881.69Z " />
<path stroke="none" fill="#ffffff" transform="matrix(0.0666667 0 0 0.0666667 -7.10032 -214)" d="M 611.522,5635.14 A 102.867,102.867 0 1 0 817.256,5635.14A 102.867,102.867 0 1 0 611.522,5635.14Z " />
<path stroke="#000000" stroke-width="24" fill="none" transform="matrix(0.0666667 0 0 0.0666667 -7.10032 -214)" d="M 611.522,5635.14 A 102.867,102.867 0 1 0 817.256,5635.14A 102.867,102.867 0 1 0 611.522,5635.14Z " />
<path stroke="none" fill="#ffffff" transform="matrix(0.0666667 0 0 0.0666667 -7.10032 -214)" d="M 1500.06,5657.46 A 102.866,102.866 0 1 0 1705.79,5657.46A 102.866,102.866 0 1 0 1500.06,5657.46Z " />
<path stroke="#000000" stroke-width="24" fill="none" transform="matrix(0.0666667 0 0 0.0666667 -7.10032 -214)" d="M 1500.06,5657.46 A 102.866,102.866 0 1 0 1705.79,5657.46A 102.866,102.866 0 1 0 1500.06,5657.46Z " />
<path stroke="none" fill="#000000" transform="matrix(0.0666667 0 0 0.0666667 -7.10032 -214)" d="M 308.03,4945.34 A 118.456,118.456 0 1 0 544.943,4945.34A 118.456,118.456 0 1 0 308.03,4945.34Z " />
<path stroke="none" fill="#000000" transform="matrix(0.0666667 0 0 0.0666667 -7.10032 -214)" d="M 587.359,5097.7 A 118.456,118.456 0 1 0 824.271,5097.7A 118.456,118.456 0 1 0 587.359,5097.7Z " />
<path stroke="#000000" stroke-width="24" fill="none" transform="matrix(0.0666667 0 0 0.0666667 -7.10032 -214)" d="M 170.905,6036.38 " />
<path stroke="none" fill="#ffffff" transform="matrix(0.0666667 0 0 0.0666667 -7.10032 -214)" d="M 1042.91,6200.59 A 102.867,102.867 0 1 0 1248.65,6200.59A 102.867,102.867 0 1 0 1042.91,6200.59Z " />
<path stroke="#000000" stroke-width="24" fill="none" transform="matrix(0.0666667 0 0 0.0666667 -7.10032 -214)" d="M 1042.91,6200.59 A 102.867,102.867 0 1 0 1248.65,6200.59A 102.867,102.867 0 1 0 1042.91,6200.59Z " />
<path stroke="none" fill="#ffffff" transform="matrix(0.0666667 0 0 0.0666667 -7.10032 -214)" d="M 1751.31,5771.02 A 102.867,102.867 0 1 0 1957.05,5771.02A 102.867,102.867 0 1 0 1751.31,5771.02Z " />
<path stroke="#000000" stroke-width="24" fill="none" transform="matrix(0.0666667 0 0 0.0666667 -7.10032 -214)" d="M 1751.31,5771.02 A 102.867,102.867 0 1 0 1957.05,5771.02A 102.867,102.867 0 1 0 1751.31,5771.02Z " />
<path stroke="none" fill="#ffffff" transform="matrix(0.0666667 0 0 0.0666667 -7.10032 -214)" d="M 300.573,5746.95 A 102.867,102.867 0 1 0 506.308,5746.95A 102.867,102.867 0 1 0 300.573,5746.95Z " />
<path stroke="#000000" stroke-width="24" fill="none" transform="matrix(0.0666667 0 0 0.0666667 -7.10032 -214)" d="M 300.573,5746.95 A 102.867,102.867 0 1 0 506.308,5746.95A 102.867,102.867 0 1 0 300.573,5746.95Z " />
<path stroke="none" fill="#ffffff" transform="matrix(0.0666667 0 0 0.0666667 -7.10032 -214)" d="M 1765.17,4931.69 A 102.867,102.867 0 1 0 1970.91,4931.69A 102.867,102.867 0 1 0 1765.17,4931.69Z " />
<path stroke="#000000" stroke-width="24" fill="none" transform="matrix(0.0666667 0 0 0.0666667 -7.10032 -214)" d="M 1765.17,4931.69 A 102.867,102.867 0 1 0 1970.91,4931.69A 102.867,102.867 0 1 0 1765.17,4931.69Z " />
<text x="0" y="0" stroke="none" fill="#000000" transform="matrix(0.0666667 0 0 0.0666667 141.877 96.4236)" font-style="normal" font-weight="normal" font-size="280px" font-family="Times New Roman" >
NH=C-Et</text>
<path stroke="none" fill="#000000" transform="matrix(0.0666667 0 0 0.0666667 -7.10032 -214)" d="M 2194.83,4648.32 L 2210.04,4666.64 L 1989.62,4849.66 L 1974.41,4831.34 L 2194.83,4648.32 Z " />
<path stroke="#000000" stroke-width="19" fill="none" transform="matrix(0.0666667 0 0 0.0666667 -7.10032 -214)" d="M 2222.67,4320.46 A 98.5243,98.5243 0 1 0 2419.72,4320.46A 98.5243,98.5243 0 1 0 2222.67,4320.46Z " />
<path stroke="none" fill="#000000" transform="matrix(0.0666667 0 0 0.0666667 -7.10032 -214)" d="M 2264.73,4310.85 L 2377.43,4310.85 L 2377.43,4329.85 L 2264.73,4329.85 Z " />
<path stroke="none" fill="#000000" transform="matrix(0.0666667 0 0 0.0666667 -7.10032 -214)" d="M 2330.58,4264 L 2330.58,4376.7 L 2311.58,4376.7 L 2311.58,4264 Z " />
<path stroke="#000000" stroke-width="19" fill="none" transform="matrix(0.0666667 0 0 0.0666667 -7.10032 -214)" d="M 1042.67,5395.46 A 98.5243,98.5243 0 1 0 1239.72,5395.46A 98.5243,98.5243 0 1 0 1042.67,5395.46Z " />
<path stroke="none" fill="#000000" transform="matrix(0.0666667 0 0 0.0666667 -7.10032 -214)" d="M 1084.73,5385.85 L 1197.43,5385.85 L 1197.43,5404.85 L 1084.73,5404.85 Z " />
<path stroke="none" fill="#000000" transform="matrix(0.0666667 0 0 0.0666667 -7.10032 -214)" d="M 1746.87,4921.79 A 135.633,135.633 0 1 0 2018.13,4921.79A 135.633,135.633 0 1 0 1746.87,4921.79Z " />
<path stroke="none" fill="#0f0f0f" transform="matrix(0.0666667 0 0 0.0666667 -7.10032 -214)" d="M 1748.44,4919.67 A 131.942,131.942 0 1 0 2012.32,4919.67A 131.942,131.942 0 1 0 1748.44,4919.67Z " />
<path stroke="none" fill="#1e1e1e" transform="matrix(0.0666667 0 0 0.0666667 -7.10032 -214)" d="M 1750.01,4917.55 A 128.25,128.25 0 1 0 2006.51,4917.55A 128.25,128.25 0 1 0 1750.01,4917.55Z " />
<path stroke="none" fill="#2d2d2d" transform="matrix(0.0666667 0 0 0.0666667 -7.10032 -214)" d="M 1751.58,4915.43 A 124.559,124.559 0 1 0 2000.7,4915.43A 124.559,124.559 0 1 0 1751.58,4915.43Z " />
<path stroke="none" fill="#3b3b3b" transform="matrix(0.0666667 0 0 0.0666667 -7.10032 -214)" d="M 1753.16,4913.31 A 120.867,120.867 0 1 0 1994.89,4913.31A 120.867,120.867 0 1 0 1753.16,4913.31Z " />
<path stroke="none" fill="#494949" transform="matrix(0.0666667 0 0 0.0666667 -7.10032 -214)" d="M 1754.73,4911.19 A 117.176,117.176 0 1 0 1989.08,4911.19A 117.176,117.176 0 1 0 1754.73,4911.19Z " />
<path stroke="none" fill="#565656" transform="matrix(0.0666667 0 0 0.0666667 -7.10032 -214)" d="M 1756.3,4909.07 A 113.484,113.484 0 1 0 1983.27,4909.07A 113.484,113.484 0 1 0 1756.3,4909.07Z " />
<path stroke="none" fill="#636363" transform="matrix(0.0666667 0 0 0.0666667 -7.10032 -214)" d="M 1757.87,4906.95 A 109.793,109.793 0 1 0 1977.46,4906.95A 109.793,109.793 0 1 0 1757.87,4906.95Z " />
<path stroke="none" fill="#6f6f6f" transform="matrix(0.0666667 0 0 0.0666667 -7.10032 -214)" d="M 1759.45,4904.83 A 106.102,106.102 0 1 0 1971.65,4904.83A 106.102,106.102 0 1 0 1759.45,4904.83Z " />
<path stroke="none" fill="#7b7b7b" transform="matrix(0.0666667 0 0 0.0666667 -7.10032 -214)" d="M 1761.02,4902.71 A 102.41,102.41 0 1 0 1965.84,4902.71A 102.41,102.41 0 1 0 1761.02,4902.71Z " />
<path stroke="none" fill="#868686" transform="matrix(0.0666667 0 0 0.0666667 -7.10032 -214)" d="M 1762.59,4900.6 A 98.7189,98.7189 0 1 0 1960.03,4900.6A 98.7189,98.7189 0 1 0 1762.59,4900.6Z " />
<path stroke="none" fill="#919191" transform="matrix(0.0666667 0 0 0.0666667 -7.10032 -214)" d="M 1764.16,4898.48 A 95.0275,95.0275 0 1 0 1954.22,4898.48A 95.0275,95.0275 0 1 0 1764.16,4898.48Z " />
<path stroke="none" fill="#9b9b9b" transform="matrix(0.0666667 0 0 0.0666667 -7.10032 -214)" d="M 1765.73,4896.36 A 91.3361,91.3361 0 1 0 1948.41,4896.36A 91.3361,91.3361 0 1 0 1765.73,4896.36Z " />
<path stroke="none" fill="#a5a5a5" transform="matrix(0.0666667 0 0 0.0666667 -7.10032 -214)" d="M 1767.31,4894.24 A 87.6447,87.6447 0 1 0 1942.6,4894.24A 87.6447,87.6447 0 1 0 1767.31,4894.24Z " />
<path stroke="none" fill="#aeaeae" transform="matrix(0.0666667 0 0 0.0666667 -7.10032 -214)" d="M 1768.88,4892.12 A 83.9532,83.9532 0 1 0 1936.78,4892.12A 83.9532,83.9532 0 1 0 1768.88,4892.12Z " />
<path stroke="none" fill="#b7b7b7" transform="matrix(0.0666667 0 0 0.0666667 -7.10032 -214)" d="M 1770.45,4890 A 80.2618,80.2618 0 1 0 1930.97,4890A 80.2618,80.2618 0 1 0 1770.45,4890Z " />
<path stroke="none" fill="#bfbfbf" transform="matrix(0.0666667 0 0 0.0666667 -7.10032 -214)" d="M 1772.02,4887.88 A 76.5704,76.5704 0 1 0 1925.16,4887.88A 76.5704,76.5704 0 1 0 1772.02,4887.88Z " />
<path stroke="none" fill="#c6c6c6" transform="matrix(0.0666667 0 0 0.0666667 -7.10032 -214)" d="M 1773.59,4885.76 A 72.879,72.879 0 1 0 1919.35,4885.76A 72.879,72.879 0 1 0 1773.59,4885.76Z " />
<path stroke="none" fill="#cecece" transform="matrix(0.0666667 0 0 0.0666667 -7.10032 -214)" d="M 1775.17,4883.64 A 69.1876,69.1876 0 1 0 1913.54,4883.64A 69.1876,69.1876 0 1 0 1775.17,4883.64Z " />
<path stroke="none" fill="#d4d4d4" transform="matrix(0.0666667 0 0 0.0666667 -7.10032 -214)" d="M 1776.74,4881.52 A 65.4962,65.4962 0 1 0 1907.73,4881.52A 65.4962,65.4962 0 1 0 1776.74,4881.52Z " />
<path stroke="none" fill="#dbdbdb" transform="matrix(0.0666667 0 0 0.0666667 -7.10032 -214)" d="M 1778.31,4879.4 A 61.8048,61.8048 0 1 0 1901.92,4879.4A 61.8048,61.8048 0 1 0 1778.31,4879.4Z " />
<path stroke="none" fill="#e0e0e0" transform="matrix(0.0666667 0 0 0.0666667 -7.10032 -214)" d="M 1779.88,4877.28 A 58.1134,58.1134 0 1 0 1896.11,4877.28A 58.1134,58.1134 0 1 0 1779.88,4877.28Z " />
<path stroke="none" fill="#e6e6e6" transform="matrix(0.0666667 0 0 0.0666667 -7.10032 -214)" d="M 1781.46,4875.16 A 54.422,54.422 0 1 0 1890.3,4875.16A 54.422,54.422 0 1 0 1781.46,4875.16Z " />
<path stroke="none" fill="#eaeaea" transform="matrix(0.0666667 0 0 0.0666667 -7.10032 -214)" d="M 1783.03,4873.05 A 50.7306,50.7306 0 1 0 1884.49,4873.05A 50.7306,50.7306 0 1 0 1783.03,4873.05Z " />
<path stroke="none" fill="#efefef" transform="matrix(0.0666667 0 0 0.0666667 -7.10032 -214)" d="M 1784.6,4870.93 A 47.0392,47.0392 0 1 0 1878.68,4870.93A 47.0392,47.0392 0 1 0 1784.6,4870.93Z " />
<path stroke="none" fill="#f2f2f2" transform="matrix(0.0666667 0 0 0.0666667 -7.10032 -214)" d="M 1786.17,4868.81 A 43.3478,43.3478 0 1 0 1872.87,4868.81A 43.3478,43.3478 0 1 0 1786.17,4868.81Z " />
<path stroke="none" fill="#f6f6f6" transform="matrix(0.0666667 0 0 0.0666667 -7.10032 -214)" d="M 1787.74,4866.69 A 39.6564,39.6564 0 1 0 1867.06,4866.69A 39.6564,39.6564 0 1 0 1787.74,4866.69Z " />
<path stroke="none" fill="#f8f8f8" transform="matrix(0.0666667 0 0 0.0666667 -7.10032 -214)" d="M 1789.32,4864.57 A 35.965,35.965 0 1 0 1861.25,4864.57A 35.965,35.965 0 1 0 1789.32,4864.57Z " />
<path stroke="none" fill="#fbfbfb" transform="matrix(0.0666667 0 0 0.0666667 -7.10032 -214)" d="M 1790.89,4862.45 A 32.2736,32.2736 0 1 0 1855.44,4862.45A 32.2736,32.2736 0 1 0 1790.89,4862.45Z " />
<path stroke="none" fill="#fcfcfc" transform="matrix(0.0666667 0 0 0.0666667 -7.10032 -214)" d="M 1792.46,4860.33 A 28.5822,28.5822 0 1 0 1849.62,4860.33A 28.5822,28.5822 0 1 0 1792.46,4860.33Z " />
<path stroke="none" fill="#fefefe" transform="matrix(0.0666667 0 0 0.0666667 -7.10032 -214)" d="M 1794.03,4858.21 A 24.8907,24.8907 0 1 0 1843.81,4858.21A 24.8907,24.8907 0 1 0 1794.03,4858.21Z " />
<path stroke="none" fill="#fefefe" transform="matrix(0.0666667 0 0 0.0666667 -7.10032 -214)" d="M 1795.6,4856.09 A 21.1993,21.1993 0 1 0 1838,4856.09A 21.1993,21.1993 0 1 0 1795.6,4856.09Z " />
<path stroke="#000000" stroke-width="24" fill="none" transform="matrix(0.0666667 0 0 0.0666667 -7.10032 -214)" d="M 1746.87,4921.79 A 135.633,135.633 0 1 0 2018.13,4921.79A 135.633,135.633 0 1 0 1746.87,4921.79Z " />
<text x="0" y="0" stroke="none" fill="#000000" transform="matrix(0.0666667 0 0 0.0666667 178.798 120.623)" font-style="normal" font-weight="normal" font-size="280px" font-family="Times New Roman" >
NHPr</text>
<path stroke="none" fill="#000000" transform="matrix(0.0666667 0 0 0.0666667 -7.10032 -214)" d="M 2901.71,4802.31 L 2877.9,4802.23 L 2878.23,4691.73 L 2902.05,4691.8 L 2901.71,4802.31 Z " />
<text x="0" y="0" stroke="none" fill="#000000" transform="matrix(0.0666667 0 0 0.0666667 236.276 142.792)" font-style="normal" font-weight="normal" font-size="280px" font-family="Times New Roman" >
1.</text>
<text x="0" y="0" stroke="none" fill="#000000" transform="matrix(0.0666667 0 0 0.0666667 250.276 142.792)" font-style="italic" font-weight="normal" font-size="280px" font-family="Times New Roman" >
 </text>
<text x="0" y="0" stroke="none" fill="#000000" transform="matrix(0.0666667 0 0 0.0666667 254.943 142.792)" font-style="italic" font-weight="normal" font-size="280px" font-family="Times New Roman" >
t</text>
<text x="0" y="0" stroke="none" fill="#000000" transform="matrix(0.0666667 0 0 0.0666667 260.143 142.792)" font-style="normal" font-weight="normal" font-size="280px" font-family="Times New Roman" >
-BuOK, </text>
<text x="0" y="0" stroke="none" fill="#000000" transform="matrix(0.0666667 0 0 0.0666667 324.453 142.792)" font-style="normal" font-weight="normal" font-size="280px" font-family="Times New Roman" >
THF</text>
<text x="0" y="0" stroke="none" fill="#000000" transform="matrix(0.0666667 0 0 0.0666667 236.871 177.467)" font-style="normal" font-weight="normal" font-size="280px" font-family="Times New Roman" >
2. </text>
<text x="0" y="0" stroke="none" fill="#000000" transform="matrix(0.0666667 0 0 0.0666667 255.537 177.467)" font-style="normal" font-weight="normal" font-size="280px" font-family="Times New Roman" >
[Rh(COD)Cl]</text>
<text x="0" y="0" stroke="none" fill="#000000" transform="matrix(0.0666667 0 0 0.0666667 359.296 181.533)" font-style="normal" font-weight="normal" font-size="210px" font-family="Times New Roman" >
2</text>
<path stroke="none" fill="#000000" transform="matrix(0.0666667 0 0 0.0666667 -7.10032 -214)" d="M 5546.19,5531.69 L 3598.67,5531.69 L 3598.67,5507.69 L 5546.19,5507.69 Z " />
<path stroke="none" fill="#000000" transform="matrix(0.0666667 0 0 0.0666667 -7.10032 -214)" d="M 5753.53,5519.69 C 5753.53,5519.69 5515.42,5580.22 5515.42,5580.22 C 5515.42,5580.22 5545.19,5546.17 5545.19,5519.69 C 5545.19,5492.77 5515.42,5458.16 5515.42,5458.16 C 5515.42,5458.16 5753.53,5519.69 5753.53,5519.69 C 5753.53,5519.69 5753.53,5519.69 5753.53,5519.69 " />
<path stroke="#000000" stroke-width="1" fill="none" transform="matrix(0.0666667 0 0 0.0666667 -7.10032 -214)" d="M 5753.53,5519.69 C 5753.53,5519.69 5515.42,5580.22 5515.42,5580.22 C 5515.42,5580.22 5545.19,5546.17 5545.19,5519.69 C 5545.19,5492.77 5515.42,5458.16 5515.42,5458.16 C 5515.42,5458.16 5753.53,5519.69 5753.53,5519.69 C 5753.53,5519.69 5753.53,5519.69 5753.53,5519.69 " />
<text x="0" y="0" stroke="none" fill="#000000" transform="matrix(0.0666667 0 0 0.0666667 456.983 70.9368)" font-style="normal" font-weight="normal" font-size="280px" font-family="Times New Roman" >
Rh</text>
<path stroke="none" fill="#000000" transform="matrix(0.0666667 0 0 0.0666667 -7.10032 -214)" d="M 6675.15,5653.35 L 6649.59,5641.43 L 6670.46,5629.54 L 6901.89,5629.71 L 6914.99,5653.53 L 6675.15,5653.35 L 6675.15,5653.35 Z " />
<path stroke="none" fill="#000000" transform="matrix(0.0666667 0 0 0.0666667 -7.10032 -214)" d="M 7188.08,5629.92 L 7173.99,5653.72 L 7014.66,5653.6 L 7001.57,5629.78 L 7188.08,5629.92 L 7188.08,5629.92 Z " />
<path stroke="none" fill="#000000" transform="matrix(0.0666667 0 0 0.0666667 -7.10032 -214)" d="M 7543.86,5630.19 L 7564.4,5642.11 L 7538.42,5654 L 7275.4,5653.8 L 7289.49,5630 L 7543.86,5630.19 L 7543.86,5630.19 Z " />
<path stroke="none" fill="#000000" transform="matrix(0.0666667 0 0 0.0666667 -7.10032 -214)" d="M 6360.23,4910.55 L 6372.06,4915.57 L 6383,4977.52 L 6371.87,5690.63 L 6359.04,5750.25 L 6347.02,5757.06 L 6360.23,4910.55 Z " />
<path stroke="none" fill="#000000" transform="matrix(0.0666667 0 0 0.0666667 -7.10032 -214)" d="M 6347.02,5757.06 L 6359.04,5750.25 L 6423.87,5773.97 L 7048.37,6134.85 L 7101,6179.02 L 7101.01,6192.77 L 6347.02,5757.06 Z " />
<path stroke="none" fill="#000000" transform="matrix(0.0666667 0 0 0.0666667 -7.10032 -214)" d="M 7101.01,6192.77 L 7101,6179.02 L 7156.22,6133.26 L 7766.3,5779.76 L 7829.08,5757.14 L 7840.83,5764.09 L 7101.01,6192.77 Z " />
<path stroke="none" fill="#000000" transform="matrix(0.0666667 0 0 0.0666667 -7.10032 -214)" d="M 7840.83,5764.09 L 7829.08,5757.14 L 7818.55,5697.6 L 7835.14,4983 L 7848.6,4915.92 L 7860.76,4904.97 L 7840.83,5764.09 Z " />
<path stroke="none" fill="#000000" transform="matrix(0.0666667 0 0 0.0666667 -7.10032 -214)" d="M 6410.4,4924.43 L 6372.06,4915.57 L 6403.41,4901.1 L 6705.52,4876.8 L 6692.57,4901.73 L 6410.4,4924.43 L 6410.4,4924.43 Z " />
<path stroke="none" fill="#000000" transform="matrix(0.0666667 0 0 0.0666667 -7.10032 -214)" d="M 7114.56,4843.91 L 7114.56,4855.85 L 7092.61,4869.56 L 6795.25,4893.48 L 6808.2,4868.55 L 7114.56,4843.91 L 7114.56,4843.91 Z " />
<path stroke="none" fill="#000000" transform="matrix(0.0666667 0 0 0.0666667 -7.10032 -214)" d="M 7860.76,4904.97 L 7848.6,4915.92 L 7809.65,4924.68 L 7509.44,4900.11 L 7498.08,4875.29 L 7860.76,4904.97 L 7860.76,4904.97 Z " />
<path stroke="none" fill="#000000" transform="matrix(0.0666667 0 0 0.0666667 -7.10032 -214)" d="M 7136.12,4869.56 L 7114.56,4855.85 L 7114.56,4843.91 L 7398.33,4867.13 L 7409.69,4891.95 L 7136.12,4869.56 L 7136.12,4869.56 Z " />
<path stroke="none" fill="#000000" transform="matrix(0.0666667 0 0 0.0666667 -7.10032 -214)" d="M 7567.69,5656.52 L 7564.4,5642.11 L 7579.67,5635.76 L 7807.55,5734.8 L 7829.08,5757.14 L 7787.5,5752.05 L 7567.69,5656.52 Z " />
<path stroke="none" fill="#000000" transform="matrix(0.0666667 0 0 0.0666667 -7.10032 -214)" d="M 6403.83,5746.18 L 6359.04,5750.25 L 6381.09,5729.28 L 6634.19,5634.48 L 6649.59,5641.43 L 6645.88,5655.53 L 6403.83,5746.18 Z " />
<path stroke="none" fill="#000000" transform="matrix(0.0666667 0 0 0.0666667 -7.10032 -214)" d="M 6651.9,5614.14 L 6649.59,5641.43 L 6634.19,5634.48 L 6550.95,5416.79 L 6564.49,5385.52 L 6651.9,5614.14 L 6651.9,5614.14 Z " />
<path stroke="none" fill="#000000" transform="matrix(0.0666667 0 0 0.0666667 -7.10032 -214)" d="M 6383,4977.52 L 6372.06,4915.57 L 6395.37,4943.2 L 6519.87,5268.83 L 6506.33,5300.09 L 6383,4977.52 L 6383,4977.52 Z " />
<path stroke="none" fill="#000000" transform="matrix(0.0666667 0 0 0.0666667 -7.10032 -214)" d="M 7825.13,4943.24 L 7848.6,4915.92 L 7835.14,4983 L 7704.03,5318.01 L 7691.24,5285.35 L 7825.13,4943.24 L 7825.13,4943.24 Z " />
<path stroke="none" fill="#000000" transform="matrix(0.0666667 0 0 0.0666667 -7.10032 -214)" d="M 7579.67,5635.76 L 7564.4,5642.11 L 7562.38,5614.61 L 7644.37,5405.11 L 7657.16,5437.77 L 7579.67,5635.76 L 7579.67,5635.76 Z " />
<path stroke="none" fill="#000000" transform="matrix(0.0666667 0 0 0.0666667 -7.10032 -214)" d="M 7111.78,6148.31 L 7101,6179.02 L 7087.83,6144.82 L 7078.48,5891.32 L 7090.02,5881.29 L 7102.31,5891.3 L 7111.78,6148.31 Z " />
<path stroke="none" fill="#000000" transform="matrix(0.0666667 0 0 0.0666667 -7.10032 -214)" d="M 7156.22,6133.26 L 7101,6179.02 L 7111.78,6148.31 L 7340.33,5883.51 L 7377.11,5877.33 L 7156.22,6133.26 L 7156.22,6133.26 Z " />
<path stroke="none" fill="#000000" transform="matrix(0.0666667 0 0 0.0666667 -7.10032 -214)" d="M 7538.42,5654 L 7564.4,5642.11 L 7567.69,5656.52 L 7466.48,5773.79 L 7429.69,5779.97 L 7538.42,5654 L 7538.42,5654 Z " />
<path stroke="none" fill="#000000" transform="matrix(0.0666667 0 0 0.0666667 -7.10032 -214)" d="M 6645.88,5655.53 L 6649.59,5641.43 L 6675.15,5653.35 L 6783.11,5781.92 L 6746.51,5775.36 L 6645.88,5655.53 L 6645.88,5655.53 Z " />
<path stroke="none" fill="#000000" transform="matrix(0.0666667 0 0 0.0666667 -7.10032 -214)" d="M 7087.83,6144.82 L 7101,6179.02 L 7048.37,6134.85 L 6834.19,5879.78 L 6870.79,5886.34 L 7087.83,6144.82 L 7087.83,6144.82 Z " />
<path stroke="none" fill="#000000" transform="matrix(0.0666667 0 0 0.0666667 -7.10032 -214)" d="M 6670.46,5629.54 L 6649.59,5641.43 L 6651.9,5614.14 L 6777.07,5402.67 L 6790.4,5426.9 L 6670.46,5629.54 L 6670.46,5629.54 Z " />
<path stroke="none" fill="#000000" transform="matrix(0.0666667 0 0 0.0666667 -7.10032 -214)" d="M 6942.28,5123.54 L 6969.94,5123.56 L 6842.05,5339.63 L 6828.73,5315.4 L 6942.28,5123.54 L 6942.28,5123.54 Z " />
<path stroke="none" fill="#000000" transform="matrix(0.0666667 0 0 0.0666667 -7.10032 -214)" d="M 7092.61,4869.56 L 7114.56,4855.85 L 7114.38,4879.52 L 7021.59,5036.29 L 6993.93,5036.27 L 7092.61,4869.56 L 7092.61,4869.56 Z " />
<path stroke="none" fill="#000000" transform="matrix(0.0666667 0 0 0.0666667 -7.10032 -214)" d="M 7562.38,5614.61 L 7564.4,5642.11 L 7543.86,5630.19 L 7418.78,5411.56 L 7432.73,5387.99 L 7562.38,5614.61 L 7562.38,5614.61 Z " />
<path stroke="none" fill="#000000" transform="matrix(0.0666667 0 0 0.0666667 -7.10032 -214)" d="M 7254.12,5123.77 L 7281.57,5123.79 L 7382.86,5300.83 L 7368.91,5324.4 L 7254.12,5123.77 L 7254.12,5123.77 Z " />
<path stroke="none" fill="#000000" transform="matrix(0.0666667 0 0 0.0666667 -7.10032 -214)" d="M 7114.38,4879.52 L 7114.56,4855.85 L 7136.12,4869.56 L 7231.6,5036.44 L 7204.15,5036.42 L 7114.38,4879.52 L 7114.38,4879.52 Z " />
<path stroke="none" fill="#000000" transform="matrix(0.0666667 0 0 0.0666667 -7.10032 -214)" d="M 6395.37,4943.2 L 6372.06,4915.57 L 6410.4,4924.43 L 6644.55,5063.02 L 6649.32,5079.68 L 6634.22,5084.58 L 6395.37,4943.2 Z " />
<path stroke="none" fill="#000000" transform="matrix(0.0666667 0 0 0.0666667 -7.10032 -214)" d="M 6381.09,5729.28 L 6359.04,5750.25 L 6371.87,5690.63 L 6634.22,5084.58 L 6649.32,5079.68 L 6650.59,5106.7 L 6381.09,5729.28 Z " />
<path stroke="none" fill="#000000" transform="matrix(0.0666667 0 0 0.0666667 -7.10032 -214)" d="M 7809.65,4924.68 L 7848.6,4915.92 L 7825.13,4943.24 L 7578.91,5085.53 L 7564.09,5080.34 L 7560.9,5068.43 L 7809.65,4924.68 Z " />
<path stroke="none" fill="#000000" transform="matrix(0.0666667 0 0 0.0666667 -7.10032 -214)" d="M 7818.55,5697.6 L 7829.08,5757.14 L 7807.55,5734.8 L 7561.9,5107.41 L 7564.09,5080.34 L 7578.91,5085.53 L 7818.55,5697.6 Z " />
<path stroke="none" fill="#000000" transform="matrix(0.0666667 0 0 0.0666667 -7.10032 -214)" d="M 6669.46,5091.6 L 6649.32,5079.68 L 6668.91,5067.78 L 7560.9,5068.43 L 7564.09,5080.34 L 7543.22,5092.23 L 6669.46,5091.6 Z " />
<path stroke="none" fill="#000000" transform="matrix(0.0666667 0 0 0.0666667 -7.10032 -214)" d="M 7090.4,5857.28 L 7090.02,5881.29 L 7067.58,5865.17 L 6650.59,5106.7 L 6649.32,5079.68 L 6669.46,5091.6 L 7090.4,5857.28 Z " />
<path stroke="none" fill="#000000" transform="matrix(0.0666667 0 0 0.0666667 -7.10032 -214)" d="M 7113.32,5865.31 L 7090.02,5881.29 L 7090.4,5857.28 L 7543.22,5092.23 L 7564.09,5080.34 L 7561.9,5107.41 L 7113.32,5865.31 Z " />
<path stroke="none" fill="#000000" transform="matrix(0.0666667 0 0 0.0666667 -7.10032 -214)" d="M 7067.58,5865.17 L 7090.02,5881.29 L 7078.48,5891.32 L 6423.87,5773.97 L 6359.04,5750.25 L 6403.83,5746.18 L 7067.58,5865.17 Z " />
<path stroke="none" fill="#000000" transform="matrix(0.0666667 0 0 0.0666667 -7.10032 -214)" d="M 7102.31,5891.3 L 7090.02,5881.29 L 7113.32,5865.31 L 7787.5,5752.05 L 7829.08,5757.14 L 7766.3,5779.76 L 7102.31,5891.3 Z " />
<path stroke="none" fill="#000000" transform="matrix(0.0666667 0 0 0.0666667 -7.10032 -214)" d="M 6960.19,4311.93 L 6977.01,4328.78 L 6403.41,4901.1 L 6372.06,4915.57 L 6360.23,4910.55 L 6960.19,4311.93 Z " />
<path stroke="none" fill="#000000" transform="matrix(0.0666667 0 0 0.0666667 -7.10032 -214)" d="M 7032.74,4315.84 L 7053.86,4326.81 L 6668.91,5067.78 L 6649.32,5079.68 L 6644.55,5063.02 L 7032.74,4315.84 Z " />
<path stroke="none" fill="#000000" transform="matrix(0.0666667 0 0 0.0666667 -7.10032 -214)" d="M 7110.46,4304.56 L 7134.27,4304.97 L 7126.46,4764.25 L 7102.65,4763.85 L 7110.46,4304.56 Z " />
<path stroke="none" fill="#000000" transform="matrix(0.0666667 0 0 0.0666667 -7.10032 -214)" d="M 7183.53,4321.57 L 7205.18,4311.66 L 7515.26,4989.1 L 7493.61,4999.01 L 7183.53,4321.57 Z " />
<path stroke="none" fill="#000000" transform="matrix(0.0666667 0 0 0.0666667 -7.10032 -214)" d="M 7274.83,4328.91 L 7291.53,4311.94 L 7762.78,4775.57 L 7746.09,4792.54 L 7274.83,4328.91 Z " />
<path stroke="none" fill="#ffffff" transform="matrix(0.0666667 0 0 0.0666667 -7.10032 -214)" d="M 7007.78,5876.12 A 102.867,102.867 0 1 0 7213.52,5876.12A 102.867,102.867 0 1 0 7007.78,5876.12Z " />
<path stroke="#000000" stroke-width="24" fill="none" transform="matrix(0.0666667 0 0 0.0666667 -7.10032 -214)" d="M 7007.78,5876.12 A 102.867,102.867 0 1 0 7213.52,5876.12A 102.867,102.867 0 1 0 7007.78,5876.12Z " />
<path stroke="none" fill="#ffffff" transform="matrix(0.0666667 0 0 0.0666667 -7.10032 -214)" d="M 7453.42,5084.41 A 102.867,102.867 0 1 0 7659.16,5084.41A 102.867,102.867 0 1 0 7453.42,5084.41Z " />
<path stroke="#000000" stroke-width="24" fill="none" transform="matrix(0.0666667 0 0 0.0666667 -7.10032 -214)" d="M 7453.42,5084.41 A 102.867,102.867 0 1 0 7659.16,5084.41A 102.867,102.867 0 1 0 7453.42,5084.41Z " />
<path stroke="none" fill="#ffffff" transform="matrix(0.0666667 0 0 0.0666667 -7.10032 -214)" d="M 7021.27,4875.83 A 102.867,102.867 0 1 0 7227.01,4875.83A 102.867,102.867 0 1 0 7021.27,4875.83Z " />
<path stroke="#000000" stroke-width="24" fill="none" transform="matrix(0.0666667 0 0 0.0666667 -7.10032 -214)" d="M 7021.27,4875.83 A 102.867,102.867 0 1 0 7227.01,4875.83A 102.867,102.867 0 1 0 7021.27,4875.83Z " />
<path stroke="none" fill="#ffffff" transform="matrix(0.0666667 0 0 0.0666667 -7.10032 -214)" d="M 6577.62,5629.27 A 102.867,102.867 0 1 0 6783.36,5629.27A 102.867,102.867 0 1 0 6577.62,5629.27Z " />
<path stroke="#000000" stroke-width="24" fill="none" transform="matrix(0.0666667 0 0 0.0666667 -7.10032 -214)" d="M 6577.62,5629.27 A 102.867,102.867 0 1 0 6783.36,5629.27A 102.867,102.867 0 1 0 6577.62,5629.27Z " />
<path stroke="none" fill="#ffffff" transform="matrix(0.0666667 0 0 0.0666667 -7.10032 -214)" d="M 7466.16,5651.6 A 102.866,102.866 0 1 0 7671.89,5651.6A 102.866,102.866 0 1 0 7466.16,5651.6Z " />
<path stroke="#000000" stroke-width="24" fill="none" transform="matrix(0.0666667 0 0 0.0666667 -7.10032 -214)" d="M 7466.16,5651.6 A 102.866,102.866 0 1 0 7671.89,5651.6A 102.866,102.866 0 1 0 7466.16,5651.6Z " />
<path stroke="none" fill="#ffffff" transform="matrix(0.0666667 0 0 0.0666667 -7.10032 -214)" d="M 7731.27,4925.83 A 102.867,102.867 0 1 0 7937.01,4925.83A 102.867,102.867 0 1 0 7731.27,4925.83Z " />
<path stroke="#000000" stroke-width="24" fill="none" transform="matrix(0.0666667 0 0 0.0666667 -7.10032 -214)" d="M 7731.27,4925.83 A 102.867,102.867 0 1 0 7937.01,4925.83A 102.867,102.867 0 1 0 7731.27,4925.83Z " />
<text x="0" y="0" stroke="none" fill="#000000" transform="matrix(0.0666667 0 0 0.0666667 534.817 93.8032)" font-style="normal" font-weight="normal" font-size="280px" font-family="Times New Roman" >
NH=C-Et</text>
<path stroke="none" fill="#000000" transform="matrix(0.0666667 0 0 0.0666667 -7.10032 -214)" d="M 8108.19,4634.03 L 8126.44,4649.33 L 7973.56,4831.7 L 7955.31,4816.4 L 8108.19,4634.03 Z " />
<path stroke="none" fill="#ffffff" transform="matrix(0.0666667 0 0 0.0666667 -7.10032 -214)" d="M 7717.41,5765.16 A 102.867,102.867 0 1 0 7923.15,5765.16A 102.867,102.867 0 1 0 7717.41,5765.16Z " />
<path stroke="#000000" stroke-width="24" fill="none" transform="matrix(0.0666667 0 0 0.0666667 -7.10032 -214)" d="M 7717.41,5765.16 A 102.867,102.867 0 1 0 7923.15,5765.16A 102.867,102.867 0 1 0 7717.41,5765.16Z " />
<path stroke="none" fill="#ffffff" transform="matrix(0.0666667 0 0 0.0666667 -7.10032 -214)" d="M 7009.01,6194.73 A 102.867,102.867 0 1 0 7214.75,6194.73A 102.867,102.867 0 1 0 7009.01,6194.73Z " />
<path stroke="#000000" stroke-width="24" fill="none" transform="matrix(0.0666667 0 0 0.0666667 -7.10032 -214)" d="M 7009.01,6194.73 A 102.867,102.867 0 1 0 7214.75,6194.73A 102.867,102.867 0 1 0 7009.01,6194.73Z " />
<path stroke="none" fill="#000000" transform="matrix(0.0666667 0 0 0.0666667 -7.10032 -214)" d="M 6274.13,4939.47 A 118.456,118.456 0 1 0 6511.04,4939.47A 118.456,118.456 0 1 0 6274.13,4939.47Z " />
<path stroke="none" fill="#000000" transform="matrix(0.0666667 0 0 0.0666667 -7.10032 -214)" d="M 6553.46,5091.83 A 118.456,118.456 0 1 0 6790.37,5091.83A 118.456,118.456 0 1 0 6553.46,5091.83Z " />
<path stroke="none" fill="#000000" transform="matrix(0.0666667 0 0 0.0666667 -7.10032 -214)" d="M 7712.97,4915.92 A 135.633,135.633 0 1 0 7984.24,4915.92A 135.633,135.633 0 1 0 7712.97,4915.92Z " />
<path stroke="none" fill="#0f0f0f" transform="matrix(0.0666667 0 0 0.0666667 -7.10032 -214)" d="M 7714.54,4913.8 A 131.942,131.942 0 1 0 7978.42,4913.8A 131.942,131.942 0 1 0 7714.54,4913.8Z " />
<path stroke="none" fill="#1e1e1e" transform="matrix(0.0666667 0 0 0.0666667 -7.10032 -214)" d="M 7716.11,4911.68 A 128.25,128.25 0 1 0 7972.61,4911.68A 128.25,128.25 0 1 0 7716.11,4911.68Z " />
<path stroke="none" fill="#2d2d2d" transform="matrix(0.0666667 0 0 0.0666667 -7.10032 -214)" d="M 7717.69,4909.57 A 124.559,124.559 0 1 0 7966.8,4909.57A 124.559,124.559 0 1 0 7717.69,4909.57Z " />
<path stroke="none" fill="#3b3b3b" transform="matrix(0.0666667 0 0 0.0666667 -7.10032 -214)" d="M 7719.26,4907.45 A 120.867,120.867 0 1 0 7960.99,4907.45A 120.867,120.867 0 1 0 7719.26,4907.45Z " />
<path stroke="none" fill="#494949" transform="matrix(0.0666667 0 0 0.0666667 -7.10032 -214)" d="M 7720.83,4905.33 A 117.176,117.176 0 1 0 7955.18,4905.33A 117.176,117.176 0 1 0 7720.83,4905.33Z " />
<path stroke="none" fill="#565656" transform="matrix(0.0666667 0 0 0.0666667 -7.10032 -214)" d="M 7722.4,4903.21 A 113.484,113.484 0 1 0 7949.37,4903.21A 113.484,113.484 0 1 0 7722.4,4903.21Z " />
<path stroke="none" fill="#636363" transform="matrix(0.0666667 0 0 0.0666667 -7.10032 -214)" d="M 7723.97,4901.09 A 109.793,109.793 0 1 0 7943.56,4901.09A 109.793,109.793 0 1 0 7723.97,4901.09Z " />
<path stroke="none" fill="#6f6f6f" transform="matrix(0.0666667 0 0 0.0666667 -7.10032 -214)" d="M 7725.55,4898.97 A 106.102,106.102 0 1 0 7937.75,4898.97A 106.102,106.102 0 1 0 7725.55,4898.97Z " />
<path stroke="none" fill="#7b7b7b" transform="matrix(0.0666667 0 0 0.0666667 -7.10032 -214)" d="M 7727.12,4896.85 A 102.41,102.41 0 1 0 7931.94,4896.85A 102.41,102.41 0 1 0 7727.12,4896.85Z " />
<path stroke="none" fill="#868686" transform="matrix(0.0666667 0 0 0.0666667 -7.10032 -214)" d="M 7728.69,4894.73 A 98.7189,98.7189 0 1 0 7926.13,4894.73A 98.7189,98.7189 0 1 0 7728.69,4894.73Z " />
<path stroke="none" fill="#919191" transform="matrix(0.0666667 0 0 0.0666667 -7.10032 -214)" d="M 7730.26,4892.61 A 95.0275,95.0275 0 1 0 7920.32,4892.61A 95.0275,95.0275 0 1 0 7730.26,4892.61Z " />
<path stroke="none" fill="#9b9b9b" transform="matrix(0.0666667 0 0 0.0666667 -7.10032 -214)" d="M 7731.84,4890.49 A 91.3361,91.3361 0 1 0 7914.51,4890.49A 91.3361,91.3361 0 1 0 7731.84,4890.49Z " />
<path stroke="none" fill="#a5a5a5" transform="matrix(0.0666667 0 0 0.0666667 -7.10032 -214)" d="M 7733.41,4888.37 A 87.6447,87.6447 0 1 0 7908.7,4888.37A 87.6447,87.6447 0 1 0 7733.41,4888.37Z " />
<path stroke="none" fill="#aeaeae" transform="matrix(0.0666667 0 0 0.0666667 -7.10032 -214)" d="M 7734.98,4886.25 A 83.9532,83.9532 0 1 0 7902.89,4886.25A 83.9532,83.9532 0 1 0 7734.98,4886.25Z " />
<path stroke="none" fill="#b7b7b7" transform="matrix(0.0666667 0 0 0.0666667 -7.10032 -214)" d="M 7736.55,4884.13 A 80.2618,80.2618 0 1 0 7897.08,4884.13A 80.2618,80.2618 0 1 0 7736.55,4884.13Z " />
<path stroke="none" fill="#bfbfbf" transform="matrix(0.0666667 0 0 0.0666667 -7.10032 -214)" d="M 7738.12,4882.02 A 76.5704,76.5704 0 1 0 7891.26,4882.02A 76.5704,76.5704 0 1 0 7738.12,4882.02Z " />
<path stroke="none" fill="#c6c6c6" transform="matrix(0.0666667 0 0 0.0666667 -7.10032 -214)" d="M 7739.7,4879.9 A 72.879,72.879 0 1 0 7885.45,4879.9A 72.879,72.879 0 1 0 7739.7,4879.9Z " />
<path stroke="none" fill="#cecece" transform="matrix(0.0666667 0 0 0.0666667 -7.10032 -214)" d="M 7741.27,4877.78 A 69.1876,69.1876 0 1 0 7879.64,4877.78A 69.1876,69.1876 0 1 0 7741.27,4877.78Z " />
<path stroke="none" fill="#d4d4d4" transform="matrix(0.0666667 0 0 0.0666667 -7.10032 -214)" d="M 7742.84,4875.66 A 65.4962,65.4962 0 1 0 7873.83,4875.66A 65.4962,65.4962 0 1 0 7742.84,4875.66Z " />
<path stroke="none" fill="#dbdbdb" transform="matrix(0.0666667 0 0 0.0666667 -7.10032 -214)" d="M 7744.41,4873.54 A 61.8048,61.8048 0 1 0 7868.02,4873.54A 61.8048,61.8048 0 1 0 7744.41,4873.54Z " />
<path stroke="none" fill="#e0e0e0" transform="matrix(0.0666667 0 0 0.0666667 -7.10032 -214)" d="M 7745.98,4871.42 A 58.1134,58.1134 0 1 0 7862.21,4871.42A 58.1134,58.1134 0 1 0 7745.98,4871.42Z " />
<path stroke="none" fill="#e6e6e6" transform="matrix(0.0666667 0 0 0.0666667 -7.10032 -214)" d="M 7747.56,4869.3 A 54.422,54.422 0 1 0 7856.4,4869.3A 54.422,54.422 0 1 0 7747.56,4869.3Z " />
<path stroke="none" fill="#eaeaea" transform="matrix(0.0666667 0 0 0.0666667 -7.10032 -214)" d="M 7749.13,4867.18 A 50.7306,50.7306 0 1 0 7850.59,4867.18A 50.7306,50.7306 0 1 0 7749.13,4867.18Z " />
<path stroke="none" fill="#efefef" transform="matrix(0.0666667 0 0 0.0666667 -7.10032 -214)" d="M 7750.7,4865.06 A 47.0392,47.0392 0 1 0 7844.78,4865.06A 47.0392,47.0392 0 1 0 7750.7,4865.06Z " />
<path stroke="none" fill="#f2f2f2" transform="matrix(0.0666667 0 0 0.0666667 -7.10032 -214)" d="M 7752.27,4862.94 A 43.3478,43.3478 0 1 0 7838.97,4862.94A 43.3478,43.3478 0 1 0 7752.27,4862.94Z " />
<path stroke="none" fill="#f6f6f6" transform="matrix(0.0666667 0 0 0.0666667 -7.10032 -214)" d="M 7753.85,4860.82 A 39.6564,39.6564 0 1 0 7833.16,4860.82A 39.6564,39.6564 0 1 0 7753.85,4860.82Z " />
<path stroke="none" fill="#f8f8f8" transform="matrix(0.0666667 0 0 0.0666667 -7.10032 -214)" d="M 7755.42,4858.7 A 35.965,35.965 0 1 0 7827.35,4858.7A 35.965,35.965 0 1 0 7755.42,4858.7Z " />
<path stroke="none" fill="#fbfbfb" transform="matrix(0.0666667 0 0 0.0666667 -7.10032 -214)" d="M 7756.99,4856.58 A 32.2736,32.2736 0 1 0 7821.54,4856.58A 32.2736,32.2736 0 1 0 7756.99,4856.58Z " />
<path stroke="none" fill="#fcfcfc" transform="matrix(0.0666667 0 0 0.0666667 -7.10032 -214)" d="M 7758.56,4854.46 A 28.5822,28.5822 0 1 0 7815.73,4854.46A 28.5822,28.5822 0 1 0 7758.56,4854.46Z " />
<path stroke="none" fill="#fefefe" transform="matrix(0.0666667 0 0 0.0666667 -7.10032 -214)" d="M 7760.13,4852.35 A 24.8907,24.8907 0 1 0 7809.92,4852.35A 24.8907,24.8907 0 1 0 7760.13,4852.35Z " />
<path stroke="none" fill="#fefefe" transform="matrix(0.0666667 0 0 0.0666667 -7.10032 -214)" d="M 7761.71,4850.23 A 21.1993,21.1993 0 1 0 7804.1,4850.23A 21.1993,21.1993 0 1 0 7761.71,4850.23Z " />
<path stroke="#000000" stroke-width="24" fill="none" transform="matrix(0.0666667 0 0 0.0666667 -7.10032 -214)" d="M 7712.97,4915.92 A 135.633,135.633 0 1 0 7984.24,4915.92A 135.633,135.633 0 1 0 7712.97,4915.92Z " />
<path stroke="none" fill="#ffffff" transform="matrix(0.0666667 0 0 0.0666667 -7.10032 -214)" d="M 6266.67,5741.08 A 102.867,102.867 0 1 0 6472.41,5741.08A 102.867,102.867 0 1 0 6266.67,5741.08Z " />
<path stroke="#000000" stroke-width="24" fill="none" transform="matrix(0.0666667 0 0 0.0666667 -7.10032 -214)" d="M 6266.67,5741.08 A 102.867,102.867 0 1 0 6472.41,5741.08A 102.867,102.867 0 1 0 6266.67,5741.08Z " />
<text x="0" y="0" stroke="none" fill="#000000" transform="matrix(0.0666667 0 0 0.0666667 572.112 119.001)" font-style="normal" font-weight="normal" font-size="280px" font-family="Times New Roman" >
NHPr</text>
<path stroke="none" fill="#000000" transform="matrix(0.0666667 0 0 0.0666667 -7.10032 -214)" d="M 8799.81,4777.8 L 8776,4778.09 L 8774.5,4652.59 L 8798.31,4652.3 L 8799.81,4777.8 Z " />
<path stroke="none" fill="#000000" transform="matrix(0.0666667 0 0 0.0666667 -7.10032 -214)" d="M 7483.32,3253.74 L 7476.35,3277.6 L 6727.29,3283.4 L 6720.11,3259.64 L 7483.32,3253.74 Z " />
<path stroke="none" fill="#000000" transform="matrix(0.0666667 0 0 0.0666667 -7.10032 -214)" d="M 7465.16,3584.02 L 7455.57,3607.91 L 6778.41,3613.69 L 6769.51,3589.95 L 7465.16,3584.02 Z " />
<path stroke="none" fill="#000000" transform="matrix(0.0666667 0 0 0.0666667 -7.10032 -214)" d="M 6407.59,3492.63 L 6383.9,3479.67 L 6720.11,3259.64 L 6727.29,3283.4 L 6407.59,3492.63 Z " />
<path stroke="none" fill="#000000" transform="matrix(0.0666667 0 0 0.0666667 -7.10032 -214)" d="M 6379.32,3955.95 L 6403.63,3903.73 L 6769.51,3589.95 L 6778.41,3613.69 L 6379.32,3955.95 Z " />
<path stroke="none" fill="#000000" transform="matrix(0.0666667 0 0 0.0666667 -7.10032 -214)" d="M 6403.63,3903.73 L 6379.32,3955.95 L 6383.9,3479.67 L 6407.59,3492.63 L 6403.63,3903.73 Z " />
<path stroke="none" fill="#000000" transform="matrix(0.0666667 0 0 0.0666667 -7.10032 -214)" d="M 6484.94,3754.8 L 6461.13,3754.57 L 6463.29,3529.49 L 6487.1,3529.72 L 6484.94,3754.8 Z " />
<path stroke="none" fill="#000000" transform="matrix(0.0666667 0 0 0.0666667 -7.10032 -214)" d="M 7820.39,3472.81 L 7796.52,3485.7 L 7476.35,3277.6 L 7483.32,3253.74 L 7820.39,3472.81 Z " />
<path stroke="none" fill="#000000" transform="matrix(0.0666667 0 0 0.0666667 -7.10032 -214)" d="M 7794.77,3904.98 L 7818.35,3961.17 L 7455.57,3607.91 L 7465.16,3584.02 L 7794.77,3904.98 Z " />
<path stroke="none" fill="#000000" transform="matrix(0.0666667 0 0 0.0666667 -7.10032 -214)" d="M 7818.35,3961.17 L 7794.77,3904.98 L 7796.52,3485.7 L 7820.39,3472.81 L 7818.35,3961.17 Z " />
<path stroke="none" fill="#000000" transform="matrix(0.0666667 0 0 0.0666667 -7.10032 -214)" d="M 7737.58,3740.35 L 7713.77,3740.25 L 7714.67,3523.42 L 7738.48,3523.52 L 7737.58,3740.35 Z " />
</svg>
