<?xml version="1.0" standalone="no" ?>
<!DOCTYPE svg PUBLIC "-//W3C//DTD SVG 1.1//EN" "http://www.w3.org/Graphics/SVG/1.1/DTD/svg11.dtd">
<svg width="619px" height="274px" viewBox="0 0 619 274" style="background-color: #ffffff00" xmlns="http://www.w3.org/2000/svg" xmlns:xlink="http://www.w3.org/1999/xlink" version="1.1" >
<text x="0" y="0" stroke="none" fill="#0000ff" transform="matrix(0.0666667 0 0 0.0666667 33.026 103.6)" font-style="normal" font-weight="normal" font-size="140px" font-family="Arial" >
N</text>
<path stroke="none" fill="#0000ff" transform="matrix(0.0666667 0 0 0.0666667 -37.1003 -349.4)" d="M 1343.79,6736.01 L 1346.38,6740.5 L 1343.79,6744.99 L 1165.9,6744.99 L 1165.9,6736.01 L 1343.79,6736.01 Z " />
<path stroke="none" fill="#0000ff" transform="matrix(0.0666667 0 0 0.0666667 -37.1003 -349.4)" d="M 1470.97,6947.3 L 1465.78,6956.29 L 1343.79,6744.99 L 1346.38,6740.5 L 1351.57,6740.5 L 1470.97,6947.3 Z " />
<path stroke="none" fill="#0000ff" transform="matrix(0.0666667 0 0 0.0666667 -37.1003 -349.4)" d="M 1709.76,6947.3 L 1714.95,6956.29 L 1465.78,6956.29 L 1470.97,6947.3 L 1709.76,6947.3 Z " />
<path stroke="none" fill="#0000ff" transform="matrix(0.0666667 0 0 0.0666667 -37.1003 -349.4)" d="M 1684.18,6898.51 L 1684.18,6907.49 L 1496.54,6907.49 L 1496.54,6898.51 L 1684.18,6898.51 Z " />
<path stroke="none" fill="#0000ff" transform="matrix(0.0666667 0 0 0.0666667 -37.1003 -349.4)" d="M 1829.16,6740.5 L 1834.35,6740.5 L 1837.24,6744.48 L 1714.95,6956.29 L 1709.76,6947.3 L 1829.16,6740.5 Z " />
<path stroke="none" fill="#0000ff" transform="matrix(0.0666667 0 0 0.0666667 -37.1003 -349.4)" d="M 1709.76,6533.7 L 1712.36,6529.2 L 1717.88,6529.78 L 1836.61,6735.43 L 1834.35,6740.5 L 1829.16,6740.5 L 1709.76,6533.7 Z " />
<path stroke="none" fill="#0000ff" transform="matrix(0.0666667 0 0 0.0666667 -37.1003 -349.4)" d="M 1680.29,6580.25 L 1688.07,6575.75 L 1781.89,6738.25 L 1774.11,6742.75 L 1680.29,6580.25 Z " />
<path stroke="none" fill="#0000ff" transform="matrix(0.0666667 0 0 0.0666667 -37.1003 -349.4)" d="M 1470.97,6533.7 L 1465.78,6524.71 L 1710.36,6524.71 L 1712.36,6529.2 L 1709.76,6533.7 L 1470.97,6533.7 Z " />
<path stroke="none" fill="#0000ff" transform="matrix(0.0666667 0 0 0.0666667 -37.1003 -349.4)" d="M 1351.57,6740.5 L 1346.38,6740.5 L 1343.79,6736.01 L 1465.78,6524.71 L 1470.97,6533.7 L 1351.57,6740.5 Z " />
<path stroke="none" fill="#0000ff" transform="matrix(0.0666667 0 0 0.0666667 -37.1003 -349.4)" d="M 1406.62,6742.75 L 1398.83,6738.25 L 1492.65,6575.75 L 1500.43,6580.25 L 1406.62,6742.75 Z " />
<text x="0" y="0" stroke="none" fill="#0000ff" transform="matrix(0.0666667 0 0 0.0666667 84.8406 77.4258)" font-style="normal" font-weight="normal" font-size="140px" font-family="Arial" >
S</text>
<path stroke="none" fill="#0000ff" transform="matrix(0.0666667 0 0 0.0666667 -37.1003 -349.4)" d="M 2068.87,6686.06 L 2073,6689.77 L 2072.51,6694.47 L 1837.24,6744.48 L 1834.35,6740.5 L 1836.61,6735.43 L 2068.87,6686.06 Z " />
<path stroke="none" fill="#0000ff" transform="matrix(0.0666667 0 0 0.0666667 -37.1003 -349.4)" d="M 2093.7,6449.9 L 2098.5,6447.12 L 2102.63,6450.84 L 2077.81,6687 L 2073,6689.77 L 2068.87,6686.06 L 2093.7,6449.9 Z " />
<path stroke="none" fill="#0000ff" transform="matrix(0.0666667 0 0 0.0666667 -37.1003 -349.4)" d="M 2138.86,6487.01 L 2147.8,6487.95 L 2129.7,6660.08 L 2120.77,6659.14 L 2138.86,6487.01 Z " />
<path stroke="none" fill="#0000ff" transform="matrix(0.0666667 0 0 0.0666667 -37.1003 -349.4)" d="M 1941.86,6382.3 L 1945.51,6374.09 L 2099,6442.43 L 2098.5,6447.12 L 2093.7,6449.9 L 1941.86,6382.3 Z " />
<path stroke="none" fill="#0000ff" transform="matrix(0.0666667 0 0 0.0666667 -37.1003 -349.4)" d="M 1717.88,6529.78 L 1712.36,6529.2 L 1710.36,6524.71 L 1818.62,6404.47 L 1825.3,6410.48 L 1717.88,6529.78 Z " />
<text x="0" y="0" stroke="none" fill="#0000ff" transform="matrix(0.0666667 0 0 0.0666667 112.859 106.834)" font-style="normal" font-weight="normal" font-size="140px" font-family="Arial" >
S</text>
<path stroke="none" fill="#0000ff" transform="matrix(0.0666667 0 0 0.0666667 -37.1003 -349.4)" d="M 2235.96,6757.41 L 2232.31,6765.62 L 2072.51,6694.47 L 2073,6689.77 L 2077.81,6687 L 2235.96,6757.41 Z " />
<path stroke="none" fill="#0000ff" transform="matrix(0.0666667 0 0 0.0666667 -37.1003 -349.4)" d="M 2453.63,6607.11 L 2459.15,6607.69 L 2461.15,6612.19 L 2346.07,6739.99 L 2339.4,6733.98 L 2453.63,6607.11 Z " />
<path stroke="none" fill="#0000ff" transform="matrix(0.0666667 0 0 0.0666667 -37.1003 -349.4)" d="M 2334.9,6401.47 L 2337.16,6396.4 L 2342.34,6396.4 L 2461.74,6603.2 L 2459.15,6607.69 L 2453.63,6607.11 L 2334.9,6401.47 Z " />
<path stroke="none" fill="#0000ff" transform="matrix(0.0666667 0 0 0.0666667 -37.1003 -349.4)" d="M 2102.63,6450.84 L 2098.5,6447.12 L 2099,6442.43 L 2334.27,6392.42 L 2337.16,6396.4 L 2334.9,6401.47 L 2102.63,6450.84 Z " />
<path stroke="none" fill="#0000ff" transform="matrix(0.0666667 0 0 0.0666667 -37.1003 -349.4)" d="M 2700.54,6603.2 L 2705.73,6612.19 L 2461.15,6612.19 L 2459.15,6607.69 L 2461.74,6603.2 L 2700.54,6603.2 Z " />
<path stroke="none" fill="#0000ff" transform="matrix(0.0666667 0 0 0.0666667 -37.1003 -349.4)" d="M 2819.94,6396.4 L 2825.13,6396.4 L 2827.72,6400.89 L 2705.73,6612.19 L 2700.54,6603.2 L 2819.94,6396.4 Z " />
<path stroke="none" fill="#0000ff" transform="matrix(0.0666667 0 0 0.0666667 -37.1003 -349.4)" d="M 2764.89,6394.15 L 2772.67,6398.64 L 2678.85,6561.14 L 2671.07,6556.65 L 2764.89,6394.15 Z " />
<path stroke="none" fill="#0000ff" transform="matrix(0.0666667 0 0 0.0666667 -37.1003 -349.4)" d="M 2700.54,6189.59 L 2705.73,6180.61 L 2827.72,6391.91 L 2825.13,6396.4 L 2819.94,6396.4 L 2700.54,6189.59 Z " />
<path stroke="none" fill="#0000ff" transform="matrix(0.0666667 0 0 0.0666667 -37.1003 -349.4)" d="M 2461.74,6189.59 L 2456.56,6180.61 L 2705.73,6180.61 L 2700.54,6189.59 L 2461.74,6189.59 Z " />
<path stroke="none" fill="#0000ff" transform="matrix(0.0666667 0 0 0.0666667 -37.1003 -349.4)" d="M 2487.32,6238.39 L 2487.32,6229.41 L 2674.96,6229.41 L 2674.96,6238.39 L 2487.32,6238.39 Z " />
<path stroke="none" fill="#0000ff" transform="matrix(0.0666667 0 0 0.0666667 -37.1003 -349.4)" d="M 2342.34,6396.4 L 2337.16,6396.4 L 2334.27,6392.42 L 2456.56,6180.61 L 2461.74,6189.59 L 2342.34,6396.4 Z " />
<text x="0" y="0" stroke="none" fill="#0000ff" transform="matrix(0.0666667 0 0 0.0666667 164.14 80.6598)" font-style="normal" font-weight="normal" font-size="140px" font-family="Arial" >
N</text>
<path stroke="none" fill="#0000ff" transform="matrix(0.0666667 0 0 0.0666667 -37.1003 -349.4)" d="M 3004.61,6391.91 L 3004.61,6400.89 L 2827.72,6400.89 L 2825.13,6396.4 L 2827.72,6391.91 L 3004.61,6391.91 Z " />
<path stroke="none" fill="#0000ff" transform="matrix(0.0666667 0 0 0.0666667 -37.1003 -349.4)" d="M 3185.92,6185.1 L 3191.1,6185.1 L 3193.7,6189.59 L 3113.82,6327.95 L 3106.04,6323.45 L 3185.92,6185.1 Z " />
<path stroke="none" fill="#0000ff" transform="matrix(0.0666667 0 0 0.0666667 -37.1003 -349.4)" d="M 3193.7,6603.2 L 3191.1,6607.69 L 3185.92,6607.69 L 3110.66,6477.34 L 3118.44,6472.85 L 3193.7,6603.2 Z " />
<path stroke="none" fill="#0000ff" transform="matrix(0.0666667 0 0 0.0666667 -37.1003 -349.4)" d="M 977.809,6533.7 L 980.403,6529.2 L 985.59,6529.2 L 1065.22,6667.12 L 1057.44,6671.62 L 977.809,6533.7 Z " />
<path stroke="none" fill="#0000ff" transform="matrix(0.0666667 0 0 0.0666667 -37.1003 -349.4)" d="M 985.59,6951.8 L 980.403,6951.8 L 977.809,6947.3 L 1052.82,6817.38 L 1060.6,6821.88 L 985.59,6951.8 Z " />
<path stroke="none" fill="#0000ff" transform="matrix(0.0666667 0 0 0.0666667 -37.1003 -349.4)" d="M 739.012,6956.29 L 733.825,6947.3 L 977.809,6947.3 L 980.403,6951.8 L 977.809,6956.29 L 739.012,6956.29 Z " />
<path stroke="none" fill="#0000ff" transform="matrix(0.0666667 0 0 0.0666667 -37.1003 -349.4)" d="M 764.591,7005.09 L 764.591,6996.1 L 952.23,6996.1 L 952.23,7005.09 L 764.591,7005.09 Z " />
<path stroke="none" fill="#0000ff" transform="matrix(0.0666667 0 0 0.0666667 -37.1003 -349.4)" d="M 619.613,7163.09 L 609.239,7163.09 L 733.825,6947.3 L 739.012,6956.29 L 619.613,7163.09 Z " />
<path stroke="none" fill="#0000ff" transform="matrix(0.0666667 0 0 0.0666667 -37.1003 -349.4)" d="M 739.012,7369.9 L 733.825,7378.88 L 609.239,7163.09 L 619.613,7163.09 L 739.012,7369.9 Z " />
<path stroke="none" fill="#0000ff" transform="matrix(0.0666667 0 0 0.0666667 -37.1003 -349.4)" d="M 768.482,7323.35 L 760.701,7327.84 L 666.882,7165.34 L 674.662,7160.85 L 768.482,7323.35 Z " />
<path stroke="none" fill="#0000ff" transform="matrix(0.0666667 0 0 0.0666667 -37.1003 -349.4)" d="M 977.809,7369.9 L 982.996,7378.88 L 733.825,7378.88 L 739.012,7369.9 L 977.809,7369.9 Z " />
<path stroke="none" fill="#0000ff" transform="matrix(0.0666667 0 0 0.0666667 -37.1003 -349.4)" d="M 1097.21,7163.09 L 1107.58,7163.09 L 982.996,7378.88 L 977.809,7369.9 L 1097.21,7163.09 Z " />
<path stroke="none" fill="#0000ff" transform="matrix(0.0666667 0 0 0.0666667 -37.1003 -349.4)" d="M 1042.16,7160.85 L 1049.94,7165.34 L 956.12,7327.84 L 948.34,7323.35 L 1042.16,7160.85 Z " />
<path stroke="none" fill="#0000ff" transform="matrix(0.0666667 0 0 0.0666667 -37.1003 -349.4)" d="M 977.809,6956.29 L 980.403,6951.8 L 985.59,6951.8 L 1107.58,7163.09 L 1097.21,7163.09 L 977.809,6956.29 Z " />
<path stroke="none" fill="#0000ff" transform="matrix(0.0666667 0 0 0.0666667 -37.1003 -349.4)" d="M 1097.21,6317.91 L 1107.58,6317.91 L 985.59,6529.2 L 980.403,6529.2 L 977.809,6524.71 L 1097.21,6317.91 Z " />
<path stroke="none" fill="#0000ff" transform="matrix(0.0666667 0 0 0.0666667 -37.1003 -349.4)" d="M 1042.16,6315.66 L 1049.94,6320.15 L 956.12,6482.65 L 948.34,6478.16 L 1042.16,6315.66 Z " />
<path stroke="none" fill="#0000ff" transform="matrix(0.0666667 0 0 0.0666667 -37.1003 -349.4)" d="M 977.809,6111.1 L 982.996,6102.12 L 1107.58,6317.91 L 1097.21,6317.91 L 977.809,6111.1 Z " />
<path stroke="none" fill="#0000ff" transform="matrix(0.0666667 0 0 0.0666667 -37.1003 -349.4)" d="M 739.012,6111.1 L 733.825,6102.12 L 982.996,6102.12 L 977.809,6111.1 L 739.012,6111.1 Z " />
<path stroke="none" fill="#0000ff" transform="matrix(0.0666667 0 0 0.0666667 -37.1003 -349.4)" d="M 764.591,6159.9 L 764.591,6150.91 L 952.23,6150.91 L 952.23,6159.9 L 764.591,6159.9 Z " />
<path stroke="none" fill="#0000ff" transform="matrix(0.0666667 0 0 0.0666667 -37.1003 -349.4)" d="M 619.613,6317.91 L 609.239,6317.91 L 733.825,6102.12 L 739.012,6111.1 L 619.613,6317.91 Z " />
<path stroke="none" fill="#0000ff" transform="matrix(0.0666667 0 0 0.0666667 -37.1003 -349.4)" d="M 739.012,6524.71 L 733.825,6533.7 L 609.239,6317.91 L 619.613,6317.91 L 739.012,6524.71 Z " />
<path stroke="none" fill="#0000ff" transform="matrix(0.0666667 0 0 0.0666667 -37.1003 -349.4)" d="M 768.482,6478.16 L 760.701,6482.65 L 666.882,6320.15 L 674.662,6315.66 L 768.482,6478.16 Z " />
<path stroke="none" fill="#0000ff" transform="matrix(0.0666667 0 0 0.0666667 -37.1003 -349.4)" d="M 977.809,6524.71 L 980.403,6529.2 L 977.809,6533.7 L 733.825,6533.7 L 739.012,6524.71 L 977.809,6524.71 Z " />
<path stroke="none" fill="#0000ff" transform="matrix(0.0666667 0 0 0.0666667 -37.1003 -349.4)" d="M 3432.49,6180.61 L 3437.68,6189.59 L 3193.7,6189.59 L 3191.1,6185.1 L 3193.7,6180.61 L 3432.49,6180.61 Z " />
<path stroke="none" fill="#0000ff" transform="matrix(0.0666667 0 0 0.0666667 -37.1003 -349.4)" d="M 3406.91,6131.81 L 3406.91,6140.8 L 3219.28,6140.8 L 3219.28,6131.81 L 3406.91,6131.81 Z " />
<path stroke="none" fill="#0000ff" transform="matrix(0.0666667 0 0 0.0666667 -37.1003 -349.4)" d="M 3551.89,5973.8 L 3562.27,5973.8 L 3437.68,6189.59 L 3432.49,6180.61 L 3551.89,5973.8 Z " />
<path stroke="none" fill="#0000ff" transform="matrix(0.0666667 0 0 0.0666667 -37.1003 -349.4)" d="M 3432.49,5767 L 3437.68,5758.02 L 3562.27,5973.8 L 3551.89,5973.8 L 3432.49,5767 Z " />
<path stroke="none" fill="#0000ff" transform="matrix(0.0666667 0 0 0.0666667 -37.1003 -349.4)" d="M 3403.02,5813.55 L 3410.8,5809.06 L 3504.62,5971.56 L 3496.84,5976.05 L 3403.02,5813.55 Z " />
<path stroke="none" fill="#0000ff" transform="matrix(0.0666667 0 0 0.0666667 -37.1003 -349.4)" d="M 3193.7,5767 L 3188.51,5758.02 L 3437.68,5758.02 L 3432.49,5767 L 3193.7,5767 Z " />
<path stroke="none" fill="#0000ff" transform="matrix(0.0666667 0 0 0.0666667 -37.1003 -349.4)" d="M 3074.3,5973.8 L 3063.92,5973.8 L 3188.51,5758.02 L 3193.7,5767 L 3074.3,5973.8 Z " />
<path stroke="none" fill="#0000ff" transform="matrix(0.0666667 0 0 0.0666667 -37.1003 -349.4)" d="M 3129.35,5976.05 L 3121.57,5971.56 L 3215.38,5809.06 L 3223.17,5813.55 L 3129.35,5976.05 Z " />
<path stroke="none" fill="#0000ff" transform="matrix(0.0666667 0 0 0.0666667 -37.1003 -349.4)" d="M 3193.7,6180.61 L 3191.1,6185.1 L 3185.92,6185.1 L 3063.92,5973.8 L 3074.3,5973.8 L 3193.7,6180.61 Z " />
<path stroke="none" fill="#0000ff" transform="matrix(0.0666667 0 0 0.0666667 -37.1003 -349.4)" d="M 3074.3,6818.99 L 3063.92,6818.99 L 3185.92,6607.69 L 3191.1,6607.69 L 3193.7,6612.19 L 3074.3,6818.99 Z " />
<path stroke="none" fill="#0000ff" transform="matrix(0.0666667 0 0 0.0666667 -37.1003 -349.4)" d="M 3129.35,6821.24 L 3121.57,6816.74 L 3215.38,6654.25 L 3223.17,6658.74 L 3129.35,6821.24 Z " />
<path stroke="none" fill="#0000ff" transform="matrix(0.0666667 0 0 0.0666667 -37.1003 -349.4)" d="M 3193.7,7025.8 L 3188.51,7034.78 L 3063.92,6818.99 L 3074.3,6818.99 L 3193.7,7025.8 Z " />
<path stroke="none" fill="#0000ff" transform="matrix(0.0666667 0 0 0.0666667 -37.1003 -349.4)" d="M 3432.49,7025.8 L 3437.68,7034.78 L 3188.51,7034.78 L 3193.7,7025.8 L 3432.49,7025.8 Z " />
<path stroke="none" fill="#0000ff" transform="matrix(0.0666667 0 0 0.0666667 -37.1003 -349.4)" d="M 3406.91,6977 L 3406.91,6985.98 L 3219.28,6985.98 L 3219.28,6977 L 3406.91,6977 Z " />
<path stroke="none" fill="#0000ff" transform="matrix(0.0666667 0 0 0.0666667 -37.1003 -349.4)" d="M 3551.89,6818.99 L 3562.27,6818.99 L 3437.68,7034.78 L 3432.49,7025.8 L 3551.89,6818.99 Z " />
<path stroke="none" fill="#0000ff" transform="matrix(0.0666667 0 0 0.0666667 -37.1003 -349.4)" d="M 3432.49,6612.19 L 3437.68,6603.2 L 3562.27,6818.99 L 3551.89,6818.99 L 3432.49,6612.19 Z " />
<path stroke="none" fill="#0000ff" transform="matrix(0.0666667 0 0 0.0666667 -37.1003 -349.4)" d="M 3403.02,6658.74 L 3410.8,6654.25 L 3504.62,6816.74 L 3496.84,6821.24 L 3403.02,6658.74 Z " />
<path stroke="none" fill="#0000ff" transform="matrix(0.0666667 0 0 0.0666667 -37.1003 -349.4)" d="M 3193.7,6612.19 L 3191.1,6607.69 L 3193.7,6603.2 L 3437.68,6603.2 L 3432.49,6612.19 L 3193.7,6612.19 Z " />
<text x="0" y="0" stroke="none" fill="#0000ff" transform="matrix(0.0666667 0 0 0.0666667 73.7781 159.804)" font-style="normal" font-weight="normal" font-size="140px" font-family="Arial" >
(DPA)</text>
<text x="0" y="0" stroke="none" fill="#0000ff" transform="matrix(0.0666667 0 0 0.0666667 99.2355 161.871)" font-style="normal" font-weight="normal" font-size="105px" font-family="Arial" >
2</text>
<text x="0" y="0" stroke="none" fill="#0000ff" transform="matrix(0.0666667 0 0 0.0666667 103.135 159.804)" font-style="normal" font-weight="normal" font-size="140px" font-family="Arial" >
-BTBT</text>
<path stroke="none" fill="#037700" transform="matrix(0.0666667 0 0 0.0666667 -37.1003 -349.4)" d="M 4037.35,7103.64 L 4034.76,7108.13 L 4029.57,7108.13 L 3910.18,6901.33 L 3912.77,6896.84 L 3917.96,6896.84 L 4037.35,7103.64 Z " />
<path stroke="none" fill="#037700" transform="matrix(0.0666667 0 0 0.0666667 -37.1003 -349.4)" d="M 3982.31,7105.89 L 3974.52,7110.38 L 3880.71,6947.88 L 3888.49,6943.39 L 3982.31,7105.89 Z " />
<path stroke="none" fill="#037700" transform="matrix(0.0666667 0 0 0.0666667 -37.1003 -349.4)" d="M 4276.15,7103.64 L 4281.34,7112.63 L 4037.35,7112.63 L 4034.76,7108.13 L 4037.35,7103.64 L 4276.15,7103.64 Z " />
<path stroke="none" fill="#037700" transform="matrix(0.0666667 0 0 0.0666667 -37.1003 -349.4)" d="M 4395.55,6896.84 L 4405.92,6896.84 L 4281.34,7112.63 L 4276.15,7103.64 L 4395.55,6896.84 Z " />
<path stroke="none" fill="#037700" transform="matrix(0.0666667 0 0 0.0666667 -37.1003 -349.4)" d="M 4340.5,6894.59 L 4348.28,6899.08 L 4254.46,7061.58 L 4246.68,7057.09 L 4340.5,6894.59 Z " />
<path stroke="none" fill="#037700" transform="matrix(0.0666667 0 0 0.0666667 -37.1003 -349.4)" d="M 4276.15,6690.03 L 4281.34,6681.05 L 4405.92,6896.84 L 4395.55,6896.84 L 4276.15,6690.03 Z " />
<path stroke="none" fill="#037700" transform="matrix(0.0666667 0 0 0.0666667 -37.1003 -349.4)" d="M 4037.35,6690.03 L 4032.17,6681.05 L 4281.34,6681.05 L 4276.15,6690.03 L 4037.35,6690.03 Z " />
<path stroke="none" fill="#037700" transform="matrix(0.0666667 0 0 0.0666667 -37.1003 -349.4)" d="M 4062.93,6738.83 L 4062.93,6729.84 L 4250.57,6729.84 L 4250.57,6738.83 L 4062.93,6738.83 Z " />
<path stroke="none" fill="#037700" transform="matrix(0.0666667 0 0 0.0666667 -37.1003 -349.4)" d="M 3917.96,6896.84 L 3912.77,6896.84 L 3910.18,6892.34 L 4032.17,6681.05 L 4037.35,6690.03 L 3917.96,6896.84 Z " />
<path stroke="none" fill="#037700" transform="matrix(0.0666667 0 0 0.0666667 -37.1003 -349.4)" d="M 3671.38,6901.33 L 3666.19,6892.34 L 3910.18,6892.34 L 3912.77,6896.84 L 3910.18,6901.33 L 3671.38,6901.33 Z " />
<path stroke="none" fill="#037700" transform="matrix(0.0666667 0 0 0.0666667 -37.1003 -349.4)" d="M 3551.98,7108.13 L 3541.61,7108.13 L 3666.19,6892.34 L 3671.38,6901.33 L 3551.98,7108.13 Z " />
<path stroke="none" fill="#037700" transform="matrix(0.0666667 0 0 0.0666667 -37.1003 -349.4)" d="M 3607.03,7110.38 L 3599.25,7105.89 L 3693.07,6943.39 L 3700.85,6947.88 L 3607.03,7110.38 Z " />
<path stroke="none" fill="#037700" transform="matrix(0.0666667 0 0 0.0666667 -37.1003 -349.4)" d="M 3671.38,7314.94 L 3666.19,7323.92 L 3541.61,7108.13 L 3551.98,7108.13 L 3671.38,7314.94 Z " />
<path stroke="none" fill="#037700" transform="matrix(0.0666667 0 0 0.0666667 -37.1003 -349.4)" d="M 3910.18,7314.94 L 3912.77,7319.43 L 3910.18,7323.92 L 3666.19,7323.92 L 3671.38,7314.94 L 3910.18,7314.94 Z " />
<path stroke="none" fill="#037700" transform="matrix(0.0666667 0 0 0.0666667 -37.1003 -349.4)" d="M 3884.6,7266.14 L 3884.6,7275.13 L 3696.96,7275.13 L 3696.96,7266.14 L 3884.6,7266.14 Z " />
<path stroke="none" fill="#037700" transform="matrix(0.0666667 0 0 0.0666667 -37.1003 -349.4)" d="M 4029.57,7108.13 L 4034.76,7108.13 L 4037.35,7112.63 L 3917.96,7319.43 L 3912.77,7319.43 L 3910.18,7314.94 L 4029.57,7108.13 Z " />
<text x="0" y="0" stroke="none" fill="#037700" transform="matrix(0.0666667 0 0 0.0666667 228.517 156.282)" font-style="normal" font-weight="normal" font-size="140px" font-family="Arial" >
N</text>
<path stroke="none" fill="#037700" transform="matrix(0.0666667 0 0 0.0666667 -37.1003 -349.4)" d="M 3997.58,7457.35 L 3989.8,7461.84 L 3910.18,7323.92 L 3912.77,7319.43 L 3917.96,7319.43 L 3997.58,7457.35 Z " />
<path stroke="none" fill="#037700" transform="matrix(0.0666667 0 0 0.0666667 -37.1003 -349.4)" d="M 4276.15,7526.23 L 4278.75,7530.73 L 4276.15,7535.22 L 4098.26,7535.22 L 4098.26,7526.23 L 4276.15,7526.23 Z " />
<path stroke="none" fill="#037700" transform="matrix(0.0666667 0 0 0.0666667 -37.1003 -349.4)" d="M 3917.96,7742.02 L 3912.77,7742.02 L 3910.18,7737.53 L 3985.19,7607.61 L 3992.97,7612.1 L 3917.96,7742.02 Z " />
<path stroke="none" fill="#037700" transform="matrix(0.0666667 0 0 0.0666667 -37.1003 -349.4)" d="M 3671.38,7746.52 L 3666.19,7737.53 L 3910.18,7737.53 L 3912.77,7742.02 L 3910.18,7746.52 L 3671.38,7746.52 Z " />
<path stroke="none" fill="#037700" transform="matrix(0.0666667 0 0 0.0666667 -37.1003 -349.4)" d="M 3696.96,7795.31 L 3696.96,7786.33 L 3884.6,7786.33 L 3884.6,7795.31 L 3696.96,7795.31 Z " />
<path stroke="none" fill="#037700" transform="matrix(0.0666667 0 0 0.0666667 -37.1003 -349.4)" d="M 3551.98,7953.32 L 3541.61,7953.32 L 3666.19,7737.53 L 3671.38,7746.52 L 3551.98,7953.32 Z " />
<path stroke="none" fill="#037700" transform="matrix(0.0666667 0 0 0.0666667 -37.1003 -349.4)" d="M 3671.38,8160.12 L 3668.78,8164.62 L 3663.6,8164.62 L 3541.61,7953.32 L 3551.98,7953.32 L 3671.38,8160.12 Z " />
<path stroke="none" fill="#037700" transform="matrix(0.0666667 0 0 0.0666667 -37.1003 -349.4)" d="M 3700.85,8113.57 L 3693.07,8118.07 L 3599.25,7955.57 L 3607.03,7951.07 L 3700.85,8113.57 Z " />
<path stroke="none" fill="#037700" transform="matrix(0.0666667 0 0 0.0666667 -37.1003 -349.4)" d="M 3910.18,8160.12 L 3915.36,8169.11 L 3671.38,8169.11 L 3668.78,8164.62 L 3671.38,8160.12 L 3910.18,8160.12 Z " />
<path stroke="none" fill="#037700" transform="matrix(0.0666667 0 0 0.0666667 -37.1003 -349.4)" d="M 4029.57,7953.32 L 4039.95,7953.32 L 3915.36,8169.11 L 3910.18,8160.12 L 4029.57,7953.32 Z " />
<path stroke="none" fill="#037700" transform="matrix(0.0666667 0 0 0.0666667 -37.1003 -349.4)" d="M 3974.52,7951.07 L 3982.31,7955.57 L 3888.49,8118.07 L 3880.71,8113.57 L 3974.52,7951.07 Z " />
<path stroke="none" fill="#037700" transform="matrix(0.0666667 0 0 0.0666667 -37.1003 -349.4)" d="M 3910.18,7746.52 L 3912.77,7742.02 L 3917.96,7742.02 L 4039.95,7953.32 L 4029.57,7953.32 L 3910.18,7746.52 Z " />
<path stroke="none" fill="#037700" transform="matrix(0.0666667 0 0 0.0666667 -37.1003 -349.4)" d="M 4403.33,7737.53 L 4398.14,7746.52 L 4276.15,7535.22 L 4278.75,7530.73 L 4283.93,7530.73 L 4403.33,7737.53 Z " />
<path stroke="none" fill="#037700" transform="matrix(0.0666667 0 0 0.0666667 -37.1003 -349.4)" d="M 4432.8,7690.98 L 4425.02,7695.47 L 4331.2,7532.97 L 4338.98,7528.48 L 4432.8,7690.98 Z " />
<path stroke="none" fill="#037700" transform="matrix(0.0666667 0 0 0.0666667 -37.1003 -349.4)" d="M 4642.13,7737.53 L 4647.32,7746.52 L 4398.14,7746.52 L 4403.33,7737.53 L 4642.13,7737.53 Z " />
<path stroke="none" fill="#037700" transform="matrix(0.0666667 0 0 0.0666667 -37.1003 -349.4)" d="M 4761.53,7530.73 L 4766.71,7530.73 L 4769.6,7534.71 L 4647.32,7746.52 L 4642.13,7737.53 L 4761.53,7530.73 Z " />
<path stroke="none" fill="#037700" transform="matrix(0.0666667 0 0 0.0666667 -37.1003 -349.4)" d="M 4706.48,7528.48 L 4714.26,7532.97 L 4620.44,7695.47 L 4612.66,7690.98 L 4706.48,7528.48 Z " />
<path stroke="none" fill="#037700" transform="matrix(0.0666667 0 0 0.0666667 -37.1003 -349.4)" d="M 4642.13,7323.92 L 4644.72,7319.43 L 4650.24,7320.01 L 4768.97,7525.65 L 4766.71,7530.73 L 4761.53,7530.73 L 4642.13,7323.92 Z " />
<path stroke="none" fill="#037700" transform="matrix(0.0666667 0 0 0.0666667 -37.1003 -349.4)" d="M 4403.33,7323.92 L 4398.14,7314.94 L 4642.72,7314.94 L 4644.72,7319.43 L 4642.13,7323.92 L 4403.33,7323.92 Z " />
<path stroke="none" fill="#037700" transform="matrix(0.0666667 0 0 0.0666667 -37.1003 -349.4)" d="M 4428.91,7372.72 L 4428.91,7363.73 L 4616.55,7363.73 L 4616.55,7372.72 L 4428.91,7372.72 Z " />
<path stroke="none" fill="#037700" transform="matrix(0.0666667 0 0 0.0666667 -37.1003 -349.4)" d="M 4283.93,7530.73 L 4278.75,7530.73 L 4276.15,7526.23 L 4398.14,7314.94 L 4403.33,7323.92 L 4283.93,7530.73 Z " />
<text x="0" y="0" stroke="none" fill="#037700" transform="matrix(0.0666667 0 0 0.0666667 280.332 130.108)" font-style="normal" font-weight="normal" font-size="140px" font-family="Arial" >
S</text>
<path stroke="none" fill="#037700" transform="matrix(0.0666667 0 0 0.0666667 -37.1003 -349.4)" d="M 5001.24,7476.28 L 5005.37,7480 L 5004.87,7484.7 L 4769.6,7534.71 L 4766.71,7530.73 L 4768.97,7525.65 L 5001.24,7476.28 Z " />
<path stroke="none" fill="#037700" transform="matrix(0.0666667 0 0 0.0666667 -37.1003 -349.4)" d="M 5026.06,7240.13 L 5030.87,7237.35 L 5035,7241.07 L 5010.18,7477.22 L 5005.37,7480 L 5001.24,7476.28 L 5026.06,7240.13 Z " />
<path stroke="none" fill="#037700" transform="matrix(0.0666667 0 0 0.0666667 -37.1003 -349.4)" d="M 4974.17,7267.04 L 4983.1,7267.98 L 4965.01,7440.11 L 4956.08,7439.17 L 4974.17,7267.04 Z " />
<path stroke="none" fill="#037700" transform="matrix(0.0666667 0 0 0.0666667 -37.1003 -349.4)" d="M 4874.22,7172.52 L 4877.88,7164.32 L 5031.36,7232.65 L 5030.87,7237.35 L 5026.06,7240.13 L 4874.22,7172.52 Z " />
<path stroke="none" fill="#037700" transform="matrix(0.0666667 0 0 0.0666667 -37.1003 -349.4)" d="M 4650.24,7320.01 L 4644.72,7319.43 L 4642.72,7314.94 L 4750.99,7194.7 L 4757.66,7200.71 L 4650.24,7320.01 Z " />
<text x="0" y="0" stroke="none" fill="#037700" transform="matrix(0.0666667 0 0 0.0666667 195.986 212.628)" font-style="normal" font-weight="normal" font-size="140px" font-family="Arial" >
N</text>
<path stroke="none" fill="#037700" transform="matrix(0.0666667 0 0 0.0666667 -37.1003 -349.4)" d="M 3591.5,8307.46 L 3583.72,8302.97 L 3663.6,8164.62 L 3668.78,8164.62 L 3671.38,8169.11 L 3591.5,8307.46 Z " />
<path stroke="none" fill="#037700" transform="matrix(0.0666667 0 0 0.0666667 -37.1003 -349.4)" d="M 3305.4,8380.41 L 3302.81,8375.91 L 3305.4,8371.42 L 3482.29,8371.42 L 3482.29,8380.41 L 3305.4,8380.41 Z " />
<path stroke="none" fill="#037700" transform="matrix(0.0666667 0 0 0.0666667 -37.1003 -349.4)" d="M 3671.38,8582.72 L 3668.78,8587.21 L 3663.6,8587.21 L 3588.34,8456.86 L 3596.12,8452.36 L 3671.38,8582.72 Z " />
<path stroke="none" fill="#037700" transform="matrix(0.0666667 0 0 0.0666667 -37.1003 -349.4)" d="M 3178.22,8169.11 L 3183.41,8160.12 L 3305.4,8371.42 L 3302.81,8375.91 L 3297.62,8375.91 L 3178.22,8169.11 Z " />
<path stroke="none" fill="#037700" transform="matrix(0.0666667 0 0 0.0666667 -37.1003 -349.4)" d="M 3148.75,8215.66 L 3156.53,8211.17 L 3250.35,8373.67 L 3242.57,8378.16 L 3148.75,8215.66 Z " />
<path stroke="none" fill="#037700" transform="matrix(0.0666667 0 0 0.0666667 -37.1003 -349.4)" d="M 2939.42,8169.11 L 2934.24,8160.12 L 3183.41,8160.12 L 3178.22,8169.11 L 2939.42,8169.11 Z " />
<path stroke="none" fill="#037700" transform="matrix(0.0666667 0 0 0.0666667 -37.1003 -349.4)" d="M 2820.03,8375.91 L 2809.65,8375.91 L 2934.24,8160.12 L 2939.42,8169.11 L 2820.03,8375.91 Z " />
<path stroke="none" fill="#037700" transform="matrix(0.0666667 0 0 0.0666667 -37.1003 -349.4)" d="M 2875.08,8378.16 L 2867.29,8373.67 L 2961.11,8211.17 L 2968.89,8215.66 L 2875.08,8378.16 Z " />
<path stroke="none" fill="#037700" transform="matrix(0.0666667 0 0 0.0666667 -37.1003 -349.4)" d="M 2939.42,8582.72 L 2934.24,8591.7 L 2809.65,8375.91 L 2820.03,8375.91 L 2939.42,8582.72 Z " />
<path stroke="none" fill="#037700" transform="matrix(0.0666667 0 0 0.0666667 -37.1003 -349.4)" d="M 3178.22,8582.72 L 3183.41,8591.7 L 2934.24,8591.7 L 2939.42,8582.72 L 3178.22,8582.72 Z " />
<path stroke="none" fill="#037700" transform="matrix(0.0666667 0 0 0.0666667 -37.1003 -349.4)" d="M 3152.64,8533.92 L 3152.64,8542.91 L 2965,8542.91 L 2965,8533.92 L 3152.64,8533.92 Z " />
<path stroke="none" fill="#037700" transform="matrix(0.0666667 0 0 0.0666667 -37.1003 -349.4)" d="M 3297.62,8375.91 L 3302.81,8375.91 L 3305.4,8380.41 L 3183.41,8591.7 L 3178.22,8582.72 L 3297.62,8375.91 Z " />
<path stroke="none" fill="#037700" transform="matrix(0.0666667 0 0 0.0666667 -37.1003 -349.4)" d="M 3551.98,8798.51 L 3541.61,8798.51 L 3663.6,8587.21 L 3668.78,8587.21 L 3671.38,8591.7 L 3551.98,8798.51 Z " />
<path stroke="none" fill="#037700" transform="matrix(0.0666667 0 0 0.0666667 -37.1003 -349.4)" d="M 3607.03,8800.75 L 3599.25,8796.26 L 3693.07,8633.76 L 3700.85,8638.25 L 3607.03,8800.75 Z " />
<path stroke="none" fill="#037700" transform="matrix(0.0666667 0 0 0.0666667 -37.1003 -349.4)" d="M 3671.38,9005.31 L 3666.19,9014.3 L 3541.61,8798.51 L 3551.98,8798.51 L 3671.38,9005.31 Z " />
<path stroke="none" fill="#037700" transform="matrix(0.0666667 0 0 0.0666667 -37.1003 -349.4)" d="M 3910.18,9005.31 L 3915.36,9014.3 L 3666.19,9014.3 L 3671.38,9005.31 L 3910.18,9005.31 Z " />
<path stroke="none" fill="#037700" transform="matrix(0.0666667 0 0 0.0666667 -37.1003 -349.4)" d="M 3884.6,8956.51 L 3884.6,8965.5 L 3696.96,8965.5 L 3696.96,8956.51 L 3884.6,8956.51 Z " />
<path stroke="none" fill="#037700" transform="matrix(0.0666667 0 0 0.0666667 -37.1003 -349.4)" d="M 4029.57,8798.51 L 4039.95,8798.51 L 3915.36,9014.3 L 3910.18,9005.31 L 4029.57,8798.51 Z " />
<path stroke="none" fill="#037700" transform="matrix(0.0666667 0 0 0.0666667 -37.1003 -349.4)" d="M 3910.18,8591.7 L 3915.36,8582.72 L 4039.95,8798.51 L 4029.57,8798.51 L 3910.18,8591.7 Z " />
<path stroke="none" fill="#037700" transform="matrix(0.0666667 0 0 0.0666667 -37.1003 -349.4)" d="M 3880.71,8638.25 L 3888.49,8633.76 L 3982.31,8796.26 L 3974.52,8800.75 L 3880.71,8638.25 Z " />
<path stroke="none" fill="#037700" transform="matrix(0.0666667 0 0 0.0666667 -37.1003 -349.4)" d="M 3671.38,8591.7 L 3668.78,8587.21 L 3671.38,8582.72 L 3915.36,8582.72 L 3910.18,8591.7 L 3671.38,8591.7 Z " />
<text x="0" y="0" stroke="none" fill="#037700" transform="matrix(0.0666667 0 0 0.0666667 308.35 159.516)" font-style="normal" font-weight="normal" font-size="140px" font-family="Arial" >
S</text>
<path stroke="none" fill="#037700" transform="matrix(0.0666667 0 0 0.0666667 -37.1003 -349.4)" d="M 5168.33,7547.64 L 5164.67,7555.84 L 5004.87,7484.7 L 5005.37,7480 L 5010.18,7477.22 L 5168.33,7547.64 Z " />
<path stroke="none" fill="#037700" transform="matrix(0.0666667 0 0 0.0666667 -37.1003 -349.4)" d="M 5385.99,7397.34 L 5391.52,7397.92 L 5393.52,7402.41 L 5278.44,7530.22 L 5271.76,7524.21 L 5385.99,7397.34 Z " />
<path stroke="none" fill="#037700" transform="matrix(0.0666667 0 0 0.0666667 -37.1003 -349.4)" d="M 5267.26,7191.7 L 5269.52,7186.62 L 5274.71,7186.62 L 5394.11,7393.43 L 5391.52,7397.92 L 5385.99,7397.34 L 5267.26,7191.7 Z " />
<path stroke="none" fill="#037700" transform="matrix(0.0666667 0 0 0.0666667 -37.1003 -349.4)" d="M 5035,7241.07 L 5030.87,7237.35 L 5031.36,7232.65 L 5266.63,7182.65 L 5269.52,7186.62 L 5267.26,7191.7 L 5035,7241.07 Z " />
<path stroke="none" fill="#037700" transform="matrix(0.0666667 0 0 0.0666667 -37.1003 -349.4)" d="M 5632.91,7393.43 L 5638.09,7402.41 L 5393.52,7402.41 L 5391.52,7397.92 L 5394.11,7393.43 L 5632.91,7393.43 Z " />
<path stroke="none" fill="#037700" transform="matrix(0.0666667 0 0 0.0666667 -37.1003 -349.4)" d="M 5752.3,7186.62 L 5757.49,7186.62 L 5760.09,7191.12 L 5638.09,7402.41 L 5632.91,7393.43 L 5752.3,7186.62 Z " />
<path stroke="none" fill="#037700" transform="matrix(0.0666667 0 0 0.0666667 -37.1003 -349.4)" d="M 5697.26,7184.38 L 5705.04,7188.87 L 5611.22,7351.37 L 5603.44,7346.88 L 5697.26,7184.38 Z " />
<path stroke="none" fill="#037700" transform="matrix(0.0666667 0 0 0.0666667 -37.1003 -349.4)" d="M 5632.91,6979.82 L 5638.09,6970.84 L 5760.09,7182.13 L 5757.49,7186.62 L 5752.3,7186.62 L 5632.91,6979.82 Z " />
<path stroke="none" fill="#037700" transform="matrix(0.0666667 0 0 0.0666667 -37.1003 -349.4)" d="M 5394.11,6979.82 L 5388.92,6970.84 L 5638.09,6970.84 L 5632.91,6979.82 L 5394.11,6979.82 Z " />
<path stroke="none" fill="#037700" transform="matrix(0.0666667 0 0 0.0666667 -37.1003 -349.4)" d="M 5419.69,7028.62 L 5419.69,7019.63 L 5607.33,7019.63 L 5607.33,7028.62 L 5419.69,7028.62 Z " />
<path stroke="none" fill="#037700" transform="matrix(0.0666667 0 0 0.0666667 -37.1003 -349.4)" d="M 5274.71,7186.62 L 5269.52,7186.62 L 5266.63,7182.65 L 5388.92,6970.84 L 5394.11,6979.82 L 5274.71,7186.62 Z " />
<text x="0" y="0" stroke="none" fill="#037700" transform="matrix(0.0666667 0 0 0.0666667 359.631 133.342)" font-style="normal" font-weight="normal" font-size="140px" font-family="Arial" >
N</text>
<path stroke="none" fill="#037700" transform="matrix(0.0666667 0 0 0.0666667 -37.1003 -349.4)" d="M 5936.98,7182.13 L 5936.98,7191.12 L 5760.09,7191.12 L 5757.49,7186.62 L 5760.09,7182.13 L 5936.98,7182.13 Z " />
<path stroke="none" fill="#037700" transform="matrix(0.0666667 0 0 0.0666667 -37.1003 -349.4)" d="M 6118.28,6975.33 L 6123.47,6975.33 L 6126.06,6979.82 L 6046.18,7118.17 L 6038.4,7113.68 L 6118.28,6975.33 Z " />
<path stroke="none" fill="#037700" transform="matrix(0.0666667 0 0 0.0666667 -37.1003 -349.4)" d="M 6126.06,7393.43 L 6123.47,7397.92 L 6118.28,7397.92 L 6043.02,7267.57 L 6050.8,7263.08 L 6126.06,7393.43 Z " />
<path stroke="none" fill="#037700" transform="matrix(0.0666667 0 0 0.0666667 -37.1003 -349.4)" d="M 6364.86,6970.84 L 6367.45,6975.33 L 6364.86,6979.82 L 6126.06,6979.82 L 6123.47,6975.33 L 6126.06,6970.84 L 6364.86,6970.84 Z " />
<path stroke="none" fill="#037700" transform="matrix(0.0666667 0 0 0.0666667 -37.1003 -349.4)" d="M 6339.28,6922.04 L 6339.28,6931.02 L 6151.64,6931.02 L 6151.64,6922.04 L 6339.28,6922.04 Z " />
<path stroke="none" fill="#037700" transform="matrix(0.0666667 0 0 0.0666667 -37.1003 -349.4)" d="M 6484.26,6764.03 L 6489.44,6764.03 L 6492.04,6768.52 L 6372.64,6975.33 L 6367.45,6975.33 L 6364.86,6970.84 L 6484.26,6764.03 Z " />
<path stroke="none" fill="#037700" transform="matrix(0.0666667 0 0 0.0666667 -37.1003 -349.4)" d="M 6364.86,6557.23 L 6370.05,6548.24 L 6492.04,6759.54 L 6489.44,6764.03 L 6484.26,6764.03 L 6364.86,6557.23 Z " />
<path stroke="none" fill="#037700" transform="matrix(0.0666667 0 0 0.0666667 -37.1003 -349.4)" d="M 6335.39,6603.78 L 6343.17,6599.29 L 6436.99,6761.79 L 6429.21,6766.28 L 6335.39,6603.78 Z " />
<path stroke="none" fill="#037700" transform="matrix(0.0666667 0 0 0.0666667 -37.1003 -349.4)" d="M 6126.06,6557.23 L 6120.87,6548.24 L 6370.05,6548.24 L 6364.86,6557.23 L 6126.06,6557.23 Z " />
<path stroke="none" fill="#037700" transform="matrix(0.0666667 0 0 0.0666667 -37.1003 -349.4)" d="M 6006.66,6764.03 L 5996.29,6764.03 L 6120.87,6548.24 L 6126.06,6557.23 L 6006.66,6764.03 Z " />
<path stroke="none" fill="#037700" transform="matrix(0.0666667 0 0 0.0666667 -37.1003 -349.4)" d="M 6061.71,6766.28 L 6053.93,6761.79 L 6147.75,6599.29 L 6155.53,6603.78 L 6061.71,6766.28 Z " />
<path stroke="none" fill="#037700" transform="matrix(0.0666667 0 0 0.0666667 -37.1003 -349.4)" d="M 6126.06,6970.84 L 6123.47,6975.33 L 6118.28,6975.33 L 5996.29,6764.03 L 6006.66,6764.03 L 6126.06,6970.84 Z " />
<path stroke="none" fill="#037700" transform="matrix(0.0666667 0 0 0.0666667 -37.1003 -349.4)" d="M 6492.04,7182.13 L 6486.85,7191.12 L 6364.86,6979.82 L 6367.45,6975.33 L 6372.64,6975.33 L 6492.04,7182.13 Z " />
<path stroke="none" fill="#037700" transform="matrix(0.0666667 0 0 0.0666667 -37.1003 -349.4)" d="M 6730.84,7182.13 L 6736.02,7191.12 L 6486.85,7191.12 L 6492.04,7182.13 L 6730.84,7182.13 Z " />
<path stroke="none" fill="#037700" transform="matrix(0.0666667 0 0 0.0666667 -37.1003 -349.4)" d="M 6705.26,7133.34 L 6705.26,7142.32 L 6517.62,7142.32 L 6517.62,7133.34 L 6705.26,7133.34 Z " />
<path stroke="none" fill="#037700" transform="matrix(0.0666667 0 0 0.0666667 -37.1003 -349.4)" d="M 6850.23,6975.33 L 6860.61,6975.33 L 6736.02,7191.12 L 6730.84,7182.13 L 6850.23,6975.33 Z " />
<path stroke="none" fill="#037700" transform="matrix(0.0666667 0 0 0.0666667 -37.1003 -349.4)" d="M 6730.84,6768.52 L 6736.02,6759.54 L 6860.61,6975.33 L 6850.23,6975.33 L 6730.84,6768.52 Z " />
<path stroke="none" fill="#037700" transform="matrix(0.0666667 0 0 0.0666667 -37.1003 -349.4)" d="M 6701.37,6815.07 L 6709.15,6810.58 L 6802.97,6973.08 L 6795.19,6977.57 L 6701.37,6815.07 Z " />
<path stroke="none" fill="#037700" transform="matrix(0.0666667 0 0 0.0666667 -37.1003 -349.4)" d="M 6492.04,6768.52 L 6489.44,6764.03 L 6492.04,6759.54 L 6736.02,6759.54 L 6730.84,6768.52 L 6492.04,6768.52 Z " />
<path stroke="none" fill="#037700" transform="matrix(0.0666667 0 0 0.0666667 -37.1003 -349.4)" d="M 6006.66,7609.22 L 5996.29,7609.22 L 6118.28,7397.92 L 6123.47,7397.92 L 6126.06,7402.41 L 6006.66,7609.22 Z " />
<path stroke="none" fill="#037700" transform="matrix(0.0666667 0 0 0.0666667 -37.1003 -349.4)" d="M 6061.71,7611.46 L 6053.93,7606.97 L 6147.75,7444.47 L 6155.53,7448.96 L 6061.71,7611.46 Z " />
<path stroke="none" fill="#037700" transform="matrix(0.0666667 0 0 0.0666667 -37.1003 -349.4)" d="M 6126.06,7816.02 L 6120.87,7825.01 L 5996.29,7609.22 L 6006.66,7609.22 L 6126.06,7816.02 Z " />
<path stroke="none" fill="#037700" transform="matrix(0.0666667 0 0 0.0666667 -37.1003 -349.4)" d="M 6364.86,7816.02 L 6367.45,7820.51 L 6364.86,7825.01 L 6120.87,7825.01 L 6126.06,7816.02 L 6364.86,7816.02 Z " />
<path stroke="none" fill="#037700" transform="matrix(0.0666667 0 0 0.0666667 -37.1003 -349.4)" d="M 6339.28,7767.23 L 6339.28,7776.21 L 6151.64,7776.21 L 6151.64,7767.23 L 6339.28,7767.23 Z " />
<path stroke="none" fill="#037700" transform="matrix(0.0666667 0 0 0.0666667 -37.1003 -349.4)" d="M 6484.26,7609.22 L 6494.63,7609.22 L 6372.64,7820.51 L 6367.45,7820.51 L 6364.86,7816.02 L 6484.26,7609.22 Z " />
<path stroke="none" fill="#037700" transform="matrix(0.0666667 0 0 0.0666667 -37.1003 -349.4)" d="M 6364.86,7402.41 L 6370.05,7393.43 L 6494.63,7609.22 L 6484.26,7609.22 L 6364.86,7402.41 Z " />
<path stroke="none" fill="#037700" transform="matrix(0.0666667 0 0 0.0666667 -37.1003 -349.4)" d="M 6335.39,7448.96 L 6343.17,7444.47 L 6436.99,7606.97 L 6429.21,7611.46 L 6335.39,7448.96 Z " />
<path stroke="none" fill="#037700" transform="matrix(0.0666667 0 0 0.0666667 -37.1003 -349.4)" d="M 6126.06,7402.41 L 6123.47,7397.92 L 6126.06,7393.43 L 6370.05,7393.43 L 6364.86,7402.41 L 6126.06,7402.41 Z " />
<text x="0" y="0" stroke="none" fill="#037700" transform="matrix(0.0666667 0 0 0.0666667 392.163 189.687)" font-style="normal" font-weight="normal" font-size="140px" font-family="Arial" >
N</text>
<path stroke="none" fill="#037700" transform="matrix(0.0666667 0 0 0.0666667 -37.1003 -349.4)" d="M 6452.27,7958.44 L 6444.49,7962.93 L 6364.86,7825.01 L 6367.45,7820.51 L 6372.64,7820.51 L 6452.27,7958.44 Z " />
<path stroke="none" fill="#037700" transform="matrix(0.0666667 0 0 0.0666667 -37.1003 -349.4)" d="M 6730.84,8027.32 L 6733.43,8031.81 L 6730.84,8036.3 L 6552.94,8036.3 L 6552.94,8027.32 L 6730.84,8027.32 Z " />
<path stroke="none" fill="#037700" transform="matrix(0.0666667 0 0 0.0666667 -37.1003 -349.4)" d="M 6372.64,8243.11 L 6367.45,8243.11 L 6364.86,8238.62 L 6439.87,8108.7 L 6447.65,8113.19 L 6372.64,8243.11 Z " />
<path stroke="none" fill="#037700" transform="matrix(0.0666667 0 0 0.0666667 -37.1003 -349.4)" d="M 6126.06,8247.6 L 6120.87,8238.62 L 6364.86,8238.62 L 6367.45,8243.11 L 6364.86,8247.6 L 6126.06,8247.6 Z " />
<path stroke="none" fill="#037700" transform="matrix(0.0666667 0 0 0.0666667 -37.1003 -349.4)" d="M 6151.64,8296.4 L 6151.64,8287.41 L 6339.28,8287.41 L 6339.28,8296.4 L 6151.64,8296.4 Z " />
<path stroke="none" fill="#037700" transform="matrix(0.0666667 0 0 0.0666667 -37.1003 -349.4)" d="M 6006.66,8454.4 L 5996.29,8454.4 L 6120.87,8238.62 L 6126.06,8247.6 L 6006.66,8454.4 Z " />
<path stroke="none" fill="#037700" transform="matrix(0.0666667 0 0 0.0666667 -37.1003 -349.4)" d="M 6126.06,8661.21 L 6120.87,8670.19 L 5996.29,8454.4 L 6006.66,8454.4 L 6126.06,8661.21 Z " />
<path stroke="none" fill="#037700" transform="matrix(0.0666667 0 0 0.0666667 -37.1003 -349.4)" d="M 6155.53,8614.66 L 6147.75,8619.15 L 6053.93,8456.65 L 6061.71,8452.16 L 6155.53,8614.66 Z " />
<path stroke="none" fill="#037700" transform="matrix(0.0666667 0 0 0.0666667 -37.1003 -349.4)" d="M 6364.86,8661.21 L 6370.05,8670.19 L 6120.87,8670.19 L 6126.06,8661.21 L 6364.86,8661.21 Z " />
<path stroke="none" fill="#037700" transform="matrix(0.0666667 0 0 0.0666667 -37.1003 -349.4)" d="M 6484.26,8454.4 L 6494.63,8454.4 L 6370.05,8670.19 L 6364.86,8661.21 L 6484.26,8454.4 Z " />
<path stroke="none" fill="#037700" transform="matrix(0.0666667 0 0 0.0666667 -37.1003 -349.4)" d="M 6429.21,8452.16 L 6436.99,8456.65 L 6343.17,8619.15 L 6335.39,8614.66 L 6429.21,8452.16 Z " />
<path stroke="none" fill="#037700" transform="matrix(0.0666667 0 0 0.0666667 -37.1003 -349.4)" d="M 6364.86,8247.6 L 6367.45,8243.11 L 6372.64,8243.11 L 6494.63,8454.4 L 6484.26,8454.4 L 6364.86,8247.6 Z " />
<path stroke="none" fill="#037700" transform="matrix(0.0666667 0 0 0.0666667 -37.1003 -349.4)" d="M 6858.02,8238.62 L 6852.83,8247.6 L 6730.84,8036.3 L 6733.43,8031.81 L 6738.62,8031.81 L 6858.02,8238.62 Z " />
<path stroke="none" fill="#037700" transform="matrix(0.0666667 0 0 0.0666667 -37.1003 -349.4)" d="M 6887.48,8192.07 L 6879.7,8196.56 L 6785.88,8034.06 L 6793.67,8029.57 L 6887.48,8192.07 Z " />
<path stroke="none" fill="#037700" transform="matrix(0.0666667 0 0 0.0666667 -37.1003 -349.4)" d="M 7096.81,8238.62 L 7102,8247.6 L 6852.83,8247.6 L 6858.02,8238.62 L 7096.81,8238.62 Z " />
<path stroke="none" fill="#037700" transform="matrix(0.0666667 0 0 0.0666667 -37.1003 -349.4)" d="M 7216.21,8031.81 L 7226.59,8031.81 L 7102,8247.6 L 7096.81,8238.62 L 7216.21,8031.81 Z " />
<path stroke="none" fill="#037700" transform="matrix(0.0666667 0 0 0.0666667 -37.1003 -349.4)" d="M 7161.16,8029.57 L 7168.94,8034.06 L 7075.12,8196.56 L 7067.34,8192.07 L 7161.16,8029.57 Z " />
<path stroke="none" fill="#037700" transform="matrix(0.0666667 0 0 0.0666667 -37.1003 -349.4)" d="M 7096.81,7825.01 L 7102,7816.02 L 7226.59,8031.81 L 7216.21,8031.81 L 7096.81,7825.01 Z " />
<path stroke="none" fill="#037700" transform="matrix(0.0666667 0 0 0.0666667 -37.1003 -349.4)" d="M 6858.02,7825.01 L 6852.83,7816.02 L 7102,7816.02 L 7096.81,7825.01 L 6858.02,7825.01 Z " />
<path stroke="none" fill="#037700" transform="matrix(0.0666667 0 0 0.0666667 -37.1003 -349.4)" d="M 6883.59,7873.8 L 6883.59,7864.82 L 7071.23,7864.82 L 7071.23,7873.8 L 6883.59,7873.8 Z " />
<path stroke="none" fill="#037700" transform="matrix(0.0666667 0 0 0.0666667 -37.1003 -349.4)" d="M 6738.62,8031.81 L 6733.43,8031.81 L 6730.84,8027.32 L 6852.83,7816.02 L 6858.02,7825.01 L 6738.62,8031.81 Z " />
<text x="0" y="0" stroke="none" fill="#037700" transform="matrix(0.0666667 0 0 0.0666667 263.048 268.832)" font-style="normal" font-weight="normal" font-size="140px" font-family="Arial" >
(NTPDA)</text>
<text x="0" y="0" stroke="none" fill="#037700" transform="matrix(0.0666667 0 0 0.0666667 300.947 270.898)" font-style="normal" font-weight="normal" font-size="105px" font-family="Arial" >
2</text>
<text x="0" y="0" stroke="none" fill="#037700" transform="matrix(0.0666667 0 0 0.0666667 304.847 268.832)" font-style="normal" font-weight="normal" font-size="140px" font-family="Arial" >
-BTBT</text>
<path stroke="none" fill="#b00000" transform="matrix(0.0666667 0 0 0.0666667 -37.1003 -349.4)" d="M 6965.25,6051.6 L 6960.06,6060.59 L 6835.47,5844.8 L 6845.85,5844.8 L 6965.25,6051.6 Z " />
<path stroke="none" fill="#b00000" transform="matrix(0.0666667 0 0 0.0666667 -37.1003 -349.4)" d="M 6994.72,6005.05 L 6986.94,6009.54 L 6893.12,5847.04 L 6900.9,5842.55 L 6994.72,6005.05 Z " />
<path stroke="none" fill="#b00000" transform="matrix(0.0666667 0 0 0.0666667 -37.1003 -349.4)" d="M 7204.04,6051.6 L 7206.64,6056.09 L 7204.04,6060.59 L 6960.06,6060.59 L 6965.25,6051.6 L 7204.04,6051.6 Z " />
<path stroke="none" fill="#b00000" transform="matrix(0.0666667 0 0 0.0666667 -37.1003 -349.4)" d="M 7323.44,5844.8 L 7333.82,5844.8 L 7211.82,6056.09 L 7206.64,6056.09 L 7204.04,6051.6 L 7323.44,5844.8 Z " />
<path stroke="none" fill="#b00000" transform="matrix(0.0666667 0 0 0.0666667 -37.1003 -349.4)" d="M 7268.39,5842.55 L 7276.17,5847.04 L 7182.35,6009.54 L 7174.57,6005.05 L 7268.39,5842.55 Z " />
<path stroke="none" fill="#b00000" transform="matrix(0.0666667 0 0 0.0666667 -37.1003 -349.4)" d="M 7204.04,5637.99 L 7209.23,5629.01 L 7333.82,5844.8 L 7323.44,5844.8 L 7204.04,5637.99 Z " />
<path stroke="none" fill="#b00000" transform="matrix(0.0666667 0 0 0.0666667 -37.1003 -349.4)" d="M 6965.25,5637.99 L 6960.06,5629.01 L 7209.23,5629.01 L 7204.04,5637.99 L 6965.25,5637.99 Z " />
<path stroke="none" fill="#b00000" transform="matrix(0.0666667 0 0 0.0666667 -37.1003 -349.4)" d="M 6990.83,5686.79 L 6990.83,5677.81 L 7178.46,5677.81 L 7178.46,5686.79 L 6990.83,5686.79 Z " />
<path stroke="none" fill="#b00000" transform="matrix(0.0666667 0 0 0.0666667 -37.1003 -349.4)" d="M 6845.85,5844.8 L 6835.47,5844.8 L 6960.06,5629.01 L 6965.25,5637.99 L 6845.85,5844.8 Z " />
<text x="0" y="0" stroke="none" fill="#b00000" transform="matrix(0.0666667 0 0 0.0666667 448.108 72.0594)" font-style="normal" font-weight="normal" font-size="140px" font-family="Arial" >
N</text>
<path stroke="none" fill="#b00000" transform="matrix(0.0666667 0 0 0.0666667 -37.1003 -349.4)" d="M 7291.45,6194.02 L 7283.67,6198.51 L 7204.04,6060.59 L 7206.64,6056.09 L 7211.82,6056.09 L 7291.45,6194.02 Z " />
<path stroke="none" fill="#b00000" transform="matrix(0.0666667 0 0 0.0666667 -37.1003 -349.4)" d="M 7570.02,6262.9 L 7572.61,6267.39 L 7570.02,6271.88 L 7392.13,6271.88 L 7392.13,6262.9 L 7570.02,6262.9 Z " />
<path stroke="none" fill="#b00000" transform="matrix(0.0666667 0 0 0.0666667 -37.1003 -349.4)" d="M 7211.82,6478.69 L 7206.64,6478.69 L 7204.04,6474.2 L 7279.05,6344.27 L 7286.83,6348.77 L 7211.82,6478.69 Z " />
<path stroke="none" fill="#b00000" transform="matrix(0.0666667 0 0 0.0666667 -37.1003 -349.4)" d="M 6965.25,6483.18 L 6960.06,6474.2 L 7204.04,6474.2 L 7206.64,6478.69 L 7204.04,6483.18 L 6965.25,6483.18 Z " />
<path stroke="none" fill="#b00000" transform="matrix(0.0666667 0 0 0.0666667 -37.1003 -349.4)" d="M 6990.83,6531.98 L 6990.83,6522.99 L 7178.46,6522.99 L 7178.46,6531.98 L 6990.83,6531.98 Z " />
<path stroke="none" fill="#b00000" transform="matrix(0.0666667 0 0 0.0666667 -37.1003 -349.4)" d="M 6845.85,6689.98 L 6835.47,6689.98 L 6960.06,6474.2 L 6965.25,6483.18 L 6845.85,6689.98 Z " />
<path stroke="none" fill="#b00000" transform="matrix(0.0666667 0 0 0.0666667 -37.1003 -349.4)" d="M 6965.25,6896.79 L 6960.06,6905.77 L 6835.47,6689.98 L 6845.85,6689.98 L 6965.25,6896.79 Z " />
<path stroke="none" fill="#b00000" transform="matrix(0.0666667 0 0 0.0666667 -37.1003 -349.4)" d="M 6994.72,6850.24 L 6986.94,6854.73 L 6893.12,6692.23 L 6900.9,6687.74 L 6994.72,6850.24 Z " />
<path stroke="none" fill="#b00000" transform="matrix(0.0666667 0 0 0.0666667 -37.1003 -349.4)" d="M 7204.04,6896.79 L 7206.64,6901.28 L 7204.04,6905.77 L 6960.06,6905.77 L 6965.25,6896.79 L 7204.04,6896.79 Z " />
<path stroke="none" fill="#b00000" transform="matrix(0.0666667 0 0 0.0666667 -37.1003 -349.4)" d="M 7323.44,6689.98 L 7328.63,6689.98 L 7331.22,6694.48 L 7211.82,6901.28 L 7206.64,6901.28 L 7204.04,6896.79 L 7323.44,6689.98 Z " />
<path stroke="none" fill="#b00000" transform="matrix(0.0666667 0 0 0.0666667 -37.1003 -349.4)" d="M 7268.39,6687.74 L 7276.17,6692.23 L 7182.35,6854.73 L 7174.57,6850.24 L 7268.39,6687.74 Z " />
<path stroke="none" fill="#b00000" transform="matrix(0.0666667 0 0 0.0666667 -37.1003 -349.4)" d="M 7204.04,6483.18 L 7206.64,6478.69 L 7211.82,6478.69 L 7331.22,6685.49 L 7328.63,6689.98 L 7323.44,6689.98 L 7204.04,6483.18 Z " />
<path stroke="none" fill="#b00000" transform="matrix(0.0666667 0 0 0.0666667 -37.1003 -349.4)" d="M 7697.2,6474.2 L 7692.01,6483.18 L 7570.02,6271.88 L 7572.61,6267.39 L 7577.8,6267.39 L 7697.2,6474.2 Z " />
<path stroke="none" fill="#b00000" transform="matrix(0.0666667 0 0 0.0666667 -37.1003 -349.4)" d="M 7726.67,6427.64 L 7718.89,6432.14 L 7625.07,6269.64 L 7632.85,6265.14 L 7726.67,6427.64 Z " />
<path stroke="none" fill="#b00000" transform="matrix(0.0666667 0 0 0.0666667 -37.1003 -349.4)" d="M 7936,6474.2 L 7941.18,6483.18 L 7692.01,6483.18 L 7697.2,6474.2 L 7936,6474.2 Z " />
<path stroke="none" fill="#b00000" transform="matrix(0.0666667 0 0 0.0666667 -37.1003 -349.4)" d="M 8055.4,6267.39 L 8060.58,6267.39 L 8063.47,6271.37 L 7941.18,6483.18 L 7936,6474.2 L 8055.4,6267.39 Z " />
<path stroke="none" fill="#b00000" transform="matrix(0.0666667 0 0 0.0666667 -37.1003 -349.4)" d="M 8000.35,6265.14 L 8008.13,6269.64 L 7914.31,6432.14 L 7906.53,6427.64 L 8000.35,6265.14 Z " />
<path stroke="none" fill="#b00000" transform="matrix(0.0666667 0 0 0.0666667 -37.1003 -349.4)" d="M 7936,6060.59 L 7938.59,6056.09 L 7944.11,6056.67 L 8062.84,6262.32 L 8060.58,6267.39 L 8055.4,6267.39 L 7936,6060.59 Z " />
<path stroke="none" fill="#b00000" transform="matrix(0.0666667 0 0 0.0666667 -37.1003 -349.4)" d="M 7697.2,6060.59 L 7692.01,6051.6 L 7936.59,6051.6 L 7938.59,6056.09 L 7936,6060.59 L 7697.2,6060.59 Z " />
<path stroke="none" fill="#b00000" transform="matrix(0.0666667 0 0 0.0666667 -37.1003 -349.4)" d="M 7722.78,6109.38 L 7722.78,6100.4 L 7910.42,6100.4 L 7910.42,6109.38 L 7722.78,6109.38 Z " />
<path stroke="none" fill="#b00000" transform="matrix(0.0666667 0 0 0.0666667 -37.1003 -349.4)" d="M 7577.8,6267.39 L 7572.61,6267.39 L 7570.02,6262.9 L 7692.01,6051.6 L 7697.2,6060.59 L 7577.8,6267.39 Z " />
<path stroke="none" fill="#b00000" transform="matrix(0.0666667 0 0 0.0666667 -37.1003 -349.4)" d="M 7331.22,7108.09 L 7326.04,7117.07 L 7204.04,6905.77 L 7206.64,6901.28 L 7211.82,6901.28 L 7331.22,7108.09 Z " />
<path stroke="none" fill="#b00000" transform="matrix(0.0666667 0 0 0.0666667 -37.1003 -349.4)" d="M 7570.02,7108.09 L 7575.21,7117.07 L 7326.04,7117.07 L 7331.22,7108.09 L 7570.02,7108.09 Z " />
<path stroke="none" fill="#b00000" transform="matrix(0.0666667 0 0 0.0666667 -37.1003 -349.4)" d="M 7544.44,7059.29 L 7544.44,7068.27 L 7356.8,7068.27 L 7356.8,7059.29 L 7544.44,7059.29 Z " />
<path stroke="none" fill="#b00000" transform="matrix(0.0666667 0 0 0.0666667 -37.1003 -349.4)" d="M 7689.42,6901.28 L 7699.79,6901.28 L 7575.21,7117.07 L 7570.02,7108.09 L 7689.42,6901.28 Z " />
<path stroke="none" fill="#b00000" transform="matrix(0.0666667 0 0 0.0666667 -37.1003 -349.4)" d="M 7570.02,6694.48 L 7575.21,6685.49 L 7699.79,6901.28 L 7689.42,6901.28 L 7570.02,6694.48 Z " />
<path stroke="none" fill="#b00000" transform="matrix(0.0666667 0 0 0.0666667 -37.1003 -349.4)" d="M 7540.55,6741.03 L 7548.33,6736.53 L 7642.15,6899.03 L 7634.37,6903.53 L 7540.55,6741.03 Z " />
<path stroke="none" fill="#b00000" transform="matrix(0.0666667 0 0 0.0666667 -37.1003 -349.4)" d="M 7331.22,6694.48 L 7328.63,6689.98 L 7331.22,6685.49 L 7575.21,6685.49 L 7570.02,6694.48 L 7331.22,6694.48 Z " />
<text x="0" y="0" stroke="none" fill="#b00000" transform="matrix(0.0666667 0 0 0.0666667 499.923 45.8852)" font-style="normal" font-weight="normal" font-size="140px" font-family="Arial" >
S</text>
<path stroke="none" fill="#b00000" transform="matrix(0.0666667 0 0 0.0666667 -37.1003 -349.4)" d="M 8295.11,6212.95 L 8299.24,6216.66 L 8298.74,6221.36 L 8063.47,6271.37 L 8060.58,6267.39 L 8062.84,6262.32 L 8295.11,6212.95 Z " />
<path stroke="none" fill="#b00000" transform="matrix(0.0666667 0 0 0.0666667 -37.1003 -349.4)" d="M 8319.93,5976.79 L 8324.74,5974.02 L 8328.87,5977.73 L 8304.04,6213.89 L 8299.24,6216.66 L 8295.11,6212.95 L 8319.93,5976.79 Z " />
<path stroke="none" fill="#b00000" transform="matrix(0.0666667 0 0 0.0666667 -37.1003 -349.4)" d="M 8268.04,6003.7 L 8276.97,6004.64 L 8258.88,6176.77 L 8249.94,6175.83 L 8268.04,6003.7 Z " />
<path stroke="none" fill="#b00000" transform="matrix(0.0666667 0 0 0.0666667 -37.1003 -349.4)" d="M 8168.09,5909.19 L 8171.74,5900.98 L 8325.23,5969.32 L 8324.74,5974.02 L 8319.93,5976.79 L 8168.09,5909.19 Z " />
<path stroke="none" fill="#b00000" transform="matrix(0.0666667 0 0 0.0666667 -37.1003 -349.4)" d="M 7944.11,6056.67 L 7938.59,6056.09 L 7936.59,6051.6 L 8044.85,5931.36 L 8051.53,5937.37 L 7944.11,6056.67 Z " />
<text x="0" y="0" stroke="none" fill="#b00000" transform="matrix(0.0666667 0 0 0.0666667 527.941 75.2934)" font-style="normal" font-weight="normal" font-size="140px" font-family="Arial" >
S</text>
<path stroke="none" fill="#b00000" transform="matrix(0.0666667 0 0 0.0666667 -37.1003 -349.4)" d="M 8462.2,6284.3 L 8458.54,6292.51 L 8298.74,6221.36 L 8299.24,6216.66 L 8304.04,6213.89 L 8462.2,6284.3 Z " />
<path stroke="none" fill="#b00000" transform="matrix(0.0666667 0 0 0.0666667 -37.1003 -349.4)" d="M 8679.86,6134 L 8685.38,6134.59 L 8687.38,6139.08 L 8572.31,6266.88 L 8565.63,6260.87 L 8679.86,6134 Z " />
<path stroke="none" fill="#b00000" transform="matrix(0.0666667 0 0 0.0666667 -37.1003 -349.4)" d="M 8561.13,5928.36 L 8563.39,5923.29 L 8568.58,5923.29 L 8687.98,6130.09 L 8685.38,6134.59 L 8679.86,6134 L 8561.13,5928.36 Z " />
<path stroke="none" fill="#b00000" transform="matrix(0.0666667 0 0 0.0666667 -37.1003 -349.4)" d="M 8328.87,5977.73 L 8324.74,5974.02 L 8325.23,5969.32 L 8560.5,5919.31 L 8563.39,5923.29 L 8561.13,5928.36 L 8328.87,5977.73 Z " />
<path stroke="none" fill="#b00000" transform="matrix(0.0666667 0 0 0.0666667 -37.1003 -349.4)" d="M 8926.77,6130.09 L 8931.96,6139.08 L 8687.38,6139.08 L 8685.38,6134.59 L 8687.98,6130.09 L 8926.77,6130.09 Z " />
<path stroke="none" fill="#b00000" transform="matrix(0.0666667 0 0 0.0666667 -37.1003 -349.4)" d="M 9046.17,5923.29 L 9051.36,5923.29 L 9053.95,5927.78 L 8931.96,6139.08 L 8926.77,6130.09 L 9046.17,5923.29 Z " />
<path stroke="none" fill="#b00000" transform="matrix(0.0666667 0 0 0.0666667 -37.1003 -349.4)" d="M 8991.12,5921.04 L 8998.9,5925.53 L 8905.09,6088.03 L 8897.3,6083.54 L 8991.12,5921.04 Z " />
<path stroke="none" fill="#b00000" transform="matrix(0.0666667 0 0 0.0666667 -37.1003 -349.4)" d="M 8926.77,5716.48 L 8931.96,5707.5 L 9053.95,5918.8 L 9051.36,5923.29 L 9046.17,5923.29 L 8926.77,5716.48 Z " />
<path stroke="none" fill="#b00000" transform="matrix(0.0666667 0 0 0.0666667 -37.1003 -349.4)" d="M 8687.98,5716.48 L 8682.79,5707.5 L 8931.96,5707.5 L 8926.77,5716.48 L 8687.98,5716.48 Z " />
<path stroke="none" fill="#b00000" transform="matrix(0.0666667 0 0 0.0666667 -37.1003 -349.4)" d="M 8713.56,5765.28 L 8713.56,5756.3 L 8901.2,5756.3 L 8901.2,5765.28 L 8713.56,5765.28 Z " />
<path stroke="none" fill="#b00000" transform="matrix(0.0666667 0 0 0.0666667 -37.1003 -349.4)" d="M 8568.58,5923.29 L 8563.39,5923.29 L 8560.5,5919.31 L 8682.79,5707.5 L 8687.98,5716.48 L 8568.58,5923.29 Z " />
<text x="0" y="0" stroke="none" fill="#b00000" transform="matrix(0.0666667 0 0 0.0666667 579.223 49.1192)" font-style="normal" font-weight="normal" font-size="140px" font-family="Arial" >
N</text>
<path stroke="none" fill="#b00000" transform="matrix(0.0666667 0 0 0.0666667 -37.1003 -349.4)" d="M 9230.84,5918.8 L 9230.84,5927.78 L 9053.95,5927.78 L 9051.36,5923.29 L 9053.95,5918.8 L 9230.84,5918.8 Z " />
<path stroke="none" fill="#b00000" transform="matrix(0.0666667 0 0 0.0666667 -37.1003 -349.4)" d="M 9412.15,5711.99 L 9417.34,5711.99 L 9419.93,5716.48 L 9340.05,5854.84 L 9332.27,5850.35 L 9412.15,5711.99 Z " />
<path stroke="none" fill="#b00000" transform="matrix(0.0666667 0 0 0.0666667 -37.1003 -349.4)" d="M 9419.93,6130.09 L 9417.34,6134.59 L 9412.15,6134.59 L 9336.89,6004.23 L 9344.67,5999.74 L 9419.93,6130.09 Z " />
<path stroke="none" fill="#b00000" transform="matrix(0.0666667 0 0 0.0666667 -37.1003 -349.4)" d="M 9658.73,5707.5 L 9663.91,5716.48 L 9419.93,5716.48 L 9417.34,5711.99 L 9419.93,5707.5 L 9658.73,5707.5 Z " />
<path stroke="none" fill="#b00000" transform="matrix(0.0666667 0 0 0.0666667 -37.1003 -349.4)" d="M 9633.15,5658.7 L 9633.15,5667.69 L 9445.51,5667.69 L 9445.51,5658.7 L 9633.15,5658.7 Z " />
<path stroke="none" fill="#b00000" transform="matrix(0.0666667 0 0 0.0666667 -37.1003 -349.4)" d="M 9778.13,5500.7 L 9788.5,5500.7 L 9663.91,5716.48 L 9658.73,5707.5 L 9778.13,5500.7 Z " />
<path stroke="none" fill="#b00000" transform="matrix(0.0666667 0 0 0.0666667 -37.1003 -349.4)" d="M 9658.73,5293.89 L 9663.91,5284.91 L 9788.5,5500.7 L 9778.13,5500.7 L 9658.73,5293.89 Z " />
<path stroke="none" fill="#b00000" transform="matrix(0.0666667 0 0 0.0666667 -37.1003 -349.4)" d="M 9629.26,5340.44 L 9637.04,5335.95 L 9730.86,5498.45 L 9723.08,5502.94 L 9629.26,5340.44 Z " />
<path stroke="none" fill="#b00000" transform="matrix(0.0666667 0 0 0.0666667 -37.1003 -349.4)" d="M 9419.93,5293.89 L 9414.74,5284.91 L 9663.91,5284.91 L 9658.73,5293.89 L 9419.93,5293.89 Z " />
<path stroke="none" fill="#b00000" transform="matrix(0.0666667 0 0 0.0666667 -37.1003 -349.4)" d="M 9300.53,5500.7 L 9290.16,5500.7 L 9414.74,5284.91 L 9419.93,5293.89 L 9300.53,5500.7 Z " />
<path stroke="none" fill="#b00000" transform="matrix(0.0666667 0 0 0.0666667 -37.1003 -349.4)" d="M 9355.58,5502.94 L 9347.8,5498.45 L 9441.62,5335.95 L 9449.4,5340.44 L 9355.58,5502.94 Z " />
<path stroke="none" fill="#b00000" transform="matrix(0.0666667 0 0 0.0666667 -37.1003 -349.4)" d="M 9419.93,5707.5 L 9417.34,5711.99 L 9412.15,5711.99 L 9290.16,5500.7 L 9300.53,5500.7 L 9419.93,5707.5 Z " />
<path stroke="none" fill="#b00000" transform="matrix(0.0666667 0 0 0.0666667 -37.1003 -349.4)" d="M 9300.53,6345.88 L 9295.34,6345.88 L 9292.75,6341.39 L 9412.15,6134.59 L 9417.34,6134.59 L 9419.93,6139.08 L 9300.53,6345.88 Z " />
<path stroke="none" fill="#b00000" transform="matrix(0.0666667 0 0 0.0666667 -37.1003 -349.4)" d="M 9355.58,6348.13 L 9347.8,6343.64 L 9441.62,6181.14 L 9449.4,6185.63 L 9355.58,6348.13 Z " />
<path stroke="none" fill="#b00000" transform="matrix(0.0666667 0 0 0.0666667 -37.1003 -349.4)" d="M 9419.93,6552.69 L 9417.34,6557.18 L 9412.15,6557.18 L 9292.75,6350.37 L 9295.34,6345.88 L 9300.53,6345.88 L 9419.93,6552.69 Z " />
<path stroke="none" fill="#b00000" transform="matrix(0.0666667 0 0 0.0666667 -37.1003 -349.4)" d="M 9658.73,6552.69 L 9663.91,6561.67 L 9419.93,6561.67 L 9417.34,6557.18 L 9419.93,6552.69 L 9658.73,6552.69 Z " />
<path stroke="none" fill="#b00000" transform="matrix(0.0666667 0 0 0.0666667 -37.1003 -349.4)" d="M 9633.15,6503.89 L 9633.15,6512.87 L 9445.51,6512.87 L 9445.51,6503.89 L 9633.15,6503.89 Z " />
<path stroke="none" fill="#b00000" transform="matrix(0.0666667 0 0 0.0666667 -37.1003 -349.4)" d="M 9778.13,6345.88 L 9788.5,6345.88 L 9663.91,6561.67 L 9658.73,6552.69 L 9778.13,6345.88 Z " />
<path stroke="none" fill="#b00000" transform="matrix(0.0666667 0 0 0.0666667 -37.1003 -349.4)" d="M 9658.73,6139.08 L 9663.91,6130.09 L 9788.5,6345.88 L 9778.13,6345.88 L 9658.73,6139.08 Z " />
<path stroke="none" fill="#b00000" transform="matrix(0.0666667 0 0 0.0666667 -37.1003 -349.4)" d="M 9629.26,6185.63 L 9637.04,6181.14 L 9730.86,6343.64 L 9723.08,6348.13 L 9629.26,6185.63 Z " />
<path stroke="none" fill="#b00000" transform="matrix(0.0666667 0 0 0.0666667 -37.1003 -349.4)" d="M 9419.93,6139.08 L 9417.34,6134.59 L 9419.93,6130.09 L 9663.91,6130.09 L 9658.73,6139.08 L 9419.93,6139.08 Z " />
<path stroke="none" fill="#b00000" transform="matrix(0.0666667 0 0 0.0666667 -37.1003 -349.4)" d="M 9053.95,6350.37 L 9048.77,6341.39 L 9292.75,6341.39 L 9295.34,6345.88 L 9292.75,6350.37 L 9053.95,6350.37 Z " />
<path stroke="none" fill="#b00000" transform="matrix(0.0666667 0 0 0.0666667 -37.1003 -349.4)" d="M 8934.56,6557.18 L 8924.18,6557.18 L 9048.77,6341.39 L 9053.95,6350.37 L 8934.56,6557.18 Z " />
<path stroke="none" fill="#b00000" transform="matrix(0.0666667 0 0 0.0666667 -37.1003 -349.4)" d="M 8989.6,6559.42 L 8981.82,6554.93 L 9075.64,6392.43 L 9083.42,6396.92 L 8989.6,6559.42 Z " />
<path stroke="none" fill="#b00000" transform="matrix(0.0666667 0 0 0.0666667 -37.1003 -349.4)" d="M 9053.95,6763.98 L 9048.77,6772.97 L 8924.18,6557.18 L 8934.56,6557.18 L 9053.95,6763.98 Z " />
<path stroke="none" fill="#b00000" transform="matrix(0.0666667 0 0 0.0666667 -37.1003 -349.4)" d="M 9292.75,6763.98 L 9297.94,6772.97 L 9048.77,6772.97 L 9053.95,6763.98 L 9292.75,6763.98 Z " />
<path stroke="none" fill="#b00000" transform="matrix(0.0666667 0 0 0.0666667 -37.1003 -349.4)" d="M 9267.17,6715.19 L 9267.17,6724.17 L 9079.53,6724.17 L 9079.53,6715.19 L 9267.17,6715.19 Z " />
<path stroke="none" fill="#b00000" transform="matrix(0.0666667 0 0 0.0666667 -37.1003 -349.4)" d="M 9412.15,6557.18 L 9417.34,6557.18 L 9419.93,6561.67 L 9297.94,6772.97 L 9292.75,6763.98 L 9412.15,6557.18 Z " />
<text x="0" y="0" stroke="none" fill="#b00000" transform="matrix(0.0666667 0 0 0.0666667 488.86 142.35)" font-style="normal" font-weight="normal" font-size="140px" font-family="Arial" >
(NPA)</text>
<text x="0" y="0" stroke="none" fill="#b00000" transform="matrix(0.0666667 0 0 0.0666667 514.318 144.417)" font-style="normal" font-weight="normal" font-size="105px" font-family="Arial" >
2</text>
<text x="0" y="0" stroke="none" fill="#b00000" transform="matrix(0.0666667 0 0 0.0666667 518.218 142.35)" font-style="normal" font-weight="normal" font-size="140px" font-family="Arial" >
-BTBT</text>
</svg>
