<?xml version="1.0" standalone="no" ?>
<!DOCTYPE svg PUBLIC "-//W3C//DTD SVG 1.1//EN" "http://www.w3.org/Graphics/SVG/1.1/DTD/svg11.dtd">
<svg width="503px" height="193px" viewBox="0 0 503 193" style="background-color: #ffffff00" xmlns="http://www.w3.org/2000/svg" xmlns:xlink="http://www.w3.org/1999/xlink" version="1.1" >
<text x="0" y="0" stroke="none" fill="#000000" transform="matrix(0.0666667 0 0 0.0666667 48.2823 51.0501)" font-style="normal" font-weight="normal" font-size="140px" font-family="Arial" >
HN</text>
<text x="0" y="0" stroke="none" fill="#000000" transform="matrix(0.0666667 0 0 0.0666667 63.1622 36.9636)" font-style="normal" font-weight="normal" font-size="140px" font-family="Arial" >
R</text>
<text x="0" y="0" stroke="none" fill="#000000" transform="matrix(0.0666667 0 0 0.0666667 69.9025 33.3303)" font-style="normal" font-weight="normal" font-size="105px" font-family="Arial" >
1</text>
<path stroke="none" fill="#000000" transform="matrix(0.0666667 0 0 0.0666667 -87.1003 -312.2)" d="M 2255.18,5259.28 L 2262.97,5263.77 L 2227.25,5325.64 L 2219.46,5321.15 L 2255.18,5259.28 Z " />
<text x="0" y="0" stroke="none" fill="#000000" transform="matrix(0.0666667 0 0 0.0666667 55.0294 67.3157)" font-style="normal" font-weight="normal" font-size="140px" font-family="Arial" >
R</text>
<text x="0" y="0" stroke="none" fill="#000000" transform="matrix(0.0666667 0 0 0.0666667 61.7697 63.6824)" font-style="normal" font-weight="normal" font-size="105px" font-family="Arial" >
2</text>
<path stroke="none" fill="#000000" transform="matrix(0.0666667 0 0 0.0666667 -87.1003 -312.2)" d="M 2186.94,5539.9 L 2177.95,5539.9 L 2177.95,5474.75 L 2186.94,5474.75 L 2186.94,5539.9 Z " />
<text x="0" y="0" stroke="none" fill="#000000" transform="matrix(0.0666667 0 0 0.0666667 79.6625 49.7786)" font-style="normal" font-weight="normal" font-size="140px" font-family="Arial" >
+</text>
<text x="0" y="0" stroke="none" fill="#000000" transform="matrix(0.0666667 0 0 0.0666667 90.9962 49.7785)" font-style="normal" font-weight="normal" font-size="140px" font-family="Arial" >
Br</text>
<path stroke="none" fill="#000000" transform="matrix(0.0666667 0 0 0.0666667 -87.1003 -312.2)" d="M 3029.72,5370.69 L 3032.31,5375.18 L 3029.72,5379.67 L 2836.45,5379.67 L 2836.45,5370.69 L 3029.72,5370.69 Z " />
<path stroke="none" fill="#000000" transform="matrix(0.0666667 0 0 0.0666667 -87.1003 -312.2)" d="M 3156.9,5581.98 L 3151.71,5590.97 L 3029.72,5379.67 L 3032.31,5375.18 L 3037.5,5375.18 L 3156.9,5581.98 Z " />
<path stroke="none" fill="#000000" transform="matrix(0.0666667 0 0 0.0666667 -87.1003 -312.2)" d="M 3186.37,5535.43 L 3178.59,5539.92 L 3084.77,5377.42 L 3092.55,5372.93 L 3186.37,5535.43 Z " />
<path stroke="none" fill="#000000" transform="matrix(0.0666667 0 0 0.0666667 -87.1003 -312.2)" d="M 3395.69,5581.98 L 3400.88,5590.97 L 3151.71,5590.97 L 3156.9,5581.98 L 3395.69,5581.98 Z " />
<path stroke="none" fill="#000000" transform="matrix(0.0666667 0 0 0.0666667 -87.1003 -312.2)" d="M 3515.09,5375.18 L 3520.28,5375.18 L 3523.17,5379.16 L 3400.88,5590.97 L 3395.69,5581.98 L 3515.09,5375.18 Z " />
<path stroke="none" fill="#000000" transform="matrix(0.0666667 0 0 0.0666667 -87.1003 -312.2)" d="M 3460.04,5372.93 L 3467.82,5377.42 L 3374,5539.92 L 3366.22,5535.43 L 3460.04,5372.93 Z " />
<path stroke="none" fill="#000000" transform="matrix(0.0666667 0 0 0.0666667 -87.1003 -312.2)" d="M 3395.69,5168.37 L 3398.29,5163.88 L 3403.81,5164.46 L 3522.54,5370.11 L 3520.28,5375.18 L 3515.09,5375.18 L 3395.69,5168.37 Z " />
<path stroke="none" fill="#000000" transform="matrix(0.0666667 0 0 0.0666667 -87.1003 -312.2)" d="M 3156.9,5168.37 L 3151.71,5159.39 L 3396.29,5159.39 L 3398.29,5163.88 L 3395.69,5168.37 L 3156.9,5168.37 Z " />
<path stroke="none" fill="#000000" transform="matrix(0.0666667 0 0 0.0666667 -87.1003 -312.2)" d="M 3182.48,5217.17 L 3182.48,5208.19 L 3370.11,5208.19 L 3370.11,5217.17 L 3182.48,5217.17 Z " />
<path stroke="none" fill="#000000" transform="matrix(0.0666667 0 0 0.0666667 -87.1003 -312.2)" d="M 3037.5,5375.18 L 3032.31,5375.18 L 3029.72,5370.69 L 3151.71,5159.39 L 3156.9,5168.37 L 3037.5,5375.18 Z " />
<text x="0" y="0" stroke="none" fill="#000000" transform="matrix(0.0666667 0 0 0.0666667 147.236 23.6044)" font-style="normal" font-weight="normal" font-size="140px" font-family="Arial" >
S</text>
<path stroke="none" fill="#000000" transform="matrix(0.0666667 0 0 0.0666667 -87.1003 -312.2)" d="M 3754.81,5320.74 L 3758.93,5324.45 L 3758.44,5329.15 L 3523.17,5379.16 L 3520.28,5375.18 L 3522.54,5370.11 L 3754.81,5320.74 Z " />
<path stroke="none" fill="#000000" transform="matrix(0.0666667 0 0 0.0666667 -87.1003 -312.2)" d="M 3779.63,5084.58 L 3784.44,5081.8 L 3788.56,5085.52 L 3763.74,5321.67 L 3758.93,5324.45 L 3754.81,5320.74 L 3779.63,5084.58 Z " />
<path stroke="none" fill="#000000" transform="matrix(0.0666667 0 0 0.0666667 -87.1003 -312.2)" d="M 3727.73,5111.49 L 3736.67,5112.43 L 3718.58,5284.56 L 3709.64,5283.62 L 3727.73,5111.49 Z " />
<path stroke="none" fill="#000000" transform="matrix(0.0666667 0 0 0.0666667 -87.1003 -312.2)" d="M 3627.79,5016.98 L 3631.44,5008.77 L 3784.93,5077.11 L 3784.44,5081.8 L 3779.63,5084.58 L 3627.79,5016.98 Z " />
<path stroke="none" fill="#000000" transform="matrix(0.0666667 0 0 0.0666667 -87.1003 -312.2)" d="M 3403.81,5164.46 L 3398.29,5163.88 L 3396.29,5159.39 L 3504.55,5039.15 L 3511.23,5045.16 L 3403.81,5164.46 Z " />
<text x="0" y="0" stroke="none" fill="#000000" transform="matrix(0.0666667 0 0 0.0666667 175.255 53.0126)" font-style="normal" font-weight="normal" font-size="140px" font-family="Arial" >
S</text>
<path stroke="none" fill="#000000" transform="matrix(0.0666667 0 0 0.0666667 -87.1003 -312.2)" d="M 3921.89,5392.09 L 3918.24,5400.3 L 3758.44,5329.15 L 3758.93,5324.45 L 3763.74,5321.67 L 3921.89,5392.09 Z " />
<path stroke="none" fill="#000000" transform="matrix(0.0666667 0 0 0.0666667 -87.1003 -312.2)" d="M 4139.56,5241.79 L 4145.08,5242.37 L 4147.08,5246.86 L 4032,5374.67 L 4025.33,5368.66 L 4139.56,5241.79 Z " />
<path stroke="none" fill="#000000" transform="matrix(0.0666667 0 0 0.0666667 -87.1003 -312.2)" d="M 4020.83,5036.15 L 4023.09,5031.08 L 4028.28,5031.08 L 4147.67,5237.88 L 4145.08,5242.37 L 4139.56,5241.79 L 4020.83,5036.15 Z " />
<path stroke="none" fill="#000000" transform="matrix(0.0666667 0 0 0.0666667 -87.1003 -312.2)" d="M 3788.56,5085.52 L 3784.44,5081.8 L 3784.93,5077.11 L 4020.2,5027.1 L 4023.09,5031.08 L 4020.83,5036.15 L 3788.56,5085.52 Z " />
<path stroke="none" fill="#000000" transform="matrix(0.0666667 0 0 0.0666667 -87.1003 -312.2)" d="M 4386.47,5237.88 L 4391.66,5246.86 L 4147.08,5246.86 L 4145.08,5242.37 L 4147.67,5237.88 L 4386.47,5237.88 Z " />
<path stroke="none" fill="#000000" transform="matrix(0.0666667 0 0 0.0666667 -87.1003 -312.2)" d="M 4505.87,5031.08 L 4511.06,5031.08 L 4513.65,5035.57 L 4391.66,5246.86 L 4386.47,5237.88 L 4505.87,5031.08 Z " />
<path stroke="none" fill="#000000" transform="matrix(0.0666667 0 0 0.0666667 -87.1003 -312.2)" d="M 4450.82,5028.83 L 4458.6,5033.32 L 4364.78,5195.82 L 4357,5191.33 L 4450.82,5028.83 Z " />
<path stroke="none" fill="#000000" transform="matrix(0.0666667 0 0 0.0666667 -87.1003 -312.2)" d="M 4386.47,4824.27 L 4391.66,4815.29 L 4513.65,5026.58 L 4511.06,5031.08 L 4505.87,5031.08 L 4386.47,4824.27 Z " />
<path stroke="none" fill="#000000" transform="matrix(0.0666667 0 0 0.0666667 -87.1003 -312.2)" d="M 4147.67,4824.27 L 4142.49,4815.29 L 4391.66,4815.29 L 4386.47,4824.27 L 4147.67,4824.27 Z " />
<path stroke="none" fill="#000000" transform="matrix(0.0666667 0 0 0.0666667 -87.1003 -312.2)" d="M 4173.25,4873.07 L 4173.25,4864.08 L 4360.89,4864.08 L 4360.89,4873.07 L 4173.25,4873.07 Z " />
<path stroke="none" fill="#000000" transform="matrix(0.0666667 0 0 0.0666667 -87.1003 -312.2)" d="M 4028.28,5031.08 L 4023.09,5031.08 L 4020.2,5027.1 L 4142.49,4815.29 L 4147.67,4824.27 L 4028.28,5031.08 Z " />
<text x="0" y="0" stroke="none" fill="#000000" transform="matrix(0.0666667 0 0 0.0666667 226.802 26.8384)" font-style="normal" font-weight="normal" font-size="140px" font-family="Arial" >
Br</text>
<path stroke="none" fill="#000000" transform="matrix(0.0666667 0 0 0.0666667 -87.1003 -312.2)" d="M 4694.54,5026.58 L 4694.54,5035.57 L 4513.65,5035.57 L 4511.06,5031.08 L 4513.65,5026.58 L 4694.54,5026.58 Z " />
<path stroke="none" fill="#000000" transform="matrix(0.0666667 0 0 0.0666667 -87.1003 -312.2)" d="M 5579.31,5394.68 L 4936.93,5394.68 L 4936.93,5385.68 L 5579.31,5385.68 Z " />
<path stroke="none" fill="#000000" transform="matrix(0.0666667 0 0 0.0666667 -87.1003 -312.2)" d="M 5656.93,5390.18 C 5656.93,5390.18 5567.08,5413.64 5567.08,5413.64 C 5567.08,5413.64 5578.31,5400.44 5578.31,5390.18 C 5578.31,5379.48 5567.08,5365.72 5567.08,5365.72 C 5567.08,5365.72 5656.93,5390.18 5656.93,5390.18 C 5656.93,5390.18 5656.93,5390.18 5656.93,5390.18 " />
<path stroke="#000000" stroke-width="1" fill="none" transform="matrix(0.0666667 0 0 0.0666667 -87.1003 -312.2)" d="M 5656.93,5390.18 C 5656.93,5390.18 5567.08,5413.64 5567.08,5413.64 C 5567.08,5413.64 5578.31,5400.44 5578.31,5390.18 C 5578.31,5379.48 5567.08,5365.72 5567.08,5365.72 C 5567.08,5365.72 5656.93,5390.18 5656.93,5390.18 C 5656.93,5390.18 5656.93,5390.18 5656.93,5390.18 " />
<text x="0" y="0" stroke="none" fill="#000000" transform="matrix(0.0666667 0 0 0.0666667 246.457 17.6286)" font-style="normal" font-weight="normal" font-size="140px" font-family="Arial" >
Pd(dba)</text>
<text x="0" y="0" stroke="none" fill="#000000" transform="matrix(0.0666667 0 0 0.0666667 279.749 19.6952)" font-style="normal" font-weight="normal" font-size="105px" font-family="Arial" >
2,</text>
<text x="0" y="0" stroke="none" fill="#000000" transform="matrix(0.0666667 0 0 0.0666667 247.953 28.6286)" font-style="normal" font-weight="normal" font-size="140px" font-family="Arial" >
(t-Bu)</text>
<text x="0" y="0" stroke="none" fill="#000000" transform="matrix(0.0666667 0 0 0.0666667 271.378 30.6952)" font-style="normal" font-weight="normal" font-size="105px" font-family="Arial" >
3</text>
<text x="0" y="0" stroke="none" fill="#000000" transform="matrix(0.0666667 0 0 0.0666667 275.278 28.6286)" font-style="normal" font-weight="normal" font-size="140px" font-family="Arial" >
P,</text>
<text x="0" y="0" stroke="none" fill="#000000" transform="matrix(0.0666667 0 0 0.0666667 250.703 39.6286)" font-style="normal" font-weight="normal" font-size="140px" font-family="Arial" >
t-BuOK</text>
<text x="0" y="0" stroke="none" fill="#000000" transform="matrix(0.0666667 0 0 0.0666667 249.391 60.6286)" font-style="normal" font-weight="normal" font-size="140px" font-family="Arial" >
toluene,</text>
<text x="0" y="0" stroke="none" fill="#000000" transform="matrix(0.0666667 0 0 0.0666667 254.591 71.3619)" font-style="normal" font-weight="normal" font-size="140px" font-family="Arial" >
reflux</text>
<text x="0" y="0" stroke="none" fill="#000000" transform="matrix(0.0666667 0 0 0.0666667 295.945 34.7596)" font-style="normal" font-weight="normal" font-size="140px" font-family="Arial" >
R</text>
<text x="0" y="0" stroke="none" fill="#000000" transform="matrix(0.0666667 0 0 0.0666667 302.685 31.1263)" font-style="normal" font-weight="normal" font-size="105px" font-family="Arial" >
1</text>
<text x="0" y="0" stroke="none" fill="#000000" transform="matrix(0.0666667 0 0 0.0666667 305.182 50.7008)" font-style="normal" font-weight="normal" font-size="140px" font-family="Arial" >
N</text>
<path stroke="none" fill="#000000" transform="matrix(0.0666667 0 0 0.0666667 -87.1003 -312.2)" d="M 5897.56,5315.64 L 5889.78,5320.13 L 5840.03,5233.96 L 5847.81,5229.47 L 5897.56,5315.64 Z " />
<path stroke="none" fill="#000000" transform="matrix(0.0666667 0 0 0.0666667 -87.1003 -312.2)" d="M 6176.13,5384.52 L 6178.72,5389.01 L 6176.13,5393.5 L 5998.24,5393.5 L 5998.24,5384.52 L 6176.13,5384.52 Z " />
<text x="0" y="0" stroke="none" fill="#000000" transform="matrix(0.0666667 0 0 0.0666667 295.895 66.7286)" font-style="normal" font-weight="normal" font-size="140px" font-family="Arial" >
R</text>
<text x="0" y="0" stroke="none" fill="#000000" transform="matrix(0.0666667 0 0 0.0666667 302.635 63.0953)" font-style="normal" font-weight="normal" font-size="105px" font-family="Arial" >
2</text>
<path stroke="none" fill="#000000" transform="matrix(0.0666667 0 0 0.0666667 -87.1003 -312.2)" d="M 5863.07,5522.12 L 5855.29,5517.62 L 5885.16,5465.9 L 5892.94,5470.39 L 5863.07,5522.12 Z " />
<path stroke="none" fill="#000000" transform="matrix(0.0666667 0 0 0.0666667 -87.1003 -312.2)" d="M 6303.31,5595.82 L 6298.12,5604.8 L 6176.13,5393.5 L 6178.72,5389.01 L 6183.91,5389.01 L 6303.31,5595.82 Z " />
<path stroke="none" fill="#000000" transform="matrix(0.0666667 0 0 0.0666667 -87.1003 -312.2)" d="M 6332.77,5549.27 L 6324.99,5553.76 L 6231.17,5391.26 L 6238.96,5386.77 L 6332.77,5549.27 Z " />
<path stroke="none" fill="#000000" transform="matrix(0.0666667 0 0 0.0666667 -87.1003 -312.2)" d="M 6542.1,5595.82 L 6547.29,5604.8 L 6298.12,5604.8 L 6303.31,5595.82 L 6542.1,5595.82 Z " />
<path stroke="none" fill="#000000" transform="matrix(0.0666667 0 0 0.0666667 -87.1003 -312.2)" d="M 6661.5,5389.01 L 6666.69,5389.01 L 6669.58,5392.99 L 6547.29,5604.8 L 6542.1,5595.82 L 6661.5,5389.01 Z " />
<path stroke="none" fill="#000000" transform="matrix(0.0666667 0 0 0.0666667 -87.1003 -312.2)" d="M 6606.45,5386.77 L 6614.23,5391.26 L 6520.41,5553.76 L 6512.63,5549.27 L 6606.45,5386.77 Z " />
<path stroke="none" fill="#000000" transform="matrix(0.0666667 0 0 0.0666667 -87.1003 -312.2)" d="M 6542.1,5182.21 L 6544.7,5177.71 L 6550.22,5178.3 L 6668.95,5383.94 L 6666.69,5389.01 L 6661.5,5389.01 L 6542.1,5182.21 Z " />
<path stroke="none" fill="#000000" transform="matrix(0.0666667 0 0 0.0666667 -87.1003 -312.2)" d="M 6303.31,5182.21 L 6298.12,5173.22 L 6542.7,5173.22 L 6544.7,5177.71 L 6542.1,5182.21 L 6303.31,5182.21 Z " />
<path stroke="none" fill="#000000" transform="matrix(0.0666667 0 0 0.0666667 -87.1003 -312.2)" d="M 6328.88,5231 L 6328.88,5222.02 L 6516.52,5222.02 L 6516.52,5231 L 6328.88,5231 Z " />
<path stroke="none" fill="#000000" transform="matrix(0.0666667 0 0 0.0666667 -87.1003 -312.2)" d="M 6183.91,5389.01 L 6178.72,5389.01 L 6176.13,5384.52 L 6298.12,5173.22 L 6303.31,5182.21 L 6183.91,5389.01 Z " />
<text x="0" y="0" stroke="none" fill="#000000" transform="matrix(0.0666667 0 0 0.0666667 356.997 24.5266)" font-style="normal" font-weight="normal" font-size="140px" font-family="Arial" >
S</text>
<path stroke="none" fill="#000000" transform="matrix(0.0666667 0 0 0.0666667 -87.1003 -312.2)" d="M 6901.21,5334.57 L 6905.34,5338.28 L 6904.85,5342.98 L 6669.58,5392.99 L 6666.69,5389.01 L 6668.95,5383.94 L 6901.21,5334.57 Z " />
<path stroke="none" fill="#000000" transform="matrix(0.0666667 0 0 0.0666667 -87.1003 -312.2)" d="M 6926.04,5098.41 L 6930.84,5095.64 L 6934.97,5099.35 L 6910.15,5335.51 L 6905.34,5338.28 L 6901.21,5334.57 L 6926.04,5098.41 Z " />
<path stroke="none" fill="#000000" transform="matrix(0.0666667 0 0 0.0666667 -87.1003 -312.2)" d="M 6874.14,5125.33 L 6883.08,5126.26 L 6864.98,5298.39 L 6856.05,5297.46 L 6874.14,5125.33 Z " />
<path stroke="none" fill="#000000" transform="matrix(0.0666667 0 0 0.0666667 -87.1003 -312.2)" d="M 6774.2,5030.81 L 6777.85,5022.6 L 6931.34,5090.94 L 6930.84,5095.64 L 6926.04,5098.41 L 6774.2,5030.81 Z " />
<path stroke="none" fill="#000000" transform="matrix(0.0666667 0 0 0.0666667 -87.1003 -312.2)" d="M 6550.22,5178.3 L 6544.7,5177.71 L 6542.7,5173.22 L 6650.96,5052.98 L 6657.64,5059 L 6550.22,5178.3 Z " />
<text x="0" y="0" stroke="none" fill="#000000" transform="matrix(0.0666667 0 0 0.0666667 385.015 53.9348)" font-style="normal" font-weight="normal" font-size="140px" font-family="Arial" >
S</text>
<path stroke="none" fill="#000000" transform="matrix(0.0666667 0 0 0.0666667 -87.1003 -312.2)" d="M 7068.3,5405.92 L 7064.65,5414.13 L 6904.85,5342.98 L 6905.34,5338.28 L 6910.15,5335.51 L 7068.3,5405.92 Z " />
<path stroke="none" fill="#000000" transform="matrix(0.0666667 0 0 0.0666667 -87.1003 -312.2)" d="M 7285.97,5255.63 L 7291.49,5256.21 L 7293.49,5260.7 L 7178.41,5388.5 L 7171.74,5382.49 L 7285.97,5255.63 Z " />
<path stroke="none" fill="#000000" transform="matrix(0.0666667 0 0 0.0666667 -87.1003 -312.2)" d="M 7167.24,5049.98 L 7169.5,5044.91 L 7174.68,5044.91 L 7294.08,5251.71 L 7291.49,5256.21 L 7285.97,5255.63 L 7167.24,5049.98 Z " />
<path stroke="none" fill="#000000" transform="matrix(0.0666667 0 0 0.0666667 -87.1003 -312.2)" d="M 6934.97,5099.35 L 6930.84,5095.64 L 6931.34,5090.94 L 7166.61,5040.93 L 7169.5,5044.91 L 7167.24,5049.98 L 6934.97,5099.35 Z " />
<path stroke="none" fill="#000000" transform="matrix(0.0666667 0 0 0.0666667 -87.1003 -312.2)" d="M 7532.88,5251.71 L 7538.07,5260.7 L 7293.49,5260.7 L 7291.49,5256.21 L 7294.08,5251.71 L 7532.88,5251.71 Z " />
<path stroke="none" fill="#000000" transform="matrix(0.0666667 0 0 0.0666667 -87.1003 -312.2)" d="M 7652.28,5044.91 L 7657.47,5044.91 L 7660.06,5049.4 L 7538.07,5260.7 L 7532.88,5251.71 L 7652.28,5044.91 Z " />
<path stroke="none" fill="#000000" transform="matrix(0.0666667 0 0 0.0666667 -87.1003 -312.2)" d="M 7597.23,5042.66 L 7605.01,5047.16 L 7511.19,5209.66 L 7503.41,5205.16 L 7597.23,5042.66 Z " />
<path stroke="none" fill="#000000" transform="matrix(0.0666667 0 0 0.0666667 -87.1003 -312.2)" d="M 7532.88,4838.1 L 7538.07,4829.12 L 7660.06,5040.42 L 7657.47,5044.91 L 7652.28,5044.91 L 7532.88,4838.1 Z " />
<path stroke="none" fill="#000000" transform="matrix(0.0666667 0 0 0.0666667 -87.1003 -312.2)" d="M 7294.08,4838.1 L 7288.9,4829.12 L 7538.07,4829.12 L 7532.88,4838.1 L 7294.08,4838.1 Z " />
<path stroke="none" fill="#000000" transform="matrix(0.0666667 0 0 0.0666667 -87.1003 -312.2)" d="M 7319.66,4886.9 L 7319.66,4877.92 L 7507.3,4877.92 L 7507.3,4886.9 L 7319.66,4886.9 Z " />
<path stroke="none" fill="#000000" transform="matrix(0.0666667 0 0 0.0666667 -87.1003 -312.2)" d="M 7174.68,5044.91 L 7169.5,5044.91 L 7166.61,5040.93 L 7288.9,4829.12 L 7294.08,4838.1 L 7174.68,5044.91 Z " />
<text x="0" y="0" stroke="none" fill="#000000" transform="matrix(0.0666667 0 0 0.0666667 436.296 27.7606)" font-style="normal" font-weight="normal" font-size="140px" font-family="Arial" >
N</text>
<path stroke="none" fill="#000000" transform="matrix(0.0666667 0 0 0.0666667 -87.1003 -312.2)" d="M 7836.95,5040.42 L 7836.95,5049.4 L 7660.06,5049.4 L 7657.47,5044.91 L 7660.06,5040.42 L 7836.95,5040.42 Z " />
<text x="0" y="0" stroke="none" fill="#000000" transform="matrix(0.0666667 0 0 0.0666667 444.429 13.6742)" font-style="normal" font-weight="normal" font-size="140px" font-family="Arial" >
R</text>
<text x="0" y="0" stroke="none" fill="#000000" transform="matrix(0.0666667 0 0 0.0666667 451.169 10.0408)" font-style="normal" font-weight="normal" font-size="105px" font-family="Arial" >
1</text>
<path stroke="none" fill="#000000" transform="matrix(0.0666667 0 0 0.0666667 -87.1003 -312.2)" d="M 7974.19,4909.94 L 7981.97,4914.43 L 7946.16,4976.46 L 7938.38,4971.97 L 7974.19,4909.94 Z " />
<text x="0" y="0" stroke="none" fill="#000000" transform="matrix(0.0666667 0 0 0.0666667 444.429 41.8471)" font-style="normal" font-weight="normal" font-size="140px" font-family="Arial" >
R</text>
<text x="0" y="0" stroke="none" fill="#000000" transform="matrix(0.0666667 0 0 0.0666667 451.169 38.2137)" font-style="normal" font-weight="normal" font-size="105px" font-family="Arial" >
2</text>
<path stroke="none" fill="#000000" transform="matrix(0.0666667 0 0 0.0666667 -87.1003 -312.2)" d="M 7986.44,5183.14 L 7978.66,5187.63 L 7943,5125.85 L 7950.78,5121.36 L 7986.44,5183.14 Z " />
<text x="0" y="0" stroke="none" fill="#b00000" transform="matrix(0.0666667 0 0 0.0666667 44.3081 92.7667)" font-style="normal" font-weight="bold" font-size="140px" font-family="Arial" >
(NPA)</text>
<text x="0" y="0" stroke="none" fill="#b00000" transform="matrix(0.0666667 0 0 0.0666667 70.2805 94.8334)" font-style="normal" font-weight="bold" font-size="105px" font-family="Arial" >
2</text>
<text x="0" y="0" stroke="none" fill="#b00000" transform="matrix(0.0666667 0 0 0.0666667 74.1805 92.7667)" font-style="normal" font-weight="bold" font-size="140px" font-family="Arial" >
-BTBT</text>
<text x="0" y="0" stroke="none" fill="#0000ff" transform="matrix(0.0666667 0 0 0.0666667 188.791 92.7667)" font-style="normal" font-weight="bold" font-size="140px" font-family="Arial" >
(DPA)</text>
<text x="0" y="0" stroke="none" fill="#0000ff" transform="matrix(0.0666667 0 0 0.0666667 214.764 94.8334)" font-style="normal" font-weight="bold" font-size="105px" font-family="Arial" >
2</text>
<text x="0" y="0" stroke="none" fill="#0000ff" transform="matrix(0.0666667 0 0 0.0666667 218.664 92.7667)" font-style="normal" font-weight="bold" font-size="140px" font-family="Arial" >
-BTBT</text>
<text x="0" y="0" stroke="none" fill="#037700" transform="matrix(0.0666667 0 0 0.0666667 361.763 92.7667)" font-style="normal" font-weight="bold" font-size="140px" font-family="Arial" >
(NTPDA)</text>
<text x="0" y="0" stroke="none" fill="#037700" transform="matrix(0.0666667 0 0 0.0666667 400.209 94.8334)" font-style="normal" font-weight="bold" font-size="105px" font-family="Arial" >
2</text>
<text x="0" y="0" stroke="none" fill="#037700" transform="matrix(0.0666667 0 0 0.0666667 404.109 92.7667)" font-style="normal" font-weight="bold" font-size="140px" font-family="Arial" >
-BTBT</text>
<text x="0" y="0" stroke="none" fill="#b00000" transform="matrix(0.0666667 0 0 0.0666667 3.03227 141.274)" font-style="normal" font-weight="normal" font-size="140px" font-family="Arial" >
R</text>
<text x="0" y="0" stroke="none" fill="#b00000" transform="matrix(0.0666667 0 0 0.0666667 9.77251 137.641)" font-style="normal" font-weight="normal" font-size="105px" font-family="Arial" >
1</text>
<text x="0" y="0" stroke="none" fill="#b00000" transform="matrix(0.0666667 0 0 0.0666667 13.6656 141.274)" font-style="normal" font-weight="normal" font-size="140px" font-family="Arial" >
=</text>
<path stroke="none" fill="#b00000" transform="matrix(0.0666667 0 0 0.0666667 -87.1003 -312.2)" d="M 2083.48,6858.51 L 2092.46,6863.7 L 1876.67,6988.28 L 1876.67,6977.91 L 2083.48,6858.51 Z " />
<path stroke="none" fill="#b00000" transform="matrix(0.0666667 0 0 0.0666667 -87.1003 -312.2)" d="M 2036.92,6829.04 L 2041.42,6836.82 L 1878.92,6930.64 L 1874.42,6922.86 L 2036.92,6829.04 Z " />
<path stroke="none" fill="#b00000" transform="matrix(0.0666667 0 0 0.0666667 -87.1003 -312.2)" d="M 2083.48,6619.71 L 2092.46,6614.52 L 2092.46,6863.7 L 2083.48,6858.51 L 2083.48,6619.71 Z " />
<path stroke="none" fill="#b00000" transform="matrix(0.0666667 0 0 0.0666667 -87.1003 -312.2)" d="M 1876.67,6500.31 L 1876.67,6495.13 L 1881.16,6492.53 L 2092.46,6614.52 L 2083.48,6619.71 L 1876.67,6500.31 Z " />
<path stroke="none" fill="#b00000" transform="matrix(0.0666667 0 0 0.0666667 -87.1003 -312.2)" d="M 1874.42,6555.36 L 1878.92,6547.58 L 2041.42,6641.4 L 2036.92,6649.18 L 1874.42,6555.36 Z " />
<path stroke="none" fill="#b00000" transform="matrix(0.0666667 0 0 0.0666667 -87.1003 -312.2)" d="M 1669.87,6619.71 L 1660.88,6614.52 L 1872.18,6492.53 L 1876.67,6495.13 L 1876.67,6500.31 L 1669.87,6619.71 Z " />
<path stroke="none" fill="#b00000" transform="matrix(0.0666667 0 0 0.0666667 -87.1003 -312.2)" d="M 1669.87,6858.51 L 1660.88,6863.7 L 1660.88,6614.52 L 1669.87,6619.71 L 1669.87,6858.51 Z " />
<path stroke="none" fill="#b00000" transform="matrix(0.0666667 0 0 0.0666667 -87.1003 -312.2)" d="M 1718.66,6832.93 L 1709.68,6832.93 L 1709.68,6645.29 L 1718.66,6645.29 L 1718.66,6832.93 Z " />
<path stroke="none" fill="#b00000" transform="matrix(0.0666667 0 0 0.0666667 -87.1003 -312.2)" d="M 1876.67,6977.91 L 1876.67,6988.28 L 1660.88,6863.7 L 1669.87,6858.51 L 1876.67,6977.91 Z " />
<path stroke="none" fill="#b00000" transform="matrix(0.0666667 0 0 0.0666667 -87.1003 -312.2)" d="M 1872.18,6251.14 L 1881.16,6251.14 L 1881.16,6492.53 L 1876.67,6495.13 L 1872.18,6492.53 L 1872.18,6251.14 Z " />
<text x="0" y="0" stroke="none" fill="#b00000" transform="matrix(0.0666667 0 0 0.0666667 64.3899 141.274)" font-style="normal" font-weight="normal" font-size="140px" font-family="Arial" >
R</text>
<text x="0" y="0" stroke="none" fill="#b00000" transform="matrix(0.0666667 0 0 0.0666667 71.1302 137.641)" font-style="normal" font-weight="normal" font-size="105px" font-family="Arial" >
2</text>
<text x="0" y="0" stroke="none" fill="#b00000" transform="matrix(0.0666667 0 0 0.0666667 75.0232 141.274)" font-style="normal" font-weight="normal" font-size="140px" font-family="Arial" >
=</text>
<path stroke="none" fill="#b00000" transform="matrix(0.0666667 0 0 0.0666667 -87.1003 -312.2)" d="M 2590.23,6858.51 L 2581.25,6863.7 L 2581.25,6614.52 L 2590.23,6619.71 L 2590.23,6858.51 Z " />
<path stroke="none" fill="#b00000" transform="matrix(0.0666667 0 0 0.0666667 -87.1003 -312.2)" d="M 2639.03,6832.93 L 2630.04,6832.93 L 2630.04,6645.29 L 2639.03,6645.29 L 2639.03,6832.93 Z " />
<path stroke="none" fill="#b00000" transform="matrix(0.0666667 0 0 0.0666667 -87.1003 -312.2)" d="M 2797.04,6977.91 L 2797.04,6988.28 L 2581.25,6863.7 L 2590.23,6858.51 L 2797.04,6977.91 Z " />
<path stroke="none" fill="#b00000" transform="matrix(0.0666667 0 0 0.0666667 -87.1003 -312.2)" d="M 3003.84,6858.51 L 3008.33,6861.1 L 3008.33,6866.29 L 2797.04,6988.28 L 2797.04,6977.91 L 3003.84,6858.51 Z " />
<path stroke="none" fill="#b00000" transform="matrix(0.0666667 0 0 0.0666667 -87.1003 -312.2)" d="M 2957.29,6829.04 L 2961.78,6836.82 L 2799.28,6930.64 L 2794.79,6922.86 L 2957.29,6829.04 Z " />
<path stroke="none" fill="#b00000" transform="matrix(0.0666667 0 0 0.0666667 -87.1003 -312.2)" d="M 3003.84,6619.71 L 3008.33,6617.12 L 3012.82,6619.71 L 3012.82,6858.51 L 3008.33,6861.1 L 3003.84,6858.51 L 3003.84,6619.71 Z " />
<path stroke="none" fill="#b00000" transform="matrix(0.0666667 0 0 0.0666667 -87.1003 -312.2)" d="M 2797.04,6500.31 L 2797.04,6495.13 L 2801.53,6492.53 L 3008.33,6611.93 L 3008.33,6617.12 L 3003.84,6619.71 L 2797.04,6500.31 Z " />
<path stroke="none" fill="#b00000" transform="matrix(0.0666667 0 0 0.0666667 -87.1003 -312.2)" d="M 2794.79,6555.36 L 2799.28,6547.58 L 2961.78,6641.4 L 2957.29,6649.18 L 2794.79,6555.36 Z " />
<path stroke="none" fill="#b00000" transform="matrix(0.0666667 0 0 0.0666667 -87.1003 -312.2)" d="M 2590.23,6619.71 L 2581.25,6614.52 L 2792.54,6492.53 L 2797.04,6495.13 L 2797.04,6500.31 L 2590.23,6619.71 Z " />
<path stroke="none" fill="#b00000" transform="matrix(0.0666667 0 0 0.0666667 -87.1003 -312.2)" d="M 3219.63,6977.91 L 3219.63,6988.28 L 3008.33,6866.29 L 3008.33,6861.1 L 3012.82,6858.51 L 3219.63,6977.91 Z " />
<path stroke="none" fill="#b00000" transform="matrix(0.0666667 0 0 0.0666667 -87.1003 -312.2)" d="M 3426.43,6858.51 L 3435.42,6863.7 L 3219.63,6988.28 L 3219.63,6977.91 L 3426.43,6858.51 Z " />
<path stroke="none" fill="#b00000" transform="matrix(0.0666667 0 0 0.0666667 -87.1003 -312.2)" d="M 3379.88,6829.04 L 3384.37,6836.82 L 3221.87,6930.64 L 3217.38,6922.86 L 3379.88,6829.04 Z " />
<path stroke="none" fill="#b00000" transform="matrix(0.0666667 0 0 0.0666667 -87.1003 -312.2)" d="M 3426.43,6619.71 L 3435.42,6614.52 L 3435.42,6863.7 L 3426.43,6858.51 L 3426.43,6619.71 Z " />
<path stroke="none" fill="#b00000" transform="matrix(0.0666667 0 0 0.0666667 -87.1003 -312.2)" d="M 3219.63,6500.31 L 3219.63,6489.94 L 3435.42,6614.52 L 3426.43,6619.71 L 3219.63,6500.31 Z " />
<path stroke="none" fill="#b00000" transform="matrix(0.0666667 0 0 0.0666667 -87.1003 -312.2)" d="M 3217.38,6555.36 L 3221.87,6547.58 L 3384.37,6641.4 L 3379.88,6649.18 L 3217.38,6555.36 Z " />
<path stroke="none" fill="#b00000" transform="matrix(0.0666667 0 0 0.0666667 -87.1003 -312.2)" d="M 3012.82,6619.71 L 3008.33,6617.12 L 3008.33,6611.93 L 3219.63,6489.94 L 3219.63,6500.31 L 3012.82,6619.71 Z " />
<path stroke="none" fill="#b00000" transform="matrix(0.0666667 0 0 0.0666667 -87.1003 -312.2)" d="M 2792.54,6251.14 L 2801.53,6251.14 L 2801.53,6492.53 L 2797.04,6495.13 L 2792.54,6492.53 L 2792.54,6251.14 Z " />
<text x="0" y="0" stroke="none" fill="#0000ff" transform="matrix(0.0666667 0 0 0.0666667 161.602 141.274)" font-style="normal" font-weight="normal" font-size="140px" font-family="Arial" >
R</text>
<text x="0" y="0" stroke="none" fill="#0000ff" transform="matrix(0.0666667 0 0 0.0666667 168.342 137.641)" font-style="normal" font-weight="normal" font-size="105px" font-family="Arial" >
1</text>
<text x="0" y="0" stroke="none" fill="#0000ff" transform="matrix(0.0666667 0 0 0.0666667 172.235 141.274)" font-style="normal" font-weight="normal" font-size="140px" font-family="Arial" >
=</text>
<path stroke="none" fill="#0000ff" transform="matrix(0.0666667 0 0 0.0666667 -87.1003 -312.2)" d="M 4462.02,6858.51 L 4471,6863.7 L 4255.21,6988.28 L 4255.21,6977.91 L 4462.02,6858.51 Z " />
<path stroke="none" fill="#0000ff" transform="matrix(0.0666667 0 0 0.0666667 -87.1003 -312.2)" d="M 4415.47,6829.04 L 4419.96,6836.82 L 4257.46,6930.64 L 4252.97,6922.86 L 4415.47,6829.04 Z " />
<path stroke="none" fill="#0000ff" transform="matrix(0.0666667 0 0 0.0666667 -87.1003 -312.2)" d="M 4462.02,6619.71 L 4471,6614.52 L 4471,6863.7 L 4462.02,6858.51 L 4462.02,6619.71 Z " />
<path stroke="none" fill="#0000ff" transform="matrix(0.0666667 0 0 0.0666667 -87.1003 -312.2)" d="M 4255.21,6500.31 L 4255.21,6495.13 L 4259.71,6492.53 L 4471,6614.52 L 4462.02,6619.71 L 4255.21,6500.31 Z " />
<path stroke="none" fill="#0000ff" transform="matrix(0.0666667 0 0 0.0666667 -87.1003 -312.2)" d="M 4252.97,6555.36 L 4257.46,6547.58 L 4419.96,6641.4 L 4415.47,6649.18 L 4252.97,6555.36 Z " />
<path stroke="none" fill="#0000ff" transform="matrix(0.0666667 0 0 0.0666667 -87.1003 -312.2)" d="M 4048.41,6619.71 L 4039.43,6614.52 L 4250.72,6492.53 L 4255.21,6495.13 L 4255.21,6500.31 L 4048.41,6619.71 Z " />
<path stroke="none" fill="#0000ff" transform="matrix(0.0666667 0 0 0.0666667 -87.1003 -312.2)" d="M 4048.41,6858.51 L 4039.43,6863.7 L 4039.43,6614.52 L 4048.41,6619.71 L 4048.41,6858.51 Z " />
<path stroke="none" fill="#0000ff" transform="matrix(0.0666667 0 0 0.0666667 -87.1003 -312.2)" d="M 4097.21,6832.93 L 4088.22,6832.93 L 4088.22,6645.29 L 4097.21,6645.29 L 4097.21,6832.93 Z " />
<path stroke="none" fill="#0000ff" transform="matrix(0.0666667 0 0 0.0666667 -87.1003 -312.2)" d="M 4255.21,6977.91 L 4255.21,6988.28 L 4039.43,6863.7 L 4048.41,6858.51 L 4255.21,6977.91 Z " />
<path stroke="none" fill="#0000ff" transform="matrix(0.0666667 0 0 0.0666667 -87.1003 -312.2)" d="M 4250.72,6251.14 L 4259.71,6251.14 L 4259.71,6492.53 L 4255.21,6495.13 L 4250.72,6492.53 L 4250.72,6251.14 Z " />
<text x="0" y="0" stroke="none" fill="#0000ff" transform="matrix(0.0666667 0 0 0.0666667 222.959 141.274)" font-style="normal" font-weight="normal" font-size="140px" font-family="Arial" >
R</text>
<text x="0" y="0" stroke="none" fill="#0000ff" transform="matrix(0.0666667 0 0 0.0666667 229.7 137.641)" font-style="normal" font-weight="normal" font-size="105px" font-family="Arial" >
2</text>
<text x="0" y="0" stroke="none" fill="#0000ff" transform="matrix(0.0666667 0 0 0.0666667 233.593 141.274)" font-style="normal" font-weight="normal" font-size="140px" font-family="Arial" >
=</text>
<path stroke="none" fill="#0000ff" transform="matrix(0.0666667 0 0 0.0666667 -87.1003 -312.2)" d="M 4968.77,6858.51 L 4959.79,6863.7 L 4959.79,6614.52 L 4968.77,6619.71 L 4968.77,6858.51 Z " />
<path stroke="none" fill="#0000ff" transform="matrix(0.0666667 0 0 0.0666667 -87.1003 -312.2)" d="M 5017.57,6832.93 L 5008.59,6832.93 L 5008.59,6645.29 L 5017.57,6645.29 L 5017.57,6832.93 Z " />
<path stroke="none" fill="#0000ff" transform="matrix(0.0666667 0 0 0.0666667 -87.1003 -312.2)" d="M 5175.58,6977.91 L 5175.58,6988.28 L 4959.79,6863.7 L 4968.77,6858.51 L 5175.58,6977.91 Z " />
<path stroke="none" fill="#0000ff" transform="matrix(0.0666667 0 0 0.0666667 -87.1003 -312.2)" d="M 5382.38,6858.51 L 5391.37,6863.7 L 5175.58,6988.28 L 5175.58,6977.91 L 5382.38,6858.51 Z " />
<path stroke="none" fill="#0000ff" transform="matrix(0.0666667 0 0 0.0666667 -87.1003 -312.2)" d="M 5335.83,6829.04 L 5340.33,6836.82 L 5177.83,6930.64 L 5173.33,6922.86 L 5335.83,6829.04 Z " />
<path stroke="none" fill="#0000ff" transform="matrix(0.0666667 0 0 0.0666667 -87.1003 -312.2)" d="M 5382.38,6619.71 L 5391.37,6614.52 L 5391.37,6863.7 L 5382.38,6858.51 L 5382.38,6619.71 Z " />
<path stroke="none" fill="#0000ff" transform="matrix(0.0666667 0 0 0.0666667 -87.1003 -312.2)" d="M 5175.58,6500.31 L 5175.58,6495.13 L 5180.07,6492.53 L 5391.37,6614.52 L 5382.38,6619.71 L 5175.58,6500.31 Z " />
<path stroke="none" fill="#0000ff" transform="matrix(0.0666667 0 0 0.0666667 -87.1003 -312.2)" d="M 5173.33,6555.36 L 5177.83,6547.58 L 5340.33,6641.4 L 5335.83,6649.18 L 5173.33,6555.36 Z " />
<path stroke="none" fill="#0000ff" transform="matrix(0.0666667 0 0 0.0666667 -87.1003 -312.2)" d="M 4968.77,6619.71 L 4959.79,6614.52 L 5171.09,6492.53 L 5175.58,6495.13 L 5175.58,6500.31 L 4968.77,6619.71 Z " />
<path stroke="none" fill="#0000ff" transform="matrix(0.0666667 0 0 0.0666667 -87.1003 -312.2)" d="M 5171.09,6251.14 L 5180.07,6251.14 L 5180.07,6492.53 L 5175.58,6495.13 L 5171.09,6492.53 L 5171.09,6251.14 Z " />
<text x="0" y="0" stroke="none" fill="#037700" transform="matrix(0.0666667 0 0 0.0666667 291.999 151.968)" font-style="normal" font-weight="normal" font-size="140px" font-family="Arial" >
R</text>
<text x="0" y="0" stroke="none" fill="#037700" transform="matrix(0.0666667 0 0 0.0666667 298.739 148.335)" font-style="normal" font-weight="normal" font-size="105px" font-family="Arial" >
1</text>
<text x="0" y="0" stroke="none" fill="#037700" transform="matrix(0.0666667 0 0 0.0666667 302.632 151.968)" font-style="normal" font-weight="normal" font-size="140px" font-family="Arial" >
=</text>
<path stroke="none" fill="#037700" transform="matrix(0.0666667 0 0 0.0666667 -87.1003 -312.2)" d="M 6004.36,7018.92 L 5995.38,7024.11 L 5995.38,6774.94 L 6004.36,6780.13 L 6004.36,7018.92 Z " />
<path stroke="none" fill="#037700" transform="matrix(0.0666667 0 0 0.0666667 -87.1003 -312.2)" d="M 6053.16,6993.34 L 6044.17,6993.34 L 6044.17,6805.7 L 6053.16,6805.7 L 6053.16,6993.34 Z " />
<path stroke="none" fill="#037700" transform="matrix(0.0666667 0 0 0.0666667 -87.1003 -312.2)" d="M 6211.16,7138.32 L 6211.16,7148.7 L 5995.38,7024.11 L 6004.36,7018.92 L 6211.16,7138.32 Z " />
<path stroke="none" fill="#037700" transform="matrix(0.0666667 0 0 0.0666667 -87.1003 -312.2)" d="M 6417.97,7018.92 L 6422.46,7021.52 L 6422.46,7026.7 L 6211.16,7148.7 L 6211.16,7138.32 L 6417.97,7018.92 Z " />
<path stroke="none" fill="#037700" transform="matrix(0.0666667 0 0 0.0666667 -87.1003 -312.2)" d="M 6371.42,6989.45 L 6375.91,6997.23 L 6213.41,7091.05 L 6208.92,7083.27 L 6371.42,6989.45 Z " />
<path stroke="none" fill="#037700" transform="matrix(0.0666667 0 0 0.0666667 -87.1003 -312.2)" d="M 6417.97,6780.13 L 6422.46,6777.53 L 6426.95,6780.13 L 6426.95,7018.92 L 6422.46,7021.52 L 6417.97,7018.92 L 6417.97,6780.13 Z " />
<path stroke="none" fill="#037700" transform="matrix(0.0666667 0 0 0.0666667 -87.1003 -312.2)" d="M 6211.16,6660.73 L 6211.16,6655.54 L 6215.66,6652.95 L 6422.46,6772.34 L 6422.46,6777.53 L 6417.97,6780.13 L 6211.16,6660.73 Z " />
<path stroke="none" fill="#037700" transform="matrix(0.0666667 0 0 0.0666667 -87.1003 -312.2)" d="M 6208.92,6715.78 L 6213.41,6707.99 L 6375.91,6801.81 L 6371.42,6809.59 L 6208.92,6715.78 Z " />
<path stroke="none" fill="#037700" transform="matrix(0.0666667 0 0 0.0666667 -87.1003 -312.2)" d="M 6004.36,6780.13 L 5995.38,6774.94 L 6206.67,6652.95 L 6211.16,6655.54 L 6211.16,6660.73 L 6004.36,6780.13 Z " />
<path stroke="none" fill="#037700" transform="matrix(0.0666667 0 0 0.0666667 -87.1003 -312.2)" d="M 6633.76,7138.32 L 6633.76,7148.7 L 6422.46,7026.7 L 6422.46,7021.52 L 6426.95,7018.92 L 6633.76,7138.32 Z " />
<path stroke="none" fill="#037700" transform="matrix(0.0666667 0 0 0.0666667 -87.1003 -312.2)" d="M 6840.56,7018.92 L 6849.55,7024.11 L 6633.76,7148.7 L 6633.76,7138.32 L 6840.56,7018.92 Z " />
<path stroke="none" fill="#037700" transform="matrix(0.0666667 0 0 0.0666667 -87.1003 -312.2)" d="M 6794.01,6989.45 L 6798.5,6997.23 L 6636,7091.05 L 6631.51,7083.27 L 6794.01,6989.45 Z " />
<path stroke="none" fill="#037700" transform="matrix(0.0666667 0 0 0.0666667 -87.1003 -312.2)" d="M 6840.56,6780.13 L 6849.55,6774.94 L 6849.55,7024.11 L 6840.56,7018.92 L 6840.56,6780.13 Z " />
<path stroke="none" fill="#037700" transform="matrix(0.0666667 0 0 0.0666667 -87.1003 -312.2)" d="M 6633.76,6660.73 L 6633.76,6650.35 L 6849.55,6774.94 L 6840.56,6780.13 L 6633.76,6660.73 Z " />
<path stroke="none" fill="#037700" transform="matrix(0.0666667 0 0 0.0666667 -87.1003 -312.2)" d="M 6631.51,6715.78 L 6636,6707.99 L 6798.5,6801.81 L 6794.01,6809.59 L 6631.51,6715.78 Z " />
<path stroke="none" fill="#037700" transform="matrix(0.0666667 0 0 0.0666667 -87.1003 -312.2)" d="M 6426.95,6780.13 L 6422.46,6777.53 L 6422.46,6772.34 L 6633.76,6650.35 L 6633.76,6660.73 L 6426.95,6780.13 Z " />
<path stroke="none" fill="#037700" transform="matrix(0.0666667 0 0 0.0666667 -87.1003 -312.2)" d="M 6206.67,6411.56 L 6215.66,6411.56 L 6215.66,6652.95 L 6211.16,6655.54 L 6206.67,6652.95 L 6206.67,6411.56 Z " />
<text x="0" y="0" stroke="none" fill="#037700" transform="matrix(0.0666667 0 0 0.0666667 379.983 151.968)" font-style="normal" font-weight="normal" font-size="140px" font-family="Arial" >
R</text>
<text x="0" y="0" stroke="none" fill="#037700" transform="matrix(0.0666667 0 0 0.0666667 386.724 148.335)" font-style="normal" font-weight="normal" font-size="105px" font-family="Arial" >
2</text>
<text x="0" y="0" stroke="none" fill="#037700" transform="matrix(0.0666667 0 0 0.0666667 390.617 151.968)" font-style="normal" font-weight="normal" font-size="140px" font-family="Arial" >
=</text>
<text x="0" y="0" stroke="none" fill="#037700" transform="matrix(0.0666667 0 0 0.0666667 431.883 150.735)" font-style="normal" font-weight="normal" font-size="140px" font-family="Arial" >
N</text>
<path stroke="none" fill="#037700" transform="matrix(0.0666667 0 0 0.0666667 -87.1003 -312.2)" d="M 7710.67,6682.72 L 7713.26,6678.23 L 7718.45,6678.23 L 7798.08,6816.15 L 7790.3,6820.64 L 7710.67,6682.72 Z " />
<path stroke="none" fill="#037700" transform="matrix(0.0666667 0 0 0.0666667 -87.1003 -312.2)" d="M 7718.45,7100.82 L 7713.26,7100.82 L 7710.67,7096.33 L 7785.68,6966.41 L 7793.46,6970.9 L 7718.45,7100.82 Z " />
<path stroke="none" fill="#037700" transform="matrix(0.0666667 0 0 0.0666667 -87.1003 -312.2)" d="M 8076.65,6885.03 L 8079.24,6889.52 L 8076.65,6894.02 L 7898.75,6894.02 L 7898.75,6885.03 L 8076.65,6885.03 Z " />
<path stroke="none" fill="#037700" transform="matrix(0.0666667 0 0 0.0666667 -87.1003 -312.2)" d="M 7830.07,6466.93 L 7840.44,6466.93 L 7718.45,6678.23 L 7713.26,6678.23 L 7710.67,6673.74 L 7830.07,6466.93 Z " />
<path stroke="none" fill="#037700" transform="matrix(0.0666667 0 0 0.0666667 -87.1003 -312.2)" d="M 7775.02,6464.68 L 7782.8,6469.18 L 7688.98,6631.68 L 7681.2,6627.18 L 7775.02,6464.68 Z " />
<path stroke="none" fill="#037700" transform="matrix(0.0666667 0 0 0.0666667 -87.1003 -312.2)" d="M 7710.67,6260.13 L 7715.86,6251.14 L 7840.44,6466.93 L 7830.07,6466.93 L 7710.67,6260.13 Z " />
<path stroke="none" fill="#037700" transform="matrix(0.0666667 0 0 0.0666667 -87.1003 -312.2)" d="M 7471.87,6260.13 L 7466.68,6251.14 L 7715.86,6251.14 L 7710.67,6260.13 L 7471.87,6260.13 Z " />
<path stroke="none" fill="#037700" transform="matrix(0.0666667 0 0 0.0666667 -87.1003 -312.2)" d="M 7497.45,6308.92 L 7497.45,6299.94 L 7685.09,6299.94 L 7685.09,6308.92 L 7497.45,6308.92 Z " />
<path stroke="none" fill="#037700" transform="matrix(0.0666667 0 0 0.0666667 -87.1003 -312.2)" d="M 7352.47,6466.93 L 7342.1,6466.93 L 7466.68,6251.14 L 7471.87,6260.13 L 7352.47,6466.93 Z " />
<path stroke="none" fill="#037700" transform="matrix(0.0666667 0 0 0.0666667 -87.1003 -312.2)" d="M 7471.87,6673.74 L 7466.68,6682.72 L 7342.1,6466.93 L 7352.47,6466.93 L 7471.87,6673.74 Z " />
<path stroke="none" fill="#037700" transform="matrix(0.0666667 0 0 0.0666667 -87.1003 -312.2)" d="M 7501.34,6627.18 L 7493.56,6631.68 L 7399.74,6469.18 L 7407.52,6464.68 L 7501.34,6627.18 Z " />
<path stroke="none" fill="#037700" transform="matrix(0.0666667 0 0 0.0666667 -87.1003 -312.2)" d="M 7710.67,6673.74 L 7713.26,6678.23 L 7710.67,6682.72 L 7466.68,6682.72 L 7471.87,6673.74 L 7710.67,6673.74 Z " />
<path stroke="none" fill="#037700" transform="matrix(0.0666667 0 0 0.0666667 -87.1003 -312.2)" d="M 7471.87,7105.31 L 7466.68,7096.33 L 7710.67,7096.33 L 7713.26,7100.82 L 7710.67,7105.31 L 7471.87,7105.31 Z " />
<path stroke="none" fill="#037700" transform="matrix(0.0666667 0 0 0.0666667 -87.1003 -312.2)" d="M 7497.45,7154.11 L 7497.45,7145.13 L 7685.09,7145.13 L 7685.09,7154.11 L 7497.45,7154.11 Z " />
<path stroke="none" fill="#037700" transform="matrix(0.0666667 0 0 0.0666667 -87.1003 -312.2)" d="M 7352.47,7312.12 L 7342.1,7312.12 L 7466.68,7096.33 L 7471.87,7105.31 L 7352.47,7312.12 Z " />
<path stroke="none" fill="#037700" transform="matrix(0.0666667 0 0 0.0666667 -87.1003 -312.2)" d="M 7471.87,7518.92 L 7466.68,7527.91 L 7342.1,7312.12 L 7352.47,7312.12 L 7471.87,7518.92 Z " />
<path stroke="none" fill="#037700" transform="matrix(0.0666667 0 0 0.0666667 -87.1003 -312.2)" d="M 7501.34,7472.37 L 7493.56,7476.86 L 7399.74,7314.36 L 7407.52,7309.87 L 7501.34,7472.37 Z " />
<path stroke="none" fill="#037700" transform="matrix(0.0666667 0 0 0.0666667 -87.1003 -312.2)" d="M 7710.67,7518.92 L 7715.86,7527.91 L 7466.68,7527.91 L 7471.87,7518.92 L 7710.67,7518.92 Z " />
<path stroke="none" fill="#037700" transform="matrix(0.0666667 0 0 0.0666667 -87.1003 -312.2)" d="M 7830.07,7312.12 L 7840.44,7312.12 L 7715.86,7527.91 L 7710.67,7518.92 L 7830.07,7312.12 Z " />
<path stroke="none" fill="#037700" transform="matrix(0.0666667 0 0 0.0666667 -87.1003 -312.2)" d="M 7775.02,7309.87 L 7782.8,7314.36 L 7688.98,7476.86 L 7681.2,7472.37 L 7775.02,7309.87 Z " />
<path stroke="none" fill="#037700" transform="matrix(0.0666667 0 0 0.0666667 -87.1003 -312.2)" d="M 7710.67,7105.31 L 7713.26,7100.82 L 7718.45,7100.82 L 7840.44,7312.12 L 7830.07,7312.12 L 7710.67,7105.31 Z " />
<path stroke="none" fill="#037700" transform="matrix(0.0666667 0 0 0.0666667 -87.1003 -312.2)" d="M 8203.82,7096.33 L 8198.64,7105.31 L 8076.65,6894.02 L 8079.24,6889.52 L 8084.43,6889.52 L 8203.82,7096.33 Z " />
<path stroke="none" fill="#037700" transform="matrix(0.0666667 0 0 0.0666667 -87.1003 -312.2)" d="M 8233.29,7049.78 L 8225.51,7054.27 L 8131.69,6891.77 L 8139.47,6887.28 L 8233.29,7049.78 Z " />
<path stroke="none" fill="#037700" transform="matrix(0.0666667 0 0 0.0666667 -87.1003 -312.2)" d="M 8442.62,7096.33 L 8447.81,7105.31 L 8198.64,7105.31 L 8203.82,7096.33 L 8442.62,7096.33 Z " />
<path stroke="none" fill="#037700" transform="matrix(0.0666667 0 0 0.0666667 -87.1003 -312.2)" d="M 8562.02,6889.52 L 8567.21,6889.52 L 8569.8,6894.02 L 8447.81,7105.31 L 8442.62,7096.33 L 8562.02,6889.52 Z " />
<path stroke="none" fill="#037700" transform="matrix(0.0666667 0 0 0.0666667 -87.1003 -312.2)" d="M 8506.97,6887.28 L 8514.75,6891.77 L 8420.93,7054.27 L 8413.15,7049.78 L 8506.97,6887.28 Z " />
<path stroke="none" fill="#037700" transform="matrix(0.0666667 0 0 0.0666667 -87.1003 -312.2)" d="M 8442.62,6682.72 L 8447.81,6673.74 L 8569.8,6885.03 L 8567.21,6889.52 L 8562.02,6889.52 L 8442.62,6682.72 Z " />
<path stroke="none" fill="#037700" transform="matrix(0.0666667 0 0 0.0666667 -87.1003 -312.2)" d="M 8203.82,6682.72 L 8198.64,6673.74 L 8447.81,6673.74 L 8442.62,6682.72 L 8203.82,6682.72 Z " />
<path stroke="none" fill="#037700" transform="matrix(0.0666667 0 0 0.0666667 -87.1003 -312.2)" d="M 8229.4,6731.52 L 8229.4,6722.53 L 8417.04,6722.53 L 8417.04,6731.52 L 8229.4,6731.52 Z " />
<path stroke="none" fill="#037700" transform="matrix(0.0666667 0 0 0.0666667 -87.1003 -312.2)" d="M 8084.43,6889.52 L 8079.24,6889.52 L 8076.65,6885.03 L 8198.64,6673.74 L 8203.82,6682.72 L 8084.43,6889.52 Z " />
<path stroke="none" fill="#037700" transform="matrix(0.0666667 0 0 0.0666667 -87.1003 -312.2)" d="M 8811.19,6885.03 L 8811.19,6894.02 L 8569.8,6894.02 L 8567.21,6889.52 L 8569.8,6885.03 L 8811.19,6885.03 Z " />
</svg>
