<?xml version="1.0" standalone="no" ?>
<!DOCTYPE svg PUBLIC "-//W3C//DTD SVG 1.1//EN" "http://www.w3.org/Graphics/SVG/1.1/DTD/svg11.dtd">
<svg width="589px" height="401px" viewBox="0 0 589 401" style="background-color: #ffffff00" xmlns="http://www.w3.org/2000/svg" xmlns:xlink="http://www.w3.org/1999/xlink" version="1.1" >
<text x="0" y="0" stroke="none" fill="#006d7d" transform="matrix(0.0833333 0 0 0.0833333 36.4957 23.4359)" font-style="normal" font-weight="normal" font-size="140px" font-family="Arial" >
O</text>
<text x="0" y="0" stroke="none" fill="#006d7d" transform="matrix(0.0833333 0 0 0.0833333 15.4884 46.7669)" font-style="normal" font-weight="normal" font-size="140px" font-family="Arial" >
O</text>
<path stroke="none" fill="#006d7d" transform="matrix(0.0833333 0 0 0.0833333 -145.258 3.83333)" d="M 2272.66,253.987 L 2280.44,249.494 L 2353.61,376.238 L 2351.97,382.374 L 2346.45,381.794 L 2272.66,253.987 Z " />
<path stroke="none" fill="#006d7d" transform="matrix(0.0833333 0 0 0.0833333 -145.258 3.83333)" d="M 2011.93,232.856 L 2003.67,225.425 L 2161.87,191.799 L 2163.74,200.587 L 2011.93,232.856 Z " />
<path stroke="none" fill="#006d7d" transform="matrix(0.0833333 0 0 0.0833333 -145.258 3.83333)" d="M 1995.25,391.472 L 1986.32,390.533 L 2003.67,225.425 L 2011.93,232.856 L 1995.25,391.472 Z " />
<path stroke="none" fill="#006d7d" transform="matrix(0.0833333 0 0 0.0833333 -145.258 3.83333)" d="M 2195.01,549.975 L 2197.32,560.838 L 2051.89,496.087 L 2055.54,487.88 L 2195.01,549.975 Z " />
<path stroke="none" fill="#006d7d" transform="matrix(0.0833333 0 0 0.0833333 -145.258 3.83333)" d="M 2346.45,381.794 L 2351.97,382.374 L 2354.83,385.909 L 2197.32,560.838 L 2195.01,549.975 L 2346.45,381.794 Z " />
<text x="0" y="0" stroke="none" fill="#006d7d" transform="matrix(0.0833333 0 0 0.0833333 3.7965 13.75)" font-style="normal" font-weight="normal" font-size="140px" font-family="Arial" >
O</text>
<path stroke="none" fill="#006d7d" transform="matrix(0.0833333 0 0 0.0833333 -145.258 3.83333)" d="M 1880.28,140.901 L 1886.63,134.549 L 2007.84,255.761 L 2001.49,262.114 L 1880.28,140.901 Z " />
<path stroke="none" fill="#006d7d" transform="matrix(0.0833333 0 0 0.0833333 -145.258 3.83333)" d="M 1913.21,107.973 L 1919.56,101.62 L 2038.13,220.192 L 2031.78,226.545 L 1913.21,107.973 Z " />
<path stroke="none" fill="#006d7d" transform="matrix(0.0833333 0 0 0.0833333 -145.258 3.83333)" d="M 2553.61,260.769 L 2553.61,271.143 L 2354.83,385.909 L 2351.97,382.374 L 2353.61,376.238 L 2553.61,260.769 Z " />
<text x="0" y="0" stroke="none" fill="#006d7d" transform="matrix(0.0833333 0 0 0.0833333 79.8045 40.2395)" font-style="normal" font-weight="normal" font-size="140px" font-family="Arial" >
O</text>
<path stroke="none" fill="#006d7d" transform="matrix(0.0833333 0 0 0.0833333 -145.258 3.83333)" d="M 2695.49,342.681 L 2690.99,350.461 L 2553.61,271.143 L 2553.61,260.769 L 2695.49,342.681 Z " />
<path stroke="none" fill="#006d7d" transform="matrix(0.0833333 0 0 0.0833333 -145.258 3.83333)" d="M 2956.9,260.769 L 2956.9,271.143 L 2819.75,350.327 L 2815.25,342.547 L 2956.9,260.769 Z " />
<path stroke="none" fill="#006d7d" transform="matrix(0.0833333 0 0 0.0833333 -145.258 3.83333)" d="M 3158.54,377.187 L 3158.54,382.374 L 3154.05,384.968 L 2956.9,271.143 L 2956.9,260.769 L 3158.54,377.187 Z " />
<text x="0" y="0" stroke="none" fill="#006d7d" transform="matrix(0.0833333 0 0 0.0833333 130.215 30.538)" font-style="normal" font-weight="normal" font-size="140px" font-family="Arial" >
O</text>
<path stroke="none" fill="#006d7d" transform="matrix(0.0833333 0 0 0.0833333 -145.258 3.83333)" d="M 3290.79,300.836 L 3295.28,308.617 L 3163.03,384.968 L 3158.54,382.374 L 3158.54,377.187 L 3290.79,300.836 Z " />
<path stroke="none" fill="#006d7d" transform="matrix(0.0833333 0 0 0.0833333 -145.258 3.83333)" d="M 3561.83,377.187 L 3561.83,387.561 L 3425.52,308.867 L 3430.02,301.086 L 3561.83,377.187 Z " />
<path stroke="none" fill="#006d7d" transform="matrix(0.0833333 0 0 0.0833333 -145.258 3.83333)" d="M 3760.61,262.421 L 3763.47,265.956 L 3761.83,272.092 L 3561.83,387.561 L 3561.83,377.187 L 3760.61,262.421 Z " />
<path stroke="none" fill="#006d7d" transform="matrix(0.0833333 0 0 0.0833333 -145.258 3.83333)" d="M 3163.03,615.212 L 3154.05,615.212 L 3154.05,384.968 L 3158.54,382.374 L 3163.03,384.968 L 3163.03,615.212 Z " />
<text x="0" y="0" stroke="none" fill="#006d7d" transform="matrix(0.0833333 0 0 0.0833333 192.503 43.3075)" font-style="normal" font-weight="normal" font-size="140px" font-family="Arial" >
O</text>
<text x="0" y="0" stroke="none" fill="#006d7d" transform="matrix(0.0833333 0 0 0.0833333 176.806 16.1186)" font-style="normal" font-weight="normal" font-size="140px" font-family="Arial" >
O</text>
<path stroke="none" fill="#006d7d" transform="matrix(0.0833333 0 0 0.0833333 -145.258 3.83333)" d="M 3882.15,462.527 L 3877.63,472.672 L 3761.83,272.092 L 3763.47,265.956 L 3768.99,266.536 L 3882.15,462.527 Z " />
<path stroke="none" fill="#006d7d" transform="matrix(0.0833333 0 0 0.0833333 -145.258 3.83333)" d="M 4033.97,430.257 L 4035.83,439.045 L 3877.63,472.672 L 3882.15,462.527 L 4033.97,430.257 Z " />
<path stroke="none" fill="#006d7d" transform="matrix(0.0833333 0 0 0.0833333 -145.258 3.83333)" d="M 4127.17,190.404 L 4136.79,184.851 L 4119.43,349.958 L 4110.5,349.019 L 4127.17,190.404 Z " />
<path stroke="none" fill="#006d7d" transform="matrix(0.0833333 0 0 0.0833333 -145.258 3.83333)" d="M 3987.7,128.308 L 3991.35,120.1 L 4136.79,184.851 L 4127.17,190.404 L 3987.7,128.308 Z " />
<path stroke="none" fill="#006d7d" transform="matrix(0.0833333 0 0 0.0833333 -145.258 3.83333)" d="M 3768.99,266.536 L 3763.47,265.956 L 3760.61,262.421 L 3862.24,149.545 L 3868.92,155.557 L 3768.99,266.536 Z " />
<text x="0" y="0" stroke="none" fill="#006d7d" transform="matrix(0.0833333 0 0 0.0833333 211.335 14.309)" font-style="normal" font-weight="normal" font-size="140px" font-family="Arial" >
O</text>
<path stroke="none" fill="#006d7d" transform="matrix(0.0833333 0 0 0.0833333 -145.258 3.83333)" d="M 4252.58,85.9242 L 4257.07,93.7049 L 4107.93,179.812 L 4103.44,172.031 L 4252.58,85.9242 Z " />
<path stroke="none" fill="#006d7d" transform="matrix(0.0833333 0 0 0.0833333 -145.258 3.83333)" d="M 4275.86,126.253 L 4280.36,134.034 L 4131.22,220.14 L 4126.72,212.36 L 4275.86,126.253 Z " />
<path stroke="#006d7d" stroke-width="9" fill="none" transform="matrix(0.0833333 0 0 0.0833333 -145.258 3.83333)" d="M 3468.11,176.487 L 3499.43,176.487 " />
<path stroke="#006d7d" stroke-width="9" fill="none" transform="matrix(0.0833333 0 0 0.0833333 -145.258 3.83333)" d="M 3499.43,176.487 L 3499.43,602.677 " />
<path stroke="#006d7d" stroke-width="9" fill="none" transform="matrix(0.0833333 0 0 0.0833333 -145.258 3.83333)" d="M 3499.43,602.677 L 3468.11,602.677 " />
<path stroke="#006d7d" stroke-width="9" fill="none" transform="matrix(0.0833333 0 0 0.0833333 -145.258 3.83333)" d="M 2916.52,602.677 L 2885.21,602.677 " />
<path stroke="#006d7d" stroke-width="9" fill="none" transform="matrix(0.0833333 0 0 0.0833333 -145.258 3.83333)" d="M 2885.21,602.677 L 2885.21,176.487 " />
<path stroke="#006d7d" stroke-width="9" fill="none" transform="matrix(0.0833333 0 0 0.0833333 -145.258 3.83333)" d="M 2885.21,176.487 L 2916.52,176.487 " />
<text x="0" y="0" stroke="none" fill="#006d7d" transform="matrix(0.0833333 0 0 0.0833333 148.581 55.0018)" font-style="normal" font-weight="normal" font-size="104px" font-family="Arial" >
13</text>
<path stroke="none" fill="#c60000" transform="matrix(0.0833333 0 0 0.0833333 -145.258 3.83333)" d="M 6242.92,576.441 L 6238.43,579.034 L 6233.93,576.441 L 6233.93,332.662 L 6242.92,337.849 L 6242.92,576.441 Z " />
<path stroke="none" fill="#c60000" transform="matrix(0.0833333 0 0 0.0833333 -145.258 3.83333)" d="M 6291.67,550.885 L 6282.69,550.885 L 6282.69,363.404 L 6291.67,363.404 L 6291.67,550.885 Z " />
<path stroke="none" fill="#c60000" transform="matrix(0.0833333 0 0 0.0833333 -145.258 3.83333)" d="M 6449.54,695.737 L 6449.54,706.111 L 6238.43,584.222 L 6238.43,579.034 L 6242.92,576.441 L 6449.54,695.737 Z " />
<path stroke="none" fill="#c60000" transform="matrix(0.0833333 0 0 0.0833333 -145.258 3.83333)" d="M 6656.17,576.441 L 6665.16,581.628 L 6449.54,706.111 L 6449.54,695.737 L 6656.17,576.441 Z " />
<path stroke="none" fill="#c60000" transform="matrix(0.0833333 0 0 0.0833333 -145.258 3.83333)" d="M 6609.66,546.995 L 6614.15,554.775 L 6451.79,648.516 L 6447.3,640.735 L 6609.66,546.995 Z " />
<path stroke="none" fill="#c60000" transform="matrix(0.0833333 0 0 0.0833333 -145.258 3.83333)" d="M 6656.17,337.849 L 6660.66,335.255 L 6665.16,337.849 L 6665.16,581.628 L 6656.17,576.441 L 6656.17,337.849 Z " />
<path stroke="none" fill="#c60000" transform="matrix(0.0833333 0 0 0.0833333 -145.258 3.83333)" d="M 6449.54,218.552 L 6449.54,208.178 L 6660.66,330.068 L 6660.66,335.255 L 6656.17,337.849 L 6449.54,218.552 Z " />
<path stroke="none" fill="#c60000" transform="matrix(0.0833333 0 0 0.0833333 -145.258 3.83333)" d="M 6447.3,273.554 L 6451.79,265.773 L 6614.15,359.514 L 6609.66,367.295 L 6447.3,273.554 Z " />
<path stroke="none" fill="#c60000" transform="matrix(0.0833333 0 0 0.0833333 -145.258 3.83333)" d="M 6242.92,337.849 L 6233.93,332.662 L 6449.54,208.178 L 6449.54,218.552 L 6242.92,337.849 Z " />
<path stroke="none" fill="#c60000" transform="matrix(0.0833333 0 0 0.0833333 -145.258 3.83333)" d="M 6865.65,211.721 L 6871.78,213.365 L 6871.78,218.552 L 6665.16,337.849 L 6660.66,335.255 L 6660.66,330.068 L 6865.65,211.721 Z " />
<path stroke="none" fill="#c60000" transform="matrix(0.0833333 0 0 0.0833333 -145.258 3.83333)" d="M 7082.9,330.068 L 7082.9,335.255 L 7078.41,337.849 L 6871.78,218.552 L 6871.78,213.365 L 6877.92,211.721 L 7082.9,330.068 Z " />
<path stroke="none" fill="#c60000" transform="matrix(0.0833333 0 0 0.0833333 -145.258 3.83333)" d="M 6989.78,-4.09335e-06 L 6997.56,4.49219 L 6877.92,211.721 L 6871.78,213.365 L 6871.78,204.381 L 6989.78,-4.09335e-06 Z " />
<path stroke="none" fill="#c60000" transform="matrix(0.0833333 0 0 0.0833333 -145.258 3.83333)" d="M 6746,4.49219 L 6753.78,1.24312e-07 L 6871.78,204.381 L 6871.78,213.365 L 6865.65,211.721 L 6746,4.49219 Z " />
<path stroke="none" fill="#c60000" transform="matrix(0.0833333 0 0 0.0833333 -145.258 3.83333)" d="M 7087.39,576.441 L 7078.41,581.628 L 7078.41,337.849 L 7082.9,335.255 L 7087.39,337.849 L 7087.39,576.441 Z " />
<path stroke="none" fill="#c60000" transform="matrix(0.0833333 0 0 0.0833333 -145.258 3.83333)" d="M 7136.15,550.885 L 7127.17,550.885 L 7127.17,363.404 L 7136.15,363.404 L 7136.15,550.885 Z " />
<path stroke="none" fill="#c60000" transform="matrix(0.0833333 0 0 0.0833333 -145.258 3.83333)" d="M 7294.02,695.737 L 7294.02,706.111 L 7078.41,581.628 L 7087.39,576.441 L 7294.02,695.737 Z " />
<path stroke="none" fill="#c60000" transform="matrix(0.0833333 0 0 0.0833333 -145.258 3.83333)" d="M 7500.65,576.441 L 7505.14,579.034 L 7505.14,584.222 L 7294.02,706.111 L 7294.02,695.737 L 7500.65,576.441 Z " />
<path stroke="none" fill="#c60000" transform="matrix(0.0833333 0 0 0.0833333 -145.258 3.83333)" d="M 7454.14,546.995 L 7458.63,554.776 L 7296.27,648.516 L 7291.78,640.735 L 7454.14,546.995 Z " />
<path stroke="none" fill="#c60000" transform="matrix(0.0833333 0 0 0.0833333 -145.258 3.83333)" d="M 7500.65,337.849 L 7509.63,332.662 L 7509.63,576.441 L 7505.14,579.034 L 7500.65,576.441 L 7500.65,337.849 Z " />
<path stroke="none" fill="#c60000" transform="matrix(0.0833333 0 0 0.0833333 -145.258 3.83333)" d="M 7294.02,218.552 L 7294.02,208.178 L 7509.63,332.662 L 7500.65,337.849 L 7294.02,218.552 Z " />
<path stroke="none" fill="#c60000" transform="matrix(0.0833333 0 0 0.0833333 -145.258 3.83333)" d="M 7291.78,273.554 L 7296.27,265.773 L 7458.63,359.514 L 7454.14,367.295 L 7291.78,273.554 Z " />
<path stroke="none" fill="#c60000" transform="matrix(0.0833333 0 0 0.0833333 -145.258 3.83333)" d="M 7087.39,337.849 L 7082.9,335.255 L 7082.9,330.068 L 7294.02,208.178 L 7294.02,218.552 L 7087.39,337.849 Z " />
<text x="0" y="0" stroke="none" fill="#c60000" transform="matrix(0.0833333 0 0 0.0833333 493.222 66.7853)" font-style="normal" font-weight="normal" font-size="140px" font-family="Arial" >
O</text>
<path stroke="none" fill="#c60000" transform="matrix(0.0833333 0 0 0.0833333 -145.258 3.83333)" d="M 7656.49,661.23 L 7652,669.011 L 7505.14,584.222 L 7505.14,579.034 L 7509.63,576.441 L 7656.49,661.23 Z " />
<path stroke="none" fill="#c60000" transform="matrix(0.0833333 0 0 0.0833333 -145.258 3.83333)" d="M 7927.11,574.003 L 7927.65,584.066 L 7780.75,668.877 L 7776.26,661.096 L 7927.11,574.003 Z " />
<text x="0" y="0" stroke="none" fill="#c60000" transform="matrix(0.0833333 0 0 0.0833333 352.476 66.7853)" font-style="normal" font-weight="normal" font-size="140px" font-family="Arial" >
O</text>
<path stroke="none" fill="#c60000" transform="matrix(0.0833333 0 0 0.0833333 -145.258 3.83333)" d="M 6091.8,668.877 L 6087.31,661.096 L 6233.93,576.441 L 6238.43,579.034 L 6238.43,584.222 L 6091.8,668.877 Z " />
<path stroke="none" fill="#c60000" transform="matrix(0.0833333 0 0 0.0833333 -145.258 3.83333)" d="M 5815.82,584.011 L 5816.55,574.058 L 5967.54,661.23 L 5963.05,669.011 L 5815.82,584.011 Z " />
<text x="0" y="0" stroke="none" fill="#c60000" transform="matrix(0.0833333 0 0 0.0833333 303.507 47.8051)" font-style="normal" font-weight="normal" font-size="140px" font-family="Arial" >
O</text>
<text x="0" y="0" stroke="none" fill="#c60000" transform="matrix(0.0833333 0 0 0.0833333 283.729 74.0597)" font-style="normal" font-weight="normal" font-size="140px" font-family="Arial" >
O</text>
<path stroke="none" fill="#c60000" transform="matrix(0.0833333 0 0 0.0833333 -145.258 3.83333)" d="M 5482.78,542.525 L 5490.14,537.37 L 5581.18,667.347 L 5579.54,672.831 L 5573.99,672.735 L 5482.78,542.525 Z " />
<path stroke="none" fill="#c60000" transform="matrix(0.0833333 0 0 0.0833333 -145.258 3.83333)" d="M 5211,547.814 L 5202.13,541.132 L 5366.52,490.846 L 5369.14,499.437 L 5211,547.814 Z " />
<path stroke="none" fill="#c60000" transform="matrix(0.0833333 0 0 0.0833333 -145.258 3.83333)" d="M 5208.06,717.978 L 5199.08,717.822 L 5202.13,541.132 L 5211,547.814 L 5208.06,717.978 Z " />
<path stroke="none" fill="#c60000" transform="matrix(0.0833333 0 0 0.0833333 -145.258 3.83333)" d="M 5431.24,862.236 L 5434.49,872.856 L 5272.83,817.222 L 5275.75,808.726 L 5431.24,862.236 Z " />
<path stroke="none" fill="#c60000" transform="matrix(0.0833333 0 0 0.0833333 -145.258 3.83333)" d="M 5573.99,672.735 L 5579.54,672.831 L 5582.37,676.542 L 5434.49,872.856 L 5431.24,862.236 L 5573.99,672.735 Z " />
<text x="0" y="0" stroke="none" fill="#c60000" transform="matrix(0.0833333 0 0 0.0833333 266.666 43.2875)" font-style="normal" font-weight="normal" font-size="140px" font-family="Arial" >
O</text>
<path stroke="none" fill="#c60000" transform="matrix(0.0833333 0 0 0.0833333 -145.258 3.83333)" d="M 5049.81,483.994 L 5054.43,476.292 L 5208.39,568.767 L 5203.77,576.469 L 5049.81,483.994 Z " />
<path stroke="none" fill="#c60000" transform="matrix(0.0833333 0 0 0.0833333 -145.258 3.83333)" d="M 5074.91,442.198 L 5079.54,434.496 L 5240.25,531.026 L 5235.62,538.728 L 5074.91,442.198 Z " />
<text x="0" y="0" stroke="none" fill="#c60000" transform="matrix(0.0833333 0 0 0.0833333 560.976 71.9368)" font-style="normal" font-weight="normal" font-size="140px" font-family="Arial" >
O</text>
<text x="0" y="0" stroke="none" fill="#c60000" transform="matrix(0.0833333 0 0 0.0833333 539.339 47.1922)" font-style="normal" font-weight="normal" font-size="140px" font-family="Arial" >
O</text>
<path stroke="none" fill="#c60000" transform="matrix(0.0833333 0 0 0.0833333 -145.258 3.83333)" d="M 8306.42,853.234 L 8303.96,864.061 L 8142,678.838 L 8144.72,675.132 L 8150.25,674.632 L 8306.42,853.234 Z " />
<path stroke="none" fill="#c60000" transform="matrix(0.0833333 0 0 0.0833333 -145.258 3.83333)" d="M 8457.43,788.617 L 8460.96,796.877 L 8303.96,864.061 L 8306.42,853.234 L 8457.43,788.617 Z " />
<path stroke="none" fill="#c60000" transform="matrix(0.0833333 0 0 0.0833333 -145.258 3.83333)" d="M 8503.18,523.607 L 8511.54,516.297 L 8527.47,692.473 L 8518.52,693.282 L 8503.18,523.607 Z " />
<path stroke="none" fill="#c60000" transform="matrix(0.0833333 0 0 0.0833333 -145.258 3.83333)" d="M 8341.73,486.829 L 8343.72,478.069 L 8511.54,516.297 L 8503.18,523.607 L 8341.73,486.829 Z " />
<path stroke="none" fill="#c60000" transform="matrix(0.0833333 0 0 0.0833333 -145.258 3.83333)" d="M 8150.25,674.632 L 8144.72,675.132 L 8142.9,669.416 L 8224,533.55 L 8231.71,538.155 L 8150.25,674.632 Z " />
<text x="0" y="0" stroke="none" fill="#c60000" transform="matrix(0.0833333 0 0 0.0833333 575.753 40.0037)" font-style="normal" font-weight="normal" font-size="140px" font-family="Arial" >
O</text>
<path stroke="none" fill="#c60000" transform="matrix(0.0833333 0 0 0.0833333 -145.258 3.83333)" d="M 8625.84,401.158 L 8631.01,408.502 L 8477.96,516.338 L 8472.79,508.994 L 8625.84,401.158 Z " />
<path stroke="none" fill="#c60000" transform="matrix(0.0833333 0 0 0.0833333 -145.258 3.83333)" d="M 8653.92,441.015 L 8659.1,448.359 L 8512.48,551.659 L 8507.31,544.315 L 8653.92,441.015 Z " />
<path stroke="none" fill="#c60000" transform="matrix(0.0833333 0 0 0.0833333 -145.258 3.83333)" d="M 5816.55,574.058 L 5815.82,584.011 L 5582.37,676.542 L 5579.54,672.831 L 5581.18,667.347 L 5816.55,574.058 Z " />
<path stroke="none" fill="#c60000" transform="matrix(0.0833333 0 0 0.0833333 -145.258 3.83333)" d="M 8142.9,669.416 L 8144.72,675.132 L 8142,678.838 L 7927.65,584.066 L 7927.11,574.003 L 8142.9,669.416 Z " />
<path stroke="none" fill="#8000ff" transform="matrix(0.0833333 0 0 0.0833333 -145.258 3.83333)" d="M 4121.48,925.257 L 4111.1,925.244 L 3990.67,716.042 L 3998.45,711.56 L 4121.48,925.257 Z " />
<path stroke="none" fill="#8000ff" transform="matrix(0.0833333 0 0 0.0833333 -145.258 3.83333)" d="M 4001.82,1131.91 L 3994.03,1136.39 L 3991.44,1131.9 L 4111.1,925.244 L 4121.48,925.257 L 4001.82,1131.91 Z " />
<path stroke="none" fill="#8000ff" transform="matrix(0.0833333 0 0 0.0833333 -145.258 3.83333)" d="M 4120.95,1347.85 L 4110.57,1347.84 L 3991.43,1140.88 L 3994.03,1136.39 L 4001.81,1140.9 L 4120.95,1347.85 Z " />
<text x="0" y="0" stroke="none" fill="#8000ff" transform="matrix(0.0833333 0 0 0.0833333 182.992 138.291)" font-style="normal" font-weight="normal" font-size="140px" font-family="Arial" >
O</text>
<path stroke="none" fill="#8000ff" transform="matrix(0.0833333 0 0 0.0833333 -145.258 3.83333)" d="M 4033.13,1499.52 L 4025.35,1495.02 L 4110.57,1347.84 L 4120.95,1347.85 L 4033.13,1499.52 Z " />
<path stroke="none" fill="#8000ff" transform="matrix(0.0833333 0 0 0.0833333 -145.258 3.83333)" d="M 4120.42,1770.44 L 4110.05,1770.43 L 4030.52,1632.29 L 4038.31,1627.81 L 4120.42,1770.44 Z " />
<path stroke="none" fill="#8000ff" transform="matrix(0.0833333 0 0 0.0833333 -145.258 3.83333)" d="M 3998.16,1981.59 L 3992.98,1981.58 L 3990.39,1977.09 L 4110.05,1770.43 L 4120.42,1770.44 L 3998.16,1981.59 Z " />
<text x="0" y="0" stroke="none" fill="#8000ff" transform="matrix(0.0833333 0 0 0.0833333 193.092 191.128)" font-style="normal" font-weight="normal" font-size="140px" font-family="Arial" >
O</text>
<path stroke="none" fill="#8000ff" transform="matrix(0.0833333 0 0 0.0833333 -145.258 3.83333)" d="M 4083.02,2128.99 L 4075.23,2133.47 L 3990.38,1986.07 L 3992.98,1981.58 L 3998.16,1981.59 L 4083.02,2128.99 Z " />
<path stroke="none" fill="#8000ff" transform="matrix(0.0833333 0 0 0.0833333 -145.258 3.83333)" d="M 3997.63,2404.18 L 3987.26,2404.17 L 4069.92,2261.42 L 4077.69,2265.92 L 3997.63,2404.18 Z " />
<path stroke="none" fill="#8000ff" transform="matrix(0.0833333 0 0 0.0833333 -145.258 3.83333)" d="M 4116.77,2611.14 L 4114.18,2615.62 L 4108.99,2615.62 L 3987.26,2404.17 L 3997.63,2404.18 L 4116.77,2611.14 Z " />
<text x="0" y="0" stroke="none" fill="#8000ff" transform="matrix(0.0833333 0 0 0.0833333 182.86 243.939)" font-style="normal" font-weight="normal" font-size="140px" font-family="Arial" >
O</text>
<path stroke="none" fill="#8000ff" transform="matrix(0.0833333 0 0 0.0833333 -145.258 3.83333)" d="M 4031.54,2767.3 L 4023.77,2762.8 L 4108.99,2615.62 L 4114.18,2615.62 L 4116.76,2620.12 L 4031.54,2767.3 Z " />
<path stroke="none" fill="#8000ff" transform="matrix(0.0833333 0 0 0.0833333 -145.258 3.83333)" d="M 4118.83,3038.22 L 4108.46,3038.21 L 4028.94,2900.08 L 4036.72,2895.59 L 4118.83,3038.22 Z " />
<path stroke="none" fill="#8000ff" transform="matrix(0.0833333 0 0 0.0833333 -145.258 3.83333)" d="M 3996.58,3249.37 L 3991.39,3249.36 L 3988.8,3244.87 L 4108.46,3038.21 L 4118.83,3038.22 L 3996.58,3249.37 Z " />
<text x="0" y="0" stroke="none" fill="#8000ff" transform="matrix(0.0833333 0 0 0.0833333 192.96 296.776)" font-style="normal" font-weight="normal" font-size="140px" font-family="Arial" >
O</text>
<path stroke="none" fill="#8000ff" transform="matrix(0.0833333 0 0 0.0833333 -145.258 3.83333)" d="M 4081.43,3396.77 L 4073.65,3401.25 L 3988.79,3253.85 L 3991.39,3249.36 L 3996.58,3249.37 L 4081.43,3396.77 Z " />
<path stroke="none" fill="#8000ff" transform="matrix(0.0833333 0 0 0.0833333 -145.258 3.83333)" d="M 3996.05,3671.96 L 3985.68,3671.95 L 4068.33,3529.2 L 4076.11,3533.7 L 3996.05,3671.96 Z " />
<path stroke="none" fill="#8000ff" transform="matrix(0.0833333 0 0 0.0833333 -145.258 3.83333)" d="M 4240.62,1132.21 L 4235.42,1141.19 L 4001.81,1140.9 L 3994.03,1136.39 L 4001.82,1131.91 L 4240.62,1132.21 Z " />
<text x="0" y="0" stroke="none" fill="#8000ff" transform="matrix(0.0833333 0 0 0.0833333 213.512 120.721)" font-style="normal" font-weight="normal" font-size="140px" font-family="Arial" >
O</text>
<path stroke="none" fill="#8000ff" transform="matrix(0.0833333 0 0 0.0833333 -145.258 3.83333)" d="M 4328.06,1284.11 L 4320.27,1288.59 L 4235.42,1141.19 L 4240.62,1132.21 L 4328.06,1284.11 Z " />
<path stroke="none" fill="#8000ff" transform="matrix(0.0833333 0 0 0.0833333 -145.258 3.83333)" d="M 4606.33,1343.97 L 4601.13,1352.94 L 4432.24,1352.73 L 4432.25,1343.75 L 4606.33,1343.97 Z " />
<path stroke="none" fill="#8000ff" transform="matrix(0.0833333 0 0 0.0833333 -145.258 3.83333)" d="M 4728.06,1555.41 L 4725.46,1559.9 L 4720.27,1559.9 L 4601.13,1352.94 L 4606.33,1343.97 L 4728.06,1555.41 Z " />
<text x="0" y="0" stroke="none" fill="#8000ff" transform="matrix(0.0833333 0 0 0.0833333 264.32 138.392)" font-style="normal" font-weight="normal" font-size="140px" font-family="Arial" >
O</text>
<path stroke="none" fill="#8000ff" transform="matrix(0.0833333 0 0 0.0833333 -145.258 3.83333)" d="M 4896.95,1555.63 L 4896.94,1564.61 L 4728.05,1564.4 L 4725.46,1559.9 L 4728.06,1555.41 L 4896.95,1555.63 Z " />
<path stroke="none" fill="#8000ff" transform="matrix(0.0833333 0 0 0.0833333 -145.258 3.83333)" d="M 5093.77,1767.17 L 5088.57,1776.15 L 5006.46,1633.52 L 5014.25,1629.03 L 5093.77,1767.17 Z " />
<path stroke="none" fill="#8000ff" transform="matrix(0.0833333 0 0 0.0833333 -145.258 3.83333)" d="M 5332.57,1767.47 L 5335.15,1771.96 L 5332.56,1776.45 L 5088.57,1776.15 L 5093.77,1767.17 L 5332.57,1767.47 Z " />
<text x="0" y="0" stroke="none" fill="#8000ff" transform="matrix(0.0833333 0 0 0.0833333 304.94 173.659)" font-style="normal" font-weight="normal" font-size="140px" font-family="Arial" >
O</text>
<path stroke="none" fill="#8000ff" transform="matrix(0.0833333 0 0 0.0833333 -145.258 3.83333)" d="M 5425.2,1919.37 L 5417.41,1923.85 L 5332.56,1776.45 L 5335.15,1771.96 L 5340.34,1771.97 L 5425.2,1919.37 Z " />
<path stroke="none" fill="#8000ff" transform="matrix(0.0833333 0 0 0.0833333 -145.258 3.83333)" d="M 5703.47,1979.23 L 5698.27,1988.21 L 5529.38,1988 L 5529.39,1979.01 L 5703.47,1979.23 Z " />
<path stroke="none" fill="#8000ff" transform="matrix(0.0833333 0 0 0.0833333 -145.258 3.83333)" d="M 4115.49,3879.43 L 4112.59,3883.4 L 4107.4,3883.4 L 3985.68,3671.95 L 3996.05,3671.96 L 4115.49,3879.43 Z " />
<text x="0" y="0" stroke="none" fill="#8000ff" transform="matrix(0.0833333 0 0 0.0833333 196.314 364.714)" font-style="normal" font-weight="normal" font-size="140px" font-family="Arial" >
O</text>
<text x="0" y="0" stroke="none" fill="#8000ff" transform="matrix(0.0833333 0 0 0.0833333 212.798 336.244)" font-style="normal" font-weight="normal" font-size="140px" font-family="Arial" >
O</text>
<path stroke="none" fill="#8000ff" transform="matrix(0.0833333 0 0 0.0833333 -145.258 3.83333)" d="M 3995.86,4093.98 L 3984.81,4095.12 L 4107.4,3883.4 L 4112.59,3883.4 L 4114.84,3888.48 L 3995.86,4093.98 Z " />
<path stroke="none" fill="#8000ff" transform="matrix(0.0833333 0 0 0.0833333 -145.258 3.83333)" d="M 4108.97,4219.92 L 4102.29,4225.92 L 3984.81,4095.12 L 3995.86,4093.98 L 4108.97,4219.92 Z " />
<path stroke="none" fill="#8000ff" transform="matrix(0.0833333 0 0 0.0833333 -145.258 3.83333)" d="M 4371.57,4174.33 L 4381.18,4179.89 L 4220.9,4251.01 L 4217.26,4242.8 L 4371.57,4174.33 Z " />
<path stroke="none" fill="#8000ff" transform="matrix(0.0833333 0 0 0.0833333 -145.258 3.83333)" d="M 4355.01,4014.83 L 4363.95,4013.91 L 4381.18,4179.89 L 4371.57,4174.33 L 4355.01,4014.83 Z " />
<path stroke="none" fill="#8000ff" transform="matrix(0.0833333 0 0 0.0833333 -145.258 3.83333)" d="M 4114.84,3888.48 L 4112.59,3883.4 L 4115.49,3879.43 L 4282.05,3915.05 L 4280.17,3923.84 L 4114.84,3888.48 Z " />
<path stroke="none" fill="#8000ff" transform="matrix(0.0833333 0 0 0.0833333 -145.258 3.83333)" d="M 3748.99,1985.77 L 3749,1976.78 L 3990.39,1977.09 L 3992.98,1981.58 L 3990.38,1986.07 L 3748.99,1985.77 Z " />
<path stroke="none" fill="#8000ff" transform="matrix(0.0833333 0 0 0.0833333 -145.258 3.83333)" d="M 4358.17,2611.44 L 4358.15,2620.42 L 4116.76,2620.12 L 4114.18,2615.62 L 4116.77,2611.14 L 4358.17,2611.44 Z " />
<path stroke="none" fill="#8000ff" transform="matrix(0.0833333 0 0 0.0833333 -145.258 3.83333)" d="M 3747.4,3253.55 L 3747.41,3244.56 L 3988.8,3244.87 L 3991.39,3249.36 L 3988.79,3253.85 L 3747.4,3253.55 Z " />
<text x="0" y="0" stroke="none" fill="#8000ff" transform="matrix(0.0833333 0 0 0.0833333 232.494 366.656)" font-style="normal" font-weight="normal" font-size="140px" font-family="Arial" >
O</text>
<path stroke="none" fill="#8000ff" transform="matrix(0.0833333 0 0 0.0833333 -145.258 3.83333)" d="M 4540.03,4238.49 L 4535.53,4246.26 L 4371.01,4151 L 4375.52,4143.23 L 4540.03,4238.49 Z " />
<path stroke="none" fill="#8000ff" transform="matrix(0.0833333 0 0 0.0833333 -145.258 3.83333)" d="M 4515.58,4280.71 L 4511.08,4288.49 L 4346.56,4193.23 L 4351.06,4185.45 L 4515.58,4280.71 Z " />
<path stroke="none" fill="#8000ff" transform="matrix(0.0833333 0 0 0.0833333 -145.258 3.83333)" d="M 4607.09,1773.3 L 4599.31,1768.8 L 4720.27,1559.9 L 4725.46,1559.9 L 4728.05,1564.4 L 4607.09,1773.3 Z " />
<path stroke="none" fill="#8000ff" transform="matrix(0.0833333 0 0 0.0833333 -145.258 3.83333)" d="M 5453.52,1558.57 L 5461.3,1563.07 L 5340.34,1771.97 L 5335.15,1771.96 L 5332.57,1767.47 L 5453.52,1558.57 Z " />
<path stroke="none" fill="#8000ff" transform="matrix(0.0833333 0 0 0.0833333 -145.258 3.83333)" d="M 5825.19,2190.68 L 5822.6,2195.17 L 5817.41,2195.16 L 5698.27,1988.21 L 5703.47,1979.23 L 5825.19,2190.68 Z " />
<text x="0" y="0" stroke="none" fill="#8000ff" transform="matrix(0.0833333 0 0 0.0833333 355.748 191.331)" font-style="normal" font-weight="normal" font-size="140px" font-family="Arial" >
O</text>
<path stroke="none" fill="#8000ff" transform="matrix(0.0833333 0 0 0.0833333 -145.258 3.83333)" d="M 5994.09,2190.89 L 5994.07,2199.87 L 5825.18,2199.66 L 5822.6,2195.17 L 5825.19,2190.68 L 5994.09,2190.89 Z " />
<path stroke="none" fill="#8000ff" transform="matrix(0.0833333 0 0 0.0833333 -145.258 3.83333)" d="M 6190.91,2402.43 L 6185.71,2411.41 L 6103.6,2268.78 L 6111.38,2264.3 L 6190.91,2402.43 Z " />
<path stroke="none" fill="#8000ff" transform="matrix(0.0833333 0 0 0.0833333 -145.258 3.83333)" d="M 6430.3,2402.73 L 6432.29,2407.23 L 6429.69,2411.71 L 6185.71,2411.41 L 6190.91,2402.43 L 6430.3,2402.73 Z " />
<path stroke="none" fill="#8000ff" transform="matrix(0.0833333 0 0 0.0833333 -145.258 3.83333)" d="M 5704.23,2408.56 L 5696.45,2404.06 L 5817.41,2195.16 L 5822.6,2195.17 L 5825.18,2199.66 L 5704.23,2408.56 Z " />
<text x="0" y="0" stroke="none" fill="#8000ff" transform="matrix(0.0833333 0 0 0.0833333 416.261 222.396)" font-style="normal" font-weight="normal" font-size="140px" font-family="Arial" >
O</text>
<text x="0" y="0" stroke="none" fill="#8000ff" transform="matrix(0.0833333 0 0 0.0833333 399.848 193.885)" font-style="normal" font-weight="normal" font-size="140px" font-family="Arial" >
O</text>
<path stroke="none" fill="#8000ff" transform="matrix(0.0833333 0 0 0.0833333 -145.258 3.83333)" d="M 6556.29,2613.61 L 6551.76,2623.75 L 6429.69,2411.71 L 6432.29,2407.23 L 6437.81,2407.81 L 6556.29,2613.61 Z " />
<path stroke="none" fill="#8000ff" transform="matrix(0.0833333 0 0 0.0833333 -145.258 3.83333)" d="M 6719.06,2579.22 L 6720.92,2588.01 L 6551.76,2623.75 L 6556.29,2613.61 L 6719.06,2579.22 Z " />
<path stroke="none" fill="#8000ff" transform="matrix(0.0833333 0 0 0.0833333 -145.258 3.83333)" d="M 6813.73,2328.4 L 6823.36,2322.86 L 6804.62,2499.04 L 6795.68,2498.09 L 6813.73,2328.4 Z " />
<path stroke="none" fill="#8000ff" transform="matrix(0.0833333 0 0 0.0833333 -145.258 3.83333)" d="M 6664.17,2261.59 L 6667.83,2253.38 L 6823.36,2322.86 L 6813.73,2328.4 L 6664.17,2261.59 Z " />
<path stroke="none" fill="#8000ff" transform="matrix(0.0833333 0 0 0.0833333 -145.258 3.83333)" d="M 6437.81,2407.81 L 6432.29,2407.23 L 6430.3,2402.73 L 6538.69,2282.65 L 6545.36,2288.67 L 6437.81,2407.81 Z " />
<text x="0" y="0" stroke="none" fill="#8000ff" transform="matrix(0.0833333 0 0 0.0833333 436.033 192.034)" font-style="normal" font-weight="normal" font-size="140px" font-family="Arial" >
O</text>
<path stroke="none" fill="#8000ff" transform="matrix(0.0833333 0 0 0.0833333 -145.258 3.83333)" d="M 6948.39,2217.54 L 6952.87,2225.33 L 6793.25,2317.22 L 6788.77,2309.44 L 6948.39,2217.54 Z " />
<path stroke="none" fill="#8000ff" transform="matrix(0.0833333 0 0 0.0833333 -145.258 3.83333)" d="M 6972.74,2259.83 L 6977.22,2267.62 L 6817.59,2359.51 L 6813.11,2351.73 L 6972.74,2259.83 Z " />
<path stroke="none" fill="#8000ff" transform="matrix(0.0833333 0 0 0.0833333 -145.258 3.83333)" d="M 3752.64,1140.58 L 3747.46,1131.59 L 3991.44,1131.9 L 3994.03,1136.39 L 3991.43,1140.88 L 3752.64,1140.58 Z " />
<text x="0" y="0" stroke="none" fill="#8000ff" transform="matrix(0.0833333 0 0 0.0833333 152.516 120.644)" font-style="normal" font-weight="normal" font-size="140px" font-family="Arial" >
O</text>
<path stroke="none" fill="#8000ff" transform="matrix(0.0833333 0 0 0.0833333 -145.258 3.83333)" d="M 3667.41,1287.77 L 3659.64,1283.27 L 3747.46,1131.59 L 3752.64,1140.58 L 3667.41,1287.77 Z " />
<path stroke="none" fill="#8000ff" transform="matrix(0.0833333 0 0 0.0833333 -145.258 3.83333)" d="M 3386.4,1351.42 L 3381.22,1342.43 L 3555.3,1342.65 L 3555.29,1351.64 L 3386.4,1351.42 Z " />
<path stroke="none" fill="#8000ff" transform="matrix(0.0833333 0 0 0.0833333 -145.258 3.83333)" d="M 3266.74,1558.08 L 3261.55,1558.07 L 3258.96,1553.58 L 3381.22,1342.43 L 3386.4,1351.42 L 3266.74,1558.08 Z " />
<text x="0" y="0" stroke="none" fill="#8000ff" transform="matrix(0.0833333 0 0 0.0833333 101.664 138.189)" font-style="normal" font-weight="normal" font-size="140px" font-family="Arial" >
O</text>
<path stroke="none" fill="#8000ff" transform="matrix(0.0833333 0 0 0.0833333 -145.258 3.83333)" d="M 3090.06,1562.35 L 3090.07,1553.37 L 3258.96,1553.58 L 3261.55,1558.07 L 3258.95,1562.56 L 3090.06,1562.35 Z " />
<path stroke="none" fill="#8000ff" transform="matrix(0.0833333 0 0 0.0833333 -145.258 3.83333)" d="M 2897.9,1773.41 L 2892.72,1764.42 L 2972.78,1626.15 L 2980.55,1630.66 L 2897.9,1773.41 Z " />
<path stroke="none" fill="#8000ff" transform="matrix(0.0833333 0 0 0.0833333 -145.258 3.83333)" d="M 2653.91,1773.1 L 2651.33,1768.61 L 2653.92,1764.12 L 2892.72,1764.42 L 2897.9,1773.41 L 2653.91,1773.1 Z " />
<text x="0" y="0" stroke="none" fill="#8000ff" transform="matrix(0.0833333 0 0 0.0833333 60.9558 173.354)" font-style="normal" font-weight="normal" font-size="140px" font-family="Arial" >
O</text>
<path stroke="none" fill="#8000ff" transform="matrix(0.0833333 0 0 0.0833333 -145.258 3.83333)" d="M 2568.69,1920.29 L 2560.92,1915.78 L 2646.14,1768.6 L 2651.33,1768.61 L 2653.91,1773.1 L 2568.69,1920.29 Z " />
<path stroke="none" fill="#8000ff" transform="matrix(0.0833333 0 0 0.0833333 -145.258 3.83333)" d="M 2287.67,1983.94 L 2282.5,1974.95 L 2456.57,1975.17 L 2456.56,1984.15 L 2287.67,1983.94 Z " />
<path stroke="none" fill="#8000ff" transform="matrix(0.0833333 0 0 0.0833333 -145.258 3.83333)" d="M 2167.72,2191.11 L 2162.83,2190.59 L 2160.24,2186.09 L 2282.5,1974.95 L 2287.67,1983.94 L 2167.72,2191.11 Z " />
<path stroke="none" fill="#8000ff" transform="matrix(0.0833333 0 0 0.0833333 -145.258 3.83333)" d="M 3387.17,1767.28 L 3379.39,1771.76 L 3258.95,1562.56 L 3261.55,1558.07 L 3266.74,1558.08 L 3387.17,1767.28 Z " />
<path stroke="none" fill="#8000ff" transform="matrix(0.0833333 0 0 0.0833333 -145.258 3.83333)" d="M 2525.7,1559.4 L 2533.49,1554.92 L 2653.92,1764.12 L 2651.33,1768.61 L 2646.14,1768.6 L 2525.7,1559.4 Z " />
<text x="0" y="0" stroke="none" fill="#8000ff" transform="matrix(0.0833333 0 0 0.0833333 3.7965 210.228)" font-style="normal" font-weight="normal" font-size="140px" font-family="Arial" >
O</text>
<text x="0" y="0" stroke="none" fill="#8000ff" transform="matrix(0.0833333 0 0 0.0833333 36.6945 210.269)" font-style="normal" font-weight="normal" font-size="140px" font-family="Arial" >
O</text>
<path stroke="none" fill="#8000ff" transform="matrix(0.0833333 0 0 0.0833333 -145.258 3.83333)" d="M 1922.1,2194.78 L 1915.59,2185.79 L 2160.24,2186.09 L 2162.83,2190.59 L 2159.56,2195.08 L 1922.1,2194.78 Z " />
<path stroke="none" fill="#8000ff" transform="matrix(0.0833333 0 0 0.0833333 -145.258 3.83333)" d="M 1869.45,2356.13 L 1860.91,2353.34 L 1915.59,2185.79 L 1922.1,2194.78 L 1869.45,2356.13 Z " />
<path stroke="none" fill="#8000ff" transform="matrix(0.0833333 0 0 0.0833333 -145.258 3.83333)" d="M 2040.37,2560.34 L 2040.36,2571.44 L 1904.45,2472.44 L 1909.74,2465.18 L 2040.37,2560.34 Z " />
<path stroke="none" fill="#8000ff" transform="matrix(0.0833333 0 0 0.0833333 -145.258 3.83333)" d="M 2171.62,2465.23 L 2176.89,2472.51 L 2040.36,2571.44 L 2040.37,2560.34 L 2171.62,2465.23 Z " />
<path stroke="none" fill="#8000ff" transform="matrix(0.0833333 0 0 0.0833333 -145.258 3.83333)" d="M 2159.56,2195.08 L 2162.83,2190.59 L 2167.72,2191.11 L 2220.35,2353.79 L 2211.8,2356.56 L 2159.56,2195.08 Z " />
<text x="0" y="0" stroke="none" fill="#8000ff" transform="matrix(0.0833333 0 0 0.0833333 20.2051 242.531)" font-style="normal" font-weight="normal" font-size="140px" font-family="Arial" >
O</text>
<path stroke="none" fill="#8000ff" transform="matrix(0.0833333 0 0 0.0833333 -145.258 3.83333)" d="M 2069.04,2739.58 L 2060.06,2739.57 L 2060.3,2548.19 L 2069.28,2548.2 L 2069.04,2739.58 Z " />
<path stroke="none" fill="#8000ff" transform="matrix(0.0833333 0 0 0.0833333 -145.258 3.83333)" d="M 2020.24,2739.52 L 2011.26,2739.51 L 2011.5,2548.13 L 2020.48,2548.14 L 2020.24,2739.52 Z " />
<path stroke="none" fill="#0017e6" transform="matrix(0.0833333 0 0 0.0833333 -145.258 3.83333)" d="M 7654.51,2915.87 L 7649.32,2924.86 L 7413.79,2924.86 L 7407.93,2920.37 L 7413.79,2915.87 L 7654.51,2915.87 Z " />
<text x="0" y="0" stroke="none" fill="#0017e6" transform="matrix(0.0833333 0 0 0.0833333 498.026 269.347)" font-style="normal" font-weight="normal" font-size="140px" font-family="Arial" >
O</text>
<path stroke="none" fill="#0017e6" transform="matrix(0.0833333 0 0 0.0833333 -145.258 3.83333)" d="M 7742.14,3067.66 L 7734.36,3072.15 L 7649.32,2924.86 L 7654.51,2915.87 L 7742.14,3067.66 Z " />
<path stroke="none" fill="#0017e6" transform="matrix(0.0833333 0 0 0.0833333 -145.258 3.83333)" d="M 7166.54,2924.86 L 7161.35,2915.87 L 7404.48,2915.87 L 7407.93,2920.37 L 7404.48,2924.86 L 7166.54,2924.86 Z " />
<text x="0" y="0" stroke="none" fill="#0017e6" transform="matrix(0.0833333 0 0 0.0833333 437.03 269.347)" font-style="normal" font-weight="normal" font-size="140px" font-family="Arial" >
O</text>
<path stroke="none" fill="#0017e6" transform="matrix(0.0833333 0 0 0.0833333 -145.258 3.83333)" d="M 7081.5,3072.15 L 7073.72,3067.66 L 7161.35,2915.87 L 7166.54,2924.86 L 7081.5,3072.15 Z " />
<path stroke="none" fill="#0017e6" transform="matrix(0.0833333 0 0 0.0833333 -145.258 3.83333)" d="M 7476.09,3157.38 L 7466.07,3154.69 L 7404.48,2924.86 L 7407.93,2920.37 L 7413.79,2924.86 L 7476.09,3157.38 Z " />
<text x="0" y="0" stroke="none" fill="#0017e6" transform="matrix(0.0833333 0 0 0.0833333 458.413 285.755)" font-style="normal" font-weight="normal" font-size="140px" font-family="Arial" >
O</text>
<path stroke="none" fill="#0017e6" transform="matrix(0.0833333 0 0 0.0833333 -145.258 3.83333)" d="M 7352.33,3281.14 L 7345.97,3274.79 L 7466.07,3154.69 L 7476.09,3157.38 L 7352.33,3281.14 Z " />
<path stroke="none" fill="#0017e6" transform="matrix(0.0833333 0 0 0.0833333 -145.258 3.83333)" d="M 8020.49,3127.17 L 8015.3,3136.15 L 7846.41,3136.15 L 7846.41,3127.17 L 8020.49,3127.17 Z " />
<path stroke="none" fill="#0017e6" transform="matrix(0.0833333 0 0 0.0833333 -145.258 3.83333)" d="M 8142.4,3338.33 L 8139.88,3342.96 L 8135.06,3343.59 L 8015.3,3136.15 L 8020.49,3127.17 L 8142.4,3338.33 Z " />
<path stroke="none" fill="#0017e6" transform="matrix(0.0833333 0 0 0.0833333 -145.258 3.83333)" d="M 7425.74,3539.86 L 7415.36,3539.86 L 7335.66,3401.82 L 7343.44,3397.32 L 7425.74,3539.86 Z " />
<path stroke="none" fill="#0017e6" transform="matrix(0.0833333 0 0 0.0833333 -145.258 3.83333)" d="M 7304.27,3750.25 L 7298.56,3751.15 L 7295.27,3747.86 L 7415.36,3539.86 L 7425.74,3539.86 L 7304.27,3750.25 Z " />
<path stroke="none" fill="#0017e6" transform="matrix(0.0833333 0 0 0.0833333 -145.258 3.83333)" d="M 6809.95,3198.48 L 6802.62,3191.14 L 6968.53,3146.69 L 6970.85,3155.37 L 6809.95,3198.48 Z " />
<path stroke="none" fill="#0017e6" transform="matrix(0.0833333 0 0 0.0833333 -145.258 3.83333)" d="M 6747.99,3429.71 L 6743.14,3430.48 L 6739.47,3426.81 L 6802.62,3191.14 L 6809.95,3198.48 L 6747.99,3429.71 Z " />
<path stroke="none" fill="#0017e6" transform="matrix(0.0833333 0 0 0.0833333 -145.258 3.83333)" d="M 7466.07,2686.04 L 7476.09,2683.35 L 7413.79,2915.87 L 7407.93,2920.37 L 7404.48,2915.87 L 7466.07,2686.04 Z " />
<path stroke="none" fill="#0017e6" transform="matrix(0.0833333 0 0 0.0833333 -145.258 3.83333)" d="M 7295.38,2515.35 L 7301.73,2509 L 7476.09,2683.35 L 7466.07,2686.04 L 7295.38,2515.35 Z " />
<text x="0" y="0" stroke="none" fill="#0017e6" transform="matrix(0.0833333 0 0 0.0833333 540.313 317.668)" font-style="normal" font-weight="normal" font-size="140px" font-family="Arial" >
O</text>
<text x="0" y="0" stroke="none" fill="#0017e6" transform="matrix(0.0833333 0 0 0.0833333 548.828 285.891)" font-style="normal" font-weight="normal" font-size="140px" font-family="Arial" >
O</text>
<path stroke="none" fill="#0017e6" transform="matrix(0.0833333 0 0 0.0833333 -145.258 3.83333)" d="M 8081.92,3576.64 L 8071.55,3580.62 L 8135.06,3343.59 L 8139.88,3342.96 L 8143.38,3347.27 L 8081.92,3576.64 Z " />
<path stroke="none" fill="#0017e6" transform="matrix(0.0833333 0 0 0.0833333 -145.258 3.83333)" d="M 8223.91,3668.85 L 8219.01,3676.38 L 8071.55,3580.62 L 8081.92,3576.64 L 8223.91,3668.85 Z " />
<path stroke="none" fill="#0017e6" transform="matrix(0.0833333 0 0 0.0833333 -145.258 3.83333)" d="M 8465.61,3556.53 L 8476.33,3559.41 L 8340.01,3669.8 L 8334.35,3662.82 L 8465.61,3556.53 Z " />
<path stroke="none" fill="#0017e6" transform="matrix(0.0833333 0 0 0.0833333 -145.258 3.83333)" d="M 8408.89,3408.77 L 8417.28,3405.55 L 8476.33,3559.41 L 8465.61,3556.53 L 8408.89,3408.77 Z " />
<path stroke="none" fill="#0017e6" transform="matrix(0.0833333 0 0 0.0833333 -145.258 3.83333)" d="M 8143.38,3347.27 L 8139.88,3342.96 L 8142.4,3338.33 L 8310.96,3329.5 L 8311.43,3338.47 L 8143.38,3347.27 Z " />
<text x="0" y="0" stroke="none" fill="#0017e6" transform="matrix(0.0833333 0 0 0.0833333 392.489 299.511)" font-style="normal" font-weight="normal" font-size="140px" font-family="Arial" >
O</text>
<text x="0" y="0" stroke="none" fill="#0017e6" transform="matrix(0.0833333 0 0 0.0833333 410.406 327.101)" font-style="normal" font-weight="normal" font-size="140px" font-family="Arial" >
O</text>
<path stroke="none" fill="#0017e6" transform="matrix(0.0833333 0 0 0.0833333 -145.258 3.83333)" d="M 6578.25,3479.31 L 6575.92,3470.64 L 6739.47,3426.81 L 6743.14,3430.48 L 6741.15,3435.67 L 6578.25,3479.31 Z " />
<path stroke="none" fill="#0017e6" transform="matrix(0.0833333 0 0 0.0833333 -145.258 3.83333)" d="M 6499.35,3734.25 L 6490.04,3740.3 L 6498.76,3573.87 L 6507.73,3574.34 L 6499.35,3734.25 Z " />
<path stroke="none" fill="#0017e6" transform="matrix(0.0833333 0 0 0.0833333 -145.258 3.83333)" d="M 6657.24,3794.86 L 6654.02,3803.25 L 6490.04,3740.3 L 6499.35,3734.25 L 6657.24,3794.86 Z " />
<path stroke="none" fill="#0017e6" transform="matrix(0.0833333 0 0 0.0833333 -145.258 3.83333)" d="M 6870.48,3634.81 L 6881.57,3635.39 L 6771.06,3771.86 L 6764.08,3766.2 L 6870.48,3634.81 Z " />
<path stroke="none" fill="#0017e6" transform="matrix(0.0833333 0 0 0.0833333 -145.258 3.83333)" d="M 6741.15,3435.67 L 6743.14,3430.48 L 6747.99,3429.71 L 6881.57,3635.39 L 6870.48,3634.81 L 6741.15,3435.67 Z " />
<text x="0" y="0" stroke="none" fill="#0017e6" transform="matrix(0.0833333 0 0 0.0833333 445.032 351.025)" font-style="normal" font-weight="normal" font-size="140px" font-family="Arial" >
O</text>
<text x="0" y="0" stroke="none" fill="#0017e6" transform="matrix(0.0833333 0 0 0.0833333 473.523 334.576)" font-style="normal" font-weight="normal" font-size="140px" font-family="Arial" >
O</text>
<path stroke="none" fill="#0017e6" transform="matrix(0.0833333 0 0 0.0833333 -145.258 3.83333)" d="M 7092.33,3875.4 L 7082.19,3870.89 L 7295.27,3747.86 L 7298.56,3751.15 L 7297.98,3756.68 L 7092.33,3875.4 Z " />
<path stroke="none" fill="#0017e6" transform="matrix(0.0833333 0 0 0.0833333 -145.258 3.83333)" d="M 7127.67,4041.65 L 7118.88,4043.52 L 7082.19,3870.89 L 7092.33,3875.4 L 7127.67,4041.65 Z " />
<path stroke="none" fill="#0017e6" transform="matrix(0.0833333 0 0 0.0833333 -145.258 3.83333)" d="M 7377.86,4132.49 L 7383.41,4142.11 L 7209.36,4123.82 L 7210.3,4114.88 L 7377.86,4132.49 Z " />
<path stroke="none" fill="#0017e6" transform="matrix(0.0833333 0 0 0.0833333 -145.258 3.83333)" d="M 7442.39,3987.55 L 7450.6,3991.2 L 7383.41,4142.11 L 7377.86,4132.49 L 7442.39,3987.55 Z " />
<path stroke="none" fill="#0017e6" transform="matrix(0.0833333 0 0 0.0833333 -145.258 3.83333)" d="M 7297.98,3756.68 L 7298.56,3751.15 L 7304.27,3750.25 L 7429.67,3863.16 L 7423.65,3869.84 L 7297.98,3756.68 Z " />
<text x="0" y="0" stroke="none" fill="#0017e6" transform="matrix(0.0833333 0 0 0.0833333 373.817 329.981)" font-style="normal" font-weight="normal" font-size="140px" font-family="Arial" >
O</text>
<path stroke="none" fill="#0017e6" transform="matrix(0.0833333 0 0 0.0833333 -145.258 3.83333)" d="M 6360.09,3848.35 L 6355.6,3840.57 L 6521.76,3744.64 L 6526.25,3752.42 L 6360.09,3848.35 Z " />
<path stroke="none" fill="#0017e6" transform="matrix(0.0833333 0 0 0.0833333 -145.258 3.83333)" d="M 6335.69,3806.09 L 6331.2,3798.31 L 6493.97,3704.34 L 6498.47,3712.12 L 6335.69,3806.09 Z " />
<text x="0" y="0" stroke="none" fill="#0017e6" transform="matrix(0.0833333 0 0 0.0833333 475.419 370.758)" font-style="normal" font-weight="normal" font-size="140px" font-family="Arial" >
O</text>
<path stroke="none" fill="#0017e6" transform="matrix(0.0833333 0 0 0.0833333 -145.258 3.83333)" d="M 7491.99,4272.39 L 7484.21,4276.89 L 7389.01,4112 L 7396.79,4107.5 L 7491.99,4272.39 Z " />
<path stroke="none" fill="#0017e6" transform="matrix(0.0833333 0 0 0.0833333 -145.258 3.83333)" d="M 7449.73,4296.79 L 7441.95,4301.28 L 7346.75,4136.4 L 7354.53,4131.9 L 7449.73,4296.79 Z " />
<text x="0" y="0" stroke="none" fill="#0017e6" transform="matrix(0.0833333 0 0 0.0833333 575.753 310.135)" font-style="normal" font-weight="normal" font-size="140px" font-family="Arial" >
O</text>
<path stroke="none" fill="#0017e6" transform="matrix(0.0833333 0 0 0.0833333 -145.258 3.83333)" d="M 8644.94,3574.67 L 8642.61,3583.35 L 8459,3534.15 L 8461.33,3525.47 L 8644.94,3574.67 Z " />
<path stroke="none" fill="#0017e6" transform="matrix(0.0833333 0 0 0.0833333 -145.258 3.83333)" d="M 8632.31,3621.81 L 8629.98,3630.49 L 8446.37,3581.29 L 8448.7,3572.61 L 8632.31,3621.81 Z " />
<text x="0" y="0" stroke="none" fill="#006d7d" transform="matrix(0.0833333 0 0 0.0833333 104.39 81.2745)" font-style="normal" font-weight="bold" font-size="140px" font-family="Arial" >
L-CC</text>
<text x="0" y="0" stroke="none" fill="#8000ff" transform="matrix(0.0833333 0 0 0.0833333 195.027 394.25)" font-style="normal" font-weight="bold" font-size="140px" font-family="Arial" >
LB-CC</text>
<text x="0" y="0" stroke="none" fill="#c60000" transform="matrix(0.0833333 0 0 0.0833333 411.155 90.9898)" font-style="normal" font-weight="bold" font-size="140px" font-family="Arial" >
A-CC</text>
<text x="0" y="0" stroke="none" fill="#0017e6" transform="matrix(0.0833333 0 0 0.0833333 464.73 394.25)" font-style="normal" font-weight="bold" font-size="140px" font-family="Arial" >
B-CC</text>
</svg>
