<?xml version="1.0" standalone="no" ?>
<!DOCTYPE svg PUBLIC "-//W3C//DTD SVG 1.1//EN" "http://www.w3.org/Graphics/SVG/1.1/DTD/svg11.dtd">
<svg width="948px" height="357px" viewBox="0 0 948 357" style="background-color: #ffffff00" xmlns="http://www.w3.org/2000/svg" xmlns:xlink="http://www.w3.org/1999/xlink" version="1.1" >
<path stroke="#000000" stroke-width="9" fill="none" transform="matrix(0.0833333 0 0 0.0833333 -34.6 -93)" d="M 4294.85,1609.92 C 4294.85,1609.92 4294.85,1414.82 4294.85,1414.82 C 4294.85,1414.82 3684.22,1414.82 3684.22,1414.82 C 3684.22,1414.82 3684.22,1609.92 3684.22,1609.92 C 3684.22,1609.92 4294.85,1609.92 4294.85,1609.92 " />
<text x="0" y="0" stroke="none" fill="#000000" transform="matrix(0.0833333 0 0 0.0833333 386.756 122.719)" font-style="normal" font-weight="normal" font-size="140px" font-family="Arial" >
NH</text>
<text x="0" y="0" stroke="none" fill="#000000" transform="matrix(0.0833333 0 0 0.0833333 403.606 125.303)" font-style="normal" font-weight="normal" font-size="105px" font-family="Arial" >
2</text>
<text x="0" y="0" stroke="none" fill="#000000" transform="matrix(0.0833333 0 0 0.0833333 408.473 122.719)" font-style="normal" font-weight="normal" font-size="140px" font-family="Arial" >
(CH</text>
<text x="0" y="0" stroke="none" fill="#000000" transform="matrix(0.0833333 0 0 0.0833333 429.25 125.303)" font-style="normal" font-weight="normal" font-size="105px" font-family="Arial" >
2</text>
<text x="0" y="0" stroke="none" fill="#000000" transform="matrix(0.0833333 0 0 0.0833333 434.117 122.719)" font-style="normal" font-weight="normal" font-size="140px" font-family="Arial" >
)</text>
<text x="0" y="0" stroke="none" fill="#000000" transform="matrix(0.0833333 0 0 0.0833333 438.006 125.303)" font-style="normal" font-weight="normal" font-size="105px" font-family="Arial" >
3</text>
<text x="0" y="0" stroke="none" fill="#000000" transform="matrix(0.0833333 0 0 0.0833333 442.872 122.719)" font-style="normal" font-weight="normal" font-size="140px" font-family="Arial" >
SiMe</text>
<text x="0" y="0" stroke="none" fill="#000000" transform="matrix(0.0833333 0 0 0.0833333 469.452 125.303)" font-style="normal" font-weight="normal" font-size="105px" font-family="Arial" >
x</text>
<text x="0" y="0" stroke="none" fill="#000000" transform="matrix(0.0833333 0 0 0.0833333 473.827 122.719)" font-style="normal" font-weight="normal" font-size="140px" font-family="Arial" >
(OEt)</text>
<text x="0" y="0" stroke="none" fill="#000000" transform="matrix(0.0833333 0 0 0.0833333 501.776 125.303)" font-style="normal" font-weight="normal" font-size="105px" font-family="Arial" >
3-x</text>
<text x="0" y="0" stroke="none" fill="#000000" transform="matrix(0.0833333 0 0 0.0833333 483.069 143.04)" font-style="normal" font-weight="normal" font-size="140px" font-family="Arial" >
X=0;1</text>
<text x="0" y="0" stroke="none" fill="#000000" transform="matrix(0.0833333 0 0 0.0833333 350.349 20.5494)" font-style="normal" font-weight="normal" font-size="140px" font-family="Arial" >
O</text>
<text x="0" y="0" stroke="none" fill="#000000" transform="matrix(0.0833333 0 0 0.0833333 369.989 46.1159)" font-style="normal" font-weight="normal" font-size="140px" font-family="Arial" >
O</text>
<path stroke="none" fill="#000000" transform="matrix(0.0833333 0 0 0.0833333 -34.6 -93)" d="M 4745.43,1331.91 L 4747.76,1323.23 L 4914.06,1367.79 L 4905.07,1374.69 L 4745.43,1331.91 Z " />
<path stroke="none" fill="#000000" transform="matrix(0.0833333 0 0 0.0833333 -34.6 -93)" d="M 4546.55,1512.42 L 4541.01,1512.72 L 4538.57,1508.22 L 4625.8,1373.9 L 4633.34,1378.79 L 4546.55,1512.42 Z " />
<path stroke="none" fill="#000000" transform="matrix(0.0833333 0 0 0.0833333 -34.6 -93)" d="M 4695.95,1696.91 L 4693.16,1707.74 L 4538.87,1517.21 L 4541.01,1512.72 L 4546.55,1512.42 L 4695.95,1696.91 Z " />
<path stroke="none" fill="#000000" transform="matrix(0.0833333 0 0 0.0833333 -34.6 -93)" d="M 4837.38,1639.39 L 4840.77,1647.72 L 4693.16,1707.74 L 4695.95,1696.91 L 4837.38,1639.39 Z " />
<path stroke="none" fill="#000000" transform="matrix(0.0833333 0 0 0.0833333 -34.6 -93)" d="M 4905.07,1374.69 L 4914.06,1367.79 L 4914.06,1544.56 L 4905.07,1544.56 L 4905.07,1374.69 Z " />
<text x="0" y="0" stroke="none" fill="#000000" transform="matrix(0.0833333 0 0 0.0833333 386.119 13.4344)" font-style="normal" font-weight="normal" font-size="140px" font-family="Arial" >
O</text>
<path stroke="none" fill="#000000" transform="matrix(0.0833333 0 0 0.0833333 -34.6 -93)" d="M 5022.95,1247.82 L 5028.42,1254.95 L 4882.59,1366.84 L 4877.12,1359.72 L 5022.95,1247.82 Z " />
<path stroke="none" fill="#000000" transform="matrix(0.0833333 0 0 0.0833333 -34.6 -93)" d="M 5052.65,1286.54 L 5058.12,1293.66 L 4912.3,1405.56 L 4906.83,1398.43 L 5052.65,1286.54 Z " />
<path stroke="none" fill="#000000" transform="matrix(0.0833333 0 0 0.0833333 -34.6 -93)" d="M 4297.03,1517.21 L 4297.03,1508.22 L 4538.57,1508.22 L 4541.01,1512.72 L 4538.87,1517.21 L 4297.03,1517.21 Z " />
<text x="0" y="0" stroke="none" fill="#000000" transform="matrix(0.0833333 0 0 0.0833333 234.52 20.5528)" font-style="normal" font-weight="normal" font-size="140px" font-family="Arial" >
O</text>
<text x="0" y="0" stroke="none" fill="#000000" transform="matrix(0.0833333 0 0 0.0833333 214.881 46.1193)" font-style="normal" font-weight="normal" font-size="140px" font-family="Arial" >
O</text>
<path stroke="none" fill="#000000" transform="matrix(0.0833333 0 0 0.0833333 -34.6 -93)" d="M 3052.76,1374.73 L 3043.78,1367.84 L 3210.51,1323.16 L 3212.83,1331.84 L 3052.76,1374.73 Z " />
<path stroke="none" fill="#000000" transform="matrix(0.0833333 0 0 0.0833333 -34.6 -93)" d="M 3052.76,1544.6 L 3043.78,1544.6 L 3043.78,1367.84 L 3052.76,1374.73 L 3052.76,1544.6 Z " />
<path stroke="none" fill="#000000" transform="matrix(0.0833333 0 0 0.0833333 -34.6 -93)" d="M 3282.48,1697.03 L 3285.4,1707.7 L 3118.28,1645.7 L 3121.41,1637.28 L 3282.48,1697.03 Z " />
<path stroke="none" fill="#000000" transform="matrix(0.0833333 0 0 0.0833333 -34.6 -93)" d="M 3431.79,1512.65 L 3437.48,1512.76 L 3439.63,1517.25 L 3285.4,1707.7 L 3282.48,1697.03 L 3431.79,1512.65 Z " />
<path stroke="none" fill="#000000" transform="matrix(0.0833333 0 0 0.0833333 -34.6 -93)" d="M 3329.22,1375.96 L 3336.41,1370.57 L 3439.73,1508.26 L 3437.48,1512.76 L 3431.79,1512.65 L 3329.22,1375.96 Z " />
<text x="0" y="0" stroke="none" fill="#000000" transform="matrix(0.0833333 0 0 0.0833333 198.75 13.4378)" font-style="normal" font-weight="normal" font-size="140px" font-family="Arial" >
O</text>
<path stroke="none" fill="#000000" transform="matrix(0.0833333 0 0 0.0833333 -34.6 -93)" d="M 2900.05,1293.96 L 2905.51,1286.83 L 3051,1398.47 L 3045.53,1405.6 L 2900.05,1293.96 Z " />
<path stroke="none" fill="#000000" transform="matrix(0.0833333 0 0 0.0833333 -34.6 -93)" d="M 2929.75,1255.25 L 2935.22,1248.12 L 3080.71,1359.76 L 3075.24,1366.89 L 2929.75,1255.25 Z " />
<path stroke="none" fill="#000000" transform="matrix(0.0833333 0 0 0.0833333 -34.6 -93)" d="M 3681.47,1508.26 L 3681.47,1517.25 L 3439.63,1517.25 L 3437.48,1512.76 L 3439.73,1508.26 L 3681.47,1508.26 Z " />
<path stroke="none" fill="#000000" transform="matrix(0.0833333 0 0 0.0833333 -34.6 -93)" d="M 4002.81,1855.61 L 3998.31,1858.36 L 3993.82,1856.5 L 3993.82,1614.38 L 4002.81,1614.38 L 4002.81,1855.61 Z " />
<text x="0" y="0" stroke="none" fill="#000000" transform="matrix(0.0833333 0 0 0.0833333 288.905 98.8978)" font-style="normal" font-weight="normal" font-size="140px" font-family="Arial" >
O</text>
<text x="0" y="0" stroke="none" fill="#000000" transform="matrix(0.0833333 0 0 0.0833333 312.167 75.6355)" font-style="normal" font-weight="normal" font-size="140px" font-family="Arial" >
O</text>
<path stroke="none" fill="#000000" transform="matrix(0.0833333 0 0 0.0833333 -34.6 -93)" d="M 3831.27,2031.75 L 3820.31,2030.01 L 3993.82,1856.5 L 3998.31,1858.36 L 3999.18,1863.84 L 3831.27,2031.75 Z " />
<path stroke="none" fill="#000000" transform="matrix(0.0833333 0 0 0.0833333 -34.6 -93)" d="M 3908.25,2182.82 L 3900.24,2186.9 L 3820.31,2030.01 L 3831.27,2031.75 L 3908.25,2182.82 Z " />
<path stroke="none" fill="#000000" transform="matrix(0.0833333 0 0 0.0833333 -34.6 -93)" d="M 4173.61,2206.18 L 4181.46,2214.03 L 4008.29,2241.46 L 4006.88,2232.59 L 4173.61,2206.18 Z " />
<path stroke="none" fill="#000000" transform="matrix(0.0833333 0 0 0.0833333 -34.6 -93)" d="M 4198.76,2047.42 L 4207.63,2048.83 L 4181.46,2214.03 L 4173.61,2206.18 L 4198.76,2047.42 Z " />
<path stroke="none" fill="#000000" transform="matrix(0.0833333 0 0 0.0833333 -34.6 -93)" d="M 3999.18,1863.84 L 3998.31,1858.36 L 4002.81,1855.61 L 4153.89,1932.59 L 4149.81,1940.59 L 3999.18,1863.84 Z " />
<text x="0" y="0" stroke="none" fill="#000000" transform="matrix(0.0833333 0 0 0.0833333 323.363 110.094)" font-style="normal" font-weight="normal" font-size="140px" font-family="Arial" >
O</text>
<path stroke="none" fill="#000000" transform="matrix(0.0833333 0 0 0.0833333 -34.6 -93)" d="M 4319.9,2311.61 L 4313.54,2317.96 L 4179.08,2183.5 L 4185.43,2177.14 L 4319.9,2311.61 Z " />
<path stroke="none" fill="#000000" transform="matrix(0.0833333 0 0 0.0833333 -34.6 -93)" d="M 4285.39,2346.11 L 4279.04,2352.46 L 4144.57,2218 L 4150.93,2211.65 L 4285.39,2346.11 Z " />
<path stroke="#000000" stroke-width="9" fill="none" transform="matrix(0.0833333 0 0 0.0833333 -34.6 -93)" d="M 8037.15,2332.42 C 8037.15,2332.42 8037.15,2137.32 8037.15,2137.32 C 8037.15,2137.32 7426.51,2137.32 7426.51,2137.32 C 7426.51,2137.32 7426.51,2332.42 7426.51,2332.42 C 7426.51,2332.42 8037.15,2332.42 8037.15,2332.42 " />
<text x="0" y="0" stroke="none" fill="#000000" transform="matrix(0.0833333 0 0 0.0833333 662.208 80.7577)" font-style="normal" font-weight="normal" font-size="140px" font-family="Arial" >
O</text>
<text x="0" y="0" stroke="none" fill="#000000" transform="matrix(0.0833333 0 0 0.0833333 681.847 106.324)" font-style="normal" font-weight="normal" font-size="140px" font-family="Arial" >
O</text>
<path stroke="none" fill="#000000" transform="matrix(0.0833333 0 0 0.0833333 -34.6 -93)" d="M 8487.73,2054.41 L 8490.05,2045.73 L 8656.35,2090.29 L 8647.37,2097.19 L 8487.73,2054.41 Z " />
<path stroke="none" fill="#000000" transform="matrix(0.0833333 0 0 0.0833333 -34.6 -93)" d="M 8288.85,2234.92 L 8283.31,2235.22 L 8280.87,2230.72 L 8368.1,2096.4 L 8375.63,2101.29 L 8288.85,2234.92 Z " />
<path stroke="none" fill="#000000" transform="matrix(0.0833333 0 0 0.0833333 -34.6 -93)" d="M 8438.25,2419.41 L 8435.46,2430.24 L 8281.16,2239.71 L 8283.31,2235.22 L 8288.85,2234.92 L 8438.25,2419.41 Z " />
<path stroke="none" fill="#000000" transform="matrix(0.0833333 0 0 0.0833333 -34.6 -93)" d="M 8579.68,2361.89 L 8583.07,2370.22 L 8435.46,2430.24 L 8438.25,2419.41 L 8579.68,2361.89 Z " />
<path stroke="none" fill="#000000" transform="matrix(0.0833333 0 0 0.0833333 -34.6 -93)" d="M 8647.37,2097.19 L 8656.35,2090.29 L 8656.35,2267.06 L 8647.37,2267.06 L 8647.37,2097.19 Z " />
<text x="0" y="0" stroke="none" fill="#000000" transform="matrix(0.0833333 0 0 0.0833333 697.977 73.6427)" font-style="normal" font-weight="normal" font-size="140px" font-family="Arial" >
O</text>
<path stroke="none" fill="#000000" transform="matrix(0.0833333 0 0 0.0833333 -34.6 -93)" d="M 8765.25,1970.32 L 8770.71,1977.45 L 8624.89,2089.34 L 8619.42,2082.22 L 8765.25,1970.32 Z " />
<path stroke="none" fill="#000000" transform="matrix(0.0833333 0 0 0.0833333 -34.6 -93)" d="M 8794.95,2009.04 L 8800.42,2016.16 L 8654.6,2128.06 L 8649.13,2120.93 L 8794.95,2009.04 Z " />
<path stroke="none" fill="#000000" transform="matrix(0.0833333 0 0 0.0833333 -34.6 -93)" d="M 8039.32,2239.71 L 8039.32,2230.72 L 8280.87,2230.72 L 8283.31,2235.22 L 8281.16,2239.71 L 8039.32,2239.71 Z " />
<text x="0" y="0" stroke="none" fill="#000000" transform="matrix(0.0833333 0 0 0.0833333 546.378 80.7612)" font-style="normal" font-weight="normal" font-size="140px" font-family="Arial" >
O</text>
<text x="0" y="0" stroke="none" fill="#000000" transform="matrix(0.0833333 0 0 0.0833333 526.739 106.328)" font-style="normal" font-weight="normal" font-size="140px" font-family="Arial" >
O</text>
<path stroke="none" fill="#000000" transform="matrix(0.0833333 0 0 0.0833333 -34.6 -93)" d="M 6795.06,2097.23 L 6786.07,2090.34 L 6952.81,2045.66 L 6955.13,2054.34 L 6795.06,2097.23 Z " />
<path stroke="none" fill="#000000" transform="matrix(0.0833333 0 0 0.0833333 -34.6 -93)" d="M 6795.06,2267.1 L 6786.07,2267.1 L 6786.07,2090.34 L 6795.06,2097.23 L 6795.06,2267.1 Z " />
<path stroke="none" fill="#000000" transform="matrix(0.0833333 0 0 0.0833333 -34.6 -93)" d="M 7024.78,2419.53 L 7027.7,2430.2 L 6860.58,2368.2 L 6863.71,2359.78 L 7024.78,2419.53 Z " />
<path stroke="none" fill="#000000" transform="matrix(0.0833333 0 0 0.0833333 -34.6 -93)" d="M 7174.09,2235.15 L 7179.78,2235.26 L 7181.92,2239.75 L 7027.7,2430.2 L 7024.78,2419.53 L 7174.09,2235.15 Z " />
<path stroke="none" fill="#000000" transform="matrix(0.0833333 0 0 0.0833333 -34.6 -93)" d="M 7071.52,2098.46 L 7078.7,2093.07 L 7182.03,2230.76 L 7179.78,2235.26 L 7174.09,2235.15 L 7071.52,2098.46 Z " />
<text x="0" y="0" stroke="none" fill="#000000" transform="matrix(0.0833333 0 0 0.0833333 510.608 73.6461)" font-style="normal" font-weight="normal" font-size="140px" font-family="Arial" >
O</text>
<path stroke="none" fill="#000000" transform="matrix(0.0833333 0 0 0.0833333 -34.6 -93)" d="M 6642.34,2016.46 L 6647.81,2009.33 L 6793.3,2120.97 L 6787.83,2128.1 L 6642.34,2016.46 Z " />
<path stroke="none" fill="#000000" transform="matrix(0.0833333 0 0 0.0833333 -34.6 -93)" d="M 6672.05,1977.75 L 6677.52,1970.62 L 6823.01,2082.26 L 6817.54,2089.39 L 6672.05,1977.75 Z " />
<path stroke="none" fill="#000000" transform="matrix(0.0833333 0 0 0.0833333 -34.6 -93)" d="M 7423.77,2230.76 L 7423.77,2239.75 L 7181.92,2239.75 L 7179.78,2235.26 L 7182.03,2230.76 L 7423.77,2230.76 Z " />
<path stroke="none" fill="#000000" transform="matrix(0.0833333 0 0 0.0833333 -34.6 -93)" d="M 3061.15,2530.5 L 4896.69,2530.5 L 4896.69,2539.5 L 3061.15,2539.5 Z " />
<path stroke="none" fill="#000000" transform="matrix(0.0833333 0 0 0.0833333 -34.6 -93)" d="M 3058.97,2929.89 L 3058.97,2535 L 3067.97,2535 L 3067.97,2929.89 Z " />
<path stroke="none" fill="#000000" transform="matrix(0.0833333 0 0 0.0833333 -34.6 -93)" d="M 3063.47,3007.5 C 3063.47,3007.5 3039.01,2917.66 3039.01,2917.66 C 3039.01,2917.66 3052.77,2928.89 3063.47,2928.89 C 3073.73,2928.89 3086.93,2917.66 3086.93,2917.66 C 3086.93,2917.66 3063.47,3007.5 3063.47,3007.5 C 3063.47,3007.5 3063.47,3007.5 3063.47,3007.5 " />
<path stroke="#000000" stroke-width="1" fill="none" transform="matrix(0.0833333 0 0 0.0833333 -34.6 -93)" d="M 3063.47,3007.5 C 3063.47,3007.5 3039.01,2917.66 3039.01,2917.66 C 3039.01,2917.66 3052.77,2928.89 3063.47,2928.89 C 3073.73,2928.89 3086.93,2917.66 3086.93,2917.66 C 3086.93,2917.66 3063.47,3007.5 3063.47,3007.5 C 3063.47,3007.5 3063.47,3007.5 3063.47,3007.5 " />
<path stroke="#0000ff" stroke-width="9" fill="none" transform="matrix(0.0833333 0 0 0.0833333 -34.6 -93)" d="M 3377.53,3554.92 C 3377.53,3554.92 3377.53,3359.82 3377.53,3359.82 C 3377.53,3359.82 2766.89,3359.82 2766.89,3359.82 C 2766.89,3359.82 2766.89,3554.92 2766.89,3554.92 C 2766.89,3554.92 3377.53,3554.92 3377.53,3554.92 " />
<path stroke="none" fill="#0000ff" transform="matrix(0.0833333 0 0 0.0833333 -34.6 -93)" d="M 3379.7,3462.21 L 3379.7,3453.22 L 3621.09,3453.22 L 3623.69,3457.72 L 3621.09,3462.21 L 3379.7,3462.21 Z " />
<path stroke="none" fill="#0000ff" transform="matrix(0.0833333 0 0 0.0833333 -34.6 -93)" d="M 2764.15,3453.26 L 2764.15,3462.25 L 2522.75,3462.25 L 2520.16,3457.76 L 2522.75,3453.26 L 2764.15,3453.26 Z " />
<path stroke="none" fill="#0000ff" transform="matrix(0.0833333 0 0 0.0833333 -34.6 -93)" d="M 3740.49,3246.42 L 3750.87,3246.42 L 3628.87,3457.72 L 3623.69,3457.72 L 3621.09,3453.22 L 3740.49,3246.42 Z " />
<text x="0" y="0" stroke="none" fill="#0000ff" transform="matrix(0.0833333 0 0 0.0833333 254.407 164.468)" font-style="normal" font-weight="normal" font-size="140px" font-family="Arial" >
HO</text>
<path stroke="none" fill="#0000ff" transform="matrix(0.0833333 0 0 0.0833333 -34.6 -93)" d="M 3660.77,3108.33 L 3668.55,3103.84 L 3750.87,3246.42 L 3740.49,3246.42 L 3660.77,3108.33 Z " />
<path stroke="none" fill="#0000ff" transform="matrix(0.0833333 0 0 0.0833333 -34.6 -93)" d="M 2392.98,3246.46 L 2403.36,3246.46 L 2522.75,3453.26 L 2520.16,3457.76 L 2514.97,3457.76 L 2392.98,3246.46 Z " />
<text x="0" y="0" stroke="none" fill="#0000ff" transform="matrix(0.0833333 0 0 0.0833333 170.872 164.472)" font-style="normal" font-weight="normal" font-size="140px" font-family="Arial" >
OH</text>
<path stroke="none" fill="#0000ff" transform="matrix(0.0833333 0 0 0.0833333 -34.6 -93)" d="M 2475.46,3103.61 L 2483.24,3108.1 L 2403.36,3246.46 L 2392.98,3246.46 L 2475.46,3103.61 Z " />
<text x="0" y="0" stroke="none" fill="#0000ff" transform="matrix(0.0833333 0 0 0.0833333 160.706 217.296)" font-style="normal" font-weight="normal" font-size="140px" font-family="Arial" >
O</text>
<path stroke="none" fill="#0000ff" transform="matrix(0.0833333 0 0 0.0833333 -34.6 -93)" d="M 2437.72,3609.54 L 2429.94,3605.05 L 2514.97,3457.76 L 2520.16,3457.76 L 2522.75,3462.25 L 2437.72,3609.54 Z " />
<path stroke="none" fill="#0000ff" transform="matrix(0.0833333 0 0 0.0833333 -34.6 -93)" d="M 2156.78,3673.55 L 2151.59,3664.56 L 2325.67,3664.56 L 2325.67,3673.55 L 2156.78,3673.55 Z " />
<text x="0" y="0" stroke="none" fill="#0000ff" transform="matrix(0.0833333 0 0 0.0833333 130.541 234.904)" font-style="normal" font-weight="normal" font-size="140px" font-family="Arial" >
NH</text>
<path stroke="none" fill="#0000ff" transform="matrix(0.0833333 0 0 0.0833333 -34.6 -93)" d="M 2076.9,3811.9 L 2069.12,3807.41 L 2151.59,3664.56 L 2156.78,3673.55 L 2076.9,3811.9 Z " />
<path stroke="none" fill="#0000ff" transform="matrix(0.0833333 0 0 0.0833333 -34.6 -93)" d="M 1790.8,3884.84 L 1785.61,3875.86 L 1967.69,3875.86 L 1967.69,3884.84 L 1790.8,3884.84 Z " />
<path stroke="none" fill="#0000ff" transform="matrix(0.0833333 0 0 0.0833333 -34.6 -93)" d="M 1668.81,4096.14 L 1663.62,4087.15 L 1785.61,3875.86 L 1790.8,3884.84 L 1668.81,4096.14 Z " />
<path stroke="none" fill="#0000ff" transform="matrix(0.0833333 0 0 0.0833333 -34.6 -93)" d="M 1424.82,4096.14 L 1419.64,4087.15 L 1663.62,4087.15 L 1668.81,4096.14 L 1424.82,4096.14 Z " />
<text x="0" y="0" stroke="none" fill="#0000ff" transform="matrix(0.0833333 0 0 0.0833333 3.94014 270.12)" font-style="normal" font-weight="normal" font-size="140px" font-family="Arial" >
(EtO)</text>
<text x="0" y="0" stroke="none" fill="#0000ff" transform="matrix(0.0833333 0 0 0.0833333 31.8884 272.704)" font-style="normal" font-weight="normal" font-size="105px" font-family="Arial" >
3-x</text>
<text x="0" y="0" stroke="none" fill="#0000ff" transform="matrix(0.0833333 0 0 0.0833333 44.0464 270.12)" font-style="normal" font-weight="normal" font-size="140px" font-family="Arial" >
Me</text>
<text x="0" y="0" stroke="none" fill="#0000ff" transform="matrix(0.0833333 0 0 0.0833333 60.2964 272.704)" font-style="normal" font-weight="normal" font-size="105px" font-family="Arial" >
x</text>
<text x="0" y="0" stroke="none" fill="#0000ff" transform="matrix(0.0833333 0 0 0.0833333 64.6714 270.12)" font-style="normal" font-weight="normal" font-size="140px" font-family="Arial" >
Si</text>
<path stroke="none" fill="#0000ff" transform="matrix(0.0833333 0 0 0.0833333 -34.6 -93)" d="M 1336.7,4248.77 L 1328.92,4244.28 L 1419.64,4087.15 L 1424.82,4096.14 L 1336.7,4248.77 Z " />
<text x="0" y="0" stroke="none" fill="#0000ff" transform="matrix(0.0833333 0 0 0.0833333 272.998 217.293)" font-style="normal" font-weight="normal" font-size="140px" font-family="Arial" >
O</text>
<path stroke="none" fill="#0000ff" transform="matrix(0.0833333 0 0 0.0833333 -34.6 -93)" d="M 3713.91,3605.01 L 3706.13,3609.5 L 3621.09,3462.21 L 3623.69,3457.72 L 3628.87,3457.72 L 3713.91,3605.01 Z " />
<path stroke="none" fill="#0000ff" transform="matrix(0.0833333 0 0 0.0833333 -34.6 -93)" d="M 3992.26,3664.52 L 3987.07,3673.5 L 3818.18,3673.5 L 3818.18,3664.52 L 3992.26,3664.52 Z " />
<text x="0" y="0" stroke="none" fill="#0000ff" transform="matrix(0.0833333 0 0 0.0833333 295.396 234.901)" font-style="normal" font-weight="normal" font-size="140px" font-family="Arial" >
HN</text>
<path stroke="none" fill="#0000ff" transform="matrix(0.0833333 0 0 0.0833333 -34.6 -93)" d="M 4074.43,3806.84 L 4066.65,3811.34 L 3987.07,3673.5 L 3992.26,3664.52 L 4074.43,3806.84 Z " />
<path stroke="none" fill="#0000ff" transform="matrix(0.0833333 0 0 0.0833333 -34.6 -93)" d="M 4358.23,3875.82 L 4353.05,3884.8 L 4174.95,3884.8 L 4174.95,3875.82 L 4358.23,3875.82 Z " />
<path stroke="none" fill="#0000ff" transform="matrix(0.0833333 0 0 0.0833333 -34.6 -93)" d="M 4480.23,4087.11 L 4475.04,4096.1 L 4353.05,3884.8 L 4358.23,3875.82 L 4480.23,4087.11 Z " />
<path stroke="none" fill="#0000ff" transform="matrix(0.0833333 0 0 0.0833333 -34.6 -93)" d="M 4724.21,4087.11 L 4719.02,4096.1 L 4475.04,4096.1 L 4480.23,4087.11 L 4724.21,4087.11 Z " />
<text x="0" y="0" stroke="none" fill="#0000ff" transform="matrix(0.0833333 0 0 0.0833333 365.159 270.117)" font-style="normal" font-weight="normal" font-size="140px" font-family="Arial" >
SiMe</text>
<text x="0" y="0" stroke="none" fill="#0000ff" transform="matrix(0.0833333 0 0 0.0833333 391.783 272.7)" font-style="normal" font-weight="normal" font-size="105px" font-family="Arial" >
x</text>
<text x="0" y="0" stroke="none" fill="#0000ff" transform="matrix(0.0833333 0 0 0.0833333 396.158 270.117)" font-style="normal" font-weight="normal" font-size="140px" font-family="Arial" >
(OEt)</text>
<text x="0" y="0" stroke="none" fill="#0000ff" transform="matrix(0.0833333 0 0 0.0833333 424.106 272.7)" font-style="normal" font-weight="normal" font-size="105px" font-family="Arial" >
3-x</text>
<path stroke="none" fill="#0000ff" transform="matrix(0.0833333 0 0 0.0833333 -34.6 -93)" d="M 4811.84,4238.9 L 4804.06,4243.39 L 4719.02,4096.1 L 4724.21,4087.11 L 4811.84,4238.9 Z " />
<path stroke="none" fill="#0000ff" transform="matrix(0.0833333 0 0 0.0833333 -34.6 -93)" d="M 3071.99,3798.27 L 3067.5,3800.86 L 3063.01,3798.27 L 3063.01,3556.88 L 3071.99,3556.88 L 3071.99,3798.27 Z " />
<text x="0" y="0" stroke="none" fill="#0000ff" transform="matrix(0.0833333 0 0 0.0833333 190.45 238.446)" font-style="normal" font-weight="normal" font-size="140px" font-family="Arial" >
HO</text>
<path stroke="none" fill="#0000ff" transform="matrix(0.0833333 0 0 0.0833333 -34.6 -93)" d="M 2920.62,3890.85 L 2916.12,3883.07 L 3063.01,3798.27 L 3067.5,3800.86 L 3067.5,3806.05 L 2920.62,3890.85 Z " />
<path stroke="none" fill="#0000ff" transform="matrix(0.0833333 0 0 0.0833333 -34.6 -93)" d="M 3283.29,3920.26 L 3274.3,3925.45 L 3067.5,3806.05 L 3067.5,3800.86 L 3071.99,3798.27 L 3283.29,3920.26 Z " />
<text x="0" y="0" stroke="none" fill="#0000ff" transform="matrix(0.0833333 0 0 0.0833333 234.091 258.778)" font-style="normal" font-weight="normal" font-size="140px" font-family="Arial" >
O</text>
<path stroke="none" fill="#0000ff" transform="matrix(0.0833333 0 0 0.0833333 -34.6 -93)" d="M 3283.29,4096.5 L 3274.3,4096.5 L 3274.3,3925.45 L 3283.29,3920.26 L 3283.29,4096.5 Z " />
<path stroke="none" fill="#0000ff" transform="matrix(0.0833333 0 0 0.0833333 -34.6 -93)" d="M 3494.59,4286.23 L 3485.6,4291.42 L 3344.14,4209.75 L 3348.63,4201.97 L 3494.59,4286.23 Z " />
<text x="0" y="0" stroke="none" fill="#0000ff" transform="matrix(0.0833333 0 0 0.0833333 243.599 289.276)" font-style="normal" font-weight="normal" font-size="140px" font-family="Arial" >
HN</text>
<path stroke="none" fill="#0000ff" transform="matrix(0.0833333 0 0 0.0833333 -34.6 -93)" d="M 3494.59,4464.65 L 3485.6,4464.65 L 3485.6,4291.42 L 3494.59,4286.23 L 3494.59,4464.65 Z " />
<path stroke="none" fill="#0000ff" transform="matrix(0.0833333 0 0 0.0833333 -34.6 -93)" d="M 3705.88,4652.21 L 3696.9,4657.4 L 3561.53,4579.24 L 3566.02,4571.46 L 3705.88,4652.21 Z " />
<path stroke="none" fill="#0000ff" transform="matrix(0.0833333 0 0 0.0833333 -34.6 -93)" d="M 3705.88,4896.2 L 3696.9,4901.38 L 3696.9,4657.4 L 3705.88,4652.21 L 3705.88,4896.2 Z " />
<path stroke="none" fill="#0000ff" transform="matrix(0.0833333 0 0 0.0833333 -34.6 -93)" d="M 3917.18,5018.19 L 3908.19,5023.37 L 3696.9,4901.38 L 3705.88,4896.2 L 3917.18,5018.19 Z " />
<text x="0" y="0" stroke="none" fill="#0000ff" transform="matrix(0.0833333 0 0 0.0833333 287.582 350.272)" font-style="normal" font-weight="normal" font-size="140px" font-family="Arial" >
SiMe</text>
<text x="0" y="0" stroke="none" fill="#0000ff" transform="matrix(0.0833333 0 0 0.0833333 314.206 352.855)" font-style="normal" font-weight="normal" font-size="105px" font-family="Arial" >
x</text>
<text x="0" y="0" stroke="none" fill="#0000ff" transform="matrix(0.0833333 0 0 0.0833333 318.581 350.272)" font-style="normal" font-weight="normal" font-size="140px" font-family="Arial" >
(OEt)</text>
<text x="0" y="0" stroke="none" fill="#0000ff" transform="matrix(0.0833333 0 0 0.0833333 346.529 352.855)" font-style="normal" font-weight="normal" font-size="105px" font-family="Arial" >
3-x</text>
<path stroke="none" fill="#0000ff" transform="matrix(0.0833333 0 0 0.0833333 -34.6 -93)" d="M 3917.18,5194.43 L 3908.19,5194.43 L 3908.19,5023.37 L 3917.18,5018.19 L 3917.18,5194.43 Z " />
<text x="0" y="0" stroke="none" fill="#0000ff" transform="matrix(0.0833333 0 0 0.0833333 130.208 199.688)" font-style="normal" font-weight="normal" font-size="140px" font-family="Arial" >
O</text>
<path stroke="none" fill="#0000ff" transform="matrix(0.0833333 0 0 0.0833333 -34.6 -93)" d="M 2048.17,3543.21 L 2055.95,3538.72 L 2143.99,3691.21 L 2136.21,3695.7 L 2048.17,3543.21 Z " />
<path stroke="none" fill="#0000ff" transform="matrix(0.0833333 0 0 0.0833333 -34.6 -93)" d="M 2090.43,3518.81 L 2098.21,3514.32 L 2186.25,3666.81 L 2178.47,3671.3 L 2090.43,3518.81 Z " />
<text x="0" y="0" stroke="none" fill="#0000ff" transform="matrix(0.0833333 0 0 0.0833333 303.496 199.685)" font-style="normal" font-weight="normal" font-size="140px" font-family="Arial" >
O</text>
<path stroke="none" fill="#0000ff" transform="matrix(0.0833333 0 0 0.0833333 -34.6 -93)" d="M 4045.82,3513.96 L 4053.6,3518.45 L 3965.38,3671.26 L 3957.6,3666.77 L 4045.82,3513.96 Z " />
<path stroke="none" fill="#0000ff" transform="matrix(0.0833333 0 0 0.0833333 -34.6 -93)" d="M 4088.08,3538.36 L 4095.86,3542.85 L 4007.64,3695.66 L 3999.86,3691.16 L 4088.08,3538.36 Z " />
<text x="0" y="0" stroke="none" fill="#0000ff" transform="matrix(0.0833333 0 0 0.0833333 269.307 258.778)" font-style="normal" font-weight="normal" font-size="140px" font-family="Arial" >
O</text>
<path stroke="none" fill="#0000ff" transform="matrix(0.0833333 0 0 0.0833333 -34.6 -93)" d="M 3619.79,4180.59 L 3624.28,4188.37 L 3467.94,4278.63 L 3463.45,4270.85 L 3619.79,4180.59 Z " />
<path stroke="none" fill="#0000ff" transform="matrix(0.0833333 0 0 0.0833333 -34.6 -93)" d="M 3644.19,4222.85 L 3648.68,4230.63 L 3492.34,4320.89 L 3487.85,4313.11 L 3644.19,4222.85 Z " />
<text x="0" y="0" stroke="none" fill="#000000" transform="matrix(0.0833333 0 0 0.0833333 228.525 141.375)" font-style="normal" font-weight="bold" font-size="140px" font-family="Arial" >
50</text>
<text x="0" y="0" stroke="none" fill="#000000" transform="matrix(0.0833333 0 0 0.0833333 241.525 136.833)" font-style="normal" font-weight="bold" font-size="105px" font-family="Arial" >
o</text>
<text x="0" y="0" stroke="none" fill="#000000" transform="matrix(0.0833333 0 0 0.0833333 246.87 141.375)" font-style="normal" font-weight="bold" font-size="140px" font-family="Arial" >
C</text>
<text x="0" y="0" stroke="none" fill="#000000" transform="matrix(0.0833333 0 0 0.0833333 657.593 141.375)" font-style="normal" font-weight="bold" font-size="140px" font-family="Arial" >
50</text>
<text x="0" y="0" stroke="none" fill="#000000" transform="matrix(0.0833333 0 0 0.0833333 670.593 136.833)" font-style="normal" font-weight="bold" font-size="105px" font-family="Arial" >
o</text>
<text x="0" y="0" stroke="none" fill="#000000" transform="matrix(0.0833333 0 0 0.0833333 675.938 141.375)" font-style="normal" font-weight="bold" font-size="140px" font-family="Arial" >
C</text>
<path stroke="none" fill="#000000" transform="matrix(0.0833333 0 0 0.0833333 -34.6 -93)" d="M 8720.84,2929.89 L 8720.84,2535 L 8729.84,2535 L 8729.84,2929.89 Z " />
<path stroke="none" fill="#000000" transform="matrix(0.0833333 0 0 0.0833333 -34.6 -93)" d="M 8725.34,3007.5 C 8725.34,3007.5 8700.88,2917.66 8700.88,2917.66 C 8700.88,2917.66 8714.64,2928.89 8725.34,2928.89 C 8735.61,2928.89 8748.8,2917.66 8748.8,2917.66 C 8748.8,2917.66 8725.34,3007.5 8725.34,3007.5 C 8725.34,3007.5 8725.34,3007.5 8725.34,3007.5 " />
<path stroke="#000000" stroke-width="1" fill="none" transform="matrix(0.0833333 0 0 0.0833333 -34.6 -93)" d="M 8725.34,3007.5 C 8725.34,3007.5 8700.88,2917.66 8700.88,2917.66 C 8700.88,2917.66 8714.64,2928.89 8725.34,2928.89 C 8735.61,2928.89 8748.8,2917.66 8748.8,2917.66 C 8748.8,2917.66 8725.34,3007.5 8725.34,3007.5 C 8725.34,3007.5 8725.34,3007.5 8725.34,3007.5 " />
<path stroke="none" fill="#000000" transform="matrix(0.0833333 0 0 0.0833333 -34.6 -93)" d="M 8729.04,2539.5 L 6699.6,2539.5 L 6699.6,2530.5 L 8729.04,2530.5 Z " />
<path stroke="#008000" stroke-width="9" fill="none" transform="matrix(0.0833333 0 0 0.0833333 -34.6 -93)" d="M 9032.53,3769.92 C 9032.53,3769.92 9032.53,3574.82 9032.53,3574.82 C 9032.53,3574.82 8421.89,3574.82 8421.89,3574.82 C 8421.89,3574.82 8421.89,3769.92 8421.89,3769.92 C 8421.89,3769.92 9032.53,3769.92 9032.53,3769.92 " />
<path stroke="none" fill="#008000" transform="matrix(0.0833333 0 0 0.0833333 -34.6 -93)" d="M 9241.51,3548.13 L 9246,3550.72 L 9246,3555.91 L 9036.95,3676.61 L 9032.46,3668.82 L 9241.51,3548.13 Z " />
<path stroke="none" fill="#008000" transform="matrix(0.0833333 0 0 0.0833333 -34.6 -93)" d="M 9457.3,3667.53 L 9457.3,3677.9 L 9246,3555.91 L 9246,3550.72 L 9250.49,3548.13 L 9457.3,3667.53 Z " />
<text x="0" y="0" stroke="none" fill="#008000" transform="matrix(0.0833333 0 0 0.0833333 766.574 207.435)" font-style="normal" font-weight="normal" font-size="140px" font-family="Arial" >
O</text>
<path stroke="none" fill="#008000" transform="matrix(0.0833333 0 0 0.0833333 -34.6 -93)" d="M 9599.19,3585.6 L 9603.69,3593.38 L 9457.3,3677.9 L 9457.3,3667.53 L 9599.19,3585.6 Z " />
<path stroke="none" fill="#008000" transform="matrix(0.0833333 0 0 0.0833333 -34.6 -93)" d="M 9879.89,3667.53 L 9879.89,3677.9 L 9733.93,3593.63 L 9738.42,3585.85 L 9879.89,3667.53 Z " />
<text x="0" y="0" stroke="none" fill="#008000" transform="matrix(0.0833333 0 0 0.0833333 802.124 197.713)" font-style="normal" font-weight="normal" font-size="140px" font-family="Arial" >
H</text>
<text x="0" y="0" stroke="none" fill="#008000" transform="matrix(0.0833333 0 0 0.0833333 802.124 207.435)" font-style="normal" font-weight="normal" font-size="140px" font-family="Arial" >
N</text>
<path stroke="none" fill="#008000" transform="matrix(0.0833333 0 0 0.0833333 -34.6 -93)" d="M 10014.2,3589.98 L 10018.7,3597.76 L 9879.89,3677.9 L 9879.89,3667.53 L 10014.2,3589.98 Z " />
<path stroke="none" fill="#008000" transform="matrix(0.0833333 0 0 0.0833333 -34.6 -93)" d="M 10302.5,3667.53 L 10302.5,3677.9 L 10162.9,3597.33 L 10167.4,3589.55 L 10302.5,3667.53 Z " />
<path stroke="none" fill="#008000" transform="matrix(0.0833333 0 0 0.0833333 -34.6 -93)" d="M 10513.8,3545.54 L 10513.8,3555.91 L 10302.5,3677.9 L 10302.5,3667.53 L 10513.8,3545.54 Z " />
<path stroke="none" fill="#008000" transform="matrix(0.0833333 0 0 0.0833333 -34.6 -93)" d="M 10725.1,3667.53 L 10725.1,3677.9 L 10513.8,3555.91 L 10513.8,3545.54 L 10725.1,3667.53 Z " />
<text x="0" y="0" stroke="none" fill="#008000" transform="matrix(0.0833333 0 0 0.0833333 872.889 207.435)" font-style="normal" font-weight="normal" font-size="140px" font-family="Arial" >
SiMe</text>
<text x="0" y="0" stroke="none" fill="#008000" transform="matrix(0.0833333 0 0 0.0833333 899.513 210.019)" font-style="normal" font-weight="normal" font-size="105px" font-family="Arial" >
x</text>
<text x="0" y="0" stroke="none" fill="#008000" transform="matrix(0.0833333 0 0 0.0833333 903.888 207.435)" font-style="normal" font-weight="normal" font-size="140px" font-family="Arial" >
(OEt)</text>
<text x="0" y="0" stroke="none" fill="#008000" transform="matrix(0.0833333 0 0 0.0833333 931.836 210.019)" font-style="normal" font-weight="normal" font-size="105px" font-family="Arial" >
3-x</text>
<path stroke="none" fill="#008000" transform="matrix(0.0833333 0 0 0.0833333 -34.6 -93)" d="M 10868.4,3584.8 L 10872.8,3592.58 L 10725.1,3677.9 L 10725.1,3667.53 L 10868.4,3584.8 Z " />
<path stroke="none" fill="#008000" transform="matrix(0.0833333 0 0 0.0833333 -34.6 -93)" d="M 8207.85,3555.95 L 8207.85,3550.76 L 8212.34,3548.17 L 8421.39,3668.87 L 8416.9,3676.65 L 8207.85,3555.95 Z " />
<text x="0" y="0" stroke="none" fill="#008000" transform="matrix(0.0833333 0 0 0.0833333 627.238 217.605)" font-style="normal" font-weight="normal" font-size="140px" font-family="Arial" >
O</text>
<path stroke="none" fill="#008000" transform="matrix(0.0833333 0 0 0.0833333 -34.6 -93)" d="M 8061.04,3640.71 L 8056.55,3632.93 L 8203.36,3548.17 L 8207.85,3550.76 L 8207.85,3555.95 L 8061.04,3640.71 Z " />
<path stroke="none" fill="#008000" transform="matrix(0.0833333 0 0 0.0833333 -34.6 -93)" d="M 7785.26,3555.95 L 7785.26,3545.58 L 7936.78,3633.06 L 7932.29,3640.84 L 7785.26,3555.95 Z " />
<text x="0" y="0" stroke="none" fill="#008000" transform="matrix(0.0833333 0 0 0.0833333 592.355 217.605)" font-style="normal" font-weight="normal" font-size="140px" font-family="Arial" >
N</text>
<text x="0" y="0" stroke="none" fill="#008000" transform="matrix(0.0833333 0 0 0.0833333 592.355 227.327)" font-style="normal" font-weight="normal" font-size="140px" font-family="Arial" >
H</text>
<path stroke="none" fill="#008000" transform="matrix(0.0833333 0 0 0.0833333 -34.6 -93)" d="M 7645.42,3636.68 L 7640.93,3628.9 L 7785.26,3545.58 L 7785.26,3555.95 L 7645.42,3636.68 Z " />
<path stroke="none" fill="#008000" transform="matrix(0.0833333 0 0 0.0833333 -34.6 -93)" d="M 7362.66,3555.95 L 7362.66,3545.58 L 7506.24,3628.47 L 7501.74,3636.25 L 7362.66,3555.95 Z " />
<path stroke="none" fill="#008000" transform="matrix(0.0833333 0 0 0.0833333 -34.6 -93)" d="M 7151.37,3677.94 L 7151.37,3667.57 L 7362.66,3545.58 L 7362.66,3555.95 L 7151.37,3677.94 Z " />
<path stroke="none" fill="#008000" transform="matrix(0.0833333 0 0 0.0833333 -34.6 -93)" d="M 6940.07,3555.95 L 6940.07,3545.58 L 7151.37,3667.57 L 7151.37,3677.94 L 6940.07,3555.95 Z " />
<text x="0" y="0" stroke="none" fill="#008000" transform="matrix(0.0833333 0 0 0.0833333 456.318 217.605)" font-style="normal" font-weight="normal" font-size="140px" font-family="Arial" >
(EtO)</text>
<text x="0" y="0" stroke="none" fill="#008000" transform="matrix(0.0833333 0 0 0.0833333 484.266 220.188)" font-style="normal" font-weight="normal" font-size="105px" font-family="Arial" >
3-x</text>
<text x="0" y="0" stroke="none" fill="#008000" transform="matrix(0.0833333 0 0 0.0833333 496.424 217.605)" font-style="normal" font-weight="normal" font-size="140px" font-family="Arial" >
Me</text>
<text x="0" y="0" stroke="none" fill="#008000" transform="matrix(0.0833333 0 0 0.0833333 512.674 220.188)" font-style="normal" font-weight="normal" font-size="105px" font-family="Arial" >
x</text>
<text x="0" y="0" stroke="none" fill="#008000" transform="matrix(0.0833333 0 0 0.0833333 517.049 217.605)" font-style="normal" font-weight="normal" font-size="140px" font-family="Arial" >
Si</text>
<path stroke="none" fill="#008000" transform="matrix(0.0833333 0 0 0.0833333 -34.6 -93)" d="M 6772.33,3652.79 L 6767.84,3645.01 L 6940.07,3545.58 L 6940.07,3555.95 L 6772.33,3652.79 Z " />
<text x="0" y="0" stroke="none" fill="#008000" transform="matrix(0.0833333 0 0 0.0833333 784.182 237.933)" font-style="normal" font-weight="normal" font-size="140px" font-family="Arial" >
O</text>
<path stroke="none" fill="#008000" transform="matrix(0.0833333 0 0 0.0833333 -34.6 -93)" d="M 9908.78,3846.37 L 9899.8,3846.37 L 9899.8,3658.63 L 9908.78,3658.63 L 9908.78,3846.37 Z " />
<path stroke="none" fill="#008000" transform="matrix(0.0833333 0 0 0.0833333 -34.6 -93)" d="M 9859.98,3846.37 L 9851,3846.37 L 9851,3658.63 L 9859.98,3658.63 L 9859.98,3846.37 Z " />
<text x="0" y="0" stroke="none" fill="#008000" transform="matrix(0.0833333 0 0 0.0833333 609.63 187.107)" font-style="normal" font-weight="normal" font-size="140px" font-family="Arial" >
O</text>
<path stroke="none" fill="#008000" transform="matrix(0.0833333 0 0 0.0833333 -34.6 -93)" d="M 7756.36,3387.45 L 7765.35,3387.45 L 7765.35,3564.85 L 7756.36,3564.85 L 7756.36,3387.45 Z " />
<path stroke="none" fill="#008000" transform="matrix(0.0833333 0 0 0.0833333 -34.6 -93)" d="M 7805.16,3387.45 L 7814.15,3387.45 L 7814.15,3564.85 L 7805.16,3564.85 L 7805.16,3387.45 Z " />
<path stroke="none" fill="#008000" transform="matrix(0.0833333 0 0 0.0833333 -34.6 -93)" d="M 8203.36,3304.92 L 8212.34,3308.64 L 8212.34,3548.17 L 8207.85,3550.76 L 8203.36,3548.17 L 8203.36,3304.92 Z " />
<text x="0" y="0" stroke="none" fill="#008000" transform="matrix(0.0833333 0 0 0.0833333 659.223 172.73)" font-style="normal" font-weight="normal" font-size="140px" font-family="Arial" >
OH</text>
<path stroke="none" fill="#008000" transform="matrix(0.0833333 0 0 0.0833333 -34.6 -93)" d="M 8320.93,3187.34 L 8327.29,3193.69 L 8212.34,3308.64 L 8203.36,3304.92 L 8320.93,3187.34 Z " />
<text x="0" y="0" stroke="none" fill="#008000" transform="matrix(0.0833333 0 0 0.0833333 731.358 187.103)" font-style="normal" font-weight="normal" font-size="140px" font-family="Arial" >
OH</text>
<path stroke="none" fill="#008000" transform="matrix(0.0833333 0 0 0.0833333 -34.6 -93)" d="M 9241.51,3387.41 L 9250.49,3387.41 L 9250.49,3548.13 L 9246,3550.72 L 9241.51,3548.13 L 9241.51,3387.41 Z " />
</svg>
