<?xml version="1.0" standalone="no" ?>
<!DOCTYPE svg PUBLIC "-//W3C//DTD SVG 1.1//EN" "http://www.w3.org/Graphics/SVG/1.1/DTD/svg11.dtd">
<svg width="405px" height="80px" viewBox="0 0 405 80" style="background-color: #ffffff00" xmlns="http://www.w3.org/2000/svg" xmlns:xlink="http://www.w3.org/1999/xlink" version="1.1" >
<text x="0" y="0" stroke="none" fill="#000000" transform="matrix(0.0833333 0 0 0.0833333 155.08 31.5417)" font-style="normal" font-weight="normal" font-size="140px" font-family="Arial" >
O</text>
<text x="0" y="0" stroke="none" fill="#000000" transform="matrix(0.0833333 0 0 0.0833333 167.788 13.9336)" font-style="normal" font-weight="normal" font-size="140px" font-family="Arial" >
SiMe</text>
<text x="0" y="0" stroke="none" fill="#000000" transform="matrix(0.0833333 0 0 0.0833333 194.412 16.5169)" font-style="normal" font-weight="normal" font-size="105px" font-family="Arial" >
2</text>
<text x="0" y="0" stroke="none" fill="#000000" transform="matrix(0.0833333 0 0 0.0833333 199.287 13.9336)" font-style="normal" font-weight="normal" font-size="140px" font-family="Arial" >
CH</text>
<text x="0" y="0" stroke="none" fill="#000000" transform="matrix(0.0833333 0 0 0.0833333 216.137 16.5169)" font-style="normal" font-weight="normal" font-size="105px" font-family="Arial" >
2</text>
<path stroke="none" fill="#000000" transform="matrix(0.0833333 0 0 0.0833333 -153.175 -58)" d="M 3848.33,873.459 L 3855.75,878.53 L 3797.57,963.613 L 3790.15,958.542 L 3848.33,873.459 Z " />
<text x="0" y="0" stroke="none" fill="#000000" transform="matrix(0.0833333 0 0 0.0833333 167.788 49.1497)" font-style="normal" font-weight="normal" font-size="140px" font-family="Arial" >
SiMe</text>
<text x="0" y="0" stroke="none" fill="#000000" transform="matrix(0.0833333 0 0 0.0833333 194.412 51.733)" font-style="normal" font-weight="normal" font-size="105px" font-family="Arial" >
2</text>
<text x="0" y="0" stroke="none" fill="#000000" transform="matrix(0.0833333 0 0 0.0833333 199.287 49.1497)" font-style="normal" font-weight="normal" font-size="140px" font-family="Arial" >
CH</text>
<text x="0" y="0" stroke="none" fill="#000000" transform="matrix(0.0833333 0 0 0.0833333 216.137 51.733)" font-style="normal" font-weight="normal" font-size="105px" font-family="Arial" >
2</text>
<path stroke="none" fill="#000000" transform="matrix(0.0833333 0 0 0.0833333 -153.175 -58)" d="M 3861.5,1169.87 L 3854.08,1174.94 L 3795.9,1089.86 L 3803.31,1084.79 L 3861.5,1169.87 Z " />
<text x="0" y="0" stroke="none" fill="#000000" transform="matrix(0.0833333 0 0 0.0833333 223.051 31.4355)" font-style="normal" font-weight="normal" font-size="140px" font-family="Arial" >
SnCl</text>
<text x="0" y="0" stroke="none" fill="#000000" transform="matrix(0.0833333 0 0 0.0833333 248.35 34.0188)" font-style="normal" font-weight="normal" font-size="105px" font-family="Arial" >
2</text>
<path stroke="none" fill="#000000" transform="matrix(0.0833333 0 0 0.0833333 -153.175 -58)" d="M 4518.26,961.712 L 4511.44,967.559 L 4479.67,930.488 L 4486.49,924.641 L 4518.26,961.712 Z " />
<path stroke="none" fill="#000000" transform="matrix(0.0833333 0 0 0.0833333 -153.175 -58)" d="M 4505.65,1077.39 L 4512.51,1083.19 L 4438.17,1170.97 L 4431.32,1165.16 L 4505.65,1077.39 Z " />
<text x="0" y="0" stroke="none" fill="#000000" transform="matrix(0.0833333 0 0 0.0833333 274.457 31.5417)" font-style="normal" font-weight="normal" font-size="140px" font-family="Arial" >
Me</text>
<text x="0" y="0" stroke="none" fill="#000000" transform="matrix(0.0833333 0 0 0.0833333 290.707 34.125)" font-style="normal" font-weight="normal" font-size="105px" font-family="Arial" >
2</text>
<text x="0" y="0" stroke="none" fill="#000000" transform="matrix(0.0833333 0 0 0.0833333 295.582 31.5417)" font-style="normal" font-weight="normal" font-size="140px" font-family="Arial" >
Si</text>
<text x="0" y="0" stroke="none" fill="#000000" transform="matrix(0.0833333 0 0 0.0833333 314.663 13.9336)" font-style="normal" font-weight="normal" font-size="140px" font-family="Arial" >
OSiMe</text>
<text x="0" y="0" stroke="none" fill="#000000" transform="matrix(0.0833333 0 0 0.0833333 350.37 16.5169)" font-style="normal" font-weight="normal" font-size="105px" font-family="Arial" >
2</text>
<text x="0" y="0" stroke="none" fill="#000000" transform="matrix(0.0833333 0 0 0.0833333 355.245 13.9336)" font-style="normal" font-weight="normal" font-size="140px" font-family="Arial" >
CH</text>
<text x="0" y="0" stroke="none" fill="#000000" transform="matrix(0.0833333 0 0 0.0833333 372.095 16.5169)" font-style="normal" font-weight="normal" font-size="105px" font-family="Arial" >
2</text>
<path stroke="none" fill="#000000" transform="matrix(0.0833333 0 0 0.0833333 -153.175 -58)" d="M 5613.72,868.047 L 5620.65,873.768 L 5536.96,975.111 L 5530.03,969.391 L 5613.72,868.047 Z " />
<text x="0" y="0" stroke="none" fill="#000000" transform="matrix(0.0833333 0 0 0.0833333 314.663 49.1497)" font-style="normal" font-weight="normal" font-size="140px" font-family="Arial" >
OSiMe</text>
<text x="0" y="0" stroke="none" fill="#000000" transform="matrix(0.0833333 0 0 0.0833333 350.37 51.733)" font-style="normal" font-weight="normal" font-size="105px" font-family="Arial" >
2</text>
<text x="0" y="0" stroke="none" fill="#000000" transform="matrix(0.0833333 0 0 0.0833333 355.245 49.1497)" font-style="normal" font-weight="normal" font-size="140px" font-family="Arial" >
CH</text>
<text x="0" y="0" stroke="none" fill="#000000" transform="matrix(0.0833333 0 0 0.0833333 372.095 51.733)" font-style="normal" font-weight="normal" font-size="105px" font-family="Arial" >
2</text>
<path stroke="none" fill="#000000" transform="matrix(0.0833333 0 0 0.0833333 -153.175 -58)" d="M 5626.62,1173.46 L 5619.69,1179.18 L 5534.61,1076.16 L 5541.54,1070.44 L 5626.62,1173.46 Z " />
<text x="0" y="0" stroke="none" fill="#000000" transform="matrix(0.0833333 0 0 0.0833333 370.593 31.4355)" font-style="normal" font-weight="normal" font-size="140px" font-family="Arial" >
SnCl</text>
<text x="0" y="0" stroke="none" fill="#000000" transform="matrix(0.0833333 0 0 0.0833333 395.892 34.0188)" font-style="normal" font-weight="normal" font-size="105px" font-family="Arial" >
2</text>
<path stroke="none" fill="#000000" transform="matrix(0.0833333 0 0 0.0833333 -153.175 -58)" d="M 6288.74,961.725 L 6281.92,967.574 L 6223.52,899.477 L 6230.34,893.628 L 6288.74,961.725 Z " />
<path stroke="none" fill="#000000" transform="matrix(0.0833333 0 0 0.0833333 -153.175 -58)" d="M 6276.13,1077.37 L 6282.99,1083.18 L 6223.67,1153.18 L 6216.82,1147.37 L 6276.13,1077.37 Z " />
<text x="0" y="0" stroke="none" fill="#000000" transform="matrix(0.0833333 0 0 0.0833333 3.53333 31.5417)" font-style="normal" font-weight="normal" font-size="140px" font-family="Arial" >
O</text>
<text x="0" y="0" stroke="none" fill="#000000" transform="matrix(0.0833333 0 0 0.0833333 16.241 13.9336)" font-style="normal" font-weight="normal" font-size="140px" font-family="Arial" >
SiMe</text>
<text x="0" y="0" stroke="none" fill="#000000" transform="matrix(0.0833333 0 0 0.0833333 42.8646 16.5169)" font-style="normal" font-weight="normal" font-size="105px" font-family="Arial" >
2</text>
<text x="0" y="0" stroke="none" fill="#000000" transform="matrix(0.0833333 0 0 0.0833333 47.7396 13.9336)" font-style="normal" font-weight="normal" font-size="140px" font-family="Arial" >
CH</text>
<text x="0" y="0" stroke="none" fill="#000000" transform="matrix(0.0833333 0 0 0.0833333 64.5901 16.5169)" font-style="normal" font-weight="normal" font-size="105px" font-family="Arial" >
2</text>
<text x="0" y="0" stroke="none" fill="#000000" transform="matrix(0.0833333 0 0 0.0833333 69.4651 13.9336)" font-style="normal" font-weight="normal" font-size="140px" font-family="Arial" >
Cl</text>
<path stroke="none" fill="#000000" transform="matrix(0.0833333 0 0 0.0833333 -153.175 -58)" d="M 2029.77,873.459 L 2037.18,878.53 L 1979,963.613 L 1971.59,958.542 L 2029.77,873.459 Z " />
<text x="0" y="0" stroke="none" fill="#000000" transform="matrix(0.0833333 0 0 0.0833333 16.241 49.1497)" font-style="normal" font-weight="normal" font-size="140px" font-family="Arial" >
SiMe</text>
<text x="0" y="0" stroke="none" fill="#000000" transform="matrix(0.0833333 0 0 0.0833333 42.8646 51.733)" font-style="normal" font-weight="normal" font-size="105px" font-family="Arial" >
2</text>
<text x="0" y="0" stroke="none" fill="#000000" transform="matrix(0.0833333 0 0 0.0833333 47.7396 49.1497)" font-style="normal" font-weight="normal" font-size="140px" font-family="Arial" >
CH</text>
<text x="0" y="0" stroke="none" fill="#000000" transform="matrix(0.0833333 0 0 0.0833333 64.5901 51.733)" font-style="normal" font-weight="normal" font-size="105px" font-family="Arial" >
2</text>
<text x="0" y="0" stroke="none" fill="#000000" transform="matrix(0.0833333 0 0 0.0833333 69.4651 49.1497)" font-style="normal" font-weight="normal" font-size="140px" font-family="Arial" >
Cl</text>
<path stroke="none" fill="#000000" transform="matrix(0.0833333 0 0 0.0833333 -153.175 -58)" d="M 2042.93,1169.87 L 2035.51,1174.94 L 1977.33,1089.86 L 1984.75,1084.79 L 2042.93,1169.87 Z " />
<text x="0" y="0" stroke="none" fill="#000000" transform="matrix(0.0833333 0 0 0.0833333 86.2 31.5833)" font-style="normal" font-weight="normal" font-size="140px" font-family="Arial" >
+ </text>
<text x="0" y="0" stroke="none" fill="#000000" transform="matrix(0.0833333 0 0 0.0833333 96.2833 31.5833)" font-style="normal" font-weight="normal" font-size="140px" font-family="Arial" >
 </text>
<text x="0" y="0" stroke="none" fill="#000000" transform="matrix(0.0833333 0 0 0.0833333 99.5333 31.5833)" font-style="normal" font-weight="normal" font-size="140px" font-family="Arial" >
Sn</text>
<path stroke="none" fill="#000000" transform="matrix(0.0833333 0 0 0.0833333 -153.175 -58)" d="M 3535.62,1038.75 L 3300,1038.75 L 3300,1029.75 L 3535.62,1029.75 Z " />
<path stroke="none" fill="#000000" transform="matrix(0.0833333 0 0 0.0833333 -153.175 -58)" d="M 3613.23,1034.25 C 3613.23,1034.25 3523.39,1057.71 3523.39,1057.71 C 3523.39,1057.71 3534.62,1044.51 3534.62,1034.25 C 3534.62,1023.55 3523.39,1009.79 3523.39,1009.79 C 3523.39,1009.79 3613.23,1034.25 3613.23,1034.25 C 3613.23,1034.25 3613.23,1034.25 3613.23,1034.25 " />
<path stroke="#000000" stroke-width="1" fill="none" transform="matrix(0.0833333 0 0 0.0833333 -153.175 -58)" d="M 3613.23,1034.25 C 3613.23,1034.25 3523.39,1057.71 3523.39,1057.71 C 3523.39,1057.71 3534.62,1044.51 3534.62,1034.25 C 3534.62,1023.55 3523.39,1009.79 3523.39,1009.79 C 3523.39,1009.79 3613.23,1034.25 3613.23,1034.25 C 3613.23,1034.25 3613.23,1034.25 3613.23,1034.25 " />
<text x="0" y="0" stroke="none" fill="#000000" transform="matrix(0.0833333 0 0 0.0833333 259.95 31.375)" font-style="normal" font-weight="normal" font-size="140px" font-family="Arial" >
+</text>
<text x="0" y="0" stroke="none" fill="#000000" transform="matrix(0.0833333 0 0 0.0833333 189.653 73.25)" font-style="normal" font-weight="bold" font-size="140px" font-family="Arial" >
II</text>
<text x="0" y="0" stroke="none" fill="#000000" transform="matrix(0.0833333 0 0 0.0833333 340.237 73.25)" font-style="normal" font-weight="bold" font-size="140px" font-family="Arial" >
III</text>
</svg>
