<?xml version="1.0" standalone="no" ?>
<!DOCTYPE svg PUBLIC "-//W3C//DTD SVG 1.1//EN" "http://www.w3.org/Graphics/SVG/1.1/DTD/svg11.dtd">
<svg width="188px" height="97px" viewBox="0 0 188 97" style="background-color: #ffffff00" xmlns="http://www.w3.org/2000/svg" xmlns:xlink="http://www.w3.org/1999/xlink" version="1.1" >
<text x="0" y="0" stroke="none" fill="#008040" transform="matrix(0.0833333 0 0 0.0833333 3.64849 76.2019)" font-style="normal" font-weight="bold" font-size="140px" font-family="Arial" >
L</text>
<text x="0" y="0" stroke="none" fill="#008040" transform="matrix(0.0833333 0 0 0.0833333 10.8152 76.2019)" font-style="normal" font-weight="normal" font-size="140px" font-family="Arial" >
 </text>
<text x="0" y="0" stroke="none" fill="#008040" transform="matrix(0.0833333 0 0 0.0833333 14.0652 76.2019)" font-style="normal" font-weight="normal" font-size="140px" font-family="Arial" >
= </text>
<text x="0" y="0" stroke="none" fill="#008040" transform="matrix(0.0833333 0 0 0.0833333 24.1485 76.2019)" font-style="normal" font-weight="normal" font-size="140px" font-family="Arial" >
Bipy, </text>
<text x="0" y="0" stroke="none" fill="#008040" transform="matrix(0.0833333 0 0 0.0833333 53.3554 76.2019)" font-style="normal" font-weight="normal" font-size="140px" font-family="Arial" >
Phen, </text>
<text x="0" y="0" stroke="none" fill="#008040" transform="matrix(0.0833333 0 0 0.0833333 87.1369 76.2019)" font-style="normal" font-weight="normal" font-size="140px" font-family="Arial" >
1-methylimidazole,</text>
<text x="0" y="0" stroke="none" fill="#008040" transform="matrix(0.0833333 0 0 0.0833333 9.32085 89.9519)" font-style="normal" font-weight="normal" font-size="140px" font-family="Arial" >
1-vinylimidazole, </text>
<text x="0" y="0" stroke="none" fill="#008040" transform="matrix(0.0833333 0 0 0.0833333 99.0306 89.9519)" font-style="normal" font-weight="normal" font-size="140px" font-family="Arial" >
1-allylimidazole</text>
<text x="0" y="0" stroke="none" fill="#000000" transform="matrix(0.0833333 0 0 0.0833333 24.0382 30.875)" font-style="normal" font-weight="normal" font-size="140px" font-family="Arial" >
Me</text>
<text x="0" y="0" stroke="none" fill="#000000" transform="matrix(0.0833333 0 0 0.0833333 40.2882 33.4583)" font-style="normal" font-weight="normal" font-size="105px" font-family="Arial" >
2</text>
<text x="0" y="0" stroke="none" fill="#000000" transform="matrix(0.0833333 0 0 0.0833333 45.1632 30.875)" font-style="normal" font-weight="normal" font-size="140px" font-family="Arial" >
Si</text>
<text x="0" y="0" stroke="none" fill="#000000" transform="matrix(0.0833333 0 0 0.0833333 64.2444 13.2669)" font-style="normal" font-weight="normal" font-size="140px" font-family="Arial" >
OSiMe</text>
<text x="0" y="0" stroke="none" fill="#000000" transform="matrix(0.0833333 0 0 0.0833333 99.9513 15.8503)" font-style="normal" font-weight="normal" font-size="105px" font-family="Arial" >
2</text>
<text x="0" y="0" stroke="none" fill="#000000" transform="matrix(0.0833333 0 0 0.0833333 104.826 13.2669)" font-style="normal" font-weight="normal" font-size="140px" font-family="Arial" >
CH</text>
<text x="0" y="0" stroke="none" fill="#000000" transform="matrix(0.0833333 0 0 0.0833333 121.677 15.8503)" font-style="normal" font-weight="normal" font-size="105px" font-family="Arial" >
2</text>
<path stroke="none" fill="#000000" transform="matrix(0.0833333 0 0 0.0833333 -273.175 -272)" d="M 4048.7,3428.05 L 4055.63,3433.77 L 3971.94,3535.11 L 3965.01,3529.39 L 4048.7,3428.05 Z " />
<text x="0" y="0" stroke="none" fill="#000000" transform="matrix(0.0833333 0 0 0.0833333 64.2444 48.483)" font-style="normal" font-weight="normal" font-size="140px" font-family="Arial" >
OSiMe</text>
<text x="0" y="0" stroke="none" fill="#000000" transform="matrix(0.0833333 0 0 0.0833333 99.9513 51.0664)" font-style="normal" font-weight="normal" font-size="105px" font-family="Arial" >
2</text>
<text x="0" y="0" stroke="none" fill="#000000" transform="matrix(0.0833333 0 0 0.0833333 104.826 48.483)" font-style="normal" font-weight="normal" font-size="140px" font-family="Arial" >
CH</text>
<text x="0" y="0" stroke="none" fill="#000000" transform="matrix(0.0833333 0 0 0.0833333 121.677 51.0664)" font-style="normal" font-weight="normal" font-size="105px" font-family="Arial" >
2</text>
<path stroke="none" fill="#000000" transform="matrix(0.0833333 0 0 0.0833333 -273.175 -272)" d="M 4061.6,3733.46 L 4054.67,3739.18 L 3969.59,3636.16 L 3976.52,3630.44 L 4061.6,3733.46 Z " />
<text x="0" y="0" stroke="none" fill="#000000" transform="matrix(0.0833333 0 0 0.0833333 120.174 30.7688)" font-style="normal" font-weight="normal" font-size="140px" font-family="Arial" >
SnCl</text>
<text x="0" y="0" stroke="none" fill="#000000" transform="matrix(0.0833333 0 0 0.0833333 145.473 33.3522)" font-style="normal" font-weight="normal" font-size="105px" font-family="Arial" >
2</text>
<path stroke="none" fill="#000000" transform="matrix(0.0833333 0 0 0.0833333 -273.175 -272)" d="M 4723.72,3521.72 L 4716.9,3527.57 L 4658.5,3459.48 L 4665.32,3453.63 L 4723.72,3521.72 Z " />
<path stroke="none" fill="#000000" transform="matrix(0.0833333 0 0 0.0833333 -273.175 -272)" d="M 4711.11,3637.37 L 4717.97,3643.18 L 4658.65,3713.18 L 4651.8,3707.37 L 4711.11,3637.37 Z " />
<text x="0" y="0" stroke="none" fill="#008040" transform="matrix(0.0833333 0 0 0.0833333 157.032 30.9166)" font-style="normal" font-weight="bold" font-size="140px" font-family="Arial" >
L</text>
<path stroke="none" fill="#008040" transform="matrix(0.0833333 0 0 0.0833333 -273.175 -272)" d="M 5105.81,3572.5 A 11.6667,11.6667 0 1 0 5129.15,3572.5A 11.6667,11.6667 0 1 0 5105.81,3572.5Z " />
</svg>
