<?xml version="1.0" standalone="no" ?>
<!DOCTYPE svg PUBLIC "-//W3C//DTD SVG 1.1//EN" "http://www.w3.org/Graphics/SVG/1.1/DTD/svg11.dtd">
<svg width="340px" height="55px" viewBox="0 0 340 55" style="background-color: #ffffff00" xmlns="http://www.w3.org/2000/svg" xmlns:xlink="http://www.w3.org/1999/xlink" version="1.1" >
<text x="0" y="0" stroke="none" fill="#000000" transform="matrix(0.0833333 0 0 0.0833333 4.33155 31.25)" font-style="normal" font-weight="normal" font-size="140px" font-family="Arial" >
Me</text>
<text x="0" y="0" stroke="none" fill="#000000" transform="matrix(0.0833333 0 0 0.0833333 20.5815 33.8333)" font-style="normal" font-weight="normal" font-size="105px" font-family="Arial" >
2</text>
<text x="0" y="0" stroke="none" fill="#000000" transform="matrix(0.0833333 0 0 0.0833333 25.4565 31.25)" font-style="normal" font-weight="normal" font-size="140px" font-family="Arial" >
Si</text>
<text x="0" y="0" stroke="none" fill="#000000" transform="matrix(0.0833333 0 0 0.0833333 44.5378 13.6419)" font-style="normal" font-weight="normal" font-size="140px" font-family="Arial" >
OSiMe</text>
<text x="0" y="0" stroke="none" fill="#000000" transform="matrix(0.0833333 0 0 0.0833333 80.2446 16.2253)" font-style="normal" font-weight="normal" font-size="105px" font-family="Arial" >
2</text>
<text x="0" y="0" stroke="none" fill="#000000" transform="matrix(0.0833333 0 0 0.0833333 85.1196 13.6419)" font-style="normal" font-weight="normal" font-size="140px" font-family="Arial" >
CH</text>
<text x="0" y="0" stroke="none" fill="#000000" transform="matrix(0.0833333 0 0 0.0833333 101.97 16.2253)" font-style="normal" font-weight="normal" font-size="105px" font-family="Arial" >
2</text>
<path stroke="none" fill="#000000" transform="matrix(0.0833333 0 0 0.0833333 -160.175 -181)" d="M 2456.22,2340.55 L 2463.15,2346.27 L 2379.46,2447.61 L 2372.53,2441.89 L 2456.22,2340.55 Z " />
<text x="0" y="0" stroke="none" fill="#000000" transform="matrix(0.0833333 0 0 0.0833333 44.5378 48.858)" font-style="normal" font-weight="normal" font-size="140px" font-family="Arial" >
OSiMe</text>
<text x="0" y="0" stroke="none" fill="#000000" transform="matrix(0.0833333 0 0 0.0833333 80.2446 51.4414)" font-style="normal" font-weight="normal" font-size="105px" font-family="Arial" >
2</text>
<text x="0" y="0" stroke="none" fill="#000000" transform="matrix(0.0833333 0 0 0.0833333 85.1196 48.858)" font-style="normal" font-weight="normal" font-size="140px" font-family="Arial" >
CH</text>
<text x="0" y="0" stroke="none" fill="#000000" transform="matrix(0.0833333 0 0 0.0833333 101.97 51.4414)" font-style="normal" font-weight="normal" font-size="105px" font-family="Arial" >
2</text>
<path stroke="none" fill="#000000" transform="matrix(0.0833333 0 0 0.0833333 -160.175 -181)" d="M 2469.12,2645.96 L 2462.19,2651.68 L 2377.11,2548.66 L 2384.04,2542.94 L 2469.12,2645.96 Z " />
<text x="0" y="0" stroke="none" fill="#000000" transform="matrix(0.0833333 0 0 0.0833333 100.468 31.1438)" font-style="normal" font-weight="normal" font-size="140px" font-family="Arial" >
SnCl</text>
<text x="0" y="0" stroke="none" fill="#000000" transform="matrix(0.0833333 0 0 0.0833333 125.767 33.7272)" font-style="normal" font-weight="normal" font-size="105px" font-family="Arial" >
2</text>
<path stroke="none" fill="#000000" transform="matrix(0.0833333 0 0 0.0833333 -160.175 -181)" d="M 3131.24,2434.22 L 3124.42,2440.07 L 3066.02,2371.98 L 3072.84,2366.13 L 3131.24,2434.22 Z " />
<path stroke="none" fill="#000000" transform="matrix(0.0833333 0 0 0.0833333 -160.175 -181)" d="M 3118.63,2549.87 L 3125.49,2555.68 L 3066.17,2625.68 L 3059.32,2619.87 L 3118.63,2549.87 Z " />
<text x="0" y="0" stroke="none" fill="#000000" transform="matrix(0.0833333 0 0 0.0833333 196.207 31.25)" font-style="normal" font-weight="normal" font-size="140px" font-family="Arial" >
Me</text>
<text x="0" y="0" stroke="none" fill="#000000" transform="matrix(0.0833333 0 0 0.0833333 212.457 33.8333)" font-style="normal" font-weight="normal" font-size="105px" font-family="Arial" >
2</text>
<text x="0" y="0" stroke="none" fill="#000000" transform="matrix(0.0833333 0 0 0.0833333 217.332 31.25)" font-style="normal" font-weight="normal" font-size="140px" font-family="Arial" >
Si</text>
<text x="0" y="0" stroke="none" fill="#000000" transform="matrix(0.0833333 0 0 0.0833333 236.413 13.6419)" font-style="normal" font-weight="normal" font-size="140px" font-family="Arial" >
OSiMe</text>
<text x="0" y="0" stroke="none" fill="#000000" transform="matrix(0.0833333 0 0 0.0833333 272.12 16.2253)" font-style="normal" font-weight="normal" font-size="105px" font-family="Arial" >
2</text>
<text x="0" y="0" stroke="none" fill="#000000" transform="matrix(0.0833333 0 0 0.0833333 276.995 13.6419)" font-style="normal" font-weight="normal" font-size="140px" font-family="Arial" >
CH</text>
<text x="0" y="0" stroke="none" fill="#000000" transform="matrix(0.0833333 0 0 0.0833333 293.845 16.2253)" font-style="normal" font-weight="normal" font-size="105px" font-family="Arial" >
2</text>
<path stroke="none" fill="#000000" transform="matrix(0.0833333 0 0 0.0833333 -160.175 -181)" d="M 4758.72,2340.55 L 4765.65,2346.27 L 4681.96,2447.61 L 4675.03,2441.89 L 4758.72,2340.55 Z " />
<text x="0" y="0" stroke="none" fill="#000000" transform="matrix(0.0833333 0 0 0.0833333 236.413 48.858)" font-style="normal" font-weight="normal" font-size="140px" font-family="Arial" >
OSiMe</text>
<text x="0" y="0" stroke="none" fill="#000000" transform="matrix(0.0833333 0 0 0.0833333 272.12 51.4414)" font-style="normal" font-weight="normal" font-size="105px" font-family="Arial" >
2</text>
<text x="0" y="0" stroke="none" fill="#000000" transform="matrix(0.0833333 0 0 0.0833333 276.995 48.858)" font-style="normal" font-weight="normal" font-size="140px" font-family="Arial" >
CH</text>
<text x="0" y="0" stroke="none" fill="#000000" transform="matrix(0.0833333 0 0 0.0833333 293.845 51.4414)" font-style="normal" font-weight="normal" font-size="105px" font-family="Arial" >
2</text>
<path stroke="none" fill="#000000" transform="matrix(0.0833333 0 0 0.0833333 -160.175 -181)" d="M 4771.62,2645.96 L 4764.69,2651.68 L 4679.61,2548.66 L 4686.54,2542.94 L 4771.62,2645.96 Z " />
<text x="0" y="0" stroke="none" fill="#000000" transform="matrix(0.0833333 0 0 0.0833333 292.343 31.1438)" font-style="normal" font-weight="normal" font-size="140px" font-family="Arial" >
SnCl</text>
<text x="0" y="0" stroke="none" fill="#000000" transform="matrix(0.0833333 0 0 0.0833333 317.642 33.7272)" font-style="normal" font-weight="normal" font-size="105px" font-family="Arial" >
2</text>
<path stroke="none" fill="#000000" transform="matrix(0.0833333 0 0 0.0833333 -160.175 -181)" d="M 5433.74,2434.22 L 5426.92,2440.07 L 5368.52,2371.98 L 5375.34,2366.13 L 5433.74,2434.22 Z " />
<path stroke="none" fill="#000000" transform="matrix(0.0833333 0 0 0.0833333 -160.175 -181)" d="M 5421.13,2549.87 L 5427.99,2555.68 L 5368.67,2625.68 L 5361.82,2619.87 L 5421.13,2549.87 Z " />
<text x="0" y="0" stroke="none" fill="#000000" transform="matrix(0.0833333 0 0 0.0833333 329.2 31.2916)" font-style="normal" font-weight="normal" font-size="140px" font-family="Arial" >
L</text>
<path stroke="none" fill="#000000" transform="matrix(0.0833333 0 0 0.0833333 -160.175 -181)" d="M 5815.83,2485 A 11.6667,11.6667 0 1 0 5839.17,2485A 11.6667,11.6667 0 1 0 5815.83,2485Z " />
<text x="0" y="0" stroke="none" fill="#000000" transform="matrix(0.0833333 0 0 0.0833333 137.325 31.2916)" font-style="normal" font-weight="normal" font-size="140px" font-family="Arial" >
+ </text>
<text x="0" y="0" stroke="none" fill="#000000" transform="matrix(0.0833333 0 0 0.0833333 147.408 31.2916)" font-style="normal" font-weight="normal" font-size="140px" font-family="Arial" >
 </text>
<text x="0" y="0" stroke="none" fill="#000000" transform="matrix(0.0833333 0 0 0.0833333 150.658 31.2916)" font-style="normal" font-weight="normal" font-size="140px" font-family="Arial" >
L</text>
<path stroke="none" fill="#000000" transform="matrix(0.0833333 0 0 0.0833333 -160.175 -181)" d="M 4120.62,2493.75 L 3885,2493.75 L 3885,2484.75 L 4120.62,2484.75 Z " />
<path stroke="none" fill="#000000" transform="matrix(0.0833333 0 0 0.0833333 -160.175 -181)" d="M 4198.23,2489.25 C 4198.23,2489.25 4108.39,2512.71 4108.39,2512.71 C 4108.39,2512.71 4119.62,2499.51 4119.62,2489.25 C 4119.62,2478.55 4108.39,2464.79 4108.39,2464.79 C 4108.39,2464.79 4198.23,2489.25 4198.23,2489.25 C 4198.23,2489.25 4198.23,2489.25 4198.23,2489.25 " />
<path stroke="#000000" stroke-width="1" fill="none" transform="matrix(0.0833333 0 0 0.0833333 -160.175 -181)" d="M 4198.23,2489.25 C 4198.23,2489.25 4108.39,2512.71 4108.39,2512.71 C 4108.39,2512.71 4119.62,2499.51 4119.62,2489.25 C 4119.62,2478.55 4108.39,2464.79 4108.39,2464.79 C 4108.39,2464.79 4198.23,2489.25 4198.23,2489.25 C 4198.23,2489.25 4198.23,2489.25 4198.23,2489.25 " />
</svg>
