<?xml version="1.0" standalone="no" ?>
<!DOCTYPE svg PUBLIC "-//W3C//DTD SVG 1.1//EN" "http://www.w3.org/Graphics/SVG/1.1/DTD/svg11.dtd">
<svg width="590px" height="250px" viewBox="0 0 590 250" style="background-color: #ffffff00" xmlns="http://www.w3.org/2000/svg" xmlns:xlink="http://www.w3.org/1999/xlink" version="1.1" >
<path stroke="none" fill="#000000" transform="matrix(0.0666667 0 0 0.0666667 -66.1003 -247)" d="M 1337.8,5797.08 L 1349.65,5795.16 L 1348.99,5820.87 L 1323.94,5876.21 L 1312.91,5852.07 L 1337.8,5797.08 L 1337.8,5797.08 Z " />
<path stroke="none" fill="#000000" transform="matrix(0.0666667 0 0 0.0666667 -66.1003 -247)" d="M 1152.5,6255.05 L 1117.19,6308.81 L 1127.19,6262.46 L 1258.2,5972.96 L 1269.23,5997.1 L 1152.5,6255.05 L 1152.5,6255.05 Z " />
<path stroke="none" fill="#000000" transform="matrix(0.0666667 0 0 0.0666667 -66.1003 -247)" d="M 2094.13,5820.87 L 2093.47,5795.16 L 2105.32,5797.08 L 2130.21,5852.07 L 2119.18,5876.21 L 2094.13,5820.87 L 2094.13,5820.87 Z " />
<path stroke="none" fill="#000000" transform="matrix(0.0666667 0 0 0.0666667 -66.1003 -247)" d="M 2315.93,6262.46 L 2325.93,6308.81 L 2290.62,6255.05 L 2173.89,5997.1 L 2184.92,5972.96 L 2315.93,6262.46 L 2315.93,6262.46 Z " />
<path stroke="none" fill="#000000" transform="matrix(0.0666667 0 0 0.0666667 -66.1003 -247)" d="M 2078.81,5805.16 L 2093.47,5795.16 L 2094.13,5820.87 L 2073.54,5873.4 L 2064.37,5841.98 L 2078.81,5805.16 L 2078.81,5805.16 Z " />
<path stroke="none" fill="#000000" transform="matrix(0.0666667 0 0 0.0666667 -66.1003 -247)" d="M 1945.77,6144.46 L 1962.11,6102.78 L 1982.59,6102.78 L 1945.77,6144.46 L 1945.77,6144.46 Z " />
<path stroke="none" fill="#000000" transform="matrix(0.0666667 0 0 0.0666667 -66.1003 -247)" d="M 2004.64,5994.33 L 2007.11,6002.78 L 2001.32,6002.78 L 2004.64,5994.33 L 2004.64,5994.33 Z " />
<path stroke="none" fill="#000000" transform="matrix(0.0666667 0 0 0.0666667 -66.1003 -247)" d="M 1743.25,6715.75 L 1721.56,6743.68 L 1731.56,6690.78 L 1805.28,6502.76 L 1829.34,6496.19 L 1743.25,6715.75 L 1743.25,6715.75 Z " />
<path stroke="none" fill="#000000" transform="matrix(0.0666667 0 0 0.0666667 -66.1003 -247)" d="M 1877.91,6372.32 L 1874.86,6380.11 L 1869.81,6381.49 L 1877.91,6372.32 L 1877.91,6372.32 Z " />
<path stroke="none" fill="#000000" transform="matrix(0.0666667 0 0 0.0666667 -66.1003 -247)" d="M 1348.99,5820.87 L 1349.65,5795.16 L 1364.31,5805.16 L 1441.8,6002.78 L 1420.31,6002.78 L 1348.99,5820.87 L 1348.99,5820.87 Z " />
<path stroke="none" fill="#000000" transform="matrix(0.0666667 0 0 0.0666667 -66.1003 -247)" d="M 1497.35,6144.46 L 1460.53,6102.78 L 1481.01,6102.78 L 1497.35,6144.46 L 1497.35,6144.46 Z " />
<path stroke="none" fill="#000000" transform="matrix(0.0666667 0 0 0.0666667 -66.1003 -247)" d="M 1711.56,6690.78 L 1721.56,6743.68 L 1699.87,6715.75 L 1613.78,6496.19 L 1637.84,6502.76 L 1711.56,6690.78 L 1711.56,6690.78 Z " />
<path stroke="none" fill="#000000" transform="matrix(0.0666667 0 0 0.0666667 -66.1003 -247)" d="M 1565.21,6372.32 L 1573.31,6381.49 L 1568.26,6380.11 L 1565.21,6372.32 L 1565.21,6372.32 Z " />
<path stroke="none" fill="#000000" transform="matrix(0.0666667 0 0 0.0666667 -66.1003 -247)" d="M 2335.93,6313.94 L 2325.93,6308.81 L 2315.93,6262.46 L 2315.93,5589.95 L 2325.93,5544 L 2335.93,5518.48 L 2335.93,6313.94 Z " />
<path stroke="none" fill="#000000" transform="matrix(0.0666667 0 0 0.0666667 -66.1003 -247)" d="M 1371.82,6062.78 L 1349.65,6052.78 L 1356.07,6042.78 L 2018.77,6042.78 L 2020.17,6047.56 L 2036.54,6042.78 L 2087.05,6042.78 L 2093.47,6052.78 L 2071.3,6062.78 L 1371.82,6062.78 L 1371.82,6062.78 Z " />
<path stroke="none" fill="#000000" transform="matrix(0.0666667 0 0 0.0666667 -66.1003 -247)" d="M 1699.87,6715.75 L 1721.56,6743.68 L 1721.56,6756 L 1107.19,6313.94 L 1117.19,6308.81 L 1167.99,6333.05 L 1699.87,6715.75 Z " />
<path stroke="none" fill="#000000" transform="matrix(0.0666667 0 0 0.0666667 -66.1003 -247)" d="M 1167.99,6333.05 L 1117.19,6308.81 L 1135.56,6303.46 L 1691.91,6455.32 L 1721.56,6473.78 L 1711.56,6481.42 L 1167.99,6333.05 Z " />
<path stroke="none" fill="#000000" transform="matrix(0.0666667 0 0 0.0666667 -66.1003 -247)" d="M 2307.56,6303.46 L 2325.93,6308.81 L 2275.13,6333.05 L 1731.56,6481.42 L 1721.56,6473.78 L 1751.21,6455.32 L 2307.56,6303.46 Z " />
<path stroke="none" fill="#000000" transform="matrix(0.0666667 0 0 0.0666667 -66.1003 -247)" d="M 2275.13,6333.05 L 2325.93,6308.81 L 2335.93,6313.94 L 1721.56,6756 L 1721.56,6743.68 L 1743.25,6715.75 L 2275.13,6333.05 Z " />
<path stroke="none" fill="#000000" transform="matrix(0.0666667 0 0 0.0666667 -66.1003 -247)" d="M 1731.56,6690.78 L 1721.56,6743.68 L 1711.56,6690.78 L 1711.56,6481.42 L 1721.56,6473.78 L 1731.56,6481.42 L 1731.56,6690.78 Z " />
<path stroke="none" fill="#000000" transform="matrix(0.0666667 0 0 0.0666667 -66.1003 -247)" d="M 1354.02,5785.16 L 1349.65,5795.16 L 1337.8,5797.08 L 1152.19,5596.54 L 1117.19,5544 L 1107.19,5518.48 L 1354.02,5785.16 L 1354.02,5785.16 Z " />
<path stroke="none" fill="#000000" transform="matrix(0.0666667 0 0 0.0666667 -66.1003 -247)" d="M 2105.32,5797.08 L 2093.47,5795.16 L 2089.1,5785.16 L 2335.93,5518.48 L 2325.93,5544 L 2290.93,5596.54 L 2105.32,5797.08 L 2105.32,5797.08 Z " />
<path stroke="none" fill="#000000" transform="matrix(0.0666667 0 0 0.0666667 -66.1003 -247)" d="M 1127.19,6262.46 L 1117.19,6308.81 L 1107.19,6313.94 L 1107.19,5518.48 L 1117.19,5544 L 1127.19,5589.95 L 1127.19,6262.46 Z " />
<path stroke="none" fill="#000000" transform="matrix(0.0666667 0 0 0.0666667 -66.1003 -247)" d="M 1127.19,5589.95 L 1117.19,5544 L 1152.19,5596.54 L 1356.07,6042.78 L 1349.65,6052.78 L 1337.81,6050.94 L 1127.19,5589.95 Z " />
<path stroke="none" fill="#000000" transform="matrix(0.0666667 0 0 0.0666667 -66.1003 -247)" d="M 2290.93,5596.54 L 2325.93,5544 L 2315.93,5589.95 L 2105.31,6050.94 L 2093.47,6052.78 L 2087.05,6042.78 L 2094.81,6025.79 L 2116.17,6019.56 L 2108.96,5994.84 L 2290.93,5596.54 L 2290.93,5596.54 Z " />
<path stroke="none" fill="#000000" transform="matrix(0.0666667 0 0 0.0666667 -66.1003 -247)" d="M 1364.31,5805.16 L 1349.65,5795.16 L 1354.02,5785.16 L 1943.63,5785.16 L 1949.46,5805.16 L 1364.31,5805.16 L 1364.31,5805.16 Z " />
<path stroke="none" fill="#000000" transform="matrix(0.0666667 0 0 0.0666667 -66.1003 -247)" d="M 2089.1,5785.16 L 2093.47,5795.16 L 2078.81,5805.16 L 2053.63,5805.16 L 2047.8,5785.16 L 2089.1,5785.16 L 2089.1,5785.16 Z " />
<path stroke="none" fill="#ffffff" transform="matrix(0.0666667 0 0 0.0666667 -66.1003 -247)" d="M 2262.04,5544 A 63.8855,66.7563 0 1 0 2389.81,5544A 63.8855,66.7563 0 1 0 2262.04,5544Z " />
<path stroke="#000000" stroke-width="20" fill="none" transform="matrix(0.0666667 0 0 0.0666667 -66.1003 -247)" d="M 2262.04,5544 A 63.8855,66.7563 0 1 0 2389.81,5544A 63.8855,66.7563 0 1 0 2262.04,5544Z " />
<path stroke="none" fill="#ffffff" transform="matrix(0.0666667 0 0 0.0666667 -66.1003 -247)" d="M 2028.54,5795.16 A 64.931,67.8485 0 1 0 2158.41,5795.16A 64.931,67.8485 0 1 0 2028.54,5795.16Z " />
<path stroke="#000000" stroke-width="20" fill="none" transform="matrix(0.0666667 0 0 0.0666667 -66.1003 -247)" d="M 2028.54,5795.16 A 64.931,67.8485 0 1 0 2158.41,5795.16A 64.931,67.8485 0 1 0 2028.54,5795.16Z " />
<path stroke="none" fill="#ffffff" transform="matrix(0.0666667 0 0 0.0666667 -66.1003 -247)" d="M 1654.93,6725.38 A 64.4119,67.4408 0 1 0 1783.76,6725.38A 64.4119,67.4408 0 1 0 1654.93,6725.38Z " />
<path stroke="#000000" stroke-width="20" fill="none" transform="matrix(0.0666667 0 0 0.0666667 -66.1003 -247)" d="M 1654.93,6725.38 A 64.4119,67.4408 0 1 0 1783.76,6725.38A 64.4119,67.4408 0 1 0 1654.93,6725.38Z " />
<path stroke="none" fill="#000000" transform="matrix(0.0666667 0 0 0.0666667 -66.1003 -247)" d="M 1751.21,6455.32 L 1721.56,6473.78 L 1721.56,6458.68 L 2071.3,6062.78 L 2093.47,6052.78 L 2093.58,6067.77 L 1751.21,6455.32 L 1751.21,6455.32 Z " />
<path stroke="none" fill="#000000" transform="matrix(0.0666667 0 0 0.0666667 -66.1003 -247)" d="M 1721.56,6458.68 L 1721.56,6473.78 L 1691.91,6455.32 L 1349.54,6067.77 L 1349.65,6052.78 L 1371.82,6062.78 L 1721.56,6458.68 Z " />
<path stroke="none" fill="#000000" transform="matrix(0.0666667 0 0 0.0666667 -66.1003 -247)" d="M 1135.56,6303.46 L 1117.19,6308.81 L 1152.5,6255.05 L 1337.81,6050.94 L 1349.65,6052.78 L 1349.54,6067.77 L 1135.56,6303.46 Z " />
<path stroke="none" fill="#ffffff" transform="matrix(0.0666667 0 0 0.0666667 -66.1003 -247)" d="M 1284.71,5795.16 A 64.9307,67.8485 0 1 0 1414.58,5795.16A 64.9307,67.8485 0 1 0 1284.71,5795.16Z " />
<path stroke="#000000" stroke-width="20" fill="none" transform="matrix(0.0666667 0 0 0.0666667 -66.1003 -247)" d="M 1284.71,5795.16 A 64.9307,67.8485 0 1 0 1414.58,5795.16A 64.9307,67.8485 0 1 0 1284.71,5795.16Z " />
<path stroke="none" fill="#000000" transform="matrix(0.0666667 0 0 0.0666667 -66.1003 -247)" d="M 2290.62,6255.05 L 2325.93,6308.81 L 2307.56,6303.46 L 2093.58,6067.77 L 2093.47,6052.78 L 2105.31,6050.94 L 2290.62,6255.05 L 2290.62,6255.05 Z " />
<path stroke="none" fill="#ffffff" transform="matrix(0.0666667 0 0 0.0666667 -66.1003 -247)" d="M 2028.54,6052.78 A 64.931,67.8482 0 1 0 2158.41,6052.78A 64.931,67.8482 0 1 0 2028.54,6052.78Z " />
<path stroke="#000000" stroke-width="20" fill="none" transform="matrix(0.0666667 0 0 0.0666667 -66.1003 -247)" d="M 2028.54,6052.78 A 64.931,67.8482 0 1 0 2158.41,6052.78A 64.931,67.8482 0 1 0 2028.54,6052.78Z " />
<path stroke="none" fill="#ffffff" transform="matrix(0.0666667 0 0 0.0666667 -66.1003 -247)" d="M 2254.48,6293.12 A 64.4122,67.4411 0 1 0 2383.3,6293.12A 64.4122,67.4411 0 1 0 2254.48,6293.12Z " />
<path stroke="#000000" stroke-width="20" fill="none" transform="matrix(0.0666667 0 0 0.0666667 -66.1003 -247)" d="M 2254.48,6293.12 A 64.4122,67.4411 0 1 0 2383.3,6293.12A 64.4122,67.4411 0 1 0 2254.48,6293.12Z " />
<path stroke="none" fill="#ffffff" transform="matrix(0.0666667 0 0 0.0666667 -66.1003 -247)" d="M 1654.93,6457.11 A 64.4122,67.4414 0 1 0 1783.76,6457.11A 64.4122,67.4414 0 1 0 1654.93,6457.11Z " />
<path stroke="#000000" stroke-width="20" fill="none" transform="matrix(0.0666667 0 0 0.0666667 -66.1003 -247)" d="M 1654.93,6457.11 A 64.4122,67.4414 0 1 0 1783.76,6457.11A 64.4122,67.4414 0 1 0 1654.93,6457.11Z " />
<path stroke="none" fill="#ffffff" transform="matrix(0.0666667 0 0 0.0666667 -66.1003 -247)" d="M 1052.26,6308.81 A 64.931,67.8485 0 1 0 1182.12,6308.81A 64.931,67.8485 0 1 0 1052.26,6308.81Z " />
<path stroke="#000000" stroke-width="20" fill="none" transform="matrix(0.0666667 0 0 0.0666667 -66.1003 -247)" d="M 1052.26,6308.81 A 64.931,67.8485 0 1 0 1182.12,6308.81A 64.931,67.8485 0 1 0 1052.26,6308.81Z " />
<path stroke="none" fill="#000000" transform="matrix(0.0666667 0 0 0.0666667 -66.1003 -247)" d="M 1058.76,5591.98 C 1084.1,5625.68 1130.85,5631.54 1163.1,5605.06 C 1195.36,5578.58 1200.97,5529.73 1175.62,5496.03 C 1150.28,5462.32 1103.53,5456.46 1071.28,5482.94 C 1039.02,5509.42 1033.41,5558.27 1058.76,5591.98 " />
<path stroke="#000000" stroke-width="1" fill="none" transform="matrix(0.0666667 0 0 0.0666667 -66.1003 -247)" d="M 1058.76,5591.98 C 1084.1,5625.68 1130.85,5631.54 1163.1,5605.06 C 1195.36,5578.58 1200.97,5529.73 1175.62,5496.03 C 1150.28,5462.32 1103.53,5456.46 1071.28,5482.94 C 1039.02,5509.42 1033.41,5558.27 1058.76,5591.98 " />
<path stroke="none" fill="#000000" transform="matrix(0.0666667 0 0 0.0666667 -66.1003 -247)" d="M 1291.21,6100.76 C 1316.55,6134.46 1363.3,6140.32 1395.56,6113.84 C 1427.81,6087.36 1433.42,6038.51 1408.08,6004.81 C 1382.74,5971.11 1335.99,5965.24 1303.73,5991.72 C 1271.48,6018.21 1265.87,6067.06 1291.21,6100.76 " />
<path stroke="#000000" stroke-width="1" fill="none" transform="matrix(0.0666667 0 0 0.0666667 -66.1003 -247)" d="M 1291.21,6100.76 C 1316.55,6134.46 1363.3,6140.32 1395.56,6113.84 C 1427.81,6087.36 1433.42,6038.51 1408.08,6004.81 C 1382.74,5971.11 1335.99,5965.24 1303.73,5991.72 C 1271.48,6018.21 1265.87,6067.06 1291.21,6100.76 " />
<path stroke="none" fill="#808080" transform="matrix(0.0666667 0 0 0.0666667 -66.1003 -247)" d="M 1654.82,5082.89 L 1667.48,5098.37 L 1182.66,5494.58 L 1170,5479.1 L 1654.82,5082.89 L 1654.82,5082.89 Z " />
<path stroke="none" fill="#808080" transform="matrix(0.0666667 0 0 0.0666667 -66.1003 -247)" d="M 1879.64,5125.4 L 1893.58,5111.06 L 2272.76,5479.67 L 2258.81,5494.01 L 1879.64,5125.4 Z " />
<path stroke="none" fill="#808080" transform="matrix(0.0666667 0 0 0.0666667 -66.1003 -247)" d="M 1695.87,5150.97 L 1713.23,5160.9 L 1389.7,5726.38 L 1372.34,5716.45 L 1695.87,5150.97 Z " />
<path stroke="none" fill="#808080" transform="matrix(0.0666667 0 0 0.0666667 -66.1003 -247)" d="M 1753.98,4314.16 L 1773.97,4313.71 L 1787.18,4893.26 L 1767.18,4893.72 L 1753.98,4314.16 Z " />
<path stroke="none" fill="#808080" transform="matrix(0.0666667 0 0 0.0666667 -66.1003 -247)" d="M 2255.23,4579.61 L 2268.77,4594.33 L 1882.99,4949.14 L 1869.45,4934.42 L 2255.23,4579.61 Z " />
<path stroke="none" fill="#808080" transform="matrix(0.0666667 0 0 0.0666667 -66.1003 -247)" d="M 1311.91,4628.74 L 1325.65,4614.2 L 1671.8,4941.42 L 1658.07,4955.95 L 1311.91,4628.74 Z " />
<text x="0" y="0" stroke="none" fill="#000000" transform="matrix(0.0666667 0 0 0.0666667 11.0708 58.5367)" font-style="normal" font-weight="normal" font-size="200px" font-family="Arial" >
CO</text>
<text x="0" y="0" stroke="none" fill="#000000" transform="matrix(0.0666667 0 0 0.0666667 45.405 37.1383)" font-style="normal" font-weight="normal" font-size="200px" font-family="Arial" >
CO</text>
<text x="0" y="0" stroke="none" fill="#000000" transform="matrix(0.0666667 0 0 0.0666667 83.4188 54.1568)" font-style="normal" font-weight="normal" font-size="200px" font-family="Arial" >
CO</text>
<path stroke="none" fill="#808080" transform="matrix(0.0666667 0 0 0.0666667 -66.1003 -247)" d="M 2066.57,5992.36 L 2047.37,5997.96 L 1775.43,5065.62 L 1858.58,5279.26 L 2066.57,5992.36 Z " />
<path stroke="none" fill="#808080" transform="matrix(0.0666667 0 0 0.0666667 -66.1003 -247)" d="M 2090.77,5704.5 L 2072.84,5713.35 L 1858.58,5279.26 L 1775.43,5065.62 L 2090.77,5704.5 Z " />
<path stroke="none" fill="#808080" transform="matrix(0.0666667 0 0 0.0666667 -66.1003 -247)" d="M 1588.17,5022.74 A 179.185,179.185 0 1 0 1946.54,5022.74A 179.185,179.185 0 1 0 1588.17,5022.74Z " />
<path stroke="none" fill="#878787" transform="matrix(0.0666667 0 0 0.0666667 -66.1003 -247)" d="M 1590.26,5019.94 A 174.29,174.29 0 1 0 1938.84,5019.94A 174.29,174.29 0 1 0 1590.26,5019.94Z " />
<path stroke="none" fill="#8f8f8f" transform="matrix(0.0666667 0 0 0.0666667 -66.1003 -247)" d="M 1592.36,5017.14 A 169.396,169.396 0 1 0 1931.15,5017.14A 169.396,169.396 0 1 0 1592.36,5017.14Z " />
<path stroke="none" fill="#969696" transform="matrix(0.0666667 0 0 0.0666667 -66.1003 -247)" d="M 1594.45,5014.34 A 164.501,164.501 0 1 0 1923.46,5014.34A 164.501,164.501 0 1 0 1594.45,5014.34Z " />
<path stroke="none" fill="#9d9d9d" transform="matrix(0.0666667 0 0 0.0666667 -66.1003 -247)" d="M 1596.55,5011.54 A 159.606,159.606 0 1 0 1915.76,5011.54A 159.606,159.606 0 1 0 1596.55,5011.54Z " />
<path stroke="none" fill="#a4a4a4" transform="matrix(0.0666667 0 0 0.0666667 -66.1003 -247)" d="M 1598.64,5008.74 A 154.712,154.712 0 1 0 1908.07,5008.74A 154.712,154.712 0 1 0 1598.64,5008.74Z " />
<path stroke="none" fill="#ababab" transform="matrix(0.0666667 0 0 0.0666667 -66.1003 -247)" d="M 1600.74,5005.94 A 149.817,149.817 0 1 0 1900.37,5005.94A 149.817,149.817 0 1 0 1600.74,5005.94Z " />
<path stroke="none" fill="#b1b1b1" transform="matrix(0.0666667 0 0 0.0666667 -66.1003 -247)" d="M 1602.83,5003.14 A 144.923,144.923 0 1 0 1892.68,5003.14A 144.923,144.923 0 1 0 1602.83,5003.14Z " />
<path stroke="none" fill="#b7b7b7" transform="matrix(0.0666667 0 0 0.0666667 -66.1003 -247)" d="M 1604.93,5000.34 A 140.028,140.028 0 1 0 1884.98,5000.34A 140.028,140.028 0 1 0 1604.93,5000.34Z " />
<path stroke="none" fill="#bdbdbd" transform="matrix(0.0666667 0 0 0.0666667 -66.1003 -247)" d="M 1607.02,4997.54 A 135.134,135.134 0 1 0 1877.29,4997.54A 135.134,135.134 0 1 0 1607.02,4997.54Z " />
<path stroke="none" fill="#c2c2c2" transform="matrix(0.0666667 0 0 0.0666667 -66.1003 -247)" d="M 1609.12,4994.74 A 130.239,130.239 0 1 0 1869.6,4994.74A 130.239,130.239 0 1 0 1609.12,4994.74Z " />
<path stroke="none" fill="#c8c8c8" transform="matrix(0.0666667 0 0 0.0666667 -66.1003 -247)" d="M 1611.21,4991.94 A 125.345,125.345 0 1 0 1861.9,4991.94A 125.345,125.345 0 1 0 1611.21,4991.94Z " />
<path stroke="none" fill="#cdcdcd" transform="matrix(0.0666667 0 0 0.0666667 -66.1003 -247)" d="M 1613.31,4989.14 A 120.45,120.45 0 1 0 1854.21,4989.14A 120.45,120.45 0 1 0 1613.31,4989.14Z " />
<path stroke="none" fill="#d2d2d2" transform="matrix(0.0666667 0 0 0.0666667 -66.1003 -247)" d="M 1615.4,4986.34 A 115.556,115.556 0 1 0 1846.51,4986.34A 115.556,115.556 0 1 0 1615.4,4986.34Z " />
<path stroke="none" fill="#d6d6d6" transform="matrix(0.0666667 0 0 0.0666667 -66.1003 -247)" d="M 1617.5,4983.54 A 110.661,110.661 0 1 0 1838.82,4983.54A 110.661,110.661 0 1 0 1617.5,4983.54Z " />
<path stroke="none" fill="#dbdbdb" transform="matrix(0.0666667 0 0 0.0666667 -66.1003 -247)" d="M 1619.59,4980.74 A 105.767,105.767 0 1 0 1831.12,4980.74A 105.767,105.767 0 1 0 1619.59,4980.74Z " />
<path stroke="none" fill="#dfdfdf" transform="matrix(0.0666667 0 0 0.0666667 -66.1003 -247)" d="M 1621.69,4977.94 A 100.872,100.872 0 1 0 1823.43,4977.94A 100.872,100.872 0 1 0 1621.69,4977.94Z " />
<path stroke="none" fill="#e3e3e3" transform="matrix(0.0666667 0 0 0.0666667 -66.1003 -247)" d="M 1623.78,4975.14 A 95.9775,95.9775 0 1 0 1815.74,4975.14A 95.9775,95.9775 0 1 0 1623.78,4975.14Z " />
<path stroke="none" fill="#e6e6e6" transform="matrix(0.0666667 0 0 0.0666667 -66.1003 -247)" d="M 1625.88,4972.34 A 91.083,91.083 0 1 0 1808.04,4972.34A 91.083,91.083 0 1 0 1625.88,4972.34Z " />
<path stroke="none" fill="#eaeaea" transform="matrix(0.0666667 0 0 0.0666667 -66.1003 -247)" d="M 1627.97,4969.54 A 86.1885,86.1885 0 1 0 1800.35,4969.54A 86.1885,86.1885 0 1 0 1627.97,4969.54Z " />
<path stroke="none" fill="#ededed" transform="matrix(0.0666667 0 0 0.0666667 -66.1003 -247)" d="M 1630.07,4966.74 A 81.2939,81.2939 0 1 0 1792.65,4966.74A 81.2939,81.2939 0 1 0 1630.07,4966.74Z " />
<path stroke="none" fill="#efefef" transform="matrix(0.0666667 0 0 0.0666667 -66.1003 -247)" d="M 1632.16,4963.95 A 76.3994,76.3994 0 1 0 1784.96,4963.95A 76.3994,76.3994 0 1 0 1632.16,4963.95Z " />
<path stroke="none" fill="#f2f2f2" transform="matrix(0.0666667 0 0 0.0666667 -66.1003 -247)" d="M 1634.25,4961.15 A 71.5049,71.5049 0 1 0 1777.26,4961.15A 71.5049,71.5049 0 1 0 1634.25,4961.15Z " />
<path stroke="none" fill="#f4f4f4" transform="matrix(0.0666667 0 0 0.0666667 -66.1003 -247)" d="M 1636.35,4958.35 A 66.6104,66.6104 0 1 0 1769.57,4958.35A 66.6104,66.6104 0 1 0 1636.35,4958.35Z " />
<path stroke="none" fill="#f7f7f7" transform="matrix(0.0666667 0 0 0.0666667 -66.1003 -247)" d="M 1638.44,4955.55 A 61.7158,61.7158 0 1 0 1761.88,4955.55A 61.7158,61.7158 0 1 0 1638.44,4955.55Z " />
<path stroke="none" fill="#f8f8f8" transform="matrix(0.0666667 0 0 0.0666667 -66.1003 -247)" d="M 1640.54,4952.75 A 56.8213,56.8213 0 1 0 1754.18,4952.75A 56.8213,56.8213 0 1 0 1640.54,4952.75Z " />
<path stroke="none" fill="#fafafa" transform="matrix(0.0666667 0 0 0.0666667 -66.1003 -247)" d="M 1642.63,4949.95 A 51.9268,51.9268 0 1 0 1746.49,4949.95A 51.9268,51.9268 0 1 0 1642.63,4949.95Z " />
<path stroke="none" fill="#fbfbfb" transform="matrix(0.0666667 0 0 0.0666667 -66.1003 -247)" d="M 1644.73,4947.15 A 47.0322,47.0322 0 1 0 1738.79,4947.15A 47.0322,47.0322 0 1 0 1644.73,4947.15Z " />
<path stroke="none" fill="#fdfdfd" transform="matrix(0.0666667 0 0 0.0666667 -66.1003 -247)" d="M 1646.82,4944.35 A 42.1377,42.1377 0 1 0 1731.1,4944.35A 42.1377,42.1377 0 1 0 1646.82,4944.35Z " />
<path stroke="none" fill="#fdfdfd" transform="matrix(0.0666667 0 0 0.0666667 -66.1003 -247)" d="M 1648.92,4941.55 A 37.2432,37.2432 0 1 0 1723.4,4941.55A 37.2432,37.2432 0 1 0 1648.92,4941.55Z " />
<path stroke="none" fill="#fefefe" transform="matrix(0.0666667 0 0 0.0666667 -66.1003 -247)" d="M 1651.01,4938.75 A 32.3486,32.3486 0 1 0 1715.71,4938.75A 32.3486,32.3486 0 1 0 1651.01,4938.75Z " />
<path stroke="none" fill="#fefefe" transform="matrix(0.0666667 0 0 0.0666667 -66.1003 -247)" d="M 1653.11,4935.95 A 27.4541,27.4541 0 1 0 1708.02,4935.95A 27.4541,27.4541 0 1 0 1653.11,4935.95Z " />
<path stroke="#808080" stroke-width="20" fill="none" transform="matrix(0.0666667 0 0 0.0666667 -66.1003 -247)" d="M 1588.17,5022.74 A 179.185,179.185 0 1 0 1946.54,5022.74A 179.185,179.185 0 1 0 1588.17,5022.74Z " />
<text x="0" y="0" stroke="none" fill="#000000" transform="matrix(0.0666667 0 0 0.0666667 127.331 134.997)" font-style="normal" font-weight="normal" font-size="262px" font-family="Arial" >
tmndH</text>
<text x="0" y="0" stroke="none" fill="#000000" transform="matrix(0.0666667 0 0 0.0666667 123.968 24.588)" font-style="normal" font-weight="normal" font-size="366px" font-family="Times New Roman" >
-</text>
<text x="0" y="0" stroke="none" fill="#000000" transform="matrix(0.0666667 0 0 0.0666667 177.111 121.892)" font-style="normal" font-weight="normal" font-size="314px" font-family="Times New Roman" >
+</text>
<path stroke="none" fill="#000000" transform="matrix(0.0666667 0 0 0.0666667 -66.1003 -247)" d="M 5557.41,5725 L 3950.7,5725 L 3950.7,5705 L 5557.41,5705 Z " />
<path stroke="none" fill="#000000" transform="matrix(0.0666667 0 0 0.0666667 -66.1003 -247)" d="M 5731.41,5715 C 5731.41,5715 5531.41,5766 5531.41,5766 C 5531.41,5766 5556.41,5737.31 5556.41,5715 C 5556.41,5692.25 5531.41,5663 5531.41,5663 C 5531.41,5663 5731.41,5715 5731.41,5715 C 5731.41,5715 5731.41,5715 5731.41,5715 " />
<path stroke="#000000" stroke-width="1" fill="none" transform="matrix(0.0666667 0 0 0.0666667 -66.1003 -247)" d="M 5731.41,5715 C 5731.41,5715 5531.41,5766 5531.41,5766 C 5531.41,5766 5556.41,5737.31 5556.41,5715 C 5556.41,5692.25 5531.41,5663 5531.41,5663 C 5531.41,5663 5731.41,5715 5731.41,5715 C 5731.41,5715 5731.41,5715 5731.41,5715 " />
<path stroke="none" fill="#000000" transform="matrix(0.0666667 0 0 0.0666667 -66.1003 -247)" d="M 6392.83,5791.15 L 6404.68,5789.23 L 6404.02,5814.94 L 6377.95,5872.54 L 6366.92,5848.41 L 6392.83,5791.15 L 6392.83,5791.15 Z " />
<path stroke="none" fill="#000000" transform="matrix(0.0666667 0 0 0.0666667 -66.1003 -247)" d="M 6203.45,6258.12 L 6168.15,6311.88 L 6178.15,6265.53 L 6312.21,5969.3 L 6323.24,5993.44 L 6203.45,6258.12 L 6203.45,6258.12 Z " />
<path stroke="none" fill="#000000" transform="matrix(0.0666667 0 0 0.0666667 -66.1003 -247)" d="M 7162.2,5814.94 L 7161.54,5789.23 L 7173.39,5791.15 L 7199.3,5848.41 L 7188.27,5872.54 L 7162.2,5814.94 L 7162.2,5814.94 Z " />
<path stroke="none" fill="#000000" transform="matrix(0.0666667 0 0 0.0666667 -66.1003 -247)" d="M 7388.07,6265.53 L 7398.07,6311.88 L 7362.77,6258.12 L 7242.98,5993.44 L 7254.01,5969.3 L 7388.07,6265.53 L 7388.07,6265.53 Z " />
<path stroke="none" fill="#000000" transform="matrix(0.0666667 0 0 0.0666667 -66.1003 -247)" d="M 7146.88,5799.23 L 7161.54,5789.23 L 7162.2,5814.94 L 7140.65,5869.9 L 7131.49,5838.48 L 7146.88,5799.23 L 7146.88,5799.23 Z " />
<path stroke="none" fill="#000000" transform="matrix(0.0666667 0 0 0.0666667 -66.1003 -247)" d="M 6804.8,6726.45 L 6783.11,6754.38 L 6793.11,6701.48 L 6868.91,6508.16 L 6892.97,6501.59 L 6804.8,6726.45 L 6804.8,6726.45 Z " />
<path stroke="none" fill="#000000" transform="matrix(0.0666667 0 0 0.0666667 -66.1003 -247)" d="M 6942.8,6374.51 L 6938.48,6385.51 L 6931.36,6387.45 L 6942.8,6374.51 L 6942.8,6374.51 Z " />
<path stroke="none" fill="#000000" transform="matrix(0.0666667 0 0 0.0666667 -66.1003 -247)" d="M 7071.76,5990.82 L 7074.83,6001.37 L 7067.62,6001.37 L 7071.76,5990.82 L 7071.76,5990.82 Z " />
<path stroke="none" fill="#000000" transform="matrix(0.0666667 0 0 0.0666667 -66.1003 -247)" d="M 7049.29,6102.92 L 7010.66,6146.65 L 7028.41,6101.37 L 7049.9,6101.37 L 7049.29,6102.92 L 7049.29,6102.92 Z " />
<path stroke="none" fill="#000000" transform="matrix(0.0666667 0 0 0.0666667 -66.1003 -247)" d="M 6404.02,5814.94 L 6404.68,5789.23 L 6419.34,5799.23 L 6498.6,6001.37 L 6477.12,6001.37 L 6404.02,5814.94 L 6404.02,5814.94 Z " />
<path stroke="none" fill="#000000" transform="matrix(0.0666667 0 0 0.0666667 -66.1003 -247)" d="M 6555.56,6146.65 L 6516.93,6102.92 L 6516.33,6101.37 L 6537.81,6101.37 L 6555.56,6146.65 L 6555.56,6146.65 Z " />
<path stroke="none" fill="#000000" transform="matrix(0.0666667 0 0 0.0666667 -66.1003 -247)" d="M 6627.74,6385.51 L 6623.42,6374.51 L 6634.86,6387.45 L 6627.74,6385.51 L 6627.74,6385.51 Z " />
<path stroke="none" fill="#000000" transform="matrix(0.0666667 0 0 0.0666667 -66.1003 -247)" d="M 6773.11,6701.48 L 6783.11,6754.38 L 6761.42,6726.45 L 6673.25,6501.59 L 6697.31,6508.16 L 6773.11,6701.48 L 6773.11,6701.48 Z " />
<path stroke="none" fill="#000000" transform="matrix(0.0666667 0 0 0.0666667 -66.1003 -247)" d="M 7408.07,6317.01 L 7398.07,6311.88 L 7388.07,6265.53 L 7388.07,5579.62 L 7398.07,5533.67 L 7408.07,5508.14 L 7408.07,6317.01 Z " />
<path stroke="none" fill="#000000" transform="matrix(0.0666667 0 0 0.0666667 -66.1003 -247)" d="M 6426.85,6061.37 L 6404.68,6051.37 L 6411.1,6041.37 L 7086.5,6041.37 L 7087.6,6045.13 L 7100.51,6041.37 L 7155.12,6041.37 L 7161.54,6051.37 L 7139.37,6061.37 L 6426.85,6061.37 L 6426.85,6061.37 Z " />
<path stroke="none" fill="#000000" transform="matrix(0.0666667 0 0 0.0666667 -66.1003 -247)" d="M 6761.42,6726.45 L 6783.11,6754.38 L 6783.11,6766.7 L 6158.15,6317.01 L 6168.15,6311.88 L 6218.95,6336.12 L 6761.42,6726.45 Z " />
<path stroke="none" fill="#000000" transform="matrix(0.0666667 0 0 0.0666667 -66.1003 -247)" d="M 6218.95,6336.12 L 6168.15,6311.88 L 6186.51,6306.53 L 6753.46,6461.29 L 6783.11,6479.75 L 6773.11,6487.38 L 6218.95,6336.12 Z " />
<path stroke="none" fill="#000000" transform="matrix(0.0666667 0 0 0.0666667 -66.1003 -247)" d="M 7379.71,6306.53 L 7398.07,6311.88 L 7347.28,6336.12 L 6793.11,6487.38 L 6783.11,6479.75 L 6812.76,6461.29 L 7379.71,6306.53 Z " />
<path stroke="none" fill="#000000" transform="matrix(0.0666667 0 0 0.0666667 -66.1003 -247)" d="M 7347.28,6336.12 L 7398.07,6311.88 L 7408.07,6317.01 L 6783.11,6766.7 L 6783.11,6754.38 L 6804.8,6726.45 L 7347.28,6336.12 Z " />
<path stroke="none" fill="#000000" transform="matrix(0.0666667 0 0 0.0666667 -66.1003 -247)" d="M 6793.11,6701.48 L 6783.11,6754.38 L 6773.11,6701.48 L 6773.11,6487.38 L 6783.11,6479.75 L 6793.11,6487.38 L 6793.11,6701.48 Z " />
<path stroke="none" fill="#000000" transform="matrix(0.0666667 0 0 0.0666667 -66.1003 -247)" d="M 6409.05,5779.23 L 6404.68,5789.23 L 6392.83,5791.15 L 6203.14,5586.2 L 6168.15,5533.67 L 6158.15,5508.14 L 6409.05,5779.23 L 6409.05,5779.23 Z " />
<path stroke="none" fill="#000000" transform="matrix(0.0666667 0 0 0.0666667 -66.1003 -247)" d="M 7173.39,5791.15 L 7161.54,5789.23 L 7157.17,5779.23 L 7408.07,5508.14 L 7398.07,5533.67 L 7363.08,5586.2 L 7173.39,5791.15 L 7173.39,5791.15 Z " />
<path stroke="none" fill="#000000" transform="matrix(0.0666667 0 0 0.0666667 -66.1003 -247)" d="M 6178.15,6265.53 L 6168.15,6311.88 L 6158.15,6317.01 L 6158.15,5508.14 L 6168.15,5533.67 L 6178.15,5579.62 L 6178.15,6265.53 Z " />
<path stroke="none" fill="#000000" transform="matrix(0.0666667 0 0 0.0666667 -66.1003 -247)" d="M 6178.15,5579.62 L 6168.15,5533.67 L 6203.14,5586.2 L 6411.1,6041.37 L 6404.68,6051.37 L 6392.84,6049.53 L 6178.15,5579.62 Z " />
<path stroke="none" fill="#000000" transform="matrix(0.0666667 0 0 0.0666667 -66.1003 -247)" d="M 7363.08,5586.2 L 7398.07,5533.67 L 7388.07,5579.62 L 7173.38,6049.53 L 7161.54,6051.37 L 7155.12,6041.37 L 7163.52,6022.99 L 7183.6,6017.13 L 7176.81,5993.88 L 7363.08,5586.2 L 7363.08,5586.2 Z " />
<path stroke="none" fill="#000000" transform="matrix(0.0666667 0 0 0.0666667 -66.1003 -247)" d="M 6419.34,5799.23 L 6404.68,5789.23 L 6409.05,5779.23 L 7010.04,5779.23 L 7015.87,5799.23 L 6419.34,5799.23 L 6419.34,5799.23 Z " />
<path stroke="none" fill="#000000" transform="matrix(0.0666667 0 0 0.0666667 -66.1003 -247)" d="M 7157.17,5779.23 L 7161.54,5789.23 L 7146.88,5799.23 L 7120.04,5799.23 L 7114.21,5779.23 L 7157.17,5779.23 L 7157.17,5779.23 Z " />
<path stroke="none" fill="#ffffff" transform="matrix(0.0666667 0 0 0.0666667 -66.1003 -247)" d="M 7333.07,5533.67 A 65.0052,67.9263 0 1 0 7463.08,5533.67A 65.0052,67.9263 0 1 0 7333.07,5533.67Z " />
<path stroke="#000000" stroke-width="20" fill="none" transform="matrix(0.0666667 0 0 0.0666667 -66.1003 -247)" d="M 7333.07,5533.67 A 65.0052,67.9263 0 1 0 7463.08,5533.67A 65.0052,67.9263 0 1 0 7333.07,5533.67Z " />
<path stroke="none" fill="#ffffff" transform="matrix(0.0666667 0 0 0.0666667 -66.1003 -247)" d="M 7095.48,5789.23 A 66.0693,69.0378 0 1 0 7227.61,5789.23A 66.0693,69.0378 0 1 0 7095.48,5789.23Z " />
<path stroke="#000000" stroke-width="20" fill="none" transform="matrix(0.0666667 0 0 0.0666667 -66.1003 -247)" d="M 7095.48,5789.23 A 66.0693,69.0378 0 1 0 7227.61,5789.23A 66.0693,69.0378 0 1 0 7095.48,5789.23Z " />
<path stroke="none" fill="#ffffff" transform="matrix(0.0666667 0 0 0.0666667 -66.1003 -247)" d="M 6715.32,6735.76 A 65.5411,68.623 0 1 0 6846.4,6735.76A 65.5411,68.623 0 1 0 6715.32,6735.76Z " />
<path stroke="#000000" stroke-width="20" fill="none" transform="matrix(0.0666667 0 0 0.0666667 -66.1003 -247)" d="M 6715.32,6735.76 A 65.5411,68.623 0 1 0 6846.4,6735.76A 65.5411,68.623 0 1 0 6715.32,6735.76Z " />
<path stroke="none" fill="#000000" transform="matrix(0.0666667 0 0 0.0666667 -66.1003 -247)" d="M 6812.76,6461.29 L 6783.11,6479.75 L 6783.11,6464.64 L 7139.37,6061.37 L 7161.54,6051.37 L 7161.65,6066.36 L 6812.76,6461.29 L 6812.76,6461.29 Z " />
<path stroke="none" fill="#000000" transform="matrix(0.0666667 0 0 0.0666667 -66.1003 -247)" d="M 6783.11,6464.64 L 6783.11,6479.75 L 6753.46,6461.29 L 6404.57,6066.36 L 6404.68,6051.37 L 6426.85,6061.37 L 6783.11,6464.64 Z " />
<path stroke="none" fill="#000000" transform="matrix(0.0666667 0 0 0.0666667 -66.1003 -247)" d="M 6186.51,6306.53 L 6168.15,6311.88 L 6203.45,6258.12 L 6392.84,6049.53 L 6404.68,6051.37 L 6404.57,6066.36 L 6186.51,6306.53 Z " />
<path stroke="none" fill="#ffffff" transform="matrix(0.0666667 0 0 0.0666667 -66.1003 -247)" d="M 6338.61,5789.23 A 66.0687,69.0378 0 1 0 6470.74,5789.23A 66.0687,69.0378 0 1 0 6338.61,5789.23Z " />
<path stroke="#000000" stroke-width="20" fill="none" transform="matrix(0.0666667 0 0 0.0666667 -66.1003 -247)" d="M 6338.61,5789.23 A 66.0687,69.0378 0 1 0 6470.74,5789.23A 66.0687,69.0378 0 1 0 6338.61,5789.23Z " />
<path stroke="none" fill="#000000" transform="matrix(0.0666667 0 0 0.0666667 -66.1003 -247)" d="M 7362.77,6258.12 L 7398.07,6311.88 L 7379.71,6306.53 L 7161.65,6066.36 L 7161.54,6051.37 L 7173.38,6049.53 L 7362.77,6258.12 L 7362.77,6258.12 Z " />
<path stroke="none" fill="#ffffff" transform="matrix(0.0666667 0 0 0.0666667 -66.1003 -247)" d="M 7095.48,6051.37 A 66.0693,69.0378 0 1 0 7227.61,6051.37A 66.0693,69.0378 0 1 0 7095.48,6051.37Z " />
<path stroke="#000000" stroke-width="20" fill="none" transform="matrix(0.0666667 0 0 0.0666667 -66.1003 -247)" d="M 7095.48,6051.37 A 66.0693,69.0378 0 1 0 7227.61,6051.37A 66.0693,69.0378 0 1 0 7095.48,6051.37Z " />
<path stroke="none" fill="#ffffff" transform="matrix(0.0666667 0 0 0.0666667 -66.1003 -247)" d="M 7325.37,6295.92 A 65.5414,68.6234 0 1 0 7456.45,6295.92A 65.5414,68.6234 0 1 0 7325.37,6295.92Z " />
<path stroke="#000000" stroke-width="20" fill="none" transform="matrix(0.0666667 0 0 0.0666667 -66.1003 -247)" d="M 7325.37,6295.92 A 65.5414,68.6234 0 1 0 7456.45,6295.92A 65.5414,68.6234 0 1 0 7325.37,6295.92Z " />
<path stroke="none" fill="#ffffff" transform="matrix(0.0666667 0 0 0.0666667 -66.1003 -247)" d="M 6715.32,6462.78 A 65.5414,68.6237 0 1 0 6846.4,6462.78A 65.5414,68.6237 0 1 0 6715.32,6462.78Z " />
<path stroke="#000000" stroke-width="20" fill="none" transform="matrix(0.0666667 0 0 0.0666667 -66.1003 -247)" d="M 6715.32,6462.78 A 65.5414,68.6237 0 1 0 6846.4,6462.78A 65.5414,68.6237 0 1 0 6715.32,6462.78Z " />
<path stroke="none" fill="#ffffff" transform="matrix(0.0666667 0 0 0.0666667 -66.1003 -247)" d="M 6102.08,6311.88 A 66.0693,69.0381 0 1 0 6234.22,6311.88A 66.0693,69.0381 0 1 0 6102.08,6311.88Z " />
<path stroke="#000000" stroke-width="20" fill="none" transform="matrix(0.0666667 0 0 0.0666667 -66.1003 -247)" d="M 6102.08,6311.88 A 66.0693,69.0381 0 1 0 6234.22,6311.88A 66.0693,69.0381 0 1 0 6102.08,6311.88Z " />
<path stroke="none" fill="#000000" transform="matrix(0.0666667 0 0 0.0666667 -66.1003 -247)" d="M 6227.61,5484.85 C 6201.82,5450.56 6154.25,5444.59 6121.43,5471.54 C 6088.61,5498.48 6082.9,5548.19 6108.69,5582.48 C 6134.47,5616.78 6182.04,5622.74 6214.86,5595.8 C 6247.68,5568.85 6253.39,5519.15 6227.61,5484.85 " />
<path stroke="#000000" stroke-width="1" fill="none" transform="matrix(0.0666667 0 0 0.0666667 -66.1003 -247)" d="M 6227.61,5484.85 C 6201.82,5450.56 6154.25,5444.59 6121.43,5471.54 C 6088.61,5498.48 6082.9,5548.19 6108.69,5582.48 C 6134.47,5616.78 6182.04,5622.74 6214.86,5595.8 C 6247.68,5568.85 6253.39,5519.15 6227.61,5484.85 " />
<path stroke="none" fill="#000000" transform="matrix(0.0666667 0 0 0.0666667 -66.1003 -247)" d="M 6464.13,6002.55 C 6438.35,5968.26 6390.78,5962.29 6357.96,5989.24 C 6325.14,6016.18 6319.43,6065.89 6345.22,6100.18 C 6371,6134.48 6418.57,6140.44 6451.39,6113.5 C 6484.21,6086.55 6489.92,6036.84 6464.13,6002.55 " />
<path stroke="#000000" stroke-width="1" fill="none" transform="matrix(0.0666667 0 0 0.0666667 -66.1003 -247)" d="M 6464.13,6002.55 C 6438.35,5968.26 6390.78,5962.29 6357.96,5989.24 C 6325.14,6016.18 6319.43,6065.89 6345.22,6100.18 C 6371,6134.48 6418.57,6140.44 6451.39,6113.5 C 6484.21,6086.55 6489.92,6036.84 6464.13,6002.55 " />
<path stroke="none" fill="#808080" transform="matrix(0.0666667 0 0 0.0666667 -66.1003 -247)" d="M 6715.31,5064.6 L 6727.97,5080.09 L 6234.65,5483.24 L 6222,5467.76 L 6715.31,5064.6 L 6715.31,5064.6 Z " />
<path stroke="none" fill="#808080" transform="matrix(0.0666667 0 0 0.0666667 -66.1003 -247)" d="M 6944.09,5107.6 L 6958.03,5093.26 L 7343.85,5468.33 L 7329.91,5482.67 L 6944.09,5107.6 Z " />
<path stroke="none" fill="#808080" transform="matrix(0.0666667 0 0 0.0666667 -66.1003 -247)" d="M 6757.12,5133.83 L 6774.48,5143.76 L 6445.28,5719.16 L 6427.92,5709.23 L 6757.12,5133.83 Z " />
<text x="0" y="0" stroke="none" fill="#000000" transform="matrix(0.0666667 0 0 0.0666667 403.045 52.8333)" font-style="normal" font-weight="normal" font-size="200px" font-family="Arial" >
CO</text>
<text x="0" y="0" stroke="none" fill="#000000" transform="matrix(0.0666667 0 0 0.0666667 424.202 75.9553)" font-style="normal" font-weight="normal" font-size="200px" font-family="Arial" >
CO</text>
<path stroke="none" fill="#808080" transform="matrix(0.0666667 0 0 0.0666667 -66.1003 -247)" d="M 7134,5989.93 L 7114.8,5995.53 L 6838.65,5048.77 L 6921.8,5262.41 L 7134,5989.93 Z " />
<path stroke="none" fill="#808080" transform="matrix(0.0666667 0 0 0.0666667 -66.1003 -247)" d="M 7158.64,5697.06 L 7140.7,5705.91 L 6921.8,5262.41 L 6838.65,5048.77 L 7158.64,5697.06 Z " />
<path stroke="none" fill="#808080" transform="matrix(0.0666667 0 0 0.0666667 -66.1003 -247)" d="M 6647.38,5003.27 A 182.326,182.326 0 1 0 7012.03,5003.27A 182.326,182.326 0 1 0 6647.38,5003.27Z " />
<path stroke="none" fill="#878787" transform="matrix(0.0666667 0 0 0.0666667 -66.1003 -247)" d="M 6649.51,5000.42 A 177.349,177.349 0 1 0 7004.21,5000.42A 177.349,177.349 0 1 0 6649.51,5000.42Z " />
<path stroke="none" fill="#8f8f8f" transform="matrix(0.0666667 0 0 0.0666667 -66.1003 -247)" d="M 6651.64,4997.57 A 172.373,172.373 0 1 0 6996.38,4997.57A 172.373,172.373 0 1 0 6651.64,4997.57Z " />
<path stroke="none" fill="#969696" transform="matrix(0.0666667 0 0 0.0666667 -66.1003 -247)" d="M 6653.77,4994.72 A 167.396,167.396 0 1 0 6988.56,4994.72A 167.396,167.396 0 1 0 6653.77,4994.72Z " />
<path stroke="none" fill="#9d9d9d" transform="matrix(0.0666667 0 0 0.0666667 -66.1003 -247)" d="M 6655.89,4991.87 A 162.419,162.419 0 1 0 6980.73,4991.87A 162.419,162.419 0 1 0 6655.89,4991.87Z " />
<path stroke="none" fill="#a4a4a4" transform="matrix(0.0666667 0 0 0.0666667 -66.1003 -247)" d="M 6658.02,4989.02 A 157.443,157.443 0 1 0 6972.91,4989.02A 157.443,157.443 0 1 0 6658.02,4989.02Z " />
<path stroke="none" fill="#ababab" transform="matrix(0.0666667 0 0 0.0666667 -66.1003 -247)" d="M 6660.15,4986.17 A 152.466,152.466 0 1 0 6965.08,4986.17A 152.466,152.466 0 1 0 6660.15,4986.17Z " />
<path stroke="none" fill="#b1b1b1" transform="matrix(0.0666667 0 0 0.0666667 -66.1003 -247)" d="M 6662.28,4983.33 A 147.49,147.49 0 1 0 6957.26,4983.33A 147.49,147.49 0 1 0 6662.28,4983.33Z " />
<path stroke="none" fill="#b7b7b7" transform="matrix(0.0666667 0 0 0.0666667 -66.1003 -247)" d="M 6664.4,4980.48 A 142.513,142.513 0 1 0 6949.43,4980.48A 142.513,142.513 0 1 0 6664.4,4980.48Z " />
<path stroke="none" fill="#bdbdbd" transform="matrix(0.0666667 0 0 0.0666667 -66.1003 -247)" d="M 6666.53,4977.63 A 137.537,137.537 0 1 0 6941.61,4977.63A 137.537,137.537 0 1 0 6666.53,4977.63Z " />
<path stroke="none" fill="#c2c2c2" transform="matrix(0.0666667 0 0 0.0666667 -66.1003 -247)" d="M 6668.66,4974.78 A 132.56,132.56 0 1 0 6933.78,4974.78A 132.56,132.56 0 1 0 6668.66,4974.78Z " />
<path stroke="none" fill="#c8c8c8" transform="matrix(0.0666667 0 0 0.0666667 -66.1003 -247)" d="M 6670.79,4971.93 A 127.584,127.584 0 1 0 6925.95,4971.93A 127.584,127.584 0 1 0 6670.79,4971.93Z " />
<path stroke="none" fill="#cdcdcd" transform="matrix(0.0666667 0 0 0.0666667 -66.1003 -247)" d="M 6672.91,4969.08 A 122.607,122.607 0 1 0 6918.13,4969.08A 122.607,122.607 0 1 0 6672.91,4969.08Z " />
<path stroke="none" fill="#d2d2d2" transform="matrix(0.0666667 0 0 0.0666667 -66.1003 -247)" d="M 6675.04,4966.23 A 117.63,117.63 0 1 0 6910.3,4966.23A 117.63,117.63 0 1 0 6675.04,4966.23Z " />
<path stroke="none" fill="#d6d6d6" transform="matrix(0.0666667 0 0 0.0666667 -66.1003 -247)" d="M 6677.17,4963.38 A 112.654,112.654 0 1 0 6902.48,4963.38A 112.654,112.654 0 1 0 6677.17,4963.38Z " />
<path stroke="none" fill="#dbdbdb" transform="matrix(0.0666667 0 0 0.0666667 -66.1003 -247)" d="M 6679.3,4960.53 A 107.677,107.677 0 1 0 6894.65,4960.53A 107.677,107.677 0 1 0 6679.3,4960.53Z " />
<path stroke="none" fill="#dfdfdf" transform="matrix(0.0666667 0 0 0.0666667 -66.1003 -247)" d="M 6681.43,4957.69 A 102.701,102.701 0 1 0 6886.83,4957.69A 102.701,102.701 0 1 0 6681.43,4957.69Z " />
<path stroke="none" fill="#e3e3e3" transform="matrix(0.0666667 0 0 0.0666667 -66.1003 -247)" d="M 6683.55,4954.84 A 97.7242,97.7242 0 1 0 6879,4954.84A 97.7242,97.7242 0 1 0 6683.55,4954.84Z " />
<path stroke="none" fill="#e6e6e6" transform="matrix(0.0666667 0 0 0.0666667 -66.1003 -247)" d="M 6685.68,4951.99 A 92.7476,92.7476 0 1 0 6871.18,4951.99A 92.7476,92.7476 0 1 0 6685.68,4951.99Z " />
<path stroke="none" fill="#eaeaea" transform="matrix(0.0666667 0 0 0.0666667 -66.1003 -247)" d="M 6687.81,4949.14 A 87.7711,87.7711 0 1 0 6863.35,4949.14A 87.7711,87.7711 0 1 0 6687.81,4949.14Z " />
<path stroke="none" fill="#ededed" transform="matrix(0.0666667 0 0 0.0666667 -66.1003 -247)" d="M 6689.94,4946.29 A 82.7945,82.7945 0 1 0 6855.53,4946.29A 82.7945,82.7945 0 1 0 6689.94,4946.29Z " />
<path stroke="none" fill="#efefef" transform="matrix(0.0666667 0 0 0.0666667 -66.1003 -247)" d="M 6692.06,4943.44 A 77.8179,77.8179 0 1 0 6847.7,4943.44A 77.8179,77.8179 0 1 0 6692.06,4943.44Z " />
<path stroke="none" fill="#f2f2f2" transform="matrix(0.0666667 0 0 0.0666667 -66.1003 -247)" d="M 6694.19,4940.59 A 72.8414,72.8414 0 1 0 6839.87,4940.59A 72.8414,72.8414 0 1 0 6694.19,4940.59Z " />
<path stroke="none" fill="#f4f4f4" transform="matrix(0.0666667 0 0 0.0666667 -66.1003 -247)" d="M 6696.32,4937.74 A 67.8648,67.8648 0 1 0 6832.05,4937.74A 67.8648,67.8648 0 1 0 6696.32,4937.74Z " />
<path stroke="none" fill="#f7f7f7" transform="matrix(0.0666667 0 0 0.0666667 -66.1003 -247)" d="M 6698.45,4934.9 A 62.8882,62.8882 0 1 0 6824.22,4934.9A 62.8882,62.8882 0 1 0 6698.45,4934.9Z " />
<path stroke="none" fill="#f8f8f8" transform="matrix(0.0666667 0 0 0.0666667 -66.1003 -247)" d="M 6700.58,4932.05 A 57.9117,57.9117 0 1 0 6816.4,4932.05A 57.9117,57.9117 0 1 0 6700.58,4932.05Z " />
<path stroke="none" fill="#fafafa" transform="matrix(0.0666667 0 0 0.0666667 -66.1003 -247)" d="M 6702.7,4929.2 A 52.9351,52.9351 0 1 0 6808.57,4929.2A 52.9351,52.9351 0 1 0 6702.7,4929.2Z " />
<path stroke="none" fill="#fbfbfb" transform="matrix(0.0666667 0 0 0.0666667 -66.1003 -247)" d="M 6704.83,4926.35 A 47.9586,47.9586 0 1 0 6800.75,4926.35A 47.9586,47.9586 0 1 0 6704.83,4926.35Z " />
<path stroke="none" fill="#fdfdfd" transform="matrix(0.0666667 0 0 0.0666667 -66.1003 -247)" d="M 6706.96,4923.5 A 42.982,42.982 0 1 0 6792.92,4923.5A 42.982,42.982 0 1 0 6706.96,4923.5Z " />
<path stroke="none" fill="#fdfdfd" transform="matrix(0.0666667 0 0 0.0666667 -66.1003 -247)" d="M 6709.09,4920.65 A 38.0054,38.0054 0 1 0 6785.1,4920.65A 38.0054,38.0054 0 1 0 6709.09,4920.65Z " />
<path stroke="none" fill="#fefefe" transform="matrix(0.0666667 0 0 0.0666667 -66.1003 -247)" d="M 6711.21,4917.8 A 33.0289,33.0289 0 1 0 6777.27,4917.8A 33.0289,33.0289 0 1 0 6711.21,4917.8Z " />
<path stroke="none" fill="#fefefe" transform="matrix(0.0666667 0 0 0.0666667 -66.1003 -247)" d="M 6713.34,4914.95 A 28.0523,28.0523 0 1 0 6769.45,4914.95A 28.0523,28.0523 0 1 0 6713.34,4914.95Z " />
<path stroke="#808080" stroke-width="20" fill="none" transform="matrix(0.0666667 0 0 0.0666667 -66.1003 -247)" d="M 6647.38,5003.27 A 182.326,182.326 0 1 0 7012.03,5003.27A 182.326,182.326 0 1 0 6647.38,5003.27Z " />
<text x="0" y="0" stroke="none" fill="#000000" transform="matrix(0.0666667 0 0 0.0666667 466.147 134.525)" font-style="normal" font-weight="normal" font-size="266px" font-family="Arial" >
tmndH</text>
<text x="0" y="0" stroke="none" fill="#000000" transform="matrix(0.0666667 0 0 0.0666667 462.707 24.988)" font-style="normal" font-weight="normal" font-size="372px" font-family="Times New Roman" >
-</text>
<text x="0" y="0" stroke="none" fill="#000000" transform="matrix(0.0666667 0 0 0.0666667 516.799 121.19)" font-style="normal" font-weight="normal" font-size="319px" font-family="Times New Roman" >
+</text>
<path stroke="none" fill="#808080" transform="matrix(0.0666667 0 0 0.0666667 -66.1003 -247)" d="M 7300.88,4792.61 L 7310.88,4809.93 L 7023.67,4975.74 L 7013.67,4958.42 L 7300.88,4792.61 Z " />
<path stroke="none" fill="#808080" transform="matrix(0.0666667 0 0 0.0666667 -66.1003 -247)" d="M 6353.37,4809.93 L 6363.37,4792.61 L 6650.58,4958.42 L 6640.58,4975.74 L 6353.37,4809.93 Z " />
<path stroke="none" fill="#808080" transform="matrix(0.0666667 0 0 0.0666667 -66.1003 -247)" d="M 7068.05,4533.93 L 7085.37,4543.93 L 6919.55,4831.14 L 6902.23,4821.14 L 7068.05,4533.93 Z " />
<path stroke="none" fill="#808080" transform="matrix(0.0666667 0 0 0.0666667 -66.1003 -247)" d="M 6587.17,4535.64 L 6604.49,4525.64 L 6770.31,4812.85 L 6752.99,4822.85 L 6587.17,4535.64 Z " />
<text x="0" y="0" stroke="none" fill="#000000" transform="matrix(0.0666667 0 0 0.0666667 371.528 52.1594)" font-style="normal" font-weight="normal" font-size="200px" font-family="Times New Roman" >
I</text>
<text x="0" y="0" stroke="none" fill="#000000" transform="matrix(0.0666667 0 0 0.0666667 351.259 76.6382)" font-style="normal" font-weight="normal" font-size="200px" font-family="Times New Roman" >
I</text>
<text x="0" y="0" stroke="none" fill="#000000" transform="matrix(0.0666667 0 0 0.0666667 244.113 125)" font-style="normal" font-weight="normal" font-size="240px" font-family="Times New Roman" >
I</text>
<text x="0" y="0" stroke="none" fill="#000000" transform="matrix(0.0666667 0 0 0.0666667 249.446 128.6)" font-style="normal" font-weight="normal" font-size="180px" font-family="Times New Roman" >
2</text>
<text x="0" y="0" stroke="none" fill="#000000" transform="matrix(0.0666667 0 0 0.0666667 209.321 159)" font-style="normal" font-weight="normal" font-size="240px" font-family="Times New Roman" >
CH</text>
<text x="0" y="0" stroke="none" fill="#000000" transform="matrix(0.0666667 0 0 0.0666667 231.548 162.6)" font-style="normal" font-weight="normal" font-size="180px" font-family="Times New Roman" >
2</text>
<text x="0" y="0" stroke="none" fill="#000000" transform="matrix(0.0666667 0 0 0.0666667 237.548 159)" font-style="normal" font-weight="normal" font-size="240px" font-family="Times New Roman" >
Cl</text>
<text x="0" y="0" stroke="none" fill="#000000" transform="matrix(0.0666667 0 0 0.0666667 252.686 162.6)" font-style="normal" font-weight="normal" font-size="180px" font-family="Times New Roman" >
2</text>
<text x="0" y="0" stroke="none" fill="#000000" transform="matrix(0.0666667 0 0 0.0666667 258.686 159)" font-style="normal" font-weight="normal" font-size="240px" font-family="Times New Roman" >
, </text>
<text x="0" y="0" stroke="none" fill="#000000" transform="matrix(0.0666667 0 0 0.0666667 266.686 159)" font-style="normal" font-weight="normal" font-size="240px" font-family="Times New Roman" >
1 </text>
<text x="0" y="0" stroke="none" fill="#000000" transform="matrix(0.0666667 0 0 0.0666667 278.686 159)" font-style="normal" font-weight="normal" font-size="240px" font-family="Times New Roman" >
h</text>
<path stroke="none" fill="#000000" transform="matrix(0.0666667 0 0 0.0666667 -66.1003 -247)" d="M 9192.44,4342.13 A 58.528,58.528 0 1 0 9309.49,4342.13A 58.528,58.528 0 1 0 9192.44,4342.13Z " />
<path stroke="none" fill="#ffffff" transform="matrix(0.0666667 0 0 0.0666667 -66.1003 -247)" d="M 9190.76,4721.75 A 65.8499,65.8499 0 1 0 9322.46,4721.75A 65.8499,65.8499 0 1 0 9190.76,4721.75Z " />
<path stroke="#000000" stroke-width="20" fill="none" transform="matrix(0.0666667 0 0 0.0666667 -66.1003 -247)" d="M 9190.76,4721.75 A 65.8499,65.8499 0 1 0 9322.46,4721.75A 65.8499,65.8499 0 1 0 9190.76,4721.75Z " />
<path stroke="none" fill="#808080" transform="matrix(0.0666667 0 0 0.0666667 -66.1003 -247)" d="M 9125.49,5072.79 A 136.782,136.782 0 1 0 9399.06,5072.79A 136.782,136.782 0 1 0 9125.49,5072.79Z " />
<path stroke="none" fill="#878787" transform="matrix(0.0666667 0 0 0.0666667 -66.1003 -247)" d="M 9127.07,5070.66 A 133.063,133.063 0 1 0 9393.2,5070.66A 133.063,133.063 0 1 0 9127.07,5070.66Z " />
<path stroke="none" fill="#8f8f8f" transform="matrix(0.0666667 0 0 0.0666667 -66.1003 -247)" d="M 9128.65,5068.52 A 129.345,129.345 0 1 0 9387.34,5068.52A 129.345,129.345 0 1 0 9128.65,5068.52Z " />
<path stroke="none" fill="#969696" transform="matrix(0.0666667 0 0 0.0666667 -66.1003 -247)" d="M 9130.24,5066.38 A 125.626,125.626 0 1 0 9381.49,5066.38A 125.626,125.626 0 1 0 9130.24,5066.38Z " />
<path stroke="none" fill="#9d9d9d" transform="matrix(0.0666667 0 0 0.0666667 -66.1003 -247)" d="M 9131.82,5064.25 A 121.907,121.907 0 1 0 9375.63,5064.25A 121.907,121.907 0 1 0 9131.82,5064.25Z " />
<path stroke="none" fill="#a4a4a4" transform="matrix(0.0666667 0 0 0.0666667 -66.1003 -247)" d="M 9133.4,5062.11 A 118.188,118.188 0 1 0 9369.78,5062.11A 118.188,118.188 0 1 0 9133.4,5062.11Z " />
<path stroke="none" fill="#ababab" transform="matrix(0.0666667 0 0 0.0666667 -66.1003 -247)" d="M 9134.98,5059.97 A 114.47,114.47 0 1 0 9363.92,5059.97A 114.47,114.47 0 1 0 9134.98,5059.97Z " />
<path stroke="none" fill="#b1b1b1" transform="matrix(0.0666667 0 0 0.0666667 -66.1003 -247)" d="M 9136.56,5057.83 A 110.751,110.751 0 1 0 9358.06,5057.83A 110.751,110.751 0 1 0 9136.56,5057.83Z " />
<path stroke="none" fill="#b7b7b7" transform="matrix(0.0666667 0 0 0.0666667 -66.1003 -247)" d="M 9138.14,5055.7 A 107.032,107.032 0 1 0 9352.21,5055.7A 107.032,107.032 0 1 0 9138.14,5055.7Z " />
<path stroke="none" fill="#bdbdbd" transform="matrix(0.0666667 0 0 0.0666667 -66.1003 -247)" d="M 9139.73,5053.56 A 103.313,103.313 0 1 0 9346.35,5053.56A 103.313,103.313 0 1 0 9139.73,5053.56Z " />
<path stroke="none" fill="#c2c2c2" transform="matrix(0.0666667 0 0 0.0666667 -66.1003 -247)" d="M 9141.31,5051.42 A 99.5947,99.5947 0 1 0 9340.5,5051.42A 99.5947,99.5947 0 1 0 9141.31,5051.42Z " />
<path stroke="none" fill="#c8c8c8" transform="matrix(0.0666667 0 0 0.0666667 -66.1003 -247)" d="M 9142.89,5049.29 A 95.876,95.876 0 1 0 9334.64,5049.29A 95.876,95.876 0 1 0 9142.89,5049.29Z " />
<path stroke="none" fill="#cdcdcd" transform="matrix(0.0666667 0 0 0.0666667 -66.1003 -247)" d="M 9144.47,5047.15 A 92.1572,92.1572 0 1 0 9328.78,5047.15A 92.1572,92.1572 0 1 0 9144.47,5047.15Z " />
<path stroke="none" fill="#d2d2d2" transform="matrix(0.0666667 0 0 0.0666667 -66.1003 -247)" d="M 9146.05,5045.01 A 88.4385,88.4385 0 1 0 9322.93,5045.01A 88.4385,88.4385 0 1 0 9146.05,5045.01Z " />
<path stroke="none" fill="#d6d6d6" transform="matrix(0.0666667 0 0 0.0666667 -66.1003 -247)" d="M 9147.63,5042.87 A 84.7197,84.7197 0 1 0 9317.07,5042.87A 84.7197,84.7197 0 1 0 9147.63,5042.87Z " />
<path stroke="none" fill="#dbdbdb" transform="matrix(0.0666667 0 0 0.0666667 -66.1003 -247)" d="M 9149.21,5040.74 A 81.001,81.001 0 1 0 9311.22,5040.74A 81.001,81.001 0 1 0 9149.21,5040.74Z " />
<path stroke="none" fill="#dfdfdf" transform="matrix(0.0666667 0 0 0.0666667 -66.1003 -247)" d="M 9150.8,5038.6 A 77.2822,77.2822 0 1 0 9305.36,5038.6A 77.2822,77.2822 0 1 0 9150.8,5038.6Z " />
<path stroke="none" fill="#e3e3e3" transform="matrix(0.0666667 0 0 0.0666667 -66.1003 -247)" d="M 9152.38,5036.46 A 73.5635,73.5635 0 1 0 9299.5,5036.46A 73.5635,73.5635 0 1 0 9152.38,5036.46Z " />
<path stroke="none" fill="#e6e6e6" transform="matrix(0.0666667 0 0 0.0666667 -66.1003 -247)" d="M 9153.96,5034.32 A 69.8447,69.8447 0 1 0 9293.65,5034.32A 69.8447,69.8447 0 1 0 9153.96,5034.32Z " />
<path stroke="none" fill="#eaeaea" transform="matrix(0.0666667 0 0 0.0666667 -66.1003 -247)" d="M 9155.54,5032.19 A 66.126,66.126 0 1 0 9287.79,5032.19A 66.126,66.126 0 1 0 9155.54,5032.19Z " />
<path stroke="none" fill="#ededed" transform="matrix(0.0666667 0 0 0.0666667 -66.1003 -247)" d="M 9157.12,5030.05 A 62.4072,62.4072 0 1 0 9281.94,5030.05A 62.4072,62.4072 0 1 0 9157.12,5030.05Z " />
<path stroke="none" fill="#efefef" transform="matrix(0.0666667 0 0 0.0666667 -66.1003 -247)" d="M 9158.7,5027.91 A 58.6885,58.6885 0 1 0 9276.08,5027.91A 58.6885,58.6885 0 1 0 9158.7,5027.91Z " />
<path stroke="none" fill="#f2f2f2" transform="matrix(0.0666667 0 0 0.0666667 -66.1003 -247)" d="M 9160.28,5025.78 A 54.9697,54.9697 0 1 0 9270.22,5025.78A 54.9697,54.9697 0 1 0 9160.28,5025.78Z " />
<path stroke="none" fill="#f4f4f4" transform="matrix(0.0666667 0 0 0.0666667 -66.1003 -247)" d="M 9161.87,5023.64 A 51.251,51.251 0 1 0 9264.37,5023.64A 51.251,51.251 0 1 0 9161.87,5023.64Z " />
<path stroke="none" fill="#f7f7f7" transform="matrix(0.0666667 0 0 0.0666667 -66.1003 -247)" d="M 9163.45,5021.5 A 47.5322,47.5322 0 1 0 9258.51,5021.5A 47.5322,47.5322 0 1 0 9163.45,5021.5Z " />
<path stroke="none" fill="#f8f8f8" transform="matrix(0.0666667 0 0 0.0666667 -66.1003 -247)" d="M 9165.03,5019.36 A 43.8135,43.8135 0 1 0 9252.66,5019.36A 43.8135,43.8135 0 1 0 9165.03,5019.36Z " />
<path stroke="none" fill="#fafafa" transform="matrix(0.0666667 0 0 0.0666667 -66.1003 -247)" d="M 9166.61,5017.23 A 40.0947,40.0947 0 1 0 9246.8,5017.23A 40.0947,40.0947 0 1 0 9166.61,5017.23Z " />
<path stroke="none" fill="#fbfbfb" transform="matrix(0.0666667 0 0 0.0666667 -66.1003 -247)" d="M 9168.19,5015.09 A 36.376,36.376 0 1 0 9240.94,5015.09A 36.376,36.376 0 1 0 9168.19,5015.09Z " />
<path stroke="none" fill="#fdfdfd" transform="matrix(0.0666667 0 0 0.0666667 -66.1003 -247)" d="M 9169.77,5012.95 A 32.6572,32.6572 0 1 0 9235.09,5012.95A 32.6572,32.6572 0 1 0 9169.77,5012.95Z " />
<path stroke="none" fill="#fdfdfd" transform="matrix(0.0666667 0 0 0.0666667 -66.1003 -247)" d="M 9171.36,5010.82 A 28.9385,28.9385 0 1 0 9229.23,5010.82A 28.9385,28.9385 0 1 0 9171.36,5010.82Z " />
<path stroke="none" fill="#fefefe" transform="matrix(0.0666667 0 0 0.0666667 -66.1003 -247)" d="M 9172.94,5008.68 A 25.2197,25.2197 0 1 0 9223.38,5008.68A 25.2197,25.2197 0 1 0 9172.94,5008.68Z " />
<path stroke="none" fill="#fefefe" transform="matrix(0.0666667 0 0 0.0666667 -66.1003 -247)" d="M 9174.52,5006.54 A 21.501,21.501 0 1 0 9217.52,5006.54A 21.501,21.501 0 1 0 9174.52,5006.54Z " />
<path stroke="#808080" stroke-width="20" fill="none" transform="matrix(0.0666667 0 0 0.0666667 -66.1003 -247)" d="M 9125.49,5072.79 A 136.782,136.782 0 1 0 9399.06,5072.79A 136.782,136.782 0 1 0 9125.49,5072.79Z " />
<text x="0" y="0" stroke="none" fill="#000000" transform="matrix(0.0666667 0 0 0.0666667 561.723 47.91)" font-style="normal" font-weight="normal" font-size="240px" font-family="Times New Roman" >
CH</text>
<text x="0" y="0" stroke="none" fill="#000000" transform="matrix(0.0666667 0 0 0.0666667 561.904 72.552)" font-style="normal" font-weight="normal" font-size="240px" font-family="Times New Roman" >
BH</text>
<text x="0" y="0" stroke="none" fill="#000000" transform="matrix(0.0666667 0 0 0.0666667 569.189 96.528)" font-style="normal" font-weight="normal" font-size="240px" font-family="Times New Roman" >
Re</text>
<text x="0" y="0" stroke="none" fill="#000000" transform="matrix(0.0666667 0 0 0.0666667 44.2797 242)" font-style="normal" font-weight="bold" font-size="280px" font-family="Times New Roman" >
1</text>
<text x="0" y="0" stroke="none" fill="#000000" transform="matrix(0.0666667 0 0 0.0666667 387.28 242)" font-style="normal" font-weight="bold" font-size="280px" font-family="Times New Roman" >
2</text>
<path stroke="#000000" stroke-width="20" fill="none" transform="matrix(0.0666667 0 0 0.0666667 -66.1003 -247)" d="M 7625.68,3984.02 L 7830.71,3984.02 " />
<path stroke="#000000" stroke-width="20" fill="none" transform="matrix(0.0666667 0 0 0.0666667 -66.1003 -247)" d="M 7830.71,3984.02 L 7830.71,6819.11 " />
<path stroke="#000000" stroke-width="20" fill="none" transform="matrix(0.0666667 0 0 0.0666667 -66.1003 -247)" d="M 7830.71,6819.11 L 7625.68,6819.11 " />
<path stroke="#000000" stroke-width="20" fill="none" transform="matrix(0.0666667 0 0 0.0666667 -66.1003 -247)" d="M 2540.68,3969.02 L 2745.71,3969.02 " />
<path stroke="#000000" stroke-width="20" fill="none" transform="matrix(0.0666667 0 0 0.0666667 -66.1003 -247)" d="M 2745.71,3969.02 L 2745.71,6804.11 " />
<path stroke="#000000" stroke-width="20" fill="none" transform="matrix(0.0666667 0 0 0.0666667 -66.1003 -247)" d="M 2745.71,6804.11 L 2540.68,6804.11 " />
</svg>
