<?xml version="1.0" standalone="no" ?>
<!DOCTYPE svg PUBLIC "-//W3C//DTD SVG 1.1//EN" "http://www.w3.org/Graphics/SVG/1.1/DTD/svg11.dtd">
<svg width="505px" height="243px" viewBox="0 0 505 243" style="background-color: #ffffff00" xmlns="http://www.w3.org/2000/svg" xmlns:xlink="http://www.w3.org/1999/xlink" version="1.1" >
<text x="0" y="0" stroke="none" fill="#000000" transform="matrix(0.0833333 0 0 0.0833333 3.45667 44.0117)" font-style="normal" font-weight="normal" font-size="240px" font-family="Arial" >
[Re]</text>
<text x="0" y="0" stroke="none" fill="#000000" transform="matrix(0.0833333 0 0 0.0833333 74.8602 43.6635)" font-style="normal" font-weight="normal" font-size="240px" font-family="Arial" >
C</text>
<path stroke="none" fill="#000000" transform="matrix(0.0833333 0 0 0.0833333 0.825 2.83333)" d="M 860.848,354.765 L 861.002,374.607 L 495.656,377.455 L 495.502,357.613 L 860.848,354.765 Z " />
<path stroke="none" fill="#000000" transform="matrix(0.0833333 0 0 0.0833333 0.825 2.83333)" d="M 861.349,419.091 L 861.504,438.932 L 496.158,441.78 L 496.003,421.939 L 861.349,419.091 Z " />
<text x="0" y="0" stroke="none" fill="#000000" transform="matrix(0.0833333 0 0 0.0833333 119.232 43.3325)" font-style="normal" font-weight="normal" font-size="240px" font-family="Arial" >
C</text>
<path stroke="none" fill="#000000" transform="matrix(0.0833333 0 0 0.0833333 0.825 2.83333)" d="M 1393.33,350.969 L 1393.48,370.811 L 1091.5,373.064 L 1091.36,353.222 L 1393.33,350.969 Z " />
<path stroke="none" fill="#000000" transform="matrix(0.0833333 0 0 0.0833333 0.825 2.83333)" d="M 1393.81,414.865 L 1393.96,434.707 L 1091.98,436.96 L 1091.83,417.118 L 1393.81,414.865 Z " />
<text x="0" y="0" stroke="none" fill="#000000" transform="matrix(0.0833333 0 0 0.0833333 66.7019 81.9828)" font-style="normal" font-weight="bold" font-size="240px" font-family="Arial" >
Re1</text>
<path stroke="none" fill="#000000" transform="matrix(0.0833333 0 0 0.0833333 0.825 2.83333)" d="M 3438.43,422.752 L 2411.05,422.752 L 2411.05,402.752 L 3438.43,402.752 Z " />
<path stroke="none" fill="#000000" transform="matrix(0.0833333 0 0 0.0833333 0.825 2.83333)" d="M 3611.05,412.752 C 3611.05,412.752 3412.63,463.358 3412.63,463.358 C 3412.63,463.358 3437.43,434.892 3437.43,412.752 C 3437.43,390.175 3412.63,361.147 3412.63,361.147 C 3412.63,361.147 3611.05,412.752 3611.05,412.752 C 3611.05,412.752 3611.05,412.752 3611.05,412.752 " />
<path stroke="#000000" stroke-width="1" fill="none" transform="matrix(0.0833333 0 0 0.0833333 0.825 2.83333)" d="M 3611.05,412.752 C 3611.05,412.752 3412.63,463.358 3412.63,463.358 C 3412.63,463.358 3437.43,434.892 3437.43,412.752 C 3437.43,390.175 3412.63,361.147 3412.63,361.147 C 3412.63,361.147 3611.05,412.752 3611.05,412.752 C 3611.05,412.752 3611.05,412.752 3611.05,412.752 " />
<text x="0" y="0" stroke="none" fill="#000000" transform="matrix(0.0833333 0 0 0.0833333 233.027 22.8543)" font-style="normal" font-weight="normal" font-size="240px" font-family="Arial" >
H</text>
<text x="0" y="0" stroke="none" fill="#000000" transform="matrix(0.0833333 0 0 0.0833333 247.471 15.021)" font-style="normal" font-weight="normal" font-size="180px" font-family="Arial" >
+</text>
<text x="0" y="0" stroke="none" fill="#000000" transform="matrix(0.0833333 0 0 0.0833333 322.661 44.0508)" font-style="normal" font-weight="normal" font-size="240px" font-family="Times New Roman" >
[</text>
<text x="0" y="0" stroke="none" fill="#000000" transform="matrix(0.0833333 0 0 0.0833333 329.321 44.0508)" font-style="normal" font-weight="normal" font-size="240px" font-family="Arial" >
Re]</text>
<text x="0" y="0" stroke="none" fill="#000000" transform="matrix(0.0833333 0 0 0.0833333 397.581 43.65)" font-style="normal" font-weight="normal" font-size="240px" font-family="Arial" >
C</text>
<path stroke="none" fill="#000000" transform="matrix(0.0833333 0 0 0.0833333 0.825 2.83333)" d="M 4733.17,319.007 L 4733.34,338.849 L 4338.78,342.205 L 4338.61,322.364 L 4733.17,319.007 Z " />
<path stroke="none" fill="#000000" transform="matrix(0.0833333 0 0 0.0833333 0.825 2.83333)" d="M 4733.75,386.847 L 4733.92,406.688 L 4339.36,410.045 L 4339.19,390.203 L 4733.75,386.847 Z " />
<path stroke="none" fill="#000000" transform="matrix(0.0833333 0 0 0.0833333 0.825 2.83333)" d="M 4734.32,454.687 L 4734.49,474.528 L 4339.94,477.884 L 4339.77,458.043 L 4734.32,454.687 Z " />
<text x="0" y="0" stroke="none" fill="#000000" transform="matrix(0.0833333 0 0 0.0833333 439.114 44.2014)" font-style="normal" font-weight="normal" font-size="240px" font-family="Arial" >
CH</text>
<text x="0" y="0" stroke="none" fill="#000000" transform="matrix(0.0833333 0 0 0.0833333 468 48.5347)" font-style="normal" font-weight="normal" font-size="180px" font-family="Arial" >
2</text>
<text x="0" y="0" stroke="none" fill="#000000" transform="matrix(0.0833333 0 0 0.0833333 476.343 44.2014)" font-style="normal" font-weight="normal" font-size="240px" font-family="Arial" >
Ph</text>
<path stroke="none" fill="#000000" transform="matrix(0.0833333 0 0 0.0833333 0.825 2.83333)" d="M 5232.36,390.986 L 5232.1,410.827 L 4964.18,407.27 L 4964.44,387.43 L 5232.36,390.986 Z " />
<text x="0" y="0" stroke="none" fill="#000000" transform="matrix(0.0833333 0 0 0.0833333 390.189 78.6004)" font-style="normal" font-weight="bold" font-size="240px" font-family="Arial" >
Re1H</text>
<text x="0" y="0" stroke="none" fill="#000000" transform="matrix(0.0833333 0 0 0.0833333 441.322 70.7254)" font-style="normal" font-weight="bold" font-size="180px" font-family="Arial" >
+</text>
<path stroke="#000000" stroke-width="16" fill="none" transform="matrix(0.0833333 0 0 0.0833333 0.825 2.83333)" d="M 4332.65,191.342 A 87.9369,87.9369 0 1 0 4508.52,191.342A 87.9369,87.9369 0 1 0 4332.65,191.342Z " />
<path stroke="none" fill="#000000" transform="matrix(0.0833333 0 0 0.0833333 0.825 2.83333)" d="M 4370.66,183.342 L 4470.5,183.342 L 4470.5,199.342 L 4370.66,199.342 Z " />
<path stroke="none" fill="#000000" transform="matrix(0.0833333 0 0 0.0833333 0.825 2.83333)" d="M 4428.58,141.421 L 4428.58,241.263 L 4412.58,241.263 L 4412.58,141.421 Z " />
<text x="0" y="0" stroke="none" fill="#000000" transform="matrix(0.0833333 0 0 0.0833333 383.621 132.991)" font-style="normal" font-weight="normal" font-size="240px" font-family="Arial" >
+e</text>
<text x="0" y="0" stroke="none" fill="#000000" transform="matrix(0.0833333 0 0 0.0833333 173.14 180.584)" font-style="normal" font-weight="normal" font-size="240px" font-family="Times New Roman" >
[</text>
<text x="0" y="0" stroke="none" fill="#000000" transform="matrix(0.0833333 0 0 0.0833333 179.8 180.584)" font-style="normal" font-weight="normal" font-size="240px" font-family="Arial" >
Re]</text>
<text x="0" y="0" stroke="none" fill="#000000" transform="matrix(0.0833333 0 0 0.0833333 239.572 180.212)" font-style="normal" font-weight="normal" font-size="240px" font-family="Arial" >
C</text>
<path stroke="none" fill="#000000" transform="matrix(0.0833333 0 0 0.0833333 0.825 2.83333)" d="M 2837.09,1970.1 L 2837.28,1989.95 L 2544.59,1992.76 L 2544.4,1972.92 L 2837.09,1970.1 Z " />
<path stroke="none" fill="#000000" transform="matrix(0.0833333 0 0 0.0833333 0.825 2.83333)" d="M 2837.63,2025.72 L 2837.82,2045.56 L 2545.13,2048.38 L 2544.94,2028.54 L 2837.63,2025.72 Z " />
<path stroke="none" fill="#000000" transform="matrix(0.0833333 0 0 0.0833333 0.825 2.83333)" d="M 2838.16,2081.34 L 2838.35,2101.18 L 2545.66,2103.99 L 2545.47,2084.15 L 2838.16,2081.34 Z " />
<text x="0" y="0" stroke="none" fill="#000000" transform="matrix(0.0833333 0 0 0.0833333 277.465 179.559)" font-style="normal" font-weight="normal" font-size="240px" font-family="Arial" >
CH</text>
<text x="0" y="0" stroke="none" fill="#000000" transform="matrix(0.0833333 0 0 0.0833333 306.352 183.892)" font-style="normal" font-weight="normal" font-size="180px" font-family="Arial" >
2</text>
<text x="0" y="0" stroke="none" fill="#000000" transform="matrix(0.0833333 0 0 0.0833333 314.694 179.559)" font-style="normal" font-weight="normal" font-size="240px" font-family="Arial" >
Ph</text>
<path stroke="none" fill="#000000" transform="matrix(0.0833333 0 0 0.0833333 0.825 2.83333)" d="M 3292.29,2018.75 L 3292.63,2038.59 L 3068.36,2042.45 L 3068.02,2022.62 L 3292.29,2018.75 Z " />
<text x="0" y="0" stroke="none" fill="#000000" transform="matrix(0.0833333 0 0 0.0833333 232.379 233.227)" font-style="normal" font-weight="bold" font-size="240px" font-family="Arial" >
Re1H</text>
<text x="0" y="0" stroke="none" fill="#000000" transform="matrix(0.0833333 0 0 0.0833333 283.512 225.352)" font-style="normal" font-weight="bold" font-size="180px" font-family="Arial" >
•</text>
<path stroke="none" fill="#000000" transform="matrix(0.0833333 0 0 0.0833333 0.825 2.83333)" d="M 2602.04,1863.94 A 29.96,29.96 0 1 0 2661.96,1863.94A 29.96,29.96 0 1 0 2602.04,1863.94Z " />
<text x="0" y="0" stroke="none" fill="#000000" transform="matrix(0.0833333 0 0 0.0833333 246.496 208.682)" font-style="normal" font-weight="normal" font-size="240px" font-family="Arial" >
19e</text>
<text x="0" y="0" stroke="none" fill="#000000" transform="matrix(0.0833333 0 0 0.0833333 120.495 170.224)" font-style="normal" font-weight="normal" font-size="240px" font-family="Arial" >
–H</text>
<text x="0" y="0" stroke="none" fill="#000000" transform="matrix(0.0833333 0 0 0.0833333 146.061 162.391)" font-style="normal" font-weight="normal" font-size="180px" font-family="Arial" >
•</text>
<text x="0" y="0" stroke="none" fill="#000000" transform="matrix(0.0833333 0 0 0.0833333 428.325 123.959)" font-style="normal" font-weight="normal" font-size="240px" font-family="Arial" >
–1.51 </text>
<text x="0" y="0" stroke="none" fill="#000000" transform="matrix(0.0833333 0 0 0.0833333 483.983 123.959)" font-style="normal" font-weight="normal" font-size="240px" font-family="Arial" >
V </text>
<text x="0" y="0" stroke="none" fill="#000000" transform="matrix(0.0833333 0 0 0.0833333 428.325 152.209)" font-style="normal" font-weight="normal" font-size="240px" font-family="Arial" >
(Fc/Fc</text>
<text x="0" y="0" stroke="none" fill="#000000" transform="matrix(0.0833333 0 0 0.0833333 485.075 144.376)" font-style="normal" font-weight="normal" font-size="180px" font-family="Arial" >
+</text>
<text x="0" y="0" stroke="none" fill="#000000" transform="matrix(0.0833333 0 0 0.0833333 493.834 152.209)" font-style="normal" font-weight="normal" font-size="240px" font-family="Arial" >
)</text>
<text x="0" y="0" stroke="none" fill="#000000" transform="matrix(0.0833333 0 0 0.0833333 150.153 74.1715)" font-style="normal" font-weight="normal" font-size="240px" font-family="Arial" >
H</text>
<path stroke="none" fill="#000000" transform="matrix(0.0833333 0 0 0.0833333 0.825 2.83333)" d="M 1785.85,655.708 L 1771.84,669.757 L 1597.21,495.587 L 1611.22,481.538 L 1785.85,655.708 Z " />
<text x="0" y="0" stroke="none" fill="#000000" transform="matrix(0.0833333 0 0 0.0833333 162.326 23.3871)" font-style="normal" font-weight="normal" font-size="240px" font-family="Arial" >
Ph</text>
<path stroke="none" fill="#000000" transform="matrix(0.0833333 0 0 0.0833333 0.825 2.83333)" d="M 1895.26,199.228 L 1903.68,217.195 L 1620.84,349.771 L 1612.41,331.805 L 1895.26,199.228 Z " />
<path stroke="none" fill="#000000" transform="matrix(0.0833333 0 0 0.0833333 0.825 2.83333)" d="M 5025.34,2045.62 L 5025.34,1145.62 L 5045.34,1145.62 L 5045.34,2045.62 Z " />
<path stroke="none" fill="#000000" transform="matrix(0.0833333 0 0 0.0833333 0.825 2.83333)" d="M 4487.96,2035.62 L 5035.34,2035.62 L 5035.34,2055.62 L 4487.96,2055.62 Z " />
<path stroke="none" fill="#000000" transform="matrix(0.0833333 0 0 0.0833333 0.825 2.83333)" d="M 4315.34,2045.62 C 4315.34,2045.62 4513.76,1994.01 4513.76,1994.01 C 4513.76,1994.01 4488.96,2023.04 4488.96,2045.62 C 4488.96,2067.76 4513.76,2096.22 4513.76,2096.22 C 4513.76,2096.22 4315.34,2045.62 4315.34,2045.62 C 4315.34,2045.62 4315.34,2045.62 4315.34,2045.62 " />
<path stroke="#000000" stroke-width="1" fill="none" transform="matrix(0.0833333 0 0 0.0833333 0.825 2.83333)" d="M 4315.34,2045.62 C 4315.34,2045.62 4513.76,1994.01 4513.76,1994.01 C 4513.76,1994.01 4488.96,2023.04 4488.96,2045.62 C 4488.96,2067.76 4513.76,2096.22 4513.76,2096.22 C 4513.76,2096.22 4315.34,2045.62 4315.34,2045.62 C 4315.34,2045.62 4315.34,2045.62 4315.34,2045.62 " />
<path stroke="none" fill="#000000" transform="matrix(0.0833333 0 0 0.0833333 0.825 2.83333)" d="M 984.055,2050.13 L 1972.96,2050.13 L 1972.96,2070.13 L 984.055,2070.13 Z " />
<path stroke="none" fill="#000000" transform="matrix(0.0833333 0 0 0.0833333 0.825 2.83333)" d="M 994.055,1356.75 L 994.055,2060.13 L 974.055,2060.13 L 974.055,1356.75 Z " />
<path stroke="none" fill="#000000" transform="matrix(0.0833333 0 0 0.0833333 0.825 2.83333)" d="M 984.055,1184.13 C 984.055,1184.13 1034.66,1382.56 1034.66,1382.56 C 1034.66,1382.56 1006.19,1357.75 984.055,1357.75 C 961.477,1357.75 932.449,1382.56 932.449,1382.56 C 932.449,1382.56 984.055,1184.13 984.055,1184.13 C 984.055,1184.13 984.055,1184.13 984.055,1184.13 " />
<path stroke="#000000" stroke-width="1" fill="none" transform="matrix(0.0833333 0 0 0.0833333 0.825 2.83333)" d="M 984.055,1184.13 C 984.055,1184.13 1034.66,1382.56 1034.66,1382.56 C 1034.66,1382.56 1006.19,1357.75 984.055,1357.75 C 961.477,1357.75 932.449,1382.56 932.449,1382.56 C 932.449,1382.56 984.055,1184.13 984.055,1184.13 C 984.055,1184.13 984.055,1184.13 984.055,1184.13 " />
<text x="0" y="0" stroke="none" fill="#000000" transform="matrix(0.0833333 0 0 0.0833333 12.0877 234.587)" font-style="normal" font-weight="normal" font-size="240px" font-family="Arial" >
[Re] </text>
<text x="0" y="0" stroke="none" fill="#000000" transform="matrix(0.0833333 0 0 0.0833333 54.4041 234.587)" font-style="normal" font-weight="normal" font-size="240px" font-family="Arial" >
= </text>
<text x="0" y="0" stroke="none" fill="#000000" transform="matrix(0.0833333 0 0 0.0833333 71.6671 234.587)" font-style="normal" font-weight="normal" font-size="240px" font-family="Arial" >
Cp*(CO)</text>
<text x="0" y="0" stroke="none" fill="#000000" transform="matrix(0.0833333 0 0 0.0833333 148.377 238.92)" font-style="normal" font-weight="normal" font-size="180px" font-family="Arial" >
2</text>
<text x="0" y="0" stroke="none" fill="#000000" transform="matrix(0.0833333 0 0 0.0833333 156.719 234.587)" font-style="normal" font-weight="normal" font-size="240px" font-family="Arial" >
Re</text>
</svg>
