<?xml version="1.0" standalone="no" ?>
<!DOCTYPE svg PUBLIC "-//W3C//DTD SVG 1.1//EN" "http://www.w3.org/Graphics/SVG/1.1/DTD/svg11.dtd">
<svg width="583px" height="341px" viewBox="0 0 583 341" style="background-color: #ffffff00" xmlns="http://www.w3.org/2000/svg" xmlns:xlink="http://www.w3.org/1999/xlink" version="1.1" >
<path stroke="none" fill="#000000" transform="matrix(0.0833333 0 0 0.0833333 4.825 -70)" d="M 713.26,1384.01 L 681.68,1412.16 L 636.215,1418.51 L 525.729,1237.29 L 531.718,1228.23 L 551.6,1233.33 L 713.26,1384.01 Z " />
<path stroke="none" fill="#000000" transform="matrix(0.0833333 0 0 0.0833333 4.825 -70)" d="M 1338.45,1238.5 L 1359.07,1234 L 1364.93,1242.81 L 1242.89,1418.49 L 1193.73,1415.37 L 1162.19,1386.82 L 1338.45,1238.5 Z " />
<path stroke="none" fill="#000000" transform="matrix(0.0833333 0 0 0.0833333 4.825 -70)" d="M 952.015,1129.56 L 952.124,1119.29 L 962.323,1111.85 L 1359.29,1223.75 L 1359.07,1234 L 1338.45,1238.5 L 952.015,1129.56 Z " />
<path stroke="none" fill="#000000" transform="matrix(0.0833333 0 0 0.0833333 4.825 -70)" d="M 942.479,1111.54 L 952.124,1119.29 L 952.015,1129.56 L 551.6,1233.33 L 531.718,1228.23 L 531.271,1218.1 L 942.479,1111.54 Z " />
<path stroke="#000000" stroke-width="20" fill="none" transform="matrix(0.0833333 0 0 0.0833333 4.825 -70)" d="M 944.434,1355.77 C 1093.11,1355.77 1215.52,1315.39 1215.52,1266.69 C 1215.52,1217.34 1093.11,1176.96 944.434,1176.96 C 795.753,1176.96 673.989,1217.34 673.989,1266.69 C 673.989,1315.39 795.753,1355.77 944.434,1355.77 " />
<text x="0" y="0" stroke="none" fill="#000000" transform="matrix(0.0833333 0 0 0.0833333 69.1285 88.6253)" font-style="normal" font-weight="normal" font-size="240px" font-family="Arial" >
Re</text>
<path stroke="none" fill="#000000" transform="matrix(0.0833333 0 0 0.0833333 4.825 -70)" d="M 934.839,1693.74 L 914.996,1693.76 L 914.772,1482.22 L 934.614,1482.34 L 934.839,1693.74 L 934.839,1693.74 Z " />
<path stroke="none" fill="#000000" transform="matrix(0.0833333 0 0 0.0833333 4.825 -70)" d="M 914.55,1273.7 L 934.393,1273.68 L 934.468,1345.14 L 914.626,1345.02 L 914.55,1273.7 L 914.55,1273.7 Z " />
<text x="0" y="0" stroke="none" fill="#000000" transform="matrix(0.0833333 0 0 0.0833333 4.61823 88.443)" font-style="normal" font-weight="normal" font-size="240px" font-family="Arial" >
OC</text>
<path stroke="none" fill="#000000" transform="matrix(0.0833333 0 0 0.0833333 4.825 -70)" d="M 387.627,1850.22 L 387.912,1765.19 L 407.748,1767.04 L 407.475,1848.51 L 387.627,1850.22 Z " />
<path stroke="none" fill="#000000" transform="matrix(0.0833333 0 0 0.0833333 4.825 -70)" d="M 444.774,1845.28 L 445.025,1770.51 L 464.861,1772.36 L 464.622,1843.56 L 444.774,1845.28 Z " />
<path stroke="none" fill="#000000" transform="matrix(0.0833333 0 0 0.0833333 4.825 -70)" d="M 501.922,1840.34 L 502.137,1775.84 L 521.974,1777.69 L 521.77,1838.62 L 501.922,1840.34 Z " />
<path stroke="none" fill="#000000" transform="matrix(0.0833333 0 0 0.0833333 4.825 -70)" d="M 559.069,1835.39 L 559.25,1781.17 L 579.086,1783.02 L 578.917,1833.67 L 559.069,1835.39 Z " />
<path stroke="none" fill="#000000" transform="matrix(0.0833333 0 0 0.0833333 4.825 -70)" d="M 616.216,1830.45 L 616.363,1786.49 L 636.199,1788.34 L 636.064,1828.73 L 616.216,1830.45 Z " />
<path stroke="none" fill="#000000" transform="matrix(0.0833333 0 0 0.0833333 4.825 -70)" d="M 673.363,1825.5 L 673.476,1791.82 L 693.312,1793.67 L 693.211,1823.78 L 673.363,1825.5 Z " />
<path stroke="none" fill="#000000" transform="matrix(0.0833333 0 0 0.0833333 4.825 -70)" d="M 730.511,1820.56 L 730.589,1797.15 L 750.425,1799 L 750.359,1818.84 L 730.511,1820.56 Z " />
<text x="0" y="0" stroke="none" fill="#000000" transform="matrix(0.0833333 0 0 0.0833333 4.32498 121.728)" font-style="normal" font-weight="normal" font-size="240px" font-family="Arial" >
OC</text>
<path stroke="none" fill="#000000" transform="matrix(0.0833333 0 0 0.0833333 4.825 -70)" d="M 392.962,2180.79 L 348.973,2108.01 L 744.746,1906.88 L 755.01,1923.87 L 392.962,2180.79 Z " />
<path stroke="none" fill="#000000" transform="matrix(0.0833333 0 0 0.0833333 4.825 -70)" d="M 1162.19,1386.82 L 1193.73,1415.37 L 1261.54,1444.14 L 634.792,1440.22 L 681.68,1412.16 L 713.26,1384.01 L 1162.19,1386.82 Z " />
<text x="0" y="0" stroke="none" fill="#000000" transform="matrix(0.0833333 0 0 0.0833333 115.749 110.061)" font-style="normal" font-weight="normal" font-size="240px" font-family="Arial" >
C</text>
<path stroke="none" fill="#000000" transform="matrix(0.0833333 0 0 0.0833333 4.825 -70)" d="M 1336.07,1975.36 L 1326.88,1992.94 L 1109.08,1879.2 L 1118.27,1861.61 L 1336.07,1975.36 Z " />
<path stroke="none" fill="#000000" transform="matrix(0.0833333 0 0 0.0833333 4.825 -70)" d="M 1305.2,2034.46 L 1296.02,2052.05 L 1078.22,1938.3 L 1087.4,1920.72 L 1305.2,2034.46 Z " />
<text x="0" y="0" stroke="none" fill="#000000" transform="matrix(0.0833333 0 0 0.0833333 151.622 130.369)" font-style="normal" font-weight="normal" font-size="240px" font-family="Arial" >
C</text>
<path stroke="none" fill="#000000" transform="matrix(0.0833333 0 0 0.0833333 4.825 -70)" d="M 1767.84,2219.51 L 1758.07,2236.77 L 1541.76,2114.32 L 1551.53,2097.05 L 1767.84,2219.51 Z " />
<path stroke="none" fill="#000000" transform="matrix(0.0833333 0 0 0.0833333 4.825 -70)" d="M 1738.6,2271.16 L 1728.82,2288.43 L 1512.52,2165.98 L 1522.29,2148.71 L 1738.6,2271.16 Z " />
<text x="0" y="0" stroke="none" fill="#000000" transform="matrix(0.0833333 0 0 0.0833333 68.7864 166.575)" font-style="normal" font-weight="bold" font-size="240px" font-family="Arial" >
Re1</text>
<path stroke="none" fill="#000000" transform="matrix(0.0833333 0 0 0.0833333 4.825 -70)" d="M 3881.09,1904.42 L 2853.71,1904.42 L 2853.71,1884.42 L 3881.09,1884.42 Z " />
<path stroke="none" fill="#000000" transform="matrix(0.0833333 0 0 0.0833333 4.825 -70)" d="M 4053.71,1894.42 C 4053.71,1894.42 3855.29,1945.03 3855.29,1945.03 C 3855.29,1945.03 3880.09,1916.56 3880.09,1894.42 C 3880.09,1871.85 3855.29,1842.82 3855.29,1842.82 C 3855.29,1842.82 4053.71,1894.42 4053.71,1894.42 C 4053.71,1894.42 4053.71,1894.42 4053.71,1894.42 " />
<path stroke="#000000" stroke-width="1" fill="none" transform="matrix(0.0833333 0 0 0.0833333 4.825 -70)" d="M 4053.71,1894.42 C 4053.71,1894.42 3855.29,1945.03 3855.29,1945.03 C 3855.29,1945.03 3880.09,1916.56 3880.09,1894.42 C 3880.09,1871.85 3855.29,1842.82 3855.29,1842.82 C 3855.29,1842.82 4053.71,1894.42 4053.71,1894.42 C 4053.71,1894.42 4053.71,1894.42 4053.71,1894.42 " />
<text x="0" y="0" stroke="none" fill="#000000" transform="matrix(0.0833333 0 0 0.0833333 273.916 73.4936)" font-style="normal" font-weight="normal" font-size="240px" font-family="Arial" >
H</text>
<text x="0" y="0" stroke="none" fill="#000000" transform="matrix(0.0833333 0 0 0.0833333 288.359 65.6602)" font-style="normal" font-weight="normal" font-size="180px" font-family="Arial" >
+</text>
<path stroke="none" fill="#000000" transform="matrix(0.0833333 0 0 0.0833333 4.825 -70)" d="M 5164.78,1408.08 L 5133.19,1436.22 L 5086.32,1440.45 L 4973.27,1256.43 L 4979.36,1247.55 L 4999.18,1252.67 L 5164.78,1408.08 Z " />
<path stroke="none" fill="#000000" transform="matrix(0.0833333 0 0 0.0833333 4.825 -70)" d="M 5807.5,1257.99 L 5828.05,1253.47 L 5833.92,1262.24 L 5706.97,1443.7 L 5658.44,1439.51 L 5626.9,1410.97 L 5807.5,1257.99 Z " />
<path stroke="none" fill="#000000" transform="matrix(0.0833333 0 0 0.0833333 4.825 -70)" d="M 5410.5,1146.08 L 5410.61,1135.8 L 5420.7,1128.34 L 5828.21,1243.21 L 5828.05,1253.47 L 5807.5,1257.99 L 5410.5,1146.08 Z " />
<path stroke="none" fill="#000000" transform="matrix(0.0833333 0 0 0.0833333 4.825 -70)" d="M 5400.86,1128.08 L 5410.61,1135.8 L 5410.5,1146.08 L 4999.18,1252.67 L 4979.36,1247.55 L 4979.1,1237.37 L 5400.86,1128.08 Z " />
<path stroke="#000000" stroke-width="20" fill="none" transform="matrix(0.0833333 0 0 0.0833333 4.825 -70)" d="M 5402.72,1378.37 C 5555.23,1378.37 5680.79,1336.96 5680.79,1287 C 5680.79,1236.38 5555.23,1194.96 5402.72,1194.96 C 5250.2,1194.96 5125.3,1236.38 5125.3,1287 C 5125.3,1336.96 5250.2,1378.37 5402.72,1378.37 " />
<text x="0" y="0" stroke="none" fill="#000000" transform="matrix(0.0833333 0 0 0.0833333 440.378 88.6253)" font-style="normal" font-weight="normal" font-size="240px" font-family="Arial" >
Re</text>
<path stroke="none" fill="#000000" transform="matrix(0.0833333 0 0 0.0833333 4.825 -70)" d="M 5390.46,1693.8 L 5370.61,1693.71 L 5371.41,1506.32 L 5391.26,1506.44 L 5390.46,1693.8 L 5390.46,1693.8 Z " />
<path stroke="none" fill="#000000" transform="matrix(0.0833333 0 0 0.0833333 4.825 -70)" d="M 5372.32,1294.14 L 5392.16,1294.22 L 5391.84,1369.24 L 5372,1369.12 L 5372.32,1294.14 L 5372.32,1294.14 Z " />
<text x="0" y="0" stroke="none" fill="#000000" transform="matrix(0.0833333 0 0 0.0833333 375.868 88.443)" font-style="normal" font-weight="normal" font-size="240px" font-family="Arial" >
OC</text>
<path stroke="none" fill="#000000" transform="matrix(0.0833333 0 0 0.0833333 4.825 -70)" d="M 4842.63,1850.22 L 4842.91,1765.19 L 4862.75,1767.04 L 4862.47,1848.51 L 4842.63,1850.22 Z " />
<path stroke="none" fill="#000000" transform="matrix(0.0833333 0 0 0.0833333 4.825 -70)" d="M 4899.77,1845.28 L 4900.02,1770.51 L 4919.86,1772.36 L 4919.62,1843.56 L 4899.77,1845.28 Z " />
<path stroke="none" fill="#000000" transform="matrix(0.0833333 0 0 0.0833333 4.825 -70)" d="M 4956.92,1840.34 L 4957.14,1775.84 L 4976.97,1777.69 L 4976.77,1838.62 L 4956.92,1840.34 Z " />
<path stroke="none" fill="#000000" transform="matrix(0.0833333 0 0 0.0833333 4.825 -70)" d="M 5014.07,1835.39 L 5014.25,1781.17 L 5034.09,1783.02 L 5033.92,1833.67 L 5014.07,1835.39 Z " />
<path stroke="none" fill="#000000" transform="matrix(0.0833333 0 0 0.0833333 4.825 -70)" d="M 5071.22,1830.45 L 5071.36,1786.49 L 5091.2,1788.34 L 5091.06,1828.73 L 5071.22,1830.45 Z " />
<path stroke="none" fill="#000000" transform="matrix(0.0833333 0 0 0.0833333 4.825 -70)" d="M 5128.36,1825.5 L 5128.48,1791.82 L 5148.31,1793.67 L 5148.21,1823.78 L 5128.36,1825.5 Z " />
<path stroke="none" fill="#000000" transform="matrix(0.0833333 0 0 0.0833333 4.825 -70)" d="M 5185.51,1820.56 L 5185.59,1797.15 L 5205.42,1799 L 5205.36,1818.84 L 5185.51,1820.56 Z " />
<text x="0" y="0" stroke="none" fill="#000000" transform="matrix(0.0833333 0 0 0.0833333 369.911 118.728)" font-style="normal" font-weight="normal" font-size="240px" font-family="Arial" >
OC</text>
<path stroke="none" fill="#000000" transform="matrix(0.0833333 0 0 0.0833333 4.825 -70)" d="M 4781.24,2155.29 L 4743.32,2079.17 L 5193.79,1891.19 L 5202.64,1908.96 L 4781.24,2155.29 Z " />
<path stroke="none" fill="#000000" transform="matrix(0.0833333 0 0 0.0833333 4.825 -70)" d="M 5626.9,1410.97 L 5658.44,1439.51 L 5719.74,1468.24 L 5076.75,1464.22 L 5133.19,1436.22 L 5164.78,1408.08 L 5626.9,1410.97 Z " />
<text x="0" y="0" stroke="none" fill="#000000" transform="matrix(0.0833333 0 0 0.0833333 486.999 110.061)" font-style="normal" font-weight="normal" font-size="240px" font-family="Arial" >
C</text>
<path stroke="none" fill="#000000" transform="matrix(0.0833333 0 0 0.0833333 4.825 -70)" d="M 5806.5,1945.8 L 5797.32,1963.39 L 5579.52,1849.65 L 5588.7,1832.06 L 5806.5,1945.8 Z " />
<path stroke="none" fill="#000000" transform="matrix(0.0833333 0 0 0.0833333 4.825 -70)" d="M 5775.64,2004.91 L 5766.45,2022.5 L 5548.65,1908.75 L 5557.83,1891.16 L 5775.64,2004.91 Z " />
<path stroke="none" fill="#000000" transform="matrix(0.0833333 0 0 0.0833333 4.825 -70)" d="M 5744.77,2064.01 L 5735.58,2081.6 L 5517.78,1967.86 L 5526.97,1950.27 L 5744.77,2064.01 Z " />
<text x="0" y="0" stroke="none" fill="#000000" transform="matrix(0.0833333 0 0 0.0833333 517.622 126.369)" font-style="normal" font-weight="normal" font-size="240px" font-family="Arial" >
CH</text>
<text x="0" y="0" stroke="none" fill="#000000" transform="matrix(0.0833333 0 0 0.0833333 546.509 130.702)" font-style="normal" font-weight="normal" font-size="180px" font-family="Arial" >
2</text>
<text x="0" y="0" stroke="none" fill="#000000" transform="matrix(0.0833333 0 0 0.0833333 554.851 126.369)" font-style="normal" font-weight="normal" font-size="240px" font-family="Arial" >
Ph</text>
<path stroke="none" fill="#000000" transform="matrix(0.0833333 0 0 0.0833333 4.825 -70)" d="M 6143.6,2199.82 L 6134.28,2217.33 L 5983.42,2136.99 L 5992.74,2119.48 L 6143.6,2199.82 Z " />
<text x="0" y="0" stroke="none" fill="#000000" transform="matrix(0.0833333 0 0 0.0833333 440.786 168.075)" font-style="normal" font-weight="bold" font-size="240px" font-family="Arial" >
Re1H</text>
<text x="0" y="0" stroke="none" fill="#000000" transform="matrix(0.0833333 0 0 0.0833333 491.919 160.2)" font-style="normal" font-weight="bold" font-size="180px" font-family="Arial" >
+</text>
<path stroke="#000000" stroke-width="16" fill="none" transform="matrix(0.0833333 0 0 0.0833333 4.825 -70)" d="M 5532.1,1614.76 A 87.9369,87.9369 0 1 0 5707.98,1614.76A 87.9369,87.9369 0 1 0 5532.1,1614.76Z " />
<path stroke="none" fill="#000000" transform="matrix(0.0833333 0 0 0.0833333 4.825 -70)" d="M 5570.12,1606.76 L 5669.96,1606.76 L 5669.96,1622.76 L 5570.12,1622.76 Z " />
<path stroke="none" fill="#000000" transform="matrix(0.0833333 0 0 0.0833333 4.825 -70)" d="M 5628.04,1564.84 L 5628.04,1664.68 L 5612.04,1664.68 L 5612.04,1564.84 Z " />
<text x="0" y="0" stroke="none" fill="#000000" transform="matrix(0.0833333 0 0 0.0833333 424.509 218.744)" font-style="normal" font-weight="normal" font-size="240px" font-family="Arial" >
+e</text>
<text x="0" y="0" stroke="none" fill="#000000" transform="matrix(0.0833333 0 0 0.0833333 279.878 257.877)" font-style="normal" font-weight="normal" font-size="240px" font-family="Arial" >
Re</text>
<text x="0" y="0" stroke="none" fill="#000000" transform="matrix(0.0833333 0 0 0.0833333 215.368 257.694)" font-style="normal" font-weight="normal" font-size="240px" font-family="Arial" >
OC</text>
<path stroke="none" fill="#000000" transform="matrix(0.0833333 0 0 0.0833333 4.825 -70)" d="M 2916.63,3881.24 L 2916.91,3796.2 L 2936.75,3798.05 L 2936.47,3879.52 L 2916.63,3881.24 Z " />
<path stroke="none" fill="#000000" transform="matrix(0.0833333 0 0 0.0833333 4.825 -70)" d="M 2973.77,3876.3 L 2974.02,3801.53 L 2993.86,3803.38 L 2993.62,3874.58 L 2973.77,3876.3 Z " />
<path stroke="none" fill="#000000" transform="matrix(0.0833333 0 0 0.0833333 4.825 -70)" d="M 3030.92,3871.35 L 3031.14,3806.86 L 3050.97,3808.71 L 3050.77,3869.64 L 3030.92,3871.35 Z " />
<path stroke="none" fill="#000000" transform="matrix(0.0833333 0 0 0.0833333 4.825 -70)" d="M 3088.07,3866.41 L 3088.25,3812.18 L 3108.09,3814.03 L 3107.92,3864.69 L 3088.07,3866.41 Z " />
<path stroke="none" fill="#000000" transform="matrix(0.0833333 0 0 0.0833333 4.825 -70)" d="M 3145.22,3861.46 L 3145.36,3817.51 L 3165.2,3819.36 L 3165.06,3859.75 L 3145.22,3861.46 Z " />
<path stroke="none" fill="#000000" transform="matrix(0.0833333 0 0 0.0833333 4.825 -70)" d="M 3202.36,3856.52 L 3202.48,3822.84 L 3222.31,3824.69 L 3222.21,3854.8 L 3202.36,3856.52 Z " />
<path stroke="none" fill="#000000" transform="matrix(0.0833333 0 0 0.0833333 4.825 -70)" d="M 3259.51,3851.57 L 3259.59,3828.16 L 3279.42,3830.01 L 3279.36,3849.86 L 3259.51,3851.57 Z " />
<text x="0" y="0" stroke="none" fill="#000000" transform="matrix(0.0833333 0 0 0.0833333 212.411 289.98)" font-style="normal" font-weight="normal" font-size="240px" font-family="Arial" >
OC</text>
<path stroke="none" fill="#000000" transform="matrix(0.0833333 0 0 0.0833333 4.825 -70)" d="M 2890.66,4204.15 L 2849.17,4129.92 L 3270.99,3931.48 L 3280.67,3948.8 L 2890.66,4204.15 Z " />
<text x="0" y="0" stroke="none" fill="#000000" transform="matrix(0.0833333 0 0 0.0833333 326.499 279.312)" font-style="normal" font-weight="normal" font-size="240px" font-family="Arial" >
C</text>
<path stroke="none" fill="#000000" transform="matrix(0.0833333 0 0 0.0833333 4.825 -70)" d="M 3880.5,3976.82 L 3871.32,3994.41 L 3653.52,3880.66 L 3662.7,3863.08 L 3880.5,3976.82 Z " />
<path stroke="none" fill="#000000" transform="matrix(0.0833333 0 0 0.0833333 4.825 -70)" d="M 3849.64,4035.93 L 3840.45,4053.51 L 3622.65,3939.77 L 3631.83,3922.18 L 3849.64,4035.93 Z " />
<path stroke="none" fill="#000000" transform="matrix(0.0833333 0 0 0.0833333 4.825 -70)" d="M 3818.77,4095.03 L 3809.58,4112.62 L 3591.78,3998.87 L 3600.97,3981.29 L 3818.77,4095.03 Z " />
<text x="0" y="0" stroke="none" fill="#000000" transform="matrix(0.0833333 0 0 0.0833333 357.122 295.621)" font-style="normal" font-weight="normal" font-size="240px" font-family="Arial" >
CH</text>
<text x="0" y="0" stroke="none" fill="#000000" transform="matrix(0.0833333 0 0 0.0833333 386.009 299.954)" font-style="normal" font-weight="normal" font-size="180px" font-family="Arial" >
2</text>
<text x="0" y="0" stroke="none" fill="#000000" transform="matrix(0.0833333 0 0 0.0833333 394.351 295.621)" font-style="normal" font-weight="normal" font-size="240px" font-family="Arial" >
Ph</text>
<path stroke="none" fill="#000000" transform="matrix(0.0833333 0 0 0.0833333 4.825 -70)" d="M 4217.6,4230.84 L 4208.28,4248.35 L 4057.42,4168.01 L 4066.74,4150.5 L 4217.6,4230.84 Z " />
<text x="0" y="0" stroke="none" fill="#000000" transform="matrix(0.0833333 0 0 0.0833333 280.536 332.327)" font-style="normal" font-weight="bold" font-size="240px" font-family="Arial" >
Re1H</text>
<text x="0" y="0" stroke="none" fill="#000000" transform="matrix(0.0833333 0 0 0.0833333 331.669 324.452)" font-style="normal" font-weight="bold" font-size="180px" font-family="Arial" >
•</text>
<path stroke="none" fill="#000000" transform="matrix(0.0833333 0 0 0.0833333 4.825 -70)" d="M 3568.08,3665.46 A 29.96,29.96 0 1 0 3628,3665.46A 29.96,29.96 0 1 0 3568.08,3665.46Z " />
<text x="0" y="0" stroke="none" fill="#000000" transform="matrix(0.0833333 0 0 0.0833333 70.7595 143.744)" font-style="normal" font-weight="normal" font-size="240px" font-family="Arial" >
18e</text>
<text x="0" y="0" stroke="none" fill="#000000" transform="matrix(0.0833333 0 0 0.0833333 446.76 143.744)" font-style="normal" font-weight="normal" font-size="240px" font-family="Arial" >
18e</text>
<text x="0" y="0" stroke="none" fill="#000000" transform="matrix(0.0833333 0 0 0.0833333 287.385 308.994)" font-style="normal" font-weight="normal" font-size="240px" font-family="Arial" >
19e</text>
<text x="0" y="0" stroke="none" fill="#000000" transform="matrix(0.0833333 0 0 0.0833333 123.843 280.202)" font-style="normal" font-weight="normal" font-size="240px" font-family="Arial" >
–H</text>
<text x="0" y="0" stroke="none" fill="#000000" transform="matrix(0.0833333 0 0 0.0833333 149.409 272.369)" font-style="normal" font-weight="normal" font-size="180px" font-family="Arial" >
•</text>
<text x="0" y="0" stroke="none" fill="#000000" transform="matrix(0.0833333 0 0 0.0833333 471.634 204.869)" font-style="normal" font-weight="normal" font-size="240px" font-family="Arial" >
–1.51 </text>
<text x="0" y="0" stroke="none" fill="#000000" transform="matrix(0.0833333 0 0 0.0833333 527.293 204.869)" font-style="normal" font-weight="normal" font-size="240px" font-family="Arial" >
V </text>
<text x="0" y="0" stroke="none" fill="#000000" transform="matrix(0.0833333 0 0 0.0833333 471.634 233.119)" font-style="normal" font-weight="normal" font-size="240px" font-family="Arial" >
(Fc/Fc</text>
<text x="0" y="0" stroke="none" fill="#000000" transform="matrix(0.0833333 0 0 0.0833333 528.384 225.285)" font-style="normal" font-weight="normal" font-size="180px" font-family="Arial" >
+</text>
<text x="0" y="0" stroke="none" fill="#000000" transform="matrix(0.0833333 0 0 0.0833333 537.144 233.119)" font-style="normal" font-weight="normal" font-size="240px" font-family="Arial" >
)</text>
<text x="0" y="0" stroke="none" fill="#000000" transform="matrix(0.0833333 0 0 0.0833333 174.059 168.48)" font-style="normal" font-weight="normal" font-size="240px" font-family="Arial" >
H</text>
<path stroke="none" fill="#000000" transform="matrix(0.0833333 0 0 0.0833333 4.825 -70)" d="M 2055.31,2642.9 L 2038.21,2652.97 L 1910.4,2435.87 L 1927.5,2425.81 L 2055.31,2642.9 Z " />
<text x="0" y="0" stroke="none" fill="#000000" transform="matrix(0.0833333 0 0 0.0833333 201.988 126.18)" font-style="normal" font-weight="normal" font-size="240px" font-family="Arial" >
Ph</text>
<path stroke="none" fill="#000000" transform="matrix(0.0833333 0 0 0.0833333 4.825 -70)" d="M 2344.45,2258.74 L 2346.11,2278.51 L 1964.97,2310.56 L 1963.31,2290.78 L 2344.45,2258.74 Z " />
<path stroke="none" fill="#000000" transform="matrix(0.0833333 0 0 0.0833333 4.825 -70)" d="M 224.363,1186.96 L 227.631,1167.39 L 531.271,1218.1 L 531.718,1228.23 L 525.729,1237.29 L 224.363,1186.96 Z " />
<path stroke="none" fill="#000000" transform="matrix(0.0833333 0 0 0.0833333 4.825 -70)" d="M 950.512,891.697 L 970.341,892.422 L 962.323,1111.85 L 952.124,1119.29 L 942.479,1111.54 L 950.512,891.697 Z " />
<path stroke="none" fill="#000000" transform="matrix(0.0833333 0 0 0.0833333 4.825 -70)" d="M 1693.71,1144.61 L 1698.28,1163.92 L 1364.93,1242.81 L 1359.07,1234 L 1359.29,1223.75 L 1693.71,1144.61 Z " />
<path stroke="none" fill="#000000" transform="matrix(0.0833333 0 0 0.0833333 4.825 -70)" d="M 1574.47,1508.9 L 1569.25,1528.04 L 1261.54,1444.14 L 1193.73,1415.37 L 1242.89,1418.49 L 1574.47,1508.9 Z " />
<path stroke="none" fill="#000000" transform="matrix(0.0833333 0 0 0.0833333 4.825 -70)" d="M 346.767,1547.51 L 339.84,1528.91 L 636.215,1418.51 L 681.68,1412.16 L 634.792,1440.22 L 346.767,1547.51 Z " />
<path stroke="none" fill="#000000" transform="matrix(0.0833333 0 0 0.0833333 4.825 -70)" d="M 4628.87,1185.47 L 4632.87,1166.03 L 4979.1,1237.37 L 4979.36,1247.55 L 4973.27,1256.43 L 4628.87,1185.47 Z " />
<path stroke="none" fill="#000000" transform="matrix(0.0833333 0 0 0.0833333 4.825 -70)" d="M 6055.98,1186.75 L 6060.75,1206.01 L 5833.92,1262.24 L 5828.05,1253.47 L 5828.21,1243.21 L 6055.98,1186.75 Z " />
<path stroke="none" fill="#000000" transform="matrix(0.0833333 0 0 0.0833333 4.825 -70)" d="M 6043.49,1544.57 L 6037.79,1563.58 L 5719.74,1468.24 L 5658.44,1439.51 L 5706.97,1443.7 L 6043.49,1544.57 Z " />
<path stroke="none" fill="#000000" transform="matrix(0.0833333 0 0 0.0833333 4.825 -70)" d="M 4755.91,1564.27 L 4750.01,1545.33 L 5086.32,1440.45 L 5133.19,1436.22 L 5076.75,1464.22 L 4755.91,1564.27 Z " />
<path stroke="none" fill="#000000" transform="matrix(0.0833333 0 0 0.0833333 4.825 -70)" d="M 5406.44,887.978 L 5426.27,888.439 L 5420.7,1128.34 L 5410.61,1135.8 L 5400.86,1128.08 L 5406.44,887.978 Z " />
<path stroke="none" fill="#000000" transform="matrix(0.0833333 0 0 0.0833333 4.825 -70)" d="M 3243.31,3417.62 L 3211.72,3445.77 L 3163.72,3448.05 L 3053.63,3268.21 L 3059.74,3259.36 L 3079.59,3264.47 L 3243.31,3417.62 Z " />
<path stroke="none" fill="#000000" transform="matrix(0.0833333 0 0 0.0833333 4.825 -70)" d="M 3877.65,3269.72 L 3898.23,3265.21 L 3904.5,3273.41 L 3779.79,3452.26 L 3730.66,3449.01 L 3699.12,3420.47 L 3877.65,3269.72 Z " />
<path stroke="none" fill="#000000" transform="matrix(0.0833333 0 0 0.0833333 4.825 -70)" d="M 3485.7,3159.23 L 3485.8,3148.95 L 3495.63,3141.41 L 3897.71,3254.76 L 3898.23,3265.21 L 3877.65,3269.72 L 3485.7,3159.23 Z " />
<path stroke="none" fill="#000000" transform="matrix(0.0833333 0 0 0.0833333 4.825 -70)" d="M 3475.78,3141.3 L 3485.8,3148.95 L 3485.7,3159.23 L 3079.59,3264.47 L 3059.74,3259.36 L 3059.51,3249.18 L 3475.78,3141.3 Z " />
<path stroke="#000000" stroke-width="20" fill="none" transform="matrix(0.0833333 0 0 0.0833333 4.825 -70)" d="M 3478.01,3388.61 C 3628.69,3388.61 3752.74,3347.69 3752.74,3298.33 C 3752.74,3248.32 3628.69,3207.41 3478.01,3207.41 C 3327.33,3207.41 3203.93,3248.32 3203.93,3298.33 C 3203.93,3347.69 3327.33,3388.61 3478.01,3388.61 " />
<path stroke="none" fill="#000000" transform="matrix(0.0833333 0 0 0.0833333 4.825 -70)" d="M 2812.94,3217.33 L 2817.05,3197.92 L 3059.51,3249.18 L 3059.74,3259.36 L 3053.63,3268.21 L 2812.94,3217.33 Z " />
<path stroke="none" fill="#000000" transform="matrix(0.0833333 0 0 0.0833333 4.825 -70)" d="M 3473.45,2962.19 L 3493.29,2961.93 L 3495.63,3141.41 L 3485.8,3148.95 L 3475.78,3141.3 L 3473.45,2962.19 Z " />
<path stroke="none" fill="#000000" transform="matrix(0.0833333 0 0 0.0833333 4.825 -70)" d="M 4073.35,3186.01 L 4080.58,3204.48 L 3904.5,3273.41 L 3898.23,3265.21 L 3897.71,3254.76 L 4073.35,3186.01 Z " />
<path stroke="none" fill="#000000" transform="matrix(0.0833333 0 0 0.0833333 4.825 -70)" d="M 4073.12,3533.09 L 4067.85,3552.22 L 3797.71,3477.78 L 3730.66,3449.01 L 3779.79,3452.26 L 4073.12,3533.09 Z " />
<path stroke="none" fill="#000000" transform="matrix(0.0833333 0 0 0.0833333 4.825 -70)" d="M 2849.6,3550.57 L 2844.59,3531.37 L 3163.72,3448.05 L 3211.72,3445.77 L 3144.05,3473.69 L 2849.6,3550.57 Z " />
<path stroke="none" fill="#000000" transform="matrix(0.0833333 0 0 0.0833333 4.825 -70)" d="M 3464.77,3724.84 L 3444.93,3724.7 L 3446.39,3515.83 L 3466.23,3515.96 L 3464.77,3724.84 L 3464.77,3724.84 Z " />
<path stroke="none" fill="#000000" transform="matrix(0.0833333 0 0 0.0833333 4.825 -70)" d="M 3447.86,3305.36 L 3467.7,3305.5 L 3467.19,3378.77 L 3447.35,3378.64 L 3447.86,3305.36 L 3447.86,3305.36 Z " />
<path stroke="none" fill="#000000" transform="matrix(0.0833333 0 0 0.0833333 4.825 -70)" d="M 3699.12,3420.47 L 3730.66,3449.01 L 3797.71,3477.78 L 3144.05,3473.69 L 3211.72,3445.77 L 3243.31,3417.62 L 3699.12,3420.47 Z " />
<path stroke="none" fill="#000000" transform="matrix(0.0833333 0 0 0.0833333 4.825 -70)" d="M 5468,3876 L 5468,2976 L 5488,2976 L 5488,3876 Z " />
<path stroke="none" fill="#000000" transform="matrix(0.0833333 0 0 0.0833333 4.825 -70)" d="M 4930.62,3866 L 5478,3866 L 5478,3886 L 4930.62,3886 Z " />
<path stroke="none" fill="#000000" transform="matrix(0.0833333 0 0 0.0833333 4.825 -70)" d="M 4758,3876 C 4758,3876 4956.42,3824.39 4956.42,3824.39 C 4956.42,3824.39 4931.62,3853.42 4931.62,3876 C 4931.62,3898.14 4956.42,3926.61 4956.42,3926.61 C 4956.42,3926.61 4758,3876 4758,3876 C 4758,3876 4758,3876 4758,3876 " />
<path stroke="#000000" stroke-width="1" fill="none" transform="matrix(0.0833333 0 0 0.0833333 4.825 -70)" d="M 4758,3876 C 4758,3876 4956.42,3824.39 4956.42,3824.39 C 4956.42,3824.39 4931.62,3853.42 4931.62,3876 C 4931.62,3898.14 4956.42,3926.61 4956.42,3926.61 C 4956.42,3926.61 4758,3876 4758,3876 C 4758,3876 4758,3876 4758,3876 " />
<path stroke="none" fill="#000000" transform="matrix(0.0833333 0 0 0.0833333 4.825 -70)" d="M 930,3866 L 2286,3866 L 2286,3886 L 930,3886 Z " />
<path stroke="none" fill="#000000" transform="matrix(0.0833333 0 0 0.0833333 4.825 -70)" d="M 940,3172.62 L 940,3876 L 920,3876 L 920,3172.62 Z " />
<path stroke="none" fill="#000000" transform="matrix(0.0833333 0 0 0.0833333 4.825 -70)" d="M 930,3000 C 930,3000 980.606,3198.42 980.606,3198.42 C 980.606,3198.42 952.14,3173.62 930,3173.62 C 907.423,3173.62 878.394,3198.42 878.394,3198.42 C 878.394,3198.42 930,3000 930,3000 C 930,3000 930,3000 930,3000 " />
<path stroke="#000000" stroke-width="1" fill="none" transform="matrix(0.0833333 0 0 0.0833333 4.825 -70)" d="M 930,3000 C 930,3000 980.606,3198.42 980.606,3198.42 C 980.606,3198.42 952.14,3173.62 930,3173.62 C 907.423,3173.62 878.394,3198.42 878.394,3198.42 C 878.394,3198.42 930,3000 930,3000 C 930,3000 930,3000 930,3000 " />
</svg>
