<?xml version="1.0" standalone="no" ?>
<!DOCTYPE svg PUBLIC "-//W3C//DTD SVG 1.1//EN" "http://www.w3.org/Graphics/SVG/1.1/DTD/svg11.dtd">
<svg width="522px" height="214px" viewBox="0 0 522 214" style="background-color: #ffffff00" xmlns="http://www.w3.org/2000/svg" xmlns:xlink="http://www.w3.org/1999/xlink" version="1.1" >
<text x="0" y="0" stroke="none" fill="#000000" transform="matrix(0.0833333 0 0 0.0833333 11.4209 46.0833)" font-style="normal" font-weight="normal" font-size="240px" font-family="Arial" >
[Fe]</text>
<text x="0" y="0" stroke="none" fill="#000000" transform="matrix(0.0833333 0 0 0.0833333 73.5504 45.943)" font-style="normal" font-weight="normal" font-size="240px" font-family="Arial" >
C</text>
<path stroke="none" fill="#000000" transform="matrix(0.0833333 0 0 0.0833333 -38.175 -13)" d="M 1313.42,605.237 L 1313.49,622.244 L 1032.43,623.293 L 1032.37,606.286 L 1313.42,605.237 Z " />
<text x="0" y="0" stroke="none" fill="#000000" transform="matrix(0.0833333 0 0 0.0833333 104.984 45.6745)" font-style="normal" font-weight="normal" font-size="240px" font-family="Arial" >
C</text>
<path stroke="none" fill="#000000" transform="matrix(0.0833333 0 0 0.0833333 -38.175 -13)" d="M 1690.21,557.297 L 1690.35,574.305 L 1543.64,575.558 L 1543.49,558.55 L 1690.21,557.297 Z " />
<path stroke="none" fill="#000000" transform="matrix(0.0833333 0 0 0.0833333 -38.175 -13)" d="M 1690.59,602.562 L 1690.74,619.569 L 1544.02,620.822 L 1543.88,603.815 L 1690.59,602.562 Z " />
<path stroke="none" fill="#000000" transform="matrix(0.0833333 0 0 0.0833333 -38.175 -13)" d="M 1690.98,647.827 L 1691.13,664.834 L 1544.41,666.087 L 1544.26,649.08 L 1690.98,647.827 Z " />
<text x="0" y="0" stroke="none" fill="#000000" transform="matrix(0.0833333 0 0 0.0833333 78.7426 77.4133)" font-style="normal" font-weight="bold" font-size="240px" font-family="Arial" >
Fe1</text>
<text x="0" y="0" stroke="none" fill="#000000" transform="matrix(0.0833333 0 0 0.0833333 250.428 29.4512)" font-style="normal" font-weight="normal" font-size="240px" font-family="Arial" >
H</text>
<text x="0" y="0" stroke="none" fill="#000000" transform="matrix(0.0833333 0 0 0.0833333 264.871 21.6178)" font-style="normal" font-weight="normal" font-size="180px" font-family="Arial" >
+</text>
<text x="0" y="0" stroke="none" fill="#000000" transform="matrix(0.0833333 0 0 0.0833333 352.329 44.2505)" font-style="normal" font-weight="normal" font-size="240px" font-family="Arial" >
[Fe]</text>
<text x="0" y="0" stroke="none" fill="#000000" transform="matrix(0.0833333 0 0 0.0833333 416.84 44.2026)" font-style="normal" font-weight="normal" font-size="240px" font-family="Arial" >
C</text>
<path stroke="none" fill="#000000" transform="matrix(0.0833333 0 0 0.0833333 -38.175 -13)" d="M 5432.89,555.285 L 5432.91,572.292 L 5123.28,572.664 L 5123.26,555.656 L 5432.89,555.285 Z " />
<path stroke="none" fill="#000000" transform="matrix(0.0833333 0 0 0.0833333 -38.175 -13)" d="M 5432.95,612.843 L 5432.98,629.851 L 5123.35,630.222 L 5123.33,613.214 L 5432.95,612.843 Z " />
<text x="0" y="0" stroke="none" fill="#000000" transform="matrix(0.0833333 0 0 0.0833333 453.909 44.398)" font-style="normal" font-weight="normal" font-size="240px" font-family="Arial" >
C</text>
<path stroke="none" fill="#000000" transform="matrix(0.0833333 0 0 0.0833333 -38.175 -13)" d="M 5877.95,558.983 L 5877.86,575.99 L 5663.53,574.861 L 5663.62,557.853 L 5877.95,558.983 Z " />
<path stroke="none" fill="#000000" transform="matrix(0.0833333 0 0 0.0833333 -38.175 -13)" d="M 5877.66,612.362 L 5877.58,629.37 L 5663.25,628.24 L 5663.34,611.232 L 5877.66,612.362 Z " />
<text x="0" y="0" stroke="none" fill="#000000" transform="matrix(0.0833333 0 0 0.0833333 400.912 76.7609)" font-style="normal" font-weight="bold" font-size="240px" font-family="Arial" >
Fe1H</text>
<text x="0" y="0" stroke="none" fill="#000000" transform="matrix(0.0833333 0 0 0.0833333 449.852 68.8859)" font-style="normal" font-weight="bold" font-size="180px" font-family="Arial" >
+</text>
<path stroke="#000000" stroke-width="14" fill="none" transform="matrix(0.0833333 0 0 0.0833333 -38.175 -13)" d="M 5017.1,384.345 A 73.8031,73.8031 0 1 0 5164.7,384.345A 73.8031,73.8031 0 1 0 5017.1,384.345Z " />
<path stroke="none" fill="#000000" transform="matrix(0.0833333 0 0 0.0833333 -38.175 -13)" d="M 5048.73,377.011 L 5132.4,377.011 L 5132.4,391.011 L 5048.73,391.011 Z " />
<path stroke="none" fill="#000000" transform="matrix(0.0833333 0 0 0.0833333 -38.175 -13)" d="M 5097.57,342.174 L 5097.57,425.848 L 5083.57,425.848 L 5083.57,342.174 Z " />
<text x="0" y="0" stroke="none" fill="#000000" transform="matrix(0.0833333 0 0 0.0833333 383.538 116.89)" font-style="normal" font-weight="normal" font-size="240px" font-family="Arial" >
+e</text>
<text x="0" y="0" stroke="none" fill="#000000" transform="matrix(0.0833333 0 0 0.0833333 241.963 205.325)" font-style="normal" font-weight="bold" font-size="240px" font-family="Arial" >
Fe1H</text>
<text x="0" y="0" stroke="none" fill="#000000" transform="matrix(0.0833333 0 0 0.0833333 290.903 197.45)" font-style="normal" font-weight="bold" font-size="180px" font-family="Arial" >
•</text>
<text x="0" y="0" stroke="none" fill="#000000" transform="matrix(0.0833333 0 0 0.0833333 248.9 179.936)" font-style="normal" font-weight="normal" font-size="240px" font-family="Arial" >
19e</text>
<text x="0" y="0" stroke="none" fill="#000000" transform="matrix(0.0833333 0 0 0.0833333 127.656 136.353)" font-style="normal" font-weight="normal" font-size="240px" font-family="Arial" >
–H</text>
<text x="0" y="0" stroke="none" fill="#000000" transform="matrix(0.0833333 0 0 0.0833333 153.222 128.519)" font-style="normal" font-weight="normal" font-size="180px" font-family="Arial" >
•</text>
<text x="0" y="0" stroke="none" fill="#000000" transform="matrix(0.0833333 0 0 0.0833333 427.663 105.515)" font-style="normal" font-weight="normal" font-size="240px" font-family="Arial" >
–1.32 </text>
<text x="0" y="0" stroke="none" fill="#000000" transform="matrix(0.0833333 0 0 0.0833333 483.322 105.515)" font-style="normal" font-weight="normal" font-size="240px" font-family="Arial" >
V </text>
<text x="0" y="0" stroke="none" fill="#000000" transform="matrix(0.0833333 0 0 0.0833333 427.663 133.765)" font-style="normal" font-weight="normal" font-size="240px" font-family="Arial" >
(Fc/Fc</text>
<text x="0" y="0" stroke="none" fill="#000000" transform="matrix(0.0833333 0 0 0.0833333 484.413 125.932)" font-style="normal" font-weight="normal" font-size="180px" font-family="Arial" >
+</text>
<text x="0" y="0" stroke="none" fill="#000000" transform="matrix(0.0833333 0 0 0.0833333 493.173 133.765)" font-style="normal" font-weight="normal" font-size="240px" font-family="Arial" >
)</text>
<text x="0" y="0" stroke="none" fill="#000000" transform="matrix(0.0833333 0 0 0.0833333 141.683 45.3326)" font-style="normal" font-weight="normal" font-size="240px" font-family="Arial" >
Ph</text>
<path stroke="none" fill="#000000" transform="matrix(0.0833333 0 0 0.0833333 -38.175 -13)" d="M 2136.97,598.445 L 2137.13,615.452 L 1921.23,617.494 L 1921.07,600.487 L 2136.97,598.445 Z " />
<text x="0" y="0" stroke="none" fill="#000000" transform="matrix(0.0833333 0 0 0.0833333 493.995 20.5145)" font-style="normal" font-weight="normal" font-size="240px" font-family="Arial" >
Ph</text>
<path stroke="none" fill="#000000" transform="matrix(0.0833333 0 0 0.0833333 -38.175 -13)" d="M 6341.11,373.691 L 6349.9,388.249 L 6099.6,539.429 L 6090.8,524.87 L 6341.11,373.691 Z " />
<text x="0" y="0" stroke="none" fill="#000000" transform="matrix(0.0833333 0 0 0.0833333 484.802 68.7631)" font-style="normal" font-weight="normal" font-size="240px" font-family="Arial" >
H</text>
<path stroke="none" fill="#000000" transform="matrix(0.0833333 0 0 0.0833333 -38.175 -13)" d="M 6258.17,794.264 L 6247.64,807.619 L 6092.01,684.867 L 6102.54,671.513 L 6258.17,794.264 Z " />
<path stroke="none" fill="#000000" transform="matrix(0.0833333 0 0 0.0833333 -38.175 -13)" d="M 2974.44,1680.49 A 31.6833,31.6833 0 1 0 3037.81,1680.49A 31.6833,31.6833 0 1 0 2974.44,1680.49Z " />
<path stroke="none" fill="#000000" transform="matrix(0.0833333 0 0 0.0833333 -38.175 -13)" d="M 5456.16,1894.38 L 5456.16,1150.38 L 5476.16,1150.38 L 5476.16,1894.38 Z " />
<path stroke="none" fill="#000000" transform="matrix(0.0833333 0 0 0.0833333 -38.175 -13)" d="M 4879.86,1884.38 L 5466.16,1884.38 L 5466.16,1904.38 L 4879.86,1904.38 Z " />
<path stroke="none" fill="#000000" transform="matrix(0.0833333 0 0 0.0833333 -38.175 -13)" d="M 4705.86,1894.38 C 4705.86,1894.38 4905.86,1842.38 4905.86,1842.38 C 4905.86,1842.38 4880.86,1871.63 4880.86,1894.38 C 4880.86,1916.7 4905.86,1945.38 4905.86,1945.38 C 4905.86,1945.38 4705.86,1894.38 4705.86,1894.38 C 4705.86,1894.38 4705.86,1894.38 4705.86,1894.38 " />
<path stroke="#000000" stroke-width="1" fill="none" transform="matrix(0.0833333 0 0 0.0833333 -38.175 -13)" d="M 4705.86,1894.38 C 4705.86,1894.38 4905.86,1842.38 4905.86,1842.38 C 4905.86,1842.38 4880.86,1871.63 4880.86,1894.38 C 4880.86,1916.7 4905.86,1945.38 4905.86,1945.38 C 4905.86,1945.38 4705.86,1894.38 4705.86,1894.38 C 4705.86,1894.38 4705.86,1894.38 4705.86,1894.38 " />
<path stroke="none" fill="#000000" transform="matrix(0.0833333 0 0 0.0833333 -38.175 -13)" d="M 1699.79,1354.62 L 1699.79,1882.93 L 1679.79,1882.93 L 1679.79,1354.62 Z " />
<path stroke="none" fill="#000000" transform="matrix(0.0833333 0 0 0.0833333 -38.175 -13)" d="M 1689.79,1180.62 C 1689.79,1180.62 1740.79,1380.62 1740.79,1380.62 C 1740.79,1380.62 1712.1,1355.62 1689.79,1355.62 C 1667.04,1355.62 1637.79,1380.62 1637.79,1380.62 C 1637.79,1380.62 1689.79,1180.62 1689.79,1180.62 C 1689.79,1180.62 1689.79,1180.62 1689.79,1180.62 " />
<path stroke="#000000" stroke-width="1" fill="none" transform="matrix(0.0833333 0 0 0.0833333 -38.175 -13)" d="M 1689.79,1180.62 C 1689.79,1180.62 1740.79,1380.62 1740.79,1380.62 C 1740.79,1380.62 1712.1,1355.62 1689.79,1355.62 C 1667.04,1355.62 1637.79,1380.62 1637.79,1380.62 C 1637.79,1380.62 1689.79,1180.62 1689.79,1180.62 C 1689.79,1180.62 1689.79,1180.62 1689.79,1180.62 " />
<path stroke="none" fill="#000000" transform="matrix(0.0833333 0 0 0.0833333 -38.175 -13)" d="M 4301.96,627.114 L 2591.96,627.114 L 2591.96,607.114 L 4301.96,607.114 Z " />
<path stroke="none" fill="#000000" transform="matrix(0.0833333 0 0 0.0833333 -38.175 -13)" d="M 4475.96,617.114 C 4475.96,617.114 4275.96,668.114 4275.96,668.114 C 4275.96,668.114 4300.96,639.427 4300.96,617.114 C 4300.96,594.364 4275.96,565.114 4275.96,565.114 C 4275.96,565.114 4475.96,617.114 4475.96,617.114 C 4475.96,617.114 4475.96,617.114 4475.96,617.114 " />
<path stroke="#000000" stroke-width="1" fill="none" transform="matrix(0.0833333 0 0 0.0833333 -38.175 -13)" d="M 4475.96,617.114 C 4475.96,617.114 4275.96,668.114 4275.96,668.114 C 4275.96,668.114 4300.96,639.427 4300.96,617.114 C 4300.96,594.364 4275.96,565.114 4275.96,565.114 C 4275.96,565.114 4475.96,617.114 4475.96,617.114 C 4475.96,617.114 4475.96,617.114 4475.96,617.114 " />
<text x="0" y="0" stroke="none" fill="#000000" transform="matrix(0.0833333 0 0 0.0833333 185.831 150.595)" font-style="normal" font-weight="normal" font-size="240px" font-family="Arial" >
[Fe]</text>
<text x="0" y="0" stroke="none" fill="#000000" transform="matrix(0.0833333 0 0 0.0833333 250.342 150.547)" font-style="normal" font-weight="normal" font-size="240px" font-family="Arial" >
C</text>
<path stroke="none" fill="#000000" transform="matrix(0.0833333 0 0 0.0833333 -38.175 -13)" d="M 3434.91,1831.41 L 3434.93,1848.42 L 3125.3,1848.79 L 3125.28,1831.79 L 3434.91,1831.41 Z " />
<path stroke="none" fill="#000000" transform="matrix(0.0833333 0 0 0.0833333 -38.175 -13)" d="M 3434.97,1888.97 L 3434.99,1905.98 L 3125.37,1906.35 L 3125.35,1889.34 L 3434.97,1888.97 Z " />
<text x="0" y="0" stroke="none" fill="#000000" transform="matrix(0.0833333 0 0 0.0833333 287.411 150.742)" font-style="normal" font-weight="normal" font-size="240px" font-family="Arial" >
C</text>
<path stroke="none" fill="#000000" transform="matrix(0.0833333 0 0 0.0833333 -38.175 -13)" d="M 3879.97,1835.11 L 3879.88,1852.12 L 3665.55,1850.99 L 3665.64,1833.98 L 3879.97,1835.11 Z " />
<path stroke="none" fill="#000000" transform="matrix(0.0833333 0 0 0.0833333 -38.175 -13)" d="M 3879.68,1888.49 L 3879.59,1905.5 L 3665.27,1904.37 L 3665.36,1887.36 L 3879.68,1888.49 Z " />
<text x="0" y="0" stroke="none" fill="#000000" transform="matrix(0.0833333 0 0 0.0833333 327.496 126.859)" font-style="normal" font-weight="normal" font-size="240px" font-family="Arial" >
Ph</text>
<path stroke="none" fill="#000000" transform="matrix(0.0833333 0 0 0.0833333 -38.175 -13)" d="M 4343.13,1649.82 L 4351.92,1664.38 L 4101.62,1815.56 L 4092.82,1801 L 4343.13,1649.82 Z " />
<text x="0" y="0" stroke="none" fill="#000000" transform="matrix(0.0833333 0 0 0.0833333 318.303 175.107)" font-style="normal" font-weight="normal" font-size="240px" font-family="Arial" >
H</text>
<path stroke="none" fill="#000000" transform="matrix(0.0833333 0 0 0.0833333 -38.175 -13)" d="M 4260.19,2070.39 L 4249.66,2083.75 L 4094.03,1961 L 4104.56,1947.64 L 4260.19,2070.39 Z " />
<path stroke="none" fill="#000000" transform="matrix(0.0833333 0 0 0.0833333 -38.175 -13)" d="M 1684.95,1877.66 L 2552.26,1877.66 L 2552.26,1897.66 L 1684.95,1897.66 Z " />
<text x="0" y="0" stroke="none" fill="#000000" transform="matrix(0.0833333 0 0 0.0833333 3.74328 192.292)" font-style="normal" font-weight="normal" font-size="240px" font-family="Arial" >
[Fe] </text>
<text x="0" y="0" stroke="none" fill="#000000" transform="matrix(0.0833333 0 0 0.0833333 43.8663 192.292)" font-style="normal" font-weight="normal" font-size="240px" font-family="Arial" >
= </text>
<text x="0" y="0" stroke="none" fill="#000000" transform="matrix(0.0833333 0 0 0.0833333 61.1294 192.292)" font-style="normal" font-weight="normal" font-size="240px" font-family="Arial" >
Cp(CO)(PPh</text>
<text x="0" y="0" stroke="none" fill="#000000" transform="matrix(0.0833333 0 0 0.0833333 174.525 196.626)" font-style="normal" font-weight="normal" font-size="180px" font-family="Arial" >
3</text>
<text x="0" y="0" stroke="none" fill="#000000" transform="matrix(0.0833333 0 0 0.0833333 182.867 192.292)" font-style="normal" font-weight="normal" font-size="240px" font-family="Arial" >
)Fe</text>
</svg>
