<?xml version="1.0" standalone="no" ?>
<!DOCTYPE svg PUBLIC "-//W3C//DTD SVG 1.1//EN" "http://www.w3.org/Graphics/SVG/1.1/DTD/svg11.dtd">
<svg width="450px" height="161px" viewBox="0 0 450 161" style="background-color: #ffffff00" xmlns="http://www.w3.org/2000/svg" xmlns:xlink="http://www.w3.org/1999/xlink" version="1.1" >
<path stroke="none" fill="#000000" transform="matrix(0.0833333 0 0 0.0833333 -148.175 -1041.83)" d="M 2074.57,13369.4 L 2085.91,13389 L 1836.5,13533 L 1825.16,13513.4 L 2074.57,13369.4 Z " />
<path stroke="none" fill="#000000" transform="matrix(0.0833333 0 0 0.0833333 -148.175 -1041.83)" d="M 2102.92,13418.5 L 2114.26,13438.1 L 1864.84,13582.1 L 1853.5,13562.5 L 2102.92,13418.5 Z " />
<path stroke="none" fill="#000000" transform="matrix(0.0833333 0 0 0.0833333 -148.175 -1041.83)" d="M 3740.08,13505.5 L 2280,13505.5 L 2280,13482.5 L 3740.08,13482.5 Z " />
<path stroke="none" fill="#000000" transform="matrix(0.0833333 0 0 0.0833333 -148.175 -1041.83)" d="M 3937.5,13494 C 3937.5,13494 3710.73,13551.7 3710.73,13551.7 C 3710.73,13551.7 3739.08,13519.2 3739.08,13494 C 3739.08,13468.3 3710.73,13435.3 3710.73,13435.3 C 3710.73,13435.3 3937.5,13494 3937.5,13494 C 3937.5,13494 3937.5,13494 3937.5,13494 " />
<path stroke="#000000" stroke-width="1" fill="none" transform="matrix(0.0833333 0 0 0.0833333 -148.175 -1041.83)" d="M 3937.5,13494 C 3937.5,13494 3710.73,13551.7 3710.73,13551.7 C 3710.73,13551.7 3739.08,13519.2 3739.08,13494 C 3739.08,13468.3 3710.73,13435.3 3710.73,13435.3 C 3710.73,13435.3 3937.5,13494 3937.5,13494 C 3937.5,13494 3937.5,13494 3937.5,13494 " />
<path stroke="none" fill="#000000" transform="matrix(0.0833333 0 0 0.0833333 -148.175 -1041.83)" d="M 3032.27,12720.6 L 3038.18,12731.9 L 3031.84,12743.2 L 2856.34,12743.2 L 2850.08,12731.9 L 2856,12720.6 L 3032.27,12720.6 Z " />
<text x="0" y="0" stroke="none" fill="#0000ff" transform="matrix(0.0833333 0 0 0.0833333 74.117 40.831)" font-style="normal" font-weight="bold" font-size="160px" font-family="Times New Roman" >
N</text>
<text x="0" y="0" stroke="none" fill="#008000" transform="matrix(0.0833333 0 0 0.0833333 91.077 64.4375)" font-style="normal" font-weight="bold" font-size="160px" font-family="Times New Roman" >
Ni</text>
<text x="0" y="0" stroke="none" fill="#0000ff" transform="matrix(0.0833333 0 0 0.0833333 110.291 40.831)" font-style="normal" font-weight="bold" font-size="160px" font-family="Times New Roman" >
N</text>
<path stroke="none" fill="#000000" transform="matrix(0.0833333 0 0 0.0833333 -148.175 -1041.83)" d="M 2787.86,12851.8 L 2768.68,12839.7 L 2836.48,12732.2 L 2850.08,12731.9 L 2856.34,12743.2 L 2787.86,12851.8 Z " />
<path stroke="none" fill="#000000" transform="matrix(0.0833333 0 0 0.0833333 -148.175 -1041.83)" d="M 2835.81,12882.1 L 2816.63,12870 L 2871.77,12782.5 L 2890.95,12794.6 L 2835.81,12882.1 Z " />
<path stroke="none" fill="#000000" transform="matrix(0.0833333 0 0 0.0833333 -148.175 -1041.83)" d="M 2878.81,13121.8 L 2800.18,13063.5 L 2827.1,13057 L 2839.25,13031.9 L 2878.81,13121.8 L 2878.81,13121.8 Z " />
<path stroke="none" fill="#000000" transform="matrix(0.0833333 0 0 0.0833333 -148.175 -1041.83)" d="M 2835.97,13049.9 L 2818.23,13064 L 2781.3,13017.7 L 2799.04,13003.5 L 2835.97,13049.9 Z " />
<path stroke="none" fill="#000000" transform="matrix(0.0833333 0 0 0.0833333 -148.175 -1041.83)" d="M 3015.34,13125.6 L 3048.66,13040.9 L 3060.83,13063.8 L 3086,13068.9 L 3015.34,13125.6 L 3015.34,13125.6 Z " />
<path stroke="none" fill="#000000" transform="matrix(0.0833333 0 0 0.0833333 -148.175 -1041.83)" d="M 3069.96,13070.5 L 3051.69,13057 L 3084.18,13012.9 L 3102.45,13026.3 L 3069.96,13070.5 Z " />
<path stroke="none" fill="#000000" transform="matrix(0.0833333 0 0 0.0833333 -148.175 -1041.83)" d="M 3031.84,12743.2 L 3038.18,12731.9 L 3051.73,12732.3 L 3117.04,12838.6 L 3097.72,12850.4 L 3031.84,12743.2 Z " />
<path stroke="none" fill="#000000" transform="matrix(0.0833333 0 0 0.0833333 -148.175 -1041.83)" d="M 2996.82,12794.5 L 3016.14,12782.7 L 3068.74,12868.2 L 3049.42,12880.1 L 2996.82,12794.5 Z " />
<path stroke="none" fill="#000000" transform="matrix(0.0833333 0 0 0.0833333 -148.175 -1041.83)" d="M 2733.46,12584.4 L 2752.06,12571.4 L 2856,12720.6 L 2850.08,12731.9 L 2836.48,12732.2 L 2733.46,12584.4 Z " />
<path stroke="none" fill="#000000" transform="matrix(0.0833333 0 0 0.0833333 -148.175 -1041.83)" d="M 3136.21,12571.4 L 3154.81,12584.4 L 3051.73,12732.3 L 3038.18,12731.9 L 3032.27,12720.6 L 3136.21,12571.4 Z " />
<text x="0" y="0" stroke="none" fill="#000000" transform="matrix(0.0833333 0 0 0.0833333 133.2 40.7332)" font-style="normal" font-weight="bold" font-size="160px" font-family="Times New Roman" >
R&apos;</text>
<path stroke="none" fill="#000000" transform="matrix(0.0833333 0 0 0.0833333 -148.175 -1041.83)" d="M 3347.7,12917.3 L 3347.8,12940 L 3244.39,12940.4 L 3244.29,12917.8 L 3347.7,12917.3 Z " />
<text x="0" y="0" stroke="none" fill="#000000" transform="matrix(0.0833333 0 0 0.0833333 50.117 40.831)" font-style="normal" font-weight="bold" font-size="160px" font-family="Times New Roman" >
R</text>
<path stroke="none" fill="#000000" transform="matrix(0.0833333 0 0 0.0833333 -148.175 -1041.83)" d="M 2526.25,12940.8 L 2526.25,12918.1 L 2638.76,12918.1 L 2638.76,12940.8 L 2526.25,12940.8 Z " />
<text x="0" y="0" stroke="none" fill="#800000" transform="matrix(0.0833333 0 0 0.0833333 65.1016 76.4375)" font-style="normal" font-weight="bold" font-size="160px" font-family="Times New Roman" >
Br</text>
<path stroke="none" fill="#000000" transform="matrix(0.0833333 0 0 0.0833333 -148.175 -1041.83)" d="M 2763.49,13334.2 L 2752.15,13314.6 L 2834.84,13266.9 L 2846.17,13286.5 L 2763.49,13334.2 Z " />
<text x="0" y="0" stroke="none" fill="#800000" transform="matrix(0.0833333 0 0 0.0833333 114.089 76.4375)" font-style="normal" font-weight="bold" font-size="160px" font-family="Times New Roman" >
Br</text>
<path stroke="none" fill="#000000" transform="matrix(0.0833333 0 0 0.0833333 -148.175 -1041.83)" d="M 3121.8,13298.1 L 3110.46,13317.8 L 3056.74,13286.7 L 3068.07,13267.1 L 3121.8,13298.1 Z " />
<path stroke="none" fill="#000000" transform="matrix(0.0833333 0 0 0.0833333 -148.175 -1041.83)" d="M 4494.41,12980.7 L 4494.41,13006.8 L 4445.67,13035 L 4434.33,13015.3 L 4494.41,12980.7 Z " />
<path stroke="none" fill="#000000" transform="matrix(0.0833333 0 0 0.0833333 -148.175 -1041.83)" d="M 4385.58,13043.5 L 4396.92,13063.1 L 4348.17,13091.3 L 4336.83,13071.6 L 4385.58,13043.5 Z " />
<path stroke="none" fill="#000000" transform="matrix(0.0833333 0 0 0.0833333 -148.175 -1041.83)" d="M 4288.08,13099.8 L 4299.42,13119.4 L 4250.67,13147.6 L 4239.33,13127.9 L 4288.08,13099.8 Z " />
<path stroke="none" fill="#000000" transform="matrix(0.0833333 0 0 0.0833333 -148.175 -1041.83)" d="M 4743.83,13124.7 L 4743.83,13137.7 L 4732.49,13144.3 L 4494.41,13006.8 L 4494.41,12980.7 L 4743.83,13124.7 Z " />
<path stroke="none" fill="#000000" transform="matrix(0.0833333 0 0 0.0833333 -148.175 -1041.83)" d="M 4993.25,12980.7 L 4993.25,13006.8 L 4755.17,13144.3 L 4743.83,13137.7 L 4743.83,13124.7 L 4993.25,12980.7 Z " />
<path stroke="none" fill="#000000" transform="matrix(0.0833333 0 0 0.0833333 -148.175 -1041.83)" d="M 5242.66,13124.7 L 5242.66,13137.7 L 5231.32,13144.3 L 4993.25,13006.8 L 4993.25,12980.7 L 5242.66,13124.7 Z " />
<path stroke="none" fill="#000000" transform="matrix(0.0833333 0 0 0.0833333 -148.175 -1041.83)" d="M 5480.74,12987.2 L 5492.08,12993.8 L 5492.08,13006.8 L 5254,13144.3 L 5242.66,13137.7 L 5242.66,13124.7 L 5480.74,12987.2 Z " />
<path stroke="none" fill="#000000" transform="matrix(0.0833333 0 0 0.0833333 -148.175 -1041.83)" d="M 5741.49,13124.7 L 5741.49,13150.8 L 5492.08,13006.8 L 5492.08,12993.8 L 5503.41,12987.2 L 5741.49,13124.7 Z " />
<path stroke="none" fill="#000000" transform="matrix(0.0833333 0 0 0.0833333 -148.175 -1041.83)" d="M 5979.57,12987.2 L 5990.91,12993.8 L 5990.91,13006.8 L 5741.49,13150.8 L 5741.49,13124.7 L 5979.57,12987.2 Z " />
<path stroke="none" fill="#000000" transform="matrix(0.0833333 0 0 0.0833333 -148.175 -1041.83)" d="M 6240.32,13124.7 L 6240.32,13150.8 L 5990.91,13006.8 L 5990.91,12993.8 L 6002.24,12987.2 L 6240.32,13124.7 Z " />
<path stroke="none" fill="#000000" transform="matrix(0.0833333 0 0 0.0833333 -148.175 -1041.83)" d="M 4755.17,13425.7 L 4732.49,13425.7 L 4732.49,13144.3 L 4743.83,13137.7 L 4755.17,13144.3 L 4755.17,13425.7 Z " />
<path stroke="none" fill="#000000" transform="matrix(0.0833333 0 0 0.0833333 -148.175 -1041.83)" d="M 5254,13419.2 L 5231.32,13432.3 L 5231.32,13144.3 L 5242.66,13137.7 L 5254,13144.3 L 5254,13419.2 Z " />
<path stroke="none" fill="#000000" transform="matrix(0.0833333 0 0 0.0833333 -148.175 -1041.83)" d="M 5497.75,13559.9 L 5486.41,13579.6 L 5231.32,13432.3 L 5254,13419.2 L 5497.75,13559.9 Z " />
<path stroke="none" fill="#000000" transform="matrix(0.0833333 0 0 0.0833333 -148.175 -1041.83)" d="M 5979.57,12712.3 L 6002.24,12699.2 L 6002.24,12987.2 L 5990.91,12993.8 L 5979.57,12987.2 L 5979.57,12712.3 Z " />
<path stroke="none" fill="#000000" transform="matrix(0.0833333 0 0 0.0833333 -148.175 -1041.83)" d="M 5735.82,12571.6 L 5747.16,12551.9 L 6002.24,12699.2 L 5979.57,12712.3 L 5735.82,12571.6 Z " />
<path stroke="none" fill="#000000" transform="matrix(0.0833333 0 0 0.0833333 -148.175 -1041.83)" d="M 5480.74,12705.8 L 5503.41,12705.8 L 5503.41,12987.2 L 5492.08,12993.8 L 5480.74,12987.2 L 5480.74,12705.8 Z " />
<path stroke="none" fill="#000000" transform="matrix(0.0833333 0 0 0.0833333 -148.175 -1041.83)" d="M 6484.07,12983.9 L 6495.41,13003.6 L 6446.66,13031.7 L 6435.32,13012.1 L 6484.07,12983.9 Z " />
<path stroke="none" fill="#000000" transform="matrix(0.0833333 0 0 0.0833333 -148.175 -1041.83)" d="M 6386.57,13040.2 L 6397.91,13059.9 L 6349.16,13088 L 6337.82,13068.4 L 6386.57,13040.2 Z " />
<path stroke="none" fill="#000000" transform="matrix(0.0833333 0 0 0.0833333 -148.175 -1041.83)" d="M 6289.07,13096.5 L 6300.41,13116.2 L 6240.32,13150.8 L 6240.32,13124.7 L 6289.07,13096.5 Z " />
<text x="0" y="0" stroke="none" fill="#000000" transform="matrix(0.0833333 0 0 0.0833333 52.1375 100.167)" font-style="normal" font-weight="bold" font-size="200px" font-family="Times New Roman" >
Et</text>
<text x="0" y="0" stroke="none" fill="#000000" transform="matrix(0.0833333 0 0 0.0833333 68.8374 103.75)" font-style="normal" font-weight="bold" font-size="150px" font-family="Times New Roman" >
2</text>
<text x="0" y="0" stroke="none" fill="#000000" transform="matrix(0.0833333 0 0 0.0833333 75.0874 100.167)" font-style="normal" font-weight="bold" font-size="200px" font-family="Times New Roman" >
AlCl/Et</text>
<text x="0" y="0" stroke="none" fill="#000000" transform="matrix(0.0833333 0 0 0.0833333 129.86 103.75)" font-style="normal" font-weight="bold" font-size="150px" font-family="Times New Roman" >
2</text>
<text x="0" y="0" stroke="none" fill="#000000" transform="matrix(0.0833333 0 0 0.0833333 136.11 100.167)" font-style="normal" font-weight="bold" font-size="200px" font-family="Times New Roman" >
Zn</text>
<text x="0" y="0" stroke="none" fill="#000000" transform="matrix(0.0833333 0 0 0.0833333 213.7 106.417)" font-style="normal" font-weight="bold" font-size="200px" font-family="Times New Roman" >
Hyper </text>
<text x="0" y="0" stroke="none" fill="#000000" transform="matrix(0.0833333 0 0 0.0833333 263.303 106.417)" font-style="normal" font-weight="bold" font-size="200px" font-family="Times New Roman" >
branched </text>
<text x="0" y="0" stroke="none" fill="#000000" transform="matrix(0.0833333 0 0 0.0833333 335.129 106.417)" font-style="normal" font-weight="bold" font-size="200px" font-family="Times New Roman" >
PE</text>
<text x="0" y="0" stroke="none" fill="#000000" transform="matrix(0.0833333 0 0 0.0833333 124.599 128.917)" font-style="normal" font-weight="bold" font-size="200px" font-family="Times New Roman" >
BD </text>
<text x="0" y="0" stroke="none" fill="#000000" transform="matrix(0.0833333 0 0 0.0833333 151.919 128.917)" font-style="normal" font-weight="bold" font-size="200px" font-family="Times New Roman" >
up </text>
<text x="0" y="0" stroke="none" fill="#000000" transform="matrix(0.0833333 0 0 0.0833333 174.624 128.917)" font-style="normal" font-weight="bold" font-size="200px" font-family="Times New Roman" >
to </text>
<text x="0" y="0" stroke="none" fill="#0000ff" transform="matrix(0.0833333 0 0 0.0833333 192.707 128.917)" font-style="normal" font-weight="bold" font-size="200px" font-family="Times New Roman" >
170</text>
<text x="0" y="0" stroke="none" fill="#000000" transform="matrix(0.0833333 0 0 0.0833333 217.707 128.917)" font-style="normal" font-weight="bold" font-size="200px" font-family="Times New Roman" >
 </text>
<text x="0" y="0" stroke="none" fill="#000000" transform="matrix(0.0833333 0 0 0.0833333 221.874 128.917)" font-style="normal" font-weight="bold" font-size="200px" font-family="Times New Roman" >
branches </text>
<text x="0" y="0" stroke="none" fill="#000000" transform="matrix(0.0833333 0 0 0.0833333 290.931 128.917)" font-style="normal" font-weight="bold" font-size="200px" font-family="Times New Roman" >
/ </text>
<text x="0" y="0" stroke="none" fill="#000000" transform="matrix(0.0833333 0 0 0.0833333 299.765 128.917)" font-style="normal" font-weight="bold" font-size="200px" font-family="Times New Roman" >
1000C </text>
<text x="0" y="0" stroke="none" fill="#000000" transform="matrix(0.0833333 0 0 0.0833333 349.301 128.917)" font-style="normal" font-weight="bold" font-size="200px" font-family="Times New Roman" >
with </text>
<text x="0" y="0" stroke="none" fill="#000000" transform="matrix(0.0833333 0 0 0.0833333 385.023 128.917)" font-style="normal" font-weight="bold" font-size="200px" font-family="Times New Roman" >
T</text>
<text x="0" y="0" stroke="none" fill="#000000" transform="matrix(0.0833333 0 0 0.0833333 396.139 132.5)" font-style="normal" font-weight="bold" font-size="150px" font-family="Times New Roman" >
m</text>
<text x="0" y="0" stroke="none" fill="#000000" transform="matrix(0.0833333 0 0 0.0833333 406.556 128.917)" font-style="normal" font-weight="bold" font-size="200px" font-family="Times New Roman" >
 </text>
<text x="0" y="0" stroke="none" fill="#0000ff" transform="matrix(0.0833333 0 0 0.0833333 410.723 128.917)" font-style="normal" font-weight="bold" font-size="200px" font-family="Times New Roman" >
72</text>
<text x="0" y="0" stroke="none" fill="#0000ff" transform="matrix(0.0833333 0 0 0.0833333 427.389 122.375)" font-style="normal" font-weight="bold" font-size="150px" font-family="Times New Roman" >
o</text>
<text x="0" y="0" stroke="none" fill="#0000ff" transform="matrix(0.0833333 0 0 0.0833333 433.639 128.917)" font-style="normal" font-weight="bold" font-size="200px" font-family="Times New Roman" >
C</text>
<text x="0" y="0" stroke="none" fill="#000000" transform="matrix(0.0833333 0 0 0.0833333 153.075 152.75)" font-style="normal" font-weight="bold" font-size="200px" font-family="Times New Roman" >
Activity </text>
<text x="0" y="0" stroke="none" fill="#000000" transform="matrix(0.0833333 0 0 0.0833333 213.861 152.75)" font-style="normal" font-weight="bold" font-size="200px" font-family="Times New Roman" >
up </text>
<text x="0" y="0" stroke="none" fill="#000000" transform="matrix(0.0833333 0 0 0.0833333 236.566 152.75)" font-style="normal" font-weight="bold" font-size="200px" font-family="Times New Roman" >
to </text>
<text x="0" y="0" stroke="none" fill="#ff0000" transform="matrix(0.0833333 0 0 0.0833333 254.65 152.75)" font-style="normal" font-weight="bold" font-size="200px" font-family="Times New Roman" >
533</text>
<text x="0" y="0" stroke="none" fill="#000000" transform="matrix(0.0833333 0 0 0.0833333 279.65 152.75)" font-style="normal" font-weight="bold" font-size="200px" font-family="Times New Roman" >
 </text>
<text x="0" y="0" stroke="none" fill="#000000" transform="matrix(0.0833333 0 0 0.0833333 283.816 152.75)" font-style="normal" font-weight="bold" font-size="200px" font-family="Times New Roman" >
kg</text>
<text x="0" y="0" stroke="none" fill="#000000" transform="matrix(0.0833333 0 0 0.0833333 301.483 156.333)" font-style="normal" font-weight="bold" font-size="150px" font-family="Times New Roman" >
PE</text>
<text x="0" y="0" stroke="none" fill="#000000" transform="matrix(0.0833333 0 0 0.0833333 317.487 152.75)" font-style="normal" font-weight="bold" font-size="200px" font-family="Times New Roman" >
/(mol</text>
<text x="0" y="0" stroke="none" fill="#000000" transform="matrix(0.0833333 0 0 0.0833333 354.654 156.333)" font-style="normal" font-weight="bold" font-size="150px" font-family="Times New Roman" >
Ni </text>
<text x="0" y="0" stroke="none" fill="#000000" transform="matrix(0.0833333 0 0 0.0833333 370.347 152.75)" font-style="normal" font-weight="bold" font-size="200px" font-family="Times New Roman" >
h </text>
<text x="0" y="0" stroke="none" fill="#000000" transform="matrix(0.0833333 0 0 0.0833333 383.783 152.75)" font-style="normal" font-weight="bold" font-size="200px" font-family="Times New Roman" >
atm)</text>
</svg>
