<?xml version="1.0" standalone="no" ?>
<!DOCTYPE svg PUBLIC "-//W3C//DTD SVG 1.1//EN" "http://www.w3.org/Graphics/SVG/1.1/DTD/svg11.dtd">
<svg width="570px" height="167px" viewBox="0 0 570 167" style="background-color: #ffffff00" xmlns="http://www.w3.org/2000/svg" xmlns:xlink="http://www.w3.org/1999/xlink" version="1.1" >
<path stroke="none" fill="#000000" transform="matrix(0.0833333 0 0 0.0833333 -84.175 -1006.83)" d="M 4582.83,12707.5 L 4591.5,12724.5 L 4582.2,12741.5 L 4235.17,12741.5 L 4226,12724.5 L 4234.67,12707.5 L 4582.83,12707.5 Z " />
<text x="0" y="0" stroke="none" fill="#0000ff" transform="matrix(0.0833333 0 0 0.0833333 245.617 84.992)" font-style="normal" font-weight="bold" font-size="200px" font-family="Times New Roman" >
N</text>
<text x="0" y="0" stroke="none" fill="#008000" transform="matrix(0.0833333 0 0 0.0833333 273.724 114.516)" font-style="normal" font-weight="bold" font-size="200px" font-family="Times New Roman" >
Ni</text>
<text x="0" y="0" stroke="none" fill="#0000ff" transform="matrix(0.0833333 0 0 0.0833333 308.408 84.992)" font-style="normal" font-weight="bold" font-size="200px" font-family="Times New Roman" >
N</text>
<path stroke="none" fill="#000000" transform="matrix(0.0833333 0 0 0.0833333 -84.175 -1006.83)" d="M 4108.22,12934.6 L 4079.8,12915.9 L 4205.33,12725 L 4226,12724.5 L 4235.17,12741.5 L 4108.22,12934.6 Z " />
<path stroke="none" fill="#000000" transform="matrix(0.0833333 0 0 0.0833333 -84.175 -1006.83)" d="M 4179.28,12981.3 L 4150.86,12962.6 L 4257.65,12800.2 L 4286.08,12818.9 L 4179.28,12981.3 Z " />
<path stroke="none" fill="#000000" transform="matrix(0.0833333 0 0 0.0833333 -84.175 -1006.83)" d="M 4293.1,13278.9 L 4145.68,13195.1 L 4189.97,13178.9 L 4204.8,13134.2 L 4293.1,13278.9 L 4293.1,13278.9 Z " />
<path stroke="none" fill="#000000" transform="matrix(0.0833333 0 0 0.0833333 -84.175 -1006.83)" d="M 4201.81,13166.7 L 4178.13,13191.2 L 4104.47,13119.8 L 4128.15,13095.3 L 4201.81,13166.7 Z " />
<path stroke="none" fill="#000000" transform="matrix(0.0833333 0 0 0.0833333 -84.175 -1006.83)" d="M 4492.56,13288.6 L 4590.74,13138.1 L 4605.01,13185.9 L 4651.41,13204.4 L 4492.56,13288.6 L 4492.56,13288.6 Z " />
<path stroke="none" fill="#000000" transform="matrix(0.0833333 0 0 0.0833333 -84.175 -1006.83)" d="M 4616.48,13198.5 L 4593.54,13173.4 L 4673.86,13100 L 4696.79,13125.1 L 4616.48,13198.5 Z " />
<path stroke="none" fill="#000000" transform="matrix(0.0833333 0 0 0.0833333 -84.175 -1006.83)" d="M 4582.2,12741.5 L 4591.5,12724.5 L 4612.08,12725.1 L 4733.54,12914.7 L 4704.9,12933 L 4582.2,12741.5 Z " />
<path stroke="none" fill="#000000" transform="matrix(0.0833333 0 0 0.0833333 -84.175 -1006.83)" d="M 4530.67,12818.7 L 4559.31,12800.4 L 4661.94,12960.6 L 4633.29,12978.9 L 4530.67,12818.7 Z " />
<path stroke="none" fill="#000000" transform="matrix(0.0833333 0 0 0.0833333 -84.175 -1006.83)" d="M 4042.96,12501.5 L 4070.48,12481.5 L 4234.67,12707.5 L 4226,12724.5 L 4205.33,12725 L 4042.96,12501.5 Z " />
<path stroke="none" fill="#000000" transform="matrix(0.0833333 0 0 0.0833333 -84.175 -1006.83)" d="M 4747.02,12481.5 L 4774.54,12501.5 L 4612.08,12725.1 L 4591.5,12724.5 L 4582.83,12707.5 L 4747.02,12481.5 Z " />
<text x="0" y="0" stroke="none" fill="#000000" transform="matrix(0.0833333 0 0 0.0833333 331.233 92.4085)" font-style="normal" font-weight="bold" font-size="200px" font-family="Times New Roman" >
R&apos;</text>
<path stroke="none" fill="#000000" transform="matrix(0.0833333 0 0 0.0833333 -84.175 -1006.83)" d="M 4953.41,13060.9 L 4942.9,13093.2 L 4873,13070.5 L 4883.51,13038.2 L 4953.41,13060.9 Z " />
<text x="0" y="0" stroke="none" fill="#000000" transform="matrix(0.0833333 0 0 0.0833333 222.792 92.4085)" font-style="normal" font-weight="bold" font-size="200px" font-family="Times New Roman" >
R</text>
<path stroke="none" fill="#000000" transform="matrix(0.0833333 0 0 0.0833333 -84.175 -1006.83)" d="M 3847.63,13100.4 L 3837.12,13068 L 3910.04,13044.3 L 3920.55,13076.7 L 3847.63,13100.4 Z " />
<text x="0" y="0" stroke="none" fill="#000000" transform="matrix(0.0833333 0 0 0.0833333 276.634 145.805)" font-style="normal" font-weight="bold" font-size="200px" font-family="Times New Roman" >
Polymer</text>
<path stroke="none" fill="#000000" transform="matrix(0.0833333 0 0 0.0833333 -84.175 -1006.83)" d="M 4408.75,13663.1 L 4374.73,13662.7 L 4376.76,13485.2 L 4410.77,13485.6 L 4408.75,13663.1 Z " />
<path stroke="none" fill="#000000" transform="matrix(0.0833333 0 0 0.0833333 -84.175 -1006.83)" d="M 5949.39,13255.2 L 5237.5,13255.2 L 5237.5,13221.2 L 5949.39,13221.2 Z " />
<path stroke="none" fill="#000000" transform="matrix(0.0833333 0 0 0.0833333 -84.175 -1006.83)" d="M 5483.11,13323.3 L 6195,13323.3 L 6195,13357.3 L 5483.11,13357.3 Z " />
<path stroke="none" fill="#000000" transform="matrix(0.0833333 0 0 0.0833333 -84.175 -1006.83)" d="M 6246.02,13255.2 C 6246.02,13255.2 5948.39,13255.2 5948.39,13255.2 C 5948.39,13200.1 5905.87,13151.2 5905.87,13151.2 C 5905.87,13151.2 6246.02,13255.2 6246.02,13255.2 C 6246.02,13255.2 6246.02,13255.2 6246.02,13255.2 " />
<path stroke="#000000" stroke-width="1" fill="none" transform="matrix(0.0833333 0 0 0.0833333 -84.175 -1006.83)" d="M 6246.02,13255.2 C 6246.02,13255.2 5948.39,13255.2 5948.39,13255.2 C 5948.39,13200.1 5905.87,13151.2 5905.87,13151.2 C 5905.87,13151.2 6246.02,13255.2 6246.02,13255.2 C 6246.02,13255.2 6246.02,13255.2 6246.02,13255.2 " />
<path stroke="none" fill="#000000" transform="matrix(0.0833333 0 0 0.0833333 -84.175 -1006.83)" d="M 5186.48,13323.3 C 5186.48,13323.3 5526.63,13427.3 5526.63,13427.3 C 5526.63,13427.3 5484.11,13344.4 5484.11,13323.3 C 5484.11,13323.3 5186.48,13323.3 5186.48,13323.3 C 5186.48,13323.3 5186.48,13323.3 5186.48,13323.3 " />
<path stroke="#000000" stroke-width="1" fill="none" transform="matrix(0.0833333 0 0 0.0833333 -84.175 -1006.83)" d="M 5186.48,13323.3 C 5186.48,13323.3 5526.63,13427.3 5526.63,13427.3 C 5526.63,13427.3 5484.11,13344.4 5484.11,13323.3 C 5484.11,13323.3 5186.48,13323.3 5186.48,13323.3 C 5186.48,13323.3 5186.48,13323.3 5186.48,13323.3 " />
<path stroke="none" fill="#000000" transform="matrix(0.0833333 0 0 0.0833333 -84.175 -1006.83)" d="M 7196.58,12707.5 L 7205.25,12724.5 L 7195.95,12741.5 L 6848.92,12741.5 L 6839.75,12724.5 L 6848.42,12707.5 L 7196.58,12707.5 Z " />
<text x="0" y="0" stroke="none" fill="#0000ff" transform="matrix(0.0833333 0 0 0.0833333 463.429 84.992)" font-style="normal" font-weight="bold" font-size="200px" font-family="Times New Roman" >
N</text>
<text x="0" y="0" stroke="none" fill="#ff0000" transform="matrix(0.0833333 0 0 0.0833333 492.507 114.516)" font-style="normal" font-weight="bold" font-size="200px" font-family="Times New Roman" >
Zn</text>
<text x="0" y="0" stroke="none" fill="#0000ff" transform="matrix(0.0833333 0 0 0.0833333 526.221 84.992)" font-style="normal" font-weight="bold" font-size="200px" font-family="Times New Roman" >
N</text>
<path stroke="none" fill="#000000" transform="matrix(0.0833333 0 0 0.0833333 -84.175 -1006.83)" d="M 6721.97,12934.6 L 6693.55,12915.9 L 6819.08,12725 L 6839.75,12724.5 L 6848.92,12741.5 L 6721.97,12934.6 Z " />
<path stroke="none" fill="#000000" transform="matrix(0.0833333 0 0 0.0833333 -84.175 -1006.83)" d="M 6793.03,12981.3 L 6764.61,12962.6 L 6871.4,12800.2 L 6899.83,12818.9 L 6793.03,12981.3 Z " />
<path stroke="none" fill="#000000" transform="matrix(0.0833333 0 0 0.0833333 -84.175 -1006.83)" d="M 6931.52,13279.2 L 6768.77,13195.8 L 6815.69,13176.4 L 6829.51,13127.6 L 6931.52,13279.2 L 6931.52,13279.2 Z " />
<path stroke="none" fill="#000000" transform="matrix(0.0833333 0 0 0.0833333 -84.175 -1006.83)" d="M 6826.98,13163.7 L 6804.4,13189.1 L 6721.66,13115.7 L 6744.24,13090.3 L 6826.98,13163.7 Z " />
<path stroke="none" fill="#000000" transform="matrix(0.0833333 0 0 0.0833333 -84.175 -1006.83)" d="M 7118.37,13301.8 L 7209.71,13146.9 L 7226.1,13194.1 L 7273.27,13210.5 L 7118.37,13301.8 L 7118.37,13301.8 Z " />
<path stroke="none" fill="#000000" transform="matrix(0.0833333 0 0 0.0833333 -84.175 -1006.83)" d="M 7238.13,13206.1 L 7214.07,13182 L 7291.03,13105.1 L 7315.08,13129.1 L 7238.13,13206.1 Z " />
<path stroke="none" fill="#000000" transform="matrix(0.0833333 0 0 0.0833333 -84.175 -1006.83)" d="M 7195.95,12741.5 L 7205.25,12724.5 L 7225.83,12725.1 L 7347.29,12914.7 L 7318.65,12933 L 7195.95,12741.5 Z " />
<path stroke="none" fill="#000000" transform="matrix(0.0833333 0 0 0.0833333 -84.175 -1006.83)" d="M 7144.42,12818.7 L 7173.06,12800.4 L 7275.69,12960.6 L 7247.04,12978.9 L 7144.42,12818.7 Z " />
<path stroke="none" fill="#000000" transform="matrix(0.0833333 0 0 0.0833333 -84.175 -1006.83)" d="M 6656.71,12501.5 L 6684.23,12481.5 L 6848.42,12707.5 L 6839.75,12724.5 L 6819.08,12725 L 6656.71,12501.5 Z " />
<path stroke="none" fill="#000000" transform="matrix(0.0833333 0 0 0.0833333 -84.175 -1006.83)" d="M 7360.77,12481.5 L 7388.29,12501.5 L 7225.83,12725.1 L 7205.25,12724.5 L 7196.58,12707.5 L 7360.77,12481.5 Z " />
<text x="0" y="0" stroke="none" fill="#000000" transform="matrix(0.0833333 0 0 0.0833333 549.046 92.4084)" font-style="normal" font-weight="bold" font-size="200px" font-family="Times New Roman" >
R&apos;</text>
<path stroke="none" fill="#000000" transform="matrix(0.0833333 0 0 0.0833333 -84.175 -1006.83)" d="M 7567.16,13060.9 L 7556.65,13093.2 L 7486.75,13070.5 L 7497.26,13038.2 L 7567.16,13060.9 Z " />
<text x="0" y="0" stroke="none" fill="#000000" transform="matrix(0.0833333 0 0 0.0833333 440.604 92.4084)" font-style="normal" font-weight="bold" font-size="200px" font-family="Times New Roman" >
R</text>
<path stroke="none" fill="#000000" transform="matrix(0.0833333 0 0 0.0833333 -84.175 -1006.83)" d="M 6461.38,13100.4 L 6450.87,13068 L 6523.79,13044.3 L 6534.3,13076.7 L 6461.38,13100.4 Z " />
<text x="0" y="0" stroke="none" fill="#000000" transform="matrix(0.0833333 0 0 0.0833333 365.721 87.1667)" font-style="normal" font-weight="bold" font-size="200px" font-family="Times New Roman" >
Et</text>
<text x="0" y="0" stroke="none" fill="#000000" transform="matrix(0.0833333 0 0 0.0833333 382.421 90.75)" font-style="normal" font-weight="bold" font-size="150px" font-family="Times New Roman" >
2</text>
<text x="0" y="0" stroke="none" fill="#ff0000" transform="matrix(0.0833333 0 0 0.0833333 388.671 87.1667)" font-style="normal" font-weight="bold" font-size="200px" font-family="Times New Roman" >
Zn</text>
<path stroke="none" fill="#000000" transform="matrix(0.0833333 0 0 0.0833333 -84.175 -1006.83)" d="M 6698.77,13502.3 L 6667.77,13476.3 L 6878.6,13410.8 L 6888.69,13443.3 L 6698.77,13502.3 Z " />
<path stroke="none" fill="#000000" transform="matrix(0.0833333 0 0 0.0833333 -84.175 -1006.83)" d="M 7422.7,13481.8 L 7391.22,13507.4 L 7193.61,13444 L 7204,13411.6 L 7422.7,13481.8 Z " />
<path stroke="none" fill="#000000" transform="matrix(0.0833333 0 0 0.0833333 -84.175 -1006.83)" d="M 6664.09,13777.2 L 6630.34,13772.9 L 6667.77,13476.3 L 6698.77,13502.3 L 6664.09,13777.2 Z " />
<path stroke="none" fill="#000000" transform="matrix(0.0833333 0 0 0.0833333 -84.175 -1006.83)" d="M 7454.25,13779.2 L 7420.42,13782.8 L 7391.22,13507.4 L 7422.7,13481.8 L 7454.25,13779.2 Z " />
<path stroke="none" fill="#008000" transform="matrix(0.0833333 0 0 0.0833333 -84.175 -1006.83)" d="M 4179.1,13334.2 L 4279.78,13334.2 L 4279.78,13361.2 L 4179.1,13361.2 Z " />
<path stroke="none" fill="#008000" transform="matrix(0.0833333 0 0 0.0833333 -84.175 -1006.83)" d="M 4242.94,13297.3 L 4242.94,13398 L 4215.94,13398 L 4215.94,13297.3 Z " />
<text x="0" y="0" stroke="none" fill="#008000" transform="matrix(0.0833333 0 0 0.0833333 381.471 128.266)" font-style="normal" font-weight="bold" font-size="200px" font-family="Times New Roman" >
[Ni]</text>
<text x="0" y="0" stroke="none" fill="#000000" transform="matrix(0.0833333 0 0 0.0833333 378.821 159.555)" font-style="normal" font-weight="bold" font-size="200px" font-family="Times New Roman" >
Polymer</text>
<path stroke="none" fill="#000000" transform="matrix(0.0833333 0 0 0.0833333 -84.175 -1006.83)" d="M 5635,13828.1 L 5600.98,13827.7 L 5602.62,13684.2 L 5636.64,13684.6 L 5635,13828.1 Z " />
<path stroke="none" fill="#008000" transform="matrix(0.0833333 0 0 0.0833333 -84.175 -1006.83)" d="M 5919.6,13451.2 L 6020.28,13451.2 L 6020.28,13478.2 L 5919.6,13478.2 Z " />
<path stroke="none" fill="#008000" transform="matrix(0.0833333 0 0 0.0833333 -84.175 -1006.83)" d="M 5983.44,13414.4 L 5983.44,13515.1 L 5956.44,13515.1 L 5956.44,13414.4 Z " />
<path stroke="none" fill="#000000" transform="matrix(0.0833333 0 0 0.0833333 -84.175 -1006.83)" d="M 3542.05,13255.2 L 2844.36,13255.2 L 2844.36,13221.2 L 3542.05,13221.2 Z " />
<path stroke="none" fill="#000000" transform="matrix(0.0833333 0 0 0.0833333 -84.175 -1006.83)" d="M 2598.75,13323.3 L 3296.44,13323.3 L 3296.44,13357.3 L 2598.75,13357.3 Z " />
<path stroke="none" fill="#000000" transform="matrix(0.0833333 0 0 0.0833333 -84.175 -1006.83)" d="M 3593.07,13323.3 C 3593.07,13323.3 3252.92,13426.3 3252.92,13426.3 C 3252.92,13426.3 3295.44,13360.9 3295.44,13323.3 C 3295.44,13323.3 3593.07,13323.3 3593.07,13323.3 C 3593.07,13323.3 3593.07,13323.3 3593.07,13323.3 " />
<path stroke="#000000" stroke-width="1" fill="none" transform="matrix(0.0833333 0 0 0.0833333 -84.175 -1006.83)" d="M 3593.07,13323.3 C 3593.07,13323.3 3252.92,13426.3 3252.92,13426.3 C 3252.92,13426.3 3295.44,13360.9 3295.44,13323.3 C 3295.44,13323.3 3593.07,13323.3 3593.07,13323.3 C 3593.07,13323.3 3593.07,13323.3 3593.07,13323.3 " />
<path stroke="none" fill="#000000" transform="matrix(0.0833333 0 0 0.0833333 -84.175 -1006.83)" d="M 2547.73,13255.2 C 2547.73,13255.2 2845.36,13255.2 2845.36,13255.2 C 2845.36,13200.6 2887.88,13152.2 2887.88,13152.2 C 2887.88,13152.2 2547.73,13255.2 2547.73,13255.2 C 2547.73,13255.2 2547.73,13255.2 2547.73,13255.2 " />
<path stroke="#000000" stroke-width="1" fill="none" transform="matrix(0.0833333 0 0 0.0833333 -84.175 -1006.83)" d="M 2547.73,13255.2 C 2547.73,13255.2 2845.36,13255.2 2845.36,13255.2 C 2845.36,13200.6 2887.88,13152.2 2887.88,13152.2 C 2887.88,13152.2 2547.73,13255.2 2547.73,13255.2 C 2547.73,13255.2 2547.73,13255.2 2547.73,13255.2 " />
<text x="0" y="0" stroke="none" fill="#000000" transform="matrix(0.0833333 0 0 0.0833333 154.471 87.1667)" font-style="normal" font-weight="bold" font-size="200px" font-family="Times New Roman" >
Et</text>
<text x="0" y="0" stroke="none" fill="#000000" transform="matrix(0.0833333 0 0 0.0833333 171.171 90.75)" font-style="normal" font-weight="bold" font-size="150px" font-family="Times New Roman" >
2</text>
<text x="0" y="0" stroke="none" fill="#ff0000" transform="matrix(0.0833333 0 0 0.0833333 177.421 87.1667)" font-style="normal" font-weight="bold" font-size="200px" font-family="Times New Roman" >
Zn</text>
<text x="0" y="0" stroke="none" fill="#ff0000" transform="matrix(0.0833333 0 0 0.0833333 175.88 123.729)" font-style="normal" font-weight="bold" font-size="200px" font-family="Times New Roman" >
Zn</text>
<text x="0" y="0" stroke="none" fill="#000000" transform="matrix(0.0833333 0 0 0.0833333 176.255 153.667)" font-style="normal" font-weight="bold" font-size="200px" font-family="Times New Roman" >
Polymer</text>
<path stroke="none" fill="#000000" transform="matrix(0.0833333 0 0 0.0833333 -84.175 -1006.83)" d="M 3203.46,13757.3 L 3169.45,13757.2 L 3170,13592.8 L 3204.01,13592.9 L 3203.46,13757.3 Z " />
<text x="0" y="0" stroke="none" fill="#000000" transform="matrix(0.0833333 0 0 0.0833333 157.18 123.729)" font-style="normal" font-weight="bold" font-size="200px" font-family="Times New Roman" >
Et</text>
<path stroke="none" fill="#000000" transform="matrix(0.0833333 0 0 0.0833333 -84.175 -1006.83)" d="M 1957.83,12707.5 L 1966.5,12724.5 L 1957.2,12741.5 L 1610.17,12741.5 L 1601,12724.5 L 1609.67,12707.5 L 1957.83,12707.5 Z " />
<text x="0" y="0" stroke="none" fill="#0000ff" transform="matrix(0.0833333 0 0 0.0833333 26.8669 84.992)" font-style="normal" font-weight="bold" font-size="200px" font-family="Times New Roman" >
N</text>
<text x="0" y="0" stroke="none" fill="#008000" transform="matrix(0.0833333 0 0 0.0833333 54.9736 114.516)" font-style="normal" font-weight="bold" font-size="200px" font-family="Times New Roman" >
Ni</text>
<text x="0" y="0" stroke="none" fill="#0000ff" transform="matrix(0.0833333 0 0 0.0833333 89.6581 84.992)" font-style="normal" font-weight="bold" font-size="200px" font-family="Times New Roman" >
N</text>
<path stroke="none" fill="#000000" transform="matrix(0.0833333 0 0 0.0833333 -84.175 -1006.83)" d="M 1483.22,12934.6 L 1454.8,12915.9 L 1580.33,12725 L 1601,12724.5 L 1610.17,12741.5 L 1483.22,12934.6 Z " />
<path stroke="none" fill="#000000" transform="matrix(0.0833333 0 0 0.0833333 -84.175 -1006.83)" d="M 1554.28,12981.3 L 1525.86,12962.6 L 1632.65,12800.2 L 1661.08,12818.9 L 1554.28,12981.3 Z " />
<path stroke="none" fill="#000000" transform="matrix(0.0833333 0 0 0.0833333 -84.175 -1006.83)" d="M 1668.1,13278.9 L 1520.68,13195.1 L 1564.97,13178.9 L 1579.8,13134.2 L 1668.1,13278.9 L 1668.1,13278.9 Z " />
<path stroke="none" fill="#000000" transform="matrix(0.0833333 0 0 0.0833333 -84.175 -1006.83)" d="M 1576.81,13166.7 L 1553.13,13191.2 L 1479.47,13119.8 L 1503.15,13095.3 L 1576.81,13166.7 Z " />
<path stroke="none" fill="#000000" transform="matrix(0.0833333 0 0 0.0833333 -84.175 -1006.83)" d="M 1867.56,13288.6 L 1965.74,13138.1 L 1980.01,13185.9 L 2026.41,13204.4 L 1867.56,13288.6 L 1867.56,13288.6 Z " />
<path stroke="none" fill="#000000" transform="matrix(0.0833333 0 0 0.0833333 -84.175 -1006.83)" d="M 1991.48,13198.5 L 1968.54,13173.4 L 2048.86,13100 L 2071.79,13125.1 L 1991.48,13198.5 Z " />
<path stroke="none" fill="#000000" transform="matrix(0.0833333 0 0 0.0833333 -84.175 -1006.83)" d="M 1957.2,12741.5 L 1966.5,12724.5 L 1987.08,12725.1 L 2108.54,12914.7 L 2079.9,12933 L 1957.2,12741.5 Z " />
<path stroke="none" fill="#000000" transform="matrix(0.0833333 0 0 0.0833333 -84.175 -1006.83)" d="M 1905.67,12818.7 L 1934.31,12800.4 L 2036.94,12960.6 L 2008.29,12978.9 L 1905.67,12818.7 Z " />
<path stroke="none" fill="#000000" transform="matrix(0.0833333 0 0 0.0833333 -84.175 -1006.83)" d="M 1417.96,12501.5 L 1445.48,12481.5 L 1609.67,12707.5 L 1601,12724.5 L 1580.33,12725 L 1417.96,12501.5 Z " />
<path stroke="none" fill="#000000" transform="matrix(0.0833333 0 0 0.0833333 -84.175 -1006.83)" d="M 2122.02,12481.5 L 2149.54,12501.5 L 1987.08,12725.1 L 1966.5,12724.5 L 1957.83,12707.5 L 2122.02,12481.5 Z " />
<text x="0" y="0" stroke="none" fill="#000000" transform="matrix(0.0833333 0 0 0.0833333 112.483 92.4085)" font-style="normal" font-weight="bold" font-size="200px" font-family="Times New Roman" >
R&apos;</text>
<path stroke="none" fill="#000000" transform="matrix(0.0833333 0 0 0.0833333 -84.175 -1006.83)" d="M 2328.41,13060.9 L 2317.9,13093.2 L 2248,13070.5 L 2258.51,13038.2 L 2328.41,13060.9 Z " />
<text x="0" y="0" stroke="none" fill="#000000" transform="matrix(0.0833333 0 0 0.0833333 4.04156 92.4085)" font-style="normal" font-weight="bold" font-size="200px" font-family="Times New Roman" >
R</text>
<path stroke="none" fill="#000000" transform="matrix(0.0833333 0 0 0.0833333 -84.175 -1006.83)" d="M 1222.63,13100.4 L 1212.12,13068 L 1285.04,13044.3 L 1295.55,13076.7 L 1222.63,13100.4 Z " />
<path stroke="none" fill="#000000" transform="matrix(0.0833333 0 0 0.0833333 -84.175 -1006.83)" d="M 1782.86,13656.1 L 1748.56,13675.2 L 1751.39,13485.2 L 1785.4,13485.7 L 1782.86,13656.1 Z " />
<path stroke="none" fill="#000000" transform="matrix(0.0833333 0 0 0.0833333 -84.175 -1006.83)" d="M 2021.67,13798.8 L 2004.23,13828 L 1748.56,13675.2 L 1782.86,13656.1 L 2021.67,13798.8 Z " />
<path stroke="none" fill="#008000" transform="matrix(0.0833333 0 0 0.0833333 -84.175 -1006.83)" d="M 1557.85,13341.7 L 1658.53,13341.7 L 1658.53,13368.7 L 1557.85,13368.7 Z " />
<path stroke="none" fill="#008000" transform="matrix(0.0833333 0 0 0.0833333 -84.175 -1006.83)" d="M 1621.69,13304.8 L 1621.69,13405.5 L 1594.69,13405.5 L 1594.69,13304.8 Z " />
<text x="0" y="0" stroke="none" fill="#000000" transform="matrix(0.0833333 0 0 0.0833333 149.376 21.9853)" font-style="normal" font-weight="bold" font-size="240px" font-family="Times New Roman" >
Chain</text>
<text x="0" y="0" stroke="none" fill="#000000" transform="matrix(0.0833333 0 0 0.0833333 137.681 45.402)" font-style="normal" font-weight="bold" font-size="240px" font-family="Times New Roman" >
Transfer</text>
<text x="0" y="0" stroke="none" fill="#000000" transform="matrix(0.0833333 0 0 0.0833333 352.81 21.9853)" font-style="italic" font-weight="bold" font-size="240px" font-family="Times New Roman" >
N</text>
<text x="0" y="0" stroke="none" fill="#000000" transform="matrix(0.0833333 0 0 0.0833333 367.254 21.9853)" font-style="normal" font-weight="bold" font-size="240px" font-family="Times New Roman" >
-Ligand</text>
<text x="0" y="0" stroke="none" fill="#000000" transform="matrix(0.0833333 0 0 0.0833333 356.119 45.402)" font-style="normal" font-weight="bold" font-size="240px" font-family="Times New Roman" >
Transfer</text>
</svg>
