<?xml version="1.0" standalone="no" ?>
<!DOCTYPE svg PUBLIC "-//W3C//DTD SVG 1.1//EN" "http://www.w3.org/Graphics/SVG/1.1/DTD/svg11.dtd">
<svg width="460px" height="198px" viewBox="0 0 460 198" style="background-color: #ffffff00" xmlns="http://www.w3.org/2000/svg" xmlns:xlink="http://www.w3.org/1999/xlink" version="1.1" >
<text x="0" y="0" stroke="none" fill="#0000ff" transform="matrix(0.0833333 0 0 0.0833333 82.7971 96.375)" font-style="normal" font-weight="bold" font-size="200px" font-family="Times New Roman" >
N</text>
<path stroke="none" fill="#000000" transform="matrix(0.0833333 0 0 0.0833333 -195.175 -273.417)" d="M 3534.97,4109.58 L 3551.67,4109.58 L 3560.01,4124.04 L 3478.05,4266.01 L 3453.01,4251.55 L 3534.97,4109.58 Z " />
<path stroke="none" fill="#000000" transform="matrix(0.0833333 0 0 0.0833333 -195.175 -273.417)" d="M 3580.88,4174.64 L 3605.92,4189.1 L 3540.64,4302.15 L 3515.61,4287.7 L 3580.88,4174.64 Z " />
<path stroke="none" fill="#000000" transform="matrix(0.0833333 0 0 0.0833333 -195.175 -273.417)" d="M 3831.32,4095.13 L 3839.67,4109.58 L 3831.32,4124.04 L 3560.01,4124.04 L 3551.67,4109.58 L 3560.01,4095.13 L 3831.32,4095.13 Z " />
<path stroke="none" fill="#000000" transform="matrix(0.0833333 0 0 0.0833333 -195.175 -273.417)" d="M 3395.15,3867.4 L 3420.18,3852.94 L 3560.01,4095.13 L 3551.67,4109.58 L 3534.97,4109.58 L 3395.15,3867.4 Z " />
<path stroke="none" fill="#000000" transform="matrix(0.0833333 0 0 0.0833333 -195.175 -273.417)" d="M 3971.15,3852.94 L 3996.18,3867.4 L 3856.36,4109.58 L 3839.67,4109.58 L 3831.32,4095.13 L 3971.15,3852.94 Z " />
<text x="0" y="0" stroke="none" fill="#0000ff" transform="matrix(0.0833333 0 0 0.0833333 130.797 96.375)" font-style="normal" font-weight="bold" font-size="200px" font-family="Times New Roman" >
N</text>
<path stroke="none" fill="#000000" transform="matrix(0.0833333 0 0 0.0833333 -195.175 -273.417)" d="M 3937.82,4250.69 L 3912.78,4265.14 L 3831.32,4124.04 L 3839.67,4109.58 L 3856.36,4109.58 L 3937.82,4250.69 Z " />
<path stroke="none" fill="#000000" transform="matrix(0.0833333 0 0 0.0833333 -195.175 -273.417)" d="M 3875.23,4286.83 L 3850.19,4301.29 L 3785.41,4189.1 L 3810.45,4174.64 L 3875.23,4286.83 Z " />
<path stroke="none" fill="#000000" transform="matrix(0.0833333 0 0 0.0833333 -195.175 -273.417)" d="M 2990.81,4373.46 L 2982.47,4359 L 2990.81,4344.54 L 3306.92,4344.54 L 3306.92,4373.46 L 2990.81,4373.46 Z " />
<path stroke="none" fill="#000000" transform="matrix(0.0833333 0 0 0.0833333 -195.175 -273.417)" d="M 4400.52,4344.54 L 4408.86,4359 L 4400.52,4373.46 L 4082.41,4373.46 L 4082.41,4344.54 L 4400.52,4344.54 Z " />
<path stroke="none" fill="#000000" transform="matrix(0.0833333 0 0 0.0833333 -195.175 -273.417)" d="M 2830.12,4124.04 L 2838.47,4109.58 L 2855.16,4109.58 L 2990.81,4344.54 L 2982.47,4359 L 2965.78,4359 L 2830.12,4124.04 Z " />
<path stroke="none" fill="#000000" transform="matrix(0.0833333 0 0 0.0833333 -195.175 -273.417)" d="M 2784.22,4189.1 L 2809.26,4174.64 L 2911.52,4351.77 L 2886.48,4366.23 L 2784.22,4189.1 Z " />
<path stroke="none" fill="#000000" transform="matrix(0.0833333 0 0 0.0833333 -195.175 -273.417)" d="M 2558.81,4124.04 L 2542.12,4095.13 L 2830.12,4095.13 L 2838.47,4109.58 L 2830.12,4124.04 L 2558.81,4124.04 Z " />
<path stroke="none" fill="#000000" transform="matrix(0.0833333 0 0 0.0833333 -195.175 -273.417)" d="M 2423.16,4359 L 2389.78,4359 L 2542.12,4095.13 L 2558.81,4124.04 L 2423.16,4359 Z " />
<path stroke="none" fill="#000000" transform="matrix(0.0833333 0 0 0.0833333 -195.175 -273.417)" d="M 2502.45,4366.23 L 2477.41,4351.77 L 2579.68,4174.64 L 2604.72,4189.1 L 2502.45,4366.23 Z " />
<path stroke="none" fill="#000000" transform="matrix(0.0833333 0 0 0.0833333 -195.175 -273.417)" d="M 2558.81,4593.96 L 2542.12,4622.87 L 2389.78,4359 L 2423.16,4359 L 2558.81,4593.96 Z " />
<path stroke="none" fill="#000000" transform="matrix(0.0833333 0 0 0.0833333 -195.175 -273.417)" d="M 2830.12,4593.96 L 2838.47,4608.42 L 2830.12,4622.87 L 2542.12,4622.87 L 2558.81,4593.96 L 2830.12,4593.96 Z " />
<path stroke="none" fill="#000000" transform="matrix(0.0833333 0 0 0.0833333 -195.175 -273.417)" d="M 2796.74,4521.68 L 2796.74,4550.59 L 2592.2,4550.59 L 2592.2,4521.68 L 2796.74,4521.68 Z " />
<path stroke="none" fill="#000000" transform="matrix(0.0833333 0 0 0.0833333 -195.175 -273.417)" d="M 2965.78,4359 L 2982.47,4359 L 2990.81,4373.46 L 2855.16,4608.42 L 2838.47,4608.42 L 2830.12,4593.96 L 2965.78,4359 Z " />
<path stroke="none" fill="#000000" transform="matrix(0.0833333 0 0 0.0833333 -195.175 -273.417)" d="M 4561.21,4593.96 L 4552.86,4608.42 L 4536.17,4608.42 L 4400.52,4373.46 L 4408.86,4359 L 4425.56,4359 L 4561.21,4593.96 Z " />
<path stroke="none" fill="#000000" transform="matrix(0.0833333 0 0 0.0833333 -195.175 -273.417)" d="M 4607.11,4528.9 L 4582.07,4543.36 L 4479.81,4366.23 L 4504.85,4351.77 L 4607.11,4528.9 Z " />
<path stroke="none" fill="#000000" transform="matrix(0.0833333 0 0 0.0833333 -195.175 -273.417)" d="M 4832.52,4593.96 L 4849.21,4622.87 L 4561.21,4622.87 L 4552.86,4608.42 L 4561.21,4593.96 L 4832.52,4593.96 Z " />
<path stroke="none" fill="#000000" transform="matrix(0.0833333 0 0 0.0833333 -195.175 -273.417)" d="M 4968.17,4359 L 5001.56,4359 L 4849.21,4622.87 L 4832.52,4593.96 L 4968.17,4359 Z " />
<path stroke="none" fill="#000000" transform="matrix(0.0833333 0 0 0.0833333 -195.175 -273.417)" d="M 4888.88,4351.77 L 4913.92,4366.23 L 4811.65,4543.36 L 4786.61,4528.9 L 4888.88,4351.77 Z " />
<path stroke="none" fill="#000000" transform="matrix(0.0833333 0 0 0.0833333 -195.175 -273.417)" d="M 4832.52,4124.04 L 4849.21,4095.13 L 5001.56,4359 L 4968.17,4359 L 4832.52,4124.04 Z " />
<path stroke="none" fill="#000000" transform="matrix(0.0833333 0 0 0.0833333 -195.175 -273.417)" d="M 4561.21,4124.04 L 4552.86,4109.58 L 4561.21,4095.13 L 4849.21,4095.13 L 4832.52,4124.04 L 4561.21,4124.04 Z " />
<path stroke="none" fill="#000000" transform="matrix(0.0833333 0 0 0.0833333 -195.175 -273.417)" d="M 4594.59,4196.32 L 4594.59,4167.41 L 4799.13,4167.41 L 4799.13,4196.32 L 4594.59,4196.32 Z " />
<path stroke="none" fill="#000000" transform="matrix(0.0833333 0 0 0.0833333 -195.175 -273.417)" d="M 4425.56,4359 L 4408.86,4359 L 4400.52,4344.54 L 4536.17,4109.58 L 4552.86,4109.58 L 4561.21,4124.04 L 4425.56,4359 Z " />
<path stroke="none" fill="#000000" transform="matrix(0.0833333 0 0 0.0833333 -195.175 -273.417)" d="M 2965.78,3860.17 L 2982.47,3860.17 L 2990.81,3874.63 L 2855.16,4109.58 L 2838.47,4109.58 L 2830.12,4095.13 L 2965.78,3860.17 Z " />
<path stroke="none" fill="#000000" transform="matrix(0.0833333 0 0 0.0833333 -195.175 -273.417)" d="M 3270.47,3845.71 L 3270.47,3874.63 L 2990.81,3874.63 L 2982.47,3860.17 L 2990.81,3845.71 L 3270.47,3845.71 Z " />
<path stroke="none" fill="#000000" transform="matrix(0.0833333 0 0 0.0833333 -195.175 -273.417)" d="M 2825.95,3617.98 L 2850.99,3603.53 L 2990.81,3845.71 L 2982.47,3860.17 L 2965.78,3860.17 L 2825.95,3617.98 Z " />
<path stroke="none" fill="#000000" transform="matrix(0.0833333 0 0 0.0833333 -195.175 -273.417)" d="M 4400.52,3874.63 L 4408.86,3860.17 L 4425.56,3860.17 L 4561.21,4095.13 L 4552.86,4109.58 L 4536.17,4109.58 L 4400.52,3874.63 Z " />
<path stroke="none" fill="#000000" transform="matrix(0.0833333 0 0 0.0833333 -195.175 -273.417)" d="M 4540.34,3603.53 L 4565.38,3617.98 L 4425.56,3860.17 L 4408.86,3860.17 L 4400.52,3845.71 L 4540.34,3603.53 Z " />
<path stroke="none" fill="#000000" transform="matrix(0.0833333 0 0 0.0833333 -195.175 -273.417)" d="M 4120.86,3874.63 L 4120.86,3845.71 L 4400.52,3845.71 L 4408.86,3860.17 L 4400.52,3874.63 L 4120.86,3874.63 Z " />
<path stroke="none" fill="#000000" transform="matrix(0.0833333 0 0 0.0833333 -195.175 -273.417)" d="M 4425.56,4857.83 L 4408.86,4857.83 L 4400.52,4843.37 L 4536.17,4608.42 L 4552.86,4608.42 L 4561.21,4622.87 L 4425.56,4857.83 Z " />
<path stroke="none" fill="#000000" transform="matrix(0.0833333 0 0 0.0833333 -195.175 -273.417)" d="M 4120.86,4872.29 L 4120.86,4843.37 L 4400.52,4843.37 L 4408.86,4857.83 L 4400.52,4872.29 L 4120.86,4872.29 Z " />
<path stroke="none" fill="#000000" transform="matrix(0.0833333 0 0 0.0833333 -195.175 -273.417)" d="M 4565.38,5100.02 L 4540.34,5114.47 L 4400.52,4872.29 L 4408.86,4857.83 L 4425.56,4857.83 L 4565.38,5100.02 Z " />
<path stroke="none" fill="#000000" transform="matrix(0.0833333 0 0 0.0833333 -195.175 -273.417)" d="M 2990.81,4843.37 L 2982.47,4857.83 L 2965.78,4857.83 L 2830.12,4622.87 L 2838.47,4608.42 L 2855.16,4608.42 L 2990.81,4843.37 Z " />
<path stroke="none" fill="#000000" transform="matrix(0.0833333 0 0 0.0833333 -195.175 -273.417)" d="M 3270.47,4843.37 L 3270.47,4872.29 L 2990.81,4872.29 L 2982.47,4857.83 L 2990.81,4843.37 L 3270.47,4843.37 Z " />
<path stroke="none" fill="#000000" transform="matrix(0.0833333 0 0 0.0833333 -195.175 -273.417)" d="M 2850.99,5114.47 L 2825.95,5100.02 L 2965.78,4857.83 L 2982.47,4857.83 L 2990.81,4872.29 L 2850.99,5114.47 Z " />
<text x="0" y="0" stroke="none" fill="#008000" transform="matrix(0.0833333 0 0 0.0833333 104.485 134.972)" font-style="normal" font-weight="bold" font-size="200px" font-family="Times New Roman" >
Ni</text>
<path stroke="none" fill="#000000" transform="matrix(0.0833333 0 0 0.0833333 -195.175 -273.417)" d="M 3610.92,4720.72 L 3472.23,4575.96 L 3527.54,4572.33 L 3559.02,4526.31 L 3610.92,4720.72 L 3610.92,4720.72 Z " />
<path stroke="none" fill="#000000" transform="matrix(0.0833333 0 0 0.0833333 -195.175 -273.417)" d="M 3540.14,4565.25 L 3514.93,4579.41 L 3455.38,4473.42 L 3480.58,4459.26 L 3540.14,4565.25 Z " />
<path stroke="none" fill="#000000" transform="matrix(0.0833333 0 0 0.0833333 -195.175 -273.417)" d="M 3805.97,4741.24 L 3843.14,4541.96 L 3878.23,4585.81 L 3933.96,4585.25 L 3805.97,4741.24 L 3805.97,4741.24 Z " />
<path stroke="none" fill="#000000" transform="matrix(0.0833333 0 0 0.0833333 -195.175 -273.417)" d="M 3891.34,4591.9 L 3865.12,4579.71 L 3916.73,4468.69 L 3942.95,4480.88 L 3891.34,4591.9 Z " />
<text x="0" y="0" stroke="none" fill="#800000" transform="matrix(0.0833333 0 0 0.0833333 126.932 164.13)" font-style="normal" font-weight="bold" font-size="200px" font-family="Times New Roman" >
Br</text>
<path stroke="none" fill="#000000" transform="matrix(0.0833333 0 0 0.0833333 -195.175 -273.417)" d="M 3873.94,5071.27 L 3850.84,5088.67 L 3751.97,4957.45 L 3775.06,4940.05 L 3873.94,5071.27 Z " />
<text x="0" y="0" stroke="none" fill="#800000" transform="matrix(0.0833333 0 0 0.0833333 79.5191 164.585)" font-style="normal" font-weight="bold" font-size="200px" font-family="Times New Roman" >
Br</text>
<path stroke="none" fill="#000000" transform="matrix(0.0833333 0 0 0.0833333 -195.175 -273.417)" d="M 3518.07,5127.3 L 3492.68,5113.46 L 3593.25,4928.95 L 3618.63,4942.79 L 3518.07,5127.3 Z " />
<text x="0" y="0" stroke="none" fill="#0000ff" transform="matrix(0.0833333 0 0 0.0833333 317.797 97.625)" font-style="normal" font-weight="bold" font-size="200px" font-family="Times New Roman" >
N</text>
<path stroke="none" fill="#000000" transform="matrix(0.0833333 0 0 0.0833333 -195.175 -273.417)" d="M 6355.73,4123.28 L 6371.67,4124.58 L 6380.01,4139.04 L 6298.05,4281.01 L 6273.01,4266.55 L 6355.73,4123.28 Z " />
<path stroke="none" fill="#000000" transform="matrix(0.0833333 0 0 0.0833333 -195.175 -273.417)" d="M 6400.88,4189.64 L 6425.92,4204.1 L 6360.64,4317.15 L 6335.61,4302.7 L 6400.88,4189.64 Z " />
<path stroke="none" fill="#000000" transform="matrix(0.0833333 0 0 0.0833333 -195.175 -273.417)" d="M 6649.66,4110.13 L 6659.67,4124.58 L 6651.32,4139.04 L 6380.01,4139.04 L 6371.67,4124.58 L 6381.67,4110.13 L 6649.66,4110.13 Z " />
<text x="0" y="0" stroke="none" fill="#0000ff" transform="matrix(0.0833333 0 0 0.0833333 365.797 97.625)" font-style="normal" font-weight="bold" font-size="200px" font-family="Times New Roman" >
N</text>
<path stroke="none" fill="#000000" transform="matrix(0.0833333 0 0 0.0833333 -195.175 -273.417)" d="M 6757.82,4265.69 L 6732.78,4280.14 L 6651.32,4139.04 L 6659.67,4124.58 L 6675.6,4123.28 L 6757.82,4265.69 Z " />
<path stroke="none" fill="#000000" transform="matrix(0.0833333 0 0 0.0833333 -195.175 -273.417)" d="M 6695.23,4301.83 L 6670.19,4316.29 L 6605.41,4204.1 L 6630.45,4189.64 L 6695.23,4301.83 Z " />
<path stroke="none" fill="#000000" transform="matrix(0.0833333 0 0 0.0833333 -195.175 -273.417)" d="M 5810.81,4388.46 L 5802.47,4374 L 5810.81,4359.54 L 6126.92,4359.54 L 6126.92,4388.46 L 5810.81,4388.46 Z " />
<path stroke="none" fill="#000000" transform="matrix(0.0833333 0 0 0.0833333 -195.175 -273.417)" d="M 7220.52,4359.54 L 7228.86,4374 L 7220.52,4388.46 L 6902.41,4388.46 L 6902.41,4359.54 L 7220.52,4359.54 Z " />
<path stroke="none" fill="#000000" transform="matrix(0.0833333 0 0 0.0833333 -195.175 -273.417)" d="M 5650.12,4139.04 L 5658.47,4124.58 L 5675.16,4124.58 L 5810.81,4359.54 L 5802.47,4374 L 5785.78,4374 L 5650.12,4139.04 Z " />
<path stroke="none" fill="#000000" transform="matrix(0.0833333 0 0 0.0833333 -195.175 -273.417)" d="M 5604.22,4204.1 L 5629.26,4189.64 L 5731.52,4366.77 L 5706.48,4381.23 L 5604.22,4204.1 Z " />
<path stroke="none" fill="#000000" transform="matrix(0.0833333 0 0 0.0833333 -195.175 -273.417)" d="M 5378.81,4139.04 L 5362.12,4110.13 L 5650.12,4110.13 L 5658.47,4124.58 L 5650.12,4139.04 L 5378.81,4139.04 Z " />
<path stroke="none" fill="#000000" transform="matrix(0.0833333 0 0 0.0833333 -195.175 -273.417)" d="M 5243.16,4374 L 5209.78,4374 L 5362.12,4110.13 L 5378.81,4139.04 L 5243.16,4374 Z " />
<path stroke="none" fill="#000000" transform="matrix(0.0833333 0 0 0.0833333 -195.175 -273.417)" d="M 5322.45,4381.23 L 5297.41,4366.77 L 5399.68,4189.64 L 5424.72,4204.1 L 5322.45,4381.23 Z " />
<path stroke="none" fill="#000000" transform="matrix(0.0833333 0 0 0.0833333 -195.175 -273.417)" d="M 5378.81,4608.96 L 5362.12,4637.87 L 5209.78,4374 L 5243.16,4374 L 5378.81,4608.96 Z " />
<path stroke="none" fill="#000000" transform="matrix(0.0833333 0 0 0.0833333 -195.175 -273.417)" d="M 5650.12,4608.96 L 5658.47,4623.42 L 5650.12,4637.87 L 5362.12,4637.87 L 5378.81,4608.96 L 5650.12,4608.96 Z " />
<path stroke="none" fill="#000000" transform="matrix(0.0833333 0 0 0.0833333 -195.175 -273.417)" d="M 5616.74,4536.68 L 5616.74,4565.59 L 5412.2,4565.59 L 5412.2,4536.68 L 5616.74,4536.68 Z " />
<path stroke="none" fill="#000000" transform="matrix(0.0833333 0 0 0.0833333 -195.175 -273.417)" d="M 5785.78,4374 L 5802.47,4374 L 5810.81,4388.46 L 5675.16,4623.42 L 5658.47,4623.42 L 5650.12,4608.96 L 5785.78,4374 Z " />
<path stroke="none" fill="#000000" transform="matrix(0.0833333 0 0 0.0833333 -195.175 -273.417)" d="M 7381.21,4608.96 L 7372.86,4623.42 L 7356.17,4623.42 L 7220.52,4388.46 L 7228.86,4374 L 7245.56,4374 L 7381.21,4608.96 Z " />
<path stroke="none" fill="#000000" transform="matrix(0.0833333 0 0 0.0833333 -195.175 -273.417)" d="M 7427.11,4543.9 L 7402.07,4558.36 L 7299.81,4381.23 L 7324.85,4366.77 L 7427.11,4543.9 Z " />
<path stroke="none" fill="#000000" transform="matrix(0.0833333 0 0 0.0833333 -195.175 -273.417)" d="M 7652.52,4608.96 L 7669.21,4637.87 L 7381.21,4637.87 L 7372.86,4623.42 L 7381.21,4608.96 L 7652.52,4608.96 Z " />
<path stroke="none" fill="#000000" transform="matrix(0.0833333 0 0 0.0833333 -195.175 -273.417)" d="M 7788.17,4374 L 7821.56,4374 L 7669.21,4637.87 L 7652.52,4608.96 L 7788.17,4374 Z " />
<path stroke="none" fill="#000000" transform="matrix(0.0833333 0 0 0.0833333 -195.175 -273.417)" d="M 7708.88,4366.77 L 7733.92,4381.23 L 7631.65,4558.36 L 7606.61,4543.9 L 7708.88,4366.77 Z " />
<path stroke="none" fill="#000000" transform="matrix(0.0833333 0 0 0.0833333 -195.175 -273.417)" d="M 7652.52,4139.04 L 7669.21,4110.13 L 7821.56,4374 L 7788.17,4374 L 7652.52,4139.04 Z " />
<path stroke="none" fill="#000000" transform="matrix(0.0833333 0 0 0.0833333 -195.175 -273.417)" d="M 7381.21,4139.04 L 7372.86,4124.58 L 7381.21,4110.13 L 7669.21,4110.13 L 7652.52,4139.04 L 7381.21,4139.04 Z " />
<path stroke="none" fill="#000000" transform="matrix(0.0833333 0 0 0.0833333 -195.175 -273.417)" d="M 7414.59,4211.32 L 7414.59,4182.41 L 7619.13,4182.41 L 7619.13,4211.32 L 7414.59,4211.32 Z " />
<path stroke="none" fill="#000000" transform="matrix(0.0833333 0 0 0.0833333 -195.175 -273.417)" d="M 7245.56,4374 L 7228.86,4374 L 7220.52,4359.54 L 7356.17,4124.58 L 7372.86,4124.58 L 7381.21,4139.04 L 7245.56,4374 Z " />
<path stroke="none" fill="#000000" transform="matrix(0.0833333 0 0 0.0833333 -195.175 -273.417)" d="M 5785.78,3875.17 L 5802.47,3875.17 L 5810.81,3889.63 L 5675.16,4124.58 L 5658.47,4124.58 L 5650.12,4110.13 L 5785.78,3875.17 Z " />
<path stroke="none" fill="#000000" transform="matrix(0.0833333 0 0 0.0833333 -195.175 -273.417)" d="M 6090.47,3860.71 L 6090.47,3889.63 L 5810.81,3889.63 L 5802.47,3875.17 L 5810.81,3860.71 L 6090.47,3860.71 L 6090.47,3860.71 Z " />
<path stroke="none" fill="#000000" transform="matrix(0.0833333 0 0 0.0833333 -195.175 -273.417)" d="M 5645.95,3632.98 L 5670.99,3618.53 L 5810.81,3860.71 L 5802.47,3875.17 L 5785.78,3875.17 L 5645.95,3632.98 Z " />
<path stroke="none" fill="#000000" transform="matrix(0.0833333 0 0 0.0833333 -195.175 -273.417)" d="M 7220.52,3889.63 L 7228.86,3875.17 L 7245.56,3875.17 L 7381.21,4110.13 L 7372.86,4124.58 L 7356.17,4124.58 L 7220.52,3889.63 Z " />
<path stroke="none" fill="#000000" transform="matrix(0.0833333 0 0 0.0833333 -195.175 -273.417)" d="M 7360.34,3618.53 L 7385.38,3632.98 L 7245.56,3875.17 L 7228.86,3875.17 L 7220.52,3860.71 L 7360.34,3618.53 Z " />
<path stroke="none" fill="#000000" transform="matrix(0.0833333 0 0 0.0833333 -195.175 -273.417)" d="M 6940.86,3889.63 L 6940.86,3860.71 L 7220.52,3860.71 L 7228.86,3875.17 L 7220.52,3889.63 L 6940.86,3889.63 L 6940.86,3889.63 Z " />
<path stroke="none" fill="#000000" transform="matrix(0.0833333 0 0 0.0833333 -195.175 -273.417)" d="M 7245.56,4872.83 L 7228.86,4872.83 L 7220.52,4858.37 L 7356.17,4623.42 L 7372.86,4623.42 L 7381.21,4637.87 L 7245.56,4872.83 Z " />
<path stroke="none" fill="#000000" transform="matrix(0.0833333 0 0 0.0833333 -195.175 -273.417)" d="M 6940.86,4887.29 L 6940.86,4858.37 L 7220.52,4858.37 L 7228.86,4872.83 L 7220.52,4887.29 L 6940.86,4887.29 Z " />
<path stroke="none" fill="#000000" transform="matrix(0.0833333 0 0 0.0833333 -195.175 -273.417)" d="M 7385.38,5115.02 L 7360.34,5129.47 L 7220.52,4887.29 L 7228.86,4872.83 L 7245.56,4872.83 L 7385.38,5115.02 Z " />
<path stroke="none" fill="#000000" transform="matrix(0.0833333 0 0 0.0833333 -195.175 -273.417)" d="M 5810.81,4858.37 L 5802.47,4872.83 L 5785.78,4872.83 L 5650.12,4637.87 L 5658.47,4623.42 L 5675.16,4623.42 L 5810.81,4858.37 Z " />
<path stroke="none" fill="#000000" transform="matrix(0.0833333 0 0 0.0833333 -195.175 -273.417)" d="M 6090.47,4858.37 L 6090.47,4887.29 L 5810.81,4887.29 L 5802.47,4872.83 L 5810.81,4858.37 L 6090.47,4858.37 Z " />
<path stroke="none" fill="#000000" transform="matrix(0.0833333 0 0 0.0833333 -195.175 -273.417)" d="M 5670.99,5129.47 L 5645.95,5115.02 L 5785.78,4872.83 L 5802.47,4872.83 L 5810.81,4887.29 L 5670.99,5129.47 Z " />
<text x="0" y="0" stroke="none" fill="#008000" transform="matrix(0.0833333 0 0 0.0833333 339.485 136.222)" font-style="normal" font-weight="bold" font-size="200px" font-family="Times New Roman" >
Ni</text>
<path stroke="none" fill="#000000" transform="matrix(0.0833333 0 0 0.0833333 -195.175 -273.417)" d="M 6430.92,4735.72 L 6292.23,4590.96 L 6347.54,4587.33 L 6379.02,4541.31 L 6430.92,4735.72 L 6430.92,4735.72 Z " />
<path stroke="none" fill="#000000" transform="matrix(0.0833333 0 0 0.0833333 -195.175 -273.417)" d="M 6360.14,4580.25 L 6334.93,4594.41 L 6275.38,4488.42 L 6300.58,4474.26 L 6360.14,4580.25 Z " />
<path stroke="none" fill="#000000" transform="matrix(0.0833333 0 0 0.0833333 -195.175 -273.417)" d="M 6625.97,4756.24 L 6663.14,4556.96 L 6698.23,4600.81 L 6753.96,4600.25 L 6625.97,4756.24 L 6625.97,4756.24 Z " />
<path stroke="none" fill="#000000" transform="matrix(0.0833333 0 0 0.0833333 -195.175 -273.417)" d="M 6711.34,4606.9 L 6685.12,4594.71 L 6736.73,4483.69 L 6762.95,4495.88 L 6711.34,4606.9 Z " />
<text x="0" y="0" stroke="none" fill="#800000" transform="matrix(0.0833333 0 0 0.0833333 361.932 165.38)" font-style="normal" font-weight="bold" font-size="200px" font-family="Times New Roman" >
Br</text>
<path stroke="none" fill="#000000" transform="matrix(0.0833333 0 0 0.0833333 -195.175 -273.417)" d="M 6693.94,5086.27 L 6670.84,5103.67 L 6571.97,4972.45 L 6595.06,4955.05 L 6693.94,5086.27 Z " />
<text x="0" y="0" stroke="none" fill="#800000" transform="matrix(0.0833333 0 0 0.0833333 314.519 165.835)" font-style="normal" font-weight="bold" font-size="200px" font-family="Times New Roman" >
Br</text>
<path stroke="none" fill="#000000" transform="matrix(0.0833333 0 0 0.0833333 -195.175 -273.417)" d="M 6338.07,5142.3 L 6312.68,5128.46 L 6413.25,4943.95 L 6438.63,4957.79 L 6338.07,5142.3 Z " />
<path stroke="none" fill="#000000" transform="matrix(0.0833333 0 0 0.0833333 -195.175 -273.417)" d="M 6730.84,3894.48 L 6748.66,3888.18 L 6760.38,3898.09 L 6675.6,4123.28 L 6659.67,4124.58 L 6649.66,4110.13 L 6730.84,3894.48 Z " />
<path stroke="none" fill="#000000" transform="matrix(0.0833333 0 0 0.0833333 -195.175 -273.417)" d="M 6515.66,3768.16 L 6515.66,3751.4 L 6530.12,3743.12 L 6748.69,3871.43 L 6748.66,3888.18 L 6730.84,3894.48 L 6515.66,3768.16 Z " />
<path stroke="none" fill="#000000" transform="matrix(0.0833333 0 0 0.0833333 -195.175 -273.417)" d="M 6300.49,3894.48 L 6282.67,3888.18 L 6282.67,3871.42 L 6501.21,3743.12 L 6515.66,3751.4 L 6515.66,3768.16 L 6300.49,3894.48 Z " />
<path stroke="none" fill="#000000" transform="matrix(0.0833333 0 0 0.0833333 -195.175 -273.417)" d="M 6289.99,3816.83 L 6275.35,3791.89 L 6436.06,3697.55 L 6450.7,3722.48 L 6289.99,3816.83 Z " />
<path stroke="none" fill="#000000" transform="matrix(0.0833333 0 0 0.0833333 -195.175 -273.417)" d="M 6381.67,4110.13 L 6371.67,4124.58 L 6355.73,4123.28 L 6270.94,3898.06 L 6282.67,3888.18 L 6300.49,3894.48 L 6381.67,4110.13 Z " />
<path stroke="none" fill="#000000" transform="matrix(0.0833333 0 0 0.0833333 -195.175 -273.417)" d="M 6501.21,3489.61 L 6515.66,3481.23 L 6530.12,3489.5 L 6530.12,3743.12 L 6515.66,3751.4 L 6501.21,3743.12 L 6501.21,3489.61 Z " />
<path stroke="none" fill="#000000" transform="matrix(0.0833333 0 0 0.0833333 -195.175 -273.417)" d="M 6282.67,3364.49 L 6282.67,3331.18 L 6515.57,3464.52 L 6515.66,3481.23 L 6501.21,3489.61 L 6282.67,3364.49 Z " />
<path stroke="none" fill="#000000" transform="matrix(0.0833333 0 0 0.0833333 -195.175 -273.417)" d="M 6275.49,3443.67 L 6289.85,3418.58 L 6450.56,3510.59 L 6436.2,3535.68 L 6275.49,3443.67 Z " />
<path stroke="none" fill="#000000" transform="matrix(0.0833333 0 0 0.0833333 -195.175 -273.417)" d="M 6064.13,3489.61 L 6035.21,3472.84 L 6282.67,3331.18 L 6282.67,3364.49 L 6064.13,3489.61 Z " />
<path stroke="none" fill="#000000" transform="matrix(0.0833333 0 0 0.0833333 -195.175 -273.417)" d="M 6064.13,3743.12 L 6035.21,3759.67 L 6035.21,3472.84 L 6064.13,3489.61 L 6064.13,3743.12 Z " />
<path stroke="none" fill="#000000" transform="matrix(0.0833333 0 0 0.0833333 -195.175 -273.417)" d="M 6136.41,3710.01 L 6107.5,3710.01 L 6107.5,3523.13 L 6136.41,3523.13 L 6136.41,3710.01 Z " />
<path stroke="none" fill="#000000" transform="matrix(0.0833333 0 0 0.0833333 -195.175 -273.417)" d="M 6282.67,3871.42 L 6282.67,3888.18 L 6270.94,3898.06 L 6035.21,3759.67 L 6064.13,3743.12 L 6282.67,3871.42 Z " />
<path stroke="none" fill="#000000" transform="matrix(0.0833333 0 0 0.0833333 -195.175 -273.417)" d="M 6969.16,3743.09 L 6998.07,3759.71 L 6760.38,3898.09 L 6748.66,3888.18 L 6748.69,3871.43 L 6969.16,3743.09 Z " />
<path stroke="none" fill="#000000" transform="matrix(0.0833333 0 0 0.0833333 -195.175 -273.417)" d="M 6904.06,3697.34 L 6918.61,3722.33 L 6756.09,3816.94 L 6741.54,3791.96 L 6904.06,3697.34 Z " />
<path stroke="none" fill="#000000" transform="matrix(0.0833333 0 0 0.0833333 -195.175 -273.417)" d="M 6969.16,3489.54 L 6998.07,3472.91 L 6998.07,3759.71 L 6969.16,3743.09 L 6969.16,3489.54 Z " />
<path stroke="none" fill="#000000" transform="matrix(0.0833333 0 0 0.0833333 -195.175 -273.417)" d="M 6748.69,3361.19 L 6748.63,3327.7 L 6998.07,3472.91 L 6969.16,3489.54 L 6748.69,3361.19 Z " />
<path stroke="none" fill="#000000" transform="matrix(0.0833333 0 0 0.0833333 -195.175 -273.417)" d="M 6741.54,3440.67 L 6756.09,3415.68 L 6918.61,3510.29 L 6904.06,3535.28 L 6741.54,3440.67 Z " />
<path stroke="none" fill="#000000" transform="matrix(0.0833333 0 0 0.0833333 -195.175 -273.417)" d="M 6530.12,3489.5 L 6515.66,3481.23 L 6515.57,3464.52 L 6748.63,3327.7 L 6748.69,3361.19 L 6530.12,3489.5 Z " />
<text x="0" y="0" stroke="none" fill="#000000" transform="matrix(0.0833333 0 0 0.0833333 101.804 189.125)" font-style="normal" font-weight="bold" font-size="240px" font-family="Times New Roman" >
A</text>
<text x="0" y="0" stroke="none" fill="#000000" transform="matrix(0.0833333 0 0 0.0833333 342.971 189.125)" font-style="normal" font-weight="bold" font-size="240px" font-family="Times New Roman" >
B</text>
</svg>
