<?xml version="1.0" standalone="no" ?>
<!DOCTYPE svg PUBLIC "-//W3C//DTD SVG 1.1//EN" "http://www.w3.org/Graphics/SVG/1.1/DTD/svg11.dtd">
<svg width="853px" height="183px" viewBox="0 0 853 183" style="background-color: #ffffff00" xmlns="http://www.w3.org/2000/svg" xmlns:xlink="http://www.w3.org/1999/xlink" version="1.1" >
<text x="0" y="0" stroke="none" fill="#0000ff" transform="matrix(0.0833333 0 0 0.0833333 709.922 81.6667)" font-style="normal" font-weight="bold" font-size="200px" font-family="Times New Roman" >
N</text>
<path stroke="none" fill="#000000" transform="matrix(0.0833333 0 0 0.0833333 -11.175 -180)" d="M 8852.47,2812.08 L 8869.17,2812.08 L 8877.51,2826.54 L 8795.55,2968.51 L 8770.51,2954.05 L 8852.47,2812.08 Z " />
<path stroke="none" fill="#000000" transform="matrix(0.0833333 0 0 0.0833333 -11.175 -180)" d="M 8898.38,2877.14 L 8923.42,2891.6 L 8858.14,3004.65 L 8833.11,2990.2 L 8898.38,2877.14 Z " />
<path stroke="none" fill="#000000" transform="matrix(0.0833333 0 0 0.0833333 -11.175 -180)" d="M 9148.82,2797.63 L 9157.17,2812.08 L 9148.82,2826.54 L 8877.51,2826.54 L 8869.17,2812.08 L 8877.51,2797.63 L 9148.82,2797.63 Z " />
<path stroke="none" fill="#000000" transform="matrix(0.0833333 0 0 0.0833333 -11.175 -180)" d="M 8712.65,2569.9 L 8737.68,2555.44 L 8877.51,2797.63 L 8869.17,2812.08 L 8852.47,2812.08 L 8712.65,2569.9 Z " />
<path stroke="none" fill="#000000" transform="matrix(0.0833333 0 0 0.0833333 -11.175 -180)" d="M 9288.65,2555.44 L 9313.68,2569.9 L 9173.86,2812.08 L 9157.17,2812.08 L 9148.82,2797.63 L 9288.65,2555.44 Z " />
<text x="0" y="0" stroke="none" fill="#0000ff" transform="matrix(0.0833333 0 0 0.0833333 757.922 81.6667)" font-style="normal" font-weight="bold" font-size="200px" font-family="Times New Roman" >
N</text>
<path stroke="none" fill="#000000" transform="matrix(0.0833333 0 0 0.0833333 -11.175 -180)" d="M 9255.32,2953.19 L 9230.28,2967.64 L 9148.82,2826.54 L 9157.17,2812.08 L 9173.86,2812.08 L 9255.32,2953.19 Z " />
<path stroke="none" fill="#000000" transform="matrix(0.0833333 0 0 0.0833333 -11.175 -180)" d="M 9192.73,2989.33 L 9167.69,3003.79 L 9102.91,2891.6 L 9127.95,2877.14 L 9192.73,2989.33 Z " />
<path stroke="none" fill="#000000" transform="matrix(0.0833333 0 0 0.0833333 -11.175 -180)" d="M 8308.31,3075.96 L 8299.97,3061.5 L 8308.31,3047.04 L 8624.42,3047.04 L 8624.42,3075.96 L 8308.31,3075.96 Z " />
<path stroke="none" fill="#000000" transform="matrix(0.0833333 0 0 0.0833333 -11.175 -180)" d="M 9718.02,3047.04 L 9726.36,3061.5 L 9718.02,3075.96 L 9399.91,3075.96 L 9399.91,3047.04 L 9718.02,3047.04 Z " />
<path stroke="none" fill="#000000" transform="matrix(0.0833333 0 0 0.0833333 -11.175 -180)" d="M 8147.62,2826.54 L 8155.97,2812.08 L 8172.66,2812.08 L 8308.31,3047.04 L 8299.97,3061.5 L 8283.28,3061.5 L 8147.62,2826.54 Z " />
<path stroke="none" fill="#000000" transform="matrix(0.0833333 0 0 0.0833333 -11.175 -180)" d="M 8101.72,2891.6 L 8126.76,2877.14 L 8229.02,3054.27 L 8203.98,3068.73 L 8101.72,2891.6 Z " />
<path stroke="none" fill="#000000" transform="matrix(0.0833333 0 0 0.0833333 -11.175 -180)" d="M 7876.31,2826.54 L 7859.62,2797.63 L 8147.62,2797.63 L 8155.97,2812.08 L 8147.62,2826.54 L 7876.31,2826.54 Z " />
<path stroke="none" fill="#000000" transform="matrix(0.0833333 0 0 0.0833333 -11.175 -180)" d="M 7740.66,3061.5 L 7707.28,3061.5 L 7859.62,2797.63 L 7876.31,2826.54 L 7740.66,3061.5 Z " />
<path stroke="none" fill="#000000" transform="matrix(0.0833333 0 0 0.0833333 -11.175 -180)" d="M 7819.95,3068.73 L 7794.91,3054.27 L 7897.18,2877.14 L 7922.22,2891.6 L 7819.95,3068.73 Z " />
<path stroke="none" fill="#000000" transform="matrix(0.0833333 0 0 0.0833333 -11.175 -180)" d="M 7876.31,3296.46 L 7859.62,3325.37 L 7707.28,3061.5 L 7740.66,3061.5 L 7876.31,3296.46 Z " />
<path stroke="none" fill="#000000" transform="matrix(0.0833333 0 0 0.0833333 -11.175 -180)" d="M 8147.62,3296.46 L 8155.97,3310.92 L 8147.62,3325.37 L 7859.62,3325.37 L 7876.31,3296.46 L 8147.62,3296.46 Z " />
<path stroke="none" fill="#000000" transform="matrix(0.0833333 0 0 0.0833333 -11.175 -180)" d="M 8114.24,3224.18 L 8114.24,3253.09 L 7909.7,3253.09 L 7909.7,3224.18 L 8114.24,3224.18 Z " />
<path stroke="none" fill="#000000" transform="matrix(0.0833333 0 0 0.0833333 -11.175 -180)" d="M 8283.28,3061.5 L 8299.97,3061.5 L 8308.31,3075.96 L 8172.66,3310.92 L 8155.97,3310.92 L 8147.62,3296.46 L 8283.28,3061.5 Z " />
<path stroke="none" fill="#000000" transform="matrix(0.0833333 0 0 0.0833333 -11.175 -180)" d="M 9878.71,3296.46 L 9870.36,3310.92 L 9853.67,3310.92 L 9718.02,3075.96 L 9726.36,3061.5 L 9743.06,3061.5 L 9878.71,3296.46 Z " />
<path stroke="none" fill="#000000" transform="matrix(0.0833333 0 0 0.0833333 -11.175 -180)" d="M 9924.61,3231.4 L 9899.57,3245.86 L 9797.31,3068.73 L 9822.35,3054.27 L 9924.61,3231.4 Z " />
<path stroke="none" fill="#000000" transform="matrix(0.0833333 0 0 0.0833333 -11.175 -180)" d="M 10150,3296.46 L 10166.7,3325.37 L 9878.71,3325.37 L 9870.36,3310.92 L 9878.71,3296.46 L 10150,3296.46 Z " />
<path stroke="none" fill="#000000" transform="matrix(0.0833333 0 0 0.0833333 -11.175 -180)" d="M 10285.7,3061.5 L 10319.1,3061.5 L 10166.7,3325.37 L 10150,3296.46 L 10285.7,3061.5 Z " />
<path stroke="none" fill="#000000" transform="matrix(0.0833333 0 0 0.0833333 -11.175 -180)" d="M 10206.4,3054.27 L 10231.4,3068.73 L 10129.1,3245.86 L 10104.1,3231.4 L 10206.4,3054.27 Z " />
<path stroke="none" fill="#000000" transform="matrix(0.0833333 0 0 0.0833333 -11.175 -180)" d="M 10150,2826.54 L 10166.7,2797.63 L 10319.1,3061.5 L 10285.7,3061.5 L 10150,2826.54 Z " />
<path stroke="none" fill="#000000" transform="matrix(0.0833333 0 0 0.0833333 -11.175 -180)" d="M 9878.71,2826.54 L 9870.36,2812.08 L 9878.71,2797.63 L 10166.7,2797.63 L 10150,2826.54 L 9878.71,2826.54 Z " />
<path stroke="none" fill="#000000" transform="matrix(0.0833333 0 0 0.0833333 -11.175 -180)" d="M 9912.09,2898.82 L 9912.09,2869.91 L 10116.6,2869.91 L 10116.6,2898.82 L 9912.09,2898.82 Z " />
<path stroke="none" fill="#000000" transform="matrix(0.0833333 0 0 0.0833333 -11.175 -180)" d="M 9743.06,3061.5 L 9726.36,3061.5 L 9718.02,3047.04 L 9853.67,2812.08 L 9870.36,2812.08 L 9878.71,2826.54 L 9743.06,3061.5 Z " />
<path stroke="none" fill="#000000" transform="matrix(0.0833333 0 0 0.0833333 -11.175 -180)" d="M 8283.28,2562.67 L 8299.97,2562.67 L 8308.31,2577.13 L 8172.66,2812.08 L 8155.97,2812.08 L 8147.62,2797.63 L 8283.28,2562.67 Z " />
<path stroke="none" fill="#000000" transform="matrix(0.0833333 0 0 0.0833333 -11.175 -180)" d="M 8587.97,2548.21 L 8587.97,2577.13 L 8308.31,2577.13 L 8299.97,2562.67 L 8308.31,2548.21 L 8587.97,2548.21 Z " />
<path stroke="none" fill="#000000" transform="matrix(0.0833333 0 0 0.0833333 -11.175 -180)" d="M 8143.45,2320.48 L 8168.49,2306.03 L 8308.31,2548.21 L 8299.97,2562.67 L 8283.28,2562.67 L 8143.45,2320.48 Z " />
<path stroke="none" fill="#000000" transform="matrix(0.0833333 0 0 0.0833333 -11.175 -180)" d="M 9718.02,2577.13 L 9726.36,2562.67 L 9743.06,2562.67 L 9878.71,2797.63 L 9870.36,2812.08 L 9853.67,2812.08 L 9718.02,2577.13 Z " />
<path stroke="none" fill="#000000" transform="matrix(0.0833333 0 0 0.0833333 -11.175 -180)" d="M 9857.84,2306.03 L 9882.88,2320.48 L 9743.06,2562.67 L 9726.36,2562.67 L 9718.02,2548.21 L 9857.84,2306.03 Z " />
<path stroke="none" fill="#000000" transform="matrix(0.0833333 0 0 0.0833333 -11.175 -180)" d="M 9438.36,2577.13 L 9438.36,2548.21 L 9718.02,2548.21 L 9726.36,2562.67 L 9718.02,2577.13 L 9438.36,2577.13 Z " />
<path stroke="none" fill="#000000" transform="matrix(0.0833333 0 0 0.0833333 -11.175 -180)" d="M 9743.06,3560.33 L 9726.36,3560.33 L 9718.02,3545.87 L 9853.67,3310.92 L 9870.36,3310.92 L 9878.71,3325.37 L 9743.06,3560.33 Z " />
<path stroke="none" fill="#000000" transform="matrix(0.0833333 0 0 0.0833333 -11.175 -180)" d="M 9438.36,3574.79 L 9438.36,3545.87 L 9718.02,3545.87 L 9726.36,3560.33 L 9718.02,3574.79 L 9438.36,3574.79 Z " />
<path stroke="none" fill="#000000" transform="matrix(0.0833333 0 0 0.0833333 -11.175 -180)" d="M 9882.88,3802.52 L 9857.84,3816.97 L 9718.02,3574.79 L 9726.36,3560.33 L 9743.06,3560.33 L 9882.88,3802.52 Z " />
<path stroke="none" fill="#000000" transform="matrix(0.0833333 0 0 0.0833333 -11.175 -180)" d="M 8308.31,3545.87 L 8299.97,3560.33 L 8283.28,3560.33 L 8147.62,3325.37 L 8155.97,3310.92 L 8172.66,3310.92 L 8308.31,3545.87 Z " />
<path stroke="none" fill="#000000" transform="matrix(0.0833333 0 0 0.0833333 -11.175 -180)" d="M 8587.97,3545.87 L 8587.97,3574.79 L 8308.31,3574.79 L 8299.97,3560.33 L 8308.31,3545.87 L 8587.97,3545.87 Z " />
<path stroke="none" fill="#000000" transform="matrix(0.0833333 0 0 0.0833333 -11.175 -180)" d="M 8168.49,3816.97 L 8143.45,3802.52 L 8283.28,3560.33 L 8299.97,3560.33 L 8308.31,3574.79 L 8168.49,3816.97 Z " />
<text x="0" y="0" stroke="none" fill="#008000" transform="matrix(0.0833333 0 0 0.0833333 731.61 120.264)" font-style="normal" font-weight="bold" font-size="200px" font-family="Times New Roman" >
Ni</text>
<path stroke="none" fill="#000000" transform="matrix(0.0833333 0 0 0.0833333 -11.175 -180)" d="M 8928.42,3423.22 L 8789.73,3278.46 L 8845.04,3274.83 L 8876.52,3228.81 L 8928.42,3423.22 L 8928.42,3423.22 Z " />
<path stroke="none" fill="#000000" transform="matrix(0.0833333 0 0 0.0833333 -11.175 -180)" d="M 8857.64,3267.75 L 8832.43,3281.91 L 8772.88,3175.92 L 8798.08,3161.76 L 8857.64,3267.75 Z " />
<path stroke="none" fill="#000000" transform="matrix(0.0833333 0 0 0.0833333 -11.175 -180)" d="M 9123.47,3443.74 L 9160.64,3244.46 L 9195.73,3288.31 L 9251.46,3287.75 L 9123.47,3443.74 L 9123.47,3443.74 Z " />
<path stroke="none" fill="#000000" transform="matrix(0.0833333 0 0 0.0833333 -11.175 -180)" d="M 9208.84,3294.4 L 9182.62,3282.21 L 9234.23,3171.19 L 9260.45,3183.38 L 9208.84,3294.4 Z " />
<text x="0" y="0" stroke="none" fill="#800000" transform="matrix(0.0833333 0 0 0.0833333 754.057 149.422)" font-style="normal" font-weight="bold" font-size="200px" font-family="Times New Roman" >
Br</text>
<path stroke="none" fill="#000000" transform="matrix(0.0833333 0 0 0.0833333 -11.175 -180)" d="M 9191.44,3773.77 L 9168.34,3791.17 L 9069.47,3659.95 L 9092.56,3642.55 L 9191.44,3773.77 Z " />
<text x="0" y="0" stroke="none" fill="#800000" transform="matrix(0.0833333 0 0 0.0833333 706.644 149.877)" font-style="normal" font-weight="bold" font-size="200px" font-family="Times New Roman" >
Br</text>
<path stroke="none" fill="#000000" transform="matrix(0.0833333 0 0 0.0833333 -11.175 -180)" d="M 8835.57,3829.8 L 8810.18,3815.96 L 8910.75,3631.45 L 8936.13,3645.29 L 8835.57,3829.8 Z " />
<text x="0" y="0" stroke="none" fill="#0000ff" transform="matrix(0.0833333 0 0 0.0833333 461.172 81.6667)" font-style="normal" font-weight="bold" font-size="200px" font-family="Times New Roman" >
N</text>
<path stroke="none" fill="#000000" transform="matrix(0.0833333 0 0 0.0833333 -11.175 -180)" d="M 5867.47,2812.08 L 5884.16,2812.08 L 5892.51,2826.54 L 5810.55,2968.51 L 5785.51,2954.05 L 5867.47,2812.08 Z " />
<path stroke="none" fill="#000000" transform="matrix(0.0833333 0 0 0.0833333 -11.175 -180)" d="M 5913.38,2877.14 L 5938.42,2891.6 L 5873.14,3004.65 L 5848.1,2990.2 L 5913.38,2877.14 Z " />
<path stroke="none" fill="#000000" transform="matrix(0.0833333 0 0 0.0833333 -11.175 -180)" d="M 6163.82,2797.63 L 6172.16,2812.08 L 6163.82,2826.54 L 5892.51,2826.54 L 5884.16,2812.08 L 5892.51,2797.63 L 6163.82,2797.63 Z " />
<path stroke="none" fill="#000000" transform="matrix(0.0833333 0 0 0.0833333 -11.175 -180)" d="M 5727.64,2569.9 L 5752.68,2555.44 L 5892.51,2797.63 L 5884.16,2812.08 L 5867.47,2812.08 L 5727.64,2569.9 Z " />
<path stroke="none" fill="#000000" transform="matrix(0.0833333 0 0 0.0833333 -11.175 -180)" d="M 6303.65,2555.44 L 6328.68,2569.9 L 6188.86,2812.08 L 6172.16,2812.08 L 6163.82,2797.63 L 6303.65,2555.44 Z " />
<text x="0" y="0" stroke="none" fill="#0000ff" transform="matrix(0.0833333 0 0 0.0833333 509.172 81.6667)" font-style="normal" font-weight="bold" font-size="200px" font-family="Times New Roman" >
N</text>
<path stroke="none" fill="#000000" transform="matrix(0.0833333 0 0 0.0833333 -11.175 -180)" d="M 6270.32,2953.19 L 6245.28,2967.64 L 6163.82,2826.54 L 6172.16,2812.08 L 6188.86,2812.08 L 6270.32,2953.19 Z " />
<path stroke="none" fill="#000000" transform="matrix(0.0833333 0 0 0.0833333 -11.175 -180)" d="M 6207.72,2989.33 L 6182.69,3003.79 L 6117.91,2891.6 L 6142.95,2877.14 L 6207.72,2989.33 Z " />
<path stroke="none" fill="#000000" transform="matrix(0.0833333 0 0 0.0833333 -11.175 -180)" d="M 5108.31,3075.96 L 5099.97,3061.5 L 5108.31,3047.04 L 5639.42,3047.04 L 5639.42,3075.96 L 5108.31,3075.96 Z " />
<path stroke="none" fill="#000000" transform="matrix(0.0833333 0 0 0.0833333 -11.175 -180)" d="M 6709.27,3047.04 L 6717.61,3061.5 L 6709.27,3075.96 L 6414.91,3075.96 L 6414.91,3047.04 L 6709.27,3047.04 Z " />
<path stroke="none" fill="#000000" transform="matrix(0.0833333 0 0 0.0833333 -11.175 -180)" d="M 4947.62,2826.54 L 4955.97,2812.08 L 4972.66,2812.08 L 5108.31,3047.04 L 5099.97,3061.5 L 5083.27,3061.5 L 4947.62,2826.54 Z " />
<path stroke="none" fill="#000000" transform="matrix(0.0833333 0 0 0.0833333 -11.175 -180)" d="M 4901.72,2891.6 L 4926.76,2877.14 L 5029.02,3054.27 L 5003.98,3068.73 L 4901.72,2891.6 Z " />
<path stroke="none" fill="#000000" transform="matrix(0.0833333 0 0 0.0833333 -11.175 -180)" d="M 4676.31,2826.54 L 4659.62,2797.63 L 4947.62,2797.63 L 4955.97,2812.08 L 4947.62,2826.54 L 4676.31,2826.54 Z " />
<path stroke="none" fill="#000000" transform="matrix(0.0833333 0 0 0.0833333 -11.175 -180)" d="M 4540.66,3061.5 L 4523.97,3061.5 L 4515.62,3047.04 L 4659.62,2797.63 L 4676.31,2826.54 L 4540.66,3061.5 Z " />
<path stroke="none" fill="#000000" transform="matrix(0.0833333 0 0 0.0833333 -11.175 -180)" d="M 4619.95,3068.73 L 4594.91,3054.27 L 4697.18,2877.14 L 4722.22,2891.6 L 4619.95,3068.73 Z " />
<path stroke="none" fill="#000000" transform="matrix(0.0833333 0 0 0.0833333 -11.175 -180)" d="M 4676.31,3296.46 L 4659.62,3325.37 L 4515.62,3075.96 L 4523.97,3061.5 L 4540.66,3061.5 L 4676.31,3296.46 Z " />
<path stroke="none" fill="#000000" transform="matrix(0.0833333 0 0 0.0833333 -11.175 -180)" d="M 4947.62,3296.46 L 4955.97,3310.92 L 4947.62,3325.37 L 4659.62,3325.37 L 4676.31,3296.46 L 4947.62,3296.46 Z " />
<path stroke="none" fill="#000000" transform="matrix(0.0833333 0 0 0.0833333 -11.175 -180)" d="M 4914.24,3224.18 L 4914.24,3253.09 L 4709.7,3253.09 L 4709.7,3224.18 L 4914.24,3224.18 Z " />
<path stroke="none" fill="#000000" transform="matrix(0.0833333 0 0 0.0833333 -11.175 -180)" d="M 5083.27,3061.5 L 5099.97,3061.5 L 5108.31,3075.96 L 4972.66,3310.92 L 4955.97,3310.92 L 4947.62,3296.46 L 5083.27,3061.5 Z " />
<path stroke="none" fill="#000000" transform="matrix(0.0833333 0 0 0.0833333 -11.175 -180)" d="M 6869.96,3296.46 L 6861.61,3310.92 L 6844.92,3310.92 L 6709.27,3075.96 L 6717.61,3061.5 L 6734.3,3061.5 L 6869.96,3296.46 Z " />
<path stroke="none" fill="#000000" transform="matrix(0.0833333 0 0 0.0833333 -11.175 -180)" d="M 6915.86,3231.4 L 6890.82,3245.86 L 6788.56,3068.73 L 6813.6,3054.27 L 6915.86,3231.4 Z " />
<path stroke="none" fill="#000000" transform="matrix(0.0833333 0 0 0.0833333 -11.175 -180)" d="M 7141.27,3296.46 L 7157.96,3325.37 L 6869.96,3325.37 L 6861.61,3310.92 L 6869.96,3296.46 L 7141.27,3296.46 Z " />
<path stroke="none" fill="#000000" transform="matrix(0.0833333 0 0 0.0833333 -11.175 -180)" d="M 7276.92,3061.5 L 7310.3,3061.5 L 7157.96,3325.37 L 7141.27,3296.46 L 7276.92,3061.5 Z " />
<path stroke="none" fill="#000000" transform="matrix(0.0833333 0 0 0.0833333 -11.175 -180)" d="M 7197.63,3054.27 L 7222.67,3068.73 L 7120.4,3245.86 L 7095.36,3231.4 L 7197.63,3054.27 Z " />
<path stroke="none" fill="#000000" transform="matrix(0.0833333 0 0 0.0833333 -11.175 -180)" d="M 7141.27,2826.54 L 7157.96,2797.63 L 7310.3,3061.5 L 7276.92,3061.5 L 7141.27,2826.54 Z " />
<path stroke="none" fill="#000000" transform="matrix(0.0833333 0 0 0.0833333 -11.175 -180)" d="M 6869.96,2826.54 L 6861.61,2812.08 L 6869.96,2797.63 L 7157.96,2797.63 L 7141.27,2826.54 L 6869.96,2826.54 Z " />
<path stroke="none" fill="#000000" transform="matrix(0.0833333 0 0 0.0833333 -11.175 -180)" d="M 6903.34,2898.82 L 6903.34,2869.91 L 7107.88,2869.91 L 7107.88,2898.82 L 6903.34,2898.82 Z " />
<path stroke="none" fill="#000000" transform="matrix(0.0833333 0 0 0.0833333 -11.175 -180)" d="M 6734.3,3061.5 L 6717.61,3061.5 L 6709.27,3047.04 L 6844.92,2812.08 L 6861.61,2812.08 L 6869.96,2826.54 L 6734.3,3061.5 Z " />
<path stroke="none" fill="#000000" transform="matrix(0.0833333 0 0 0.0833333 -11.175 -180)" d="M 5083.27,2562.67 L 5099.97,2562.67 L 5108.31,2577.13 L 4972.66,2812.08 L 4955.97,2812.08 L 4947.62,2797.63 L 5083.27,2562.67 Z " />
<text x="0" y="0" stroke="none" fill="#000000" transform="matrix(0.0833333 0 0 0.0833333 432.739 40.0974)" font-style="normal" font-weight="bold" font-size="200px" font-family="Times New Roman" >
Ph</text>
<path stroke="none" fill="#000000" transform="matrix(0.0833333 0 0 0.0833333 -11.175 -180)" d="M 5301.22,2548.21 L 5301.22,2577.13 L 5108.31,2577.13 L 5099.97,2562.67 L 5108.31,2548.21 L 5301.22,2548.21 Z " />
<text x="0" y="0" stroke="none" fill="#000000" transform="matrix(0.0833333 0 0 0.0833333 386.997 19.3128)" font-style="normal" font-weight="bold" font-size="200px" font-family="Times New Roman" >
Ph</text>
<path stroke="none" fill="#000000" transform="matrix(0.0833333 0 0 0.0833333 -11.175 -180)" d="M 5003.52,2424.53 L 5028.56,2410.07 L 5108.31,2548.21 L 5099.97,2562.67 L 5083.27,2562.67 L 5003.52,2424.53 Z " />
<path stroke="none" fill="#000000" transform="matrix(0.0833333 0 0 0.0833333 -11.175 -180)" d="M 6709.27,2577.13 L 6717.61,2562.67 L 6734.3,2562.67 L 6869.96,2797.63 L 6861.61,2812.08 L 6844.92,2812.08 L 6709.27,2577.13 Z " />
<path stroke="none" fill="#000000" transform="matrix(0.0833333 0 0 0.0833333 -11.175 -180)" d="M 6849.09,2306.03 L 6874.13,2320.48 L 6734.3,2562.67 L 6717.61,2562.67 L 6709.27,2548.21 L 6849.09,2306.03 Z " />
<path stroke="none" fill="#000000" transform="matrix(0.0833333 0 0 0.0833333 -11.175 -180)" d="M 6429.61,2577.13 L 6429.61,2548.21 L 6709.27,2548.21 L 6717.61,2562.67 L 6709.27,2577.13 L 6429.61,2577.13 Z " />
<path stroke="none" fill="#000000" transform="matrix(0.0833333 0 0 0.0833333 -11.175 -180)" d="M 6734.3,3560.33 L 6717.61,3560.33 L 6709.27,3545.87 L 6844.92,3310.92 L 6861.61,3310.92 L 6869.96,3325.37 L 6734.3,3560.33 Z " />
<path stroke="none" fill="#000000" transform="matrix(0.0833333 0 0 0.0833333 -11.175 -180)" d="M 6429.61,3574.79 L 6429.61,3545.87 L 6709.27,3545.87 L 6717.61,3560.33 L 6709.27,3574.79 L 6429.61,3574.79 Z " />
<path stroke="none" fill="#000000" transform="matrix(0.0833333 0 0 0.0833333 -11.175 -180)" d="M 6874.13,3802.52 L 6849.09,3816.97 L 6709.27,3574.79 L 6717.61,3560.33 L 6734.3,3560.33 L 6874.13,3802.52 Z " />
<path stroke="none" fill="#000000" transform="matrix(0.0833333 0 0 0.0833333 -11.175 -180)" d="M 5108.31,3545.87 L 5099.97,3560.33 L 5083.27,3560.33 L 4947.62,3325.37 L 4955.97,3310.92 L 4972.66,3310.92 L 5108.31,3545.87 Z " />
<text x="0" y="0" stroke="none" fill="#000000" transform="matrix(0.0833333 0 0 0.0833333 432.739 123.236)" font-style="normal" font-weight="bold" font-size="200px" font-family="Times New Roman" >
Ph</text>
<path stroke="none" fill="#000000" transform="matrix(0.0833333 0 0 0.0833333 -11.175 -180)" d="M 5301.22,3545.87 L 5301.22,3574.79 L 5108.31,3574.79 L 5099.97,3560.33 L 5108.31,3545.87 L 5301.22,3545.87 Z " />
<text x="0" y="0" stroke="none" fill="#000000" transform="matrix(0.0833333 0 0 0.0833333 386.997 144.02)" font-style="normal" font-weight="bold" font-size="200px" font-family="Times New Roman" >
Ph</text>
<path stroke="none" fill="#000000" transform="matrix(0.0833333 0 0 0.0833333 -11.175 -180)" d="M 5006.62,3750.92 L 4981.58,3736.46 L 5083.27,3560.33 L 5099.97,3560.33 L 5108.31,3574.79 L 5006.62,3750.92 Z " />
<text x="0" y="0" stroke="none" fill="#008000" transform="matrix(0.0833333 0 0 0.0833333 482.86 120.264)" font-style="normal" font-weight="bold" font-size="200px" font-family="Times New Roman" >
Ni</text>
<path stroke="none" fill="#000000" transform="matrix(0.0833333 0 0 0.0833333 -11.175 -180)" d="M 5943.42,3423.22 L 5804.73,3278.46 L 5860.04,3274.83 L 5891.52,3228.81 L 5943.42,3423.22 L 5943.42,3423.22 Z " />
<path stroke="none" fill="#000000" transform="matrix(0.0833333 0 0 0.0833333 -11.175 -180)" d="M 5872.64,3267.75 L 5847.43,3281.91 L 5787.87,3175.92 L 5813.08,3161.76 L 5872.64,3267.75 Z " />
<path stroke="none" fill="#000000" transform="matrix(0.0833333 0 0 0.0833333 -11.175 -180)" d="M 6138.47,3443.74 L 6175.64,3244.46 L 6210.73,3288.31 L 6266.46,3287.75 L 6138.47,3443.74 L 6138.47,3443.74 Z " />
<path stroke="none" fill="#000000" transform="matrix(0.0833333 0 0 0.0833333 -11.175 -180)" d="M 6223.84,3294.4 L 6197.62,3282.21 L 6249.23,3171.19 L 6275.45,3183.38 L 6223.84,3294.4 Z " />
<text x="0" y="0" stroke="none" fill="#800000" transform="matrix(0.0833333 0 0 0.0833333 505.307 149.422)" font-style="normal" font-weight="bold" font-size="200px" font-family="Times New Roman" >
Br</text>
<path stroke="none" fill="#000000" transform="matrix(0.0833333 0 0 0.0833333 -11.175 -180)" d="M 6206.44,3773.77 L 6183.34,3791.17 L 6084.47,3659.95 L 6107.56,3642.55 L 6206.44,3773.77 Z " />
<text x="0" y="0" stroke="none" fill="#800000" transform="matrix(0.0833333 0 0 0.0833333 457.894 149.877)" font-style="normal" font-weight="bold" font-size="200px" font-family="Times New Roman" >
Br</text>
<path stroke="none" fill="#000000" transform="matrix(0.0833333 0 0 0.0833333 -11.175 -180)" d="M 5850.57,3829.8 L 5825.18,3815.96 L 5925.75,3631.45 L 5951.13,3645.29 L 5850.57,3829.8 Z " />
<text x="0" y="0" stroke="none" fill="#0000ff" transform="matrix(0.0833333 0 0 0.0833333 122.839 81.6667)" font-style="normal" font-weight="bold" font-size="200px" font-family="Times New Roman" >
N</text>
<path stroke="none" fill="#000000" transform="matrix(0.0833333 0 0 0.0833333 -11.175 -180)" d="M 1807.47,2812.08 L 1824.16,2812.08 L 1832.51,2826.54 L 1750.55,2968.51 L 1725.51,2954.05 L 1807.47,2812.08 Z " />
<path stroke="none" fill="#000000" transform="matrix(0.0833333 0 0 0.0833333 -11.175 -180)" d="M 1853.38,2877.14 L 1878.42,2891.6 L 1813.14,3004.65 L 1788.1,2990.2 L 1853.38,2877.14 Z " />
<path stroke="none" fill="#000000" transform="matrix(0.0833333 0 0 0.0833333 -11.175 -180)" d="M 2103.82,2797.63 L 2112.16,2812.08 L 2103.82,2826.54 L 1832.51,2826.54 L 1824.16,2812.08 L 1832.51,2797.63 L 2103.82,2797.63 Z " />
<path stroke="none" fill="#000000" transform="matrix(0.0833333 0 0 0.0833333 -11.175 -180)" d="M 1667.64,2569.9 L 1692.68,2555.44 L 1832.51,2797.63 L 1824.16,2812.08 L 1807.47,2812.08 L 1667.64,2569.9 Z " />
<path stroke="none" fill="#000000" transform="matrix(0.0833333 0 0 0.0833333 -11.175 -180)" d="M 2243.64,2555.44 L 2268.68,2569.9 L 2128.86,2812.08 L 2112.16,2812.08 L 2103.82,2797.63 L 2243.64,2555.44 Z " />
<text x="0" y="0" stroke="none" fill="#0000ff" transform="matrix(0.0833333 0 0 0.0833333 170.839 81.6667)" font-style="normal" font-weight="bold" font-size="200px" font-family="Times New Roman" >
N</text>
<path stroke="none" fill="#000000" transform="matrix(0.0833333 0 0 0.0833333 -11.175 -180)" d="M 2210.32,2953.19 L 2185.28,2967.64 L 2103.82,2826.54 L 2112.16,2812.08 L 2128.86,2812.08 L 2210.32,2953.19 Z " />
<path stroke="none" fill="#000000" transform="matrix(0.0833333 0 0 0.0833333 -11.175 -180)" d="M 2147.72,2989.33 L 2122.68,3003.79 L 2057.91,2891.6 L 2082.95,2877.14 L 2147.72,2989.33 Z " />
<path stroke="none" fill="#000000" transform="matrix(0.0833333 0 0 0.0833333 -11.175 -180)" d="M 1049.56,3075.96 L 1041.22,3061.5 L 1049.56,3047.04 L 1579.42,3047.04 L 1579.42,3075.96 L 1049.56,3075.96 Z " />
<path stroke="none" fill="#000000" transform="matrix(0.0833333 0 0 0.0833333 -11.175 -180)" d="M 2890.51,3047.04 L 2898.86,3061.5 L 2890.51,3075.96 L 2354.91,3075.96 L 2354.91,3047.04 L 2890.51,3047.04 Z " />
<path stroke="none" fill="#000000" transform="matrix(0.0833333 0 0 0.0833333 -11.175 -180)" d="M 888.871,2826.54 L 897.218,2812.08 L 913.911,2812.08 L 1049.56,3047.04 L 1041.22,3061.5 L 1024.52,3061.5 L 888.871,2826.54 Z " />
<path stroke="none" fill="#000000" transform="matrix(0.0833333 0 0 0.0833333 -11.175 -180)" d="M 842.965,2891.6 L 868.005,2877.14 L 970.272,3054.27 L 945.232,3068.73 L 842.965,2891.6 Z " />
<path stroke="none" fill="#000000" transform="matrix(0.0833333 0 0 0.0833333 -11.175 -180)" d="M 617.564,2826.54 L 600.871,2797.63 L 888.871,2797.63 L 897.218,2812.08 L 888.871,2826.54 L 617.564,2826.54 Z " />
<path stroke="none" fill="#000000" transform="matrix(0.0833333 0 0 0.0833333 -11.175 -180)" d="M 481.911,3061.5 L 465.218,3061.5 L 456.871,3047.04 L 600.871,2797.63 L 617.564,2826.54 L 481.911,3061.5 Z " />
<path stroke="none" fill="#000000" transform="matrix(0.0833333 0 0 0.0833333 -11.175 -180)" d="M 561.203,3068.73 L 536.163,3054.27 L 638.431,2877.14 L 663.47,2891.6 L 561.203,3068.73 Z " />
<path stroke="none" fill="#000000" transform="matrix(0.0833333 0 0 0.0833333 -11.175 -180)" d="M 617.564,3296.46 L 600.871,3325.37 L 456.871,3075.96 L 465.218,3061.5 L 481.911,3061.5 L 617.564,3296.46 Z " />
<path stroke="none" fill="#000000" transform="matrix(0.0833333 0 0 0.0833333 -11.175 -180)" d="M 888.871,3296.46 L 897.218,3310.92 L 888.871,3325.37 L 600.871,3325.37 L 617.564,3296.46 L 888.871,3296.46 Z " />
<path stroke="none" fill="#000000" transform="matrix(0.0833333 0 0 0.0833333 -11.175 -180)" d="M 855.485,3224.18 L 855.485,3253.09 L 650.951,3253.09 L 650.951,3224.18 L 855.485,3224.18 Z " />
<path stroke="none" fill="#000000" transform="matrix(0.0833333 0 0 0.0833333 -11.175 -180)" d="M 1024.52,3061.5 L 1041.22,3061.5 L 1049.56,3075.96 L 913.911,3310.92 L 897.218,3310.92 L 888.871,3296.46 L 1024.52,3061.5 Z " />
<path stroke="none" fill="#000000" transform="matrix(0.0833333 0 0 0.0833333 -11.175 -180)" d="M 3051.21,3296.46 L 3042.86,3310.92 L 3026.17,3310.92 L 2890.51,3075.96 L 2898.86,3061.5 L 2915.55,3061.5 L 3051.21,3296.46 Z " />
<path stroke="none" fill="#000000" transform="matrix(0.0833333 0 0 0.0833333 -11.175 -180)" d="M 3097.11,3231.4 L 3072.07,3245.86 L 2969.81,3068.73 L 2994.85,3054.27 L 3097.11,3231.4 Z " />
<path stroke="none" fill="#000000" transform="matrix(0.0833333 0 0 0.0833333 -11.175 -180)" d="M 3322.51,3296.46 L 3339.21,3325.37 L 3051.21,3325.37 L 3042.86,3310.92 L 3051.21,3296.46 L 3322.51,3296.46 Z " />
<path stroke="none" fill="#000000" transform="matrix(0.0833333 0 0 0.0833333 -11.175 -180)" d="M 3458.17,3061.5 L 3474.86,3061.5 L 3483.21,3075.96 L 3339.21,3325.37 L 3322.51,3296.46 L 3458.17,3061.5 Z " />
<path stroke="none" fill="#000000" transform="matrix(0.0833333 0 0 0.0833333 -11.175 -180)" d="M 3378.88,3054.27 L 3403.92,3068.73 L 3301.65,3245.86 L 3276.61,3231.4 L 3378.88,3054.27 Z " />
<path stroke="none" fill="#000000" transform="matrix(0.0833333 0 0 0.0833333 -11.175 -180)" d="M 3322.51,2826.54 L 3339.21,2797.63 L 3483.21,3047.04 L 3474.86,3061.5 L 3458.17,3061.5 L 3322.51,2826.54 Z " />
<path stroke="none" fill="#000000" transform="matrix(0.0833333 0 0 0.0833333 -11.175 -180)" d="M 3051.21,2826.54 L 3042.86,2812.08 L 3051.21,2797.63 L 3339.21,2797.63 L 3322.51,2826.54 L 3051.21,2826.54 Z " />
<path stroke="none" fill="#000000" transform="matrix(0.0833333 0 0 0.0833333 -11.175 -180)" d="M 3084.59,2898.82 L 3084.59,2869.91 L 3289.13,2869.91 L 3289.13,2898.82 L 3084.59,2898.82 Z " />
<path stroke="none" fill="#000000" transform="matrix(0.0833333 0 0 0.0833333 -11.175 -180)" d="M 2915.55,3061.5 L 2898.86,3061.5 L 2890.51,3047.04 L 3026.17,2812.08 L 3042.86,2812.08 L 3051.21,2826.54 L 2915.55,3061.5 Z " />
<path stroke="none" fill="#000000" transform="matrix(0.0833333 0 0 0.0833333 -11.175 -180)" d="M 1024.52,2562.67 L 1041.22,2562.67 L 1049.56,2577.13 L 913.911,2812.08 L 897.218,2812.08 L 888.871,2797.63 L 1024.52,2562.67 Z " />
<text x="0" y="0" stroke="none" fill="#000000" transform="matrix(0.0833333 0 0 0.0833333 94.5098 40.0974)" font-style="normal" font-weight="bold" font-size="200px" font-family="Times New Roman" >
Ph</text>
<path stroke="none" fill="#000000" transform="matrix(0.0833333 0 0 0.0833333 -11.175 -180)" d="M 1242.47,2548.21 L 1242.47,2577.13 L 1049.56,2577.13 L 1041.22,2562.67 L 1049.56,2548.21 L 1242.47,2548.21 Z " />
<text x="0" y="0" stroke="none" fill="#000000" transform="matrix(0.0833333 0 0 0.0833333 48.7683 19.3128)" font-style="normal" font-weight="bold" font-size="200px" font-family="Times New Roman" >
Ph</text>
<path stroke="none" fill="#000000" transform="matrix(0.0833333 0 0 0.0833333 -11.175 -180)" d="M 944.768,2424.53 L 969.808,2410.07 L 1049.56,2548.21 L 1041.22,2562.67 L 1024.52,2562.67 L 944.768,2424.53 Z " />
<path stroke="none" fill="#000000" transform="matrix(0.0833333 0 0 0.0833333 -11.175 -180)" d="M 2890.51,2577.13 L 2898.86,2562.67 L 2915.55,2562.67 L 3051.21,2797.63 L 3042.86,2812.08 L 3026.17,2812.08 L 2890.51,2577.13 Z " />
<text x="0" y="0" stroke="none" fill="#000000" transform="matrix(0.0833333 0 0 0.0833333 237.313 19.3128)" font-style="normal" font-weight="bold" font-size="200px" font-family="Times New Roman" >
Ph</text>
<path stroke="none" fill="#000000" transform="matrix(0.0833333 0 0 0.0833333 -11.175 -180)" d="M 2968.8,2412.62 L 2993.84,2427.08 L 2915.55,2562.67 L 2898.86,2562.67 L 2890.51,2548.21 L 2968.8,2412.62 Z " />
<text x="0" y="0" stroke="none" fill="#000000" transform="matrix(0.0833333 0 0 0.0833333 191.572 40.0974)" font-style="normal" font-weight="bold" font-size="200px" font-family="Times New Roman" >
Ph</text>
<path stroke="none" fill="#000000" transform="matrix(0.0833333 0 0 0.0833333 -11.175 -180)" d="M 2691.71,2577.13 L 2691.71,2548.21 L 2890.51,2548.21 L 2898.86,2562.67 L 2890.51,2577.13 L 2691.71,2577.13 Z " />
<path stroke="none" fill="#000000" transform="matrix(0.0833333 0 0 0.0833333 -11.175 -180)" d="M 2915.55,3560.33 L 2898.86,3560.33 L 2890.51,3545.87 L 3026.17,3310.92 L 3042.86,3310.92 L 3051.21,3325.37 L 2915.55,3560.33 Z " />
<text x="0" y="0" stroke="none" fill="#000000" transform="matrix(0.0833333 0 0 0.0833333 191.572 123.236)" font-style="normal" font-weight="bold" font-size="200px" font-family="Times New Roman" >
Ph</text>
<path stroke="none" fill="#000000" transform="matrix(0.0833333 0 0 0.0833333 -11.175 -180)" d="M 2691.71,3574.79 L 2691.71,3545.87 L 2890.51,3545.87 L 2898.86,3560.33 L 2890.51,3574.79 L 2691.71,3574.79 Z " />
<text x="0" y="0" stroke="none" fill="#000000" transform="matrix(0.0833333 0 0 0.0833333 237.313 144.02)" font-style="normal" font-weight="bold" font-size="200px" font-family="Times New Roman" >
Ph</text>
<path stroke="none" fill="#000000" transform="matrix(0.0833333 0 0 0.0833333 -11.175 -180)" d="M 3000.52,3707.5 L 2975.48,3721.95 L 2890.51,3574.79 L 2898.86,3560.33 L 2915.55,3560.33 L 3000.52,3707.5 Z " />
<path stroke="none" fill="#000000" transform="matrix(0.0833333 0 0 0.0833333 -11.175 -180)" d="M 1049.56,3545.87 L 1041.22,3560.33 L 1024.52,3560.33 L 888.871,3325.37 L 897.218,3310.92 L 913.911,3310.92 L 1049.56,3545.87 Z " />
<text x="0" y="0" stroke="none" fill="#000000" transform="matrix(0.0833333 0 0 0.0833333 94.5098 123.236)" font-style="normal" font-weight="bold" font-size="200px" font-family="Times New Roman" >
Ph</text>
<path stroke="none" fill="#000000" transform="matrix(0.0833333 0 0 0.0833333 -11.175 -180)" d="M 1242.47,3545.87 L 1242.47,3574.79 L 1049.56,3574.79 L 1041.22,3560.33 L 1049.56,3545.87 L 1242.47,3545.87 Z " />
<text x="0" y="0" stroke="none" fill="#000000" transform="matrix(0.0833333 0 0 0.0833333 48.7683 144.02)" font-style="normal" font-weight="bold" font-size="200px" font-family="Times New Roman" >
Ph</text>
<path stroke="none" fill="#000000" transform="matrix(0.0833333 0 0 0.0833333 -11.175 -180)" d="M 947.874,3750.92 L 922.834,3736.46 L 1024.52,3560.33 L 1041.22,3560.33 L 1049.56,3574.79 L 947.874,3750.92 Z " />
<text x="0" y="0" stroke="none" fill="#008000" transform="matrix(0.0833333 0 0 0.0833333 144.526 120.264)" font-style="normal" font-weight="bold" font-size="200px" font-family="Times New Roman" >
Ni</text>
<path stroke="none" fill="#000000" transform="matrix(0.0833333 0 0 0.0833333 -11.175 -180)" d="M 1883.42,3423.22 L 1744.73,3278.46 L 1800.03,3274.83 L 1831.52,3228.81 L 1883.42,3423.22 L 1883.42,3423.22 Z " />
<path stroke="none" fill="#000000" transform="matrix(0.0833333 0 0 0.0833333 -11.175 -180)" d="M 1812.64,3267.75 L 1787.43,3281.91 L 1727.87,3175.92 L 1753.08,3161.76 L 1812.64,3267.75 Z " />
<path stroke="none" fill="#000000" transform="matrix(0.0833333 0 0 0.0833333 -11.175 -180)" d="M 2078.47,3443.74 L 2115.64,3244.46 L 2150.73,3288.31 L 2206.46,3287.75 L 2078.47,3443.74 L 2078.47,3443.74 Z " />
<path stroke="none" fill="#000000" transform="matrix(0.0833333 0 0 0.0833333 -11.175 -180)" d="M 2163.84,3294.4 L 2137.62,3282.21 L 2189.23,3171.19 L 2215.45,3183.38 L 2163.84,3294.4 Z " />
<text x="0" y="0" stroke="none" fill="#800000" transform="matrix(0.0833333 0 0 0.0833333 166.973 149.422)" font-style="normal" font-weight="bold" font-size="200px" font-family="Times New Roman" >
Br</text>
<path stroke="none" fill="#000000" transform="matrix(0.0833333 0 0 0.0833333 -11.175 -180)" d="M 2146.43,3773.77 L 2123.34,3791.17 L 2024.47,3659.95 L 2047.56,3642.55 L 2146.43,3773.77 Z " />
<text x="0" y="0" stroke="none" fill="#800000" transform="matrix(0.0833333 0 0 0.0833333 119.561 149.877)" font-style="normal" font-weight="bold" font-size="200px" font-family="Times New Roman" >
Br</text>
<path stroke="none" fill="#000000" transform="matrix(0.0833333 0 0 0.0833333 -11.175 -180)" d="M 1790.57,3829.8 L 1765.18,3815.96 L 1865.75,3631.45 L 1891.13,3645.29 L 1790.57,3829.8 Z " />
<path stroke="none" fill="#000000" transform="matrix(0.0833333 0 0 0.0833333 -11.175 -180)" d="M 3762.86,3047.04 L 3762.86,3075.96 L 3483.21,3075.96 L 3474.86,3061.5 L 3483.21,3047.04 L 3762.86,3047.04 Z " />
<path stroke="none" fill="#000000" transform="matrix(0.0833333 0 0 0.0833333 -11.175 -180)" d="M 177.218,3075.96 L 177.218,3047.04 L 456.871,3047.04 L 465.218,3061.5 L 456.871,3075.96 L 177.218,3075.96 Z " />
<text x="0" y="0" stroke="none" fill="#000000" transform="matrix(0.0833333 0 0 0.0833333 144.512 173.75)" font-style="normal" font-weight="bold" font-size="240px" font-family="Times New Roman" >
1</text>
<text x="0" y="0" stroke="none" fill="#000000" transform="matrix(0.0833333 0 0 0.0833333 467.637 173.75)" font-style="normal" font-weight="bold" font-size="240px" font-family="Times New Roman" >
2</text>
<text x="0" y="0" stroke="none" fill="#000000" transform="matrix(0.0833333 0 0 0.0833333 736.387 173.75)" font-style="normal" font-weight="bold" font-size="240px" font-family="Times New Roman" >
3</text>
<path stroke="none" fill="#000000" transform="matrix(0.0833333 0 0 0.0833333 -11.175 -180)" d="M 4235.97,3075.96 L 4235.97,3047.04 L 4515.62,3047.04 L 4523.97,3061.5 L 4515.62,3075.96 L 4235.97,3075.96 Z " />
</svg>
