<?xml version="1.0" standalone="no" ?>
<!DOCTYPE svg PUBLIC "-//W3C//DTD SVG 1.1//EN" "http://www.w3.org/Graphics/SVG/1.1/DTD/svg11.dtd">
<svg width="440px" height="139px" viewBox="0 0 440 139" style="background-color: #ffffff00" xmlns="http://www.w3.org/2000/svg" xmlns:xlink="http://www.w3.org/1999/xlink" version="1.1" >
<text x="0" y="0" stroke="none" fill="#000000" transform="matrix(0.0666667 0 0 0.0666667 333.642 45.9639)" font-style="normal" font-weight="normal" font-size="200px" font-family="Arial" >
Rh</text>
<path stroke="none" fill="#000000" transform="matrix(0.0666667 0 0 0.0666667 -151.534 -107)" d="M 7396.47,1865.86 L 7408.47,1865.76 L 7408.98,1925.55 L 7403.58,1927.04 L 7396.98,1925.46 L 7396.47,1865.86 L 7396.47,1865.86 Z " />
<path stroke="none" fill="#000000" transform="matrix(0.0666667 0 0 0.0666667 -151.534 -107)" d="M 7410.66,2121.58 L 7398.66,2121.68 L 7398.1,2056.38 L 7405.77,2053 L 7410.09,2054.72 L 7410.66,2121.58 L 7410.66,2121.58 Z " />
<path stroke="none" fill="#000000" transform="matrix(0.0666667 0 0 0.0666667 -151.534 -107)" d="M 7159.95,1903.96 L 7140.98,1910.58 L 7241.93,1761.37 L 7248.34,1773.32 L 7159.95,1903.96 Z " />
<path stroke="none" fill="#000000" transform="matrix(0.0666667 0 0 0.0666667 -151.534 -107)" d="M 7404.1,1957.77 L 7405.22,2021.11 L 7140.98,1910.58 L 7159.95,1903.96 L 7404.1,1957.77 Z " />
<path stroke="none" fill="#000000" transform="matrix(0.0666667 0 0 0.0666667 -151.534 -107)" d="M 7644.49,1895.92 L 7663.65,1901.88 L 7405.22,2021.11 L 7404.1,1957.77 L 7644.49,1895.92 Z " />
<path stroke="none" fill="#000000" transform="matrix(0.0666667 0 0 0.0666667 -151.534 -107)" d="M 7553.62,1770.77 L 7559.7,1758.71 L 7663.65,1901.88 L 7644.49,1895.92 L 7553.62,1770.77 Z " />
<path stroke="none" fill="#000000" transform="matrix(0.0666667 0 0 0.0666667 -151.534 -107)" d="M 7559.7,1758.71 L 7553.62,1770.77 L 7248.34,1773.32 L 7241.93,1761.37 L 7559.7,1758.71 Z " />
<path stroke="#000000" stroke-width="12" fill="none" transform="matrix(0.0666667 0 0 0.0666667 -151.534 -107)" d="M 7403.58,1918.94 C 7494.4,1917.56 7567.03,1886.65 7566.48,1850.47 C 7565.93,1814.28 7492.39,1785.59 7401.57,1786.97 C 7310.75,1788.35 7238.12,1819.26 7238.67,1855.45 C 7239.22,1891.63 7312.75,1920.32 7403.58,1918.94 " />
<path stroke="none" fill="#000000" transform="matrix(0.0666667 0 0 0.0666667 -151.534 -107)" d="M 8384.26,2634.56 L 8388,2628.98 L 8395.94,2630.85 L 8475.47,2772.08 L 8471.7,2777.61 L 8463.67,2775.58 L 8384.26,2634.56 Z " />
<path stroke="none" fill="#000000" transform="matrix(0.0666667 0 0 0.0666667 -151.534 -107)" d="M 8122.11,2602.27 L 8120.72,2596.05 L 8124.45,2590.47 L 8386.5,2622.75 L 8388,2628.98 L 8384.26,2634.56 L 8122.11,2602.27 Z " />
<path stroke="none" fill="#000000" transform="matrix(0.0666667 0 0 0.0666667 -151.534 -107)" d="M 7945.17,2713.79 L 7937.14,2711.76 L 7935.41,2705.76 L 8112.67,2594.03 L 8120.72,2596.05 L 8122.11,2602.27 L 7945.17,2713.79 Z " />
<path stroke="none" fill="#000000" transform="matrix(0.0666667 0 0 0.0666667 -151.534 -107)" d="M 8024.58,2854.81 L 8020.84,2860.39 L 8011.95,2856.82 L 7933.63,2717.75 L 7937.14,2711.76 L 7945.17,2713.79 L 8024.58,2854.81 Z " />
<path stroke="none" fill="#000000" transform="matrix(0.0666667 0 0 0.0666667 -151.534 -107)" d="M 8286.73,2887.1 L 8288.12,2893.32 L 8284.33,2898.9 L 8021.94,2866.57 L 8020.84,2860.39 L 8024.58,2854.81 L 8286.73,2887.1 Z " />
<path stroke="none" fill="#000000" transform="matrix(0.0666667 0 0 0.0666667 -151.534 -107)" d="M 7667.18,2717.29 L 7663.71,2711.28 L 7665.47,2705.29 L 7935.41,2705.76 L 7937.14,2711.76 L 7933.63,2717.75 L 7667.18,2717.29 Z " />
<path stroke="none" fill="#000000" transform="matrix(0.0666667 0 0 0.0666667 -151.534 -107)" d="M 7587.37,2856.1 L 7578.43,2859.62 L 7574.73,2854.02 L 7655.66,2713.26 L 7663.71,2711.28 L 7667.18,2717.29 L 7587.37,2856.1 Z " />
<path stroke="none" fill="#000000" transform="matrix(0.0666667 0 0 0.0666667 -151.534 -107)" d="M 7799.21,2920.59 L 7799.14,2951.78 L 7830.45,3002.63 L 7577.3,2865.8 L 7578.43,2859.62 L 7587.37,2856.1 L 7799.21,2920.59 Z " />
<path stroke="none" fill="#000000" transform="matrix(0.0666667 0 0 0.0666667 -151.534 -107)" d="M 8011.95,2856.82 L 8020.84,2860.39 L 8021.94,2866.57 L 7832.63,2967.73 L 7799.14,2951.78 L 7799.21,2920.59 L 8011.95,2856.82 Z " />
<path stroke="none" fill="#000000" transform="matrix(0.0666667 0 0 0.0666667 -151.534 -107)" d="M 7479.96,2601.15 L 7481.38,2594.94 L 7489.31,2592.89 L 7665.47,2705.29 L 7663.71,2711.28 L 7655.66,2713.26 L 7479.96,2601.15 Z " />
<path stroke="none" fill="#000000" transform="matrix(0.0666667 0 0 0.0666667 -151.534 -107)" d="M 7217.45,2632.53 L 7213.75,2626.93 L 7215.22,2620.72 L 7371.86,2601.99 L 7372,2614.06 L 7217.45,2632.53 L 7217.45,2632.53 Z " />
<path stroke="none" fill="#000000" transform="matrix(0.0666667 0 0 0.0666667 -151.534 -107)" d="M 7477.58,2589.35 L 7481.38,2594.94 L 7479.96,2601.15 L 7447.9,2604.98 L 7447.76,2592.92 L 7477.58,2589.35 L 7477.58,2589.35 Z " />
<path stroke="none" fill="#000000" transform="matrix(0.0666667 0 0 0.0666667 -151.534 -107)" d="M 7136.52,2773.3 L 7128.46,2775.27 L 7124.7,2769.78 L 7205.74,2628.83 L 7213.75,2626.93 L 7217.45,2632.53 L 7136.52,2773.3 Z " />
<path stroke="none" fill="#000000" transform="matrix(0.0666667 0 0 0.0666667 -151.534 -107)" d="M 7574.73,2854.02 L 7578.43,2859.62 L 7577.3,2865.8 L 7314.69,2897.19 L 7310.8,2891.62 L 7312.22,2885.4 L 7574.73,2854.02 Z " />
<path stroke="none" fill="#ffffff" transform="matrix(0.0666667 0 0 0.0666667 -151.534 -107)" d="M 7253.99,2734.88 A 151.73,89.4601 0 1 0 7557.45,2734.88A 151.73,89.4601 0 1 0 7253.99,2734.88Z " />
<path stroke="#000000" stroke-width="12" fill="none" transform="matrix(0.0666667 0 0 0.0666667 -151.534 -107)" d="M 7253.99,2734.88 A 151.73,89.4601 0 1 0 7557.45,2734.88A 151.73,89.4601 0 1 0 7253.99,2734.88Z " />
<path stroke="none" fill="#ffffff" transform="matrix(0.0666667 0 0 0.0666667 -151.534 -107)" d="M 8051.43,2738.65 A 151.73,89.4598 0 1 0 8354.89,2738.65A 151.73,89.4598 0 1 0 8051.43,2738.65Z " />
<path stroke="#000000" stroke-width="12" fill="none" transform="matrix(0.0666667 0 0 0.0666667 -151.534 -107)" d="M 8051.43,2738.65 A 151.73,89.4598 0 1 0 8354.89,2738.65A 151.73,89.4598 0 1 0 8051.43,2738.65Z " />
<path stroke="none" fill="#000000" transform="matrix(0.0666667 0 0 0.0666667 -151.534 -107)" d="M 7784.77,1676.87 L 7772.77,1688.87 L 7574.87,1688.87 L 7574.87,1676.87 L 7784.77,1676.87 Z " />
<path stroke="none" fill="#000000" transform="matrix(0.0666667 0 0 0.0666667 -151.534 -107)" d="M 7784.77,1886.77 L 7772.77,1886.77 L 7772.77,1688.87 L 7784.77,1676.87 L 7784.77,1886.77 Z " />
<text x="0" y="0" stroke="none" fill="#000000" transform="matrix(0.0666667 0 0 0.0666667 367.735 15.3333)" font-style="normal" font-weight="normal" font-size="200px" font-family="Arial" >
(SbF</text>
<text x="0" y="0" stroke="none" fill="#000000" transform="matrix(0.0666667 0 0 0.0666667 396.655 18.2667)" font-style="normal" font-weight="normal" font-size="150px" font-family="Arial" >
6</text>
<text x="0" y="0" stroke="none" fill="#000000" transform="matrix(0.0666667 0 0 0.0666667 402.216 15.3333)" font-style="normal" font-weight="normal" font-size="200px" font-family="Arial" >
)</text>
<text x="0" y="0" stroke="none" fill="#000000" transform="matrix(0.0666667 0 0 0.0666667 406.683 18.2667)" font-style="normal" font-weight="normal" font-size="150px" font-family="Arial" >
2</text>
<text x="0" y="0" stroke="none" fill="#000000" transform="matrix(0.0666667 0 0 0.0666667 352.213 106.672)" font-style="normal" font-weight="normal" font-size="200px" font-family="Arial" >
H</text>
<path stroke="none" fill="#000000" transform="matrix(0.0666667 0 0 0.0666667 -151.534 -107)" d="M 7730.72,3064.91 L 7687.77,3023.02 L 7698.77,3017 L 7736.47,3053.76 L 7730.72,3064.91 Z " />
<path stroke="none" fill="#000000" transform="matrix(0.0666667 0 0 0.0666667 -151.534 -107)" d="M 7762.57,3003.13 L 7748.73,2989.63 L 7759.73,2983.6 L 7768.32,2991.98 L 7762.57,3003.13 Z " />
<text x="0" y="0" stroke="none" fill="#000000" transform="matrix(0.0666667 0 0 0.0666667 376.459 107.253)" font-style="normal" font-weight="normal" font-size="200px" font-family="Arial" >
H</text>
<path stroke="none" fill="#000000" transform="matrix(0.0666667 0 0 0.0666667 -151.534 -107)" d="M 7929.31,3034.57 L 7887.87,3077.97 L 7830.45,3002.63 L 7799.14,2951.78 L 7832.63,2967.73 L 7929.31,3034.57 Z " />
<path stroke="none" fill="#000000" transform="matrix(0.0666667 0 0 0.0666667 -151.534 -107)" d="M 6788.84,2961.75 L 6772.72,2965.69 L 6861.98,2810.45 L 6869.52,2821.42 L 6788.84,2961.75 Z " />
<path stroke="none" fill="#000000" transform="matrix(0.0666667 0 0 0.0666667 -151.534 -107)" d="M 6969.19,3050.53 L 6955.17,3112.76 L 6772.72,2965.69 L 6788.84,2961.75 L 6969.19,3050.53 Z " />
<path stroke="none" fill="#000000" transform="matrix(0.0666667 0 0 0.0666667 -151.534 -107)" d="M 7226.69,3042.75 L 7234.48,3053.87 L 6955.17,3112.76 L 6969.19,3050.53 L 7226.69,3042.75 Z " />
<path stroke="none" fill="#000000" transform="matrix(0.0666667 0 0 0.0666667 -151.534 -107)" d="M 7302.98,2893.74 L 7310.8,2891.62 L 7314.69,2897.19 L 7234.48,3053.87 L 7226.69,3042.75 L 7302.98,2893.74 Z " />
<path stroke="none" fill="#000000" transform="matrix(0.0666667 0 0 0.0666667 -151.534 -107)" d="M 7124.7,2769.78 L 7128.46,2775.27 L 7127.14,2781.55 L 6869.52,2821.42 L 6861.98,2810.45 L 7124.7,2769.78 Z " />
<path stroke="none" fill="#000000" transform="matrix(0.0666667 0 0 0.0666667 -151.534 -107)" d="M 7312.22,2885.4 L 7310.8,2891.62 L 7302.98,2893.74 L 7127.14,2781.55 L 7128.46,2775.27 L 7136.52,2773.3 L 7312.22,2885.4 Z " />
<path stroke="none" fill="#000000" transform="matrix(0.0666667 0 0 0.0666667 -151.534 -107)" d="M 8735.23,2820.51 L 8742.77,2809.45 L 8830.42,2965.09 L 8814.36,2961.03 L 8735.23,2820.51 Z " />
<path stroke="none" fill="#000000" transform="matrix(0.0666667 0 0 0.0666667 -151.534 -107)" d="M 8632.86,3049.21 L 8646.59,3111.48 L 8367.88,3051.65 L 8375.48,3040.53 L 8632.86,3049.21 Z " />
<path stroke="none" fill="#000000" transform="matrix(0.0666667 0 0 0.0666667 -151.534 -107)" d="M 8814.36,2961.03 L 8830.42,2965.09 L 8646.59,3111.48 L 8632.86,3049.21 L 8814.36,2961.03 Z " />
<path stroke="none" fill="#000000" transform="matrix(0.0666667 0 0 0.0666667 -151.534 -107)" d="M 8284.33,2898.9 L 8288.12,2893.32 L 8296.09,2895.39 L 8375.48,3040.53 L 8367.88,3051.65 L 8284.33,2898.9 Z " />
<path stroke="none" fill="#000000" transform="matrix(0.0666667 0 0 0.0666667 -151.534 -107)" d="M 8742.77,2809.45 L 8735.23,2820.51 L 8473.04,2783.86 L 8471.7,2777.61 L 8475.47,2772.08 L 8742.77,2809.45 Z " />
<path stroke="none" fill="#000000" transform="matrix(0.0666667 0 0 0.0666667 -151.534 -107)" d="M 8463.67,2775.58 L 8471.7,2777.61 L 8473.04,2783.86 L 8296.09,2895.39 L 8288.12,2893.32 L 8286.73,2887.1 L 8463.67,2775.58 Z " />
<path stroke="none" fill="#000000" transform="matrix(0.0666667 0 0 0.0666667 -151.534 -107)" d="M 8480.26,2364.56 L 8487.74,2353.39 L 8575.64,2509.49 L 8559.76,2505.74 L 8480.26,2364.56 Z " />
<path stroke="none" fill="#000000" transform="matrix(0.0666667 0 0 0.0666667 -151.534 -107)" d="M 8218.11,2332.27 L 8215.33,2319.84 L 8487.74,2353.39 L 8480.26,2364.56 L 8218.11,2332.27 Z " />
<path stroke="none" fill="#000000" transform="matrix(0.0666667 0 0 0.0666667 -151.534 -107)" d="M 8041.19,2443.78 L 8025.09,2439.74 L 8215.33,2319.84 L 8218.11,2332.27 L 8041.19,2443.78 Z " />
<path stroke="none" fill="#000000" transform="matrix(0.0666667 0 0 0.0666667 -151.534 -107)" d="M 8124.45,2590.47 L 8120.72,2596.05 L 8112.67,2594.03 L 8025.09,2439.74 L 8041.19,2443.78 L 8124.45,2590.47 Z " />
<path stroke="none" fill="#000000" transform="matrix(0.0666667 0 0 0.0666667 -151.534 -107)" d="M 8559.76,2505.74 L 8575.64,2509.49 L 8395.94,2630.85 L 8388,2628.98 L 8386.5,2622.75 L 8559.76,2505.74 Z " />
<path stroke="none" fill="#000000" transform="matrix(0.0666667 0 0 0.0666667 -151.534 -107)" d="M 7572.65,2439.23 L 7556.78,2443.33 L 7445.25,2372.17 L 7445.08,2357.83 L 7572.65,2439.23 L 7572.65,2439.23 Z " />
<path stroke="none" fill="#000000" transform="matrix(0.0666667 0 0 0.0666667 -151.534 -107)" d="M 7118.45,2362.53 L 7111.05,2351.33 L 7368.65,2320.54 L 7368.79,2332.61 L 7118.45,2362.53 L 7118.45,2362.53 Z " />
<path stroke="none" fill="#000000" transform="matrix(0.0666667 0 0 0.0666667 -151.534 -107)" d="M 7037.48,2503.37 L 7021.45,2507.17 L 7111.05,2351.33 L 7118.45,2362.53 L 7037.48,2503.37 Z " />
<path stroke="none" fill="#000000" transform="matrix(0.0666667 0 0 0.0666667 -151.534 -107)" d="M 7021.45,2507.17 L 7037.48,2503.37 L 7215.22,2620.72 L 7213.75,2626.93 L 7205.74,2628.83 L 7021.45,2507.17 Z " />
<path stroke="none" fill="#000000" transform="matrix(0.0666667 0 0 0.0666667 -151.534 -107)" d="M 7556.78,2443.33 L 7572.65,2439.23 L 7489.31,2592.89 L 7481.38,2594.94 L 7477.58,2589.35 L 7556.78,2443.33 Z " />
<path stroke="none" fill="#000000" transform="matrix(0.0666667 0 0 0.0666667 -151.534 -107)" d="M 7417.42,2738.42 L 7405.42,2738.56 L 7400.71,2325.68 L 7412.71,2325.54 L 7417.42,2738.42 Z " />
<path stroke="none" fill="#000000" transform="matrix(0.0666667 0 0 0.0666667 -151.534 -107)" d="M 3592.76,2383.21 L 3597.39,2378.06 L 3604.17,2379.5 L 3668.78,2578.34 L 3664.14,2583.49 L 3657.36,2582.05 L 3592.76,2383.21 Z " />
<path stroke="none" fill="#000000" transform="matrix(0.0666667 0 0 0.0666667 -151.534 -107)" d="M 3388.25,2339.74 L 3386.11,2333.15 L 3390.75,2328.01 L 3595.25,2371.47 L 3597.39,2378.06 L 3592.76,2383.21 L 3388.25,2339.74 Z " />
<path stroke="none" fill="#000000" transform="matrix(0.0666667 0 0 0.0666667 -151.534 -107)" d="M 3398.74,2381.72 L 3401.23,2369.98 L 3568.6,2405.56 L 3566.1,2417.3 L 3398.74,2381.72 Z " />
<path stroke="none" fill="#000000" transform="matrix(0.0666667 0 0 0.0666667 -151.534 -107)" d="M 3248.36,2495.11 L 3241.58,2493.67 L 3238.91,2487.67 L 3379.34,2331.71 L 3386.11,2333.15 L 3388.25,2339.74 L 3248.36,2495.11 Z " />
<path stroke="none" fill="#000000" transform="matrix(0.0666667 0 0 0.0666667 -151.534 -107)" d="M 3312.96,2693.95 L 3308.33,2699.1 L 3301.27,2696.81 L 3237.22,2499.67 L 3241.58,2493.67 L 3248.36,2495.11 L 3312.96,2693.95 Z " />
<path stroke="none" fill="#000000" transform="matrix(0.0666667 0 0 0.0666667 -151.534 -107)" d="M 3344.07,2663.88 L 3332.66,2667.59 L 3279.79,2504.86 L 3291.2,2501.15 L 3344.07,2663.88 Z " />
<path stroke="none" fill="#000000" transform="matrix(0.0666667 0 0 0.0666667 -151.534 -107)" d="M 3517.47,2737.42 L 3519.61,2744.01 L 3514.97,2749.16 L 3309.69,2705.53 L 3308.33,2699.1 L 3312.96,2693.95 L 3517.47,2737.42 Z " />
<path stroke="none" fill="#000000" transform="matrix(0.0666667 0 0 0.0666667 -151.534 -107)" d="M 3029.94,2499.67 L 3025.58,2493.67 L 3028.25,2487.67 L 3238.91,2487.67 L 3241.58,2493.67 L 3237.22,2499.67 L 3029.94,2499.67 Z " />
<path stroke="none" fill="#000000" transform="matrix(0.0666667 0 0 0.0666667 -151.534 -107)" d="M 2965.89,2696.81 L 2958.83,2699.1 L 2954.2,2693.95 L 3018.8,2495.11 L 3025.58,2493.67 L 3029.94,2499.67 L 2965.89,2696.81 Z " />
<path stroke="none" fill="#000000" transform="matrix(0.0666667 0 0 0.0666667 -151.534 -107)" d="M 2934.5,2667.59 L 2923.09,2663.88 L 2975.96,2501.15 L 2987.37,2504.86 L 2934.5,2667.59 Z " />
<path stroke="none" fill="#000000" transform="matrix(0.0666667 0 0 0.0666667 -151.534 -107)" d="M 3133.58,2818.65 L 3133.58,2826.06 L 3130.05,2830.92 L 2957.47,2705.53 L 2958.83,2699.1 L 2965.89,2696.81 L 3133.58,2818.65 Z " />
<path stroke="none" fill="#000000" transform="matrix(0.0666667 0 0 0.0666667 -151.534 -107)" d="M 3301.27,2696.81 L 3308.33,2699.1 L 3309.69,2705.53 L 3143.51,2826.26 L 3133.58,2826.06 L 3133.58,2818.65 L 3301.27,2696.81 Z " />
<path stroke="none" fill="#000000" transform="matrix(0.0666667 0 0 0.0666667 -151.534 -107)" d="M 2878.91,2339.74 L 2881.05,2333.15 L 2887.82,2331.71 L 3028.25,2487.67 L 3025.58,2493.67 L 3018.8,2495.11 L 2878.91,2339.74 Z " />
<path stroke="none" fill="#000000" transform="matrix(0.0666667 0 0 0.0666667 -151.534 -107)" d="M 2674.4,2383.21 L 2669.77,2378.06 L 2671.91,2371.47 L 2876.41,2328.01 L 2881.05,2333.15 L 2878.91,2339.74 L 2674.4,2383.21 Z " />
<path stroke="none" fill="#000000" transform="matrix(0.0666667 0 0 0.0666667 -151.534 -107)" d="M 2701.06,2417.3 L 2698.56,2405.56 L 2865.93,2369.98 L 2868.42,2381.72 L 2701.06,2417.3 Z " />
<path stroke="none" fill="#000000" transform="matrix(0.0666667 0 0 0.0666667 -151.534 -107)" d="M 2609.8,2582.05 L 2603.02,2583.49 L 2598.38,2578.34 L 2662.99,2379.5 L 2669.77,2378.06 L 2674.4,2383.21 L 2609.8,2582.05 Z " />
<path stroke="none" fill="#000000" transform="matrix(0.0666667 0 0 0.0666667 -151.534 -107)" d="M 2954.2,2693.95 L 2958.83,2699.1 L 2957.47,2705.53 L 2752.19,2749.16 L 2747.55,2744.01 L 2749.69,2737.42 L 2954.2,2693.95 Z " />
<text x="0" y="0" stroke="none" fill="#000000" transform="matrix(0.0666667 0 0 0.0666667 38.9953 100.181)" font-style="normal" font-weight="normal" font-size="200px" font-family="Arial" >
H</text>
<path stroke="none" fill="#000000" transform="matrix(0.0666667 0 0 0.0666667 -151.534 -107)" d="M 3033.19,2968.88 L 2990.76,2926.45 L 3000.92,2919.64 L 3040,2958.72 L 3033.19,2968.88 Z " />
<path stroke="none" fill="#000000" transform="matrix(0.0666667 0 0 0.0666667 -151.534 -107)" d="M 3064.32,2922.45 L 3037.19,2895.32 L 3047.35,2888.51 L 3071.13,2912.29 L 3064.32,2922.45 Z " />
<path stroke="none" fill="#000000" transform="matrix(0.0666667 0 0 0.0666667 -151.534 -107)" d="M 3095.45,2876.02 L 3083.62,2864.19 L 3093.78,2857.38 L 3102.27,2865.86 L 3095.45,2876.02 Z " />
<text x="0" y="0" stroke="none" fill="#000000" transform="matrix(0.0666667 0 0 0.0666667 66.9717 101.075)" font-style="normal" font-weight="normal" font-size="200px" font-family="Arial" >
H</text>
<path stroke="none" fill="#000000" transform="matrix(0.0666667 0 0 0.0666667 -151.534 -107)" d="M 3289.49,2940.21 L 3246.96,2982.53 L 3129.33,2830.3 L 3133.58,2826.06 L 3143.51,2826.26 L 3289.49,2940.21 Z " />
<path stroke="none" fill="#000000" transform="matrix(0.0666667 0 0 0.0666667 -151.534 -107)" d="M 2331.77,2832.39 L 2318.22,2835.27 L 2387.1,2623.25 L 2396.38,2633.55 L 2331.77,2832.39 Z " />
<path stroke="none" fill="#000000" transform="matrix(0.0666667 0 0 0.0666667 -151.534 -107)" d="M 2471.67,2987.76 L 2467.38,3000.94 L 2318.22,2835.27 L 2331.77,2832.39 L 2471.67,2987.76 Z " />
<path stroke="none" fill="#000000" transform="matrix(0.0666667 0 0 0.0666667 -151.534 -107)" d="M 2676.17,2944.29 L 2685.44,2954.59 L 2467.38,3000.94 L 2471.67,2987.76 L 2676.17,2944.29 Z " />
<path stroke="none" fill="#000000" transform="matrix(0.0666667 0 0 0.0666667 -151.534 -107)" d="M 2740.78,2745.45 L 2747.55,2744.01 L 2752.19,2749.16 L 2685.44,2954.59 L 2676.17,2944.29 L 2740.78,2745.45 Z " />
<path stroke="none" fill="#000000" transform="matrix(0.0666667 0 0 0.0666667 -151.534 -107)" d="M 2598.38,2578.34 L 2603.02,2583.49 L 2600.88,2590.08 L 2396.38,2633.55 L 2387.1,2623.25 L 2598.38,2578.34 Z " />
<path stroke="none" fill="#000000" transform="matrix(0.0666667 0 0 0.0666667 -151.534 -107)" d="M 2749.69,2737.42 L 2747.55,2744.01 L 2740.78,2745.45 L 2600.88,2590.08 L 2603.02,2583.49 L 2609.8,2582.05 L 2749.69,2737.42 Z " />
<path stroke="none" fill="#000000" transform="matrix(0.0666667 0 0 0.0666667 -151.534 -107)" d="M 2765.88,2697.3 L 2756.97,2705.33 L 2642.48,2578.17 L 2651.39,2570.14 L 2765.88,2697.3 Z " />
<path stroke="none" fill="#000000" transform="matrix(0.0666667 0 0 0.0666667 -151.534 -107)" d="M 3870.78,2633.55 L 3880.06,2623.25 L 3948.94,2835.27 L 3935.39,2832.39 L 3870.78,2633.55 Z " />
<path stroke="none" fill="#000000" transform="matrix(0.0666667 0 0 0.0666667 -151.534 -107)" d="M 3795.49,2987.76 L 3799.78,3000.94 L 3581.72,2954.59 L 3590.99,2944.29 L 3795.49,2987.76 Z " />
<path stroke="none" fill="#000000" transform="matrix(0.0666667 0 0 0.0666667 -151.534 -107)" d="M 3935.39,2832.39 L 3948.94,2835.27 L 3799.78,3000.94 L 3795.49,2987.76 L 3935.39,2832.39 Z " />
<path stroke="none" fill="#000000" transform="matrix(0.0666667 0 0 0.0666667 -151.534 -107)" d="M 3514.97,2749.16 L 3519.61,2744.01 L 3526.38,2745.45 L 3590.99,2944.29 L 3581.72,2954.59 L 3514.97,2749.16 Z " />
<path stroke="none" fill="#000000" transform="matrix(0.0666667 0 0 0.0666667 -151.534 -107)" d="M 3880.06,2623.25 L 3870.78,2633.55 L 3666.28,2590.08 L 3664.14,2583.49 L 3668.78,2578.34 L 3880.06,2623.25 Z " />
<path stroke="none" fill="#000000" transform="matrix(0.0666667 0 0 0.0666667 -151.534 -107)" d="M 3657.36,2582.05 L 3664.14,2583.49 L 3666.28,2590.08 L 3526.38,2745.45 L 3519.61,2744.01 L 3517.47,2737.42 L 3657.36,2582.05 Z " />
<path stroke="none" fill="#000000" transform="matrix(0.0666667 0 0 0.0666667 -151.534 -107)" d="M 3615.77,2570.14 L 3624.69,2578.17 L 3510.19,2705.33 L 3501.28,2697.3 L 3615.77,2570.14 Z " />
<path stroke="none" fill="#000000" transform="matrix(0.0666667 0 0 0.0666667 -151.534 -107)" d="M 3670.54,2017.26 L 3679.81,2006.97 L 3748.7,2218.98 L 3735.15,2216.1 L 3670.54,2017.26 Z " />
<path stroke="none" fill="#000000" transform="matrix(0.0666667 0 0 0.0666667 -151.534 -107)" d="M 3466.04,1973.8 L 3461.76,1960.62 L 3679.81,2006.97 L 3670.54,2017.26 L 3466.04,1973.8 Z " />
<path stroke="none" fill="#000000" transform="matrix(0.0666667 0 0 0.0666667 -151.534 -107)" d="M 3326.14,2129.17 L 3312.59,2126.29 L 3461.76,1960.62 L 3466.04,1973.8 L 3326.14,2129.17 Z " />
<path stroke="none" fill="#000000" transform="matrix(0.0666667 0 0 0.0666667 -151.534 -107)" d="M 3390.75,2328.01 L 3386.11,2333.15 L 3379.34,2331.71 L 3312.59,2126.29 L 3326.14,2129.17 L 3390.75,2328.01 Z " />
<path stroke="none" fill="#000000" transform="matrix(0.0666667 0 0 0.0666667 -151.534 -107)" d="M 3735.15,2216.1 L 3748.7,2218.98 L 3604.17,2379.5 L 3597.39,2378.06 L 3595.25,2371.47 L 3735.15,2216.1 Z " />
<path stroke="none" fill="#000000" transform="matrix(0.0666667 0 0 0.0666667 -151.534 -107)" d="M 2801.12,1973.8 L 2805.4,1960.62 L 2954.57,2126.29 L 2941.02,2129.17 L 2801.12,1973.8 Z " />
<path stroke="none" fill="#000000" transform="matrix(0.0666667 0 0 0.0666667 -151.534 -107)" d="M 2596.62,2017.26 L 2587.35,2006.97 L 2805.4,1960.62 L 2801.12,1973.8 L 2596.62,2017.26 Z " />
<path stroke="none" fill="#000000" transform="matrix(0.0666667 0 0 0.0666667 -151.534 -107)" d="M 2532.01,2216.1 L 2518.46,2218.98 L 2587.35,2006.97 L 2596.62,2017.26 L 2532.01,2216.1 Z " />
<path stroke="none" fill="#000000" transform="matrix(0.0666667 0 0 0.0666667 -151.534 -107)" d="M 2518.46,2218.98 L 2532.01,2216.1 L 2671.91,2371.47 L 2669.77,2378.06 L 2662.99,2379.5 L 2518.46,2218.98 Z " />
<path stroke="none" fill="#000000" transform="matrix(0.0666667 0 0 0.0666667 -151.534 -107)" d="M 2941.02,2129.17 L 2954.57,2126.29 L 2887.82,2331.71 L 2881.05,2333.15 L 2876.41,2328.01 L 2941.02,2129.17 Z " />
<text x="0" y="0" stroke="none" fill="#000000" transform="matrix(0.0666667 0 0 0.0666667 147.242 59.9639)" font-style="normal" font-weight="normal" font-size="200px" font-family="Arial" >
Rh</text>
<path stroke="none" fill="#000000" transform="matrix(0.0666667 0 0 0.0666667 -151.534 -107)" d="M 4600.47,2075.86 L 4612.47,2075.76 L 4612.98,2135.55 L 4607.58,2137.04 L 4600.98,2135.46 L 4600.47,2075.86 L 4600.47,2075.86 Z " />
<path stroke="none" fill="#000000" transform="matrix(0.0666667 0 0 0.0666667 -151.534 -107)" d="M 4614.66,2331.58 L 4602.66,2331.68 L 4602.1,2266.38 L 4609.77,2263 L 4614.09,2264.72 L 4614.66,2331.58 L 4614.66,2331.58 Z " />
<path stroke="none" fill="#000000" transform="matrix(0.0666667 0 0 0.0666667 -151.534 -107)" d="M 4363.95,2113.96 L 4344.98,2120.58 L 4445.93,1971.37 L 4452.34,1983.32 L 4363.95,2113.96 Z " />
<path stroke="none" fill="#000000" transform="matrix(0.0666667 0 0 0.0666667 -151.534 -107)" d="M 4608.1,2167.77 L 4609.22,2231.11 L 4344.98,2120.58 L 4363.95,2113.96 L 4608.1,2167.77 Z " />
<path stroke="none" fill="#000000" transform="matrix(0.0666667 0 0 0.0666667 -151.534 -107)" d="M 4848.49,2105.92 L 4867.65,2111.88 L 4609.22,2231.11 L 4608.1,2167.77 L 4848.49,2105.92 Z " />
<path stroke="none" fill="#000000" transform="matrix(0.0666667 0 0 0.0666667 -151.534 -107)" d="M 4757.62,1980.77 L 4763.7,1968.71 L 4867.65,2111.88 L 4848.49,2105.92 L 4757.62,1980.77 Z " />
<path stroke="none" fill="#000000" transform="matrix(0.0666667 0 0 0.0666667 -151.534 -107)" d="M 4763.7,1968.71 L 4757.62,1980.77 L 4452.34,1983.32 L 4445.93,1971.37 L 4763.7,1968.71 Z " />
<path stroke="#000000" stroke-width="12" fill="none" transform="matrix(0.0666667 0 0 0.0666667 -151.534 -107)" d="M 4607.58,2128.94 C 4698.4,2127.56 4771.03,2096.65 4770.48,2060.47 C 4769.93,2024.28 4696.39,1995.59 4605.57,1996.97 C 4514.75,1998.35 4442.12,2029.26 4442.67,2065.45 C 4443.22,2101.63 4516.75,2130.32 4607.58,2128.94 " />
<path stroke="none" fill="#000000" transform="matrix(0.0666667 0 0 0.0666667 -151.534 -107)" d="M 4112.67,2553.77 L 4220.87,2553.77 L 4220.87,2563.77 L 4112.67,2563.77 Z " />
<path stroke="none" fill="#000000" transform="matrix(0.0666667 0 0 0.0666667 -151.534 -107)" d="M 4171.77,2504.67 L 4171.77,2612.87 L 4161.77,2612.87 L 4161.77,2504.67 Z " />
<text x="0" y="0" stroke="none" fill="#000000" transform="matrix(0.0666667 0 0 0.0666667 141.4 82.6)" font-style="normal" font-weight="normal" font-size="200px" font-family="Arial" >
I</text>
<path stroke="none" fill="#000000" transform="matrix(0.0666667 0 0 0.0666667 -151.534 -107)" d="M 4553.57,2515.29 L 4564.07,2521.09 L 4471.41,2688.92 L 4460.9,2683.12 L 4553.57,2515.29 Z " />
<text x="0" y="0" stroke="none" fill="#000000" transform="matrix(0.0666667 0 0 0.0666667 167.8 83.8)" font-style="normal" font-weight="normal" font-size="200px" font-family="Arial" >
I</text>
<path stroke="none" fill="#000000" transform="matrix(0.0666667 0 0 0.0666667 -151.534 -107)" d="M 4665.96,2535.23 L 4676.33,2529.19 L 4777.43,2702.53 L 4767.07,2708.58 L 4665.96,2535.23 Z " />
<path stroke="none" fill="#000000" transform="matrix(0.0666667 0 0 0.0666667 -151.534 -107)" d="M 4835.2,2964.42 L 4824.8,2958.42 L 4968.8,2709 L 4979.2,2715 L 4835.2,2964.42 Z " />
<text x="0" y="0" stroke="none" fill="#000000" transform="matrix(0.0666667 0 0 0.0666667 178.866 91)" font-style="normal" font-weight="normal" font-size="200px" font-family="Arial" >
n</text>
<path stroke="none" fill="#000000" transform="matrix(0.0666667 0 0 0.0666667 -151.534 -107)" d="M 6736,2478 L 5124,2478 L 5124,2466 L 6736,2466 Z " />
<path stroke="none" fill="#000000" transform="matrix(0.0666667 0 0 0.0666667 -151.534 -107)" d="M 6840,2472 C 6840,2472 6720,2503 6720,2503 C 6720,2503 6735,2485.56 6735,2472 C 6735,2458 6720,2440 6720,2440 C 6720,2440 6840,2472 6840,2472 C 6840,2472 6840,2472 6840,2472 " />
<path stroke="#000000" stroke-width="1" fill="none" transform="matrix(0.0666667 0 0 0.0666667 -151.534 -107)" d="M 6840,2472 C 6840,2472 6720,2503 6720,2503 C 6720,2503 6735,2485.56 6735,2472 C 6735,2458 6720,2440 6720,2440 C 6720,2440 6840,2472 6840,2472 C 6840,2472 6840,2472 6840,2472 " />
<text x="0" y="0" stroke="none" fill="#000000" transform="matrix(0.0666667 0 0 0.0666667 192.26 53.8)" font-style="normal" font-weight="normal" font-size="200px" font-family="Arial" >
AgSbF</text>
<text x="0" y="0" stroke="none" fill="#000000" transform="matrix(0.0666667 0 0 0.0666667 233.021 56.7333)" font-style="normal" font-weight="normal" font-size="150px" font-family="Arial" >
6</text>
<text x="0" y="0" stroke="none" fill="#000000" transform="matrix(0.0666667 0 0 0.0666667 238.583 53.8)" font-style="normal" font-weight="normal" font-size="200px" font-family="Arial" >
 </text>
<text x="0" y="0" stroke="none" fill="#000000" transform="matrix(0.0666667 0 0 0.0666667 242.316 53.8)" font-style="normal" font-weight="normal" font-size="200px" font-family="Arial" >
(2 </text>
<text x="0" y="0" stroke="none" fill="#000000" transform="matrix(0.0666667 0 0 0.0666667 257.931 53.8)" font-style="normal" font-weight="normal" font-size="200px" font-family="Arial" >
equiv)</text>
<text x="0" y="0" stroke="none" fill="#000000" transform="matrix(0.0666667 0 0 0.0666667 201.083 69.1333)" font-style="normal" font-weight="normal" font-size="200px" font-family="Arial" >
MeNO</text>
<text x="0" y="0" stroke="none" fill="#000000" transform="matrix(0.0666667 0 0 0.0666667 239.661 72.0667)" font-style="normal" font-weight="normal" font-size="150px" font-family="Arial" >
2</text>
<text x="0" y="0" stroke="none" fill="#000000" transform="matrix(0.0666667 0 0 0.0666667 245.223 69.1333)" font-style="normal" font-weight="normal" font-size="200px" font-family="Arial" >
; </text>
<text x="0" y="0" stroke="none" fill="#000000" transform="matrix(0.0666667 0 0 0.0666667 252.689 69.1333)" font-style="normal" font-weight="normal" font-size="200px" font-family="Arial" >
r.t. </text>
<text x="0" y="0" stroke="none" fill="#000000" transform="matrix(0.0666667 0 0 0.0666667 272.089 69.1333)" font-style="normal" font-weight="normal" font-size="200px" font-family="Arial" >
Ar</text>
<text x="0" y="0" stroke="none" fill="#000000" transform="matrix(0.0666667 0 0 0.0666667 370.066 132.2)" font-style="normal" font-weight="normal" font-size="200px" font-family="Arial" >
63%</text>
<text x="0" y="0" stroke="none" fill="#000000" transform="matrix(0.0666667 0 0 0.0666667 353.266 132.2)" font-style="normal" font-weight="bold" font-size="200px" font-family="Arial" >
1</text>
</svg>
