<?xml version="1.0" standalone="no" ?>
<!DOCTYPE svg PUBLIC "-//W3C//DTD SVG 1.1//EN" "http://www.w3.org/Graphics/SVG/1.1/DTD/svg11.dtd">
<svg width="295px" height="110px" viewBox="0 0 295 110" style="background-color: #ffffff00" xmlns="http://www.w3.org/2000/svg" xmlns:xlink="http://www.w3.org/1999/xlink" version="1.1" >
<path stroke="none" fill="#000000" transform="matrix(0.0666667 0 0 0.0666667 -212.534 -113)" d="M 4553.32,2670.1 L 4560.8,2658.93 L 4652.64,2822.02 L 4636.58,2817.96 L 4553.32,2670.1 Z " />
<path stroke="none" fill="#000000" transform="matrix(0.0666667 0 0 0.0666667 -212.534 -113)" d="M 4278.87,2636.3 L 4276.09,2623.86 L 4560.8,2658.93 L 4553.32,2670.1 L 4278.87,2636.3 Z " />
<path stroke="none" fill="#000000" transform="matrix(0.0666667 0 0 0.0666667 -212.534 -113)" d="M 4288.49,2688.57 L 4289.96,2676.66 L 4526.18,2705.76 L 4524.71,2717.67 L 4288.49,2688.57 Z " />
<path stroke="none" fill="#000000" transform="matrix(0.0666667 0 0 0.0666667 -212.534 -113)" d="M 4093.49,2753.14 L 4085.46,2751.11 L 4083.73,2745.1 L 4276.09,2623.86 L 4278.87,2636.3 L 4093.49,2753.14 Z " />
<path stroke="none" fill="#000000" transform="matrix(0.0666667 0 0 0.0666667 -212.534 -113)" d="M 4176.75,2900.99 L 4173.01,2906.58 L 4164.13,2903.04 L 4081.95,2757.1 L 4085.46,2751.11 L 4093.49,2753.14 L 4176.75,2900.99 Z " />
<path stroke="none" fill="#000000" transform="matrix(0.0666667 0 0 0.0666667 -212.534 -113)" d="M 4451.2,2934.8 L 4453.98,2947.23 L 4174.1,2912.76 L 4173.01,2906.58 L 4176.75,2900.99 L 4451.2,2934.8 Z " />
<path stroke="none" fill="#000000" transform="matrix(0.0666667 0 0 0.0666667 -212.534 -113)" d="M 3802.93,2756.62 L 3799.46,2750.61 L 3801.21,2744.61 L 3903.37,2744.79 L 3903.56,2756.79 L 3802.93,2756.62 L 3802.93,2756.62 Z " />
<path stroke="none" fill="#000000" transform="matrix(0.0666667 0 0 0.0666667 -212.534 -113)" d="M 4083.73,2745.1 L 4085.46,2751.11 L 4081.95,2757.1 L 3979.57,2756.92 L 3979.38,2744.92 L 4083.73,2745.1 L 4083.73,2745.1 Z " />
<path stroke="none" fill="#000000" transform="matrix(0.0666667 0 0 0.0666667 -212.534 -113)" d="M 3719.18,2902.28 L 3710.25,2905.77 L 3706.55,2900.17 L 3791.4,2752.59 L 3799.46,2750.61 L 3802.93,2756.62 L 3719.18,2902.28 Z " />
<path stroke="none" fill="#000000" transform="matrix(0.0666667 0 0 0.0666667 -212.534 -113)" d="M 3941.18,2970.93 L 3941.04,3035.99 L 3709.13,2911.95 L 3710.25,2905.77 L 3719.18,2902.28 L 3941.18,2970.93 Z " />
<path stroke="none" fill="#000000" transform="matrix(0.0666667 0 0 0.0666667 -212.534 -113)" d="M 4164.13,2903.04 L 4173.01,2906.58 L 4174.1,2912.76 L 3941.04,3035.99 L 3941.18,2970.93 L 4164.13,2903.04 Z " />
<path stroke="none" fill="#000000" transform="matrix(0.0666667 0 0 0.0666667 -212.534 -113)" d="M 3607.31,2635.13 L 3610.15,2622.7 L 3801.21,2744.61 L 3799.46,2750.61 L 3791.4,2752.59 L 3607.31,2635.13 Z " />
<path stroke="none" fill="#000000" transform="matrix(0.0666667 0 0 0.0666667 -212.534 -113)" d="M 3332.5,2667.98 L 3325.09,2656.78 L 3610.15,2622.7 L 3607.31,2635.13 L 3332.5,2667.98 Z " />
<path stroke="none" fill="#000000" transform="matrix(0.0666667 0 0 0.0666667 -212.534 -113)" d="M 3360.81,2715.7 L 3359.39,2703.79 L 3596.02,2675.5 L 3597.45,2687.41 L 3360.81,2715.7 Z " />
<path stroke="none" fill="#000000" transform="matrix(0.0666667 0 0 0.0666667 -212.534 -113)" d="M 3247.64,2815.57 L 3231.53,2819.52 L 3325.09,2656.78 L 3332.5,2667.98 L 3247.64,2815.57 Z " />
<path stroke="none" fill="#000000" transform="matrix(0.0666667 0 0 0.0666667 -212.534 -113)" d="M 3706.55,2900.17 L 3710.25,2905.77 L 3709.13,2911.95 L 3428.89,2945.45 L 3431.73,2933.03 L 3706.55,2900.17 Z " />
<path stroke="none" fill="#000000" transform="matrix(0.0666667 0 0 0.0666667 -212.534 -113)" d="M 3431.73,2933.03 L 3428.89,2945.45 L 3231.53,2819.52 L 3247.64,2815.57 L 3431.73,2933.03 Z " />
<path stroke="none" fill="#000000" transform="matrix(0.0666667 0 0 0.0666667 -212.534 -113)" d="M 3443.17,2892.02 L 3436.71,2902.13 L 3291.05,2809.19 L 3297.5,2799.07 L 3443.17,2892.02 Z " />
<path stroke="none" fill="#000000" transform="matrix(0.0666667 0 0 0.0666667 -212.534 -113)" d="M 4636.58,2817.96 L 4652.64,2822.02 L 4453.98,2947.23 L 4451.2,2934.8 L 4636.58,2817.96 Z " />
<path stroke="none" fill="#000000" transform="matrix(0.0666667 0 0 0.0666667 -212.534 -113)" d="M 4586.73,2801.08 L 4593.13,2811.23 L 4446.32,2903.76 L 4439.93,2893.61 L 4586.73,2801.08 Z " />
<path stroke="none" fill="#ffffff" transform="matrix(0.0666667 0 0 0.0666667 -212.534 -113)" d="M 3799.52,2856.88 A 142.204,83.8434 0 1 0 4083.93,2856.88A 142.204,83.8434 0 1 0 3799.52,2856.88Z " />
<path stroke="#000000" stroke-width="12" fill="none" transform="matrix(0.0666667 0 0 0.0666667 -212.534 -113)" d="M 3799.52,2856.88 A 142.204,83.8434 0 1 0 4083.93,2856.88A 142.204,83.8434 0 1 0 3799.52,2856.88Z " />
<text x="0" y="0" stroke="none" fill="#000000" transform="matrix(0.0666667 0 0 0.0666667 41.4422 58.3639)" font-style="normal" font-weight="normal" font-size="200px" font-family="Arial" >
Rh</text>
<path stroke="none" fill="#000000" transform="matrix(0.0666667 0 0 0.0666667 -212.534 -113)" d="M 3938.31,2100.04 L 3950.31,2100.25 L 3949.38,2153.58 L 3945.31,2154.69 L 3937.39,2152.83 L 3938.31,2100.04 L 3938.31,2100.04 Z " />
<path stroke="none" fill="#000000" transform="matrix(0.0666667 0 0 0.0666667 -212.534 -113)" d="M 3945.12,2397.75 L 3933.12,2397.55 L 3935.17,2279.96 L 3937,2285.09 L 3947.16,2280.57 L 3945.12,2397.75 L 3945.12,2397.75 Z " />
<path stroke="none" fill="#000000" transform="matrix(0.0666667 0 0 0.0666667 -212.534 -113)" d="M 3715.95,2135.9 L 3696.98,2142.53 L 3792.58,2001.23 L 3798.99,2013.17 L 3715.95,2135.9 Z " />
<path stroke="none" fill="#000000" transform="matrix(0.0666667 0 0 0.0666667 -212.534 -113)" d="M 3945.82,2185.29 L 3946.94,2248.64 L 3696.98,2142.53 L 3715.95,2135.9 L 3945.82,2185.29 Z " />
<path stroke="none" fill="#000000" transform="matrix(0.0666667 0 0 0.0666667 -212.534 -113)" d="M 4172.19,2128.34 L 4191.35,2134.3 L 3946.94,2248.64 L 3945.82,2185.29 L 4172.19,2128.34 Z " />
<path stroke="none" fill="#000000" transform="matrix(0.0666667 0 0 0.0666667 -212.534 -113)" d="M 4086.82,2010.77 L 4092.9,1998.71 L 4191.35,2134.3 L 4172.19,2128.34 L 4086.82,2010.77 Z " />
<path stroke="none" fill="#000000" transform="matrix(0.0666667 0 0 0.0666667 -212.534 -113)" d="M 4092.9,1998.71 L 4086.82,2010.77 L 3798.99,2013.17 L 3792.58,2001.23 L 4092.9,1998.71 Z " />
<path stroke="#000000" stroke-width="12" fill="none" transform="matrix(0.0666667 0 0 0.0666667 -212.534 -113)" d="M 3945.35,2150.31 C 4031.09,2149.01 4099.65,2119.83 4099.13,2085.66 C 4098.61,2051.5 4029.2,2024.42 3943.46,2025.72 C 3857.73,2027.03 3789.16,2056.21 3789.68,2090.37 C 3790.2,2124.53 3859.62,2151.61 3945.35,2150.31 " />
<path stroke="none" fill="#000000" transform="matrix(0.0666667 0 0 0.0666667 -212.534 -113)" d="M 3949.42,2876.39 L 3937.42,2876.58 L 3933.16,2601.7 L 3945.16,2601.51 L 3949.42,2876.39 Z " />
<path stroke="none" fill="#000000" transform="matrix(0.0666667 0 0 0.0666667 -212.534 -113)" d="M 5554.22,2502 L 4736,2502 L 4736,2490 L 5554.22,2490 Z " />
<path stroke="none" fill="#000000" transform="matrix(0.0666667 0 0 0.0666667 -212.534 -113)" d="M 5658.22,2496 C 5658.22,2496 5538.23,2527 5538.23,2527 C 5538.23,2527 5553.22,2509.56 5553.22,2496 C 5553.22,2482 5538.23,2464 5538.23,2464 C 5538.23,2464 5658.22,2496 5658.22,2496 C 5658.22,2496 5658.22,2496 5658.22,2496 " />
<path stroke="#000000" stroke-width="1" fill="none" transform="matrix(0.0666667 0 0 0.0666667 -212.534 -113)" d="M 5658.22,2496 C 5658.22,2496 5538.23,2527 5538.23,2527 C 5538.23,2527 5553.22,2509.56 5553.22,2496 C 5553.22,2482 5538.23,2464 5538.23,2464 C 5538.23,2464 5658.22,2496 5658.22,2496 C 5658.22,2496 5658.22,2496 5658.22,2496 " />
<text x="0" y="0" stroke="none" fill="#000000" transform="matrix(0.0666667 0 0 0.0666667 114.181 48.0667)" font-style="normal" font-weight="normal" font-size="200px" font-family="Arial" >
2H</text>
<text x="0" y="0" stroke="none" fill="#000000" transform="matrix(0.0666667 0 0 0.0666667 131.225 51)" font-style="normal" font-weight="normal" font-size="150px" font-family="Arial" >
2</text>
<text x="0" y="0" stroke="none" fill="#000000" transform="matrix(0.0666667 0 0 0.0666667 136.787 48.0667)" font-style="normal" font-weight="normal" font-size="200px" font-family="Arial" >
O</text>
<path stroke="none" fill="#000000" transform="matrix(0.0666667 0 0 0.0666667 -212.534 -113)" d="M 5848.11,2819.29 L 5836.95,2826.79 L 5813.71,2641.07 L 5827.03,2650.91 L 5848.11,2819.29 Z " />
<path stroke="none" fill="#000000" transform="matrix(0.0666667 0 0 0.0666667 -212.534 -113)" d="M 6089.31,2954.5 L 6087.18,2967.06 L 5836.95,2826.79 L 5848.11,2819.29 L 6089.31,2954.5 Z " />
<path stroke="none" fill="#000000" transform="matrix(0.0666667 0 0 0.0666667 -212.534 -113)" d="M 6100.2,2902.48 L 6094.33,2912.94 L 5886.73,2796.57 L 5892.59,2786.1 L 6100.2,2902.48 Z " />
<path stroke="none" fill="#000000" transform="matrix(0.0666667 0 0 0.0666667 -212.534 -113)" d="M 6305.13,2916.55 L 6311.8,2921.47 L 6311.12,2927.68 L 6087.18,2967.06 L 6089.31,2954.5 L 6305.13,2916.55 Z " />
<path stroke="none" fill="#000000" transform="matrix(0.0666667 0 0 0.0666667 -212.534 -113)" d="M 6284.06,2748.18 L 6289.63,2744.43 L 6296.43,2750.41 L 6317.31,2917.25 L 6311.8,2921.47 L 6305.13,2916.55 L 6284.06,2748.18 Z " />
<path stroke="none" fill="#000000" transform="matrix(0.0666667 0 0 0.0666667 -212.534 -113)" d="M 6253.83,2765.26 L 6265.73,2763.77 L 6282.08,2894.39 L 6270.18,2895.88 L 6253.83,2765.26 Z " />
<path stroke="none" fill="#000000" transform="matrix(0.0666667 0 0 0.0666667 -212.534 -113)" d="M 6042.85,2612.97 L 6044.99,2600.41 L 6291.19,2738.42 L 6289.63,2744.43 L 6284.06,2748.18 L 6042.85,2612.97 Z " />
<path stroke="none" fill="#000000" transform="matrix(0.0666667 0 0 0.0666667 -212.534 -113)" d="M 6575.38,3023.36 L 6576.32,3030.23 L 6572.42,3035.12 L 6311.12,2927.68 L 6311.8,2921.47 L 6317.31,2917.25 L 6575.38,3023.36 Z " />
<path stroke="none" fill="#000000" transform="matrix(0.0666667 0 0 0.0666667 -212.534 -113)" d="M 6708.58,2919.85 L 6717.64,2920.4 L 6718.94,2926.99 L 6584.52,3031.45 L 6576.32,3030.23 L 6575.38,3023.36 L 6708.58,2919.85 Z " />
<path stroke="none" fill="#000000" transform="matrix(0.0666667 0 0 0.0666667 -212.534 -113)" d="M 6720.96,2951.02 L 6728.32,2960.5 L 6624.06,3041.53 L 6616.69,3032.05 L 6720.96,2951.02 Z " />
<path stroke="none" fill="#000000" transform="matrix(0.0666667 0 0 0.0666667 -212.534 -113)" d="M 6537.98,2749.77 L 6540.46,2743.77 L 6556.82,2751.61 L 6720.75,2915.04 L 6717.64,2920.4 L 6708.58,2919.85 L 6537.98,2749.77 Z " />
<path stroke="none" fill="#000000" transform="matrix(0.0666667 0 0 0.0666667 -212.534 -113)" d="M 6296.43,2750.41 L 6289.63,2744.43 L 6291.19,2738.42 L 6540.44,2737.77 L 6540.46,2743.77 L 6537.98,2749.77 L 6296.43,2750.41 Z " />
<path stroke="none" fill="#000000" transform="matrix(0.0666667 0 0 0.0666667 -212.534 -113)" d="M 6710.42,3209.87 L 6703.09,3220.3 L 6572.42,3035.12 L 6576.32,3030.23 L 6584.52,3031.45 L 6710.42,3209.87 Z " />
<path stroke="none" fill="#000000" transform="matrix(0.0666667 0 0 0.0666667 -212.534 -113)" d="M 6977.22,3283.53 L 6979.83,3296.7 L 6703.09,3220.3 L 6710.42,3209.87 L 6977.22,3283.53 Z " />
<path stroke="none" fill="#000000" transform="matrix(0.0666667 0 0 0.0666667 -212.534 -113)" d="M 6969.08,3228.64 L 6965.89,3240.2 L 6736.16,3176.78 L 6739.35,3165.21 L 6969.08,3228.64 Z " />
<path stroke="none" fill="#000000" transform="matrix(0.0666667 0 0 0.0666667 -212.534 -113)" d="M 7111.64,3179.06 L 7128.05,3181.51 L 6979.83,3296.7 L 6977.22,3283.53 L 7111.64,3179.06 Z " />
<path stroke="none" fill="#000000" transform="matrix(0.0666667 0 0 0.0666667 -212.534 -113)" d="M 6718.94,2926.99 L 6717.64,2920.4 L 6720.75,2915.04 L 6993.06,2990.22 L 6985.73,3000.64 L 6718.94,2926.99 Z " />
<path stroke="none" fill="#000000" transform="matrix(0.0666667 0 0 0.0666667 -212.534 -113)" d="M 6985.73,3000.64 L 6993.06,2990.22 L 7128.05,3181.51 L 7111.64,3179.06 L 6985.73,3000.64 Z " />
<path stroke="none" fill="#000000" transform="matrix(0.0666667 0 0 0.0666667 -212.534 -113)" d="M 6959.62,3034.27 L 6969.42,3027.35 L 7069.05,3168.53 L 7059.25,3175.45 L 6959.62,3034.27 Z " />
<path stroke="none" fill="#000000" transform="matrix(0.0666667 0 0 0.0666667 -212.534 -113)" d="M 5827.03,2650.91 L 5813.71,2641.07 L 6044.99,2600.41 L 6042.85,2612.97 L 5827.03,2650.91 Z " />
<path stroke="none" fill="#000000" transform="matrix(0.0666667 0 0 0.0666667 -212.534 -113)" d="M 5866.78,2685.41 L 5864.7,2673.59 L 6035.61,2643.54 L 6037.69,2655.36 L 5866.78,2685.41 Z " />
<text x="0" y="0" stroke="none" fill="#000000" transform="matrix(0.0666667 0 0 0.0666667 227.099 52.3464)" font-style="normal" font-weight="normal" font-size="200px" font-family="Arial" >
Rh</text>
<path stroke="none" fill="#000000" transform="matrix(0.0666667 0 0 0.0666667 -212.534 -113)" d="M 6624.31,2522.44 L 6677.27,2550.64 L 6670.25,2560.5 L 6620.05,2533.77 L 6624.31,2522.44 Z " />
<path stroke="none" fill="#000000" transform="matrix(0.0666667 0 0 0.0666667 -212.534 -113)" d="M 6603.87,2576.74 L 6643.63,2597.91 L 6636.61,2607.77 L 6599.61,2588.07 L 6603.87,2576.74 Z " />
<path stroke="none" fill="#000000" transform="matrix(0.0666667 0 0 0.0666667 -212.534 -113)" d="M 6583.44,2631.04 L 6609.99,2645.18 L 6602.97,2655.04 L 6579.17,2642.37 L 6583.44,2631.04 Z " />
<path stroke="none" fill="#000000" transform="matrix(0.0666667 0 0 0.0666667 -212.534 -113)" d="M 6563,2685.34 L 6576.35,2692.45 L 6569.33,2702.31 L 6558.74,2696.67 L 6563,2685.34 Z " />
<text x="0" y="0" stroke="none" fill="#000000" transform="matrix(0.0666667 0 0 0.0666667 238.793 75.1331)" font-style="normal" font-weight="normal" font-size="200px" font-family="Arial" >
H</text>
<path stroke="none" fill="#000000" transform="matrix(0.0666667 0 0 0.0666667 -212.534 -113)" d="M 6754.92,2713.93 L 6754.87,2773.93 L 6556.82,2751.61 L 6540.46,2743.77 L 6540.46,2737.77 L 6754.92,2713.93 Z " />
<path stroke="none" fill="#000000" transform="matrix(0.0666667 0 0 0.0666667 -212.534 -113)" d="M 6728.47,2307.37 L 6716.47,2307.35 L 6716.69,2171.58 L 6720.11,2169.97 L 6728.69,2173.21 L 6728.47,2307.37 L 6728.47,2307.37 Z " />
<path stroke="none" fill="#000000" transform="matrix(0.0666667 0 0 0.0666667 -212.534 -113)" d="M 6716.96,2007.16 L 6728.96,2007.18 L 6728.91,2040.28 L 6716.9,2043.82 L 6716.96,2007.16 L 6716.96,2007.16 Z " />
<text x="0" y="0" stroke="none" fill="#000000" transform="matrix(0.0666667 0 0 0.0666667 195.031 55.7464)" font-style="normal" font-weight="normal" font-size="200px" font-family="Arial" >
H</text>
<text x="0" y="0" stroke="none" fill="#000000" transform="matrix(0.0666667 0 0 0.0666667 204.659 58.6797)" font-style="normal" font-weight="normal" font-size="150px" font-family="Arial" >
2</text>
<text x="0" y="0" stroke="none" fill="#000000" transform="matrix(0.0666667 0 0 0.0666667 210.221 55.7464)" font-style="normal" font-weight="normal" font-size="200px" font-family="Arial" >
O</text>
<path stroke="none" fill="#000000" transform="matrix(0.0666667 0 0 0.0666667 -212.534 -113)" d="M 6518.14,2442.65 L 6516.15,2430.81 L 6581.02,2419.89 L 6583.01,2431.73 L 6518.14,2442.65 Z " />
<text x="0" y="0" stroke="none" fill="#000000" transform="matrix(0.0666667 0 0 0.0666667 254.824 57.7024)" font-style="normal" font-weight="normal" font-size="200px" font-family="Arial" >
OH</text>
<text x="0" y="0" stroke="none" fill="#000000" transform="matrix(0.0666667 0 0 0.0666667 274.853 60.6358)" font-style="normal" font-weight="normal" font-size="150px" font-family="Arial" >
2</text>
<path stroke="none" fill="#000000" transform="matrix(0.0666667 0 0 0.0666667 -212.534 -113)" d="M 6874.44,2441.73 L 6877.01,2430 L 6992.88,2455.44 L 6990.31,2467.16 L 6874.44,2441.73 Z " />
<path stroke="none" fill="#000000" transform="matrix(0.0666667 0 0 0.0666667 -212.534 -113)" d="M 6485.58,2030.36 L 6466.75,2037.38 L 6559.35,1894.1 L 6566.01,1905.91 L 6485.58,2030.36 Z " />
<path stroke="none" fill="#000000" transform="matrix(0.0666667 0 0 0.0666667 -212.534 -113)" d="M 6716.44,2074.89 L 6718.89,2138.2 L 6466.75,2037.38 L 6485.58,2030.36 L 6716.44,2074.89 Z " />
<path stroke="none" fill="#000000" transform="matrix(0.0666667 0 0 0.0666667 -212.534 -113)" d="M 6941.56,2013.17 L 6960.84,2018.73 L 6718.89,2138.2 L 6716.44,2074.89 L 6941.56,2013.17 Z " />
<path stroke="none" fill="#000000" transform="matrix(0.0666667 0 0 0.0666667 -212.534 -113)" d="M 6853.73,1897.43 L 6859.55,1885.25 L 6960.84,2018.73 L 6941.56,2013.17 L 6853.73,1897.43 Z " />
<path stroke="none" fill="#000000" transform="matrix(0.0666667 0 0 0.0666667 -212.534 -113)" d="M 6859.55,1885.25 L 6853.73,1897.43 L 6566.01,1905.91 L 6559.35,1894.1 L 6859.55,1885.25 Z " />
<path stroke="#000000" stroke-width="12" fill="none" transform="matrix(0.0666667 0 0 0.0666667 -212.534 -113)" d="M 6715.23,2039.92 C 6800.92,2036.81 6868.85,2006.19 6867.61,1972.05 C 6866.37,1937.91 6796.4,1912.29 6710.71,1915.41 C 6625.02,1918.52 6557.09,1949.14 6558.33,1983.28 C 6559.57,2017.42 6629.54,2043.03 6715.23,2039.92 " />
<path stroke="none" fill="#000000" transform="matrix(0.0666667 0 0 0.0666667 -212.534 -113)" d="M 4482,1857 L 4470,1869 L 4323,1869 L 4323,1857 L 4482,1857 Z " />
<path stroke="none" fill="#000000" transform="matrix(0.0666667 0 0 0.0666667 -212.534 -113)" d="M 4482,2151 L 4470,2151 L 4470,1869 L 4482,1857 L 4482,2151 Z " />
<text x="0" y="0" stroke="none" fill="#000000" transform="matrix(0.0666667 0 0 0.0666667 88.8663 20.6)" font-style="normal" font-weight="normal" font-size="200px" font-family="Arial" >
+</text>
<path stroke="none" fill="#000000" transform="matrix(0.0666667 0 0 0.0666667 -212.534 -113)" d="M 7404,1773 L 7392,1785 L 7245,1785 L 7245,1773 L 7404,1773 Z " />
<path stroke="none" fill="#000000" transform="matrix(0.0666667 0 0 0.0666667 -212.534 -113)" d="M 7404,2067 L 7392,2067 L 7392,1785 L 7404,1773 L 7404,2067 Z " />
<text x="0" y="0" stroke="none" fill="#000000" transform="matrix(0.0666667 0 0 0.0666667 283.666 15)" font-style="normal" font-weight="normal" font-size="200px" font-family="Arial" >
+</text>
</svg>
