<?xml version="1.0" standalone="no" ?>
<!DOCTYPE svg PUBLIC "-//W3C//DTD SVG 1.1//EN" "http://www.w3.org/Graphics/SVG/1.1/DTD/svg11.dtd">
<svg width="418px" height="116px" viewBox="0 0 418 116" style="background-color: #ffffff00" xmlns="http://www.w3.org/2000/svg" xmlns:xlink="http://www.w3.org/1999/xlink" version="1.1" >
<path stroke="none" fill="#000000" transform="matrix(0.0666667 0 0 0.0666667 -190.534 -303)" d="M 4365.38,5077.86 L 4370.02,5072.72 L 4376.8,5074.16 L 4450.82,5301.98 L 4446.18,5307.12 L 4439.41,5305.68 L 4365.38,5077.86 Z " />
<path stroke="none" fill="#000000" transform="matrix(0.0666667 0 0 0.0666667 -190.534 -303)" d="M 4131.07,5028.06 L 4128.93,5021.47 L 4133.57,5016.32 L 4367.88,5066.13 L 4370.02,5072.72 L 4365.38,5077.86 L 4131.07,5028.06 Z " />
<path stroke="none" fill="#000000" transform="matrix(0.0666667 0 0 0.0666667 -190.534 -303)" d="M 4143.52,5076.06 L 4146.01,5064.32 L 4336.99,5104.92 L 4334.49,5116.65 L 4143.52,5076.06 Z " />
<path stroke="none" fill="#000000" transform="matrix(0.0666667 0 0 0.0666667 -190.534 -303)" d="M 3970.79,5206.08 L 3964.01,5204.64 L 3961.34,5198.64 L 4122.16,5020.03 L 4128.93,5021.47 L 4131.07,5028.06 L 3970.79,5206.08 Z " />
<path stroke="none" fill="#000000" transform="matrix(0.0666667 0 0 0.0666667 -190.534 -303)" d="M 4044.81,5433.9 L 4040.17,5439.04 L 4033.12,5436.75 L 3959.65,5210.64 L 3964.01,5204.64 L 3970.79,5206.08 L 4044.81,5433.9 Z " />
<path stroke="none" fill="#000000" transform="matrix(0.0666667 0 0 0.0666667 -190.534 -303)" d="M 4080.16,5399.12 L 4068.75,5402.83 L 4008.41,5217.14 L 4019.83,5213.43 L 4080.16,5399.12 Z " />
<path stroke="none" fill="#000000" transform="matrix(0.0666667 0 0 0.0666667 -190.534 -303)" d="M 4279.12,5483.7 L 4281.26,5490.29 L 4276.62,5495.44 L 4041.54,5445.47 L 4040.17,5439.04 L 4044.81,5433.9 L 4279.12,5483.7 Z " />
<path stroke="none" fill="#000000" transform="matrix(0.0666667 0 0 0.0666667 -190.534 -303)" d="M 3721.9,5210.64 L 3717.54,5204.64 L 3720.21,5198.64 L 3961.34,5198.64 L 3964.01,5204.64 L 3959.65,5210.64 L 3721.9,5210.64 Z " />
<path stroke="none" fill="#000000" transform="matrix(0.0666667 0 0 0.0666667 -190.534 -303)" d="M 3648.43,5436.75 L 3641.37,5439.04 L 3636.74,5433.9 L 3710.76,5206.08 L 3717.54,5204.64 L 3721.9,5210.64 L 3648.43,5436.75 Z " />
<path stroke="none" fill="#000000" transform="matrix(0.0666667 0 0 0.0666667 -190.534 -303)" d="M 3612.8,5402.83 L 3601.39,5399.12 L 3661.72,5213.43 L 3673.14,5217.14 L 3612.8,5402.83 Z " />
<path stroke="none" fill="#000000" transform="matrix(0.0666667 0 0 0.0666667 -190.534 -303)" d="M 3840.77,5576.5 L 3840.77,5583.92 L 3837.25,5588.77 L 3640.01,5445.47 L 3641.37,5439.04 L 3648.43,5436.75 L 3840.77,5576.5 Z " />
<path stroke="none" fill="#000000" transform="matrix(0.0666667 0 0 0.0666667 -190.534 -303)" d="M 4033.12,5436.75 L 4040.17,5439.04 L 4041.54,5445.47 L 3850.8,5584.05 L 3840.77,5583.92 L 3840.77,5576.5 L 4033.12,5436.75 Z " />
<path stroke="none" fill="#000000" transform="matrix(0.0666667 0 0 0.0666667 -190.534 -303)" d="M 3550.48,5028.06 L 3552.62,5021.47 L 3559.39,5020.03 L 3720.21,5198.64 L 3717.54,5204.64 L 3710.76,5206.08 L 3550.48,5028.06 Z " />
<path stroke="none" fill="#000000" transform="matrix(0.0666667 0 0 0.0666667 -190.534 -303)" d="M 3316.17,5077.86 L 3311.53,5072.72 L 3313.67,5066.13 L 3547.98,5016.32 L 3552.62,5021.47 L 3550.48,5028.06 L 3316.17,5077.86 Z " />
<path stroke="none" fill="#000000" transform="matrix(0.0666667 0 0 0.0666667 -190.534 -303)" d="M 3347.06,5116.65 L 3344.56,5104.92 L 3535.54,5064.32 L 3538.03,5076.06 L 3347.06,5116.65 Z " />
<path stroke="none" fill="#000000" transform="matrix(0.0666667 0 0 0.0666667 -190.534 -303)" d="M 3242.14,5305.68 L 3235.37,5307.12 L 3230.73,5301.98 L 3304.75,5074.16 L 3311.53,5072.72 L 3316.17,5077.86 L 3242.14,5305.68 Z " />
<path stroke="none" fill="#000000" transform="matrix(0.0666667 0 0 0.0666667 -190.534 -303)" d="M 3636.74,5433.9 L 3641.37,5439.04 L 3640.01,5445.47 L 3404.92,5495.44 L 3400.29,5490.29 L 3402.43,5483.7 L 3636.74,5433.9 Z " />
<path stroke="none" fill="#000000" transform="matrix(0.0666667 0 0 0.0666667 -190.534 -303)" d="M 3402.43,5483.7 L 3400.29,5490.29 L 3393.51,5491.73 L 3233.23,5313.71 L 3235.37,5307.12 L 3242.14,5305.68 L 3402.43,5483.7 Z " />
<path stroke="none" fill="#000000" transform="matrix(0.0666667 0 0 0.0666667 -190.534 -303)" d="M 3420.58,5437.55 L 3411.66,5445.58 L 3281.02,5300.49 L 3289.93,5292.46 L 3420.58,5437.55 Z " />
<path stroke="none" fill="#000000" transform="matrix(0.0666667 0 0 0.0666667 -190.534 -303)" d="M 4439.41,5305.68 L 4446.18,5307.12 L 4448.32,5313.71 L 4288.04,5491.73 L 4281.26,5490.29 L 4279.12,5483.7 L 4439.41,5305.68 Z " />
<path stroke="none" fill="#000000" transform="matrix(0.0666667 0 0 0.0666667 -190.534 -303)" d="M 4391.61,5292.46 L 4400.53,5300.49 L 4269.89,5445.58 L 4260.97,5437.55 L 4391.61,5292.46 Z " />
<path stroke="none" fill="#000000" transform="matrix(0.0666667 0 0 0.0666667 -190.534 -303)" d="M 6720.1,5210.69 L 5036.1,5210.69 L 5036.1,5198.69 L 6720.1,5198.69 Z " />
<path stroke="none" fill="#000000" transform="matrix(0.0666667 0 0 0.0666667 -190.534 -303)" d="M 6824.1,5204.69 C 6824.1,5204.69 6704.1,5235.69 6704.1,5235.69 C 6704.1,5235.69 6719.1,5218.25 6719.1,5204.69 C 6719.1,5190.69 6704.1,5172.69 6704.1,5172.69 C 6704.1,5172.69 6824.1,5204.69 6824.1,5204.69 C 6824.1,5204.69 6824.1,5204.69 6824.1,5204.69 " />
<path stroke="#000000" stroke-width="1" fill="none" transform="matrix(0.0666667 0 0 0.0666667 -190.534 -303)" d="M 6824.1,5204.69 C 6824.1,5204.69 6704.1,5235.69 6704.1,5235.69 C 6704.1,5235.69 6719.1,5218.25 6719.1,5204.69 C 6719.1,5190.69 6704.1,5172.69 6704.1,5172.69 C 6704.1,5172.69 6824.1,5204.69 6824.1,5204.69 C 6824.1,5204.69 6824.1,5204.69 6824.1,5204.69 " />
<text x="0" y="0" stroke="none" fill="#000000" transform="matrix(0.0666667 0 0 0.0666667 163.714 23.9794)" font-style="normal" font-weight="normal" font-size="200px" font-family="Arial" >
1) </text>
<text x="0" y="0" stroke="none" fill="#000000" transform="matrix(0.0666667 0 0 0.0666667 179.33 23.9794)" font-style="normal" font-weight="normal" font-size="200px" font-family="Arial" >
n-BuLi </text>
<text x="0" y="0" stroke="none" fill="#000000" transform="matrix(0.0666667 0 0 0.0666667 157.734 39.3127)" font-style="normal" font-weight="normal" font-size="200px" font-family="Arial" >
THF; </text>
<text x="0" y="0" stroke="none" fill="#000000" transform="matrix(0.0666667 0 0 0.0666667 191.119 39.3127)" font-style="normal" font-weight="normal" font-size="200px" font-family="Arial" >
r.t. </text>
<text x="0" y="0" stroke="none" fill="#000000" transform="matrix(0.0666667 0 0 0.0666667 210.519 39.3127)" font-style="normal" font-weight="normal" font-size="200px" font-family="Arial" >
Ar</text>
<text x="0" y="0" stroke="none" fill="#000000" transform="matrix(0.0666667 0 0 0.0666667 278.643 39.4461)" font-style="normal" font-weight="normal" font-size="200px" font-family="Arial" >
no </text>
<text x="0" y="0" stroke="none" fill="#000000" transform="matrix(0.0666667 0 0 0.0666667 297.207 39.4461)" font-style="normal" font-weight="normal" font-size="200px" font-family="Arial" >
isolable </text>
<text x="0" y="0" stroke="none" fill="#000000" transform="matrix(0.0666667 0 0 0.0666667 346.155 39.4461)" font-style="normal" font-weight="normal" font-size="200px" font-family="Symbol" >
h</text>
<text x="0" y="0" stroke="none" fill="#000000" transform="matrix(0.0666667 0 0 0.0666667 354.222 34.2461)" font-style="normal" font-weight="normal" font-size="150px" font-family="Arial" >
5</text>
<text x="0" y="0" stroke="none" fill="#000000" transform="matrix(0.0666667 0 0 0.0666667 359.783 39.4461)" font-style="normal" font-weight="normal" font-size="200px" font-family="Arial" >
-fluorenyl </text>
<text x="0" y="0" stroke="none" fill="#000000" transform="matrix(0.0666667 0 0 0.0666667 295.857 58.3127)" font-style="normal" font-weight="normal" font-size="200px" font-family="Arial" >
rhodium </text>
<text x="0" y="0" stroke="none" fill="#000000" transform="matrix(0.0666667 0 0 0.0666667 347.814 58.3127)" font-style="normal" font-weight="normal" font-size="200px" font-family="Arial" >
complex</text>
<text x="0" y="0" stroke="none" fill="#000000" transform="matrix(0.0666667 0 0 0.0666667 115.932 109.419)" font-style="normal" font-weight="normal" font-size="200px" font-family="Arial" >
(olefin)</text>
<text x="0" y="0" stroke="none" fill="#000000" transform="matrix(0.0666667 0 0 0.0666667 156.769 112.352)" font-style="normal" font-weight="normal" font-size="150px" font-family="Arial" >
2</text>
<text x="0" y="0" stroke="none" fill="#000000" transform="matrix(0.0666667 0 0 0.0666667 162.331 109.419)" font-style="normal" font-weight="normal" font-size="200px" font-family="Arial" >
 </text>
<text x="0" y="0" stroke="none" fill="#000000" transform="matrix(0.0666667 0 0 0.0666667 166.064 109.419)" font-style="normal" font-weight="normal" font-size="200px" font-family="Arial" >
= </text>
<text x="0" y="0" stroke="none" fill="#000000" transform="matrix(0.0666667 0 0 0.0666667 177.597 109.419)" font-style="normal" font-weight="normal" font-size="200px" font-family="Arial" >
1,5-cyclooctadiene, </text>
<text x="0" y="0" stroke="none" fill="#000000" transform="matrix(0.0666667 0 0 0.0666667 296.327 109.419)" font-style="normal" font-weight="normal" font-size="200px" font-family="Arial" >
(ethylene)</text>
<text x="0" y="0" stroke="none" fill="#000000" transform="matrix(0.0666667 0 0 0.0666667 355.699 112.352)" font-style="normal" font-weight="normal" font-size="150px" font-family="Arial" >
2</text>
<path stroke="none" fill="#000000" transform="matrix(0.0666667 0 0 0.0666667 -190.534 -303)" d="M 3622,4788.5 L 3635.56,4785.62 L 3559.39,5020.03 L 3552.62,5021.47 L 3547.98,5016.32 L 3622,4788.5 Z " />
<path stroke="none" fill="#000000" transform="matrix(0.0666667 0 0 0.0666667 -190.534 -303)" d="M 3461.72,4610.49 L 3466,4597.31 L 3635.56,4785.62 L 3622,4788.5 L 3461.72,4610.49 Z " />
<path stroke="none" fill="#000000" transform="matrix(0.0666667 0 0 0.0666667 -190.534 -303)" d="M 3227.41,4660.29 L 3218.14,4649.99 L 3466,4597.31 L 3461.72,4610.49 L 3227.41,4660.29 Z " />
<path stroke="none" fill="#000000" transform="matrix(0.0666667 0 0 0.0666667 -190.534 -303)" d="M 3153.39,4888.11 L 3139.83,4890.99 L 3218.14,4649.99 L 3227.41,4660.29 L 3153.39,4888.11 Z " />
<path stroke="none" fill="#000000" transform="matrix(0.0666667 0 0 0.0666667 -190.534 -303)" d="M 3313.67,5066.13 L 3311.53,5072.72 L 3304.75,5074.16 L 3139.83,4890.99 L 3153.39,4888.11 L 3313.67,5066.13 Z " />
<path stroke="none" fill="#000000" transform="matrix(0.0666667 0 0 0.0666667 -190.534 -303)" d="M 2998.92,5363.52 L 2989.64,5353.22 L 3230.73,5301.98 L 3235.37,5307.12 L 3233.23,5313.71 L 2998.92,5363.52 Z " />
<path stroke="none" fill="#000000" transform="matrix(0.0666667 0 0 0.0666667 -190.534 -303)" d="M 2924.89,5591.34 L 2911.34,5594.22 L 2989.64,5353.22 L 2998.92,5363.52 L 2924.89,5591.34 Z " />
<path stroke="none" fill="#000000" transform="matrix(0.0666667 0 0 0.0666667 -190.534 -303)" d="M 3085.18,5769.35 L 3080.9,5782.53 L 2911.34,5594.22 L 2924.89,5591.34 L 3085.18,5769.35 Z " />
<path stroke="none" fill="#000000" transform="matrix(0.0666667 0 0 0.0666667 -190.534 -303)" d="M 3319.49,5719.55 L 3328.76,5729.85 L 3080.9,5782.53 L 3085.18,5769.35 L 3319.49,5719.55 Z " />
<path stroke="none" fill="#000000" transform="matrix(0.0666667 0 0 0.0666667 -190.534 -303)" d="M 3393.51,5491.73 L 3400.29,5490.29 L 3404.92,5495.44 L 3328.76,5729.85 L 3319.49,5719.55 L 3393.51,5491.73 Z " />
<path stroke="none" fill="#000000" transform="matrix(0.0666667 0 0 0.0666667 -190.534 -303)" d="M 4362.06,5719.55 L 4352.79,5729.85 L 4276.62,5495.44 L 4281.26,5490.29 L 4288.04,5491.73 L 4362.06,5719.55 Z " />
<path stroke="none" fill="#000000" transform="matrix(0.0666667 0 0 0.0666667 -190.534 -303)" d="M 4596.37,5769.35 L 4600.65,5782.53 L 4352.79,5729.85 L 4362.06,5719.55 L 4596.37,5769.35 Z " />
<path stroke="none" fill="#000000" transform="matrix(0.0666667 0 0 0.0666667 -190.534 -303)" d="M 4756.66,5591.34 L 4770.21,5594.22 L 4600.65,5782.53 L 4596.37,5769.35 L 4756.66,5591.34 Z " />
<path stroke="none" fill="#000000" transform="matrix(0.0666667 0 0 0.0666667 -190.534 -303)" d="M 4682.63,5363.52 L 4691.9,5353.22 L 4770.21,5594.22 L 4756.66,5591.34 L 4682.63,5363.52 Z " />
<path stroke="none" fill="#000000" transform="matrix(0.0666667 0 0 0.0666667 -190.534 -303)" d="M 4448.32,5313.71 L 4446.18,5307.12 L 4450.82,5301.98 L 4691.9,5353.22 L 4682.63,5363.52 L 4448.32,5313.71 Z " />
<path stroke="none" fill="#000000" transform="matrix(0.0666667 0 0 0.0666667 -190.534 -303)" d="M 4528.16,4888.11 L 4541.72,4890.99 L 4376.8,5074.16 L 4370.02,5072.72 L 4367.88,5066.13 L 4528.16,4888.11 Z " />
<path stroke="none" fill="#000000" transform="matrix(0.0666667 0 0 0.0666667 -190.534 -303)" d="M 4454.14,4660.29 L 4463.41,4649.99 L 4541.72,4890.99 L 4528.16,4888.11 L 4454.14,4660.29 Z " />
<path stroke="none" fill="#000000" transform="matrix(0.0666667 0 0 0.0666667 -190.534 -303)" d="M 4219.83,4610.49 L 4215.55,4597.31 L 4463.41,4649.99 L 4454.14,4660.29 L 4219.83,4610.49 Z " />
<path stroke="none" fill="#000000" transform="matrix(0.0666667 0 0 0.0666667 -190.534 -303)" d="M 4059.54,4788.5 L 4045.99,4785.62 L 4215.55,4597.31 L 4219.83,4610.49 L 4059.54,4788.5 Z " />
<path stroke="none" fill="#000000" transform="matrix(0.0666667 0 0 0.0666667 -190.534 -303)" d="M 4133.57,5016.32 L 4128.93,5021.47 L 4122.16,5020.03 L 4045.99,4785.62 L 4059.54,4788.5 L 4133.57,5016.32 Z " />
<text x="0" y="0" stroke="none" fill="#000000" transform="matrix(0.0666667 0 0 0.0666667 151.206 61.9794)" font-style="normal" font-weight="normal" font-size="200px" font-family="Arial" >
2) </text>
<text x="0" y="0" stroke="none" fill="#000000" transform="matrix(0.0666667 0 0 0.0666667 166.822 61.9794)" font-style="normal" font-weight="normal" font-size="200px" font-family="Arial" >
[(olefin)</text>
<text x="0" y="0" stroke="none" fill="#000000" transform="matrix(0.0666667 0 0 0.0666667 211.392 64.9127)" font-style="normal" font-weight="normal" font-size="150px" font-family="Arial" >
2</text>
<text x="0" y="0" stroke="none" fill="#000000" transform="matrix(0.0666667 0 0 0.0666667 216.954 61.9794)" font-style="normal" font-weight="normal" font-size="200px" font-family="Arial" >
RhCl]</text>
<text x="0" y="0" stroke="none" fill="#000000" transform="matrix(0.0666667 0 0 0.0666667 250.322 64.9127)" font-style="normal" font-weight="normal" font-size="150px" font-family="Arial" >
2</text>
<text x="0" y="0" stroke="none" fill="#000000" transform="matrix(0.0666667 0 0 0.0666667 74.2944 88.0375)" font-style="normal" font-weight="normal" font-size="200px" font-family="Arial" >
H</text>
<path stroke="none" fill="#000000" transform="matrix(0.0666667 0 0 0.0666667 -190.534 -303)" d="M 3984.09,5684.81 L 3941.66,5727.23 L 3836.53,5588.16 L 3840.77,5583.92 L 3850.8,5584.05 L 3984.09,5684.81 Z " />
<text x="0" y="0" stroke="none" fill="#000000" transform="matrix(0.0666667 0 0 0.0666667 47.1415 88.0375)" font-style="normal" font-weight="normal" font-size="200px" font-family="Arial" >
H</text>
<path stroke="none" fill="#000000" transform="matrix(0.0666667 0 0 0.0666667 -190.534 -303)" d="M 3740.38,5726.73 L 3697.96,5684.31 L 3708.12,5677.49 L 3747.2,5716.57 L 3740.38,5726.73 Z " />
<path stroke="none" fill="#000000" transform="matrix(0.0666667 0 0 0.0666667 -190.534 -303)" d="M 3771.52,5680.3 L 3744.39,5653.17 L 3754.55,5646.36 L 3778.33,5670.14 L 3771.52,5680.3 Z " />
<path stroke="none" fill="#000000" transform="matrix(0.0666667 0 0 0.0666667 -190.534 -303)" d="M 3802.65,5633.87 L 3790.82,5622.04 L 3800.98,5615.23 L 3809.46,5623.72 L 3802.65,5633.87 Z " />
</svg>
