<?xml version="1.0" standalone="no" ?>
<!DOCTYPE svg PUBLIC "-//W3C//DTD SVG 1.1//EN" "http://www.w3.org/Graphics/SVG/1.1/DTD/svg11.dtd">
<svg width="181px" height="130px" viewBox="0 0 181 130" style="background-color: #ffffff00" xmlns="http://www.w3.org/2000/svg" xmlns:xlink="http://www.w3.org/1999/xlink" version="1.1" >
<path stroke="none" fill="#00ff00" transform="matrix(0.0666667 0 0 0.0666667 -11.5336 -146)" d="M 2131.8,3254.4 C 2131.8,3254.4 2062,3373.2 2062,3373.2 C 2062,3373.2 2201,3373.8 2201,3373.8 C 2201,3373.8 2131.8,3254.4 2131.8,3254.4 " />
<path stroke="#00ff00" stroke-width="1" fill="none" transform="matrix(0.0666667 0 0 0.0666667 -11.5336 -146)" d="M 2131.8,3254.4 C 2131.8,3254.4 2062,3373.2 2062,3373.2 C 2062,3373.2 2201,3373.8 2201,3373.8 C 2201,3373.8 2131.8,3254.4 2131.8,3254.4 " />
<path stroke="#004b00" stroke-width="12" fill="none" transform="matrix(0.0666667 0 0 0.0666667 -11.5336 -146)" d="M 2131.8,3254.4 C 2131.8,3254.4 2062,3373.2 2062,3373.2 C 2062,3373.2 2201,3373.8 2201,3373.8 C 2201,3373.8 2131.8,3254.4 2131.8,3254.4 " />
<path stroke="none" fill="#83ff83" transform="matrix(0.0666667 0 0 0.0666667 -11.5336 -146)" d="M 2129,3269.6 C 2129,3269.6 2071.6,3367.2 2071.6,3367.2 C 2071.6,3367.2 2104.6,3328.2 2110,3318.4 C 2115.6,3308.6 2129,3269.6 2129,3269.6 " />
<path stroke="#83ff83" stroke-width="1" fill="none" transform="matrix(0.0666667 0 0 0.0666667 -11.5336 -146)" d="M 2129,3269.6 C 2129,3269.6 2071.6,3367.2 2071.6,3367.2 C 2071.6,3367.2 2104.6,3328.2 2110,3318.4 C 2115.6,3308.6 2129,3269.6 2129,3269.6 " />
<path stroke="none" fill="#00e500" transform="matrix(0.0666667 0 0 0.0666667 -11.5336 -146)" d="M 1378.8,2762.6 A 729.4,524.4 0 1 0 2837.6,2762.6A 729.4,524.4 0 1 0 1378.8,2762.6Z " />
<path stroke="#00e500" stroke-width="12" fill="none" transform="matrix(0.0666667 0 0 0.0666667 -11.5336 -146)" d="M 1378.8,2762.6 A 729.4,524.4 0 1 0 2837.6,2762.6A 729.4,524.4 0 1 0 1378.8,2762.6Z " />
<path stroke="none" fill="#c1fec1" transform="matrix(0.0666667 0 0 0.0666667 -11.5336 -146)" d="M 1625.2,2464.8 C 1651.25,2477.38 1702.33,2464.93 1739.2,2437 C 1776.07,2409.07 1784.85,2376.18 1758.8,2363.6 C 1732.75,2351.01 1681.67,2363.47 1644.8,2391.4 C 1607.93,2419.33 1599.15,2452.21 1625.2,2464.8 " />
<path stroke="#c1fec1" stroke-width="1" fill="none" transform="matrix(0.0666667 0 0 0.0666667 -11.5336 -146)" d="M 1625.2,2464.8 C 1651.25,2477.38 1702.33,2464.93 1739.2,2437 C 1776.07,2409.07 1784.85,2376.18 1758.8,2363.6 C 1732.75,2351.01 1681.67,2363.47 1644.8,2391.4 C 1607.93,2419.33 1599.15,2452.21 1625.2,2464.8 " />
<path stroke="none" fill="#00a300" transform="matrix(0.0666667 0 0 0.0666667 -11.5336 -146)" d="M 2239.4,3231 C 2228.8,3269 2487.8,3190.6 2601.2,3113.8 C 2714.2,3037.2 2807.4,2856.2 2786,2831.8 C 2764.6,2807.2 2610.4,2942.8 2502.2,3027 C 2393.6,3110.8 2249.8,3193 2239.4,3231 " />
<path stroke="#00a300" stroke-width="1" fill="none" transform="matrix(0.0666667 0 0 0.0666667 -11.5336 -146)" d="M 2239.4,3231 C 2228.8,3269 2487.8,3190.6 2601.2,3113.8 C 2714.2,3037.2 2807.4,2856.2 2786,2831.8 C 2764.6,2807.2 2610.4,2942.8 2502.2,3027 C 2393.6,3110.8 2249.8,3193 2239.4,3231 " />
<path stroke="none" fill="#000000" transform="matrix(0.0666667 0 0 0.0666667 -11.5336 -146)" d="M 2726.26,2643.18 L 2733.74,2632.02 L 2825.63,2795.03 L 2809.57,2790.97 L 2726.26,2643.18 Z " />
<path stroke="none" fill="#000000" transform="matrix(0.0666667 0 0 0.0666667 -11.5336 -146)" d="M 2451.79,2609.22 L 2449.01,2596.78 L 2733.74,2632.02 L 2726.26,2643.18 L 2451.79,2609.22 Z " />
<path stroke="none" fill="#000000" transform="matrix(0.0666667 0 0 0.0666667 -11.5336 -146)" d="M 2461.41,2661.51 L 2462.89,2649.6 L 2699.12,2678.83 L 2697.65,2690.74 L 2461.41,2661.51 Z " />
<path stroke="none" fill="#000000" transform="matrix(0.0666667 0 0 0.0666667 -11.5336 -146)" d="M 2266.43,2726.23 L 2258.4,2724.2 L 2256.67,2718.2 L 2449.01,2596.78 L 2451.79,2609.22 L 2266.43,2726.23 Z " />
<path stroke="none" fill="#000000" transform="matrix(0.0666667 0 0 0.0666667 -11.5336 -146)" d="M 2349.74,2874.01 L 2346,2879.6 L 2337.12,2876.06 L 2254.89,2730.19 L 2258.4,2724.2 L 2266.43,2726.23 L 2349.74,2874.01 Z " />
<path stroke="none" fill="#000000" transform="matrix(0.0666667 0 0 0.0666667 -11.5336 -146)" d="M 2624.21,2907.78 L 2626.99,2920.22 L 2347.09,2885.78 L 2346,2879.6 L 2349.74,2874.01 L 2624.21,2907.78 Z " />
<path stroke="none" fill="#000000" transform="matrix(0.0666667 0 0 0.0666667 -11.5336 -146)" d="M 1975.87,2729.61 L 1972.4,2723.6 L 1974.16,2717.6 L 2256.67,2718.2 L 2258.4,2724.2 L 2254.89,2730.19 L 1975.87,2729.61 Z " />
<path stroke="none" fill="#000000" transform="matrix(0.0666667 0 0 0.0666667 -11.5336 -146)" d="M 1892.13,2875.31 L 1883.2,2878.8 L 1879.5,2873.2 L 1964.34,2725.58 L 1972.4,2723.6 L 1975.87,2729.61 L 1892.13,2875.31 Z " />
<path stroke="none" fill="#000000" transform="matrix(0.0666667 0 0 0.0666667 -11.5336 -146)" d="M 2114.26,2943.96 L 2114.13,3009.02 L 1882.08,2884.98 L 1883.2,2878.8 L 1892.13,2875.31 L 2114.26,2943.96 Z " />
<path stroke="none" fill="#000000" transform="matrix(0.0666667 0 0 0.0666667 -11.5336 -146)" d="M 2337.12,2876.06 L 2346,2879.6 L 2347.09,2885.78 L 2114.13,3009.02 L 2114.26,2943.96 L 2337.12,2876.06 Z " />
<path stroke="none" fill="#000000" transform="matrix(0.0666667 0 0 0.0666667 -11.5336 -146)" d="M 1780.38,2608.21 L 1783.22,2595.79 L 1974.16,2717.6 L 1972.4,2723.6 L 1964.34,2725.58 L 1780.38,2608.21 Z " />
<path stroke="none" fill="#000000" transform="matrix(0.0666667 0 0 0.0666667 -11.5336 -146)" d="M 1505.5,2641 L 1498.1,2629.8 L 1783.22,2595.79 L 1780.38,2608.21 L 1505.5,2641 Z " />
<path stroke="none" fill="#000000" transform="matrix(0.0666667 0 0 0.0666667 -11.5336 -146)" d="M 1533.82,2688.74 L 1532.4,2676.82 L 1769.09,2648.59 L 1770.51,2660.51 L 1533.82,2688.74 Z " />
<path stroke="none" fill="#000000" transform="matrix(0.0666667 0 0 0.0666667 -11.5336 -146)" d="M 1420.66,2788.62 L 1404.54,2792.58 L 1498.1,2629.8 L 1505.5,2641 L 1420.66,2788.62 Z " />
<path stroke="none" fill="#000000" transform="matrix(0.0666667 0 0 0.0666667 -11.5336 -146)" d="M 1879.5,2873.2 L 1883.2,2878.8 L 1882.08,2884.98 L 1601.98,2918.41 L 1604.82,2905.99 L 1879.5,2873.2 Z " />
<path stroke="none" fill="#000000" transform="matrix(0.0666667 0 0 0.0666667 -11.5336 -146)" d="M 1604.82,2905.99 L 1601.98,2918.41 L 1404.54,2792.58 L 1420.66,2788.62 L 1604.82,2905.99 Z " />
<path stroke="none" fill="#000000" transform="matrix(0.0666667 0 0 0.0666667 -11.5336 -146)" d="M 1616.24,2864.98 L 1609.79,2875.1 L 1464.07,2782.22 L 1470.52,2772.1 L 1616.24,2864.98 Z " />
<path stroke="none" fill="#000000" transform="matrix(0.0666667 0 0 0.0666667 -11.5336 -146)" d="M 2809.57,2790.97 L 2825.63,2795.03 L 2626.99,2920.22 L 2624.21,2907.78 L 2809.57,2790.97 Z " />
<path stroke="none" fill="#000000" transform="matrix(0.0666667 0 0 0.0666667 -11.5336 -146)" d="M 2759.72,2774.1 L 2766.11,2784.25 L 2619.34,2876.75 L 2612.94,2866.6 L 2759.72,2774.1 Z " />
<text x="0" y="0" stroke="none" fill="#000000" transform="matrix(0.0666667 0 0 0.0666667 122.36 127.16)" font-style="normal" font-weight="normal" font-size="200px" font-family="Arial" >
Rh</text>
<path stroke="#000000" stroke-width="12" fill="none" transform="matrix(0.0666667 0 0 0.0666667 -11.5336 -146)" d="M 2274,2824.4 C 2273.67,2785.98 2201.09,2755.52 2112,2756.4 C 2022.91,2757.28 1950.87,2789.18 1951.2,2827.6 C 1951.53,2866.02 2024.11,2896.48 2113.2,2895.6 C 2202.29,2894.72 2274.33,2862.82 2274,2824.4 " />
<path stroke="#000000" stroke-width="23" fill="none" transform="matrix(0.0666667 0 0 0.0666667 -11.5336 -146)" d="M 2130,3381 C 2118.91,3381 2109.9,3389.69 2109.9,3400.39 C 2109.9,3411.09 2118.91,3419.77 2130,3419.77 C 2141.09,3419.77 2150.1,3428.46 2150.1,3439.16 C 2150.1,3449.86 2141.09,3458.54 2130,3458.54 C 2118.91,3458.54 2109.9,3467.23 2109.9,3477.93 C 2109.9,3488.63 2118.91,3497.32 2130,3497.32 C 2141.09,3497.32 2150.1,3506 2150.1,3516.7 C 2150.1,3527.4 2141.09,3536.09 2130,3536.09 C 2118.91,3536.09 2109.9,3544.77 2109.9,3555.47 C 2109.9,3566.17 2118.91,3574.86 2130,3574.86 C 2141.09,3574.86 2150.1,3583.55 2150.1,3594.25 C 2150.1,3604.95 2141.09,3613.63 2130,3613.63 C 2118.91,3613.63 2109.9,3622.32 2109.9,3633.02 C 2109.9,3643.72 2118.91,3652.4 2130,3652.4 C 2141.09,3652.4 2150.1,3661.09 2150.1,3671.79 C 2150.1,3682.49 2141.09,3691.18 2130,3691.18 C 2118.91,3691.18 2109.9,3699.86 2109.9,3710.56 C 2109.9,3721.26 2118.91,3729.95 2130,3729.95 C 2141.09,3729.95 2150.1,3738.63 2150.1,3749.33 C 2150.1,3760.03 2141.09,3768.72 2130,3768.72 C 2118.91,3768.72 2109.9,3777.41 2109.9,3788.11 C 2109.9,3798.81 2118.91,3807.49 2130,3807.49 C 2141.09,3807.49 2150.1,3816.18 2150.1,3826.88 C 2150.1,3837.58 2141.09,3846.26 2130,3846.26 C 2118.91,3846.26 2109.9,3854.95 2109.9,3865.65 C 2109.9,3876.35 2118.91,3885.04 2130,3885.04 C 2141.09,3885.04 2150.1,3893.72 2150.1,3904.42 C 2150.1,3915.12 2141.09,3923.81 2130,3923.81 " />
<path stroke="none" fill="#bc3f1b" transform="matrix(0.0666667 0 0 0.0666667 -11.5336 -146)" d="M 447.6,3037.6 C 487.6,3047.4 447.6,3037.6 447.6,3037.6 C 522.4,3059.8 556.6,3073 592.2,3082.8 C 599.2,3085.2 606.2,3087.2 613.2,3089.2 C 915,3190.6 1217.2,3291.6 1519.2,3392.2 C 1561.4,3407.4 1605,3418.4 1645.4,3438 C 1643.4,3447.2 1641.4,3456.4 1639.6,3465.6 C 1582.6,3512.2 1520.4,3552.2 1455.6,3586.8 C 1444,3592.6 1434,3600.4 1424.6,3609.2 C 1389.8,3645 1339,3614.4 1298.6,3607.8 C 1295.2,3601.8 1292,3595.8 1288.8,3589.8 C 1327.6,3594.8 1367.8,3601.8 1405.6,3588.6 C 1403.6,3567 1389,3550.4 1369.4,3541.8 C 1294.4,3506.4 1216.8,3476 1137,3453 C 1018.8,3413.2 899.2,3376.6 775.8,3356.8 C 684.2,3334.6 592.6,3311.4 501,3289 C 439.4,3277.4 374.4,3270.8 319.8,3237.4 C 289.6,3220.2 276.4,3183.4 279.8,3150 C 282.2,3128.4 281.2,3102.4 299.6,3086.8 C 315.2,3089.8 346.4,3096.4 346.4,3096.4 C 342.4,3101.6 346.4,3096.4 346.4,3096.4 C 330,3118 321.2,3137 316.8,3157 C 319.8,3208.8 386.2,3232 424.2,3200.4 C 433.2,3186 440.2,3170.8 447,3155.2 C 448.2,3140.8 444.4,3126.6 435.6,3114.8 C 445.2,3116 454.8,3117 464,3119.4 C 678.2,3194.8 895,3262 1108.8,3338 C 1108.2,3339.2 1106.8,3342 1106.2,3343.2 C 1100.6,3354 1094.8,3364.6 1089.2,3375.4 C 1064.8,3427.6 1166.6,3456.8 1176.6,3399.6 C 1177.2,3407.2 1177.8,3414.8 1178.2,3422.6 C 1181.4,3411.4 1184.6,3400 1187.4,3388.8 C 1184.8,3390.6 1182,3392.8 1179.2,3394.6 C 1179.8,3382.4 1179,3370.2 1177,3358.2 C 1227.2,3361.4 1271.6,3388.2 1320.6,3398.2 C 1409.4,3426.4 1496.4,3466.8 1591,3470.4 C 1600.8,3470.8 1609,3465.2 1616.2,3459.4 C 1619.2,3455.4 1621.8,3451.4 1624.4,3447.2 C 1617.8,3446.4 1611.4,3445.4 1604.8,3444.8 C 1553.2,3418.2 1497.6,3400.6 1442.6,3382 C 1136.6,3280.8 831.8,3175.2 524.6,3077.2 C 473.8,3063.6 420.8,3044.4 367.8,3057.8 C 354.4,3060.6 341,3064 328.4,3069.2 C 324.2,3064.2 319.8,3059.6 315.6,3054.6 C 356.2,3034.4 403.2,3030.6 447.6,3037.6 C 447.6,3037.6 447.6,3037.6 447.6,3037.6 " />
<path stroke="#bc3f1b" stroke-width="1" fill="none" transform="matrix(0.0666667 0 0 0.0666667 -11.5336 -146)" d="M 447.6,3037.6 C 487.6,3047.4 447.6,3037.6 447.6,3037.6 C 522.4,3059.8 556.6,3073 592.2,3082.8 C 599.2,3085.2 606.2,3087.2 613.2,3089.2 C 915,3190.6 1217.2,3291.6 1519.2,3392.2 C 1561.4,3407.4 1605,3418.4 1645.4,3438 C 1643.4,3447.2 1641.4,3456.4 1639.6,3465.6 C 1582.6,3512.2 1520.4,3552.2 1455.6,3586.8 C 1444,3592.6 1434,3600.4 1424.6,3609.2 C 1389.8,3645 1339,3614.4 1298.6,3607.8 C 1295.2,3601.8 1292,3595.8 1288.8,3589.8 C 1327.6,3594.8 1367.8,3601.8 1405.6,3588.6 C 1403.6,3567 1389,3550.4 1369.4,3541.8 C 1294.4,3506.4 1216.8,3476 1137,3453 C 1018.8,3413.2 899.2,3376.6 775.8,3356.8 C 684.2,3334.6 592.6,3311.4 501,3289 C 439.4,3277.4 374.4,3270.8 319.8,3237.4 C 289.6,3220.2 276.4,3183.4 279.8,3150 C 282.2,3128.4 281.2,3102.4 299.6,3086.8 C 315.2,3089.8 346.4,3096.4 346.4,3096.4 C 342.4,3101.6 346.4,3096.4 346.4,3096.4 C 330,3118 321.2,3137 316.8,3157 C 319.8,3208.8 386.2,3232 424.2,3200.4 C 433.2,3186 440.2,3170.8 447,3155.2 C 448.2,3140.8 444.4,3126.6 435.6,3114.8 C 445.2,3116 454.8,3117 464,3119.4 C 678.2,3194.8 895,3262 1108.8,3338 C 1108.2,3339.2 1106.8,3342 1106.2,3343.2 C 1100.6,3354 1094.8,3364.6 1089.2,3375.4 C 1064.8,3427.6 1166.6,3456.8 1176.6,3399.6 C 1177.2,3407.2 1177.8,3414.8 1178.2,3422.6 C 1181.4,3411.4 1184.6,3400 1187.4,3388.8 C 1184.8,3390.6 1182,3392.8 1179.2,3394.6 C 1179.8,3382.4 1179,3370.2 1177,3358.2 C 1227.2,3361.4 1271.6,3388.2 1320.6,3398.2 C 1409.4,3426.4 1496.4,3466.8 1591,3470.4 C 1600.8,3470.8 1609,3465.2 1616.2,3459.4 C 1619.2,3455.4 1621.8,3451.4 1624.4,3447.2 C 1617.8,3446.4 1611.4,3445.4 1604.8,3444.8 C 1553.2,3418.2 1497.6,3400.6 1442.6,3382 C 1136.6,3280.8 831.8,3175.2 524.6,3077.2 C 473.8,3063.6 420.8,3044.4 367.8,3057.8 C 354.4,3060.6 341,3064 328.4,3069.2 C 324.2,3064.2 319.8,3059.6 315.6,3054.6 C 356.2,3034.4 403.2,3030.6 447.6,3037.6 C 447.6,3037.6 447.6,3037.6 447.6,3037.6 " />
<path stroke="none" fill="#f1cabe" transform="matrix(0.0666667 0 0 0.0666667 -11.5336 -146)" d="M 487.6,3047.4 C 575.8,3069.2 487.6,3047.4 487.6,3047.4 C 581.4,3073.6 586.8,3078.2 592.2,3082.8 C 556.6,3073 522.4,3059.8 487.6,3047.4 C 487.6,3047.4 487.6,3047.4 487.6,3047.4 " />
<path stroke="#f1cabe" stroke-width="1" fill="none" transform="matrix(0.0666667 0 0 0.0666667 -11.5336 -146)" d="M 487.6,3047.4 C 575.8,3069.2 487.6,3047.4 487.6,3047.4 C 581.4,3073.6 586.8,3078.2 592.2,3082.8 C 556.6,3073 522.4,3059.8 487.6,3047.4 C 487.6,3047.4 487.6,3047.4 487.6,3047.4 " />
<path stroke="none" fill="#f1cabe" transform="matrix(0.0666667 0 0 0.0666667 -11.5336 -146)" d="M 367.8,3057.8 C 420.8,3044.4 473.8,3063.6 524.6,3077.2 C 831.8,3175.2 1136.6,3280.8 1442.6,3382 C 1497.6,3400.6 1553.2,3418.2 1604.8,3444.8 C 1572.4,3448.8 1541.6,3435.2 1510.6,3428.6 C 1433.6,3411 1357,3388.2 1286.4,3352.4 C 1261.8,3342 1234.2,3341.4 1209.2,3332.2 C 1106.2,3294.6 998.4,3272.4 895.6,3234.2 C 772.4,3193.4 649.6,3150.4 526.4,3109.8 C 476.8,3083 419.4,3079.2 367.8,3057.8 C 367.8,3057.8 367.8,3057.8 367.8,3057.8 " />
<path stroke="#f1cabe" stroke-width="1" fill="none" transform="matrix(0.0666667 0 0 0.0666667 -11.5336 -146)" d="M 367.8,3057.8 C 420.8,3044.4 473.8,3063.6 524.6,3077.2 C 831.8,3175.2 1136.6,3280.8 1442.6,3382 C 1497.6,3400.6 1553.2,3418.2 1604.8,3444.8 C 1572.4,3448.8 1541.6,3435.2 1510.6,3428.6 C 1433.6,3411 1357,3388.2 1286.4,3352.4 C 1261.8,3342 1234.2,3341.4 1209.2,3332.2 C 1106.2,3294.6 998.4,3272.4 895.6,3234.2 C 772.4,3193.4 649.6,3150.4 526.4,3109.8 C 476.8,3083 419.4,3079.2 367.8,3057.8 C 367.8,3057.8 367.8,3057.8 367.8,3057.8 " />
<path stroke="none" fill="#e6e6e6" transform="matrix(0.0666667 0 0 0.0666667 -11.5336 -146)" d="M 1098.4,3361.4 C 1120.2,3339.6 1155.2,3350.2 1175.2,3369.4 C 1174.8,3372.4 1174.2,3378 1174,3380.8 C 1148.8,3373.6 1123.2,3369 1098.4,3361.4 C 1098.4,3361.4 1098.4,3361.4 1098.4,3361.4 " />
<path stroke="#e6e6e6" stroke-width="1" fill="none" transform="matrix(0.0666667 0 0 0.0666667 -11.5336 -146)" d="M 1098.4,3361.4 C 1120.2,3339.6 1155.2,3350.2 1175.2,3369.4 C 1174.8,3372.4 1174.2,3378 1174,3380.8 C 1148.8,3373.6 1123.2,3369 1098.4,3361.4 C 1098.4,3361.4 1098.4,3361.4 1098.4,3361.4 " />
<path stroke="none" fill="#d38973" transform="matrix(0.0666667 0 0 0.0666667 -11.5336 -146)" d="M 328.4,3069.2 C 341,3064 354.4,3060.6 367.8,3057.8 C 419.4,3079.2 476.8,3083 526.4,3109.8 C 649.6,3150.4 772.4,3193.4 895.6,3234.2 C 998.4,3272.4 1106.2,3294.6 1209.2,3332.2 C 1234.2,3341.4 1261.8,3342 1286.4,3352.4 C 1357,3388.2 1433.6,3411 1510.6,3428.6 C 1541.6,3435.2 1572.4,3448.8 1604.8,3444.8 C 1611.4,3445.4 1617.8,3446.4 1624.4,3447.2 C 1621.8,3451.4 1619.2,3455.4 1616.2,3459.4 C 1514.2,3462 1418.2,3420.6 1322.4,3390.6 C 1063.8,3312.2 808.4,3223.4 552.6,3136.6 C 509,3121.8 466,3104.8 421.2,3094.8 C 396.8,3088 370,3085.4 346.4,3096.4 C 330.8,3092.6 315.2,3089.8 299.6,3086.8 C 308.8,3080.4 318.4,3074.6 328.4,3069.2 C 328.4,3069.2 328.4,3069.2 328.4,3069.2 " />
<path stroke="#d38973" stroke-width="1" fill="none" transform="matrix(0.0666667 0 0 0.0666667 -11.5336 -146)" d="M 328.4,3069.2 C 341,3064 354.4,3060.6 367.8,3057.8 C 419.4,3079.2 476.8,3083 526.4,3109.8 C 649.6,3150.4 772.4,3193.4 895.6,3234.2 C 998.4,3272.4 1106.2,3294.6 1209.2,3332.2 C 1234.2,3341.4 1261.8,3342 1286.4,3352.4 C 1357,3388.2 1433.6,3411 1510.6,3428.6 C 1541.6,3435.2 1572.4,3448.8 1604.8,3444.8 C 1611.4,3445.4 1617.8,3446.4 1624.4,3447.2 C 1621.8,3451.4 1619.2,3455.4 1616.2,3459.4 C 1514.2,3462 1418.2,3420.6 1322.4,3390.6 C 1063.8,3312.2 808.4,3223.4 552.6,3136.6 C 509,3121.8 466,3104.8 421.2,3094.8 C 396.8,3088 370,3085.4 346.4,3096.4 C 330.8,3092.6 315.2,3089.8 299.6,3086.8 C 308.8,3080.4 318.4,3074.6 328.4,3069.2 C 328.4,3069.2 328.4,3069.2 328.4,3069.2 " />
<path stroke="none" fill="#a23116" transform="matrix(0.0666667 0 0 0.0666667 -11.5336 -146)" d="M 315.6,3054.6 C 319.8,3059.6 324.2,3064.2 328.4,3069.2 C 318.4,3074.6 308.8,3080.4 299.6,3086.8 C 281.2,3102.4 282.2,3128.4 279.8,3150 C 276.4,3183.4 289.6,3220.2 319.8,3237.4 C 374.4,3270.8 439.4,3277.4 501,3289 C 592.6,3311.4 684.2,3334.6 775.8,3356.8 C 899.2,3376.6 1018.8,3413.2 1137,3453 C 1216.8,3476 1294.4,3506.4 1369.4,3541.8 C 1389,3550.4 1403.6,3567 1405.6,3588.6 C 1367.8,3601.8 1327.6,3594.8 1288.8,3589.8 C 1292,3595.8 1295.2,3601.8 1298.6,3607.8 C 1223.4,3588.8 1147.8,3571.6 1073.2,3551.2 C 1054.4,3541.6 1034.8,3534.4 1014.6,3528.8 C 1065.6,3526.2 1114.6,3542.4 1165.2,3547 C 1211,3552.8 1259,3567.4 1304.4,3552 C 1231.8,3499 1141.6,3480.8 1058,3452.4 C 989.6,3425.8 916.8,3414 846.4,3394.4 C 745.6,3378.6 647.8,3348.6 548.4,3325.6 C 484.4,3306.2 416.8,3303.6 353.6,3281 C 311.6,3271 278.8,3235.6 263.2,3197 C 265.6,3159 260.4,3118.4 275.8,3082.4 C 287.6,3071.2 301.6,3062.6 315.6,3054.6 C 315.6,3054.6 315.6,3054.6 315.6,3054.6 " />
<path stroke="#a23116" stroke-width="1" fill="none" transform="matrix(0.0666667 0 0 0.0666667 -11.5336 -146)" d="M 315.6,3054.6 C 319.8,3059.6 324.2,3064.2 328.4,3069.2 C 318.4,3074.6 308.8,3080.4 299.6,3086.8 C 281.2,3102.4 282.2,3128.4 279.8,3150 C 276.4,3183.4 289.6,3220.2 319.8,3237.4 C 374.4,3270.8 439.4,3277.4 501,3289 C 592.6,3311.4 684.2,3334.6 775.8,3356.8 C 899.2,3376.6 1018.8,3413.2 1137,3453 C 1216.8,3476 1294.4,3506.4 1369.4,3541.8 C 1389,3550.4 1403.6,3567 1405.6,3588.6 C 1367.8,3601.8 1327.6,3594.8 1288.8,3589.8 C 1292,3595.8 1295.2,3601.8 1298.6,3607.8 C 1223.4,3588.8 1147.8,3571.6 1073.2,3551.2 C 1054.4,3541.6 1034.8,3534.4 1014.6,3528.8 C 1065.6,3526.2 1114.6,3542.4 1165.2,3547 C 1211,3552.8 1259,3567.4 1304.4,3552 C 1231.8,3499 1141.6,3480.8 1058,3452.4 C 989.6,3425.8 916.8,3414 846.4,3394.4 C 745.6,3378.6 647.8,3348.6 548.4,3325.6 C 484.4,3306.2 416.8,3303.6 353.6,3281 C 311.6,3271 278.8,3235.6 263.2,3197 C 265.6,3159 260.4,3118.4 275.8,3082.4 C 287.6,3071.2 301.6,3062.6 315.6,3054.6 C 315.6,3054.6 315.6,3054.6 315.6,3054.6 " />
<path stroke="none" fill="#c24a29" transform="matrix(0.0666667 0 0 0.0666667 -11.5336 -146)" d="M 421.2,3094.8 C 466,3104.8 509,3121.8 552.6,3136.6 C 808.4,3223.4 1063.8,3312.2 1322.4,3390.6 C 1418.2,3420.6 1514.2,3462 1616.2,3459.4 C 1609,3465.2 1600.8,3470.8 1591,3470.4 C 1496.4,3466.8 1409.4,3426.4 1320.6,3398.2 C 1271.6,3388.2 1227.2,3361.4 1177,3358.2 C 1154.4,3348.8 1130.8,3341.4 1106.2,3343.2 C 1106.8,3342 1108.2,3339.2 1108.8,3338 C 895,3262 678.2,3194.8 464,3119.4 C 454.8,3117 445.2,3116 435.6,3114.8 C 431,3108.2 426,3101.6 421.2,3094.8 C 421.2,3094.8 421.2,3094.8 421.2,3094.8 " />
<path stroke="#c24a29" stroke-width="1" fill="none" transform="matrix(0.0666667 0 0 0.0666667 -11.5336 -146)" d="M 421.2,3094.8 C 466,3104.8 509,3121.8 552.6,3136.6 C 808.4,3223.4 1063.8,3312.2 1322.4,3390.6 C 1418.2,3420.6 1514.2,3462 1616.2,3459.4 C 1609,3465.2 1600.8,3470.8 1591,3470.4 C 1496.4,3466.8 1409.4,3426.4 1320.6,3398.2 C 1271.6,3388.2 1227.2,3361.4 1177,3358.2 C 1154.4,3348.8 1130.8,3341.4 1106.2,3343.2 C 1106.8,3342 1108.2,3339.2 1108.8,3338 C 895,3262 678.2,3194.8 464,3119.4 C 454.8,3117 445.2,3116 435.6,3114.8 C 431,3108.2 426,3101.6 421.2,3094.8 C 421.2,3094.8 421.2,3094.8 421.2,3094.8 " />
<path stroke="none" fill="#86230d" transform="matrix(0.0666667 0 0 0.0666667 -11.5336 -146)" d="M 346.4,3096.4 C 370,3085.4 396.8,3088 421.2,3094.8 C 426,3101.6 431,3108.2 435.6,3114.8 C 444.4,3126.6 448.2,3140.8 447,3155.2 C 427.2,3115.2 342.4,3101.6 342.4,3101.6 C 346.4,3096.4 342.4,3101.6 342.4,3101.6 C 342.4,3101.6 346.4,3096.4 346.4,3096.4 " />
<path stroke="#86230d" stroke-width="1" fill="none" transform="matrix(0.0666667 0 0 0.0666667 -11.5336 -146)" d="M 346.4,3096.4 C 370,3085.4 396.8,3088 421.2,3094.8 C 426,3101.6 431,3108.2 435.6,3114.8 C 444.4,3126.6 448.2,3140.8 447,3155.2 C 427.2,3115.2 342.4,3101.6 342.4,3101.6 C 346.4,3096.4 342.4,3101.6 342.4,3101.6 C 342.4,3101.6 346.4,3096.4 346.4,3096.4 " />
<path stroke="none" fill="#86230d" transform="matrix(0.0666667 0 0 0.0666667 -11.5336 -146)" d="M 272.6,3319 C 223.8,3251.8 205.4,3142 275.8,3082.4 C 260.4,3118.4 265.6,3159 263.2,3197 C 278.8,3235.6 311.6,3271 353.6,3281 C 416.8,3303.6 484.4,3306.2 548.4,3325.6 C 647.8,3348.6 745.6,3378.6 846.4,3394.4 C 916.8,3414 989.6,3425.8 1058,3452.4 C 1141.6,3480.8 1231.8,3499 1304.4,3552 C 1259,3567.4 1211,3552.8 1165.2,3547 C 1114.6,3542.4 1065.6,3526.2 1014.6,3528.8 C 1034.8,3534.4 1054.4,3541.6 1073.2,3551.2 C 843,3496 613.2,3439 385.4,3375.6 C 346,3361 297.6,3357.4 272.6,3319 C 272.6,3319 272.6,3319 272.6,3319 " />
<path stroke="#86230d" stroke-width="1" fill="none" transform="matrix(0.0666667 0 0 0.0666667 -11.5336 -146)" d="M 272.6,3319 C 223.8,3251.8 205.4,3142 275.8,3082.4 C 260.4,3118.4 265.6,3159 263.2,3197 C 278.8,3235.6 311.6,3271 353.6,3281 C 416.8,3303.6 484.4,3306.2 548.4,3325.6 C 647.8,3348.6 745.6,3378.6 846.4,3394.4 C 916.8,3414 989.6,3425.8 1058,3452.4 C 1141.6,3480.8 1231.8,3499 1304.4,3552 C 1259,3567.4 1211,3552.8 1165.2,3547 C 1114.6,3542.4 1065.6,3526.2 1014.6,3528.8 C 1034.8,3534.4 1054.4,3541.6 1073.2,3551.2 C 843,3496 613.2,3439 385.4,3375.6 C 346,3361 297.6,3357.4 272.6,3319 C 272.6,3319 272.6,3319 272.6,3319 " />
<path stroke="none" fill="#611a0c" transform="matrix(0.0666667 0 0 0.0666667 -11.5336 -146)" d="M 342.4,3101.6 C 376.6,3120.8 427.2,3115.2 447,3155.2 C 440.2,3170.8 433.2,3186 424.2,3200.4 C 408.2,3168.4 375,3151 344.8,3135.2 C 330,3126.8 322.8,3147.6 316.8,3157 C 321.2,3137 330,3118 342.4,3101.6 C 342.4,3101.6 342.4,3101.6 342.4,3101.6 " />
<path stroke="#611a0c" stroke-width="1" fill="none" transform="matrix(0.0666667 0 0 0.0666667 -11.5336 -146)" d="M 342.4,3101.6 C 376.6,3120.8 427.2,3115.2 447,3155.2 C 440.2,3170.8 433.2,3186 424.2,3200.4 C 408.2,3168.4 375,3151 344.8,3135.2 C 330,3126.8 322.8,3147.6 316.8,3157 C 321.2,3137 330,3118 342.4,3101.6 C 342.4,3101.6 342.4,3101.6 342.4,3101.6 " />
<path stroke="none" fill="#411508" transform="matrix(0.0666667 0 0 0.0666667 -11.5336 -146)" d="M 316.8,3157 C 322.8,3147.6 330,3126.8 344.8,3135.2 C 375,3151 408.2,3168.4 424.2,3200.4 C 386.2,3232 319.8,3208.8 316.8,3157 C 316.8,3157 316.8,3157 316.8,3157 " />
<path stroke="#411508" stroke-width="1" fill="none" transform="matrix(0.0666667 0 0 0.0666667 -11.5336 -146)" d="M 316.8,3157 C 322.8,3147.6 330,3126.8 344.8,3135.2 C 375,3151 408.2,3168.4 424.2,3200.4 C 386.2,3232 319.8,3208.8 316.8,3157 C 316.8,3157 316.8,3157 316.8,3157 " />
<path stroke="none" fill="#411508" transform="matrix(0.0666667 0 0 0.0666667 -11.5336 -146)" d="M 1106.2,3343.2 C 1130.8,3341.4 1154.4,3348.8 1177,3358.2 C 1179,3370.2 1179.8,3382.4 1179.2,3394.6 C 1182,3392.8 1184.8,3390.6 1187.4,3388.8 C 1184.6,3400 1181.4,3411.4 1178.2,3422.6 C 1177.8,3414.8 1177.2,3407.2 1176.6,3399.6 C 1148.6,3387.6 1119,3380.4 1089.2,3375.4 C 1094.8,3364.6 1106.2,3343.2 1106.2,3343.2 " />
<path stroke="#411508" stroke-width="1" fill="none" transform="matrix(0.0666667 0 0 0.0666667 -11.5336 -146)" d="M 1106.2,3343.2 C 1130.8,3341.4 1154.4,3348.8 1177,3358.2 C 1179,3370.2 1179.8,3382.4 1179.2,3394.6 C 1182,3392.8 1184.8,3390.6 1187.4,3388.8 C 1184.6,3400 1181.4,3411.4 1178.2,3422.6 C 1177.8,3414.8 1177.2,3407.2 1176.6,3399.6 C 1148.6,3387.6 1119,3380.4 1089.2,3375.4 C 1094.8,3364.6 1106.2,3343.2 1106.2,3343.2 " />
<path stroke="none" fill="#000000" transform="matrix(0.0666667 0 0 0.0666667 -11.5336 -146)" d="M 1098.4,3361.4 C 1123.2,3369 1148.8,3373.6 1174,3380.8 C 1174.2,3378 1174.8,3372.4 1175.2,3369.4 C 1155.2,3350.2 1120.2,3339.6 1098.4,3361.4 C 1098.4,3361.4 1098.4,3361.4 1098.4,3361.4 " />
<path stroke="#000000" stroke-width="1" fill="none" transform="matrix(0.0666667 0 0 0.0666667 -11.5336 -146)" d="M 1098.4,3361.4 C 1123.2,3369 1148.8,3373.6 1174,3380.8 C 1174.2,3378 1174.8,3372.4 1175.2,3369.4 C 1155.2,3350.2 1120.2,3339.6 1098.4,3361.4 C 1098.4,3361.4 1098.4,3361.4 1098.4,3361.4 " />
<path stroke="none" fill="#8fabd9" transform="matrix(0.0666667 0 0 0.0666667 -11.5336 -146)" d="M 1455.6,3586.8 C 1520.4,3552.2 1582.6,3512.2 1639.6,3465.6 C 1661.2,3538.4 1679.6,3612.4 1702.8,3685.2 C 1621,3654.2 1539.2,3623.4 1457.4,3593 C 1457,3591.4 1456,3588.4 1455.6,3586.8 C 1455.6,3586.8 1455.6,3586.8 1455.6,3586.8 " />
<path stroke="#8fabd9" stroke-width="1" fill="none" transform="matrix(0.0666667 0 0 0.0666667 -11.5336 -146)" d="M 1455.6,3586.8 C 1520.4,3552.2 1582.6,3512.2 1639.6,3465.6 C 1661.2,3538.4 1679.6,3612.4 1702.8,3685.2 C 1621,3654.2 1539.2,3623.4 1457.4,3593 C 1457,3591.4 1456,3588.4 1455.6,3586.8 C 1455.6,3586.8 1455.6,3586.8 1455.6,3586.8 " />
<path stroke="none" fill="#8b93a2" transform="matrix(0.0666667 0 0 0.0666667 -11.5336 -146)" d="M 1089.2,3375.4 C 1119,3380.4 1148.6,3387.6 1176.6,3399.6 C 1166.6,3456.8 1064.8,3427.6 1089.2,3375.4 C 1089.2,3375.4 1089.2,3375.4 1089.2,3375.4 " />
<path stroke="#8b93a2" stroke-width="1" fill="none" transform="matrix(0.0666667 0 0 0.0666667 -11.5336 -146)" d="M 1089.2,3375.4 C 1119,3380.4 1148.6,3387.6 1176.6,3399.6 C 1166.6,3456.8 1064.8,3427.6 1089.2,3375.4 C 1089.2,3375.4 1089.2,3375.4 1089.2,3375.4 " />
<path stroke="none" fill="#8b93a2" transform="matrix(0.0666667 0 0 0.0666667 -11.5336 -146)" d="M 1424.6,3609.2 C 1434,3600.4 1444,3592.6 1455.6,3586.8 C 1456,3588.4 1457,3591.4 1457.4,3593 C 1453.8,3600.4 1450,3607.8 1446.6,3615.2 C 1439.2,3613.2 1432,3611.2 1424.6,3609.2 C 1424.6,3609.2 1424.6,3609.2 1424.6,3609.2 " />
<path stroke="#8b93a2" stroke-width="1" fill="none" transform="matrix(0.0666667 0 0 0.0666667 -11.5336 -146)" d="M 1424.6,3609.2 C 1434,3600.4 1444,3592.6 1455.6,3586.8 C 1456,3588.4 1457,3591.4 1457.4,3593 C 1453.8,3600.4 1450,3607.8 1446.6,3615.2 C 1439.2,3613.2 1432,3611.2 1424.6,3609.2 C 1424.6,3609.2 1424.6,3609.2 1424.6,3609.2 " />
<path stroke="none" fill="#4a7dab" transform="matrix(0.0666667 0 0 0.0666667 -11.5336 -146)" d="M 1446.6,3615.2 C 1450,3607.8 1453.8,3600.4 1457.4,3593 C 1539.2,3623.4 1621,3654.2 1702.8,3685.2 C 1705.2,3692.2 1710,3706.4 1710,3706.4 C 1710,3706.4 1710,3706.4 1710,3706.4 C 1710,3706.4 1710,3706.4 1710,3706.4 C 1710,3706.4 1708.8,3708.2 1708.8,3708.2 C 1635.4,3684.4 1534.2,3645.4 1446.6,3615.2 C 1446.6,3615.2 1446.6,3615.2 1446.6,3615.2 " />
<path stroke="#4a7dab" stroke-width="1" fill="none" transform="matrix(0.0666667 0 0 0.0666667 -11.5336 -146)" d="M 1446.6,3615.2 C 1450,3607.8 1453.8,3600.4 1457.4,3593 C 1539.2,3623.4 1621,3654.2 1702.8,3685.2 C 1705.2,3692.2 1710,3706.4 1710,3706.4 C 1710,3706.4 1710,3706.4 1710,3706.4 C 1710,3706.4 1710,3706.4 1710,3706.4 C 1710,3706.4 1708.8,3708.2 1708.8,3708.2 C 1635.4,3684.4 1534.2,3645.4 1446.6,3615.2 C 1446.6,3615.2 1446.6,3615.2 1446.6,3615.2 " />
<path stroke="none" fill="#ffffff" transform="matrix(0.0666667 0 0 0.0666667 -11.5336 -146)" d="M 435.4,3193.6 C 422.815,3236.98 654.984,3342.72 953.6,3429.6 C 1252.22,3516.48 1504.81,3551.78 1517.4,3508.4 C 1529.98,3465.02 1297.82,3359.28 999.2,3272.4 C 700.584,3185.52 447.985,3150.21 435.4,3193.6 " />
<path stroke="#ffffff" stroke-width="1" fill="none" transform="matrix(0.0666667 0 0 0.0666667 -11.5336 -146)" d="M 435.4,3193.6 C 422.815,3236.98 654.984,3342.72 953.6,3429.6 C 1252.22,3516.48 1504.81,3551.78 1517.4,3508.4 C 1529.98,3465.02 1297.82,3359.28 999.2,3272.4 C 700.584,3185.52 447.985,3150.21 435.4,3193.6 " />
<path stroke="#c24a29" stroke-width="12" fill="none" transform="matrix(0.0666667 0 0 0.0666667 -11.5336 -146)" d="M 435.4,3193.6 C 422.815,3236.98 654.984,3342.72 953.6,3429.6 C 1252.22,3516.48 1504.81,3551.78 1517.4,3508.4 C 1529.98,3465.02 1297.82,3359.28 999.2,3272.4 C 700.584,3185.52 447.985,3150.21 435.4,3193.6 " />
<text x="0" y="0" stroke="none" fill="#000000" transform="matrix(0.0640841 0.0183758 -0.0183758 0.0640841 26.3597 72.04)" font-style="normal" font-weight="normal" font-size="120px" font-family="Arial" >
thermodynamics</text>
</svg>
